<?xml version="1.0" encoding="UTF-8" standalone="no"?>
<!-- Created with Inkscape (http://www.inkscape.org/) -->

<svg
   version="1.1"
   id="svg55"
   width="904.32001"
   height="904.32001"
   viewBox="0 0 904.32001 904.32001"
   sodipodi:docname="jl_logo_flat-darkmode-exp4.svg"
   inkscape:version="1.2.2 (b0a8486541, 2022-12-01)"
   xmlns:inkscape="http://www.inkscape.org/namespaces/inkscape"
   xmlns:sodipodi="http://sodipodi.sourceforge.net/DTD/sodipodi-0.dtd"
   xmlns:xlink="http://www.w3.org/1999/xlink"
   xmlns="http://www.w3.org/2000/svg"
   xmlns:svg="http://www.w3.org/2000/svg">
  <sodipodi:namedview
     id="namedview229"
     pagecolor="#505050"
     bordercolor="#ffffff"
     borderopacity="1"
     inkscape:showpageshadow="0"
     inkscape:pageopacity="0"
     inkscape:pagecheckerboard="1"
     inkscape:deskcolor="#505050"
     showgrid="false"
     inkscape:zoom="0.61814401"
     inkscape:cx="422.2317"
     inkscape:cy="453.77775"
     inkscape:window-width="1366"
     inkscape:window-height="722"
     inkscape:window-x="0"
     inkscape:window-y="0"
     inkscape:window-maximized="1"
     inkscape:current-layer="svg55" />
  <defs
     id="defs59">
    <linearGradient
       id="linearGradient5077-1">
      <stop
         style="stop-color:#35031a;stop-opacity:1;"
         offset="0"
         id="stop6247" />
      <stop
         style="stop-color:#9f260a;stop-opacity:1;"
         offset="0.22"
         id="stop6249" />
      <stop
         style="stop-color:#d37a0d;stop-opacity:1;"
         offset="0.44"
         id="stop6251" />
      <stop
         style="stop-color:#076909;stop-opacity:1;"
         offset="0.76999998"
         id="stop6253" />
      <stop
         style="stop-color:#07466a;stop-opacity:1;"
         offset="0.88"
         id="stop6255" />
      <stop
         style="stop-color:#35031a;stop-opacity:1"
         offset="1"
         id="stop6257" />
    </linearGradient>
    <linearGradient
       id="linearGradient5077">
      <stop
         style="stop-color:#000000;stop-opacity:0;"
         offset="0"
         id="stop6244" />
      <stop
         style="stop-color:#442204;stop-opacity:0.22;"
         offset="0.11"
         id="stop6242" />
      <stop
         style="stop-color:#073720;stop-opacity:0.44;"
         offset="0.22"
         id="stop6240" />
      <stop
         style="stop-color:#0e4d0e;stop-opacity:0.65882355;"
         offset="0.33000001"
         id="stop5733" />
      <stop
         style="stop-color:#5e9a0e;stop-opacity:0.88;"
         offset="0.44"
         id="stop6238" />
      <stop
         style="stop-color:#f2c62a;stop-opacity:1;"
         offset="0.55000001"
         id="stop7187" />
      <stop
         style="stop-color:#eb7513;stop-opacity:0.88;"
         offset="0.66000003"
         id="stop7915" />
      <stop
         style="stop-color:#a52c16;stop-opacity:0.65882355;"
         offset="0.76999998"
         id="stop8643" />
      <stop
         style="stop-color:#69190d;stop-opacity:0.43921569;"
         offset="0.88"
         id="stop9371" />
      <stop
         style="stop-color:#442204;stop-opacity:0.21960784;"
         offset="0.94"
         id="stop6236" />
      <stop
         style="stop-color:#000000;stop-opacity:0;"
         offset="1"
         id="stop6234" />
    </linearGradient>
    <linearGradient
       id="linearGradient5978">
      <stop
         style="stop-color:#35031a;stop-opacity:1;"
         offset="0"
         id="stop5966" />
      <stop
         style="stop-color:#9f260a;stop-opacity:1;"
         offset="0.22"
         id="stop5968" />
      <stop
         style="stop-color:#d37a0d;stop-opacity:1;"
         offset="0.44"
         id="stop5970" />
      <stop
         style="stop-color:#076909;stop-opacity:1;"
         offset="0.76999998"
         id="stop5972" />
      <stop
         style="stop-color:#07466a;stop-opacity:1;"
         offset="0.88"
         id="stop5974" />
      <stop
         style="stop-opacity:0"
         offset="1"
         id="stop5976" />
    </linearGradient>
    <linearGradient
       id="linearGradient5077-2">
      <stop
         style="stop-color:#35031a;stop-opacity:1;"
         offset="0"
         id="stop5065" />
      <stop
         style="stop-color:#9f260a;stop-opacity:1;"
         offset="0.33126885"
         id="stop5067" />
      <stop
         style="stop-color:#d37a0d;stop-opacity:1;"
         offset="0.33126885"
         id="stop5069" />
      <stop
         style="stop-color:#076909;stop-opacity:1;"
         offset="0.76338273"
         id="stop5071" />
      <stop
         style="stop-color:#07466a;stop-opacity:1;"
         offset="0.88"
         id="stop5073" />
      <stop
         style="stop-color:#35031a;stop-opacity:1"
         offset="1"
         id="stop5075" />
    </linearGradient>
    <linearGradient
       id="linearGradient4931-5">
      <stop
         style="stop-color:#35031a;stop-opacity:1;"
         offset="0"
         id="stop5036" />
      <stop
         style="stop-color:#9f260a;stop-opacity:1;"
         offset="0.22"
         id="stop5038" />
      <stop
         style="stop-color:#d37a0d;stop-opacity:1;"
         offset="0.44"
         id="stop5040" />
      <stop
         style="stop-color:#076909;stop-opacity:1;"
         offset="0.76999998"
         id="stop5042" />
      <stop
         style="stop-color:#07466a;stop-opacity:1;"
         offset="0.88"
         id="stop5044" />
      <stop
         style="stop-color:#35031a;stop-opacity:1;"
         offset="1"
         id="stop5046" />
    </linearGradient>
    <linearGradient
       id="linearGradient4931-3">
      <stop
         style="stop-color:#35031a;stop-opacity:1;"
         offset="0"
         id="stop5023" />
      <stop
         style="stop-color:#9f260a;stop-opacity:1;"
         offset="0.22"
         id="stop5025" />
      <stop
         style="stop-color:#d37a0d;stop-opacity:1;"
         offset="0.44"
         id="stop5027" />
      <stop
         style="stop-color:#076909;stop-opacity:1;"
         offset="0.76999998"
         id="stop5029" />
      <stop
         style="stop-color:#07466a;stop-opacity:1;"
         offset="0.88"
         id="stop5031" />
      <stop
         style="stop-color:#35031a;stop-opacity:1;"
         offset="1"
         id="stop5033" />
    </linearGradient>
    <linearGradient
       id="linearGradient4931-6">
      <stop
         style="stop-color:#35031a;stop-opacity:1;"
         offset="0"
         id="stop4984" />
      <stop
         style="stop-color:#9f260a;stop-opacity:1;"
         offset="0.22"
         id="stop4986" />
      <stop
         style="stop-color:#d37a0d;stop-opacity:1;"
         offset="0.44"
         id="stop4988" />
      <stop
         style="stop-color:#076909;stop-opacity:1;"
         offset="0.76999998"
         id="stop4990" />
      <stop
         style="stop-color:#07466a;stop-opacity:1;"
         offset="0.88"
         id="stop4992" />
      <stop
         style="stop-color:#35031a;stop-opacity:1;"
         offset="1"
         id="stop4994" />
    </linearGradient>
    <linearGradient
       id="linearGradient4931-2">
      <stop
         style="stop-color:#35031a;stop-opacity:1;"
         offset="0"
         id="stop4971" />
      <stop
         style="stop-color:#9f260a;stop-opacity:1;"
         offset="0.22"
         id="stop4973" />
      <stop
         style="stop-color:#d37a0d;stop-opacity:1;"
         offset="0.44"
         id="stop4975" />
      <stop
         style="stop-color:#076909;stop-opacity:1;"
         offset="0.76999998"
         id="stop4977" />
      <stop
         style="stop-color:#07466a;stop-opacity:1;"
         offset="0.88"
         id="stop4979" />
      <stop
         style="stop-color:#35031a;stop-opacity:1;"
         offset="1"
         id="stop4981" />
    </linearGradient>
    <linearGradient
       id="linearGradient4931-1">
      <stop
         style="stop-color:#35031a;stop-opacity:1;"
         offset="0"
         id="stop4958" />
      <stop
         style="stop-color:#9f260a;stop-opacity:1;"
         offset="0.22"
         id="stop4960" />
      <stop
         style="stop-color:#d37a0d;stop-opacity:1;"
         offset="0.44"
         id="stop4962" />
      <stop
         style="stop-color:#076909;stop-opacity:1;"
         offset="0.76999998"
         id="stop4964" />
      <stop
         style="stop-color:#07466a;stop-opacity:1;"
         offset="0.88"
         id="stop4966" />
      <stop
         style="stop-color:#35031a;stop-opacity:1;"
         offset="1"
         id="stop4968" />
    </linearGradient>
    <linearGradient
       id="linearGradient4931">
      <stop
         style="stop-color:#35031a;stop-opacity:1;"
         offset="0"
         id="stop4945" />
      <stop
         style="stop-color:#9f260a;stop-opacity:1;"
         offset="0.22"
         id="stop4947" />
      <stop
         style="stop-color:#d37a0d;stop-opacity:1;"
         offset="0.44"
         id="stop4949" />
      <stop
         style="stop-color:#076909;stop-opacity:1;"
         offset="0.76999998"
         id="stop4951" />
      <stop
         style="stop-color:#07466a;stop-opacity:1;"
         offset="0.88"
         id="stop4953" />
      <stop
         style="stop-color:#35031a;stop-opacity:1;"
         offset="1"
         id="stop4955" />
    </linearGradient>
    <linearGradient
       id="linearGradient4931-4">
      <stop
         style="stop-color:#35031a;stop-opacity:1;"
         offset="0"
         id="stop4927" />
      <stop
         style="stop-color:#9f260a;stop-opacity:1;"
         offset="0.22"
         id="stop4935" />
      <stop
         style="stop-color:#d37a0d;stop-opacity:1;"
         offset="0.44"
         id="stop4937" />
      <stop
         style="stop-color:#076909;stop-opacity:1;"
         offset="0.76999998"
         id="stop4941" />
      <stop
         style="stop-color:#07466a;stop-opacity:1;"
         offset="0.88"
         id="stop4943" />
      <stop
         style="stop-color:#35031a;stop-opacity:1;"
         offset="1"
         id="stop4929" />
    </linearGradient>
    <linearGradient
       id="linearGradient4914">
      <stop
         style="stop-color:#000000;stop-opacity:1;"
         offset="0"
         id="stop4918" />
      <stop
         style="stop-color:#000000;stop-opacity:0;"
         offset="1"
         id="stop4920" />
    </linearGradient>
    <linearGradient
       id="linearGradient4914-1">
      <stop
         style="stop-color:#000000;stop-opacity:1;"
         offset="0"
         id="stop4910" />
      <stop
         style="stop-color:#000000;stop-opacity:0;"
         offset="1"
         id="stop4912" />
    </linearGradient>
    <linearGradient
       id="linearGradient4817">
      <stop
         style="stop-color:#000000;stop-opacity:1;"
         offset="0"
         id="stop4813" />
      <stop
         style="stop-color:#000000;stop-opacity:0;"
         offset="1"
         id="stop4815" />
    </linearGradient>
    <linearGradient
       id="linearGradient4807">
      <stop
         style="stop-color:#000000;stop-opacity:1;"
         offset="0"
         id="stop4803" />
      <stop
         style="stop-color:#000000;stop-opacity:0;"
         offset="1"
         id="stop4805" />
    </linearGradient>
    <linearGradient
       id="Rainbowie">
      <stop
         style="stop-color:#35031a;stop-opacity:1;"
         offset="0.11"
         id="stop4760" />
      <stop
         style="stop-color:#6a1907;stop-opacity:1;"
         offset="0.22"
         id="stop4762" />
      <stop
         style="stop-color:#d3560d;stop-opacity:1;"
         offset="0.44"
         id="stop4764" />
      <stop
         style="stop-color:#d29e0e;stop-opacity:1;"
         offset="0.55000001"
         id="stop4766" />
      <stop
         style="stop-color:#07692e;stop-opacity:1;"
         offset="0.88"
         id="stop4768" />
      <stop
         style="stop-color:#076769;stop-opacity:1;"
         offset="0.99880683"
         id="stop4770" />
    </linearGradient>
    <linearGradient
       id="Rainbowie-1">
      <stop
         style="stop-color:#35031a;stop-opacity:1;"
         offset="0.11"
         id="stop4740" />
      <stop
         style="stop-color:#6a1907;stop-opacity:1;"
         offset="0.22"
         id="stop4754" />
      <stop
         style="stop-color:#d3560d;stop-opacity:1;"
         offset="0.44"
         id="stop4748" />
      <stop
         style="stop-color:#d29e0e;stop-opacity:1;"
         offset="0.55000001"
         id="stop4752" />
      <stop
         style="stop-color:#07692e;stop-opacity:1;"
         offset="0.88"
         id="stop4750" />
      <stop
         style="stop-color:#076769;stop-opacity:1;"
         offset="0.99880683"
         id="stop4742" />
    </linearGradient>
    <filter
       style="color-interpolation-filters:sRGB"
       id="filter10570"
       x="-0.0021716323"
       y="-0.0017206276"
       width="1.0043433"
       height="1.0034413">
      <feGaussianBlur
         stdDeviation="0.5804314"
         id="feGaussianBlur10572" />
    </filter>
    <radialGradient
       xlink:href="#linearGradient5077"
       id="radialGradient10586"
       cx="448.88254"
       cy="456.73251"
       fx="448.88254"
       fy="456.73251"
       r="337.79932"
       gradientTransform="matrix(1,0,0,1.2488755,0,-113.66955)"
       gradientUnits="userSpaceOnUse" />
    <filter
       style="color-interpolation-filters:sRGB"
       id="filter11564"
       x="-0.0036682121"
       y="-0.0028981416"
       width="1.0073173"
       height="1.0057986">
      <feGaussianBlur
         stdDeviation="0.14510785"
         id="feGaussianBlur11566" />
    </filter>
  </defs>
  <path
     id="path6104"
     style="display:inline;opacity:1;mix-blend-mode:overlay;fill:url(#radialGradient10586);fill-opacity:1;stroke:none;stroke-width:8;stroke-dasharray:none;stroke-opacity:1;filter:url(#filter10570);stroke-linejoin:round;paint-order:stroke markers fill"
     d="m 183.19922,457.43164 c -5.29103,0.0527 -9.07308,3.42255 -9.4668,8.25977 -0.69995,8.5995 5.49219,15.66211 5.49219,15.66211 0,0 -1.76973,-2.45003 -9.74219,0.0684 -7.97245,2.51837 -9.64961,15.31533 -2.7793,24.75 6.87033,9.43466 25.78822,2.9377 30.53516,-0.28907 4.74696,-3.22676 16.99116,-5.88156 16.91406,-11.62695 -0.0771,-5.74538 -5.42187,-4.18359 -5.42187,-4.18359 0,0 0.23547,-14.81581 -11.32813,-25.87696 -5.05907,-4.83925 -10.08787,-6.80463 -14.20312,-6.76367 z m 3.77734,8.05078 c 0.44299,0.005 0.92856,0.0604 1.45899,0.17383 11.31587,2.4195 12.42187,27.68164 12.42187,27.68164 0,0 -21.36141,11.73855 -25.93945,2.24414 -4.57806,-9.49441 11.48242,-8.83789 11.48242,-8.83789 0,0 -8.43129,-21.35467 0.57617,-21.26172 z m -31.00195,50.67774 c -1.804,-10e-4 -3.63094,0.28606 -5.45313,0.88476 -11.66199,3.83173 -12.0953,11.50578 -10.83203,16.65235 1.26328,5.14657 4.85157,7.42187 4.85157,7.42187 0,0 -12.60355,0.18587 -15.30079,9.67188 -2.69722,9.486 -0.89215,19.97271 11.01954,24.10351 11.91169,4.13081 37.77327,-17.16936 41.73437,-15.40625 3.9611,1.7631 4.52539,-3.04492 4.52539,-3.04492 0,0 1.64277,-2.02334 -0.20508,-4.75195 -1.84786,-2.72862 -3.28673,2.70796 -7.76562,-13.44141 -3.77908,-13.62603 -12.83261,-22.08181 -22.57422,-22.08984 z m 0.70312,10.36718 c 1.38851,-0.0341 3.07898,0.23223 5.13868,0.78907 8.23879,2.22731 11.58203,24.47656 11.58203,24.47656 0,0 -7.41883,2.27956 -15.80274,10.875 -8.38391,8.59543 -20.1778,1.36696 -20.55468,-6.53516 -0.37689,-7.90212 16.88671,-9.65429 16.88671,-9.65429 0,0 -4.14721,-3.64425 -3.41406,-11.30274 0.54986,-5.74386 1.99855,-8.54616 6.16406,-8.64844 z M 641.85912,71.533352 c 0,0 13.46651,-9.492501 33.81671,-0.789288 20.3502,8.703212 13.18767,20.090165 4.10306,15.986306 -9.08461,-4.10386 -2.33363,-8.233771 -19.4377,-12.647189 -17.10408,-4.413418 -18.48207,-2.549829 -18.48207,-2.549829 z m -44.69277,14.357733 c 0,0 -2.04163,-3.008818 -0.56148,-5.061268 1.48016,-2.052451 19.08889,-12.009627 28.7653,-10.219177 9.67641,1.790449 4.03356,6.102321 1.32819,5.585127 -2.70537,-0.517194 -2.04403,-1.028302 -4.09603,-0.870628 -2.052,0.157673 -3.79961,2.465783 -3.79961,2.465783 0,0 1.39513,1.593391 8.43821,2.955653 7.04308,1.362262 24.2593,-3.761349 29.10129,4.454715 4.84199,8.216065 1.76015,16.5384 -8.40324,13.286192 -10.16339,-3.25221 -26.61858,-9.071496 -36.60608,-9.640113 -9.9875,-0.568617 -5.97679,2.45412 -10.21012,1.450251 -4.23332,-1.003869 -3.95643,-4.406535 -3.95643,-4.406535 z m -38.88972,21.585735 c 0,0 -4.36621,-2.73913 -1.03729,-7.44115 3.32891,-4.702018 3.62642,-1.440357 6.27807,-5.897236 2.65165,-4.456878 0.55194,-13.350211 12.05825,-21.686103 11.50631,-8.335891 22.26873,-6.517081 22.42221,-2.139463 0.15348,4.377619 -0.88636,1.542475 -6.90292,3.607835 -6.01656,2.06536 -12.45605,2.736762 -12.23796,10.690931 0.21809,7.954169 -4.80505,10.17765 -4.80505,10.17765 0,0 7.28218,-2.619184 13.46504,-0.327556 6.18286,2.291629 33.03757,15.123862 39.73659,11.025972 6.69902,-4.09789 -0.31615,-5.39581 7.23868,-6.829079 7.55483,-1.433273 16.27386,4.759769 10.20864,18.457009 -6.06521,13.69725 -28.68428,17.92531 -52.86252,2.33648 -24.17824,-15.58882 -25.00431,-9.45252 -28.01334,-8.67281 -3.00902,0.77971 -5.5484,-3.30248 -5.5484,-3.30248 z m -33.85576,24.10437 c 0,0 -1.855,-0.94398 -0.51105,-3.65364 1.34394,-2.70967 7.85662,-7.41842 9.19377,-14.03887 1.33714,-6.62045 -4.39539,-21.955239 4.9263,-33.289955 9.3217,-11.334716 25.15331,-15.173548 26.60985,-10.701841 1.45654,4.471706 -11.44317,3.100308 -17.54075,13.28447 -6.09757,10.184163 -2.5529,13.327419 -3.4305,24.646556 -0.8776,11.31913 -2.86846,11.73037 -2.86846,11.73037 0,0 6.09743,-4.58367 14.94079,-2.3098 8.84336,2.27386 22.29185,15.30502 35.78578,15.4962 13.49393,0.19118 12.23309,-4.28319 15.94868,-4.28319 3.71559,0 10.5067,5.80919 -0.88947,19.99485 -11.39616,14.18565 -39.96186,0.7331 -51.46317,-9.81381 -11.50131,-10.54691 -22.59451,-10.7311 -24.90262,-6.76049 -2.30811,3.97061 -5.79915,-0.30085 -5.79915,-0.30085 z m -5.36235,67.45312 c 0,0 0.98459,-35.99965 40.97281,-38.67495 39.98822,-2.6753 15.80962,27.55776 -3.54837,24.05701 -19.358,-3.50074 -37.42444,14.61794 -37.42444,14.61794 z m -21.33821,43.75076 c 0,0 -3.07085,-28.86701 40.23232,-38.13823 43.30317,-9.27122 23.49255,26.92549 -2.74746,23.74051 -26.24001,-3.18498 -37.48486,14.39772 -37.48486,14.39772 z m -32.3371,53.03394 c 0,0 8.38185,-31.01421 43.95872,-47.76948 35.57687,-16.75527 21.8218,20.24834 -1.09739,23.37453 -22.91919,3.1262 -42.86133,24.39495 -42.86133,24.39495 z m -16.65117,45.16355 c 0,0 1.54703,-27.85816 30.31189,-44.94987 28.76486,-17.09171 32.97,5.10598 9.4841,15.84521 -23.4859,10.73922 -39.79599,29.10466 -39.79599,29.10466 z M 475.4297,112.01799 c 0,0 0.41214,-15.597977 -26.00724,-6.09694 -26.41937,9.50103 -14.58092,44.94528 0.21638,54.20855 14.7973,9.26328 18.38091,-10.87977 13.47754,-27.7272 -4.90338,-16.84743 12.31332,-20.38441 12.31332,-20.38441 z m 1.85149,-18.223884 c 0,0 1.40373,-23.579523 -36.78232,-17.671206 -38.18606,5.908316 -25.25883,47.98565 -8.54008,36.54074 16.71876,-11.44491 13.88131,-21.377672 31.14363,-24.242999 17.26231,-2.865328 14.17877,5.373465 14.17877,5.373465 z m -51.9709,276.645974 c 0,0 -14.20342,-2.37353 1.58625,-56.46213 15.78968,-54.0886 69.21683,-123.81916 66.10921,-197.40558 -3.10762,-73.586416 -29.59879,-47.790128 -37.64371,-51.963331 -8.04491,-4.173202 -4.58355,-11.417023 11.27947,-12.580261 15.86302,-1.163239 37.72629,7.221313 47.66577,51.953522 9.93948,44.73221 -0.14464,90.05174 -28.89876,146.69241 -28.75412,56.64067 -48.5612,64.91702 -55.69847,95.84079 -7.13727,30.92377 -4.39976,23.92458 -4.39976,23.92458 z m -76.24678,5.53633 c 0,0 -5.79383,-6.71953 -6.30324,20.19082 -0.50942,26.91036 32.64006,53.03797 60.20384,63.71413 27.56378,10.67616 41.20477,23.70419 41.71362,33.91068 0.50885,10.20648 13.45212,6.3405 13.28119,-1.10175 -0.17093,-7.44224 -50.23581,-63.76942 6.63135,-106.64819 56.86716,-42.87878 81.07199,-36.56331 132.36001,-65.95204 51.28803,-29.38874 63.11805,-101.68764 39.37845,-116.86386 -23.73959,-15.17621 -44.35415,-0.41999 -36.69876,6.02646 7.6554,6.44646 23.8028,-0.79021 17.63797,24.51914 -6.16482,25.30936 -33.27524,56.66394 -103.33027,84.70687 -70.05504,28.04292 -83.24722,53.09915 -87.83078,61.59466 -4.58357,8.49552 -6.35685,16.02197 -6.35685,16.02197 0,0 -23.95309,-101.61662 -68.44361,-125.43083 -44.49053,-23.81421 -80.62741,31.43935 -77.20581,36.84043 3.4216,5.40107 16.75466,-26.58957 55.86486,-17.81234 39.1102,8.77724 41.23473,64.71929 48.10578,93.03783 6.87105,28.31854 16.79973,40.56624 16.79973,40.56624 0,0 -40.74091,-13.09076 -45.82607,-31.21849 -5.08516,-18.12773 0.0186,-16.10173 0.0186,-16.10173 z m 393.64657,3.16035 c 0,0 1.34335,6.24363 3.58951,7.73129 2.24615,1.48766 -0.36006,5.64713 -4.54407,4.37899 -4.18401,-1.26814 -5.88593,-7.78723 -4.45968,-9.71713 1.42626,-1.92991 5.41424,-2.39315 5.41424,-2.39315 z m 4.6712,-22.50808 c 0,0 4.02102,10.20824 8.66822,12.49254 4.6472,2.2843 0.63092,9.52279 -4.03057,7.79649 -4.66148,-1.7263 -9.94976,-12.68439 -9.42936,-17.38385 0.5204,-4.69946 4.79171,-2.90518 4.79171,-2.90518 z m -3.9273,-29.59307 c 0,0 2.31463,6.4078 16.13597,10.14069 13.82133,3.73289 8.74335,16.3125 -2.27239,13.70714 -11.01574,-2.60536 -18.25456,-17.80469 -18.09531,-21.07702 0.15925,-3.27233 4.23173,-2.77081 4.23173,-2.77081 z m -13.31985,-26.40575 c 0,0 7.11752,8.25701 27.06628,4.06903 19.94876,-4.18798 12.77182,19.4444 0.026,17.54779 -12.7458,-1.89661 -31.8074,-15.18481 -31.46493,-18.51481 0.34246,-3.33 4.37263,-3.10201 4.37263,-3.10201 z m -21.63889,-14.06394 c 0,0 23.94505,-4.84949 32.11854,-24.03125 8.17349,-19.18175 34.46654,-7.09259 20.30545,13.53017 -14.16108,20.62277 -46.7071,18.31725 -51.57022,14.93455 -4.86311,-3.3827 -0.85377,-4.43347 -0.85377,-4.43347 z m -22.05237,-14.66895 c 0,0 10.20584,-4.17902 16.46112,-31.94499 6.25528,-27.76597 -5.42859,-33.40306 13.77995,-33.00666 19.20854,0.39639 23.31368,25.7076 9.70104,49.51342 -13.61264,23.80582 -30.95652,25.75819 -38.40116,20.62178 -7.44464,-5.13641 -1.54095,-5.18355 -1.54095,-5.18355 z m -29.80445,-4.15102 c 0,0 10.55941,-10.80776 10.55514,-43.17615 -0.004,-32.36839 -9.8478,-22.4448 -5.99257,-30.82726 3.85524,-8.38247 19.98509,-16.43729 28.2772,2.46128 8.29212,18.89857 2.92002,47.44449 -6.71875,57.98202 -9.63876,10.53754 -14.68168,20.19822 -21.34588,19.49814 -6.6642,-0.70007 -4.77514,-5.93803 -4.77514,-5.93803 z M 330.52847,414.21953 c 0,0 -10.88322,10.48793 4.74901,48.23007 15.63223,37.74214 76.04231,61.40065 87.62181,75.17595 11.5795,13.7753 14.45627,25.05273 19.69534,25.40875 5.23908,0.35602 4.92639,-15.48029 33.5441,-30.97971 28.61771,-15.49942 111.67337,-18.26295 188.12796,-62.16757 76.45459,-43.90461 88.3419,-153.41641 33.55241,-175.641 -54.78948,-22.2246 -80.90988,23.28491 -76.49272,43.0171 4.41716,19.73219 14.19397,24.57636 21.48342,14.17236 7.28944,-10.40399 -14.87688,-26.63844 21.84445,-39.346 36.72133,-12.70757 50.24902,31.31222 39.60588,61.89956 -10.64314,30.58734 -38.03894,57.30994 -80.99779,75.17588 -42.95884,17.86593 -132.9237,31.85131 -153.65204,52.11688 -20.72833,20.26556 -17.49603,26.90887 -20.72833,27.01779 -3.2323,0.10892 -5.56213,-24.86874 -44.95323,-42.41701 -39.3911,-17.54826 -57.27863,-35.34073 -64.13097,-47.70509 -6.85234,-12.36437 -9.2693,-23.95796 -9.2693,-23.95796 z M 293.5789,314.55992 c -0.86846,-0.0264 -1.74309,-0.002 -2.61983,0.0739 -8.41672,0.73293 -17.09234,6.19643 -23.66951,16.36164 -17.53912,27.10725 6.53632,87.6678 6.53632,87.6678 0,0 -38.43846,61.7313 -49.51716,74.24825 -11.0787,12.51695 -54.67913,72.03463 -18.74263,120.62805 35.93649,48.59342 94.79734,21.3606 111.83587,-23.14819 17.03855,-44.50879 -33.68131,-79.70016 -48.89158,-56.72645 -15.21029,22.97373 -6.40362,28.66085 -6.40362,28.66085 0,0 7.64605,-24.23846 20.72551,-19.45351 13.07946,4.78494 12.15492,26.45413 6.99697,42.78748 -5.15797,16.33333 -45.94905,40.69273 -59.48846,5.61122 -13.53938,-35.0815 23.36497,-82.63017 34.87869,-95.18228 11.51373,-12.55212 22.58707,-42.2112 22.58707,-42.2112 0,0 11.80915,65.88541 82.70869,104.99625 21.32422,11.76323 38.35538,23.86396 52.10477,35.56113 -7.10913,7.15631 -12.91938,15.48344 -17.41754,24.60977 -18.17812,-11.93826 -88.9648,-7.32159 -99.14996,57.20036 -6.58177,41.69496 10.58515,77.01713 37.68809,95.59934 1.61104,13.00193 8.59516,20.67242 14.63658,19.7644 10.54253,-1.58453 11.57125,-7.82159 11.57125,-7.82159 0,0 -0.21458,-0.16557 -0.25402,-0.19146 10.5836,2.63009 21.82497,3.04019 33.21617,0.8777 0.37824,4.58347 1.58773,10.24916 3.96767,17.173 12.45632,36.23848 105.75177,65.34981 140.10431,-8.33911 5.34123,-11.45737 8.26793,-22.43535 9.15994,-32.82567 0.63822,-0.40389 1.2398,-0.80664 1.7592,-1.20376 18.4492,-14.10587 -1.17153,-27.25045 -1.17153,-27.25045 0,0 -1.32452,0.258 -3.27575,0.61041 -2.69922,-9.35816 -7.145,-17.99475 -12.97595,-25.79078 8.07961,-2.5731 16.94587,-13.30097 20.89423,-41.92115 8.06383,-58.45189 -34.83141,-111.29633 -98.8239,-93.6392 -6.76187,1.86576 -13.03177,4.42839 -18.85258,7.53155 -23.04422,-21.28183 -49.30054,-40.43098 -69.63415,-52.66021 -43.90988,-26.40865 -78.55146,-91.12552 -78.55146,-91.12552 0,0 27.15898,-44.16533 24.4676,-84.49253 -1.577,-23.62922 -13.37231,-35.5846 -26.3993,-35.98008 z m -5.80269,16.4261 c 8.45445,-0.18844 15.96797,16.14592 15.01951,30.63615 -1.16733,17.83414 -17.03272,40.63588 -17.03272,40.63588 0,0 -8.04369,-20.24812 -10.4528,-30.4826 -2.40914,-10.23448 -3.89324,-26.97224 6.55338,-37.79424 1.95873,-2.02913 3.96161,-2.95171 5.91263,-2.99519 z m 223.9997,216.42834 a 2.8437119,2.8437119 0 0 0 -2.84353,2.84352 2.8437119,2.8437119 0 0 0 2.84353,2.84353 2.8437119,2.8437119 0 0 0 2.84352,-2.84353 2.8437119,2.8437119 0 0 0 -2.84352,-2.84352 z m 23.41928,11.97124 a 3.3081665,3.3081665 0 0 0 -3.30797,3.30797 3.3081665,3.3081665 0 0 0 3.30797,3.30797 3.3081665,3.3081665 0 0 0 3.30607,-3.30797 3.3081665,3.3081665 0 0 0 -3.30607,-3.30797 z m 20.92076,17.68863 a 4.1000519,4.1000519 0 0 0 -4.10226,4.10226 4.1000519,4.1000519 0 0 0 4.10226,4.09847 4.1000519,4.1000519 0 0 0 4.09847,-4.09847 4.1000519,4.1000519 0 0 0 -4.09847,-4.10226 z m -78.60642,9.90115 c 28.45958,-0.43069 43.81087,26.55546 53.82225,49.68778 10.48078,24.21691 -0.0568,43.88804 -4.88138,55.17577 -8.46284,-7.3651 -18.2805,-13.59275 -28.95657,-18.47533 0.19482,-6.55499 -0.13995,-13.00403 -1.10329,-19.20707 -2.98077,-19.1934 -18.92596,-41.46356 -39.54207,-62.59928 7.56437,-3.04756 14.43349,-4.48762 20.66106,-4.58187 z m -96.84102,9.04242 a 4.0428314,4.0428314 0 0 0 -4.04349,4.04349 4.0428314,4.0428314 0 0 0 4.04349,4.0416 4.0428314,4.0428314 0 0 0 4.0416,-4.0416 4.0428314,4.0428314 0 0 0 -4.0416,-4.04349 z m 17.5711,2.65775 a 4.1772003,4.1772003 0 0 0 -4.1743,4.17808 4.1772003,4.1772003 0 0 0 4.1743,4.17619 4.1772003,4.1772003 0 0 0 4.17809,-4.17619 4.1772003,4.1772003 0 0 0 -4.17809,-4.17808 z m -37.32602,2.91177 a 3.5860405,3.5860405 0 0 0 -3.58474,3.58663 3.5860405,3.5860405 0 0 0 3.58474,3.58663 3.5860405,3.5860405 0 0 0 3.58664,-3.58663 3.5860405,3.5860405 0 0 0 -3.58664,-3.58663 z m 208.95176,1.88051 a 3.314064,3.314064 0 0 0 -3.31366,3.31556 3.314064,3.314064 0 0 0 3.31366,3.31365 3.314064,3.314064 0 0 0 3.31365,-3.31365 3.314064,3.314064 0 0 0 -3.31365,-3.31556 z m -135.74803,1.3649 c 23.92355,23.04114 35.27694,43.47676 41.18563,54.97673 0.93639,1.82247 1.92723,4.04908 2.90229,6.46049 -9.50093,-2.73126 -19.34701,-4.51332 -29.24092,-5.19607 -18.64556,-1.28669 -33.08201,1.28711 -44.59786,6.38087 0.45579,-23.10635 9.90404,-46.5405 29.75086,-62.62202 z m -94.87519,7.04436 a 3.7959518,3.7199745 0 0 0 -3.79515,3.71933 3.7959518,3.7199745 0 0 0 3.79515,3.71933 3.7959518,3.7199745 0 0 0 3.79706,-3.71933 3.7959518,3.7199745 0 0 0 -3.79706,-3.71933 z m -17.79099,13.80437 a 3.5592957,3.5592957 0 0 0 -3.5582,3.5582 3.5592957,3.5592957 0 0 0 3.5582,3.56199 3.5592957,3.5592957 0 0 0 3.5601,-3.56199 3.5592957,3.5592957 0 0 0 -3.5601,-3.5582 z m 254.23206,1.17343 a 3.4367523,3.4367523 0 0 0 -3.43687,3.43687 3.4367523,3.4367523 0 0 0 3.43687,3.43688 3.4367523,3.4367523 0 0 0 3.43688,-3.43688 3.4367523,3.4367523 0 0 0 -3.43688,-3.43687 z m -178.04642,12.83946 c -2.66991,10.60722 -3.80279,21.83567 -3.32313,33.30338 -22.35731,14.97338 -31.5372,40.94258 -42.57517,62.21255 -2.80338,5.40208 -4.73296,10.53459 -6.07377,15.39485 -9.20972,-12.14809 -13.81415,-28.06428 -15.4138,-43.08131 -3.18356,-29.88613 44.5524,-51.00673 67.38587,-67.82947 z m -93.33399,3.29281 a 3.4414902,3.4414902 0 0 0 -3.44067,3.44066 3.4414902,3.4414902 0 0 0 3.44067,3.44067 3.4414902,3.4414902 0 0 0 3.44066,-3.44067 3.4414902,3.4414902 0 0 0 -3.44066,-3.44066 z m 274.6353,5.61501 a 4.0017242,4.0017242 0 0 0 -4.00179,4.00179 4.0017242,4.0017242 0 0 0 4.00179,4.00179 4.0017242,4.0017242 0 0 0 4.00179,-4.00179 4.0017242,4.0017242 0 0 0 -4.00179,-4.00179 z m -291.04624,18.51325 a 4.2381744,4.2381744 0 0 0 -4.23685,4.23875 4.2381744,4.2381744 0 0 0 4.23685,4.23685 4.2381744,4.2381744 0 0 0 4.23875,-4.23685 4.2381744,4.2381744 0 0 0 -4.23875,-4.23875 z m 172.31387,1.363 c 4.49643,0.0936 9.06419,0.8244 13.66978,2.29378 2.27481,0.72576 4.56311,1.61457 6.8529,2.58002 5.67173,18.7372 6.9998,46.97717 -20.10563,69.89766 -10.95841,-1.86525 -21.67998,-6.07485 -30.9186,-14.102 -10.15927,-8.82706 -17.44872,-20.83634 -21.53497,-34.18297 14.20266,-15.21563 32.44452,-26.89416 52.03652,-26.48649 z m 116.34002,4.23875 a 3.5516357,3.5516357 0 0 0 -3.55251,3.55061 3.5516357,3.5516357 0 0 0 3.55251,3.55251 3.5516357,3.5516357 0 0 0 3.55251,-3.55251 3.5516357,3.5516357 0 0 0 -3.55251,-3.55061 z m -79.65853,9.28316 c 19.27995,12.60534 36.5354,32.13217 44.12393,52.4403 -3.52925,0.38387 -6.95812,0.64807 -9.44619,0.44549 -5.31223,-0.43252 -33.55073,11.28396 -62.368,9.36278 16.60183,-18.94827 25.35195,-40.93276 27.69026,-62.24857 z m 73.98475,10.76749 a 3.1765442,3.1765442 0 0 0 -3.17717,3.17716 3.1765442,3.1765442 0 0 0 3.17717,3.17527 3.1765442,3.1765442 0 0 0 3.17716,-3.17527 3.1765442,3.1765442 0 0 0 -3.17716,-3.17716 z M 283.564,694.9725 a 3.4979706,3.4979706 0 0 0 -3.49753,3.49753 3.4979706,3.4979706 0 0 0 3.49753,3.49943 3.4979706,3.4979706 0 0 0 3.49944,-3.49943 3.4979706,3.4979706 0 0 0 -3.49944,-3.49753 z m 116.22628,9.9675 c 2.52427,8.27742 5.91153,16.48824 10.20257,24.48845 6.81334,12.70278 16.09571,22.03885 26.69691,28.80681 -2.28341,1.07408 -4.64548,2.12803 -7.13724,3.14683 -23.87593,9.76213 -42.37278,11.30033 -56.6146,7.63203 3.23256,0.0202 5.66326,-0.59407 6.20078,-18.0981 0.346,-11.26754 8.16034,-29.50964 20.65158,-45.97602 z m 160.2232,1.42745 a 3.8801858,3.8801858 0 0 0 -3.88046,3.87857 3.8801858,3.8801858 0 0 0 3.88046,3.88047 3.8801858,3.8801858 0 0 0 3.88046,-3.88047 3.8801858,3.8801858 0 0 0 -3.88046,-3.87857 z m -275.6495,15.48774 a 3.6233292,3.6233292 0 0 0 -3.62455,3.62265 3.6233292,3.6233292 0 0 0 3.62455,3.62455 3.6233292,3.6233292 0 0 0 3.62265,-3.62455 3.6233292,3.6233292 0 0 0 -3.62265,-3.62265 z m 162.8601,42.09366 c 32.79985,14.94311 73.85,9.97939 96.60216,2.11369 -2.72534,11.37286 -10.07999,21.9262 -23.72828,30.41245 -53.74177,33.41564 -88.2296,-2.85839 -98.17178,-18.06018 9.4221,-4.22088 17.77879,-9.11901 25.2979,-14.46596 z m -60.73202,27.95375 a 4.3512077,4.4545479 0 0 0 -4.3506,4.45486 4.3512077,4.4545479 0 0 0 4.3506,4.45486 4.3512077,4.4545479 0 0 0 4.35249,-4.45486 4.3512077,4.4545479 0 0 0 -4.35249,-4.45486 z m 6.43395,16.79008 a 4.107872,4.107872 0 0 0 -4.10795,4.10984 4.107872,4.107872 0 0 0 4.10795,4.10795 4.107872,4.107872 0 0 0 4.10984,-4.10795 4.107872,4.107872 0 0 0 -4.10984,-4.10984 z m 14.56074,15.41759 a 3.4286308,3.4286308 0 0 0 -3.42929,3.4274 3.4286308,3.4286308 0 0 0 3.42929,3.42929 3.4286308,3.4286308 0 0 0 3.4274,-3.42929 3.4286308,3.4286308 0 0 0 -3.4274,-3.4274 z m 142.00948,6.75432 a 3.3154373,3.3154373 0 0 0 -3.31745,3.31745 3.3154373,3.3154373 0 0 0 3.31745,3.31366 3.3154373,3.3154373 0 0 0 3.31365,-3.31366 3.3154373,3.3154373 0 0 0 -3.31365,-3.31745 z m -122.87634,5.52213 a 4.2189713,4.2189713 0 0 0 -4.22169,4.2179 4.2189713,4.2189713 0 0 0 4.22169,4.21979 4.2189713,4.2189713 0 0 0 4.2179,-4.21979 4.2189713,4.2189713 0 0 0 -4.2179,-4.2179 z m 100.01628,7.61686 a 4.2724266,4.2724266 0 0 0 -4.27287,4.27287 4.2724266,4.2724266 0 0 0 4.27287,4.27287 4.2724266,4.2724266 0 0 0 4.27288,-4.27287 4.2724266,4.2724266 0 0 0 -4.27288,-4.27287 z m -78.81305,2.78476 a 3.5636101,3.5636101 0 0 0 -3.56389,3.56389 3.5636101,3.5636101 0 0 0 3.56389,3.56388 3.5636101,3.5636101 0 0 0 3.56388,-3.56388 3.5636101,3.5636101 0 0 0 -3.56388,-3.56389 z m 23.06668,6.6747 a 3.4328499,3.4328499 0 0 0 -3.43309,3.43119 3.4328499,3.4328499 0 0 0 3.43309,3.43308 3.4328499,3.4328499 0 0 0 3.43308,-3.43308 3.4328499,3.4328499 0 0 0 -3.43308,-3.43119 z m 29.78309,0.21042 a 3.9319611,3.9319611 0 0 0 -3.92976,3.93165 3.9319611,3.9319611 0 0 0 3.92976,3.93165 3.9319611,3.9319611 0 0 0 3.93165,-3.93165 3.9319611,3.9319611 0 0 0 -3.93165,-3.93165 z"
     inkscape:label="shadow"
     transform="matrix(1.030301,0,0,1.030301,-16.601589,-16.839451)" />
  <g
     id="layer1"
     style="display:inline;opacity:0.88;mix-blend-mode:screen;fill:#e8e2da;fill-opacity:1;stroke:none;stroke-width:4.00041;stroke-dasharray:none;stroke-opacity:1"
     transform="matrix(0.97940028,0,0,0.97940028,9.2468565,9.4085638)">
    <g
       id="g4738"
       style="fill:#e8e2da;fill-opacity:1;stroke:none;stroke-width:4.00041;stroke-linejoin:round;stroke-dasharray:none;stroke-opacity:1;paint-order:stroke markers fill">
      <path
         style="fill:#e8e2da;fill-opacity:1;stroke:none;stroke-width:4.00041;stroke-linejoin:round;stroke-dasharray:none;stroke-opacity:1;paint-order:stroke markers fill"
         d="m 556.73047,732.02807 c 0,0 19.6195,13.14478 1.17028,27.25067 -18.44921,14.1059 -113.80371,33.73215 -147.90714,-29.85021 -34.10344,-63.58237 -11.43688,-140.48472 52.55567,-158.14186 63.99256,-17.65714 106.88718,35.18647 98.82334,93.63841 -8.06385,58.45193 -36.65082,42.36505 -37.1243,34.31523 -0.47348,-8.04982 20.43198,-31.73403 7.08347,-62.57715 -13.34852,-30.84312 -36.18883,-68.5388 -86.9386,-38.96043 -50.74977,29.57838 -50.53684,100.29827 -14.68933,131.44503 35.8475,31.14676 93.99389,5.09806 101.86093,5.73859 7.86703,0.64053 25.16568,-2.85828 25.16568,-2.85828 z"
         id="path370" />
      <path
         style="fill:#e8e2da;fill-opacity:1;stroke:none;stroke-width:4.00041;stroke-linejoin:round;stroke-dasharray:none;stroke-opacity:1;paint-order:stroke markers fill"
         d="m 369.94842,783.78694 c 0,0 -1.02952,6.23772 -11.57206,7.82225 -10.54254,1.58453 -24.03615,-22.87468 -6.63845,-56.39975 17.39771,-33.52507 30.12854,-78.76543 97.22699,-74.13512 67.09845,4.63031 132.37021,58.54409 98.01764,132.23308 -34.35257,73.689 -127.64856,44.57788 -140.10489,8.33936 -12.45633,-36.23853 6.77483,-38.53478 12.98925,-26.64037 6.21441,11.89441 41.92982,57.7193 100.23017,21.46922 58.30036,-36.25007 2.90426,-110.03016 -46.2221,-125.70356 -49.12636,-15.6734 -93.8973,52.7935 -94.73715,80.14335 -0.83986,27.34986 -6.27539,13.46326 -12.22582,20.35495 -5.95042,6.8917 3.03642,12.51659 3.03642,12.51659 z"
         id="path372" />
      <path
         id="path262"
         style="display:inline;fill:#e8e2da;fill-opacity:1;stroke:none;stroke-width:4.00041;stroke-linejoin:round;stroke-dasharray:none;stroke-opacity:1;paint-order:stroke markers fill"
         d="m 290.95898,314.63477 c -8.41672,0.73294 -17.09274,6.1961 -23.66992,16.36132 -17.53914,27.10727 6.53711,87.66797 6.53711,87.66797 0,0 -38.43887,61.73109 -49.51758,74.24805 -11.07871,12.51696 -54.67872,72.03348 -18.74218,120.62695 35.93653,48.59347 94.79738,21.3604 111.83593,-23.14844 17.03857,-44.50883 -33.68228,-79.7003 -48.89257,-56.72656 -15.2103,22.97375 -6.40235,28.66211 -6.40235,28.66211 0,0 7.64514,-24.23807 20.72461,-19.45312 13.07947,4.78495 12.15601,26.45374 6.99805,42.78711 -5.15797,16.33335 -45.95082,40.69286 -59.49024,5.61132 -13.5394,-35.08154 23.36518,-82.63146 34.87891,-95.18359 11.51374,-12.55213 22.58789,-42.21094 22.58789,-42.21094 0,0 11.80937,65.88522 82.70898,104.9961 70.89963,39.11089 95.08329,82.04921 104.78711,100.93554 9.70381,18.88633 26.05855,72.21393 -45.75,101.57422 -71.80855,29.36029 -95.20415,-15.3832 -99.30273,-53.85937 -4.09859,-38.47617 76.40001,-62.45761 79.1875,-81.39063 2.78749,-18.93302 -91.51146,-25.1049 -103.38477,50.11133 -11.87329,75.21625 53.47738,129.79667 115.1836,102.50781 61.70621,-27.28885 81.83865,-81.55476 75.15429,-124.5957 C 489.70628,611.1153 417.97241,552.56688 374.0625,526.1582 c -43.90992,-26.40868 -78.55273,-91.125 -78.55273,-91.125 0,0 27.16014,-44.1669 24.46875,-84.49414 -1.68213,-25.20453 -14.99166,-37.12586 -29.01954,-35.90429 z m -3.18359,16.35156 c 8.45446,-0.18844 15.96799,16.14647 15.01953,30.63672 -1.16733,17.83416 -17.03125,40.63476 -17.03125,40.63476 0,0 -8.044,-20.24793 -10.45312,-30.48242 -2.40914,-10.2345 -3.8939,-26.9729 6.55273,-37.79492 1.95874,-2.02913 3.96108,-2.95066 5.91211,-2.99414 z" />
      <path
         id="path457"
         style="fill:#e8e2da;fill-opacity:1;stroke:none;stroke-width:4.00041;stroke-linejoin:round;stroke-dasharray:none;stroke-opacity:1;paint-order:stroke markers fill"
         d="m 398.24023,598.67578 a 4.1772003,4.1772003 0 0 0 -4.17578,4.17774 4.1772003,4.1772003 0 0 0 4.17578,4.17578 4.1772003,4.1772003 0 0 0 4.17774,-4.17578 4.1772003,4.1772003 0 0 0 -4.17774,-4.17774 z m 161.77344,107.69141 a 3.8801858,3.8801858 0 0 0 -3.88086,3.8789 3.8801858,3.8801858 0 0 0 3.88086,3.88086 3.8801858,3.8801858 0 0 0 3.88086,-3.88086 3.8801858,3.8801858 0 0 0 -3.88086,-3.8789 z m -173.52148,85.53515 a 4.3512077,4.4545479 0 0 0 -4.35157,4.45508 4.3512077,4.4545479 0 0 0 4.35157,4.45508 4.3512077,4.4545479 0 0 0 4.35156,-4.45508 4.3512077,4.4545479 0 0 0 -4.35156,-4.45508 z" />
      <path
         id="path464"
         style="fill:#e8e2da;fill-opacity:1;stroke:none;stroke-width:4.00041;stroke-linejoin:round;stroke-dasharray:none;stroke-opacity:1;paint-order:stroke markers fill"
         d="m 380.66797,596.01758 a 4.0428314,4.0428314 0 0 0 -4.04297,4.04297 4.0428314,4.0428314 0 0 0 4.04297,4.04297 4.0428314,4.0428314 0 0 0 4.04297,-4.04297 4.0428314,4.0428314 0 0 0 -4.04297,-4.04297 z m 190.20312,96.75 a 3.1765442,3.1765442 0 0 0 -3.17578,3.17773 3.1765442,3.1765442 0 0 0 3.17578,3.17578 3.1765442,3.1765442 0 0 0 3.17774,-3.17578 3.1765442,3.1765442 0 0 0 -3.17774,-3.17773 z M 392.92578,808.69336 a 4.107872,4.107872 0 0 0 -4.10742,4.10937 4.107872,4.107872 0 0 0 4.10742,4.10743 4.107872,4.107872 0 0 0 4.10938,-4.10743 4.107872,4.107872 0 0 0 -4.10938,-4.10937 z" />
      <path
         id="path471"
         style="display:inline;fill:#e8e2da;fill-opacity:1;stroke:none;stroke-width:4.00041;stroke-linejoin:round;stroke-dasharray:none;stroke-opacity:1;paint-order:stroke markers fill"
         d="m 360.91406,601.58789 a 3.5860405,3.5860405 0 0 0 -3.58594,3.58594 3.5860405,3.5860405 0 0 0 3.58594,3.58594 3.5860405,3.5860405 0 0 0 3.58594,-3.58594 3.5860405,3.5860405 0 0 0 -3.58594,-3.58594 z m 215.63086,71.12891 a 3.5516357,3.5516357 0 0 0 -3.55078,3.55078 3.5516357,3.5516357 0 0 0 3.55078,3.55273 3.5516357,3.5516357 0 0 0 3.55274,-3.55273 3.5516357,3.5516357 0 0 0 -3.55274,-3.55078 z M 407.48633,824.10938 a 3.4286308,3.4286308 0 0 0 -3.42969,3.42773 3.4286308,3.4286308 0 0 0 3.42969,3.42969 3.4286308,3.4286308 0 0 0 3.42773,-3.42969 3.4286308,3.4286308 0 0 0 -3.42773,-3.42773 z" />
      <path
         id="path483"
         style="fill:#e8e2da;fill-opacity:1;stroke:none;stroke-width:4.00041;stroke-linejoin:round;stroke-dasharray:none;stroke-opacity:1;paint-order:stroke markers fill"
         d="m 339.24219,611.87695 a 3.7959518,3.7199745 0 0 0 -3.79492,3.71875 3.7959518,3.7199745 0 0 0 3.79492,3.72071 3.7959518,3.7199745 0 0 0 3.79687,-3.72071 3.7959518,3.7199745 0 0 0 -3.79687,-3.71875 z m 239.69531,36.72461 a 4.0017242,4.0017242 0 0 0 -4.00195,4.00196 4.0017242,4.0017242 0 0 0 4.00195,4.00195 4.0017242,4.0017242 0 0 0 4.00195,-4.00195 4.0017242,4.0017242 0 0 0 -4.00195,-4.00196 z M 426.61914,836.38672 a 4.2189713,4.2189713 0 0 0 -4.2207,4.21875 4.2189713,4.2189713 0 0 0 4.2207,4.21875 4.2189713,4.2189713 0 0 0 4.21875,-4.21875 4.2189713,4.2189713 0 0 0 -4.21875,-4.21875 z" />
      <path
         id="path490"
         style="fill:#e8e2da;fill-opacity:1;stroke:none;stroke-width:4.00041;stroke-linejoin:round;stroke-dasharray:none;stroke-opacity:1;paint-order:stroke markers fill"
         d="m 321.45117,625.68164 a 3.5592957,3.5592957 0 0 0 -3.55859,3.55859 3.5592957,3.5592957 0 0 0 3.55859,3.56055 3.5592957,3.5592957 0 0 0 3.56055,-3.56055 3.5592957,3.5592957 0 0 0 -3.56055,-3.55859 z m 254.23242,1.17383 a 3.4367523,3.4367523 0 0 0 -3.4375,3.43555 3.4367523,3.4367523 0 0 0 3.4375,3.4375 3.4367523,3.4367523 0 0 0 3.43555,-3.4375 3.4367523,3.4367523 0 0 0 -3.43555,-3.43555 z M 447.82227,846.78906 a 3.5636101,3.5636101 0 0 0 -3.5625,3.5625 3.5636101,3.5636101 0 0 0 3.5625,3.56446 3.5636101,3.5636101 0 0 0 3.56445,-3.56446 3.5636101,3.5636101 0 0 0 -3.56445,-3.5625 z" />
      <path
         id="path497"
         style="fill:#e8e2da;fill-opacity:1;stroke:none;stroke-width:4.00041;stroke-linejoin:round;stroke-dasharray:none;stroke-opacity:1;paint-order:stroke markers fill"
         d="m 569.86523,603.46875 a 3.314064,3.314064 0 0 0 -3.31445,3.31445 3.314064,3.314064 0 0 0 3.31445,3.31446 3.314064,3.314064 0 0 0 3.31446,-3.31446 3.314064,3.314064 0 0 0 -3.31446,-3.31445 z m -265.5625,39.51758 a 3.4414902,3.4414902 0 0 0 -3.4414,3.4414 3.4414902,3.4414902 0 0 0 3.4414,3.44141 3.4414902,3.4414902 0 0 0 3.44141,-3.44141 3.4414902,3.4414902 0 0 0 -3.44141,-3.4414 z m 166.58789,210.47656 a 3.4328499,3.4328499 0 0 0 -3.43359,3.43164 3.4328499,3.4328499 0 0 0 3.43359,3.43359 3.4328499,3.4328499 0 0 0 3.43165,-3.43359 3.4328499,3.4328499 0 0 0 -3.43165,-3.43164 z" />
      <path
         id="path504"
         style="display:inline;fill:#e8e2da;fill-opacity:1;stroke:none;stroke-width:4.00041;stroke-linejoin:round;stroke-dasharray:none;stroke-opacity:1;paint-order:stroke markers fill"
         d="m 556.11523,577.07422 a 4.1000519,4.1000519 0 0 0 -4.10156,4.10156 4.1000519,4.1000519 0 0 0 4.10156,4.09961 4.1000519,4.1000519 0 0 0 4.09961,-4.09961 4.1000519,4.1000519 0 0 0 -4.09961,-4.10156 z m -268.22265,90.04101 a 4.2381744,4.2381744 0 0 0 -4.23828,4.23829 4.2381744,4.2381744 0 0 0 4.23828,4.23828 4.2381744,4.2381744 0 0 0 4.23828,-4.23828 4.2381744,4.2381744 0 0 0 -4.23828,-4.23829 z m 212.78125,186.5586 a 3.9319611,3.9319611 0 0 0 -3.93164,3.93164 3.9319611,3.9319611 0 0 0 3.93164,3.93164 3.9319611,3.9319611 0 0 0 3.93164,-3.93164 3.9319611,3.9319611 0 0 0 -3.93164,-3.93164 z" />
      <path
         id="path512"
         style="fill:#e8e2da;fill-opacity:1;stroke:none;stroke-width:4.00041;stroke-linejoin:round;stroke-dasharray:none;stroke-opacity:1;paint-order:stroke markers fill"
         d="m 535.19531,559.38477 a 3.3081665,3.3081665 0 0 0 -3.30859,3.30859 3.3081665,3.3081665 0 0 0 3.30859,3.30859 3.3081665,3.3081665 0 0 0 3.30664,-3.30859 3.3081665,3.3081665 0 0 0 -3.30664,-3.30859 z M 283.56445,694.97266 a 3.4979706,3.4979706 0 0 0 -3.49804,3.49804 3.4979706,3.4979706 0 0 0 3.49804,3.49805 3.4979706,3.4979706 0 0 0 3.49805,-3.49805 3.4979706,3.4979706 0 0 0 -3.49805,-3.49804 z m 243.07227,149.03125 a 4.2724266,4.2724266 0 0 0 -4.27344,4.27343 4.2724266,4.2724266 0 0 0 4.27344,4.27149 4.2724266,4.2724266 0 0 0 4.27148,-4.27149 4.2724266,4.2724266 0 0 0 -4.27148,-4.27343 z" />
      <path
         id="path519"
         style="fill:#e8e2da;fill-opacity:1;stroke:none;stroke-width:4.00041;stroke-linejoin:round;stroke-dasharray:none;stroke-opacity:1;paint-order:stroke markers fill"
         d="m 511.77539,547.41406 a 2.8437119,2.8437119 0 0 0 -2.84375,2.84375 2.8437119,2.8437119 0 0 0 2.84375,2.84375 2.8437119,2.8437119 0 0 0 2.84375,-2.84375 2.8437119,2.8437119 0 0 0 -2.84375,-2.84375 z M 284.36328,721.85547 a 3.6233292,3.6233292 0 0 0 -3.62305,3.62305 3.6233292,3.6233292 0 0 0 3.62305,3.62304 3.6233292,3.6233292 0 0 0 3.62305,-3.62304 3.6233292,3.6233292 0 0 0 -3.62305,-3.62305 z m 265.13281,109.00976 a 3.3154373,3.3154373 0 0 0 -3.3164,3.31641 3.3154373,3.3154373 0 0 0 3.3164,3.31445 3.3154373,3.3154373 0 0 0 3.31446,-3.31445 3.3154373,3.3154373 0 0 0 -3.31446,-3.31641 z" />
    </g>
    <g
       id="g4724"
       style="fill:#e8e2da;fill-opacity:1;stroke:none;stroke-width:4.00041;stroke-dasharray:none;stroke-opacity:1;paint-order:stroke markers fill">
      <path
         style="fill:#e8e2da;fill-opacity:1;stroke:none;stroke-width:4.00041;stroke-dasharray:none;stroke-opacity:1;paint-order:stroke markers fill"
         d="m 330.52847,414.21953 c 0,0 -10.88322,10.48793 4.74901,48.23007 15.63223,37.74214 76.04231,61.40065 87.62181,75.17595 11.5795,13.7753 14.45627,25.05273 19.69534,25.40875 5.23908,0.35602 4.92639,-15.48029 33.5441,-30.97971 28.61771,-15.49942 111.67337,-18.26295 188.12796,-62.16757 76.45459,-43.90461 88.3419,-153.41641 33.55241,-175.641 -54.78948,-22.2246 -80.90988,23.28491 -76.49272,43.0171 4.41716,19.73219 14.19397,24.57636 21.48342,14.17236 7.28944,-10.40399 -14.87688,-26.63844 21.84445,-39.346 36.72133,-12.70757 50.24902,31.31222 39.60588,61.89956 -10.64314,30.58734 -38.03894,57.30994 -80.99779,75.17588 -42.95884,17.86593 -132.9237,31.85131 -153.65204,52.11688 -20.72833,20.26556 -17.49603,26.90887 -20.72833,27.01779 -3.2323,0.10892 -5.56213,-24.86874 -44.95323,-42.41701 -39.3911,-17.54826 -57.27863,-35.34073 -64.13097,-47.70509 -6.85234,-12.36437 -9.2693,-23.95796 -9.2693,-23.95796 z"
         id="path303" />
      <path
         style="fill:#e8e2da;fill-opacity:1;stroke:none;stroke-width:4.00041;stroke-dasharray:none;stroke-opacity:1;paint-order:stroke markers fill"
         d="m 656.63842,267.74595 c 0,0 10.55941,-10.80776 10.55514,-43.17615 -0.004,-32.36839 -9.8478,-22.4448 -5.99257,-30.82726 3.85524,-8.38247 19.98509,-16.43729 28.2772,2.46128 8.29212,18.89857 2.92002,47.44449 -6.71875,57.98202 -9.63876,10.53754 -14.68168,20.19822 -21.34588,19.49814 -6.6642,-0.70007 -4.77514,-5.93803 -4.77514,-5.93803 z"
         id="path345" />
      <path
         style="fill:#e8e2da;fill-opacity:1;stroke:none;stroke-width:4.00041;stroke-dasharray:none;stroke-opacity:1;paint-order:stroke markers fill"
         d="m 686.44287,271.89697 c 0,0 10.20584,-4.17902 16.46112,-31.94499 6.25528,-27.76597 -5.42859,-33.40306 13.77995,-33.00666 19.20854,0.39639 23.31368,25.7076 9.70104,49.51342 -13.61264,23.80582 -30.95652,25.75819 -38.40116,20.62178 -7.44464,-5.13641 -1.54095,-5.18355 -1.54095,-5.18355 z"
         id="path347" />
      <path
         style="fill:#e8e2da;fill-opacity:1;stroke:none;stroke-width:4.00041;stroke-dasharray:none;stroke-opacity:1;paint-order:stroke markers fill"
         d="m 708.49524,286.56592 c 0,0 23.94505,-4.84949 32.11854,-24.03125 8.17349,-19.18175 34.46654,-7.09259 20.30545,13.53017 -14.16108,20.62277 -46.7071,18.31725 -51.57022,14.93455 -4.86311,-3.3827 -0.85377,-4.43347 -0.85377,-4.43347 z"
         id="path349" />
      <path
         style="fill:#e8e2da;fill-opacity:1;stroke:none;stroke-width:4.00041;stroke-dasharray:none;stroke-opacity:1;paint-order:stroke markers fill"
         d="m 730.13413,300.62986 c 0,0 7.11752,8.25701 27.06628,4.06903 19.94876,-4.18798 12.77182,19.4444 0.026,17.54779 -12.7458,-1.89661 -31.8074,-15.18481 -31.46493,-18.51481 0.34246,-3.33 4.37263,-3.10201 4.37263,-3.10201 z"
         id="path353" />
      <path
         style="fill:#e8e2da;fill-opacity:1;stroke:none;stroke-width:4.00041;stroke-dasharray:none;stroke-opacity:1;paint-order:stroke markers fill"
         d="m 743.45398,327.03561 c 0,0 2.31463,6.4078 16.13597,10.14069 13.82133,3.73289 8.74335,16.3125 -2.27239,13.70714 -11.01574,-2.60536 -18.25456,-17.80469 -18.09531,-21.07702 0.15925,-3.27233 4.23173,-2.77081 4.23173,-2.77081 z"
         id="path355" />
      <path
         style="fill:#e8e2da;fill-opacity:1;stroke:none;stroke-width:4.00041;stroke-dasharray:none;stroke-opacity:1;paint-order:stroke markers fill"
         d="m 747.38128,356.62868 c 0,0 4.02102,10.20824 8.66822,12.49254 4.6472,2.2843 0.63092,9.52279 -4.03057,7.79649 -4.66148,-1.7263 -9.94976,-12.68439 -9.42936,-17.38385 0.5204,-4.69946 4.79171,-2.90518 4.79171,-2.90518 z"
         id="path357" />
      <path
         style="fill:#e8e2da;fill-opacity:1;stroke:none;stroke-width:4.00041;stroke-dasharray:none;stroke-opacity:1;paint-order:stroke markers fill"
         d="m 742.71008,379.13676 c 0,0 1.34335,6.24363 3.58951,7.73129 2.24615,1.48766 -0.36006,5.64713 -4.54407,4.37899 -4.18401,-1.26814 -5.88593,-7.78723 -4.45968,-9.71713 1.42626,-1.92991 5.41424,-2.39315 5.41424,-2.39315 z"
         id="path361" />
    </g>
    <path
       style="fill:#e8e2da;fill-opacity:1;stroke:none;stroke-width:4.00041;stroke-dasharray:none;stroke-opacity:1;paint-order:stroke markers fill"
       d="m 349.06351,375.97641 c 0,0 -5.79383,-6.71953 -6.30324,20.19082 -0.50942,26.91036 32.64006,53.03797 60.20384,63.71413 27.56378,10.67616 41.20477,23.70419 41.71362,33.91068 0.50885,10.20648 13.45212,6.3405 13.28119,-1.10175 -0.17093,-7.44224 -50.23581,-63.76942 6.63135,-106.64819 56.86716,-42.87878 81.07199,-36.56331 132.36001,-65.95204 51.28803,-29.38874 63.11805,-101.68764 39.37845,-116.86386 -23.73959,-15.17621 -44.35415,-0.41999 -36.69876,6.02646 7.6554,6.44646 23.8028,-0.79021 17.63797,24.51914 -6.16482,25.30936 -33.27524,56.66394 -103.33027,84.70687 -70.05504,28.04292 -83.24722,53.09915 -87.83078,61.59466 -4.58357,8.49552 -6.35685,16.02197 -6.35685,16.02197 0,0 -23.95309,-101.61662 -68.44361,-125.43083 -44.49053,-23.81421 -80.62741,31.43935 -77.20581,36.84043 3.4216,5.40107 16.75466,-26.58957 55.86486,-17.81234 39.1102,8.77724 41.23473,64.71929 48.10578,93.03783 6.87105,28.31854 16.79973,40.56624 16.79973,40.56624 0,0 -40.74091,-13.09076 -45.82607,-31.21849 -5.08516,-18.12773 0.0186,-16.10173 0.0186,-16.10173 z"
       id="path305" />
    <g
       id="g4714"
       style="fill:#e8e2da;fill-opacity:1;stroke:none;stroke-width:4.00041;stroke-linejoin:round;stroke-dasharray:none;stroke-opacity:1;paint-order:stroke markers fill">
      <path
         style="fill:#e8e2da;fill-opacity:1;stroke:none;stroke-width:4.00041;stroke-linejoin:round;stroke-dasharray:none;stroke-opacity:1;paint-order:stroke markers fill"
         d="m 425.31029,370.44008 c 0,0 -14.20342,-2.37353 1.58625,-56.46213 15.78968,-54.0886 69.21683,-123.81916 66.10921,-197.40558 -3.10762,-73.586416 -29.59879,-47.790128 -37.64371,-51.963331 -8.04491,-4.173202 -4.58355,-11.417023 11.27947,-12.580261 15.86302,-1.163239 37.72629,7.221313 47.66577,51.953522 9.93948,44.73221 -0.14464,90.05174 -28.89876,146.69241 -28.75412,56.64067 -48.5612,64.91702 -55.69847,95.84079 -7.13727,30.92377 -4.39976,23.92458 -4.39976,23.92458 z"
         id="path307" />
      <path
         style="fill:#e8e2da;fill-opacity:1;stroke:none;stroke-width:4.00041;stroke-linejoin:round;stroke-dasharray:none;stroke-opacity:1;paint-order:stroke markers fill"
         d="m 477.28119,93.794106 c 0,0 1.40373,-23.579523 -36.78232,-17.671206 -38.18606,5.908316 -25.25883,47.98565 -8.54008,36.54074 16.71876,-11.44491 13.88131,-21.377672 31.14363,-24.242999 17.26231,-2.865328 14.17877,5.373465 14.17877,5.373465 z"
         id="path309" />
      <path
         style="fill:#e8e2da;fill-opacity:1;stroke:none;stroke-width:4.00041;stroke-linejoin:round;stroke-dasharray:none;stroke-opacity:1;paint-order:stroke markers fill"
         d="m 475.4297,112.01799 c 0,0 0.41214,-15.597977 -26.00724,-6.09694 -26.41937,9.50103 -14.58092,44.94528 0.21638,54.20855 14.7973,9.26328 18.38091,-10.87977 13.47754,-27.7272 -4.90338,-16.84743 12.31332,-20.38441 12.31332,-20.38441 z"
         id="path311" />
      <path
         style="fill:#e8e2da;fill-opacity:1;stroke:none;stroke-width:4.00041;stroke-linejoin:round;stroke-dasharray:none;stroke-opacity:1;paint-order:stroke markers fill"
         d="m 448.73204,340.98256 c 0,0 1.54703,-27.85816 30.31189,-44.94987 28.76486,-17.09171 32.97,5.10598 9.4841,15.84521 -23.4859,10.73922 -39.79599,29.10466 -39.79599,29.10466 z"
         id="path313" />
      <path
         style="fill:#e8e2da;fill-opacity:1;stroke:none;stroke-width:4.00041;stroke-linejoin:round;stroke-dasharray:none;stroke-opacity:1;paint-order:stroke markers fill"
         d="m 465.38321,295.81901 c 0,0 8.38185,-31.01421 43.95872,-47.76948 35.57687,-16.75527 21.8218,20.24834 -1.09739,23.37453 -22.91919,3.1262 -42.86133,24.39495 -42.86133,24.39495 z"
         id="path315" />
      <path
         style="fill:#e8e2da;fill-opacity:1;stroke:none;stroke-width:4.00041;stroke-linejoin:round;stroke-dasharray:none;stroke-opacity:1;paint-order:stroke markers fill"
         d="m 497.72031,242.78507 c 0,0 -3.07085,-28.86701 40.23232,-38.13823 43.30317,-9.27122 23.49255,26.92549 -2.74746,23.74051 -26.24001,-3.18498 -37.48486,14.39772 -37.48486,14.39772 z"
         id="path317" />
      <path
         style="fill:#e8e2da;fill-opacity:1;stroke:none;stroke-width:4.00041;stroke-linejoin:round;stroke-dasharray:none;stroke-opacity:1;paint-order:stroke markers fill"
         d="m 519.05852,199.03431 c 0,0 0.98459,-35.99965 40.97281,-38.67495 39.98822,-2.6753 15.80962,27.55776 -3.54837,24.05701 -19.358,-3.50074 -37.42444,14.61794 -37.42444,14.61794 z"
         id="path323" />
      <path
         style="fill:#e8e2da;fill-opacity:1;stroke:none;stroke-width:4.00041;stroke-linejoin:round;stroke-dasharray:none;stroke-opacity:1;paint-order:stroke markers fill"
         d="m 524.42087,131.58119 c 0,0 -1.855,-0.94398 -0.51105,-3.65364 1.34394,-2.70967 7.85662,-7.41842 9.19377,-14.03887 1.33714,-6.62045 -4.39539,-21.955239 4.9263,-33.289955 9.3217,-11.334716 25.15331,-15.173548 26.60985,-10.701841 1.45654,4.471706 -11.44317,3.100308 -17.54075,13.28447 -6.09757,10.184163 -2.5529,13.327419 -3.4305,24.646556 -0.8776,11.31913 -2.86846,11.73037 -2.86846,11.73037 0,0 6.09743,-4.58367 14.94079,-2.3098 8.84336,2.27386 22.29185,15.30502 35.78578,15.4962 13.49393,0.19118 12.23309,-4.28319 15.94868,-4.28319 3.71559,0 10.5067,5.80919 -0.88947,19.99485 -11.39616,14.18565 -39.96186,0.7331 -51.46317,-9.81381 -11.50131,-10.54691 -22.59451,-10.7311 -24.90262,-6.76049 -2.30811,3.97061 -5.79915,-0.30085 -5.79915,-0.30085 z"
         id="path325" />
      <path
         style="fill:#e8e2da;fill-opacity:1;stroke:none;stroke-width:4.00041;stroke-linejoin:round;stroke-dasharray:none;stroke-opacity:1;paint-order:stroke markers fill"
         d="m 558.27663,107.47682 c 0,0 -4.36621,-2.73913 -1.03729,-7.44115 3.32891,-4.702018 3.62642,-1.440357 6.27807,-5.897236 2.65165,-4.456878 0.55194,-13.350211 12.05825,-21.686103 11.50631,-8.335891 22.26873,-6.517081 22.42221,-2.139463 0.15348,4.377619 -0.88636,1.542475 -6.90292,3.607835 -6.01656,2.06536 -12.45605,2.736762 -12.23796,10.690931 0.21809,7.954169 -4.80505,10.17765 -4.80505,10.17765 0,0 7.28218,-2.619184 13.46504,-0.327556 6.18286,2.291629 33.03757,15.123862 39.73659,11.025972 6.69902,-4.09789 -0.31615,-5.39581 7.23868,-6.829079 7.55483,-1.433273 16.27386,4.759769 10.20864,18.457009 -6.06521,13.69725 -28.68428,17.92531 -52.86252,2.33648 -24.17824,-15.58882 -25.00431,-9.45252 -28.01334,-8.67281 -3.00902,0.77971 -5.5484,-3.30248 -5.5484,-3.30248 z"
         id="path327" />
      <path
         style="fill:#e8e2da;fill-opacity:1;stroke:none;stroke-width:4.00041;stroke-linejoin:round;stroke-dasharray:none;stroke-opacity:1;paint-order:stroke markers fill"
         d="m 597.16635,85.891085 c 0,0 -2.04163,-3.008818 -0.56148,-5.061268 1.48016,-2.052451 19.08889,-12.009627 28.7653,-10.219177 9.67641,1.790449 4.03356,6.102321 1.32819,5.585127 -2.70537,-0.517194 -2.04403,-1.028302 -4.09603,-0.870628 -2.052,0.157673 -3.79961,2.465783 -3.79961,2.465783 0,0 1.39513,1.593391 8.43821,2.955653 7.04308,1.362262 24.2593,-3.761349 29.10129,4.454715 4.84199,8.216065 1.76015,16.5384 -8.40324,13.286192 -10.16339,-3.25221 -26.61858,-9.071496 -36.60608,-9.640113 -9.9875,-0.568617 -5.97679,2.45412 -10.21012,1.450251 -4.23332,-1.003869 -3.95643,-4.406535 -3.95643,-4.406535 z"
         id="path329" />
      <path
         style="fill:#e8e2da;fill-opacity:1;stroke:none;stroke-width:4.00041;stroke-linejoin:round;stroke-dasharray:none;stroke-opacity:1;paint-order:stroke markers fill"
         d="m 641.85912,71.533352 c 0,0 13.46651,-9.492501 33.81671,-0.789288 20.3502,8.703212 13.18767,20.090165 4.10306,15.986306 -9.08461,-4.10386 -2.33363,-8.233771 -19.4377,-12.647189 -17.10408,-4.413418 -18.48207,-2.549829 -18.48207,-2.549829 z"
         id="path331" />
    </g>
    <g
       id="g4701"
       style="fill:#e8e2da;fill-opacity:1;stroke:none;stroke-width:4.00041;stroke-linejoin:round;stroke-dasharray:none;stroke-opacity:1;paint-order:stroke markers fill">
      <path
         id="path333"
         style="fill:#e8e2da;fill-opacity:1;stroke:none;stroke-width:4.00041;stroke-linejoin:round;stroke-dasharray:none;stroke-opacity:1;paint-order:stroke markers fill"
         d="m 155.97461,516.16016 c -1.804,-10e-4 -3.63094,0.28606 -5.45313,0.88476 -11.66199,3.83173 -12.0953,11.50578 -10.83203,16.65235 1.26328,5.14657 4.85157,7.42187 4.85157,7.42187 0,0 -12.60355,0.18587 -15.30079,9.67188 -2.69722,9.486 -0.89215,19.97271 11.01954,24.10351 11.91169,4.13081 37.77327,-17.16936 41.73437,-15.40625 3.9611,1.7631 4.52539,-3.04492 4.52539,-3.04492 0,0 1.64277,-2.02334 -0.20508,-4.75195 -1.84786,-2.72862 -3.28673,2.70796 -7.76562,-13.44141 -3.77908,-13.62603 -12.83261,-22.08181 -22.57422,-22.08984 z m 0.70312,10.36718 c 1.38851,-0.0341 3.07898,0.23223 5.13868,0.78907 8.23879,2.22731 11.58203,24.47656 11.58203,24.47656 0,0 -7.41883,2.27956 -15.80274,10.875 -8.38391,8.59543 -20.1778,1.36696 -20.55468,-6.53516 -0.37689,-7.90212 16.88671,-9.65429 16.88671,-9.65429 0,0 -4.14721,-3.64425 -3.41406,-11.30274 0.54986,-5.74386 1.99855,-8.54616 6.16406,-8.64844 z" />
      <path
         id="path340"
         style="fill:#e8e2da;fill-opacity:1;stroke:none;stroke-width:4.00041;stroke-linejoin:round;stroke-dasharray:none;stroke-opacity:1;paint-order:stroke markers fill"
         d="m 183.19922,457.43164 c -5.29103,0.0527 -9.07308,3.42255 -9.4668,8.25977 -0.69995,8.5995 5.49219,15.66211 5.49219,15.66211 0,0 -1.76973,-2.45003 -9.74219,0.0684 -7.97245,2.51837 -9.64961,15.31533 -2.7793,24.75 6.87033,9.43466 25.78822,2.9377 30.53516,-0.28907 4.74696,-3.22676 16.99116,-5.88156 16.91406,-11.62695 -0.0771,-5.74538 -5.42187,-4.18359 -5.42187,-4.18359 0,0 0.23547,-14.81581 -11.32813,-25.87696 -5.05907,-4.83925 -10.08787,-6.80463 -14.20312,-6.76367 z m 3.77734,8.05078 c 0.44299,0.005 0.92856,0.0604 1.45899,0.17383 11.31587,2.4195 12.42187,27.68164 12.42187,27.68164 0,0 -21.36141,11.73855 -25.93945,2.24414 -4.57806,-9.49441 11.48242,-8.83789 11.48242,-8.83789 0,0 -8.43129,-21.35467 0.57617,-21.26172 z" />
    </g>
  </g>
  <g
     id="g9330"
     style="mix-blend-mode:overlay;fill:none;stroke:#e8e2da;stroke-width:4;stroke-dasharray:none;stroke-opacity:1;filter:url(#filter11564);opacity:0.88"
     transform="matrix(0.94143227,0,0,0.94143227,26.28967,26.749839)">
    <g
       id="g9278"
       style="fill:none;stroke:#e8e2da;stroke-width:4;stroke-linejoin:round;stroke-dasharray:none;stroke-opacity:1;paint-order:stroke markers fill">
      <path
         style="fill:none;fill-opacity:1;stroke:#e8e2da;stroke-width:4;stroke-linejoin:round;stroke-dasharray:none;stroke-opacity:1;paint-order:stroke markers fill"
         d="m 556.73047,732.02807 c 0,0 19.6195,13.14478 1.17028,27.25067 -18.44921,14.1059 -113.80371,33.73215 -147.90714,-29.85021 -34.10344,-63.58237 -11.43688,-140.48472 52.55567,-158.14186 63.99256,-17.65714 106.88718,35.18647 98.82334,93.63841 -8.06385,58.45193 -36.65082,42.36505 -37.1243,34.31523 -0.47348,-8.04982 20.43198,-31.73403 7.08347,-62.57715 -13.34852,-30.84312 -36.18883,-68.5388 -86.9386,-38.96043 -50.74977,29.57838 -50.53684,100.29827 -14.68933,131.44503 35.8475,31.14676 93.99389,5.09806 101.86093,5.73859 7.86703,0.64053 25.16568,-2.85828 25.16568,-2.85828 z"
         id="path9254" />
      <path
         style="fill:none;fill-opacity:1;stroke:#e8e2da;stroke-width:4;stroke-linejoin:round;stroke-dasharray:none;stroke-opacity:1;paint-order:stroke markers fill"
         d="m 369.94842,783.78694 c 0,0 -1.02952,6.23772 -11.57206,7.82225 -10.54254,1.58453 -24.03615,-22.87468 -6.63845,-56.39975 17.39771,-33.52507 30.12854,-78.76543 97.22699,-74.13512 67.09845,4.63031 132.37021,58.54409 98.01764,132.23308 -34.35257,73.689 -127.64856,44.57788 -140.10489,8.33936 -12.45633,-36.23853 6.77483,-38.53478 12.98925,-26.64037 6.21441,11.89441 41.92982,57.7193 100.23017,21.46922 58.30036,-36.25007 2.90426,-110.03016 -46.2221,-125.70356 -49.12636,-15.6734 -93.8973,52.7935 -94.73715,80.14335 -0.83986,27.34986 -6.27539,13.46326 -12.22582,20.35495 -5.95042,6.8917 3.03642,12.51659 3.03642,12.51659 z"
         id="path9256" />
      <path
         id="path9258"
         style="display:inline;fill:none;fill-opacity:1;stroke:#e8e2da;stroke-width:4;stroke-linejoin:round;stroke-dasharray:none;stroke-opacity:1;paint-order:stroke markers fill"
         d="m 290.95898,314.63477 c -8.41672,0.73294 -17.09274,6.1961 -23.66992,16.36132 -17.53914,27.10727 6.53711,87.66797 6.53711,87.66797 0,0 -38.43887,61.73109 -49.51758,74.24805 -11.07871,12.51696 -54.67872,72.03348 -18.74218,120.62695 35.93653,48.59347 94.79738,21.3604 111.83593,-23.14844 17.03857,-44.50883 -33.68228,-79.7003 -48.89257,-56.72656 -15.2103,22.97375 -6.40235,28.66211 -6.40235,28.66211 0,0 7.64514,-24.23807 20.72461,-19.45312 13.07947,4.78495 12.15601,26.45374 6.99805,42.78711 -5.15797,16.33335 -45.95082,40.69286 -59.49024,5.61132 -13.5394,-35.08154 23.36518,-82.63146 34.87891,-95.18359 11.51374,-12.55213 22.58789,-42.21094 22.58789,-42.21094 0,0 11.80937,65.88522 82.70898,104.9961 70.89963,39.11089 95.08329,82.04921 104.78711,100.93554 9.70381,18.88633 26.05855,72.21393 -45.75,101.57422 -71.80855,29.36029 -95.20415,-15.3832 -99.30273,-53.85937 -4.09859,-38.47617 76.40001,-62.45761 79.1875,-81.39063 2.78749,-18.93302 -91.51146,-25.1049 -103.38477,50.11133 -11.87329,75.21625 53.47738,129.79667 115.1836,102.50781 61.70621,-27.28885 81.83865,-81.55476 75.15429,-124.5957 C 489.70628,611.1153 417.97241,552.56688 374.0625,526.1582 c -43.90992,-26.40868 -78.55273,-91.125 -78.55273,-91.125 0,0 27.16014,-44.1669 24.46875,-84.49414 -1.68213,-25.20453 -14.99166,-37.12586 -29.01954,-35.90429 z m -3.18359,16.35156 c 8.45446,-0.18844 15.96799,16.14647 15.01953,30.63672 -1.16733,17.83416 -17.03125,40.63476 -17.03125,40.63476 0,0 -8.044,-20.24793 -10.45312,-30.48242 -2.40914,-10.2345 -3.8939,-26.9729 6.55273,-37.79492 1.95874,-2.02913 3.96108,-2.95066 5.91211,-2.99414 z" />
      <path
         id="path9260"
         style="fill:none;fill-opacity:1;stroke:#e8e2da;stroke-width:4;stroke-linejoin:round;stroke-dasharray:none;stroke-opacity:1;paint-order:stroke markers fill"
         d="m 398.24023,598.67578 a 4.1772003,4.1772003 0 0 0 -4.17578,4.17774 4.1772003,4.1772003 0 0 0 4.17578,4.17578 4.1772003,4.1772003 0 0 0 4.17774,-4.17578 4.1772003,4.1772003 0 0 0 -4.17774,-4.17774 z m 161.77344,107.69141 a 3.8801858,3.8801858 0 0 0 -3.88086,3.8789 3.8801858,3.8801858 0 0 0 3.88086,3.88086 3.8801858,3.8801858 0 0 0 3.88086,-3.88086 3.8801858,3.8801858 0 0 0 -3.88086,-3.8789 z m -173.52148,85.53515 a 4.3512077,4.4545479 0 0 0 -4.35157,4.45508 4.3512077,4.4545479 0 0 0 4.35157,4.45508 4.3512077,4.4545479 0 0 0 4.35156,-4.45508 4.3512077,4.4545479 0 0 0 -4.35156,-4.45508 z" />
      <path
         id="path9262"
         style="fill:none;fill-opacity:1;stroke:#e8e2da;stroke-width:4;stroke-linejoin:round;stroke-dasharray:none;stroke-opacity:1;paint-order:stroke markers fill"
         d="m 380.66797,596.01758 a 4.0428314,4.0428314 0 0 0 -4.04297,4.04297 4.0428314,4.0428314 0 0 0 4.04297,4.04297 4.0428314,4.0428314 0 0 0 4.04297,-4.04297 4.0428314,4.0428314 0 0 0 -4.04297,-4.04297 z m 190.20312,96.75 a 3.1765442,3.1765442 0 0 0 -3.17578,3.17773 3.1765442,3.1765442 0 0 0 3.17578,3.17578 3.1765442,3.1765442 0 0 0 3.17774,-3.17578 3.1765442,3.1765442 0 0 0 -3.17774,-3.17773 z M 392.92578,808.69336 a 4.107872,4.107872 0 0 0 -4.10742,4.10937 4.107872,4.107872 0 0 0 4.10742,4.10743 4.107872,4.107872 0 0 0 4.10938,-4.10743 4.107872,4.107872 0 0 0 -4.10938,-4.10937 z" />
      <path
         id="path9264"
         style="display:inline;fill:none;fill-opacity:1;stroke:#e8e2da;stroke-width:4;stroke-linejoin:round;stroke-dasharray:none;stroke-opacity:1;paint-order:stroke markers fill"
         d="m 360.91406,601.58789 a 3.5860405,3.5860405 0 0 0 -3.58594,3.58594 3.5860405,3.5860405 0 0 0 3.58594,3.58594 3.5860405,3.5860405 0 0 0 3.58594,-3.58594 3.5860405,3.5860405 0 0 0 -3.58594,-3.58594 z m 215.63086,71.12891 a 3.5516357,3.5516357 0 0 0 -3.55078,3.55078 3.5516357,3.5516357 0 0 0 3.55078,3.55273 3.5516357,3.5516357 0 0 0 3.55274,-3.55273 3.5516357,3.5516357 0 0 0 -3.55274,-3.55078 z M 407.48633,824.10938 a 3.4286308,3.4286308 0 0 0 -3.42969,3.42773 3.4286308,3.4286308 0 0 0 3.42969,3.42969 3.4286308,3.4286308 0 0 0 3.42773,-3.42969 3.4286308,3.4286308 0 0 0 -3.42773,-3.42773 z" />
      <path
         id="path9266"
         style="fill:none;fill-opacity:1;stroke:#e8e2da;stroke-width:4;stroke-linejoin:round;stroke-dasharray:none;stroke-opacity:1;paint-order:stroke markers fill"
         d="m 339.24219,611.87695 a 3.7959518,3.7199745 0 0 0 -3.79492,3.71875 3.7959518,3.7199745 0 0 0 3.79492,3.72071 3.7959518,3.7199745 0 0 0 3.79687,-3.72071 3.7959518,3.7199745 0 0 0 -3.79687,-3.71875 z m 239.69531,36.72461 a 4.0017242,4.0017242 0 0 0 -4.00195,4.00196 4.0017242,4.0017242 0 0 0 4.00195,4.00195 4.0017242,4.0017242 0 0 0 4.00195,-4.00195 4.0017242,4.0017242 0 0 0 -4.00195,-4.00196 z M 426.61914,836.38672 a 4.2189713,4.2189713 0 0 0 -4.2207,4.21875 4.2189713,4.2189713 0 0 0 4.2207,4.21875 4.2189713,4.2189713 0 0 0 4.21875,-4.21875 4.2189713,4.2189713 0 0 0 -4.21875,-4.21875 z" />
      <path
         id="path9268"
         style="fill:none;fill-opacity:1;stroke:#e8e2da;stroke-width:4;stroke-linejoin:round;stroke-dasharray:none;stroke-opacity:1;paint-order:stroke markers fill"
         d="m 321.45117,625.68164 a 3.5592957,3.5592957 0 0 0 -3.55859,3.55859 3.5592957,3.5592957 0 0 0 3.55859,3.56055 3.5592957,3.5592957 0 0 0 3.56055,-3.56055 3.5592957,3.5592957 0 0 0 -3.56055,-3.55859 z m 254.23242,1.17383 a 3.4367523,3.4367523 0 0 0 -3.4375,3.43555 3.4367523,3.4367523 0 0 0 3.4375,3.4375 3.4367523,3.4367523 0 0 0 3.43555,-3.4375 3.4367523,3.4367523 0 0 0 -3.43555,-3.43555 z M 447.82227,846.78906 a 3.5636101,3.5636101 0 0 0 -3.5625,3.5625 3.5636101,3.5636101 0 0 0 3.5625,3.56446 3.5636101,3.5636101 0 0 0 3.56445,-3.56446 3.5636101,3.5636101 0 0 0 -3.56445,-3.5625 z" />
      <path
         id="path9270"
         style="fill:none;fill-opacity:1;stroke:#e8e2da;stroke-width:4;stroke-linejoin:round;stroke-dasharray:none;stroke-opacity:1;paint-order:stroke markers fill"
         d="m 569.86523,603.46875 a 3.314064,3.314064 0 0 0 -3.31445,3.31445 3.314064,3.314064 0 0 0 3.31445,3.31446 3.314064,3.314064 0 0 0 3.31446,-3.31446 3.314064,3.314064 0 0 0 -3.31446,-3.31445 z m -265.5625,39.51758 a 3.4414902,3.4414902 0 0 0 -3.4414,3.4414 3.4414902,3.4414902 0 0 0 3.4414,3.44141 3.4414902,3.4414902 0 0 0 3.44141,-3.44141 3.4414902,3.4414902 0 0 0 -3.44141,-3.4414 z m 166.58789,210.47656 a 3.4328499,3.4328499 0 0 0 -3.43359,3.43164 3.4328499,3.4328499 0 0 0 3.43359,3.43359 3.4328499,3.4328499 0 0 0 3.43165,-3.43359 3.4328499,3.4328499 0 0 0 -3.43165,-3.43164 z" />
      <path
         id="path9272"
         style="display:inline;fill:none;fill-opacity:1;stroke:#e8e2da;stroke-width:4;stroke-linejoin:round;stroke-dasharray:none;stroke-opacity:1;paint-order:stroke markers fill"
         d="m 556.11523,577.07422 a 4.1000519,4.1000519 0 0 0 -4.10156,4.10156 4.1000519,4.1000519 0 0 0 4.10156,4.09961 4.1000519,4.1000519 0 0 0 4.09961,-4.09961 4.1000519,4.1000519 0 0 0 -4.09961,-4.10156 z m -268.22265,90.04101 a 4.2381744,4.2381744 0 0 0 -4.23828,4.23829 4.2381744,4.2381744 0 0 0 4.23828,4.23828 4.2381744,4.2381744 0 0 0 4.23828,-4.23828 4.2381744,4.2381744 0 0 0 -4.23828,-4.23829 z m 212.78125,186.5586 a 3.9319611,3.9319611 0 0 0 -3.93164,3.93164 3.9319611,3.9319611 0 0 0 3.93164,3.93164 3.9319611,3.9319611 0 0 0 3.93164,-3.93164 3.9319611,3.9319611 0 0 0 -3.93164,-3.93164 z" />
      <path
         id="path9274"
         style="fill:none;fill-opacity:1;stroke:#e8e2da;stroke-width:4;stroke-linejoin:round;stroke-dasharray:none;stroke-opacity:1;paint-order:stroke markers fill"
         d="m 535.19531,559.38477 a 3.3081665,3.3081665 0 0 0 -3.30859,3.30859 3.3081665,3.3081665 0 0 0 3.30859,3.30859 3.3081665,3.3081665 0 0 0 3.30664,-3.30859 3.3081665,3.3081665 0 0 0 -3.30664,-3.30859 z M 283.56445,694.97266 a 3.4979706,3.4979706 0 0 0 -3.49804,3.49804 3.4979706,3.4979706 0 0 0 3.49804,3.49805 3.4979706,3.4979706 0 0 0 3.49805,-3.49805 3.4979706,3.4979706 0 0 0 -3.49805,-3.49804 z m 243.07227,149.03125 a 4.2724266,4.2724266 0 0 0 -4.27344,4.27343 4.2724266,4.2724266 0 0 0 4.27344,4.27149 4.2724266,4.2724266 0 0 0 4.27148,-4.27149 4.2724266,4.2724266 0 0 0 -4.27148,-4.27343 z" />
      <path
         id="path9276"
         style="fill:none;fill-opacity:1;stroke:#e8e2da;stroke-width:4;stroke-linejoin:round;stroke-dasharray:none;stroke-opacity:1;paint-order:stroke markers fill"
         d="m 511.77539,547.41406 a 2.8437119,2.8437119 0 0 0 -2.84375,2.84375 2.8437119,2.8437119 0 0 0 2.84375,2.84375 2.8437119,2.8437119 0 0 0 2.84375,-2.84375 2.8437119,2.8437119 0 0 0 -2.84375,-2.84375 z M 284.36328,721.85547 a 3.6233292,3.6233292 0 0 0 -3.62305,3.62305 3.6233292,3.6233292 0 0 0 3.62305,3.62304 3.6233292,3.6233292 0 0 0 3.62305,-3.62304 3.6233292,3.6233292 0 0 0 -3.62305,-3.62305 z m 265.13281,109.00976 a 3.3154373,3.3154373 0 0 0 -3.3164,3.31641 3.3154373,3.3154373 0 0 0 3.3164,3.31445 3.3154373,3.3154373 0 0 0 3.31446,-3.31445 3.3154373,3.3154373 0 0 0 -3.31446,-3.31641 z" />
    </g>
    <g
       id="g9296"
       style="fill:none;stroke:#e8e2da;stroke-width:4;stroke-dasharray:none;stroke-opacity:1;paint-order:stroke markers fill">
      <path
         style="fill:none;fill-opacity:1;stroke:#e8e2da;stroke-width:4;stroke-dasharray:none;stroke-opacity:1;paint-order:stroke markers fill"
         d="m 330.52847,414.21953 c 0,0 -10.88322,10.48793 4.74901,48.23007 15.63223,37.74214 76.04231,61.40065 87.62181,75.17595 11.5795,13.7753 14.45627,25.05273 19.69534,25.40875 5.23908,0.35602 4.92639,-15.48029 33.5441,-30.97971 28.61771,-15.49942 111.67337,-18.26295 188.12796,-62.16757 76.45459,-43.90461 88.3419,-153.41641 33.55241,-175.641 -54.78948,-22.2246 -80.90988,23.28491 -76.49272,43.0171 4.41716,19.73219 14.19397,24.57636 21.48342,14.17236 7.28944,-10.40399 -14.87688,-26.63844 21.84445,-39.346 36.72133,-12.70757 50.24902,31.31222 39.60588,61.89956 -10.64314,30.58734 -38.03894,57.30994 -80.99779,75.17588 -42.95884,17.86593 -132.9237,31.85131 -153.65204,52.11688 -20.72833,20.26556 -17.49603,26.90887 -20.72833,27.01779 -3.2323,0.10892 -5.56213,-24.86874 -44.95323,-42.41701 -39.3911,-17.54826 -57.27863,-35.34073 -64.13097,-47.70509 -6.85234,-12.36437 -9.2693,-23.95796 -9.2693,-23.95796 z"
         id="path9280" />
      <path
         style="fill:none;fill-opacity:1;stroke:#e8e2da;stroke-width:4;stroke-dasharray:none;stroke-opacity:1;paint-order:stroke markers fill"
         d="m 656.63842,267.74595 c 0,0 10.55941,-10.80776 10.55514,-43.17615 -0.004,-32.36839 -9.8478,-22.4448 -5.99257,-30.82726 3.85524,-8.38247 19.98509,-16.43729 28.2772,2.46128 8.29212,18.89857 2.92002,47.44449 -6.71875,57.98202 -9.63876,10.53754 -14.68168,20.19822 -21.34588,19.49814 -6.6642,-0.70007 -4.77514,-5.93803 -4.77514,-5.93803 z"
         id="path9282" />
      <path
         style="fill:none;fill-opacity:1;stroke:#e8e2da;stroke-width:4;stroke-dasharray:none;stroke-opacity:1;paint-order:stroke markers fill"
         d="m 686.44287,271.89697 c 0,0 10.20584,-4.17902 16.46112,-31.94499 6.25528,-27.76597 -5.42859,-33.40306 13.77995,-33.00666 19.20854,0.39639 23.31368,25.7076 9.70104,49.51342 -13.61264,23.80582 -30.95652,25.75819 -38.40116,20.62178 -7.44464,-5.13641 -1.54095,-5.18355 -1.54095,-5.18355 z"
         id="path9284" />
      <path
         style="fill:none;fill-opacity:1;stroke:#e8e2da;stroke-width:4;stroke-dasharray:none;stroke-opacity:1;paint-order:stroke markers fill"
         d="m 708.49524,286.56592 c 0,0 23.94505,-4.84949 32.11854,-24.03125 8.17349,-19.18175 34.46654,-7.09259 20.30545,13.53017 -14.16108,20.62277 -46.7071,18.31725 -51.57022,14.93455 -4.86311,-3.3827 -0.85377,-4.43347 -0.85377,-4.43347 z"
         id="path9286" />
      <path
         style="fill:none;fill-opacity:1;stroke:#e8e2da;stroke-width:4;stroke-dasharray:none;stroke-opacity:1;paint-order:stroke markers fill"
         d="m 730.13413,300.62986 c 0,0 7.11752,8.25701 27.06628,4.06903 19.94876,-4.18798 12.77182,19.4444 0.026,17.54779 -12.7458,-1.89661 -31.8074,-15.18481 -31.46493,-18.51481 0.34246,-3.33 4.37263,-3.10201 4.37263,-3.10201 z"
         id="path9288" />
      <path
         style="fill:none;fill-opacity:1;stroke:#e8e2da;stroke-width:4;stroke-dasharray:none;stroke-opacity:1;paint-order:stroke markers fill"
         d="m 743.45398,327.03561 c 0,0 2.31463,6.4078 16.13597,10.14069 13.82133,3.73289 8.74335,16.3125 -2.27239,13.70714 -11.01574,-2.60536 -18.25456,-17.80469 -18.09531,-21.07702 0.15925,-3.27233 4.23173,-2.77081 4.23173,-2.77081 z"
         id="path9290" />
      <path
         style="fill:none;fill-opacity:1;stroke:#e8e2da;stroke-width:4;stroke-dasharray:none;stroke-opacity:1;paint-order:stroke markers fill"
         d="m 747.38128,356.62868 c 0,0 4.02102,10.20824 8.66822,12.49254 4.6472,2.2843 0.63092,9.52279 -4.03057,7.79649 -4.66148,-1.7263 -9.94976,-12.68439 -9.42936,-17.38385 0.5204,-4.69946 4.79171,-2.90518 4.79171,-2.90518 z"
         id="path9292" />
      <path
         style="fill:none;fill-opacity:1;stroke:#e8e2da;stroke-width:4;stroke-dasharray:none;stroke-opacity:1;paint-order:stroke markers fill"
         d="m 742.71008,379.13676 c 0,0 1.34335,6.24363 3.58951,7.73129 2.24615,1.48766 -0.36006,5.64713 -4.54407,4.37899 -4.18401,-1.26814 -5.88593,-7.78723 -4.45968,-9.71713 1.42626,-1.92991 5.41424,-2.39315 5.41424,-2.39315 z"
         id="path9294" />
    </g>
    <path
       style="fill:none;fill-opacity:1;stroke:#e8e2da;stroke-width:4;stroke-dasharray:none;stroke-opacity:1;paint-order:stroke markers fill"
       d="m 349.06351,375.97641 c 0,0 -5.79383,-6.71953 -6.30324,20.19082 -0.50942,26.91036 32.64006,53.03797 60.20384,63.71413 27.56378,10.67616 41.20477,23.70419 41.71362,33.91068 0.50885,10.20648 13.45212,6.3405 13.28119,-1.10175 -0.17093,-7.44224 -50.23581,-63.76942 6.63135,-106.64819 56.86716,-42.87878 81.07199,-36.56331 132.36001,-65.95204 51.28803,-29.38874 63.11805,-101.68764 39.37845,-116.86386 -23.73959,-15.17621 -44.35415,-0.41999 -36.69876,6.02646 7.6554,6.44646 23.8028,-0.79021 17.63797,24.51914 -6.16482,25.30936 -33.27524,56.66394 -103.33027,84.70687 -70.05504,28.04292 -83.24722,53.09915 -87.83078,61.59466 -4.58357,8.49552 -6.35685,16.02197 -6.35685,16.02197 0,0 -23.95309,-101.61662 -68.44361,-125.43083 -44.49053,-23.81421 -80.62741,31.43935 -77.20581,36.84043 3.4216,5.40107 16.75466,-26.58957 55.86486,-17.81234 39.1102,8.77724 41.23473,64.71929 48.10578,93.03783 6.87105,28.31854 16.79973,40.56624 16.79973,40.56624 0,0 -40.74091,-13.09076 -45.82607,-31.21849 -5.08516,-18.12773 0.0186,-16.10173 0.0186,-16.10173 z"
       id="path9298" />
    <g
       id="g9322"
       style="fill:none;stroke:#e8e2da;stroke-width:4;stroke-linejoin:round;stroke-dasharray:none;stroke-opacity:1;paint-order:stroke markers fill">
      <path
         style="fill:none;fill-opacity:1;stroke:#e8e2da;stroke-width:4;stroke-linejoin:round;stroke-dasharray:none;stroke-opacity:1;paint-order:stroke markers fill"
         d="m 425.31029,370.44008 c 0,0 -14.20342,-2.37353 1.58625,-56.46213 15.78968,-54.0886 69.21683,-123.81916 66.10921,-197.40558 -3.10762,-73.586416 -29.59879,-47.790128 -37.64371,-51.963331 -8.04491,-4.173202 -4.58355,-11.417023 11.27947,-12.580261 15.86302,-1.163239 37.72629,7.221313 47.66577,51.953522 9.93948,44.73221 -0.14464,90.05174 -28.89876,146.69241 -28.75412,56.64067 -48.5612,64.91702 -55.69847,95.84079 -7.13727,30.92377 -4.39976,23.92458 -4.39976,23.92458 z"
         id="path9300" />
      <path
         style="fill:none;fill-opacity:1;stroke:#e8e2da;stroke-width:4;stroke-linejoin:round;stroke-dasharray:none;stroke-opacity:1;paint-order:stroke markers fill"
         d="m 477.28119,93.794106 c 0,0 1.40373,-23.579523 -36.78232,-17.671206 -38.18606,5.908316 -25.25883,47.98565 -8.54008,36.54074 16.71876,-11.44491 13.88131,-21.377672 31.14363,-24.242999 17.26231,-2.865328 14.17877,5.373465 14.17877,5.373465 z"
         id="path9302" />
      <path
         style="fill:none;fill-opacity:1;stroke:#e8e2da;stroke-width:4;stroke-linejoin:round;stroke-dasharray:none;stroke-opacity:1;paint-order:stroke markers fill"
         d="m 475.4297,112.01799 c 0,0 0.41214,-15.597977 -26.00724,-6.09694 -26.41937,9.50103 -14.58092,44.94528 0.21638,54.20855 14.7973,9.26328 18.38091,-10.87977 13.47754,-27.7272 -4.90338,-16.84743 12.31332,-20.38441 12.31332,-20.38441 z"
         id="path9304" />
      <path
         style="fill:none;fill-opacity:1;stroke:#e8e2da;stroke-width:4;stroke-linejoin:round;stroke-dasharray:none;stroke-opacity:1;paint-order:stroke markers fill"
         d="m 448.73204,340.98256 c 0,0 1.54703,-27.85816 30.31189,-44.94987 28.76486,-17.09171 32.97,5.10598 9.4841,15.84521 -23.4859,10.73922 -39.79599,29.10466 -39.79599,29.10466 z"
         id="path9306" />
      <path
         style="fill:none;fill-opacity:1;stroke:#e8e2da;stroke-width:4;stroke-linejoin:round;stroke-dasharray:none;stroke-opacity:1;paint-order:stroke markers fill"
         d="m 465.38321,295.81901 c 0,0 8.38185,-31.01421 43.95872,-47.76948 35.57687,-16.75527 21.8218,20.24834 -1.09739,23.37453 -22.91919,3.1262 -42.86133,24.39495 -42.86133,24.39495 z"
         id="path9308" />
      <path
         style="fill:none;fill-opacity:1;stroke:#e8e2da;stroke-width:4;stroke-linejoin:round;stroke-dasharray:none;stroke-opacity:1;paint-order:stroke markers fill"
         d="m 497.72031,242.78507 c 0,0 -3.07085,-28.86701 40.23232,-38.13823 43.30317,-9.27122 23.49255,26.92549 -2.74746,23.74051 -26.24001,-3.18498 -37.48486,14.39772 -37.48486,14.39772 z"
         id="path9310" />
      <path
         style="fill:none;fill-opacity:1;stroke:#e8e2da;stroke-width:4;stroke-linejoin:round;stroke-dasharray:none;stroke-opacity:1;paint-order:stroke markers fill"
         d="m 519.05852,199.03431 c 0,0 0.98459,-35.99965 40.97281,-38.67495 39.98822,-2.6753 15.80962,27.55776 -3.54837,24.05701 -19.358,-3.50074 -37.42444,14.61794 -37.42444,14.61794 z"
         id="path9312" />
      <path
         style="fill:none;fill-opacity:1;stroke:#e8e2da;stroke-width:4;stroke-linejoin:round;stroke-dasharray:none;stroke-opacity:1;paint-order:stroke markers fill"
         d="m 524.42087,131.58119 c 0,0 -1.855,-0.94398 -0.51105,-3.65364 1.34394,-2.70967 7.85662,-7.41842 9.19377,-14.03887 1.33714,-6.62045 -4.39539,-21.955239 4.9263,-33.289955 9.3217,-11.334716 25.15331,-15.173548 26.60985,-10.701841 1.45654,4.471706 -11.44317,3.100308 -17.54075,13.28447 -6.09757,10.184163 -2.5529,13.327419 -3.4305,24.646556 -0.8776,11.31913 -2.86846,11.73037 -2.86846,11.73037 0,0 6.09743,-4.58367 14.94079,-2.3098 8.84336,2.27386 22.29185,15.30502 35.78578,15.4962 13.49393,0.19118 12.23309,-4.28319 15.94868,-4.28319 3.71559,0 10.5067,5.80919 -0.88947,19.99485 -11.39616,14.18565 -39.96186,0.7331 -51.46317,-9.81381 -11.50131,-10.54691 -22.59451,-10.7311 -24.90262,-6.76049 -2.30811,3.97061 -5.79915,-0.30085 -5.79915,-0.30085 z"
         id="path9314" />
      <path
         style="fill:none;fill-opacity:1;stroke:#e8e2da;stroke-width:4;stroke-linejoin:round;stroke-dasharray:none;stroke-opacity:1;paint-order:stroke markers fill"
         d="m 558.27663,107.47682 c 0,0 -4.36621,-2.73913 -1.03729,-7.44115 3.32891,-4.702018 3.62642,-1.440357 6.27807,-5.897236 2.65165,-4.456878 0.55194,-13.350211 12.05825,-21.686103 11.50631,-8.335891 22.26873,-6.517081 22.42221,-2.139463 0.15348,4.377619 -0.88636,1.542475 -6.90292,3.607835 -6.01656,2.06536 -12.45605,2.736762 -12.23796,10.690931 0.21809,7.954169 -4.80505,10.17765 -4.80505,10.17765 0,0 7.28218,-2.619184 13.46504,-0.327556 6.18286,2.291629 33.03757,15.123862 39.73659,11.025972 6.69902,-4.09789 -0.31615,-5.39581 7.23868,-6.829079 7.55483,-1.433273 16.27386,4.759769 10.20864,18.457009 -6.06521,13.69725 -28.68428,17.92531 -52.86252,2.33648 -24.17824,-15.58882 -25.00431,-9.45252 -28.01334,-8.67281 -3.00902,0.77971 -5.5484,-3.30248 -5.5484,-3.30248 z"
         id="path9316" />
      <path
         style="fill:none;fill-opacity:1;stroke:#e8e2da;stroke-width:4;stroke-linejoin:round;stroke-dasharray:none;stroke-opacity:1;paint-order:stroke markers fill"
         d="m 597.16635,85.891085 c 0,0 -2.04163,-3.008818 -0.56148,-5.061268 1.48016,-2.052451 19.08889,-12.009627 28.7653,-10.219177 9.67641,1.790449 4.03356,6.102321 1.32819,5.585127 -2.70537,-0.517194 -2.04403,-1.028302 -4.09603,-0.870628 -2.052,0.157673 -3.79961,2.465783 -3.79961,2.465783 0,0 1.39513,1.593391 8.43821,2.955653 7.04308,1.362262 24.2593,-3.761349 29.10129,4.454715 4.84199,8.216065 1.76015,16.5384 -8.40324,13.286192 -10.16339,-3.25221 -26.61858,-9.071496 -36.60608,-9.640113 -9.9875,-0.568617 -5.97679,2.45412 -10.21012,1.450251 -4.23332,-1.003869 -3.95643,-4.406535 -3.95643,-4.406535 z"
         id="path9318" />
      <path
         style="fill:none;fill-opacity:1;stroke:#e8e2da;stroke-width:4;stroke-linejoin:round;stroke-dasharray:none;stroke-opacity:1;paint-order:stroke markers fill"
         d="m 641.85912,71.533352 c 0,0 13.46651,-9.492501 33.81671,-0.789288 20.3502,8.703212 13.18767,20.090165 4.10306,15.986306 -9.08461,-4.10386 -2.33363,-8.233771 -19.4377,-12.647189 -17.10408,-4.413418 -18.48207,-2.549829 -18.48207,-2.549829 z"
         id="path9320" />
    </g>
    <g
       id="g9328"
       style="fill:none;stroke:#e8e2da;stroke-width:4;stroke-linejoin:round;stroke-dasharray:none;stroke-opacity:1;paint-order:stroke markers fill">
      <path
         id="path9324"
         style="fill:none;fill-opacity:1;stroke:#e8e2da;stroke-width:4;stroke-linejoin:round;stroke-dasharray:none;stroke-opacity:1;paint-order:stroke markers fill"
         d="m 155.97461,516.16016 c -1.804,-10e-4 -3.63094,0.28606 -5.45313,0.88476 -11.66199,3.83173 -12.0953,11.50578 -10.83203,16.65235 1.26328,5.14657 4.85157,7.42187 4.85157,7.42187 0,0 -12.60355,0.18587 -15.30079,9.67188 -2.69722,9.486 -0.89215,19.97271 11.01954,24.10351 11.91169,4.13081 37.77327,-17.16936 41.73437,-15.40625 3.9611,1.7631 4.52539,-3.04492 4.52539,-3.04492 0,0 1.64277,-2.02334 -0.20508,-4.75195 -1.84786,-2.72862 -3.28673,2.70796 -7.76562,-13.44141 -3.77908,-13.62603 -12.83261,-22.08181 -22.57422,-22.08984 z m 0.70312,10.36718 c 1.38851,-0.0341 3.07898,0.23223 5.13868,0.78907 8.23879,2.22731 11.58203,24.47656 11.58203,24.47656 0,0 -7.41883,2.27956 -15.80274,10.875 -8.38391,8.59543 -20.1778,1.36696 -20.55468,-6.53516 -0.37689,-7.90212 16.88671,-9.65429 16.88671,-9.65429 0,0 -4.14721,-3.64425 -3.41406,-11.30274 0.54986,-5.74386 1.99855,-8.54616 6.16406,-8.64844 z" />
      <path
         id="path9326"
         style="fill:none;fill-opacity:1;stroke:#e8e2da;stroke-width:4;stroke-linejoin:round;stroke-dasharray:none;stroke-opacity:1;paint-order:stroke markers fill"
         d="m 183.19922,457.43164 c -5.29103,0.0527 -9.07308,3.42255 -9.4668,8.25977 -0.69995,8.5995 5.49219,15.66211 5.49219,15.66211 0,0 -1.76973,-2.45003 -9.74219,0.0684 -7.97245,2.51837 -9.64961,15.31533 -2.7793,24.75 6.87033,9.43466 25.78822,2.9377 30.53516,-0.28907 4.74696,-3.22676 16.99116,-5.88156 16.91406,-11.62695 -0.0771,-5.74538 -5.42187,-4.18359 -5.42187,-4.18359 0,0 0.23547,-14.81581 -11.32813,-25.87696 -5.05907,-4.83925 -10.08787,-6.80463 -14.20312,-6.76367 z m 3.77734,8.05078 c 0.44299,0.005 0.92856,0.0604 1.45899,0.17383 11.31587,2.4195 12.42187,27.68164 12.42187,27.68164 0,0 -21.36141,11.73855 -25.93945,2.24414 -4.57806,-9.49441 11.48242,-8.83789 11.48242,-8.83789 0,0 -8.43129,-21.35467 0.57617,-21.26172 z" />
    </g>
  </g>
</svg>
