<?xml version="1.0" encoding="UTF-8" standalone="no"?>
<!-- Created with Inkscape (http://www.inkscape.org/) -->

<svg
   width="1920"
   height="1080"
   viewBox="0 0 1920 1080"
   version="1.1"
   id="svg5"
   inkscape:version="1.2.2 (b0a8486541, 2022-12-01)"
   sodipodi:docname="jl-site-frame-contenthub-desktop.svg"
   xml:space="preserve"
   xmlns:inkscape="http://www.inkscape.org/namespaces/inkscape"
   xmlns:sodipodi="http://sodipodi.sourceforge.net/DTD/sodipodi-0.dtd"
   xmlns:xlink="http://www.w3.org/1999/xlink"
   xmlns="http://www.w3.org/2000/svg"
   xmlns:svg="http://www.w3.org/2000/svg"><sodipodi:namedview
     id="namedview7"
     pagecolor="#505050"
     bordercolor="#ffffff"
     borderopacity="1"
     inkscape:showpageshadow="0"
     inkscape:pageopacity="0"
     inkscape:pagecheckerboard="1"
     inkscape:deskcolor="#505050"
     inkscape:document-units="px"
     showgrid="false"
     inkscape:zoom="0.36599323"
     inkscape:cx="799.19511"
     inkscape:cy="173.50048"
     inkscape:window-width="1366"
     inkscape:window-height="722"
     inkscape:window-x="0"
     inkscape:window-y="0"
     inkscape:window-maximized="1"
     inkscape:current-layer="svg5" /><defs
     id="defs2"><linearGradient
       id="glow-master"><stop
         offset="0.0"
         style="stop-color:#000000;stop-opacity:0.0;"
         id="stop1899" /><stop
         offset="0.11"
         style="stop-color:#442204;stop-opacity:0.22;"
         id="stop1901" /><stop
         offset="0.22"
         style="stop-color:#69190d;stop-opacity:0.44;"
         id="stop1903" /><stop
         offset="0.33"
         style="stop-color:#a52c16;stop-opacity:0.659;"
         id="stop1905" /><stop
         offset="0.44"
         style="stop-color:#eb7513;stop-opacity:0.878;"
         id="stop1907" /><stop
         offset="0.55"
         style="stop-color:#f2c62a;stop-opacity:1.0;"
         id="stop1909" /><stop
         offset="0.66"
         style="stop-color:#5e9a0e;stop-opacity:0.878;"
         id="stop1911" /><stop
         offset="0.77"
         style="stop-color:#0e4d0e;stop-opacity:0.659;"
         id="stop1913" /><stop
         offset="0.88"
         style="stop-color:#073720;stop-opacity:0.44;"
         id="stop1915" /><stop
         offset="0.94"
         style="stop-color:#442204;stop-opacity:0.22;"
         id="stop1917" /><stop
         offset="1.0"
         style="stop-color:#000000;stop-opacity:0.0;"
         id="stop1919" /></linearGradient><linearGradient
       id="linearGradient6061-1"><stop
         style="stop-color:#e8e2da;stop-opacity:0;"
         offset="0"
         id="stop9525" /><stop
         style="stop-color:#69190d;stop-opacity:0.22;"
         offset="0.11359598"
         id="stop9527" /><stop
         style="stop-color:#a52c16;stop-opacity:0.55000001;"
         offset="0.22"
         id="stop9529" /><stop
         style="stop-color:#eb7513;stop-opacity:0.88;"
         offset="0.33000001"
         id="stop9531" /><stop
         style="stop-color:#f2c62a;stop-opacity:1;"
         offset="0.5"
         id="stop9533" /><stop
         style="stop-color:#5e9a0e;stop-opacity:0.88;"
         offset="0.66000003"
         id="stop9535" /><stop
         style="stop-color:#0e4d0e;stop-opacity:0.55000001;"
         offset="0.76999998"
         id="stop9537" /><stop
         style="stop-color:#073720;stop-opacity:0.22;"
         offset="0.88"
         id="stop9539" /><stop
         style="stop-color:#e8e2da;stop-opacity:0;"
         offset="1"
         id="stop9541" /></linearGradient><linearGradient
       id="linearGradient6061"><stop
         style="stop-color:#e8e2da;stop-opacity:0;"
         offset="0"
         id="stop9506" /><stop
         style="stop-color:#69190d;stop-opacity:0.22;"
         offset="0.11359598"
         id="stop9508" /><stop
         style="stop-color:#a52c16;stop-opacity:0.55000001;"
         offset="0.22"
         id="stop9510" /><stop
         style="stop-color:#eb7513;stop-opacity:0.88;"
         offset="0.33000001"
         id="stop9512" /><stop
         style="stop-color:#f2c62a;stop-opacity:1;"
         offset="0.5"
         id="stop9514" /><stop
         style="stop-color:#5e9a0e;stop-opacity:0.88;"
         offset="0.66000003"
         id="stop9516" /><stop
         style="stop-color:#0e4d0e;stop-opacity:0.55000001;"
         offset="0.76999998"
         id="stop9518" /><stop
         style="stop-color:#073720;stop-opacity:0.22;"
         offset="0.88"
         id="stop9520" /><stop
         style="stop-color:#e8e2da;stop-opacity:0;"
         offset="1"
         id="stop9522" /></linearGradient><rect
       x="676.6927"
       y="29.501663"
       width="1725.2808"
       height="58.477051"
       id="rect6077" /><rect
       x="1797.4476"
       y="32.03938"
       width="1182.022"
       height="74.537186"
       id="rect6071" /><linearGradient
       id="linearGradient6061-2"><stop
         style="stop-color:#e8e2da;stop-opacity:0;"
         offset="0"
         id="stop6057" /><stop
         style="stop-color:#69190d;stop-opacity:0.22;"
         offset="0.11359598"
         id="stop2182" /><stop
         style="stop-color:#a52c16;stop-opacity:0.55000001;"
         offset="0.22"
         id="stop2186" /><stop
         style="stop-color:#eb7513;stop-opacity:0.88;"
         offset="0.33000001"
         id="stop6065" /><stop
         style="stop-color:#f2c62a;stop-opacity:1;"
         offset="0.5"
         id="stop2188" /><stop
         style="stop-color:#5e9a0e;stop-opacity:0.88;"
         offset="0.66000003"
         id="stop2184" /><stop
         style="stop-color:#0e4d0e;stop-opacity:0.55000001;"
         offset="0.76999998"
         id="stop2192" /><stop
         style="stop-color:#073720;stop-opacity:0.22;"
         offset="0.88"
         id="stop9504" /><stop
         style="stop-color:#000000;stop-opacity:0;"
         offset="1"
         id="stop6059" /></linearGradient><rect
       x="1144.2627"
       y="175.90457"
       width="600.52818"
       height="235.33107"
       id="rect22829" /><rect
       x="1152.7903"
       y="173.17295"
       width="642.74494"
       height="418.02634"
       id="rect22823" /><rect
       x="139.99581"
       y="174.04989"
       width="559.98791"
       height="395.49895"
       id="rect22817" /><rect
       x="145.0775"
       y="180.81232"
       width="697.10984"
       height="181.23741"
       id="rect22399" /><linearGradient
       id="linearGradient5077-1"><stop
         style="stop-color:#35031a;stop-opacity:1;"
         offset="0"
         id="stop6247" /><stop
         style="stop-color:#9f260a;stop-opacity:1;"
         offset="0.22"
         id="stop6249" /><stop
         style="stop-color:#d37a0d;stop-opacity:1;"
         offset="0.44"
         id="stop6251" /><stop
         style="stop-color:#076909;stop-opacity:1;"
         offset="0.76999998"
         id="stop6253" /><stop
         style="stop-color:#07466a;stop-opacity:1;"
         offset="0.88"
         id="stop6255" /><stop
         style="stop-color:#35031a;stop-opacity:1"
         offset="1"
         id="stop6257" /></linearGradient><linearGradient
       id="linearGradient5077"><stop
         style="stop-color:#35031a;stop-opacity:1"
         offset="0"
         id="stop6244" /><stop
         style="stop-color:#07466a;stop-opacity:1;"
         offset="0.14491931"
         id="stop6242" /><stop
         style="stop-color:#076909;stop-opacity:1;"
         offset="0.46923536"
         id="stop6240" /><stop
         style="stop-color:#d37a0d;stop-opacity:1;"
         offset="0.74955529"
         id="stop6238" /><stop
         style="stop-color:#9f260a;stop-opacity:1;"
         offset="0.8828578"
         id="stop6236" /><stop
         style="stop-color:#35031a;stop-opacity:1;"
         offset="1"
         id="stop6234" /></linearGradient><linearGradient
       id="linearGradient5978"><stop
         style="stop-color:#35031a;stop-opacity:1;"
         offset="0"
         id="stop5966" /><stop
         style="stop-color:#9f260a;stop-opacity:1;"
         offset="0.22"
         id="stop5968" /><stop
         style="stop-color:#d37a0d;stop-opacity:1;"
         offset="0.44"
         id="stop5970" /><stop
         style="stop-color:#076909;stop-opacity:1;"
         offset="0.76999998"
         id="stop5972" /><stop
         style="stop-color:#07466a;stop-opacity:1;"
         offset="0.88"
         id="stop5974" /><stop
         style="stop-opacity:0"
         offset="1"
         id="stop5976" /></linearGradient><linearGradient
       id="linearGradient5077-2"><stop
         style="stop-color:#35031a;stop-opacity:1;"
         offset="0"
         id="stop5065" /><stop
         style="stop-color:#9f260a;stop-opacity:1;"
         offset="0.33126885"
         id="stop5067" /><stop
         style="stop-color:#d37a0d;stop-opacity:1;"
         offset="0.33126885"
         id="stop5069" /><stop
         style="stop-color:#076909;stop-opacity:1;"
         offset="0.76338273"
         id="stop5071" /><stop
         style="stop-color:#07466a;stop-opacity:1;"
         offset="0.88"
         id="stop5073" /><stop
         style="stop-color:#35031a;stop-opacity:1"
         offset="1"
         id="stop5075" /></linearGradient><linearGradient
       id="linearGradient4914"><stop
         style="stop-color:#000000;stop-opacity:1;"
         offset="0"
         id="stop4918" /><stop
         style="stop-color:#000000;stop-opacity:0;"
         offset="1"
         id="stop4920" /></linearGradient><linearGradient
       id="linearGradient4914-1"
       inkscape:swatch="gradient"><stop
         style="stop-color:#000000;stop-opacity:1;"
         offset="0"
         id="stop4910" /><stop
         style="stop-color:#000000;stop-opacity:0;"
         offset="1"
         id="stop4912" /></linearGradient><linearGradient
       id="Rainbowie"
       inkscape:swatch="gradient"><stop
         style="stop-color:#35031a;stop-opacity:1;"
         offset="0.11"
         id="stop4760" /><stop
         style="stop-color:#6a1907;stop-opacity:1;"
         offset="0.22"
         id="stop4762" /><stop
         style="stop-color:#d3560d;stop-opacity:1;"
         offset="0.44"
         id="stop4764" /><stop
         style="stop-color:#d29e0e;stop-opacity:1;"
         offset="0.55000001"
         id="stop4766" /><stop
         style="stop-color:#07692e;stop-opacity:1;"
         offset="0.88"
         id="stop4768" /><stop
         style="stop-color:#076769;stop-opacity:1;"
         offset="0.99880683"
         id="stop4770" /></linearGradient><linearGradient
       id="Rainbowie-10"><stop
         style="stop-color:#35031a;stop-opacity:1;"
         offset="0.11"
         id="stop4760-6" /><stop
         style="stop-color:#6a1907;stop-opacity:1;"
         offset="0.22"
         id="stop4762-1" /><stop
         style="stop-color:#d3560d;stop-opacity:1;"
         offset="0.44"
         id="stop4764-5" /><stop
         style="stop-color:#d29e0e;stop-opacity:1;"
         offset="0.55000001"
         id="stop4766-9" /><stop
         style="stop-color:#07692e;stop-opacity:1;"
         offset="0.88"
         id="stop4768-4" /><stop
         style="stop-color:#076769;stop-opacity:1;"
         offset="0.99880683"
         id="stop4770-9" /></linearGradient><linearGradient
       xlink:href="#linearGradient5077-1"
       id="linearGradient5021"
       x1="150.16481"
       y1="468.45493"
       x2="240.06136"
       y2="600.76404"
       gradientUnits="userSpaceOnUse" /><linearGradient
       xlink:href="#linearGradient5077-1"
       id="linearGradient5055"
       x1="673.78912"
       y1="67.176918"
       x2="440.46896"
       y2="549.38538"
       gradientUnits="userSpaceOnUse" /><linearGradient
       xlink:href="#linearGradient5077-1"
       id="linearGradient5063"
       x1="272.62979"
       y1="233.06071"
       x2="602.46735"
       y2="389.97263"
       gradientUnits="userSpaceOnUse" /><linearGradient
       xlink:href="#linearGradient5077-1"
       id="linearGradient5085"
       x1="240.41537"
       y1="575.26831"
       x2="740.96198"
       y2="169.36858"
       gradientUnits="userSpaceOnUse" /><linearGradient
       xlink:href="#linearGradient5077-1"
       id="linearGradient5093"
       x1="203.44667"
       y1="318.94632"
       x2="563.63208"
       y2="842.80829"
       gradientUnits="userSpaceOnUse" /><rect
       x="676.6927"
       y="29.501663"
       width="264.4473"
       height="96.707763"
       id="rect10974" /><rect
       x="676.6927"
       y="29.501663"
       width="264.4473"
       height="96.707763"
       id="rect11029" /><rect
       x="676.6927"
       y="29.501663"
       width="264.4473"
       height="96.707763"
       id="rect11057" /><rect
       x="676.6927"
       y="29.501663"
       width="264.4473"
       height="96.707763"
       id="rect11068" /><rect
       x="676.6927"
       y="29.501663"
       width="264.4473"
       height="96.707763"
       id="rect11085" /><linearGradient
       id="glow-master-1"><stop
         offset="0.0"
         style="stop-color:#000000;stop-opacity:0.0;"
         id="stop101084" /><stop
         offset="0.11"
         style="stop-color:#442204;stop-opacity:0.22;"
         id="stop101086" /><stop
         offset="0.22"
         style="stop-color:#69190d;stop-opacity:0.44;"
         id="stop101088" /><stop
         offset="0.33"
         style="stop-color:#a52c16;stop-opacity:0.659;"
         id="stop101090" /><stop
         offset="0.44"
         style="stop-color:#eb7513;stop-opacity:0.878;"
         id="stop101092" /><stop
         offset="0.55"
         style="stop-color:#f2c62a;stop-opacity:1.0;"
         id="stop101094" /><stop
         offset="0.66"
         style="stop-color:#5e9a0e;stop-opacity:0.878;"
         id="stop101096" /><stop
         offset="0.77"
         style="stop-color:#0e4d0e;stop-opacity:0.659;"
         id="stop101098" /><stop
         offset="0.88"
         style="stop-color:#073720;stop-opacity:0.44;"
         id="stop101100" /><stop
         offset="0.94"
         style="stop-color:#442204;stop-opacity:0.22;"
         id="stop101102" /><stop
         offset="1.0"
         style="stop-color:#000000;stop-opacity:0.0;"
         id="stop101104" /></linearGradient><filter
       id="glow-filter-statics"
       x="-0.034142926"
       y="-0.034904367"
       width="1.0682865"
       height="1.0698093"><feGaussianBlur
         stdDeviation="3"
         id="feGaussianBlur101107" /></filter><filter
       id="glow-filter-geometrics"
       x="-0.089845812"
       y="-0.055204272"
       width="1.1796916"
       height="1.1104085"><feGaussianBlur
         stdDeviation="3"
         id="feGaussianBlur101110" /></filter><filter
       id="glow-filter-organics"
       x="-0.059221462"
       y="-0.041409117"
       width="1.1184429"
       height="1.0828182"><feGaussianBlur
         stdDeviation="3"
         id="feGaussianBlur101113" /></filter><linearGradient
       xlink:href="#glow-master"
       id="glow-applied-1"
       gradientUnits="userSpaceOnUse"
       x1="281.86696993774086"
       y1="186.9452441911846"
       x2="-43.61911993774085"
       y2="68.47799580881538" /><linearGradient
       xlink:href="#glow-master"
       id="glow-applied-2"
       gradientUnits="userSpaceOnUse"
       x1="216.68970353643374"
       y1="110.60927970058387"
       x2="543.0650597468217"
       y2="226.60415243322882" /><linearGradient
       xlink:href="#glow-master"
       id="glow-applied-3"
       gradientUnits="userSpaceOnUse"
       x1="294.6873211984884"
       y1="136.03230400704985"
       x2="610.262673451882"
       y2="-6.7538321962478705" /><linearGradient
       xlink:href="#glow-master"
       id="glow-applied-9"
       gradientUnits="userSpaceOnUse"
       x1="184.00111602792597"
       y1="-32.86506259979724"
       x2="54.246733972074026"
       y2="288.28830259979725" /><linearGradient
       xlink:href="#glow-master"
       id="glow-applied-10"
       gradientUnits="userSpaceOnUse"
       x1="542.801336027926"
       y1="93.05764740020275"
       x2="413.04695397207405"
       y2="414.21101259979724" /><linearGradient
       xlink:href="#glow-master"
       id="glow-applied-18"
       gradientUnits="userSpaceOnUse"
       x1="119.12392499999999"
       y1="-45.47591104779231"
       x2="119.12392500000001"
       y2="300.8991510477923" /><linearGradient
       xlink:href="#glow-master"
       id="glow-applied-19"
       gradientUnits="userSpaceOnUse"
       x1="477.924145"
       y1="80.44679895220769"
       x2="477.92414500000007"
       y2="426.8218610477923" /><linearGradient
       xlink:href="#glow-master"
       id="glow-applied-20"
       gradientUnits="userSpaceOnUse"
       x1="459.0832310477923"
       y1="187.789775"
       x2="112.7081689522077"
       y2="187.78977500000002" /><linearGradient
       xlink:href="#glow-master"
       id="glow-applied-29"
       gradientUnits="userSpaceOnUse"
       x1="461.0832310477923"
       y1="188.931035"
       x2="114.7081689522077"
       y2="188.93103499999998" /><filter
       id="glow-filter-statics-2"
       x="-0.01849793"
       y="-0.036482185"
       width="1.0369962"
       height="1.072965"><feGaussianBlur
         stdDeviation="3"
         id="feGaussianBlur104238" /></filter><filter
       id="glow-filter-geometrics-4"
       x="-0.059689481"
       y="-0.21876775"
       width="1.119379"
       height="1.4375355"><feGaussianBlur
         stdDeviation="3"
         id="feGaussianBlur104241" /></filter><filter
       id="glow-filter-organics-9"
       x="-0.013237407"
       y="-0.036726714"
       width="1.0264748"
       height="1.0734539"><feGaussianBlur
         stdDeviation="3"
         id="feGaussianBlur104244" /></filter><linearGradient
       xlink:href="#glow-master"
       id="glow-applied-1-9"
       gradientUnits="userSpaceOnUse"
       x1="497.98253391054874"
       y1="-219.789486656566"
       x2="229.6132260894513"
       y2="517.5491266565659" /><linearGradient
       xlink:href="#glow-master"
       id="glow-applied-2-9"
       gradientUnits="userSpaceOnUse"
       x1="525.0361119105487"
       y1="-163.750041656566"
       x2="256.6668040894513"
       y2="573.5885716565659" /><linearGradient
       xlink:href="#glow-master"
       id="glow-applied-3-4"
       gradientUnits="userSpaceOnUse"
       x1="669.3743419105488"
       y1="-54.187561656566004"
       x2="401.0050340894513"
       y2="683.1510516565659" /><linearGradient
       xlink:href="#glow-master"
       id="glow-applied-9-9"
       gradientUnits="userSpaceOnUse"
       x1="0.0361336106153658"
       y1="1.9105345030914407"
       x2="727.5596263893847"
       y2="295.8491054969086" /><linearGradient
       xlink:href="#glow-master"
       id="glow-applied-10-8"
       gradientUnits="userSpaceOnUse"
       x1="171.42794361061536"
       y1="167.51246450309145"
       x2="898.9514363893846"
       y2="461.4510354969086" /><linearGradient
       xlink:href="#glow-master"
       id="glow-applied-11"
       gradientUnits="userSpaceOnUse"
       x1="-189.0365228558783"
       y1="70.03425163293498"
       x2="389.54942411065934"
       y2="600.0612490922551" /><linearGradient
       xlink:href="#glow-master"
       id="glow-applied-16"
       gradientUnits="userSpaceOnUse"
       x1="-28.53180153802333"
       y1="148.87982"
       x2="756.1275615380234"
       y2="148.87982" /><linearGradient
       xlink:href="#glow-master"
       id="glow-applied-17"
       gradientUnits="userSpaceOnUse"
       x1="151.88952608437597"
       y1="326.7333311804086"
       x2="935.0746502117377"
       y2="374.8101177672469" /><linearGradient
       xlink:href="#glow-master"
       id="glow-applied-18-1"
       gradientUnits="userSpaceOnUse"
       x1="309.46558311667775"
       y1="359.9430179541543"
       x2="494.4496199431885"
       y2="-402.5995855653313" /><linearGradient
       xlink:href="#glow-master"
       id="glow-applied-27"
       gradientUnits="userSpaceOnUse"
       x1="325.0228860899596"
       y1="94.62593890469084"
       x2="622.4539743849498"
       y2="1139.1472967994782" /><filter
       id="glow-filter-statics-4"
       x="-0.016460317"
       y="-0.0024584806"
       width="1.0329209"
       height="1.004917"><feGaussianBlur
         stdDeviation="3"
         id="feGaussianBlur104664" /></filter><filter
       id="glow-filter-geometrics-0"
       x="-0.005871041"
       y="-0.0030466636"
       width="1.0117498"
       height="1.0060893"><feGaussianBlur
         stdDeviation="3"
         id="feGaussianBlur104667" /></filter><filter
       id="glow-filter-organics-3"
       x="-0.011041646"
       y="-0.0028657338"
       width="1.0220833"
       height="1.0057315"><feGaussianBlur
         stdDeviation="3"
         id="feGaussianBlur104670" /></filter><linearGradient
       xlink:href="#glow-master"
       id="glow-applied-1-5"
       gradientUnits="userSpaceOnUse"
       x1="470.4503345058871"
       y1="-130.77032070338703"
       x2="184.36100549411285"
       y2="655.253650703387" /><linearGradient
       xlink:href="#glow-master"
       id="glow-applied-3-5"
       gradientUnits="userSpaceOnUse"
       x1="614.788564505887"
       y1="-21.207840703387035"
       x2="328.6992354941128"
       y2="764.816130703387" /><linearGradient
       xlink:href="#glow-master"
       id="glow-applied-10-9"
       gradientUnits="userSpaceOnUse"
       x1="-60.37471662329148"
       y1="105.56821893969365"
       x2="715.1860566232915"
       y2="418.91511106030634" /><linearGradient
       xlink:href="#glow-master"
       id="glow-applied-11-9"
       gradientUnits="userSpaceOnUse"
       x1="83.96351337670853"
       y1="215.13069893969364"
       x2="859.5242866232916"
       y2="528.4775910603064" /><linearGradient
       xlink:href="#glow-master"
       id="glow-applied-12"
       gradientUnits="userSpaceOnUse"
       x1="-287.63631780422924"
       y1="84.02007456704607"
       x2="329.1527878026012"
       y2="649.0439563678165" /><linearGradient
       xlink:href="#glow-master"
       id="glow-applied-17-0"
       gradientUnits="userSpaceOnUse"
       x1="-90.82894950216547"
       y1="262.241665"
       x2="745.6402895021654"
       y2="262.241665" /><linearGradient
       xlink:href="#glow-master"
       id="glow-applied-18-2"
       gradientUnits="userSpaceOnUse"
       x1="59.194478466792106"
       y1="378.4734319135356"
       x2="894.0921367450829"
       y2="429.7246563077939" /><linearGradient
       xlink:href="#glow-master"
       id="glow-applied-19-4"
       gradientUnits="userSpaceOnUse"
       x1="160.50477587567255"
       y1="554.7440391723701"
       x2="1091.6010497661186"
       y2="-133.33447991388354" /><linearGradient
       xlink:href="#glow-master"
       id="glow-applied-24"
       gradientUnits="userSpaceOnUse"
       x1="344.1077662208541"
       y1="460.28906434601265"
       x2="541.3060203850937"
       y2="-352.60307877942085" /><linearGradient
       xlink:href="#glow-master"
       id="glow-applied-33"
       gradientUnits="userSpaceOnUse"
       x1="34.997734537319786"
       y1="332.05097097865166"
       x2="836.8867671061198"
       y2="570.0735901692622" /><linearGradient
       xlink:href="#glow-master"
       id="glow-applied-42"
       gradientUnits="userSpaceOnUse"
       x1="85.72171555023576"
       y1="-25.25885190711773"
       x2="1166.8609192636366"
       y2="388.9033626583154" /><linearGradient
       inkscape:collect="always"
       xlink:href="#glow-master"
       id="linearGradient105157"
       gradientUnits="userSpaceOnUse"
       x1="59.194478466792106"
       y1="378.4734319135356"
       x2="894.0921367450829"
       y2="429.7246563077939" /><filter
       id="glow-filter-statics-9"
       x="-0.086714622"
       y="-0.086962945"
       width="1.1734307"
       height="1.1739274"><feGaussianBlur
         stdDeviation="3"
         id="feGaussianBlur8548" /></filter><filter
       id="glow-filter-geometrics-7"
       x="-0.17931206"
       y="-0.17931206"
       width="1.3586241"
       height="1.3586241"><feGaussianBlur
         stdDeviation="3"
         id="feGaussianBlur8551" /></filter><filter
       id="glow-filter-organics-36"
       x="-0.044241443"
       y="-0.1413349"
       width="1.0884829"
       height="1.2827588"><feGaussianBlur
         stdDeviation="3"
         id="feGaussianBlur8554" /></filter><linearGradient
       xlink:href="#glow-master"
       id="glow-applied-1-1"
       gradientUnits="userSpaceOnUse"
       x1="348.56546124136065"
       y1="396.53029779003344"
       x2="-214.56541124136066"
       y2="191.56742220996654" /><linearGradient
       xlink:href="#glow-master"
       id="glow-applied-2-2"
       gradientUnits="userSpaceOnUse"
       x1="661.9679412413607"
       y1="0.537677790033456"
       x2="98.83706875863936"
       y2="-204.42519779003345" /><linearGradient
       xlink:href="#glow-master"
       id="glow-applied-3-9"
       gradientUnits="userSpaceOnUse"
       x1="539.1389798441473"
       y1="-252.08089224649976"
       x2="-8.703290071995383"
       y2="-9.192013945476845" /><linearGradient
       xlink:href="#glow-master"
       id="glow-applied-6"
       gradientUnits="userSpaceOnUse"
       x1="179.2455258807312"
       y1="16.23149641497497"
       x2="-45.24547588073122"
       y2="571.866223585025" /><linearGradient
       xlink:href="#glow-master"
       id="glow-applied-7"
       gradientUnits="userSpaceOnUse"
       x1="594.0398258807312"
       y1="705.6453535850251"
       x2="369.54882411926883"
       y2="150.01062641497504" /><linearGradient
       xlink:href="#glow-master"
       id="glow-applied-9-3"
       gradientUnits="userSpaceOnUse"
       x1="67.00002499999998"
       y1="-5.586818745539631"
       x2="67.00002500000001"
       y2="593.6845387455396" /><linearGradient
       xlink:href="#glow-master"
       id="glow-applied-10-1"
       gradientUnits="userSpaceOnUse"
       x1="483.794325"
       y1="-406.4309387455396"
       x2="483.794325"
       y2="192.84041874553964" /><linearGradient
       xlink:href="#glow-master"
       id="glow-applied-11-94"
       gradientUnits="userSpaceOnUse"
       x1="605.2132568483755"
       y1="-122.4024319382367"
       x2="186.90754400893331"
       y2="306.72050047034986" /><linearGradient
       xlink:href="#glow-master"
       id="glow-applied-20-3"
       gradientUnits="userSpaceOnUse"
       x1="741.7415670837189"
       y1="337.74670409934976"
       x2="151.0166277910131"
       y2="236.89926483176066" /><filter
       id="glow-filter-statics-92"
       x="-0.056554132"
       y="-0.057198682"
       width="1.1131093"
       height="1.1143983"><feGaussianBlur
         stdDeviation="3"
         id="feGaussianBlur8879" /></filter><filter
       id="glow-filter-geometrics-06"
       x="-0.060037641"
       y="-0.078908813"
       width="1.1200753"
       height="1.1578176"><feGaussianBlur
         stdDeviation="3"
         id="feGaussianBlur8882" /></filter><filter
       id="glow-filter-organics-8"
       x="-0.015638297"
       y="-0.037628371"
       width="1.0312766"
       height="1.0752567"><feGaussianBlur
         stdDeviation="3"
         id="feGaussianBlur8885" /></filter><linearGradient
       xlink:href="#glow-master"
       id="glow-applied-1-92"
       gradientUnits="userSpaceOnUse"
       x1="506.19007541281235"
       y1="514.5720954523736"
       x2="-242.93695541281235"
       y2="241.9121545476264" /><linearGradient
       xlink:href="#glow-master"
       id="glow-applied-2-6"
       gradientUnits="userSpaceOnUse"
       x1="755.3964054128123"
       y1="-49.80705454762642"
       x2="6.269374587187656"
       y2="-322.46699545237357" /><linearGradient
       xlink:href="#glow-master"
       id="glow-applied-3-6"
       gradientUnits="userSpaceOnUse"
       x1="571.5315480699163"
       y1="-353.14617567916895"
       x2="-157.25721681109815"
       y2="-30.033675346851055" /><linearGradient
       xlink:href="#glow-master"
       id="glow-applied-7-9"
       gradientUnits="userSpaceOnUse"
       x1="280.9455600889132"
       y1="8.664630914664258"
       x2="-17.692440088913173"
       y2="747.8196190853357" /><linearGradient
       xlink:href="#glow-master"
       id="glow-applied-8"
       gradientUnits="userSpaceOnUse"
       x1="633.5437100889133"
       y1="-451.42330908533575"
       x2="334.9057099110868"
       y2="287.7316790853357" /><linearGradient
       xlink:href="#glow-master"
       id="glow-applied-14"
       gradientUnits="userSpaceOnUse"
       x1="131.62655999999998"
       y1="-20.36004248275367"
       x2="131.62656000000004"
       y2="776.8442924827536" /><linearGradient
       xlink:href="#glow-master"
       id="glow-applied-15"
       gradientUnits="userSpaceOnUse"
       x1="484.22470999999996"
       y1="-480.4479824827537"
       x2="484.22471"
       y2="316.75635248275364" /><linearGradient
       xlink:href="#glow-master"
       id="glow-applied-16-7"
       gradientUnits="userSpaceOnUse"
       x1="959.8564417244967"
       y1="1773.1433326206866"
       x2="215.43472723394848"
       y2="-176.82121376088594" /><linearGradient
       xlink:href="#glow-master"
       id="glow-applied-21"
       gradientUnits="userSpaceOnUse"
       x1="600.3998088378382"
       y1="-248.87855484611296"
       x2="109.49201041038214"
       y2="379.24904774026055" /><linearGradient
       xlink:href="#glow-master"
       id="glow-applied-30"
       gradientUnits="userSpaceOnUse"
       x1="841.1618416786486"
       y1="186.3992429603255"
       x2="50.4394990271079"
       y2="287.85329973780057" /><linearGradient
       xlink:href="#glow-master"
       id="glow-applied-41"
       gradientUnits="userSpaceOnUse"
       x1="970.6344868261981"
       y1="1769.0286881629945"
       x2="226.21277233565024"
       y2="-180.935858218578" /><linearGradient
       xlink:href="#glow-master"
       id="glow-applied-46"
       gradientUnits="userSpaceOnUse"
       x1="817.7407935822188"
       y1="422.4336317704509"
       x2="47.867161837514686"
       y2="215.48111829932475" /><linearGradient
       xlink:href="#glow-master"
       id="glow-applied-55"
       gradientUnits="userSpaceOnUse"
       x1="852.6108901877645"
       y1="288.04871151810613"
       x2="55.45503100637325"
       y2="279.2573600534774" /></defs><g
     inkscape:label="Glow"
     transform="matrix(0,-0.55,-0.55,0,1893.6845,1059.97)"
     id="g104801"><path
       id="path46475-8"
       style="fill:none;stroke:url(#glow-applied-3-5);filter:url(#glow-filter-statics-4);opacity:1;stroke-opacity:1;fill-opacity:1;stroke-width:2;stroke-linecap:round;stroke-linejoin:round;stroke-dasharray:none;paint-order:stroke markers fill"
       inkscape:label="statics"
       transform="translate(-144.33818,-109.56255)"
       d="m 643.49685,243.85322 c 0,0 -12.46474,8.98253 -45.14033,-17.78679 -39.88945,-32.67925 -70.15715,-57.26738 -93.83993,-43.01901 M 175.49318,374.22078 c 0,0 11.16216,-5.85898 31.79574,29.93676 19.56465,33.94132 -3.91531,222.02831 33.86555,224.88831 m 362.41631,-398.37198 -455.17911,-0.41692 84.99125,-85.97439 -0.0665,479.90821 M 573.81047,206.38495 145.33808,206.23002 208.8779,145.29107 208.41974,404.5786 M 547.81047,188.38495 147.33808,188.23002 190.8779,145.29107 190.41974,380.5786 M 283.63661,279.32149 177.81132,175.20839 m 56.09543,153.2202 102.28538,-97.34061 M 612.67558,3412.8605 c 0,0 -2.06784,14.6607 -53.33547,16.0636 -26.12958,0.7151 -87.86598,9.9863 -88.63231,20.1574 m -272.21608,-75.4021 c 0,0 6.62414,1.5558 13.79574,-19.9368 9.19035,-27.5425 -11.91531,-96.0283 25.86555,-98.8883 m 370.41631,162.372 -439.17911,0.4169 60.99125,61.9744 -0.0665,-219.9082 m 250.49405,181.8058 -304.47239,0.1549 29.53982,28.939 -0.45816,-101.2875 m 61.21687,13.2571 -67.2162,65.3198 m 31.48634,-100.4269 70.28538,69.3406 M 168.8273,2356.7121 l 89.66165,91.8499 0.25473,-180.099 -89.90424,88.2675 m 26.61302,-25.5156 89.10238,90.0722 -0.0689,-129.1484 -89.01037,90.5864 m -26.05712,-26.0272 88.19481,0.3012 m -22.44531,67.1469 -0.0418,-131.8933 m -72.44639,-978.6187 88.20723,86.1443 0.37905,-174.9091 -88.56823,88.7921 m 3.52121,-0.048 48.79062,0.4481 m 1.17491,52.0448 -0.0622,-105.8368" /><path
       id="circle46487-0"
       style="display:inline;opacity:1;fill:none;fill-opacity:1;stroke:url(#glow-applied-12);stroke-width:4;stroke-linecap:round;stroke-linejoin:round;stroke-dasharray:none;stroke-opacity:1;paint-order:stroke markers fill;filter:url(#glow-filter-geometrics-0)"
       inkscape:label="geometrics"
       transform="rotate(-20.49196,-114.40048,-533.84432)"
       d="m 239.95491,275.2749 a 15.568295,15.568295 0 0 1 -15.5683,15.5683 15.568295,15.568295 0 0 1 -15.56829,-15.5683 15.568295,15.568295 0 0 1 15.56829,-15.56829 15.568295,15.568295 0 0 1 15.5683,15.56829 z m -28.04737,-30.47734 a 10.044064,10.044064 0 0 1 -10.04406,10.04407 10.044064,10.044064 0 0 1 -10.04406,-10.04407 10.044064,10.044064 0 0 1 10.04406,-10.04406 10.044064,10.044064 0 0 1 10.04406,10.04406 z m 42.87518,56.39229 a 7.6450386,7.6450386 0 0 1 -7.64504,7.64504 7.6450386,7.6450386 0 0 1 -7.64504,-7.64504 7.6450386,7.6450386 0 0 1 7.64504,-7.64504 7.6450386,7.6450386 0 0 1 7.64504,7.64504 z m -64.82383,-74.59801 a 6.5097775,6.5097775 0 0 1 -6.50978,6.50978 6.5097775,6.5097775 0 0 1 -6.50978,-6.50978 6.5097775,6.5097775 0 0 1 6.50978,-6.50977 6.5097775,6.5097775 0 0 1 6.50978,6.50977 z M 172.3504,212.36072 a 4.1887832,4.1887832 0 0 1 -4.18878,4.18878 4.1887832,4.1887832 0 0 1 -4.18878,-4.18878 4.1887832,4.1887832 0 0 1 4.18878,-4.18879 4.1887832,4.1887832 0 0 1 4.18878,4.18879 z m -1455.202,2923.56188 a 15.568295,15.568295 0 0 0 -1.542,-21.9628 15.568295,15.568295 0 0 0 -21.9629,1.542 15.568295,15.568295 0 0 0 1.542,21.9628 15.568295,15.568295 0 0 0 21.9629,-1.542 z m 9.895,27.9633 a 10.044064,10.044064 0 0 0 -0.9948,-14.1696 10.044064,10.044064 0 0 0 -14.1696,0.9949 10.044064,10.044064 0 0 0 0.9949,14.1695 10.044064,10.044064 0 0 0 14.1695,-0.9948 z m 19.2978,22.357 a 7.6450387,7.6450387 0 0 0 -0.7572,-10.7852 7.6450387,7.6450387 0 0 0 -10.7852,0.7572 7.6450387,7.6450387 0 0 0 0.7572,10.7852 7.6450387,7.6450387 0 0 0 10.7852,-0.7572 z m 25.2765,21.3854 a 6.5097776,6.5097776 0 0 0 -0.6448,-9.1836 6.5097776,6.5097776 0 0 0 -9.1836,0.6447 6.5097776,6.5097776 0 0 0 0.6448,9.1837 6.5097776,6.5097776 0 0 0 9.1836,-0.6448 z m 29.8303,18.7988 a 4.1887832,4.1887832 0 0 0 -0.4148,-5.9093 4.1887832,4.1887832 0 0 0 -5.9093,0.4149 4.1887832,4.1887832 0 0 0 0.4149,5.9093 4.1887832,4.1887832 0 0 0 5.9092,-0.4149 z m 366.43518,-1083.6166 a 23.83918,23.83918 0 0 0 -30.67619,13.9851 23.83918,23.83918 0 0 0 13.98514,30.6762 23.83918,23.83918 0 0 0 30.6762,-13.9851 23.83918,23.83918 0 0 0 -13.98515,-30.6762 z m 39.2459,26.6001 a 13.093215,13.093215 0 0 0 -16.84831,7.6811 13.093215,13.093215 0 0 0 7.68107,16.8483 13.093215,13.093215 0 0 0 16.84831,-7.6811 13.093215,13.093215 0 0 0 -7.68107,-16.8483 z m -51.90935,46.4647 a 9.9681935,9.9681935 0 0 0 -12.82705,5.8478 9.9681935,9.9681935 0 0 0 5.8478,12.827 9.9681935,9.9681935 0 0 0 12.82704,-5.8478 9.9681935,9.9681935 0 0 0 -5.84779,-12.827 z m 43.74198,-108.5604 a 7.9280368,7.9280368 0 0 0 -10.20178,4.651 7.9280368,7.9280368 0 0 0 4.65095,10.2017 7.9280368,7.9280368 0 0 0 10.20177,-4.6509 7.9280368,7.9280368 0 0 0 -4.65094,-10.2018 z m 33.1203,79.8555 a 4.6857985,4.6857985 0 0 0 -6.02968,2.7489 4.6857985,4.6857985 0 0 0 2.7489,6.0297 4.6857985,4.6857985 0 0 0 6.02968,-2.7489 4.6857985,4.6857985 0 0 0 -2.7489,-6.0297 z m 231.1859,-1060.5976 a 34.113697,34.113697 0 0 1 20.01264,43.8974 34.113697,34.113697 0 0 1 -43.89741,20.0127 34.113697,34.113697 0 0 1 -20.01264,-43.8974 34.113697,34.113697 0 0 1 43.89741,-20.0127 z" /><path
       id="path46575-4"
       style="display:inline;fill:none;stroke:url(#linearGradient105157);filter:url(#glow-filter-organics-3);opacity:1;stroke-opacity:1;fill-opacity:1;stroke-width:5;stroke-linecap:round;stroke-linejoin:round;stroke-dasharray:none;paint-order:stroke markers fill"
       inkscape:label="organics"
       transform="rotate(-3.5127647,-1911.0493,2766.5841)"
       d="m 250.24818,246.41148 c 0,0 50.89834,-72.71943 174.29366,-53.65869 146.12558,22.57186 162.08038,119.42858 250.34218,109.73849 50.97093,-5.596 58.52676,-38.67853 58.52676,-38.67853 m -15.73324,33.8604 c 0,0 21.86395,-9.92923 46.54492,-6.37134 16.0253,2.31013 20.98038,10.96193 20.98038,10.96193 m -36.39818,-66.78753 c 0,0 -3.22538,1.64432 -2.20796,5.96368 1.29479,5.4967 6.08622,9.15978 7.14879,15.72623 1.46626,9.06133 -14.1366,22.72137 -14.1366,22.72137 0,0 16.60932,-8.2568 32.93386,-3.17206 11.71317,3.6484 13.16778,8.12373 19.42293,9.10645 10.25413,1.61101 12.31212,-5.50647 12.31212,-5.50647 m -42.22774,-45.69743 c 0,0 -1.85108,1.91465 -0.93357,6.32563 0.74767,3.59426 4.74107,6.40895 5.30884,11.50153 0.69309,6.21648 -5.47474,12.74035 -5.47474,12.74035 0,0 9.98085,-4.23855 20.57211,-4.02052 8.1643,0.16811 12.0975,3.29412 16.53156,3.75457 7.26881,0.75481 9.25009,-2.61754 9.25009,-2.61754 m -33.21611,-31.76688 c 0,0 -2.25486,1.64911 -1.2325,5.07394 1.03275,3.45971 2.91311,4.24344 3.71796,7.38713 1.16712,4.55879 -1.99188,9.897 -1.99188,9.897 0,0 7.10266,-6.80242 15.27728,-7.49177 6.30138,-0.53146 9.32361,1.7096 12.76513,1.43811 6.43155,-0.50726 7.11273,-3.8627 7.11273,-3.8627 m -26.89074,-19.2832 c 0,0 -1.72838,1.1513 -1.43181,3.65755 0.31443,2.65658 2.14769,3.22065 2.72713,5.41172 0.96536,3.6501 -0.51846,5.94165 -0.51846,5.94165 0,0 5.09426,-5.2034 10.56628,-6.34859 4.21807,-0.88275 6.40361,0.37458 9.86337,0.21789 5.60783,-0.25396 4.82605,-4.56857 4.82605,-4.56857 m -18.75763,-14.55386 c 0,0 -1.27212,0.41623 -0.70691,2.41785 0.32902,1.16507 1.42896,0.9575 2.00287,3.9358 0.547,2.84002 -0.5075,5.08258 -0.5075,5.08258 0,0 3.56024,-4.47289 6.02629,-5.44317 2.25615,-0.88765 3.8483,-0.36523 5.95974,-0.75614 5.51965,-1.02231 4.82602,-4.56856 4.82602,-4.56856 m -10.36393,-1.55059 c 0,0 7.59931,-7.37909 3.97362,-19.03523 -3.08244,-9.90982 1.1547,-14.40265 1.1547,-14.40265 m -9.26232,28.88795 c 0,0 3.24304,-3.45366 2.95674,-8.353 -0.28631,-4.89936 -3.77415,-7.30359 -3.77415,-7.30359 m 13.23509,-1.59921 c 0,0 0.1091,-2.88489 4.24523,-6.35985 4.12534,-3.46599 6.4511,-3.09406 6.4511,-3.09406 m -566.66232,66.48808 c -1.26329,0.13377 -1.53738,-19.53542 23.50762,-40.20216 24.71114,-20.39127 54.55654,-25.47376 65.14189,-36.42008 7.0616,-7.3024 9.22245,-18.05767 1.78637,-22.46468 -5.6849,-3.36917 -12.22069,-0.79259 -12.22069,-0.79259 m 36.99295,26.76307 c 0,0 -0.41502,-3.03377 -6.54572,-4.53532 -7.5912,-1.85926 -12.95221,1.30415 -12.95221,1.30415 m -2.11294,-28.78276 c 0,0 4.71741,-2.78886 7.96973,5.95274 3.13526,8.42694 -0.77466,13.65549 -0.77466,13.65549 m 22.41346,8.35784 c 0,0 0.73799,-4.03552 -4.39732,-7.58347 -3.5138,-2.42767 -11.2536,-1.43562 -11.2536,-1.43562 m 21.25182,-17.23216 a 8.550589,8.550589 0 0 1 -7.48623,9.49637 8.550589,8.550589 0 0 1 -9.49639,-7.48624 8.550589,8.550589 0 0 1 7.48625,-9.49637 8.550589,8.550589 0 0 1 9.49637,7.48624 z m 23.0079,2.97209 a 5.1774436,5.1774436 0 0 1 -4.53298,5.75013 5.1774436,5.1774436 0 0 1 -5.75012,-4.53298 5.1774436,5.1774436 0 0 1 4.53297,-5.75012 5.1774436,5.1774436 0 0 1 5.75013,4.53297 z m 19.88001,8.32102 a 3.060084,3.060084 0 0 1 -2.67919,3.39856 3.060084,3.060084 0 0 1 -3.39856,-2.67918 3.060084,3.060084 0 0 1 2.67918,-3.39856 3.060084,3.060084 0 0 1 3.39857,2.67918 z m -170.85607,90.15762 c 0,0 15.50216,-27.71843 63.33246,-26.58762 57.84925,1.36768 95.35997,86.42469 172.76801,86.20327 53.54142,-0.15314 67.72375,-21.08083 67.72375,-21.08083 m -44.92982,28.33218 c 0,0 6.7412,-3.01069 14.73363,3.82817 7.99233,6.83872 8.34978,13.12402 8.34978,13.12402 m -8.72238,-20.15851 c 0.62372,0.15013 5.61252,-1.41295 11.6809,1.96553 8.21921,4.57595 8.73812,10.24241 8.73812,10.24241 m -7.38199,-16.58387 c 0.62372,0.15012 2.09204,-0.64063 7.63152,1.26051 7.27149,2.49563 8.63686,7.58872 8.63686,7.58872 m -6.03228,-13.99622 c 0.62373,0.1501 4.4465,-0.92767 8.19944,0.18557 5.3329,1.58201 5.76275,4.08576 5.76275,4.08576 m -5.22698,-10.28498 c 0.6237,0.15011 2.31175,-0.9694 5.10073,-0.55475 3.47019,0.51601 4.56797,2.57977 4.56797,2.57977 m -3.83814,-8.44704 c 0.6237,0.15011 2.30439,-0.41765 4.10601,-0.29437 2.00244,0.13703 3.14762,1.50371 3.14762,1.50371 m -4.20111,-8.08587 c 0.49277,0.40988 1.84786,-0.42317 3.36784,-1.01711 1.5929,-0.6221 2.89716,0.39347 2.89716,0.39347 M 253.9094,249.41351 c 0,0 44.74422,5.94215 41.19795,53.65422 -4.28912,57.70623 -108.97748,101.81185 -112.66785,179.13219 -2.55256,53.48076 17.63174,68.70247 17.63174,68.70247 m -26.02563,-46.30408 c 0,0 2.6662,6.88473 -4.56778,14.52137 -7.23384,7.63655 -13.52918,7.67594 -13.52918,7.67594 m 20.57351,-7.6926 c -0.18146,0.61533 1.12753,5.67674 -2.55327,11.56666 -4.98543,7.97748 -10.67088,8.20939 -10.67088,8.20939 m 16.93571,-6.53456 c -0.18145,0.61534 0.5341,2.12174 -1.64453,7.55808 -2.85988,7.13609 -8.01545,8.24236 -8.01545,8.24236 m 14.28316,-5.31733 c -0.18143,0.61535 0.7018,4.48769 -0.59966,8.17958 -1.84947,5.24615 -4.37174,5.54893 -4.37174,5.54893 m 10.53597,-4.70059 c -0.18144,0.61532 0.85134,2.35779 0.29629,5.12224 -0.6907,3.43969 -2.8073,4.43179 -2.8073,4.43179 m 8.6302,-3.40641 c -0.18144,0.61532 0.30067,2.32256 0.0865,4.11565 -0.23804,1.99295 -1.66084,3.06761 -1.66084,3.06761 m 8.28782,-3.78716 c -0.43426,0.47144 0.32926,1.86688 0.84563,3.41494 0.54082,1.6223 -0.53936,2.87358 -0.53936,2.87358 m 47.71605,-316.83149 c 0,0 17.86989,21.56671 3.93353,44.48558 -17.26821,28.39819 -54.20599,34.88387 -81.20504,8.49142 -23.73386,-23.2006 -3.70001,-55.91772 19.20732,-56.35572 17.58763,-0.3363 23.83693,10.30518 23.83693,10.30518 m -16.43579,-3.01452 c 0,0 10.21047,0.91002 17.62217,15.07559 5.49918,10.51028 -1.22994,15.57416 -1.22994,15.57416 m -4.86573,-14.15426 c 0,0 3.08157,5.84539 -1.78649,11.88848 -4.86807,6.04308 -13.90094,3.40969 -13.90094,3.40969 m 8.47134,-8.4817 c 0,0 -4.12887,1.85286 -10.07068,-0.50271 -6.3524,-2.51833 -6.14878,-9.53398 -6.14878,-9.53398 M 51.716602,3431.5631 c 0,0 26.045547,45.5772 150.614408,54.0811 122.63638,8.372 168.85071,-46.8718 242.73143,-44.707 81.28724,2.3819 109.48538,36.4796 109.48538,36.4796 m -40.78271,-34.7597 c 0,0 42.33669,10.7003 64.35792,-0.999 14.29832,-7.5964 16.0336,-17.4145 16.0336,-17.4145 m -26.30356,60.9316 c 0,0 -4.16709,-0.5614 -4.60072,-3.7266 -0.55178,-4.0279 3.4324,-7.4119 2.23687,-12.1375 -1.64982,-6.5211 -23.86975,-13.1786 -23.86975,-13.1786 0,0 21.38252,2.7455 37.62895,-3.675 11.65711,-4.6068 11.65142,-7.9576 18.22554,-9.7507 10.77701,-2.9394 15.6285,1.611 15.6285,1.611 m -13.96524,40.0917 c 0,0 -2.74236,-0.993 -3.31977,-4.2037 -0.47045,-2.6162 2.93626,-5.272 1.72512,-8.8912 -1.47838,-4.418 -10.6681,-7.8263 -10.6681,-7.8263 0,0 12.58789,1.1503 24.24166,-0.8869 8.98336,-1.5703 12.21089,-4.4305 16.95639,-5.5384 7.77936,-1.8162 11.19266,0.1606 11.19266,0.1606 m -13.76064,29.9966 c 0,0 -3.09371,-0.7376 -3.19865,-3.2857 -0.10605,-2.574 1.69377,-3.4504 1.44939,-5.7655 -0.35432,-3.3573 -5.78255,-6.4824 -5.78255,-6.4824 0,0 10.32592,3.4342 19.63052,2.4543 7.17244,-0.7553 9.71059,-2.8418 13.62106,-3.2673 7.3079,-0.7952 9.2749,1.4016 9.2749,1.4016 m -11.26426,20.2458 c 0,0 -2.33063,-0.4875 -2.90766,-2.2717 -0.61159,-1.8913 1.21541,-2.6075 1.06579,-4.2244 -0.24949,-2.6935 -2.72119,-4.0123 -2.72119,-4.0123 0,0 7.52333,2.6873 13.9988,2.5037 4.99155,-0.1415 6.95831,-1.3994 10.84751,-1.9074 6.3039,-0.8235 6.99683,2.2965 6.99683,2.2965 m -8.62132,15.2439 c 0,0 -1.55959,-0.061 -1.65671,-1.5444 -0.0565,-0.8635 1.23698,-0.916 0.79657,-3.0757 -0.42021,-2.0594 -2.39864,-3.4208 -2.39864,-3.4208 0,0 5.56004,2.4558 8.64243,2.6868 2.82,0.2114 4.39496,-0.4331 6.87516,-0.5391 6.48384,-0.277 6.99682,2.2964 6.99682,2.2964 m -10.92047,2.9173 c 0,0 11.08447,3.7441 11.27972,12.4423 0.16606,7.3951 6.48317,9.7442 6.48317,9.7442 m -20.69837,-18.3069 c 0,0 4.84041,1.8082 6.29351,5.2438 1.45311,3.4357 -1.5419,5.7179 -1.5419,5.7179 m 15.23916,-1.2527 c 0,0 1.16323,1.9735 7.00066,3.6374 5.82223,1.6596 8.26424,0.9883 8.26424,0.9883 M 50.99995,3427.3869 c -0.972069,0.8178 12.862596,12.9284 45.271603,10.9226 40.748077,-2.5219 56.422587,-25.6585 71.649857,-25.7007 10.15826,-0.028 23.52333,4.1183 21.54542,12.5329 -1.5121,6.433 -3.66204,5.6105 -3.66204,5.6105 m -2.0009,-39.7165 c 0,0 1.89901,2.4021 -1.26826,7.8618 -3.92179,6.7604 -9.91797,8.4317 -9.91797,8.4317 m 27.51157,17.9718 c 0,0 1.16506,0.284 -2.88135,-8.1195 -3.90076,-8.1011 -14.49464,-7.156 -14.49464,-7.156 m 9.51194,-21.9485 c 0,0 3.42027,2.2653 2.41799,8.4261 -0.68581,4.2154 -6.76578,9.1065 -6.76578,9.1065 m 35.38167,-6.8757 a 8.5505883,8.5505883 0 0 0 -12.03399,-1.1866 8.5505883,8.5505883 0 0 0 -1.18657,12.034 8.5505883,8.5505883 0 0 0 12.03401,1.1866 8.5505883,8.5505883 0 0 0 1.18655,-12.034 z m 22.1941,7.9201 a 5.1774434,5.1774434 0 0 0 -7.28668,-0.7185 5.1774434,5.1774434 0 0 0 -0.71847,7.2867 5.1774434,5.1774434 0 0 0 7.28668,0.7184 5.1774434,5.1774434 0 0 0 0.71847,-7.2866 z m 15.80286,12.4557 a 3.060084,3.060084 0 0 0 -4.30673,-0.4247 3.060084,3.060084 0 0 0 -0.42464,4.3068 3.060084,3.060084 0 0 0 4.30673,0.4246 3.060084,3.060084 0 0 0 0.42464,-4.3067 z m -205.578493,9.9218 c 0,0 35.959601,-11.7841 33.263593,-45.8576 -2.878433,-36.3791 -37.679371,-44.6706 -54.03214,-82.7033 -21.149012,-49.1876 16.597368,-81.8552 16.597368,-81.8552 m -31.493758,42.7732 c 0,0 3.488264,-6.5069 -2.757352,-14.971 -6.245488,-8.464 -12.4887436,-9.2731 -12.4887436,-9.2731 m 19.4781446,10.1512 c -0.104825,-0.6329 1.813406,-5.4962 -1.119363,-11.7921 -3.972261,-8.5274 -9.586647,-9.4529 -9.586647,-9.4529 m 16.009301,8.5569 c -0.104825,-0.6329 0.789603,-2.0405 -0.707752,-7.7025 -1.965571,-7.4323 -6.947132,-9.1608 -6.947132,-9.1608 m 13.525548,7.0244 c -0.104804,-0.633 1.245427,-4.3682 0.405299,-8.1916 -1.193918,-5.4329 -3.660217,-6.0419 -3.660217,-6.0419 m 9.881927,5.9539 c -0.104807,-0.6329 1.133343,-2.2359 0.920574,-5.0475 -0.2648,-3.4984 -2.244163,-4.7419 -2.244163,-4.7419 m 8.148759,4.4364 c -0.104807,-0.6329 0.582499,-2.2683 0.589243,-4.0741 0.0075,-2.0071 -1.273166,-3.2478 -1.273166,-3.2478 m 7.762389,4.7725 c -0.373337,-0.5211 0.555119,-1.8126 1.256968,-3.2859 0.735185,-1.544 -0.183848,-2.918 -0.183848,-2.918 M 201.64871,2405.7147 c 0,0 48.9279,71.5128 102.26871,45.8423 108.01466,-51.9825 123.14382,63.4945 258.71849,-16.3211 72.07304,-42.4308 88.29787,12.4258 88.29787,12.4258 m -26.01119,-35.9613 c 0,0 18.84629,10.2622 41.07451,8.6851 14.43275,-1.024 19.40807,-8.4154 19.40807,-8.4154 m -27.80013,55.489 c 0,0 -2.76862,-1.6739 -1.5828,-5.4581 1.50908,-4.8157 6.01632,-7.7711 7.38752,-13.5553 1.89214,-7.9817 -11.1326,-21.1648 -11.1326,-21.1648 0,0 14.27079,8.4321 29.14946,4.9544 10.67572,-2.4953 12.26128,-6.3903 17.90004,-6.8622 9.24368,-0.7736 10.61829,5.7032 10.61829,5.7032 m -40.58957,38.0032 c 0,0 -1.52622,-1.8261 -0.42354,-5.6984 0.89855,-3.1553 4.63971,-5.4061 5.47469,-9.9085 1.01926,-5.4961 -4.05683,-11.7092 -4.05683,-11.7092 0,0 8.62229,4.4225 18.07648,4.9122 7.28779,0.3775 10.9954,-2.1547 14.97727,-2.2788 6.52753,-0.2033 8.07565,2.9305 8.07565,2.9305 m -31.65765,26.1689 c 0,0 -1.90327,-1.6156 -0.77083,-4.6021 1.14396,-3.017 2.87056,-3.5941 3.79098,-6.3441 1.33471,-3.9879 -1.13616,-8.95 -1.13616,-8.95 0,0 5.89133,6.5218 13.13294,7.6643 5.58216,0.8806 8.42066,-0.9216 11.47059,-0.4574 5.69975,0.8675 6.09018,3.9023 6.09018,3.9023 m -25.21349,15.4505 c 0,0 -1.46616,-1.1378 -1.03996,-3.3525 0.45184,-2.3475 2.12228,-2.7319 2.78026,-4.6474 1.09619,-3.191 -0.0784,-5.3293 -0.0784,-5.3293 0,0 4.20449,4.9669 9.0078,6.341 3.7026,1.0592 5.73181,0.08 8.80541,0.4429 4.98192,0.5885 4.00644,4.3837 4.00644,4.3837 m -17.65889,11.7605 c 0,0 -1.10697,-0.4532 -0.47392,-2.2007 0.36851,-1.0172 1.3355,-0.7612 2.03939,-3.3787 0.67098,-2.496 -0.12407,-4.5629 -0.12407,-4.5629 0,0 2.88439,4.2167 5.01974,5.2407 1.9536,0.9369 3.40645,0.5741 5.26315,1.0589 4.8537,1.2677 4.00641,4.3837 4.00641,4.3837 m -9.33764,0.7127 c 0,0 6.29676,7.0679 2.3123,17.223 -3.38747,8.6336 0.099,12.9118 0.099,12.9118 m -6.38981,-26.3464 c 0,0 2.6675,3.2878 2.09588,7.6361 -0.57163,4.3484 -3.83567,6.266 -3.83567,6.266 m 11.6933,2.2802 c 0,0 -0.0891,2.5784 3.37306,5.9428 3.4531,3.3558 5.5501,3.1745 5.5501,3.1745 M 211.13398,2395.9265 c 0,0 11.39768,25.9921 54.0391,29.1123 51.57347,3.7738 90.41402,-38.3195 159.24746,-31.445 47.61057,4.7549 58.42009,24.593 58.42009,24.593 m -37.51991,-29.0766 c 0,0 5.73642,3.2594 13.43543,-2.1341 7.69891,-5.3934 8.55905,-10.9532 8.55905,-10.9532 m -9.49729,17.1781 c 0.56773,-0.08 4.87031,1.7409 10.55943,-0.7407 7.70552,-3.3611 8.65589,-8.3566 8.65589,-8.3566 m -7.99669,14.1142 c 0.56773,-0.08 1.80556,0.7503 6.89678,-0.4629 6.6831,-1.5925 8.33691,-6.0049 8.33691,-6.0049 m -6.57294,11.9289 c 0.56775,-0.08 3.87503,1.2087 7.30921,0.5423 4.87996,-0.9471 5.47828,-3.1371 5.47828,-3.1371 m -5.5365,8.6974 c 0.56772,-0.08 1.97263,1.0617 4.48912,0.9334 3.13116,-0.1596 4.28565,-1.9006 4.28565,-1.9006 m -4.14262,7.1824 c 0.56771,-0.08 2.01368,0.5702 3.62681,0.616 1.79294,0.051 2.92944,-1.066 2.92944,-1.066 m -4.4343,6.8298 c 0.47367,-0.3221 1.60712,0.5358 2.90787,1.1952 1.36318,0.6908 2.6109,-0.1001 2.6109,-0.1001 m -329.31781,-25.2991 c 0,0 -0.45055,14.3524 12.84961,15.2117 11.84256,0.7651 19.16762,3.938 24.64898,9.9993 5.43774,6.013 4.84351,18.0095 1.02478,23.4047 -4.40494,6.2233 -11.79356,7.0342 -11.79356,7.0342 m 15.76904,-2.6978 c 0,0 -0.27296,0.9351 1.41417,3.2531 1.83815,2.5254 4.17785,2.7464 4.17785,2.7464 m -7.11012,4.2546 c 0,0 -1.69836,-0.4635 -3.12172,-2.0994 -1.47863,-1.6995 -1.54675,-2.5328 -1.54675,-2.5328 m -3.90525,6.664 c 0,0 -1.16643,-0.9874 -1.56157,-1.7837 -0.59018,-1.1892 -0.77597,-2.0596 -0.77597,-2.0596 m 14.51267,-98.5526 c 0,0 15.05158,-26.9067 51.98347,-23.2437 63.51455,6.2995 66.25482,36.2134 154.61053,34.9974 98.38828,-1.3541 111.51186,-31.5393 111.51186,-31.5393 m -34.05953,28.0505 c 0,0 20.82134,-5.193 41.93861,1.9233 13.71141,4.6206 16.66807,13.0257 16.66807,13.0257 m -12.95252,-60.6969 c 0,0 -3.10059,0.9239 -2.90452,4.8847 0.24956,5.0404 3.86872,9.0343 3.74128,14.9774 -0.1759,8.2011 -16.09731,17.6851 -16.09731,17.6851 0,0 15.93266,-4.5724 29.4586,2.5352 9.70512,5.0999 10.26025,9.2684 15.59912,11.1431 8.75205,3.0734 11.71127,-2.8496 11.71127,-2.8496 m -29.7282,-46.9893 c 0,0 -1.93641,1.3836 -1.84298,5.4088 0.0762,3.2798 3.13108,6.3992 2.80698,10.9668 -0.39598,5.5758 -6.87107,10.3128 -6.87107,10.3128 0,0 9.45735,-2.1121 18.73088,-0.2086 7.14852,1.4674 10.10018,4.8506 13.9229,5.972 6.26663,1.8382 8.55308,-0.8055 8.55308,-0.8055 m -24.0594,-33.289 c 0,0 -2.24837,1.0849 -1.90336,4.2603 0.34848,3.2077 1.87448,4.2005 2.07375,7.0936 0.28894,4.1954 -3.35037,8.3766 -3.35037,8.3766 0,0 7.34209,-4.8307 14.63828,-4.1153 5.62424,0.5514 7.91828,3.0096 10.98695,3.3272 5.73475,0.5937 6.87579,-2.2453 6.87579,-2.2453 m -20.51776,-21.2946 c 0,0 -1.70516,0.7325 -1.8496,2.9832 -0.15308,2.3858 1.36706,3.1778 1.52219,5.1972 0.25849,3.3642 -1.41604,5.1384 -1.41604,5.1384 0,0 5.31843,-3.7499 10.31294,-3.872 3.85,-0.094 5.56765,1.3643 8.6338,1.7858 4.96983,0.6832 4.98009,-3.2353 4.98009,-3.2353 m -14.13389,-15.8234 c 0,0 -1.18536,0.1602 -1.01211,2.0108 0.10086,1.0772 1.10116,1.0725 1.12418,3.7829 0.0217,2.5846 -1.26755,4.3851 -1.26755,4.3851 0,0 3.85209,-3.3558 6.17635,-3.81 2.12643,-0.4155 3.44135,0.301 5.3603,0.2987 5.01651,-0.01 4.98006,-3.2353 4.98006,-3.2353 m -8.85833,-3.038 c 0,0 7.87181,-5.2572 6.56915,-16.0879 -1.10744,-9.2081 3.34281,-12.472 3.34281,-12.472 m -12.80995,23.8927 c 0,0 3.40855,-2.5113 3.9488,-6.8635 0.54025,-4.3524 -2.13663,-7.0292 -2.13663,-7.0292 m 11.89093,0.7336 c 0,0 0.56221,-2.5179 4.75912,-4.9036 4.18602,-2.3795 6.17005,-1.6767 6.17005,-1.6767 m -406.9449,61.1343 c 0,0 29.94414,-42.0226 82.67244,-26.2524 32.26857,9.6511 77.92054,31.4543 100.00036,14.0552 39.11333,-30.8217 71.81361,-18.0386 71.81361,-18.0386 m -48.97097,-4.2329 c 0,0 6.56643,-0.6423 9.7499,-9.4871 3.18344,-8.8447 0.68219,-13.884 0.68219,-13.884 m 2.13853,19.5118 c 0.41804,-0.3923 4.98349,-1.384 8.20261,-6.6908 4.36007,-7.1876 2.2578,-11.8178 2.2578,-11.8178 m 1.59909,16.1431 c 0.41804,-0.3923 1.90795,-0.4274 5.36948,-4.353 4.54379,-5.153 3.35241,-9.7121 3.35241,-9.7121 m 1.50325,13.5368 c 0.41804,-0.3924 3.86338,-1.2455 6.2858,-3.7693 3.44218,-3.5864 2.66905,-5.7209 2.66905,-5.7209 m 0.48784,10.2985 c 0.41802,-0.3923 2.22394,-0.2692 4.20659,-1.8243 2.46688,-1.935 2.407,-4.0231 2.407,-4.0231 m 0.75384,8.257 c 0.41802,-0.3923 1.97429,-0.6944 3.31895,-1.5867 1.49455,-0.9918 1.77968,-2.5595 1.77968,-2.5595 m 0.31227,8.1371 c 0.20148,-0.5362 1.62218,-0.4884 3.06522,-0.6991 1.51211,-0.2211 2.07602,-1.5865 2.07602,-1.5865 m -300.25974,38.9042 c 0,0 1.30831,-14.2998 14.61371,-13.5258 11.84722,0.6891 19.50536,-1.564 25.68693,-6.9094 6.13239,-5.3028 7.00992,-17.2819 3.87975,-23.1036 -3.61068,-6.7154 -10.84464,-8.4239 -10.84464,-8.4239 m 15.32067,4.6063 c 0,0 -0.15653,-0.9615 1.80144,-3.0557 2.13325,-2.2817 4.48241,-2.2148 4.48241,-2.2148 m -6.53634,-5.0923 c 0,0 -1.74231,0.2523 -3.35508,1.7018 -1.67539,1.5059 -1.84492,2.3246 -1.84492,2.3246 m -3.06085,-7.0916 c 0,0 -1.27843,0.8373 -1.768,1.5792 -0.73122,1.1082 -1.02207,1.9493 -1.02207,1.9493 m -10.27227,-951.9084 c 0,0 16.94057,32.4119 67.78639,34.2621 53.05923,1.9309 68.38383,-20.6008 109.47451,-21.1252 75.33369,-0.9614 86.68931,36.3972 86.68931,36.3972 m -54.79083,-46.2163 c 0,0 8.5816,4.7691 19.96139,-3.365 11.37965,-8.1338 12.58108,-16.4188 12.58108,-16.4188 m -13.88932,25.6945 c 0.84364,-0.1267 7.27143,2.5217 15.70166,-1.2511 11.41816,-5.11 12.76178,-12.5564 12.76178,-12.5564 m -11.69968,21.1142 c 0.84366,-0.1267 2.69722,1.0909 10.2557,-0.786 9.92177,-2.464 12.32034,-9.0528 12.32034,-9.0528 m -9.61204,17.8426 c 0.84368,-0.1266 5.78299,1.7438 10.88355,0.7037 7.24785,-1.4781 8.10724,-4.7451 8.10724,-4.7451 m -8.11542,13.0195 c 0.84362,-0.1266 2.95019,1.5519 6.69284,1.3256 4.65682,-0.2817 6.35009,-2.8885 6.35009,-2.8885 m -6.06274,10.7455 c 0.84362,-0.1267 3.00435,0.8202 5.40527,0.8655 2.66856,0.05 4.3439,-1.6275 4.3439,-1.6275 m -6.50175,10.2251 c 0.70026,-0.4859 2.39891,0.7746 4.3437,1.7374 2.03809,1.0086 3.88351,-0.1857 3.88351,-0.1857 m -286.95393,-75.3034 c 0,0 26.32559,34.3711 152.28489,-27.797 193.13146,-95.3214 225.70006,43.2448 358.43366,70.0364 120.58407,24.3393 154.05361,-16.5229 154.05361,-16.5229 m -65.29558,35.9378 c 0,0 9.34274,-3.0168 18.9318,7.1671 9.58895,10.1838 9.16311,18.5445 9.16311,18.5445 m -8.65022,-27.8979 c 0.80317,0.2876 7.62217,-1.0657 15.16212,4.2683 10.21232,7.2246 10.08841,14.7903 10.08841,14.7903 m -7.38906,-22.9804 c 0.80317,0.2876 2.85741,-0.5479 9.90928,2.7574 9.25672,4.3388 10.33387,11.2674 10.33387,11.2674 m -5.97452,-19.3663 c 0.80316,0.2875 6.01123,-0.5909 10.81379,1.4173 6.82433,2.8538 7.03475,6.2254 7.03475,6.2254 m -5.44034,-14.3446 c 0.80312,0.2875 3.19489,-0.9512 6.82288,-0 4.51407,1.1782 5.67044,4.0636 5.67044,4.0636 m -3.8669,-11.7162 c 0.80314,0.2876 3.10629,-0.2228 5.47054,0.1977 2.62779,0.4674 3.94648,2.4379 3.94648,2.4379 m -4.39845,-11.2906 c 0.59288,0.6124 2.50351,-0.2953 4.59796,-0.8633 2.19485,-0.5948 3.77402,0.9343 3.77402,0.9343" /></g><g
     inkscape:label="Shape"
     id="g104921"
     style="display:inline"
     transform="matrix(0,-0.55,-0.55,0,1892.5845,1059.97)"><path
       id="path104815"
       style="display:inline;opacity:1;fill:none;fill-opacity:1;stroke:#e8e2da;stroke-width:2;stroke-linecap:round;stroke-linejoin:round;stroke-dasharray:none;stroke-opacity:1;paint-order:stroke markers fill"
       inkscape:label="base"
       transform="translate(-144.33818,-109.56255)"
       d="m 643.49685,243.85322 c 0,0 -12.46474,8.98253 -45.14033,-17.78679 -39.88945,-32.67925 -70.15715,-57.26738 -93.83993,-43.01901 M 175.49318,374.22078 c 0,0 11.16216,-5.85898 31.79574,29.93676 19.56465,33.94132 -3.91531,222.02831 33.86555,224.88831 m 362.41631,-398.37198 -455.17911,-0.41692 84.99125,-85.97439 -0.0665,479.90821 M 573.81047,206.38495 145.33808,206.23002 208.8779,145.29107 208.41974,404.5786 M 547.81047,188.38495 147.33808,188.23002 190.8779,145.29107 190.41974,380.5786 M 283.63661,279.32149 177.81132,175.20839 m 56.09543,153.2202 102.28538,-97.34061 M 612.67558,3408.8605 c 0,0 -2.06784,14.6607 -53.33547,16.0636 -26.12958,0.7151 -87.86598,9.9863 -88.63231,20.1574 m -272.21608,-75.4021 c 0,0 6.62414,1.5558 13.79574,-19.9368 9.19035,-27.5425 -11.91531,-96.0283 25.86555,-98.8883 m 370.41631,162.372 -439.17911,0.4169 60.99125,61.9744 -0.0665,-219.9082 m 250.49405,181.8058 -304.47239,0.1549 29.53982,28.939 -0.45816,-101.2875 m 61.21687,13.2571 -67.2162,65.3198 m 31.48634,-100.4269 70.28538,69.3406 M 167.04,2354.7121 l 89.66165,91.8499 0.25473,-180.099 -89.90424,88.2675 m 26.61302,-25.5156 89.10238,90.0722 -0.0689,-129.1484 -89.01037,90.5864 m -26.05712,-26.0272 88.19481,0.3012 m -22.44531,67.1469 -0.0418,-131.8933 m -73.31865,-978.6187 88.20723,86.1443 0.37905,-174.9091 -88.56823,88.7921 m 3.52121,-0.048 48.79062,0.4481 m 1.17491,52.0448 -0.0622,-105.8368" /><path
       id="circle104829"
       style="display:inline;opacity:1;fill:none;fill-opacity:1;stroke:#e8e2da;stroke-width:4;stroke-linecap:round;stroke-linejoin:round;stroke-dasharray:none;stroke-opacity:1;paint-order:stroke markers fill"
       inkscape:label="circles"
       transform="rotate(-20.49196,-114.40048,-533.84432)"
       d="m 239.95491,275.2749 a 15.568295,15.568295 0 0 1 -15.5683,15.5683 15.568295,15.568295 0 0 1 -15.56829,-15.5683 15.568295,15.568295 0 0 1 15.56829,-15.56829 15.568295,15.568295 0 0 1 15.5683,15.56829 z m -28.04737,-30.47734 a 10.044064,10.044064 0 0 1 -10.04406,10.04407 10.044064,10.044064 0 0 1 -10.04406,-10.04407 10.044064,10.044064 0 0 1 10.04406,-10.04406 10.044064,10.044064 0 0 1 10.04406,10.04406 z m 42.87518,56.39229 a 7.6450386,7.6450386 0 0 1 -7.64504,7.64504 7.6450386,7.6450386 0 0 1 -7.64504,-7.64504 7.6450386,7.6450386 0 0 1 7.64504,-7.64504 7.6450386,7.6450386 0 0 1 7.64504,7.64504 z m -64.82383,-74.59801 a 6.5097775,6.5097775 0 0 1 -6.50978,6.50978 6.5097775,6.5097775 0 0 1 -6.50978,-6.50978 6.5097775,6.5097775 0 0 1 6.50978,-6.50977 6.5097775,6.5097775 0 0 1 6.50978,6.50977 z M 172.3504,212.36072 a 4.1887832,4.1887832 0 0 1 -4.18878,4.18878 4.1887832,4.1887832 0 0 1 -4.18878,-4.18878 4.1887832,4.1887832 0 0 1 4.18878,-4.18879 4.1887832,4.1887832 0 0 1 4.18878,4.18879 z M -1281.4513,3132.1757 a 15.568295,15.568295 0 0 0 -1.542,-21.9628 15.568295,15.568295 0 0 0 -21.9629,1.542 15.568295,15.568295 0 0 0 1.542,21.9628 15.568295,15.568295 0 0 0 21.9629,-1.542 z m 9.895,27.9633 a 10.044064,10.044064 0 0 0 -0.9948,-14.1696 10.044064,10.044064 0 0 0 -14.1696,0.9949 10.044064,10.044064 0 0 0 0.9949,14.1695 10.044064,10.044064 0 0 0 14.1695,-0.9948 z m 19.2978,22.357 a 7.6450387,7.6450387 0 0 0 -0.7572,-10.7852 7.6450387,7.6450387 0 0 0 -10.7852,0.7572 7.6450387,7.6450387 0 0 0 0.7572,10.7852 7.6450387,7.6450387 0 0 0 10.7852,-0.7572 z m 25.2765,21.3854 a 6.5097776,6.5097776 0 0 0 -0.6448,-9.1836 6.5097776,6.5097776 0 0 0 -9.1836,0.6448 6.5097776,6.5097776 0 0 0 0.6448,9.1836 6.5097776,6.5097776 0 0 0 9.1836,-0.6448 z m 29.8304,18.7988 a 4.1887832,4.1887832 0 0 0 -0.4149,-5.9093 4.1887832,4.1887832 0 0 0 -5.9093,0.4149 4.1887832,4.1887832 0 0 0 0.4149,5.9093 4.1887832,4.1887832 0 0 0 5.9093,-0.4149 z m 364.06074,-1082.3689 a 23.83918,23.83918 0 0 0 -30.67619,13.9852 23.83918,23.83918 0 0 0 13.98514,30.6762 23.83918,23.83918 0 0 0 30.6762,-13.9852 23.83918,23.83918 0 0 0 -13.98515,-30.6762 z m 39.2459,26.6002 a 13.093215,13.093215 0 0 0 -16.84831,7.681 13.093215,13.093215 0 0 0 7.68107,16.8483 13.093215,13.093215 0 0 0 16.84831,-7.681 13.093215,13.093215 0 0 0 -7.68107,-16.8483 z m -51.90935,46.4647 a 9.9681935,9.9681935 0 0 0 -12.82705,5.8478 9.9681935,9.9681935 0 0 0 5.8478,12.827 9.9681935,9.9681935 0 0 0 12.82704,-5.8478 9.9681935,9.9681935 0 0 0 -5.84779,-12.827 z m 43.74198,-108.5604 a 7.9280368,7.9280368 0 0 0 -10.20178,4.6509 7.9280368,7.9280368 0 0 0 4.65095,10.2018 7.9280368,7.9280368 0 0 0 10.20177,-4.6509 7.9280368,7.9280368 0 0 0 -4.65094,-10.2018 z m 33.1203,79.8555 a 4.6857985,4.6857985 0 0 0 -6.02968,2.7489 4.6857985,4.6857985 0 0 0 2.7489,6.0297 4.6857985,4.6857985 0 0 0 6.02968,-2.7489 4.6857985,4.6857985 0 0 0 -2.7489,-6.0297 z m 230.36875,-1060.903 a 34.113697,34.113697 0 0 1 20.01264,43.8974 34.113697,34.113697 0 0 1 -43.89741,20.0127 34.113697,34.113697 0 0 1 -20.01264,-43.8975 34.113697,34.113697 0 0 1 43.89741,-20.0126 z" /><path
       id="path104915"
       style="display:inline;opacity:1;fill:none;fill-opacity:1;stroke:#e8e2da;stroke-width:5;stroke-linecap:round;stroke-linejoin:round;stroke-dasharray:none;stroke-opacity:1;paint-order:stroke markers fill"
       inkscape:label="vines-flowers"
       transform="rotate(-3.5127647,-1911.0493,2766.5841)"
       d="m 250.24818,246.41148 c 0,0 50.89834,-72.71943 174.29366,-53.65869 146.12558,22.57186 162.08038,119.42858 250.34218,109.73849 50.97093,-5.596 58.52676,-38.67853 58.52676,-38.67853 m -15.73324,33.8604 c 0,0 21.86395,-9.92923 46.54492,-6.37134 16.0253,2.31013 20.98038,10.96193 20.98038,10.96193 m -36.39818,-66.78753 c 0,0 -3.22538,1.64432 -2.20796,5.96368 1.29479,5.4967 6.08622,9.15978 7.14879,15.72623 1.46626,9.06133 -14.1366,22.72137 -14.1366,22.72137 0,0 16.60932,-8.2568 32.93386,-3.17206 11.71317,3.6484 13.16778,8.12373 19.42293,9.10645 10.25413,1.61101 12.31212,-5.50647 12.31212,-5.50647 m -42.22774,-45.69743 c 0,0 -1.85108,1.91465 -0.93357,6.32563 0.74767,3.59426 4.74107,6.40895 5.30884,11.50153 0.69309,6.21648 -5.47474,12.74035 -5.47474,12.74035 0,0 9.98085,-4.23855 20.57211,-4.02052 8.1643,0.16811 12.0975,3.29412 16.53156,3.75457 7.26881,0.75481 9.25009,-2.61754 9.25009,-2.61754 m -33.21611,-31.76688 c 0,0 -2.25486,1.64911 -1.2325,5.07394 1.03275,3.45971 2.91311,4.24344 3.71796,7.38713 1.16712,4.55879 -1.99188,9.897 -1.99188,9.897 0,0 7.10266,-6.80242 15.27728,-7.49177 6.30138,-0.53146 9.32361,1.7096 12.76513,1.43811 6.43155,-0.50726 7.11273,-3.8627 7.11273,-3.8627 m -26.89074,-19.2832 c 0,0 -1.72838,1.1513 -1.43181,3.65755 0.31443,2.65658 2.14769,3.22065 2.72713,5.41172 0.96536,3.6501 -0.51846,5.94165 -0.51846,5.94165 0,0 5.09426,-5.2034 10.56628,-6.34859 4.21807,-0.88275 6.40361,0.37458 9.86337,0.21789 5.60783,-0.25396 4.82605,-4.56857 4.82605,-4.56857 m -18.75763,-14.55386 c 0,0 -1.27212,0.41623 -0.70691,2.41785 0.32902,1.16507 1.42896,0.9575 2.00287,3.9358 0.547,2.84002 -0.5075,5.08258 -0.5075,5.08258 0,0 3.56024,-4.47289 6.02629,-5.44317 2.25615,-0.88765 3.8483,-0.36523 5.95974,-0.75614 5.51965,-1.02231 4.82602,-4.56856 4.82602,-4.56856 m -10.36393,-1.55059 c 0,0 7.59931,-7.37909 3.97362,-19.03523 -3.08244,-9.90982 1.1547,-14.40265 1.1547,-14.40265 m -9.26232,28.88795 c 0,0 3.24304,-3.45366 2.95674,-8.353 -0.28631,-4.89936 -3.77415,-7.30359 -3.77415,-7.30359 m 13.23509,-1.59921 c 0,0 0.1091,-2.88489 4.24523,-6.35985 4.12534,-3.46599 6.4511,-3.09406 6.4511,-3.09406 m -566.66232,66.48808 c -1.26329,0.13377 -1.53738,-19.53542 23.50762,-40.20216 24.71114,-20.39127 54.55654,-25.47376 65.14189,-36.42008 7.0616,-7.3024 9.22245,-18.05767 1.78637,-22.46468 -5.6849,-3.36917 -12.22069,-0.79259 -12.22069,-0.79259 m 36.99295,26.76307 c 0,0 -0.41502,-3.03377 -6.54572,-4.53532 -7.5912,-1.85926 -12.95221,1.30415 -12.95221,1.30415 m -2.11294,-28.78276 c 0,0 4.71741,-2.78886 7.96973,5.95274 3.13526,8.42694 -0.77466,13.65549 -0.77466,13.65549 m 22.41346,8.35784 c 0,0 0.73799,-4.03552 -4.39732,-7.58347 -3.5138,-2.42767 -11.2536,-1.43562 -11.2536,-1.43562 m 21.25182,-17.23216 a 8.550589,8.550589 0 0 1 -7.48623,9.49637 8.550589,8.550589 0 0 1 -9.49639,-7.48624 8.550589,8.550589 0 0 1 7.48625,-9.49637 8.550589,8.550589 0 0 1 9.49637,7.48624 z m 23.0079,2.97209 a 5.1774436,5.1774436 0 0 1 -4.53298,5.75013 5.1774436,5.1774436 0 0 1 -5.75012,-4.53298 5.1774436,5.1774436 0 0 1 4.53297,-5.75012 5.1774436,5.1774436 0 0 1 5.75013,4.53297 z m 19.88001,8.32102 a 3.060084,3.060084 0 0 1 -2.67919,3.39856 3.060084,3.060084 0 0 1 -3.39856,-2.67918 3.060084,3.060084 0 0 1 2.67918,-3.39856 3.060084,3.060084 0 0 1 3.39857,2.67918 z m -170.85607,90.15762 c 0,0 15.50216,-27.71843 63.33246,-26.58762 57.84925,1.36768 95.35997,86.42469 172.76801,86.20327 53.54142,-0.15314 67.72375,-21.08083 67.72375,-21.08083 m -44.92982,28.33218 c 0,0 6.7412,-3.01069 14.73363,3.82817 7.99233,6.83872 8.34978,13.12402 8.34978,13.12402 m -8.72238,-20.15851 c 0.62372,0.15013 5.61252,-1.41295 11.6809,1.96553 8.21921,4.57595 8.73812,10.24241 8.73812,10.24241 m -7.38199,-16.58387 c 0.62372,0.15012 2.09204,-0.64063 7.63152,1.26051 7.27149,2.49563 8.63686,7.58872 8.63686,7.58872 m -6.03228,-13.99622 c 0.62373,0.1501 4.4465,-0.92767 8.19944,0.18557 5.3329,1.58201 5.76275,4.08576 5.76275,4.08576 m -5.22698,-10.28498 c 0.6237,0.15011 2.31175,-0.9694 5.10073,-0.55475 3.47019,0.51601 4.56797,2.57977 4.56797,2.57977 m -3.83814,-8.44704 c 0.6237,0.15011 2.30439,-0.41765 4.10601,-0.29437 2.00244,0.13703 3.14762,1.50371 3.14762,1.50371 m -4.20111,-8.08587 c 0.49277,0.40988 1.84786,-0.42317 3.36784,-1.01711 1.5929,-0.6221 2.89716,0.39347 2.89716,0.39347 M 253.9094,249.41351 c 0,0 44.74422,5.94215 41.19795,53.65422 -4.28912,57.70623 -108.97748,101.81185 -112.66785,179.13219 -2.55256,53.48076 17.63174,68.70247 17.63174,68.70247 m -26.02563,-46.30408 c 0,0 2.6662,6.88473 -4.56778,14.52137 -7.23384,7.63655 -13.52918,7.67594 -13.52918,7.67594 m 20.57351,-7.6926 c -0.18146,0.61533 1.12753,5.67674 -2.55327,11.56666 -4.98543,7.97748 -10.67088,8.20939 -10.67088,8.20939 m 16.93571,-6.53456 c -0.18145,0.61534 0.5341,2.12174 -1.64453,7.55808 -2.85988,7.13609 -8.01545,8.24236 -8.01545,8.24236 m 14.28316,-5.31733 c -0.18143,0.61535 0.7018,4.48769 -0.59966,8.17958 -1.84947,5.24615 -4.37174,5.54893 -4.37174,5.54893 m 10.53597,-4.70059 c -0.18144,0.61532 0.85134,2.35779 0.29629,5.12224 -0.6907,3.43969 -2.8073,4.43179 -2.8073,4.43179 m 8.6302,-3.40641 c -0.18144,0.61532 0.30067,2.32256 0.0865,4.11565 -0.23804,1.99295 -1.66084,3.06761 -1.66084,3.06761 m 8.28782,-3.78716 c -0.43426,0.47144 0.32926,1.86688 0.84563,3.41494 0.54082,1.6223 -0.53936,2.87358 -0.53936,2.87358 m 47.71605,-316.83149 c 0,0 17.86989,21.56671 3.93353,44.48558 -17.26821,28.39819 -54.20599,34.88387 -81.20504,8.49142 -23.73386,-23.2006 -3.70001,-55.91772 19.20732,-56.35572 17.58763,-0.3363 23.83693,10.30518 23.83693,10.30518 m -16.43579,-3.01452 c 0,0 10.21047,0.91002 17.62217,15.07559 5.49918,10.51028 -1.22994,15.57416 -1.22994,15.57416 m -4.86573,-14.15426 c 0,0 3.08157,5.84539 -1.78649,11.88848 -4.86807,6.04308 -13.90094,3.40969 -13.90094,3.40969 m 8.47134,-8.4817 c 0,0 -4.12887,1.85286 -10.07068,-0.50271 -6.3524,-2.51833 -6.14878,-9.53398 -6.14878,-9.53398 M 51.961692,3427.5706 c 0,0 26.045547,45.5771 150.614408,54.081 122.63638,8.372 168.85071,-46.8718 242.73142,-44.707 81.28725,2.3819 109.48539,36.4796 109.48539,36.4796 m -40.78271,-34.7597 c 0,0 42.33669,10.7004 64.35792,-0.999 14.29832,-7.5963 16.0336,-17.4144 16.0336,-17.4144 m -26.30356,60.9315 c 0,0 -4.16709,-0.5614 -4.60072,-3.7266 -0.55178,-4.0279 3.4324,-7.4119 2.23687,-12.1375 -1.64982,-6.521 -23.86975,-13.1786 -23.86975,-13.1786 0,0 21.38252,2.7456 37.62895,-3.6749 11.65711,-4.6069 11.65142,-7.9577 18.22554,-9.7508 10.77701,-2.9394 15.6285,1.611 15.6285,1.611 m -13.96524,40.0917 c 0,0 -2.74236,-0.993 -3.31977,-4.2036 -0.47045,-2.6163 2.93626,-5.272 1.72512,-8.8913 -1.47838,-4.418 -10.6681,-7.8262 -10.6681,-7.8262 0,0 12.58789,1.1502 24.24166,-0.8869 8.98336,-1.5704 12.21089,-4.4306 16.95639,-5.5385 7.77936,-1.8162 11.19266,0.1606 11.19266,0.1606 m -13.76064,29.9966 c 0,0 -3.09371,-0.7376 -3.19865,-3.2857 -0.10605,-2.574 1.69377,-3.4504 1.44939,-5.7655 -0.35432,-3.3572 -5.78255,-6.4824 -5.78255,-6.4824 0,0 10.32592,3.4342 19.63052,2.4543 7.17244,-0.7553 9.71059,-2.8418 13.62106,-3.2673 7.3079,-0.7951 9.2749,1.4016 9.2749,1.4016 m -11.26426,20.2458 c 0,0 -2.33063,-0.4875 -2.90766,-2.2717 -0.61159,-1.8913 1.21541,-2.6075 1.06579,-4.2243 -0.24949,-2.6936 -2.72119,-4.0124 -2.72119,-4.0124 0,0 7.52333,2.6873 13.9988,2.5037 4.99155,-0.1415 6.95831,-1.3994 10.84751,-1.9074 6.3039,-0.8234 6.99683,2.2965 6.99683,2.2965 m -8.62132,15.2439 c 0,0 -1.55959,-0.061 -1.65671,-1.5444 -0.0565,-0.8634 1.23698,-0.916 0.79657,-3.0757 -0.42021,-2.0594 -2.39864,-3.4208 -2.39864,-3.4208 0,0 5.56004,2.4558 8.64243,2.6869 2.82,0.2113 4.39496,-0.4332 6.87516,-0.5392 6.48384,-0.277 6.99682,2.2965 6.99682,2.2965 m -10.92047,2.9172 c 0,0 11.08447,3.7441 11.27972,12.4423 0.16606,7.3951 6.48317,9.7442 6.48317,9.7442 m -20.69837,-18.3069 c 0,0 4.84041,1.8082 6.29351,5.2439 1.45311,3.4356 -1.5419,5.7178 -1.5419,5.7178 m 15.23916,-1.2527 c 0,0 1.16323,1.9735 7.00066,3.6374 5.82223,1.6596 8.26424,0.9883 8.26424,0.9883 M 51.24504,3423.3943 c -0.97207,0.8178 12.862595,12.9284 45.271602,10.9226 40.748078,-2.5219 56.422588,-25.6585 71.649858,-25.7007 10.15826,-0.028 23.52333,4.1184 21.54542,12.5329 -1.5121,6.433 -3.66204,5.6105 -3.66204,5.6105 m -2.0009,-39.7165 c 0,0 1.89901,2.4021 -1.26826,7.8618 -3.92179,6.7604 -9.91797,8.4317 -9.91797,8.4317 m 27.51157,17.9718 c 0,0 1.16506,0.284 -2.88135,-8.1195 -3.90076,-8.1011 -14.49464,-7.1559 -14.49464,-7.1559 m 9.51194,-21.9486 c 0,0 3.42027,2.2653 2.41799,8.4261 -0.68581,4.2154 -6.76578,9.1065 -6.76578,9.1065 m 35.38167,-6.8757 a 8.5505883,8.5505883 0 0 0 -12.03399,-1.1866 8.5505883,8.5505883 0 0 0 -1.18657,12.0341 8.5505883,8.5505883 0 0 0 12.03401,1.1865 8.5505883,8.5505883 0 0 0 1.18655,-12.034 z m 22.1941,7.9201 a 5.1774434,5.1774434 0 0 0 -7.28668,-0.7185 5.1774434,5.1774434 0 0 0 -0.71847,7.2867 5.1774434,5.1774434 0 0 0 7.28668,0.7184 5.1774434,5.1774434 0 0 0 0.71847,-7.2866 z m 15.80286,12.4557 a 3.060084,3.060084 0 0 0 -4.30673,-0.4246 3.060084,3.060084 0 0 0 -0.42464,4.3067 3.060084,3.060084 0 0 0 4.30673,0.4246 3.060084,3.060084 0 0 0 0.42464,-4.3067 z m -205.578493,9.9219 c 0,0 35.959601,-11.7842 33.263593,-45.8577 -2.878434,-36.3791 -37.679371,-44.6705 -54.03214,-82.7033 -21.149012,-49.1876 16.597368,-81.8552 16.597368,-81.8552 M 20.29768,3257.396 c 0,0 3.488263,-6.5069 -2.757353,-14.971 -6.245488,-8.464 -12.4887429,-9.2731 -12.4887429,-9.2731 m 19.4781449,10.1512 c -0.104825,-0.6329 1.813405,-5.4962 -1.119363,-11.7921 -3.972261,-8.5273 -9.586647,-9.4529 -9.586647,-9.4529 m 16.0093,8.5569 c -0.104824,-0.6329 0.789604,-2.0405 -0.707751,-7.7025 -1.965571,-7.4323 -6.947132,-9.1608 -6.947132,-9.1608 m 13.525547,7.0244 c -0.104803,-0.6329 1.245428,-4.3682 0.4053,-8.1915 -1.193919,-5.433 -3.660217,-6.042 -3.660217,-6.042 m 9.881926,5.9539 c -0.104807,-0.6328 1.133343,-2.2359 0.920575,-5.0475 -0.2648,-3.4983 -2.244163,-4.7419 -2.244163,-4.7419 m 8.148759,4.4364 c -0.104807,-0.6329 0.582499,-2.2683 0.589242,-4.0741 0.0075,-2.0071 -1.273165,-3.2478 -1.273165,-3.2478 m 7.762389,4.7725 c -0.373337,-0.521 0.555119,-1.8126 1.256968,-3.2859 0.735185,-1.544 -0.183849,-2.918 -0.183849,-2.918 M 199.98733,2403.609 c 0,0 48.9279,71.5128 102.26871,45.8423 108.01467,-51.9825 123.14383,63.4944 258.7185,-16.3211 72.07303,-42.4309 88.29787,12.4257 88.29787,12.4257 m -26.01119,-35.9612 c 0,0 18.84628,10.2622 41.07451,8.6851 14.43274,-1.024 19.40806,-8.4154 19.40806,-8.4154 m -27.80013,55.4889 c 0,0 -2.76861,-1.6739 -1.5828,-5.4581 1.50908,-4.8156 6.01633,-7.7711 7.38752,-13.5552 1.89215,-7.9818 -11.13259,-21.1649 -11.13259,-21.1649 0,0 14.27079,8.4322 29.14945,4.9544 10.67573,-2.4953 12.26129,-6.3903 17.90005,-6.8622 9.24368,-0.7736 10.61828,5.7032 10.61828,5.7032 m -40.58956,38.0033 c 0,0 -1.52623,-1.8261 -0.42354,-5.6984 0.89855,-3.1553 4.63971,-5.4062 5.47468,-9.9086 1.01927,-5.496 -4.05683,-11.7092 -4.05683,-11.7092 0,0 8.62229,4.4225 18.07649,4.9122 7.28779,0.3775 10.9954,-2.1547 14.97727,-2.2787 6.52752,-0.2033 8.07565,2.9305 8.07565,2.9305 m -31.65765,26.1688 c 0,0 -1.90328,-1.6155 -0.77083,-4.6021 1.14395,-3.0169 2.87056,-3.594 3.79098,-6.3441 1.33471,-3.9879 -1.13616,-8.9499 -1.13616,-8.9499 0,0 5.89133,6.5218 13.13293,7.6642 5.58217,0.8807 8.42067,-0.9216 11.4706,-0.4573 5.69975,0.8675 6.09017,3.9022 6.09017,3.9022 m -25.21348,15.4506 c 0,0 -1.46617,-1.1378 -1.03996,-3.3525 0.45184,-2.3476 2.12228,-2.7319 2.78025,-4.6474 1.09619,-3.191 -0.0784,-5.3294 -0.0784,-5.3294 0,0 4.2045,4.9669 9.00781,6.3411 3.7026,1.0592 5.7318,0.08 8.80541,0.4428 4.98192,0.5886 4.00644,4.3837 4.00644,4.3837 m -17.65889,11.7605 c 0,0 -1.10698,-0.4531 -0.47392,-2.2007 0.36851,-1.0172 1.33549,-0.7611 2.03939,-3.3786 0.67097,-2.4961 -0.12407,-4.563 -0.12407,-4.563 0,0 2.88439,4.2167 5.01974,5.2408 1.9536,0.9369 3.40644,0.5741 5.26315,1.0589 4.8537,1.2677 4.00641,4.3837 4.00641,4.3837 m -9.33764,0.7127 c 0,0 6.29676,7.0679 2.31229,17.2229 -3.38746,8.6337 0.099,12.9119 0.099,12.9119 m -6.38981,-26.3464 c 0,0 2.66749,3.2877 2.09587,7.6361 -0.57163,4.3483 -3.83566,6.266 -3.83566,6.266 m 11.6933,2.2802 c 0,0 -0.0891,2.5784 3.37305,5.9428 3.4531,3.3557 5.5501,3.1744 5.5501,3.1744 M 166.24196,2396.0667 c 0,0 -0.45055,14.3525 12.84961,15.2118 11.84256,0.7651 19.16763,3.9379 24.64898,9.9992 5.43774,6.0131 4.84351,18.0096 1.02477,23.4048 -4.40493,6.2233 -11.79355,7.0342 -11.79355,7.0342 m 15.76904,-2.6979 c 0,0 -0.27296,0.9352 1.41417,3.2532 1.83815,2.5254 4.17785,2.7464 4.17785,2.7464 m -7.11011,4.2546 c 0,0 -1.69837,-0.4635 -3.12173,-2.0994 -1.47863,-1.6995 -1.54675,-2.5328 -1.54675,-2.5328 m -3.90524,6.664 c 0,0 -1.16644,-0.9874 -1.56158,-1.7837 -0.59018,-1.1893 -0.77597,-2.0597 -0.77597,-2.0597 m 13.16115,-63.6407 c 0,0 11.39768,25.9921 54.03911,29.1123 51.57346,3.7738 90.41402,-38.3195 159.24747,-31.445 47.61055,4.7549 58.42008,24.593 58.42008,24.593 m -37.51992,-29.0766 c 0,0 5.73642,3.2594 13.43543,-2.1341 7.69892,-5.3934 8.55906,-10.9532 8.55906,-10.9532 m -9.4973,17.1781 c 0.56774,-0.08 4.87031,1.7409 10.55944,-0.7407 7.70551,-3.3611 8.65589,-8.3566 8.65589,-8.3566 m -7.9967,14.1142 c 0.56774,-0.08 1.80556,0.7503 6.8968,-0.4629 6.68309,-1.5925 8.3369,-6.0049 8.3369,-6.0049 m -6.57293,11.9289 c 0.56774,-0.08 3.87502,1.2087 7.30919,0.5423 4.87996,-0.9471 5.47828,-3.1371 5.47828,-3.1371 m -5.53649,8.6974 c 0.56772,-0.08 1.97262,1.0616 4.48912,0.9334 3.13116,-0.1596 4.28564,-1.9006 4.28564,-1.9006 m -4.14261,7.1824 c 0.56771,-0.08 2.01368,0.5702 3.6268,0.616 1.79294,0.051 2.92945,-1.066 2.92945,-1.066 m -4.43431,6.8298 c 0.47367,-0.3221 1.60712,0.5358 2.90788,1.1952 1.36318,0.6908 2.61089,-0.1001 2.61089,-0.1001 m -293.86949,-75.4978 c 0,0 29.94414,-42.0226 82.67244,-26.2523 32.26857,9.651 77.92054,31.4542 100.00036,14.0551 39.11333,-30.8217 71.81361,-18.0386 71.81361,-18.0386 m -48.97097,-4.2329 c 0,0 6.56643,-0.6423 9.74991,-9.4871 3.18343,-8.8446 0.68218,-13.8839 0.68218,-13.8839 m 2.13853,19.5118 c 0.41804,-0.3924 4.98349,-1.3841 8.20262,-6.6909 4.36006,-7.1876 2.25779,-11.8177 2.25779,-11.8177 m 1.59909,16.1431 c 0.41804,-0.3924 1.90795,-0.4274 5.36949,-4.353 4.54379,-5.1531 3.35241,-9.7121 3.35241,-9.7121 m 1.50324,13.5367 c 0.41804,-0.3923 3.86338,-1.2454 6.2858,-3.7692 3.44219,-3.5865 2.66905,-5.721 2.66905,-5.721 m 0.48784,10.2985 c 0.41802,-0.3923 2.22394,-0.2692 4.20659,-1.8243 2.46688,-1.935 2.407,-4.0231 2.407,-4.0231 m 0.75385,8.2571 c 0.41801,-0.3924 1.97428,-0.6945 3.31895,-1.5868 1.49454,-0.9917 1.77967,-2.5594 1.77967,-2.5594 m 0.31227,8.137 c 0.20149,-0.5362 1.62218,-0.4883 3.06522,-0.6991 1.51212,-0.2211 2.07602,-1.5865 2.07602,-1.5865 m -258.59912,49.3393 c 0,0 15.05159,-26.9066 51.98348,-23.2437 63.51455,6.2995 66.25482,36.2135 154.61053,34.9974 98.38827,-1.3541 111.51185,-31.5393 111.51185,-31.5393 m -34.05952,28.0506 c 0,0 20.82134,-5.193 41.93862,1.9233 13.7114,4.6206 16.66806,13.0256 16.66806,13.0256 m -12.95251,-60.6968 c 0,0 -3.1006,0.9239 -2.90453,4.8846 0.24957,5.0404 3.86873,9.0344 3.74128,14.9775 -0.1759,8.2011 -16.09731,17.6851 -16.09731,17.6851 0,0 15.93266,-4.5724 29.4586,2.5352 9.70513,5.0998 10.26025,9.2684 15.59912,11.1431 8.75206,3.0733 11.71127,-2.8496 11.71127,-2.8496 m -29.7282,-46.9893 c 0,0 -1.93641,1.3836 -1.84297,5.4087 0.0762,3.2799 3.13107,6.3992 2.80697,10.9669 -0.39598,5.5757 -6.87106,10.3127 -6.87106,10.3127 0,0 9.45735,-2.112 18.73087,-0.2085 7.14852,1.4673 10.10018,4.8506 13.9229,5.9719 6.26663,1.8383 8.55308,-0.8054 8.55308,-0.8054 m -24.0594,-33.289 c 0,0 -2.24837,1.0849 -1.90336,4.2603 0.34848,3.2077 1.87448,4.2004 2.07375,7.0935 0.28894,4.1955 -3.35037,8.3767 -3.35037,8.3767 0,0 7.3421,-4.8307 14.63828,-4.1153 5.62425,0.5514 7.91829,3.0095 10.98695,3.3272 5.73475,0.5937 6.87579,-2.2453 6.87579,-2.2453 m -20.51777,-21.2946 c 0,0 -1.70515,0.7325 -1.84959,2.9832 -0.15308,2.3857 1.36706,3.1778 1.52219,5.1972 0.25849,3.3642 -1.41605,5.1384 -1.41605,5.1384 0,0 5.31844,-3.7499 10.31296,-3.872 3.84999,-0.094 5.56764,1.3643 8.63379,1.7857 4.96983,0.6832 4.98009,-3.2353 4.98009,-3.2353 m -14.13388,-15.8234 c 0,0 -1.18537,0.1602 -1.01212,2.0109 0.10086,1.0771 1.10116,1.0725 1.12418,3.7829 0.0217,2.5845 -1.26754,4.3851 -1.26754,4.3851 0,0 3.85208,-3.3558 6.17634,-3.81 2.12644,-0.4155 3.44135,0.301 5.3603,0.2987 5.01651,-0.01 4.98007,-3.2353 4.98007,-3.2353 m -8.85834,-3.038 c 0,0 7.87181,-5.2573 6.56915,-16.0879 -1.10744,-9.2081 3.34281,-12.472 3.34281,-12.472 m -12.80995,23.8927 c 0,0 3.40855,-2.5113 3.9488,-6.8635 0.54025,-4.3524 -2.13663,-7.0293 -2.13663,-7.0293 m 11.89093,0.7337 c 0,0 0.56221,-2.5179 4.75912,-4.9036 4.18602,-2.3795 6.17005,-1.6767 6.17005,-1.6767 m -439.47168,63.7399 c 0,0 1.3083,-14.2998 14.6137,-13.5258 11.84723,0.6891 19.50536,-1.564 25.68694,-6.9094 6.13238,-5.3028 7.00992,-17.2819 3.87975,-23.1036 -3.61068,-6.7154 -10.84464,-8.4239 -10.84464,-8.4239 m 15.32066,4.6063 c 0,0 -0.15653,-0.9615 1.80145,-3.0557 2.13324,-2.2817 4.4824,-2.2148 4.4824,-2.2148 m -6.53634,-5.0923 c 0,0 -1.74231,0.2522 -3.35508,1.7018 -1.67539,1.5058 -1.84492,2.3246 -1.84492,2.3246 m -3.06084,-7.0916 c 0,0 -1.27844,0.8373 -1.76801,1.5792 -0.73122,1.1082 -1.02207,1.9493 -1.02207,1.9493 M 195.37371,1339.256 c 0,0 16.94057,32.4119 67.78639,34.2622 53.05922,1.9308 68.38383,-20.6009 109.47451,-21.1253 75.33369,-0.9614 86.68931,36.3972 86.68931,36.3972 m -54.79083,-46.2162 c 0,0 8.5816,4.769 19.96138,-3.3651 11.37966,-8.1338 12.58109,-16.4188 12.58109,-16.4188 m -13.88932,25.6945 c 0.84364,-0.1267 7.27143,2.5217 15.70166,-1.2511 11.41816,-5.11 12.76178,-12.5564 12.76178,-12.5564 M 439.95,1355.7912 c 0.84365,-0.1267 2.69722,1.091 10.2557,-0.786 9.92177,-2.464 12.32034,-9.0528 12.32034,-9.0528 m -9.61204,17.8426 c 0.84368,-0.1266 5.78299,1.7439 10.88355,0.7037 7.24785,-1.4781 8.10724,-4.7451 8.10724,-4.7451 m -8.11542,13.0195 c 0.84362,-0.1266 2.95019,1.5519 6.69284,1.3256 4.65682,-0.2817 6.35009,-2.8885 6.35009,-2.8885 m -6.06274,10.7456 c 0.84362,-0.1268 3.00435,0.8201 5.40527,0.8654 2.66856,0.05 4.3439,-1.6275 4.3439,-1.6275 m -6.50175,10.2251 c 0.70026,-0.4859 2.39891,0.7746 4.3437,1.7374 2.03809,1.0086 3.88351,-0.1857 3.88351,-0.1857 m -286.95403,-75.3033 c 0,0 26.32558,34.3711 152.28489,-27.797 193.13146,-95.3215 225.70006,43.2447 358.43365,70.0363 120.58408,24.3393 154.05362,-16.5229 154.05362,-16.5229 m -65.29558,35.9378 c 0,0 9.34274,-3.0168 18.9318,7.1671 9.58895,10.1838 9.16311,18.5445 9.16311,18.5445 m -8.65022,-27.8979 c 0.80317,0.2876 7.62217,-1.0657 15.16212,4.2683 10.21232,7.2246 10.08841,14.7903 10.08841,14.7903 m -7.38906,-22.9804 c 0.80316,0.2876 2.85741,-0.5479 9.90928,2.7574 9.25672,4.3388 10.33387,11.2674 10.33387,11.2674 m -5.97452,-19.3663 c 0.80316,0.2875 6.01122,-0.5909 10.81378,1.4173 6.82434,2.8538 7.03476,6.2254 7.03476,6.2254 m -5.44034,-14.3446 c 0.80312,0.2875 3.19489,-0.9512 6.82288,0 4.51407,1.1783 5.67044,4.0636 5.67044,4.0636 m -3.86691,-11.7162 c 0.80315,0.2876 3.1063,-0.2228 5.47055,0.1977 2.62779,0.4674 3.94648,2.4379 3.94648,2.4379 m -4.39845,-11.2906 c 0.59288,0.6124 2.50351,-0.2953 4.59796,-0.8633 2.19485,-0.5948 3.77402,0.9343 3.77402,0.9343" /></g></svg>
