<?xml version="1.0" encoding="UTF-8" standalone="no"?>
<!-- Created with Inkscape (http://www.inkscape.org/) -->

<svg
   width="1920"
   height="1080"
   viewBox="0 0 1920 1080"
   version="1.1"
   id="svg5"
   inkscape:version="1.2.2 (b0a8486541, 2022-12-01)"
   sodipodi:docname="jl-site-frame-contentpages-desktop.svg"
   xml:space="preserve"
   xmlns:inkscape="http://www.inkscape.org/namespaces/inkscape"
   xmlns:sodipodi="http://sodipodi.sourceforge.net/DTD/sodipodi-0.dtd"
   xmlns:xlink="http://www.w3.org/1999/xlink"
   xmlns="http://www.w3.org/2000/svg"
   xmlns:svg="http://www.w3.org/2000/svg"><sodipodi:namedview
     id="namedview7"
     pagecolor="#505050"
     bordercolor="#ffffff"
     borderopacity="1"
     inkscape:showpageshadow="0"
     inkscape:pageopacity="0"
     inkscape:pagecheckerboard="1"
     inkscape:deskcolor="#505050"
     inkscape:document-units="px"
     showgrid="false"
     inkscape:zoom="0.36388287"
     inkscape:cx="1037.4217"
     inkscape:cy="284.43219"
     inkscape:window-width="1366"
     inkscape:window-height="722"
     inkscape:window-x="0"
     inkscape:window-y="0"
     inkscape:window-maximized="1"
     inkscape:current-layer="svg5"
     showguides="true" /><defs
     id="defs2"><rect
       x="132.20558"
       y="153.81726"
       width="316.09216"
       height="66.211838"
       id="rect84771" /><rect
       x="522.78316"
       y="148.66823"
       width="1236.4733"
       height="865.48825"
       id="rect64021" /><linearGradient
       id="linearGradient6061-1"><stop
         style="stop-color:#e8e2da;stop-opacity:0;"
         offset="0"
         id="stop9525" /><stop
         style="stop-color:#69190d;stop-opacity:0.22;"
         offset="0.11359598"
         id="stop9527" /><stop
         style="stop-color:#a52c16;stop-opacity:0.55000001;"
         offset="0.22"
         id="stop9529" /><stop
         style="stop-color:#eb7513;stop-opacity:0.88;"
         offset="0.33000001"
         id="stop9531" /><stop
         style="stop-color:#f2c62a;stop-opacity:1;"
         offset="0.5"
         id="stop9533" /><stop
         style="stop-color:#5e9a0e;stop-opacity:0.88;"
         offset="0.66000003"
         id="stop9535" /><stop
         style="stop-color:#0e4d0e;stop-opacity:0.55000001;"
         offset="0.76999998"
         id="stop9537" /><stop
         style="stop-color:#073720;stop-opacity:0.22;"
         offset="0.88"
         id="stop9539" /><stop
         style="stop-color:#e8e2da;stop-opacity:0;"
         offset="1"
         id="stop9541" /></linearGradient><linearGradient
       id="linearGradient6061"><stop
         style="stop-color:#e8e2da;stop-opacity:0;"
         offset="0"
         id="stop9506" /><stop
         style="stop-color:#69190d;stop-opacity:0.22;"
         offset="0.11359598"
         id="stop9508" /><stop
         style="stop-color:#a52c16;stop-opacity:0.55000001;"
         offset="0.22"
         id="stop9510" /><stop
         style="stop-color:#eb7513;stop-opacity:0.88;"
         offset="0.33000001"
         id="stop9512" /><stop
         style="stop-color:#f2c62a;stop-opacity:1;"
         offset="0.5"
         id="stop9514" /><stop
         style="stop-color:#5e9a0e;stop-opacity:0.88;"
         offset="0.66000003"
         id="stop9516" /><stop
         style="stop-color:#0e4d0e;stop-opacity:0.55000001;"
         offset="0.76999998"
         id="stop9518" /><stop
         style="stop-color:#073720;stop-opacity:0.22;"
         offset="0.88"
         id="stop9520" /><stop
         style="stop-color:#e8e2da;stop-opacity:0;"
         offset="1"
         id="stop9522" /></linearGradient><rect
       x="676.6927"
       y="29.501663"
       width="1725.2808"
       height="58.477051"
       id="rect6077" /><rect
       x="1797.4476"
       y="32.03938"
       width="1182.022"
       height="74.537186"
       id="rect6071" /><linearGradient
       id="linearGradient6061-2"><stop
         style="stop-color:#e8e2da;stop-opacity:0;"
         offset="0"
         id="stop6057" /><stop
         style="stop-color:#69190d;stop-opacity:0.22;"
         offset="0.11359598"
         id="stop2182" /><stop
         style="stop-color:#a52c16;stop-opacity:0.55000001;"
         offset="0.22"
         id="stop2186" /><stop
         style="stop-color:#eb7513;stop-opacity:0.88;"
         offset="0.33000001"
         id="stop6065" /><stop
         style="stop-color:#f2c62a;stop-opacity:1;"
         offset="0.5"
         id="stop2188" /><stop
         style="stop-color:#5e9a0e;stop-opacity:0.88;"
         offset="0.66000003"
         id="stop2184" /><stop
         style="stop-color:#0e4d0e;stop-opacity:0.55000001;"
         offset="0.76999998"
         id="stop2192" /><stop
         style="stop-color:#073720;stop-opacity:0.22;"
         offset="0.88"
         id="stop9504" /><stop
         style="stop-color:#000000;stop-opacity:0;"
         offset="1"
         id="stop6059" /></linearGradient><rect
       x="1144.2627"
       y="175.90457"
       width="600.52818"
       height="235.33107"
       id="rect22829" /><rect
       x="1152.7903"
       y="173.17295"
       width="642.74494"
       height="418.02634"
       id="rect22823" /><rect
       x="139.99581"
       y="174.04989"
       width="559.98791"
       height="395.49895"
       id="rect22817" /><rect
       x="145.0775"
       y="180.81232"
       width="697.10984"
       height="181.23741"
       id="rect22399" /><linearGradient
       id="linearGradient5077-1"><stop
         style="stop-color:#35031a;stop-opacity:1;"
         offset="0"
         id="stop6247" /><stop
         style="stop-color:#9f260a;stop-opacity:1;"
         offset="0.22"
         id="stop6249" /><stop
         style="stop-color:#d37a0d;stop-opacity:1;"
         offset="0.44"
         id="stop6251" /><stop
         style="stop-color:#076909;stop-opacity:1;"
         offset="0.76999998"
         id="stop6253" /><stop
         style="stop-color:#07466a;stop-opacity:1;"
         offset="0.88"
         id="stop6255" /><stop
         style="stop-color:#35031a;stop-opacity:1"
         offset="1"
         id="stop6257" /></linearGradient><linearGradient
       id="linearGradient5077"><stop
         style="stop-color:#35031a;stop-opacity:1"
         offset="0"
         id="stop6244" /><stop
         style="stop-color:#07466a;stop-opacity:1;"
         offset="0.14491931"
         id="stop6242" /><stop
         style="stop-color:#076909;stop-opacity:1;"
         offset="0.46923536"
         id="stop6240" /><stop
         style="stop-color:#d37a0d;stop-opacity:1;"
         offset="0.74955529"
         id="stop6238" /><stop
         style="stop-color:#9f260a;stop-opacity:1;"
         offset="0.8828578"
         id="stop6236" /><stop
         style="stop-color:#35031a;stop-opacity:1;"
         offset="1"
         id="stop6234" /></linearGradient><linearGradient
       id="linearGradient5978"><stop
         style="stop-color:#35031a;stop-opacity:1;"
         offset="0"
         id="stop5966" /><stop
         style="stop-color:#9f260a;stop-opacity:1;"
         offset="0.22"
         id="stop5968" /><stop
         style="stop-color:#d37a0d;stop-opacity:1;"
         offset="0.44"
         id="stop5970" /><stop
         style="stop-color:#076909;stop-opacity:1;"
         offset="0.76999998"
         id="stop5972" /><stop
         style="stop-color:#07466a;stop-opacity:1;"
         offset="0.88"
         id="stop5974" /><stop
         style="stop-opacity:0"
         offset="1"
         id="stop5976" /></linearGradient><linearGradient
       id="linearGradient5077-2"><stop
         style="stop-color:#35031a;stop-opacity:1;"
         offset="0"
         id="stop5065" /><stop
         style="stop-color:#9f260a;stop-opacity:1;"
         offset="0.33126885"
         id="stop5067" /><stop
         style="stop-color:#d37a0d;stop-opacity:1;"
         offset="0.33126885"
         id="stop5069" /><stop
         style="stop-color:#076909;stop-opacity:1;"
         offset="0.76338273"
         id="stop5071" /><stop
         style="stop-color:#07466a;stop-opacity:1;"
         offset="0.88"
         id="stop5073" /><stop
         style="stop-color:#35031a;stop-opacity:1"
         offset="1"
         id="stop5075" /></linearGradient><linearGradient
       id="linearGradient4914"><stop
         style="stop-color:#000000;stop-opacity:1;"
         offset="0"
         id="stop4918" /><stop
         style="stop-color:#000000;stop-opacity:0;"
         offset="1"
         id="stop4920" /></linearGradient><linearGradient
       id="linearGradient4914-1"
       inkscape:swatch="gradient"><stop
         style="stop-color:#000000;stop-opacity:1;"
         offset="0"
         id="stop4910" /><stop
         style="stop-color:#000000;stop-opacity:0;"
         offset="1"
         id="stop4912" /></linearGradient><linearGradient
       id="Rainbowie"
       inkscape:swatch="gradient"><stop
         style="stop-color:#35031a;stop-opacity:1;"
         offset="0.11"
         id="stop4760" /><stop
         style="stop-color:#6a1907;stop-opacity:1;"
         offset="0.22"
         id="stop4762" /><stop
         style="stop-color:#d3560d;stop-opacity:1;"
         offset="0.44"
         id="stop4764" /><stop
         style="stop-color:#d29e0e;stop-opacity:1;"
         offset="0.55000001"
         id="stop4766" /><stop
         style="stop-color:#07692e;stop-opacity:1;"
         offset="0.88"
         id="stop4768" /><stop
         style="stop-color:#076769;stop-opacity:1;"
         offset="0.99880683"
         id="stop4770" /></linearGradient><linearGradient
       id="Rainbowie-10"><stop
         style="stop-color:#35031a;stop-opacity:1;"
         offset="0.11"
         id="stop4760-6" /><stop
         style="stop-color:#6a1907;stop-opacity:1;"
         offset="0.22"
         id="stop4762-1" /><stop
         style="stop-color:#d3560d;stop-opacity:1;"
         offset="0.44"
         id="stop4764-5" /><stop
         style="stop-color:#d29e0e;stop-opacity:1;"
         offset="0.55000001"
         id="stop4766-9" /><stop
         style="stop-color:#07692e;stop-opacity:1;"
         offset="0.88"
         id="stop4768-4" /><stop
         style="stop-color:#076769;stop-opacity:1;"
         offset="0.99880683"
         id="stop4770-9" /></linearGradient><linearGradient
       xlink:href="#linearGradient5077-1"
       id="linearGradient5021"
       x1="150.16481"
       y1="468.45493"
       x2="240.06136"
       y2="600.76404"
       gradientUnits="userSpaceOnUse" /><linearGradient
       xlink:href="#linearGradient5077-1"
       id="linearGradient5055"
       x1="673.78912"
       y1="67.176918"
       x2="440.46896"
       y2="549.38538"
       gradientUnits="userSpaceOnUse" /><linearGradient
       xlink:href="#linearGradient5077-1"
       id="linearGradient5063"
       x1="272.62979"
       y1="233.06071"
       x2="602.46735"
       y2="389.97263"
       gradientUnits="userSpaceOnUse" /><linearGradient
       xlink:href="#linearGradient5077-1"
       id="linearGradient5085"
       x1="240.41537"
       y1="575.26831"
       x2="740.96198"
       y2="169.36858"
       gradientUnits="userSpaceOnUse" /><linearGradient
       xlink:href="#linearGradient5077-1"
       id="linearGradient5093"
       x1="203.44667"
       y1="318.94632"
       x2="563.63208"
       y2="842.80829"
       gradientUnits="userSpaceOnUse" /><rect
       x="676.6927"
       y="29.501663"
       width="264.4473"
       height="96.707763"
       id="rect10974" /><rect
       x="676.6927"
       y="29.501663"
       width="264.4473"
       height="96.707763"
       id="rect11029" /><rect
       x="676.6927"
       y="29.501663"
       width="264.4473"
       height="96.707763"
       id="rect11057" /><rect
       x="676.6927"
       y="29.501663"
       width="264.4473"
       height="96.707763"
       id="rect11068" /><rect
       x="676.6927"
       y="29.501663"
       width="264.4473"
       height="96.707763"
       id="rect11085" /><linearGradient
       id="glow-master"><stop
         offset="0.0"
         style="stop-color:#000000;stop-opacity:0.0;"
         id="stop58190" /><stop
         offset="0.11"
         style="stop-color:#442204;stop-opacity:0.22;"
         id="stop58192" /><stop
         offset="0.22"
         style="stop-color:#69190d;stop-opacity:0.44;"
         id="stop58194" /><stop
         offset="0.33"
         style="stop-color:#a52c16;stop-opacity:0.659;"
         id="stop58196" /><stop
         offset="0.44"
         style="stop-color:#eb7513;stop-opacity:0.878;"
         id="stop58198" /><stop
         offset="0.55"
         style="stop-color:#f2c62a;stop-opacity:1.0;"
         id="stop58200" /><stop
         offset="0.66"
         style="stop-color:#5e9a0e;stop-opacity:0.878;"
         id="stop58202" /><stop
         offset="0.77"
         style="stop-color:#0e4d0e;stop-opacity:0.659;"
         id="stop58204" /><stop
         offset="0.88"
         style="stop-color:#073720;stop-opacity:0.44;"
         id="stop58206" /><stop
         offset="0.94"
         style="stop-color:#442204;stop-opacity:0.22;"
         id="stop58208" /><stop
         offset="1.0"
         style="stop-color:#000000;stop-opacity:0.0;"
         id="stop58210" /></linearGradient><filter
       id="glow-filter-statics"
       x="-0.021505839"
       y="-0.045869909"
       width="1.043012"
       height="1.0917406"><feGaussianBlur
         stdDeviation="3"
         id="feGaussianBlur58213" /></filter><filter
       id="glow-filter-geometrics"
       x="-0.28886055"
       y="-0.14613251"
       width="1.5776742"
       height="1.2922413"><feGaussianBlur
         stdDeviation="3"
         id="feGaussianBlur58216" /></filter><filter
       id="glow-filter-organics"
       x="-0.019460982"
       y="-0.11580739"
       width="1.0379188"
       height="1.2257643"><feGaussianBlur
         stdDeviation="3"
         id="feGaussianBlur58219" /></filter><linearGradient
       xlink:href="#glow-master"
       id="glow-applied-1"
       gradientUnits="userSpaceOnUse"
       x1="383.9701674648067"
       y1="-186.35368385802718"
       x2="181.06749253519325"
       y2="371.1168338580272" /><linearGradient
       xlink:href="#glow-master"
       id="glow-applied-2"
       gradientUnits="userSpaceOnUse"
       x1="411.0237454648067"
       y1="-128.63345985802718"
       x2="208.12107053519327"
       y2="428.83705785802715" /><linearGradient
       xlink:href="#glow-master"
       id="glow-applied-3"
       gradientUnits="userSpaceOnUse"
       x1="555.3619754648067"
       y1="-19.070979858027187"
       x2="352.4593005351933"
       y2="538.3995378580272" /><linearGradient
       xlink:href="#glow-master"
       id="glow-applied-8"
       gradientUnits="userSpaceOnUse"
       x1="7.493969747811775"
       y1="-18.735681298533024"
       x2="557.5436902521882"
       y2="203.49883129853302" /><linearGradient
       xlink:href="#glow-master"
       id="glow-applied-9"
       gradientUnits="userSpaceOnUse"
       x1="178.88577974781177"
       y1="148.54702870146699"
       x2="728.9355002521881"
       y2="370.78154129853306" /><linearGradient
       xlink:href="#glow-master"
       id="glow-applied-10"
       gradientUnits="userSpaceOnUse"
       x1="-177.28470890698708"
       y1="54.179580584407006"
       x2="260.1596369809333"
       y2="454.91056000437584" /><linearGradient
       xlink:href="#glow-master"
       id="glow-applied-12"
       gradientUnits="userSpaceOnUse"
       x1="-14.105036882032152"
       y1="92.381575"
       x2="579.1426968820322"
       y2="92.381575" /><linearGradient
       xlink:href="#glow-master"
       id="glow-applied-13"
       gradientUnits="userSpaceOnUse"
       x1="169.6479001917157"
       y1="272.9028010837951"
       x2="761.7810242837492"
       y2="309.25162457516296" /><linearGradient
       xlink:href="#glow-master"
       id="glow-applied-14"
       gradientUnits="userSpaceOnUse"
       x1="174.60424890413492"
       y1="282.8332680150928"
       x2="767.67232490026"
       y2="268.2342663214029" /><filter
       id="glow-filter-statics-5"
       x="-0.01849793"
       y="-0.061762975"
       width="1.0369962"
       height="1.123527"><feGaussianBlur
         stdDeviation="3"
         id="feGaussianBlur58512" /></filter><filter
       id="glow-filter-geometrics-7"
       x="-0.29547231"
       y="-0.29547231"
       width="1.5909446"
       height="1.5909446"><feGaussianBlur
         stdDeviation="3"
         id="feGaussianBlur58515" /></filter><filter
       id="glow-filter-organics-0"
       x="-0.063066905"
       y="-0.10059881"
       width="1.1261641"
       height="1.2011784"><feGaussianBlur
         stdDeviation="3"
         id="feGaussianBlur58518" /></filter><linearGradient
       xlink:href="#glow-master"
       id="glow-applied-1-8"
       gradientUnits="userSpaceOnUse"
       x1="491.538689471146"
       y1="-276.10520579240085"
       x2="237.51984052885405"
       y2="421.8058457924009" /><linearGradient
       xlink:href="#glow-master"
       id="glow-applied-2-1"
       gradientUnits="userSpaceOnUse"
       x1="518.592267471146"
       y1="-225.32247079240085"
       x2="264.57341852885406"
       y2="472.5885807924009" /><linearGradient
       xlink:href="#glow-master"
       id="glow-applied-3-9"
       gradientUnits="userSpaceOnUse"
       x1="662.930497471146"
       y1="-115.75999079240086"
       x2="408.9116485288541"
       y2="582.1510607924008" /><linearGradient
       xlink:href="#glow-master"
       id="glow-applied-8-9"
       gradientUnits="userSpaceOnUse"
       x1="20.21887847596645"
       y1="-66.2601059831493"
       x2="708.8396515240336"
       y2="211.9607459831493" /><linearGradient
       xlink:href="#glow-master"
       id="glow-applied-9-7"
       gradientUnits="userSpaceOnUse"
       x1="191.61068847596644"
       y1="94.08511401685071"
       x2="880.2314615240335"
       y2="372.30596598314935" /><linearGradient
       xlink:href="#glow-master"
       id="glow-applied-10-8"
       gradientUnits="userSpaceOnUse"
       x1="-144.4257666629008"
       y1="8.318780139801156"
       x2="403.2215684809576"
       y2="510.0037488721732" /><linearGradient
       xlink:href="#glow-master"
       id="glow-applied-11"
       gradientUnits="userSpaceOnUse"
       x1="-6.821449130917813"
       y1="72.85032"
       x2="735.8799791309178"
       y2="72.85032" /><linearGradient
       xlink:href="#glow-master"
       id="glow-applied-12-2"
       gradientUnits="userSpaceOnUse"
       x1="178.53957069959242"
       y1="246.93005455115545"
       x2="919.84559170025"
       y2="292.4360406446696" /><linearGradient
       xlink:href="#glow-master"
       id="glow-applied-13-5"
       gradientUnits="userSpaceOnUse"
       x1="192.78451891313256"
       y1="170.1310443305959"
       x2="814.1245164478995"
       y2="989.0681778015513" /><linearGradient
       xlink:href="#glow-master"
       id="glow-applied-21"
       gradientUnits="userSpaceOnUse"
       x1="178.74149815613637"
       y1="241.471000595806"
       x2="921.3836269939569"
       y2="250.85588061687397" /><filter
       id="glow-filter-statics-1"
       x="-0.01849793"
       y="-0.036482185"
       width="1.0369962"
       height="1.072965"><feGaussianBlur
         stdDeviation="3"
         id="feGaussianBlur58854" /></filter><filter
       id="glow-filter-geometrics-0"
       x="-0.065209876"
       y="-0.116392"
       width="1.130398"
       height="1.2328229"><feGaussianBlur
         stdDeviation="3"
         id="feGaussianBlur58857" /></filter><filter
       id="glow-filter-organics-1"
       x="-0.012555066"
       y="-0.036726713"
       width="1.0251101"
       height="1.0715607"><feGaussianBlur
         stdDeviation="3"
         id="feGaussianBlur58860" /></filter><linearGradient
       xlink:href="#glow-master"
       id="glow-applied-1-3"
       gradientUnits="userSpaceOnUse"
       x1="497.98253391054874"
       y1="-219.789486656566"
       x2="229.6132260894513"
       y2="517.5491266565659" /><linearGradient
       xlink:href="#glow-master"
       id="glow-applied-2-7"
       gradientUnits="userSpaceOnUse"
       x1="525.0361119105487"
       y1="-163.750041656566"
       x2="256.6668040894513"
       y2="573.5885716565659" /><linearGradient
       xlink:href="#glow-master"
       id="glow-applied-3-7"
       gradientUnits="userSpaceOnUse"
       x1="669.3743419105488"
       y1="-54.187561656566004"
       x2="401.0050340894513"
       y2="683.1510516565659" /><linearGradient
       xlink:href="#glow-master"
       id="glow-applied-9-6"
       gradientUnits="userSpaceOnUse"
       x1="0.0361336106153658"
       y1="1.9105345030914407"
       x2="727.5596263893847"
       y2="295.8491054969086" /><linearGradient
       xlink:href="#glow-master"
       id="glow-applied-10-4"
       gradientUnits="userSpaceOnUse"
       x1="171.42794361061536"
       y1="167.51246450309145"
       x2="898.9514363893846"
       y2="461.4510354969086" /><linearGradient
       xlink:href="#glow-master"
       id="glow-applied-11-5"
       gradientUnits="userSpaceOnUse"
       x1="-189.0365228558783"
       y1="70.03425163293498"
       x2="389.54942411065934"
       y2="600.0612490922551" /><linearGradient
       xlink:href="#glow-master"
       id="glow-applied-16"
       gradientUnits="userSpaceOnUse"
       x1="-28.53180153802333"
       y1="148.87982"
       x2="756.1275615380234"
       y2="148.87982" /><linearGradient
       xlink:href="#glow-master"
       id="glow-applied-17"
       gradientUnits="userSpaceOnUse"
       x1="151.88952608437597"
       y1="326.7333311804086"
       x2="935.0746502117377"
       y2="374.8101177672469" /><linearGradient
       xlink:href="#glow-master"
       id="glow-applied-18"
       gradientUnits="userSpaceOnUse"
       x1="309.46558311667775"
       y1="359.9430179541543"
       x2="494.4496199431885"
       y2="-402.5995855653313" /><linearGradient
       xlink:href="#glow-master"
       id="glow-applied-27"
       gradientUnits="userSpaceOnUse"
       x1="325.0228860899596"
       y1="94.62593890469084"
       x2="622.4539743849498"
       y2="1139.1472967994782" /><filter
       id="glow-filter-statics-0"
       x="-0.016460317"
       y="-0.016915177"
       width="1.0329209"
       height="1.0338306"><feGaussianBlur
         stdDeviation="3"
         id="feGaussianBlur59280" /></filter><filter
       id="glow-filter-geometrics-4"
       x="-0.10131056"
       y="-0.091394094"
       width="1.2026211"
       height="1.1827882"><feGaussianBlur
         stdDeviation="3"
         id="feGaussianBlur59283" /></filter><filter
       id="glow-filter-organics-08"
       x="-0.081550549"
       y="-0.079631281"
       width="1.1629602"
       height="1.1592501"><feGaussianBlur
         stdDeviation="3"
         id="feGaussianBlur59286" /></filter><linearGradient
       xlink:href="#glow-master"
       id="glow-applied-1-5"
       gradientUnits="userSpaceOnUse"
       x1="470.4503345058871"
       y1="-130.77032070338703"
       x2="184.36100549411285"
       y2="655.253650703387" /><linearGradient
       xlink:href="#glow-master"
       id="glow-applied-3-6"
       gradientUnits="userSpaceOnUse"
       x1="614.788564505887"
       y1="-21.207840703387035"
       x2="328.6992354941128"
       y2="764.816130703387" /><linearGradient
       xlink:href="#glow-master"
       id="glow-applied-10-9"
       gradientUnits="userSpaceOnUse"
       x1="-60.37471662329148"
       y1="105.56821893969365"
       x2="715.1860566232915"
       y2="418.91511106030634" /><linearGradient
       xlink:href="#glow-master"
       id="glow-applied-11-6"
       gradientUnits="userSpaceOnUse"
       x1="83.96351337670853"
       y1="215.13069893969364"
       x2="859.5242866232916"
       y2="528.4775910603064" /><linearGradient
       xlink:href="#glow-master"
       id="glow-applied-12-4"
       gradientUnits="userSpaceOnUse"
       x1="-287.63631780422924"
       y1="84.02007456704607"
       x2="329.1527878026012"
       y2="649.0439563678165" /><linearGradient
       xlink:href="#glow-master"
       id="glow-applied-17-1"
       gradientUnits="userSpaceOnUse"
       x1="-90.82894950216547"
       y1="262.241665"
       x2="745.6402895021654"
       y2="262.241665" /><linearGradient
       xlink:href="#glow-master"
       id="glow-applied-18-0"
       gradientUnits="userSpaceOnUse"
       x1="59.194478466792106"
       y1="378.4734319135356"
       x2="894.0921367450829"
       y2="429.7246563077939" /><linearGradient
       xlink:href="#glow-master"
       id="glow-applied-19"
       gradientUnits="userSpaceOnUse"
       x1="160.50477587567255"
       y1="554.7440391723701"
       x2="1091.6010497661186"
       y2="-133.33447991388354" /><linearGradient
       xlink:href="#glow-master"
       id="glow-applied-24"
       gradientUnits="userSpaceOnUse"
       x1="344.1077662208541"
       y1="460.28906434601265"
       x2="541.3060203850937"
       y2="-352.60307877942085" /><linearGradient
       xlink:href="#glow-master"
       id="glow-applied-33"
       gradientUnits="userSpaceOnUse"
       x1="34.997734537319786"
       y1="332.05097097865166"
       x2="836.8867671061198"
       y2="570.0735901692622" /><linearGradient
       xlink:href="#glow-master"
       id="glow-applied-42"
       gradientUnits="userSpaceOnUse"
       x1="85.72171555023576"
       y1="-25.25885190711773"
       x2="1166.8609192636366"
       y2="388.9033626583154" /><filter
       id="glow-filter-statics-3"
       x="-0.0030584788"
       y="-0.0035807741"
       width="1.006117"
       height="1.0071616"><feGaussianBlur
         stdDeviation="3"
         id="feGaussianBlur62573" /></filter><filter
       id="glow-filter-geometrics-5"
       x="-0.0028542306"
       y="-0.015468558"
       width="1.0057072"
       height="1.0309421"><feGaussianBlur
         stdDeviation="3"
         id="feGaussianBlur62576" /></filter><filter
       id="glow-filter-organics-9"
       x="-0.0095203824"
       y="-0.0029092925"
       width="1.0190787"
       height="1.005825"><feGaussianBlur
         stdDeviation="3"
         id="feGaussianBlur62579" /></filter><linearGradient
       xlink:href="#glow-master"
       id="glow-applied-1-34"
       gradientUnits="userSpaceOnUse"
       x1="483.756621744353"
       y1="534.5949429219985"
       x2="-280.224741744353"
       y2="256.52846707800154" /><linearGradient
       xlink:href="#glow-master"
       id="glow-applied-2-15"
       gradientUnits="userSpaceOnUse"
       x1="757.159101744353"
       y1="-89.58564707800156"
       x2="-6.822261744353"
       y2="-367.6521229219985" /><linearGradient
       xlink:href="#glow-master"
       id="glow-applied-3-0"
       gradientUnits="userSpaceOnUse"
       x1="831.5015234458492"
       y1="-88.52062159494312"
       x2="473.95781314163236"
       y2="641.6512643917996" /><linearGradient
       xlink:href="#glow-master"
       id="glow-applied-7"
       gradientUnits="userSpaceOnUse"
       x1="254.04576516793196"
       y1="18.655911686319655"
       x2="-50.51388516793196"
       y2="772.4674983136804" /><linearGradient
       xlink:href="#glow-master"
       id="glow-applied-8-8"
       gradientUnits="userSpaceOnUse"
       x1="630.8400651679319"
       y1="-501.2334683136803"
       x2="326.28041483206806"
       y2="252.57811831368042" /><linearGradient
       xlink:href="#glow-master"
       id="glow-applied-13-9"
       gradientUnits="userSpaceOnUse"
       x1="101.76593999999997"
       y1="-10.944287805260672"
       x2="101.76594000000003"
       y2="802.0676978052607" /><linearGradient
       xlink:href="#glow-master"
       id="glow-applied-14-0"
       gradientUnits="userSpaceOnUse"
       x1="478.56024"
       y1="-530.8336678052606"
       x2="478.56024"
       y2="282.1783178052607" /><linearGradient
       xlink:href="#glow-master"
       id="glow-applied-15"
       gradientUnits="userSpaceOnUse"
       x1="1020.7614215371123"
       y1="1891.0974648683687"
       x2="261.57867542756526"
       y2="-97.53264938257166" /><linearGradient
       xlink:href="#glow-master"
       id="glow-applied-20"
       gradientUnits="userSpaceOnUse"
       x1="891.8587192828815"
       y1="185.60545752358468"
       x2="85.45725648407836"
       y2="289.0712322706154" /><linearGradient
       xlink:href="#glow-master"
       id="glow-applied-31"
       gradientUnits="userSpaceOnUse"
       x1="1010.84366030559"
       y1="1894.8836859222731"
       x2="251.66091419604317"
       y2="-93.74642832866743" /><linearGradient
       xlink:href="#glow-master"
       id="glow-applied-36"
       gradientUnits="userSpaceOnUse"
       x1="845.0642748041219"
       y1="494.051522260663"
       x2="86.53929272254675"
       y2="201.4283169188634" /><linearGradient
       xlink:href="#glow-master"
       id="glow-applied-45"
       gradientUnits="userSpaceOnUse"
       x1="891.4096161222928"
       y1="250.80983084469224"
       x2="78.4470675152719"
       y2="241.84415693027853" /><linearGradient
       inkscape:collect="always"
       xlink:href="#glow-master"
       id="linearGradient63039"
       gradientUnits="userSpaceOnUse"
       x1="630.8400651679319"
       y1="-501.2334683136803"
       x2="326.28041483206806"
       y2="252.57811831368042" /><rect
       x="676.6927"
       y="29.501663"
       width="286.48212"
       height="34.624266"
       id="rect63957" /><filter
       id="glow-filter-statics-7"
       x="-0.033718494"
       y="-0.034755718"
       width="1.0674376"
       height="1.069512"><feGaussianBlur
         stdDeviation="3"
         id="feGaussianBlur75539" /></filter><filter
       id="glow-filter-geometrics-57"
       x="-0.071652402"
       y="-0.038836494"
       width="1.1433048"
       height="1.077673"><feGaussianBlur
         stdDeviation="3"
         id="feGaussianBlur75542" /></filter><filter
       id="glow-filter-organics-16"
       x="-0.009600832"
       y="-0.040339415"
       width="1.0192017"
       height="1.0806004"><feGaussianBlur
         stdDeviation="3"
         id="feGaussianBlur75545" /></filter><linearGradient
       xlink:href="#glow-master"
       id="glow-applied-1-9"
       gradientUnits="userSpaceOnUse"
       x1="689.4116498739219"
       y1="-335.26204666469175"
       x2="324.91745012607817"
       y2="666.1775366646917" /><linearGradient
       xlink:href="#glow-master"
       id="glow-applied-2-8"
       gradientUnits="userSpaceOnUse"
       x1="200.9867701260781"
       y1="718.8596466646918"
       x2="565.4809698739218"
       y2="-282.5799366646917" /><linearGradient
       xlink:href="#glow-master"
       id="glow-applied-3-1"
       gradientUnits="userSpaceOnUse"
       x1="705.2157358050422"
       y1="585.121951884054"
       x2="273.2761122345355"
       y2="-389.12925919988356" /><linearGradient
       xlink:href="#glow-master"
       id="glow-applied-9-3"
       gradientUnits="userSpaceOnUse"
       x1="13.110115364484727"
       y1="-34.15320358290941"
       x2="1001.2189846355153"
       y2="365.0686935829094" /><linearGradient
       xlink:href="#glow-master"
       id="glow-applied-10-7"
       gradientUnits="userSpaceOnUse"
       x1="-15.559654635515273"
       y1="40.51010341709059"
       x2="972.5492146355153"
       y2="439.73200058290945" /><linearGradient
       xlink:href="#glow-master"
       id="glow-applied-18-4"
       gradientUnits="userSpaceOnUse"
       x1="-25.690322528334434"
       y1="165.457745"
       x2="1040.0194225283344"
       y2="165.457745" /><linearGradient
       xlink:href="#glow-master"
       id="glow-applied-19-8"
       gradientUnits="userSpaceOnUse"
       x1="-54.360092528334434"
       y1="240.121052"
       x2="1011.3496525283344"
       y2="240.121052" /><linearGradient
       xlink:href="#glow-master"
       id="glow-applied-20-1"
       gradientUnits="userSpaceOnUse"
       x1="1604.3763114188246"
       y1="-492.29629602434267"
       x2="-1002.3533919310221"
       y2="502.8531791709917" /><linearGradient
       xlink:href="#glow-master"
       id="glow-applied-25"
       gradientUnits="userSpaceOnUse"
       x1="-349.9421425283344"
       y1="294.12105199999996"
       x2="715.7676025283345"
       y2="294.12105199999996" /><linearGradient
       xlink:href="#glow-master"
       id="glow-applied-34"
       gradientUnits="userSpaceOnUse"
       x1="-347.9421425283344"
       y1="294.12105199999996"
       x2="717.7676025283345"
       y2="294.12105199999996" /><linearGradient
       xlink:href="#glow-master"
       id="glow-applied-45-6"
       gradientUnits="userSpaceOnUse"
       x1="-1019.6062038209138"
       y1="509.43964138677336"
       x2="1587.1234995289328"
       y2="-485.70983380856103" /><linearGradient
       xlink:href="#glow-master"
       id="glow-applied-50"
       gradientUnits="userSpaceOnUse"
       x1="715.7675925283345"
       y1="294.12105199999996"
       x2="-349.9421525283344"
       y2="294.12105199999996" /><linearGradient
       xlink:href="#glow-master"
       id="glow-applied-59"
       gradientUnits="userSpaceOnUse"
       x1="717.7675925283345"
       y1="294.12105199999996"
       x2="-347.9421525283344"
       y2="294.12105199999996" /><filter
       id="glow-filter-statics-8"
       x="-0.092342767"
       y="-0.09398283"
       width="1.1846871"
       height="1.1879672"><feGaussianBlur
         stdDeviation="3"
         id="feGaussianBlur80925" /></filter><filter
       id="glow-filter-geometrics-8"
       x="-0.092611304"
       y="-0.23432731"
       width="1.1852408"
       height="1.4686546"><feGaussianBlur
         stdDeviation="3"
         id="feGaussianBlur80928" /></filter><filter
       id="glow-filter-organics-4"
       x="-0.009166816"
       y="-0.017031125"
       width="1.0183336"
       height="1.03406"><feGaussianBlur
         stdDeviation="3"
         id="feGaussianBlur80931" /></filter><linearGradient
       xlink:href="#glow-master"
       id="glow-applied-1-56"
       gradientUnits="userSpaceOnUse"
       x1="790.9990407099847"
       y1="-488.64938662577856"
       x2="385.95125929001534"
       y2="624.2102466257786" /><linearGradient
       xlink:href="#glow-master"
       id="glow-applied-2-5"
       gradientUnits="userSpaceOnUse"
       x1="580.7664007099847"
       y1="-498.1051437257786"
       x2="175.71861929001534"
       y2="614.7544895257786" /><linearGradient
       xlink:href="#glow-master"
       id="glow-applied-3-68"
       gradientUnits="userSpaceOnUse"
       x1="163.9427699066115"
       y1="-524.7422184120321"
       x2="643.9400017358421"
       y2="557.9040423723045" /><linearGradient
       xlink:href="#glow-master"
       id="glow-applied-6"
       gradientUnits="userSpaceOnUse"
       x1="39.45227724029007"
       y1="-154.03920917828108"
       x2="1137.4980227597098"
       y2="289.60006917828105" /><linearGradient
       xlink:href="#glow-master"
       id="glow-applied-7-4"
       gradientUnits="userSpaceOnUse"
       x1="-67.38854275970992"
       y1="32.79625082171893"
       x2="1030.65720275971"
       y2="476.43552917828106" /><linearGradient
       xlink:href="#glow-master"
       id="glow-applied-8-88"
       gradientUnits="userSpaceOnUse"
       x1="-67.38854275970992"
       y1="-3.203749178281072"
       x2="1030.65720275971"
       y2="440.43552917828106" /><linearGradient
       xlink:href="#glow-master"
       id="glow-applied-11-2"
       gradientUnits="userSpaceOnUse"
       x1="-3.6650927960013178"
       y1="67.78043"
       x2="1180.6153927960013"
       y2="67.78043" /><linearGradient
       xlink:href="#glow-master"
       id="glow-applied-12-45"
       gradientUnits="userSpaceOnUse"
       x1="-110.50591279600131"
       y1="254.61589"
       x2="1073.7745727960014"
       y2="254.61589" /><linearGradient
       xlink:href="#glow-master"
       id="glow-applied-13-0"
       gradientUnits="userSpaceOnUse"
       x1="768.6041890506917"
       y1="23.717148710584787"
       x2="-298.0447161384021"
       y2="538.2853044239037" /><linearGradient
       xlink:href="#glow-master"
       id="glow-applied-22"
       gradientUnits="userSpaceOnUse"
       x1="758.4382266244506"
       y1="-1.5016997719417162"
       x2="-308.2106785646432"
       y2="513.0664559413772" /><linearGradient
       xlink:href="#glow-master"
       id="glow-applied-33-5"
       gradientUnits="userSpaceOnUse"
       x1="-352.080030411621"
       y1="400.8649224459543"
       x2="802.702127488293"
       y2="138.18938808836117" /><linearGradient
       xlink:href="#glow-master"
       id="glow-applied-42-1"
       gradientUnits="userSpaceOnUse"
       x1="-309.4344115015422"
       y1="509.8821120431536"
       x2="759.2222824989508"
       y2="-0.5031727388099512" /></defs><g
     inkscape:label="Glow"
     transform="matrix(0.55,0,0,0.55,42.3728,612.80615)"
     id="g62700"><path
       id="path12841"
       style="fill:none;stroke:url(#glow-applied-3-0);filter:url(#glow-filter-statics-3);opacity:1;stroke-opacity:1;fill-opacity:1;stroke-width:2;stroke-linecap:round;stroke-linejoin:round;stroke-dasharray:none;paint-order:stroke markers fill"
       inkscape:label="statics"
       transform="matrix(0.72042564,-0.69353218,-0.69353218,-0.72042564,-176.6703,1047.4955)"
       d="M 464.80403,78.447441 321.17459,77.447386 466.16584,-62.527004 464.7798,78.451918 M 464.48079,48.507387 326.93345,48.07323 439.74661,-60.421643 434.73051,77.553427 M 481.0014,95.2501 395.66868,7.0942906 M 358.95652,77.299379 465.31629,-25.025093 M 3002.1983,-1738.5622 c 0,0 -17.4127,-3.1682 -21.3019,-51.6714 -4.7479,-59.2115 -8.5236,-103.9739 -39.2685,-112.2448 m -421.5116,-120.3225 c 0,0 13.7798,4.5826 0.5577,50.3036 -12.5371,43.3524 -187.3864,174.1308 -159.5765,207.7696 m 620.1409,-17.4978 -363.3,-378.0803 139.2492,1.8475 -398.3228,383.3471 m 618.755,-51.2166 -342.1813,-355.7075 101.3349,4.0463 -215.5454,206.7666 m 450.5581,108.9372 -319.8118,-332.4706 70.4188,1.8288 -195.6282,187.5928 m 158.5037,-3.5356 1.8575,-170.9998 m -82.3404,168.9617 162.4983,7.1192 M 1259.8599,-11.704674 c 0,0 -16.3583,11.83354836 -66.2217,-37.204867 -25.4139,-24.993413 -92.9075,-76.875199 -103.6244,-68.008899 M 863.42147,-414.04099 c 0,0 4.73621,7.97891 32.63284,-5.30179 35.74928,-17.01908 43.18676,-44.08973 66.88851,-30.57529 M 1251.6875,-11.609809 835.93496,-442.66448 832.7324,-324.13598 962.25595,-448.9503 m 144.74395,334.79959 -288.09956,-298.96674 -0.49302,56.38819 55.8459,-54.62839 m 17.59801,28.4163 -57.0838,-1.41206" /><path
       id="path13801"
       style="display:inline;fill:none;stroke:url(#linearGradient63039);filter:url(#glow-filter-geometrics-5);opacity:1;stroke-opacity:1;stroke-width:4;stroke-linecap:round;stroke-linejoin:round;paint-order:stroke markers fill"
       inkscape:label="geometrics"
       transform="translate(-376.79431,519.88938)"
       d="m 507.70669,150.57735 a 26.676235,26.676235 0 0 1 -26.67623,26.67623 26.676235,26.676235 0 0 1 -26.67624,-26.67623 26.676235,26.676235 0 0 1 26.67624,-26.67624 26.676235,26.676235 0 0 1 26.67623,26.67624 z m -12.5081,98.44223 a 14.651413,14.651413 0 0 1 -14.65141,14.65141 14.651413,14.651413 0 0 1 -14.65141,-14.65141 14.651413,14.651413 0 0 1 14.65141,-14.65142 14.651413,14.651413 0 0 1 14.65141,14.65142 z m -40.41787,-41.4433 a 13.049182,13.049182 0 0 1 -13.04918,13.04918 13.049182,13.049182 0 0 1 -13.04919,-13.04918 13.049182,13.049182 0 0 1 13.04919,-13.04918 13.049182,13.049182 0 0 1 13.04918,13.04918 z m 78.48222,1.80641 a 12.345821,12.159703 0 0 1 -12.34583,12.1597 12.345821,12.159703 0 0 1 -12.34582,-12.1597 12.345821,12.159703 0 0 1 12.34582,-12.1597 12.345821,12.159703 0 0 1 12.34583,12.1597 z M 3608.2071,-303.88352 a 17.933742,17.933742 0 0 0 -23.0771,10.52075 17.933742,17.933742 0 0 0 10.5207,23.07709 17.933742,17.933742 0 0 0 23.0771,-10.52075 17.933742,17.933742 0 0 0 -10.5207,-23.07709 z m 21.5759,42.55491 a 11.570159,11.570159 0 0 0 -14.8885,6.78758 11.570159,11.570159 0 0 0 6.7876,14.88845 11.570159,11.570159 0 0 0 14.8885,-6.78758 11.570159,11.570159 0 0 0 -6.7876,-14.88845 z m -43.5598,-69.00544 a 8.8066261,8.8066261 0 0 0 -11.3323,5.16637 8.8066261,8.8066261 0 0 0 5.1663,11.33234 8.8066261,8.8066261 0 0 0 11.3324,-5.16637 8.8066261,8.8066261 0 0 0 -5.1664,-11.33234 z m 54.3535,100.03082 a 7.4988734,7.4988734 0 0 0 -9.6496,4.39918 7.4988734,7.4988734 0 0 0 4.3992,9.64954 7.4988734,7.4988734 0 0 0 9.6495,-4.39919 7.4988734,7.4988734 0 0 0 -4.3991,-9.64953 z m 8.2551,24.73932 a 4.8252271,4.8252271 0 0 0 -6.2091,2.8307 4.8252271,4.8252271 0 0 0 2.8307,6.20908 4.8252271,4.8252271 0 0 0 6.2091,-2.83069 4.8252271,4.8252271 0 0 0 -2.8307,-6.20909 z M 1067.5314,197.58586 a 21.229494,21.229494 0 0 1 27.3181,12.45418 21.229494,21.229494 0 0 1 -12.4542,27.31806 21.229494,21.229494 0 0 1 -27.3181,-12.45419 21.229494,21.229494 0 0 1 12.4542,-27.31805 z" /><path
       id="path2178"
       style="display:inline;fill:none;stroke:url(#glow-applied-45);filter:url(#glow-filter-organics-9);opacity:1;stroke-opacity:1;fill-opacity:1;stroke-width:5;stroke-linecap:round;stroke-linejoin:round;stroke-dasharray:none;paint-order:stroke markers fill"
       inkscape:label="organics"
       transform="rotate(-90.631855,367.14613,510.42437)"
       d="m 250.24818,246.41148 c 0,0 15.92553,-24.46493 100.28989,-3.37133 165.22339,41.31074 186.15753,-18.40604 307.32661,11.37286 91.29197,22.43621 116.96651,0.27947 116.96651,0.27947 m -51.76118,8.95151 c 0,0 23.352,5.59517 40.64221,23.56341 11.2265,11.66674 9.82202,21.5376 9.82202,21.5376 m 18.48053,-66.94556 c 0,0 -3.55519,-0.68371 -5.40559,3.34965 -2.35473,5.13278 -0.82393,10.96653 -4.01901,16.80081 -4.40906,8.05095 -25.11216,9.24573 -25.11216,9.24573 0,0 18.17826,3.68714 27.93654,17.72713 7.00174,10.07396 5.40052,14.49896 9.7328,19.11675 7.10192,7.57003 13.09791,3.21779 13.09791,3.21779 m -5.25139,-61.99887 c 0,0 -2.63679,0.37379 -4.6223,4.41808 -1.61785,3.29549 -0.19564,7.96958 -2.87582,12.33688 -3.27167,5.33116 -12.14609,6.69043 -12.14609,6.69043 0,0 10.47947,2.78628 18.70309,9.46419 6.33916,5.14772 7.52264,10.03049 10.73871,13.11753 5.27214,5.06061 8.90709,3.61653 8.90709,3.61653 m -6.69741,-45.47075 c 0,0 -2.7923,-0.0838 -4.08931,3.24675 -1.31025,3.36443 -0.30788,5.13792 -1.60384,8.11299 -1.87935,4.31425 -7.65119,6.58615 -7.65119,6.58615 0,0 9.78319,-1.00484 16.65722,3.4726 5.29886,3.45136 6.30709,7.07623 9.18955,8.97601 5.38672,3.55041 7.98537,1.32107 7.98537,1.32107 m -9.37439,-31.73444 c 0,0 -2.07106,-0.1532 -3.37655,2.00665 -1.38373,2.28945 -0.2836,3.86067 -1.17227,5.94557 -1.48037,3.47327 -4.05888,4.37007 -4.05888,4.37007 0,0 7.21615,-0.97676 12.23757,1.48086 3.87071,1.89444 4.82298,4.22911 7.64932,6.23068 4.58112,3.24431 6.61455,-0.64056 6.61455,-0.64056 m -5.86165,-23.00662 c 0,0 -1.2595,-0.45298 -2.04303,1.47368 -0.45603,1.12146 0.53943,1.63333 -0.83717,4.33603 -1.31289,2.57706 -3.52253,3.69892 -3.52253,3.69892 0,0 5.55693,-1.34261 8.09889,-0.59344 2.32558,0.68543 3.26104,2.07568 5.1673,3.0642 4.98351,2.58384 6.61452,-0.64057 6.61452,-0.64057 m -7.22568,-7.5898 c 0,0 10.52933,-1.15481 14.82829,-12.57979 3.65493,-9.71326 9.75825,-10.65581 9.75825,-10.65581 m -25.0538,17.10588 c 0,0 4.68055,-0.73318 7.46413,-4.7751 2.78359,-4.04195 1.50818,-8.08159 1.50818,-8.08159 m 11.42613,6.86795 c 0,0 1.85818,-2.20944 7.25655,-2.41084 5.38434,-0.20094 6.99113,1.52119 6.99113,1.52119 M 248.34777,225.93336 c 0,0 11.78031,-29.49326 59.35399,-34.56887 57.53886,-6.13879 102.54337,39.49332 179.2703,29.24479 53.07031,-7.08867 64.42172,-29.67742 64.42172,-29.67742 m -40.88042,33.91448 c 0,0 6.29432,-3.8587 15.10542,1.88701 8.81099,5.7456 9.97976,11.93162 9.97976,11.93162 m -11.2606,-18.85854 c 0.63791,0.068 5.38215,-2.1282 11.8371,0.43559 8.74279,3.4725 9.99148,9.02398 9.99148,9.02398 m -9.46838,-15.48769 c 0.63791,0.068 1.99141,-0.90628 7.73051,0.26115 7.53354,1.5325 9.54726,6.40576 9.54726,6.40576 m -7.79479,-13.09671 c 0.63792,0.068 4.28883,-1.49594 8.15437,-0.87831 5.49293,0.87774 6.24353,3.3047 6.24353,3.3047 m -6.51544,-9.52109 c 0.63789,0.068 2.16667,-1.26074 4.98586,-1.21092 3.5078,0.0621 4.86371,1.9662 4.86371,1.9662 m -4.90019,-7.87858 c 0.63789,0.068 2.23086,-0.71269 4.03327,-0.82386 2.00331,-0.12356 3.31591,1.08323 3.31591,1.08323 m -5.21331,-7.47342 c 0.54173,0.34258 1.77746,-0.65902 3.20768,-1.44488 1.49888,-0.82323 2.92372,0.0148 2.92372,0.0148 m -334.44974,30.9339 c 0,0 -2.82569,-32.87164 15.38531,-49.29473 23.55093,-21.23877 27.44538,23.2094 83.44546,4.3153 44.11302,-14.88348 29.70689,12.21544 85.40077,15.37659 28.6135,1.62408 43.75868,-24.2647 43.75868,-24.2647 m -22.70101,30.14085 c 0,0 1.76064,0.19604 4.4712,4.64958 2.95318,4.85219 1.68725,8.93408 1.68725,8.93408 m 12.11568,-8.95823 c 0,0 0.41011,-3.17504 -1.34009,-6.70867 -1.81819,-3.67087 -3.16938,-4.36821 -3.16938,-4.36821 m 13.9179,-1.89311 c 0,0 -0.84136,-2.64867 -1.90149,-3.86899 -1.58339,-1.82265 -2.91441,-2.74341 -2.91441,-2.74341 m -213.90493,88.30981 c 0,0 15.05046,24.1007 56.13797,30.14605 71.87827,10.57571 81.63475,-7.11511 168.53094,-14.02875 109.76084,-8.73279 143.82637,19.41882 143.82637,19.41882 m -13.11473,-14.05662 c 0,0 9.80996,0.67077 18.76503,-4.23523 5.81449,-3.18546 6.4734,-7.21459 6.4734,-7.21459 m -0.0284,32.30955 c 0,0 -1.47294,-0.16784 -1.70253,-1.97036 -0.2922,-2.29386 1.01983,-4.38624 0.48512,-7.05706 -0.73787,-3.68557 -8.68193,-6.68557 -8.68193,-6.68557 0,0 7.55473,0.78333 13.08587,-3.50917 3.9687,-3.07996 3.8844,-5.00504 6.14234,-6.2795 3.70148,-2.08921 5.51204,0.34516 5.51204,0.34516 m -2.39487,28.00525 c 0,0 -0.98465,-0.46867 -1.26571,-2.29202 -0.22897,-1.48574 0.89865,-3.13824 0.38567,-5.1728 -0.6262,-2.48358 -3.92778,-4.10058 -3.92778,-4.10058 0,0 4.43602,0.1934 8.46667,-1.40995 3.10702,-1.236 4.16692,-2.99924 5.80139,-3.81208 2.67941,-1.33248 3.92317,-0.32342 3.92317,-0.32342 m -2.88152,21.84002 c 0,0 -1.10142,-0.3089 -1.20075,-1.76909 -0.10035,-1.47504 0.50833,-2.04544 0.36588,-3.36659 -0.20655,-1.91584 -2.18404,-3.50985 -2.18404,-3.50985 0,0 3.70007,1.58967 6.93409,0.68107 2.49295,-0.70037 3.33045,-1.99351 4.6893,-2.38321 2.5394,-0.72834 3.28211,0.46076 3.28211,0.46076 m -2.24689,16.14474 c 0,0 -0.82806,-0.19351 -1.07393,-1.19728 -0.26062,-1.06398 0.36152,-1.54335 0.26934,-2.46681 -0.15348,-1.5384 -1.0514,-2.20433 -1.0514,-2.20433 0,0 2.70038,1.26462 4.96332,0.91862 1.74436,-0.26671 2.40213,-1.06251 3.75152,-1.49883 2.18714,-0.70727 2.50642,1.05965 2.50642,1.05965 m -0.27683,11.21998 c 0,0 -0.54762,0.023 -0.61807,-0.82586 -0.0409,-0.49403 0.41065,-0.57226 0.2034,-1.79685 -0.19776,-1.16769 -0.92394,-1.87642 -0.92394,-1.87642 0,0 2.00724,1.20456 3.09222,1.22282 0.99265,0.0167 1.52831,-0.4121 2.39417,-0.56517 2.26358,-0.39994 2.50641,1.05964 2.50641,1.05964 m 1.07646,5.02861 c 0,0 3.9733,1.73959 4.25531,6.73011 0.23981,4.24292 2.50949,5.35802 2.50949,5.35802 M 673.7318,330.16396 c 0,0 1.73932,0.8592 2.33252,2.77922 0.5932,1.92007 -0.39944,3.34259 -0.39944,3.34259 m 10.13404,1.66104 c 0,0 0.45585,1.09074 2.5407,1.82998 2.07948,0.73731 2.91808,0.26095 2.91808,0.26095 M 232.16548,275.72081 c 0,0 7.28968,24.22254 46.29246,49.97494 50.3815,33.26544 36.37637,-25.01752 83.52033,-2.47394 42.00114,20.08436 57.85176,-10.19408 85.71912,-13.4894 28.46126,-3.36556 43.2129,25.22385 43.2129,25.22385 m -22.03076,-30.63417 c 0,0 1.76454,-0.15716 4.57265,-4.54984 3.05948,-4.78588 1.88388,-8.89469 1.88388,-8.89469 m 11.91516,9.22324 c 0,0 0.34,3.18332 -1.48771,6.67749 -1.89871,3.62988 -3.26495,4.29725 -3.26495,4.29725 m 13.87277,2.1996 c 0,0 -0.89957,2.62947 -1.98635,3.82611 -1.62321,1.78729 -2.97421,2.67847 -2.97421,2.67847 M 159.07073,3351.0299 c 0,0 52.42421,87.787 195.7834,76.1609 169.76694,-13.7677 196.1617,-123.7207 296.76136,-105.2392 58.09601,10.673 64.02281,49.3115 64.02281,49.3115 m -15.25729,-40.213 c 0,0 24.29343,13.2282 52.94629,11.1953 18.60424,-1.32 25.01758,-10.8477 25.01758,-10.8477 m -47.3793,73.7036 c 0,0 -3.56883,-2.1577 -2.04028,-7.0356 1.94525,-6.2075 7.75523,-10.0172 9.52274,-17.4731 2.43903,-10.2888 -14.35025,-27.2822 -14.35025,-27.2822 0,0 18.39548,10.8693 37.57453,6.3864 13.76133,-3.2166 15.80517,-8.2373 23.0737,-8.8456 11.91538,-0.9972 13.68729,7.3516 13.68729,7.3516 m -52.32118,48.9873 c 0,0 -1.96735,-2.3539 -0.54596,-7.3454 1.15826,-4.0673 5.98073,-6.9687 7.05704,-12.7724 1.31387,-7.0846 -5.22938,-15.0936 -5.22938,-15.0936 0,0 11.11439,5.7008 23.30114,6.3321 9.39418,0.4866 14.1734,-2.7775 19.30615,-2.9374 8.41418,-0.2621 10.40976,3.7775 10.40976,3.7775 m -40.80767,33.7324 c 0,0 -2.45338,-2.0824 -0.99362,-5.9322 1.47459,-3.889 3.70024,-4.6329 4.88668,-8.1777 1.72048,-5.1406 -1.46454,-11.5368 -1.46454,-11.5368 0,0 7.5941,8.4068 16.92875,9.8794 7.19559,1.1352 10.85449,-1.188 14.78594,-0.5895 7.34716,1.1183 7.85042,5.0301 7.85042,5.0301 m -32.50094,19.9162 c 0,0 -1.88993,-1.4666 -1.34054,-4.3214 0.58244,-3.0261 2.73568,-3.5215 3.58384,-5.9907 1.41302,-4.1133 -0.101,-6.8697 -0.101,-6.8697 0,0 5.41972,6.4025 11.61133,8.1738 4.77277,1.3654 7.38847,0.1028 11.35044,0.5709 6.42185,0.7586 5.16442,5.6507 5.16442,5.6507 m -22.76284,15.1597 c 0,0 -1.42692,-0.5842 -0.61089,-2.8368 0.47502,-1.3112 1.72149,-0.9812 2.62883,-4.3552 0.86491,-3.2175 -0.15993,-5.8818 -0.15993,-5.8818 0,0 3.71806,5.4354 6.4706,6.7555 2.51825,1.2077 4.39101,0.74 6.78435,1.365 6.25657,1.6341 5.16439,5.6507 5.16439,5.6507 m -12.0365,0.9187 c 0,0 8.11671,9.1107 2.98062,22.2009 -4.36655,11.129 0.12756,16.6437 0.12756,16.6437 m -8.23665,-33.9613 c 0,0 3.43848,4.238 2.70165,9.8432 -0.73685,5.6052 -4.94429,8.0771 -4.94429,8.0771 m 15.07301,2.9392 c 0,0 -0.11483,3.3236 4.34797,7.6605 4.45116,4.3256 7.15425,4.0919 7.15425,4.0919 M 158.5282,3349.3898 c -1.44029,-0.2588 -3.39277,22.3168 23.66149,48.1466 26.69363,25.4854 60.56068,33.8096 71.81115,47.2674 7.50529,8.9778 9.09252,21.5148 0.18209,25.959 -6.81203,3.3977 -14.10667,-0.1068 -14.10667,-0.1068 m 44.73039,-27.669 c 0,0 -0.7294,3.4511 -7.89815,4.6658 -8.87653,1.5042 -14.77257,-2.5767 -14.77257,-2.5767 m -4.82394,32.8934 c 0,0 5.18778,3.597 9.65225,-6.1757 4.30377,-9.4209 0.24686,-15.7537 0.24686,-15.7537 m 26.44728,-7.7365 c 0,0 0.51191,4.698 -5.68357,8.3468 -4.23922,2.4966 -13.04909,0.7125 -13.04909,0.7125 m 22.98213,21.5678 a 9.849766,9.849766 0 0 0 -7.81052,-11.5339 9.849766,9.849766 0 0 0 -11.53393,7.8105 9.849766,9.849766 0 0 0 7.81053,11.5339 9.849766,9.849766 0 0 0 11.53392,-7.8105 z m 26.68185,-1.4992 a 5.9641047,5.9641047 0 0 0 -4.72934,-6.9839 5.9641047,5.9641047 0 0 0 -6.98387,4.7294 5.9641047,5.9641047 0 0 0 4.72933,6.9838 5.9641047,5.9641047 0 0 0 6.98388,-4.7293 z m 23.53345,-7.9051 a 3.5250333,3.5250333 0 0 0 -2.79523,-4.1278 3.5250333,3.5250333 0 0 0 -4.12776,2.7952 3.5250333,3.5250333 0 0 0 2.79523,4.1278 3.5250333,3.5250333 0 0 0 4.12776,-2.7952 z M 159.32791,3351.717 c 0,0 15.50314,33.1371 70.55084,35.82 66.57846,3.2449 116.75702,-91.3564 205.67482,-84.6574 61.50246,4.6336 76.05459,29.8587 76.05459,29.8587 m -49.2623,-36.2923 c 0,0 7.4945,4.0204 17.24659,-3.1716 9.75197,-7.1918 10.68594,-14.3834 10.68594,-14.3834 m -11.69969,22.4345 c 0.72911,-0.1205 6.33074,2.0907 13.58415,-1.2857 9.82425,-4.5732 10.89221,-11.0403 10.89221,-11.0403 m -9.86208,18.439 c 0.72911,-0.1205 2.35027,0.9103 8.87301,-0.8128 8.56219,-2.2619 10.55493,-7.9998 10.55493,-7.9998 m -8.09591,15.5784 c 0.72911,-0.1205 5.03146,1.436 9.436,0.4694 6.25884,-1.3736 6.96115,-4.2144 6.96115,-4.2144 m -6.86171,11.3815 c 0.72909,-0.1206 2.57534,1.3062 5.81419,1.062 4.02996,-0.3039 5.46305,-2.5836 5.46305,-2.5836 m -5.11302,9.3854 c 0.72909,-0.1205 2.61282,0.6717 4.69301,0.6801 2.31206,0.01 3.74158,-1.4656 3.74158,-1.4656 m -5.49997,8.9403 c 0.60029,-0.4299 2.08783,0.6401 3.78473,1.449 1.77834,0.8474 3.36139,-0.2109 3.36139,-0.2109 m -366.77825,8.7883 c 0,0 51.9026,-3.1019 51.80048,-58.2148 -0.12353,-66.6574 -116.730826,-126.0475 -114.53345,-215.1902 1.51986,-61.658 25.97745,-77.4662 25.97745,-77.4662 m -33.756637,51.0333 c 0,0 3.636466,-7.6881 -4.039061,-17.0643 -7.675377,-9.3761 -14.904986,-9.9455 -14.904986,-9.9455 m 22.997019,10.5511 c -0.157245,-0.7221 1.768081,-6.4283 -1.970531,-13.5018 -5.063727,-9.5806 -11.576584,-10.3204 -11.576584,-10.3204 m 18.91386,8.9177 c -0.15724,-0.7221 0.79029,-2.3933 -1.26019,-8.8206 -2.691673,-8.437 -8.522956,-10.1372 -8.522956,-10.1372 m 15.967616,7.2984 c -0.15721,-0.7221 1.17994,-5.0976 -0.008,-9.4477 -1.68813,-6.1814 -4.56083,-6.7393 -4.56083,-6.7393 m 11.71372,6.2778 c -0.15723,-0.7221 1.17443,-2.638 0.76686,-5.8604 -0.50719,-4.0095 -2.8564,-5.3255 -2.8564,-5.3255 m 9.63187,4.6322 c -0.15723,-0.7221 0.53881,-2.6434 0.44204,-4.7214 -0.10756,-2.3096 -1.65279,-3.6627 -1.65279,-3.6627 m 9.20681,5.0412 c -0.45968,-0.5778 0.53372,-2.1175 1.25588,-3.8532 0.75643,-1.8188 -0.38045,-3.3464 -0.38045,-3.3464 m 28.44425,367.989 c 0,0 22.32676,-23.2908 8.22301,-50.7832 -17.47561,-34.0651 -59.37447,-44.592 -92.591751,-16.5168 -29.200058,24.6799 -8.906499,63.9374 17.375893,66.3478 20.178918,1.8506 28.244878,-9.8554 28.244878,-9.8554 m -19.13451,2.0951 c 0,0 11.80685,-0.1954 21.50172,-15.8536 7.1932,-11.6177 -0.11648,-17.996 -0.11648,-17.996 m -6.76879,15.8572 c 0,0 4.02716,-6.4594 -1.06277,-13.8078 -5.08993,-7.3483 -15.68729,-5.0748 -15.68729,-5.0748 m 9.0268,10.4502 c 0,0 -4.5895,-2.4726 -11.612331,-0.2609 -7.508107,2.3645 -7.858254,10.4419 -7.858254,10.4419 M 171.07816,874.92901 c 0,0 36.87476,50.55295 208.8006,22.5165 165.4354,-26.97804 228.43094,-58.46833 328.97616,-65.48376 110.62487,-7.71873 153.48233,34.75198 153.48233,34.75198 m -60.02347,-41.67359 c 0,0 58.89095,8.81649 87.19689,-10.02576 18.37897,-12.23424 19.41101,-25.79083 19.41101,-25.79083 m -27.48448,86.22561 c 0,0 -5.73023,-0.20042 -6.74505,-4.43707 -1.29138,-5.39143 3.65913,-10.52019 1.40021,-16.77158 -3.11724,-8.62656 -34.1658,-14.66722 -34.1658,-14.66722 0,0 29.3852,0.84501 50.5661,-10.05605 15.19768,-7.82171 14.73855,-12.36787 23.41783,-15.68668 14.22805,-5.44056 21.42437,0.0806 21.42437,0.0806 m -13.54931,56.2844 c 0,0 -3.85505,-0.97799 -5.0711,-5.25697 -0.99085,-3.48674 3.27416,-7.5495 1.14311,-12.29755 -2.60128,-5.7959 -15.53057,-9.18276 -15.53057,-9.18276 0,0 17.2363,-0.1349 32.77562,-4.46926 11.97854,-3.34118 15.97288,-7.6571 22.26311,-9.79979 10.31165,-3.51253 15.20969,-1.2899 15.20969,-1.2899 m -14.63165,42.55816 c 0,0 -4.29742,-0.58414 -4.78311,-4.02767 -0.49066,-3.47859 1.83356,-4.91025 1.19006,-8.01887 -0.93308,-4.50796 -8.72,-8.01735 -8.72,-8.01735 0,0 14.47456,3.26898 26.96856,0.68578 9.63101,-1.99114 12.7941,-5.16441 18.04316,-6.26856 9.80947,-2.06353 12.77457,0.65235 12.77457,0.65235 m -12.55779,28.99037 c 0,0 -3.22826,-0.34753 -4.25164,-2.69092 -1.08469,-2.48398 1.298,-3.702 0.87716,-5.87585 -0.70142,-3.62146 -4.2331,-5.078 -4.2331,-5.078 0,0 10.57093,2.63299 19.33317,1.51154 6.7543,-0.86446 9.2537,-2.83635 14.4627,-4.04966 8.4433,-1.96663 9.8039,2.17366 9.8039,2.17366 m -9.6452,21.84697 c 0,0 -2.1245,0.12739 -2.4562,-1.87253 -0.193,-1.16409 1.5552,-1.40962 0.6666,-4.28097 -0.8477,-2.73796 -3.7157,-4.3188 -3.7157,-4.3188 0,0 7.8756,2.58348 12.0894,2.48173 3.8551,-0.0932 5.9055,-1.17986 9.2567,-1.65788 8.7611,-1.24928 9.8038,2.17366 9.8038,2.17366 m -14.4256,5.42979 c 0,0 15.5456,3.58733 16.9823,15.36425 1.2216,10.01251 10.1102,12.34906 10.1102,12.34906 m -30.5532,-22.05336 c 0,0 6.8118,1.80163 9.2465,6.26787 2.4346,4.46628 -1.322,7.9666 -1.322,7.9666 m 20.5102,-3.75284 c 0,0 1.8443,2.52131 9.9897,3.99273 8.1241,1.46765 11.3474,0.2278 11.3474,0.2278 M 170.73916,874.28155 c 4.05426,-20.20742 10.84999,-35.63874 29.3685,-45.11432 16.86339,-8.62869 33.71104,-8.72748 58.42844,-1.40083 23.56127,6.98397 37.02149,17.67585 54.28395,22.33305 29.47363,7.95163 56.30761,-20.72444 53.91859,-34.40451 m 8.36461,52.58347 c 0,0 2.33133,-2.94456 -0.87027,-10.93409 -3.76394,-9.39282 -13.49385,-13.68422 -13.49385,-13.68422 m 27.49716,-27.25267 c 0,0 1.43717,-0.78014 -0.97196,11.70825 -2.3224,12.03888 -16.61887,14.4812 -16.61887,14.4812 m 20.18268,25.62614 c 0,0 3.72071,-4.17753 0.25429,-11.95115 -2.37186,-5.31903 -12.09085,-9.65077 -12.09085,-9.65077 m 37.40166,0.80373 a 11.659893,11.659893 0 0 1 -15.453,5.75423 11.659893,11.659893 0 0 1 -5.75422,-15.45299 11.659893,11.659893 0 0 1 15.45298,-5.75423 11.659893,11.659893 0 0 1 5.75424,15.45299 z m 30.17884,-9.50132 a 7.0601502,7.0601502 0 0 1 -9.3569,3.48424 7.0601502,7.0601502 0 0 1 -3.48423,-9.3569 7.0601502,7.0601502 0 0 1 9.35689,-3.48423 7.0601502,7.0601502 0 0 1 3.48424,9.35689 z m 22.71432,-16.7769 a 4.1728419,4.1728419 0 0 1 -5.53033,2.05933 4.1728419,4.1728419 0 0 1 -2.05932,-5.53032 4.1728419,4.1728419 0 0 1 5.53031,-2.05933 4.1728419,4.1728419 0 0 1 2.05934,5.53032 z" /></g><g
     inkscape:label="Shape"
     id="g62810"
     style="display:inline"
     transform="matrix(0.55,0,0,0.55,42.3728,613.90615)"><path
       id="path62708"
       style="display:inline;opacity:1;fill:none;fill-opacity:1;stroke:#e8e2da;stroke-width:2;stroke-linecap:round;stroke-linejoin:round;stroke-dasharray:none;stroke-opacity:1;paint-order:stroke markers fill"
       inkscape:label="base"
       transform="matrix(0.72042564,-0.69353218,-0.69353218,-0.72042564,-176.6703,1047.4955)"
       d="M 464.80403,78.447441 321.17459,77.447386 466.16584,-62.527004 464.7798,78.451918 M 464.48079,48.507387 326.93345,48.07323 439.74661,-60.421643 434.73051,77.553427 M 481.0014,95.2501 395.66868,7.0942906 M 358.95652,77.299379 465.31629,-25.025093 M 3001.9256,-1735.5236 c 0,0 -17.4127,-3.1681 -21.3019,-51.6713 -4.7479,-59.2115 -8.5236,-103.9739 -39.2685,-112.2448 m -421.5116,-120.3225 c 0,0 13.7798,4.5826 0.5577,50.3036 -12.5371,43.3524 -187.3864,174.1308 -159.5765,207.7695 m 620.1409,-17.4977 -363.3,-378.0804 139.2492,1.8476 -398.3228,383.3471 m 618.7549,-51.2166 -342.1812,-355.7075 101.3349,4.0463 -215.5454,206.7665 m 450.5581,108.9373 -319.8118,-332.4707 70.4188,1.8289 -195.6282,187.5928 m 158.5037,-3.5356 1.8575,-170.9998 m -82.3404,168.9617 162.4982,7.1191 M 1263.2117,-12.155273 c 0,0 -16.3582,11.83354913 -66.2216,-37.204866 -25.4139,-24.993414 -92.9076,-76.875191 -103.6245,-68.008901 M 866.77333,-414.49158 c 0,0 4.73621,7.9789 32.63284,-5.3018 35.74928,-17.01908 43.18676,-44.08973 66.88851,-30.57529 m 288.74472,438.308263 -415.75258,-431.054673 -3.20256,118.5285 129.52355,-124.81432 m 144.74399,334.79959 -288.0996,-298.96674 -0.49302,56.38819 55.8459,-54.62838 m 17.59801,28.41629 -57.0838,-1.41206" /><path
       id="circle62720"
       style="display:inline;opacity:1;fill:none;stroke:#e8e2da;stroke-width:4;stroke-linecap:round;stroke-linejoin:round;stroke-opacity:1;paint-order:stroke markers fill"
       inkscape:label="circles"
       transform="translate(-376.79431,519.88938)"
       d="m 507.70669,150.57735 a 26.676235,26.676235 0 0 1 -26.67623,26.67623 26.676235,26.676235 0 0 1 -26.67624,-26.67623 26.676235,26.676235 0 0 1 26.67624,-26.67624 26.676235,26.676235 0 0 1 26.67623,26.67624 z m -12.5081,98.44223 a 14.651413,14.651413 0 0 1 -14.65141,14.65141 14.651413,14.651413 0 0 1 -14.65141,-14.65141 14.651413,14.651413 0 0 1 14.65141,-14.65142 14.651413,14.651413 0 0 1 14.65141,14.65142 z m -40.41787,-41.4433 a 13.049182,13.049182 0 0 1 -13.04918,13.04918 13.049182,13.049182 0 0 1 -13.04919,-13.04918 13.049182,13.049182 0 0 1 13.04919,-13.04918 13.049182,13.049182 0 0 1 13.04918,13.04918 z m 78.48222,1.80641 a 12.345821,12.159703 0 0 1 -12.34583,12.1597 12.345821,12.159703 0 0 1 -12.34582,-12.1597 12.345821,12.159703 0 0 1 12.34582,-12.1597 12.345821,12.159703 0 0 1 12.34583,12.1597 z M 3605.9032,-305.88352 a 17.933742,17.933742 0 0 0 -23.0771,10.52075 17.933742,17.933742 0 0 0 10.5207,23.07709 17.933742,17.933742 0 0 0 23.0771,-10.52075 17.933742,17.933742 0 0 0 -10.5207,-23.07709 z m 21.5759,42.55491 a 11.570159,11.570159 0 0 0 -14.8885,6.78758 11.570159,11.570159 0 0 0 6.7876,14.88845 11.570159,11.570159 0 0 0 14.8885,-6.78758 11.570159,11.570159 0 0 0 -6.7876,-14.88845 z m -43.5598,-69.00544 a 8.8066261,8.8066261 0 0 0 -11.3323,5.16637 8.8066261,8.8066261 0 0 0 5.1663,11.33234 8.8066261,8.8066261 0 0 0 11.3324,-5.16637 8.8066261,8.8066261 0 0 0 -5.1664,-11.33234 z m 54.3535,100.03082 a 7.4988734,7.4988734 0 0 0 -9.6496,4.39918 7.4988734,7.4988734 0 0 0 4.3992,9.64954 7.4988734,7.4988734 0 0 0 9.6495,-4.39919 7.4988734,7.4988734 0 0 0 -4.3991,-9.64953 z m 8.2551,24.73932 a 4.8252271,4.8252271 0 0 0 -6.2091,2.8307 4.8252271,4.8252271 0 0 0 2.8307,6.20908 4.8252271,4.8252271 0 0 0 6.2091,-2.83069 4.8252271,4.8252271 0 0 0 -2.8307,-6.20909 z M 1070.2587,195.58586 a 21.229494,21.229494 0 0 1 27.318,12.45418 21.229494,21.229494 0 0 1 -12.4541,27.31806 21.229494,21.229494 0 0 1 -27.3181,-12.45419 21.229494,21.229494 0 0 1 12.4542,-27.31805 z" /><path
       id="path62804"
       style="display:inline;opacity:1;fill:none;fill-opacity:1;stroke:#e8e2da;stroke-width:5;stroke-linecap:round;stroke-linejoin:round;stroke-dasharray:none;stroke-opacity:1;paint-order:stroke markers fill"
       inkscape:label="vines-flowers"
       transform="rotate(-90.631855,367.14613,510.42437)"
       d="m 250.24818,246.41148 c 0,0 15.92553,-24.46493 100.28989,-3.37133 165.22339,41.31074 186.15753,-18.40604 307.32661,11.37286 91.29197,22.43621 116.96651,0.27947 116.96651,0.27947 m -51.76118,8.95151 c 0,0 23.352,5.59517 40.64221,23.56341 11.2265,11.66674 9.82202,21.5376 9.82202,21.5376 m 18.48053,-66.94556 c 0,0 -3.55519,-0.68371 -5.40559,3.34965 -2.35473,5.13278 -0.82393,10.96653 -4.01901,16.80081 -4.40906,8.05095 -25.11216,9.24573 -25.11216,9.24573 0,0 18.17826,3.68714 27.93654,17.72713 7.00174,10.07396 5.40052,14.49896 9.7328,19.11675 7.10192,7.57003 13.09791,3.21779 13.09791,3.21779 m -5.25139,-61.99887 c 0,0 -2.63679,0.37379 -4.6223,4.41808 -1.61785,3.29549 -0.19564,7.96958 -2.87582,12.33688 -3.27167,5.33116 -12.14609,6.69043 -12.14609,6.69043 0,0 10.47947,2.78628 18.70309,9.46419 6.33916,5.14772 7.52264,10.03049 10.73871,13.11753 5.27214,5.06061 8.90709,3.61653 8.90709,3.61653 m -6.69741,-45.47075 c 0,0 -2.7923,-0.0838 -4.08931,3.24675 -1.31025,3.36443 -0.30788,5.13792 -1.60384,8.11299 -1.87935,4.31425 -7.65119,6.58615 -7.65119,6.58615 0,0 9.78319,-1.00484 16.65722,3.4726 5.29886,3.45136 6.30709,7.07623 9.18955,8.97601 5.38672,3.55041 7.98537,1.32107 7.98537,1.32107 m -9.37439,-31.73444 c 0,0 -2.07106,-0.1532 -3.37655,2.00665 -1.38373,2.28945 -0.2836,3.86067 -1.17227,5.94557 -1.48037,3.47327 -4.05888,4.37007 -4.05888,4.37007 0,0 7.21615,-0.97676 12.23757,1.48086 3.87071,1.89444 4.82298,4.22911 7.64932,6.23068 4.58112,3.24431 6.61455,-0.64056 6.61455,-0.64056 m -5.86165,-23.00662 c 0,0 -1.2595,-0.45298 -2.04303,1.47368 -0.45603,1.12146 0.53943,1.63333 -0.83717,4.33603 -1.31289,2.57706 -3.52253,3.69892 -3.52253,3.69892 0,0 5.55693,-1.34261 8.09889,-0.59344 2.32558,0.68543 3.26104,2.07568 5.1673,3.0642 4.98351,2.58384 6.61452,-0.64057 6.61452,-0.64057 m -7.22568,-7.5898 c 0,0 10.52933,-1.15481 14.82829,-12.57979 3.65493,-9.71326 9.75825,-10.65581 9.75825,-10.65581 m -25.0538,17.10588 c 0,0 4.68055,-0.73318 7.46413,-4.7751 2.78359,-4.04195 1.50818,-8.08159 1.50818,-8.08159 m 11.42613,6.86795 c 0,0 1.85818,-2.20944 7.25655,-2.41084 5.38434,-0.20094 6.99113,1.52119 6.99113,1.52119 M 248.34777,225.93336 c 0,0 11.78031,-29.49326 59.35399,-34.56887 57.53886,-6.13879 102.54337,39.49332 179.2703,29.24479 53.07031,-7.08867 64.42172,-29.67742 64.42172,-29.67742 m -40.88042,33.91448 c 0,0 6.29432,-3.8587 15.10542,1.88701 8.81099,5.7456 9.97976,11.93162 9.97976,11.93162 m -11.2606,-18.85854 c 0.63791,0.068 5.38215,-2.1282 11.8371,0.43559 8.74279,3.4725 9.99148,9.02398 9.99148,9.02398 m -9.46838,-15.48769 c 0.63791,0.068 1.99141,-0.90628 7.73051,0.26115 7.53354,1.5325 9.54726,6.40576 9.54726,6.40576 m -7.79479,-13.09671 c 0.63792,0.068 4.28883,-1.49594 8.15437,-0.87831 5.49293,0.87774 6.24353,3.3047 6.24353,3.3047 m -6.51544,-9.52109 c 0.63789,0.068 2.16667,-1.26074 4.98586,-1.21092 3.5078,0.0621 4.86371,1.9662 4.86371,1.9662 m -4.90019,-7.87858 c 0.63789,0.068 2.23086,-0.71269 4.03327,-0.82386 2.00331,-0.12356 3.31591,1.08323 3.31591,1.08323 m -5.21331,-7.47342 c 0.54173,0.34258 1.77746,-0.65902 3.20768,-1.44488 1.49888,-0.82323 2.92372,0.0148 2.92372,0.0148 m -334.44974,30.9339 c 0,0 -2.82569,-32.87164 15.38531,-49.29473 23.55093,-21.23877 27.44538,23.2094 83.44546,4.3153 44.11302,-14.88348 29.70689,12.21544 85.40077,15.37659 28.6135,1.62408 43.75868,-24.2647 43.75868,-24.2647 m -22.70101,30.14085 c 0,0 1.76064,0.19604 4.4712,4.64958 2.95318,4.85219 1.68725,8.93408 1.68725,8.93408 m 12.11568,-8.95823 c 0,0 0.41011,-3.17504 -1.34009,-6.70867 -1.81819,-3.67087 -3.16938,-4.36821 -3.16938,-4.36821 m 13.9179,-1.89311 c 0,0 -0.84136,-2.64867 -1.90149,-3.86899 -1.58339,-1.82265 -2.91441,-2.74341 -2.91441,-2.74341 m -213.90493,88.30981 c 0,0 15.05046,24.1007 56.13797,30.14605 71.87827,10.57571 81.63475,-7.11511 168.53094,-14.02875 109.76084,-8.73279 143.82637,19.41882 143.82637,19.41882 m -13.11473,-14.05662 c 0,0 9.80996,0.67077 18.76503,-4.23523 5.81449,-3.18546 6.4734,-7.21459 6.4734,-7.21459 m -0.0284,32.30955 c 0,0 -1.47294,-0.16784 -1.70253,-1.97036 -0.2922,-2.29386 1.01983,-4.38624 0.48512,-7.05706 -0.73787,-3.68557 -8.68193,-6.68557 -8.68193,-6.68557 0,0 7.55473,0.78333 13.08587,-3.50917 3.9687,-3.07996 3.8844,-5.00504 6.14234,-6.2795 3.70148,-2.08921 5.51204,0.34516 5.51204,0.34516 m -2.39487,28.00525 c 0,0 -0.98465,-0.46867 -1.26571,-2.29202 -0.22897,-1.48574 0.89865,-3.13824 0.38567,-5.1728 -0.6262,-2.48358 -3.92778,-4.10058 -3.92778,-4.10058 0,0 4.43602,0.1934 8.46667,-1.40995 3.10702,-1.236 4.16692,-2.99924 5.80139,-3.81208 2.67941,-1.33248 3.92317,-0.32342 3.92317,-0.32342 m -2.88152,21.84002 c 0,0 -1.10142,-0.3089 -1.20075,-1.76909 -0.10035,-1.47504 0.50833,-2.04544 0.36588,-3.36659 -0.20655,-1.91584 -2.18404,-3.50985 -2.18404,-3.50985 0,0 3.70007,1.58967 6.93409,0.68107 2.49295,-0.70037 3.33045,-1.99351 4.6893,-2.38321 2.5394,-0.72834 3.28211,0.46076 3.28211,0.46076 m -2.24689,16.14474 c 0,0 -0.82806,-0.19351 -1.07393,-1.19728 -0.26062,-1.06398 0.36152,-1.54335 0.26934,-2.46681 -0.15348,-1.5384 -1.0514,-2.20433 -1.0514,-2.20433 0,0 2.70038,1.26462 4.96332,0.91862 1.74436,-0.26671 2.40213,-1.06251 3.75152,-1.49883 2.18714,-0.70727 2.50642,1.05965 2.50642,1.05965 m -0.27683,11.21998 c 0,0 -0.54762,0.023 -0.61807,-0.82586 -0.0409,-0.49403 0.41065,-0.57226 0.2034,-1.79685 -0.19776,-1.16769 -0.92394,-1.87642 -0.92394,-1.87642 0,0 2.00724,1.20456 3.09222,1.22282 0.99265,0.0167 1.52831,-0.4121 2.39417,-0.56517 2.26358,-0.39994 2.50641,1.05964 2.50641,1.05964 m 1.07646,5.02861 c 0,0 3.9733,1.73959 4.25531,6.73011 0.23981,4.24292 2.50949,5.35802 2.50949,5.35802 M 673.7318,330.16396 c 0,0 1.73932,0.8592 2.33252,2.77922 0.5932,1.92007 -0.39944,3.34259 -0.39944,3.34259 m 10.13404,1.66104 c 0,0 0.45585,1.09074 2.5407,1.82998 2.07948,0.73731 2.91808,0.26095 2.91808,0.26095 M 232.16548,275.72081 c 0,0 7.28968,24.22254 46.29246,49.97494 50.3815,33.26544 36.37637,-25.01752 83.52033,-2.47394 42.00114,20.08436 57.85176,-10.19408 85.71912,-13.4894 28.46126,-3.36556 43.2129,25.22385 43.2129,25.22385 m -22.03076,-30.63417 c 0,0 1.76454,-0.15716 4.57265,-4.54984 3.05948,-4.78588 1.88388,-8.89469 1.88388,-8.89469 m 11.91516,9.22324 c 0,0 0.34,3.18332 -1.48771,6.67749 -1.89871,3.62988 -3.26495,4.29725 -3.26495,4.29725 m 13.87277,2.1996 c 0,0 -0.89957,2.62947 -1.98635,3.82611 -1.62321,1.78729 -2.97421,2.67847 -2.97421,2.67847 M 161.09601,3348.7483 c 0,0 52.42421,87.787 195.78341,76.1609 169.76693,-13.7677 196.1617,-123.7207 296.76136,-105.2392 58.09601,10.673 64.0228,49.3115 64.0228,49.3115 m -15.25728,-40.213 c 0,0 24.29343,13.2282 52.94629,11.1953 18.60424,-1.32 25.01757,-10.8477 25.01757,-10.8477 m -47.3793,73.7036 c 0,0 -3.56883,-2.1577 -2.04027,-7.0356 1.94525,-6.2075 7.75522,-10.0172 9.52273,-17.4731 2.43904,-10.2888 -14.35025,-27.2822 -14.35025,-27.2822 0,0 18.39548,10.8693 37.57453,6.3864 13.76133,-3.2166 15.80517,-8.2373 23.0737,-8.8456 11.91538,-0.9972 13.68729,7.3516 13.68729,7.3516 m -52.32117,48.9873 c 0,0 -1.96736,-2.3539 -0.54597,-7.3454 1.15827,-4.0673 5.98073,-6.9687 7.05704,-12.7724 1.31387,-7.0846 -5.22937,-15.0936 -5.22937,-15.0936 0,0 11.11439,5.7008 23.30113,6.3321 9.39419,0.4865 14.17341,-2.7775 19.30615,-2.9374 8.41418,-0.2621 10.40976,3.7775 10.40976,3.7775 m -40.80767,33.7324 c 0,0 -2.45337,-2.0824 -0.99362,-5.9322 1.4746,-3.889 3.70024,-4.6329 4.88669,-8.1777 1.72048,-5.1406 -1.46455,-11.5368 -1.46455,-11.5368 0,0 7.5941,8.4068 16.92876,9.8794 7.19558,1.1352 10.85448,-1.188 14.78594,-0.5895 7.34715,1.1183 7.85042,5.0301 7.85042,5.0301 m -32.50095,19.9162 c 0,0 -1.88993,-1.4666 -1.34053,-4.3214 0.58243,-3.0261 2.73568,-3.5215 3.58383,-5.9907 1.41302,-4.1133 -0.101,-6.8697 -0.101,-6.8697 0,0 5.41973,6.4025 11.61134,8.1738 4.77276,1.3654 7.38847,0.1028 11.35043,0.5708 6.42185,0.7587 5.16443,5.6508 5.16443,5.6508 m -22.76285,15.1597 c 0,0 -1.42692,-0.5842 -0.61089,-2.8368 0.47502,-1.3112 1.72149,-0.9812 2.62883,-4.3552 0.86491,-3.2175 -0.15993,-5.8818 -0.15993,-5.8818 0,0 3.71807,5.4354 6.4706,6.7555 2.51825,1.2077 4.39101,0.74 6.78436,1.365 6.25656,1.6341 5.16439,5.6507 5.16439,5.6507 m -12.0365,0.9187 c 0,0 8.1167,9.1107 2.98061,22.2009 -4.36655,11.129 0.12757,16.6437 0.12757,16.6437 m -8.23666,-33.9613 c 0,0 3.43848,4.238 2.70165,9.8432 -0.73685,5.6051 -4.94429,8.0771 -4.94429,8.0771 m 15.07302,2.9392 c 0,0 -0.11484,3.3236 4.34797,7.6605 4.45115,4.3256 7.15424,4.0919 7.15424,4.0919 M 160.55348,3347.108 c -1.44028,-0.2588 -3.39277,22.3168 23.6615,48.1465 26.69363,25.4855 60.56068,33.8097 71.81115,47.2675 7.50529,8.9778 9.09252,21.5148 0.18209,25.959 -6.81203,3.3976 -14.10667,-0.1068 -14.10667,-0.1068 m 44.73039,-27.669 c 0,0 -0.7294,3.4511 -7.89815,4.6658 -8.87653,1.5042 -14.77258,-2.5767 -14.77258,-2.5767 m -4.82393,32.8934 c 0,0 5.18777,3.5969 9.65224,-6.1757 4.30377,-9.421 0.24687,-15.7537 0.24687,-15.7537 m 26.44727,-7.7365 c 0,0 0.51192,4.6979 -5.68357,8.3468 -4.23921,2.4966 -13.04908,0.7124 -13.04908,0.7124 m 22.98212,21.5679 a 9.849766,9.849766 0 0 0 -7.81052,-11.5339 9.849766,9.849766 0 0 0 -11.53392,7.8105 9.849766,9.849766 0 0 0 7.81052,11.5339 9.849766,9.849766 0 0 0 11.53392,-7.8105 z m 26.68186,-1.4992 a 5.9641047,5.9641047 0 0 0 -4.72934,-6.9839 5.9641047,5.9641047 0 0 0 -6.98387,4.7294 5.9641047,5.9641047 0 0 0 4.72933,6.9838 5.9641047,5.9641047 0 0 0 6.98388,-4.7293 z m 23.53345,-7.9051 a 3.5250333,3.5250333 0 0 0 -2.79524,-4.1278 3.5250333,3.5250333 0 0 0 -4.12775,2.7952 3.5250333,3.5250333 0 0 0 2.79522,4.1278 3.5250333,3.5250333 0 0 0 4.12777,-2.7952 z M 161.35319,3349.4354 c 0,0 15.50315,33.1371 70.55085,35.82 66.57846,3.2449 116.75702,-91.3564 205.67481,-84.6574 61.50246,4.6336 76.05459,29.8587 76.05459,29.8587 m -49.2623,-36.2923 c 0,0 7.4945,4.0203 17.24659,-3.1716 9.75197,-7.1918 10.68595,-14.3834 10.68595,-14.3834 m -11.69969,22.4345 c 0.7291,-0.1205 6.33073,2.0907 13.58415,-1.2857 9.82424,-4.5732 10.8922,-11.0403 10.8922,-11.0403 m -9.86208,18.439 c 0.72912,-0.1205 2.35028,0.9103 8.87302,-0.8128 8.56219,-2.2619 10.55493,-7.9999 10.55493,-7.9999 m -8.09592,15.5785 c 0.72912,-0.1206 5.03147,1.436 9.43601,0.4694 6.25883,-1.3736 6.96114,-4.2144 6.96114,-4.2144 m -6.8617,11.3815 c 0.72908,-0.1206 2.57533,1.3062 5.81418,1.062 4.02996,-0.3039 5.46306,-2.5837 5.46306,-2.5837 m -5.11302,9.3855 c 0.72908,-0.1205 2.61281,0.6717 4.69301,0.6801 2.31206,0.01 3.74157,-1.4656 3.74157,-1.4656 m -5.49997,8.9403 c 0.6003,-0.4299 2.08783,0.64 3.78474,1.449 1.77833,0.8474 3.36138,-0.2109 3.36138,-0.2109 m -366.77822,8.7883 c 0,0 51.90259,-3.1019 51.80047,-58.2148 -0.12352,-66.6574 -116.73081,-126.0474 -114.53343,-215.1901 1.51986,-61.6581 25.97745,-77.4662 25.97745,-77.4662 m -33.756636,51.0332 c 0,0 3.636465,-7.6881 -4.039061,-17.0643 -7.675376,-9.3761 -14.904984,-9.9455 -14.904984,-9.9455 m 22.997016,10.5511 c -0.157245,-0.722 1.768085,-6.4283 -1.97053,-13.5018 -5.063726,-9.5806 -11.576583,-10.3204 -11.576583,-10.3204 m 18.913858,8.9177 c -0.15724,-0.7221 0.79029,-2.3932 -1.26019,-8.8206 -2.69167,-8.4369 -8.522954,-10.1372 -8.522954,-10.1372 m 15.967614,7.2984 c -0.15721,-0.7221 1.17994,-5.0976 -0.008,-9.4477 -1.68813,-6.1814 -4.56083,-6.7393 -4.56083,-6.7393 m 11.71372,6.2779 c -0.15723,-0.7221 1.17443,-2.6381 0.76686,-5.8605 -0.50719,-4.0094 -2.8564,-5.3255 -2.8564,-5.3255 m 9.63187,4.6322 c -0.15723,-0.722 0.53881,-2.6434 0.44204,-4.7213 -0.10756,-2.3096 -1.65279,-3.6628 -1.65279,-3.6628 m 9.20681,5.0412 c -0.45968,-0.5778 0.53372,-2.1175 1.25588,-3.8531 0.75643,-1.8189 -0.38045,-3.3464 -0.38045,-3.3464 m 28.44422,367.9887 c 0,0 22.32676,-23.2908 8.223,-50.7832 -17.47561,-34.0651 -59.37447,-44.592 -92.591745,-16.5168 -29.200058,24.6799 -8.906498,63.9374 17.375893,66.3478 20.178922,1.8506 28.244882,-9.8554 28.244882,-9.8554 m -19.13452,2.0951 c 0,0 11.80686,-0.1954 21.50173,-15.8536 7.19319,-11.6177 -0.11649,-17.996 -0.11649,-17.996 m -6.76878,15.8572 c 0,0 4.02716,-6.4594 -1.06277,-13.8078 -5.08994,-7.3483 -15.6873,-5.0748 -15.6873,-5.0748 m 9.02681,10.4501 c 0,0 -4.58951,-2.4725 -11.61233,-0.2608 -7.508112,2.3645 -7.858258,10.4419 -7.858258,10.4419 M 173.04797,877.6782 c 0,0 36.87476,50.55295 208.8006,22.5165 165.43539,-26.97804 228.43094,-58.46833 328.97615,-65.48376 110.62487,-7.71873 153.48233,34.75198 153.48233,34.75198 m -60.02347,-41.67359 c 0,0 58.89095,8.81649 87.19689,-10.02576 18.37898,-12.23424 19.41102,-25.79083 19.41102,-25.79083 m -27.48448,86.22561 c 0,0 -5.73023,-0.20042 -6.74506,-4.43707 -1.29138,-5.39144 3.65913,-10.52019 1.40022,-16.77158 -3.11725,-8.62656 -34.16581,-14.66722 -34.16581,-14.66722 0,0 29.3852,0.84501 50.5661,-10.05605 15.19768,-7.82171 14.73855,-12.36787 23.41784,-15.68668 14.22804,-5.44056 21.42436,0.0806 21.42436,0.0806 m -13.5493,56.2844 c 0,0 -3.85506,-0.97799 -5.07111,-5.25697 -0.99085,-3.48674 3.27416,-7.5495 1.14312,-12.29755 -2.60129,-5.7959 -15.53058,-9.18276 -15.53058,-9.18276 0,0 17.2363,-0.1349 32.77562,-4.46926 11.97855,-3.34118 15.97288,-7.6571 22.26311,-9.79979 10.31165,-3.51253 15.20969,-1.2899 15.20969,-1.2899 m -14.63165,42.55816 c 0,0 -4.29742,-0.58414 -4.7831,-4.02767 -0.49067,-3.47859 1.83356,-4.91025 1.19006,-8.01887 -0.93308,-4.50796 -8.72001,-8.01735 -8.72001,-8.01735 0,0 14.47456,3.26898 26.96856,0.68578 9.63101,-1.99114 12.79411,-5.16441 18.04316,-6.26856 9.80947,-2.06353 12.77457,0.65235 12.77457,0.65235 m -12.55778,28.99037 c 0,0 -3.22827,-0.34753 -4.25164,-2.69093 -1.08469,-2.48397 1.29799,-3.70199 0.87715,-5.87584 -0.70141,-3.62146 -4.2331,-5.078 -4.2331,-5.078 0,0 10.57093,2.63299 19.33317,1.51154 6.7543,-0.86446 9.2537,-2.83635 14.4627,-4.04966 8.4433,-1.96663 9.8039,2.17366 9.8039,2.17366 m -9.6452,21.84697 c 0,0 -2.1245,0.12739 -2.4562,-1.87253 -0.193,-1.16409 1.5552,-1.40962 0.6666,-4.28097 -0.8477,-2.73796 -3.7157,-4.3188 -3.7157,-4.3188 0,0 7.8756,2.58348 12.0894,2.48173 3.8551,-0.0932 5.9055,-1.17986 9.2567,-1.65788 8.7611,-1.24928 9.8038,2.17366 9.8038,2.17366 m -14.4256,5.42979 c 0,0 15.5456,3.58733 16.9823,15.36425 1.2216,10.0125 10.1102,12.34906 10.1102,12.34906 m -30.5532,-22.05336 c 0,0 6.8118,1.80162 9.2465,6.26787 2.4346,4.46628 -1.322,7.9666 -1.322,7.9666 m 20.5102,-3.75284 c 0,0 1.8444,2.52131 9.9897,3.99273 8.1241,1.46765 11.3474,0.2278 11.3474,0.2278 M 172.70897,877.03071 c 4.05426,-20.20742 10.84998,-35.63874 29.36849,-45.11432 16.8634,-8.62869 33.71104,-8.72748 58.42844,-1.40083 23.56127,6.98397 37.02149,17.67585 54.28395,22.33305 29.47363,7.95163 56.30761,-20.72444 53.91859,-34.40451 m 8.36462,52.58347 c 0,0 2.33133,-2.94456 -0.87028,-10.93409 -3.76394,-9.39282 -13.49384,-13.68422 -13.49384,-13.68422 m 27.49715,-27.25267 c 0,0 1.43717,-0.78014 -0.97195,11.70825 -2.3224,12.03888 -16.61888,14.4812 -16.61888,14.4812 m 20.18268,25.62614 c 0,0 3.72072,-4.17753 0.2543,-11.95115 -2.37187,-5.31903 -12.09085,-9.65077 -12.09085,-9.65077 m 37.40166,0.80373 a 11.659893,11.659893 0 0 1 -15.453,5.75423 11.659893,11.659893 0 0 1 -5.75423,-15.45299 11.659893,11.659893 0 0 1 15.45298,-5.75424 11.659893,11.659893 0 0 1 5.75425,15.453 z m 30.17883,-9.50132 a 7.0601502,7.0601502 0 0 1 -9.35689,3.48424 7.0601502,7.0601502 0 0 1 -3.48424,-9.3569 7.0601502,7.0601502 0 0 1 9.3569,-3.48423 7.0601502,7.0601502 0 0 1 3.48423,9.35689 z m 22.71432,-16.7769 a 4.1728419,4.1728419 0 0 1 -5.53033,2.05933 4.1728419,4.1728419 0 0 1 -2.05932,-5.53032 4.1728419,4.1728419 0 0 1 5.53031,-2.05933 4.1728419,4.1728419 0 0 1 2.05934,5.53032 z" /></g></svg>
