<?xml version="1.0" encoding="UTF-8" standalone="no"?>
<!-- Created with Inkscape (http://www.inkscape.org/) -->

<svg
   width="1920"
   height="1080"
   viewBox="0 0 1920 1080"
   version="1.1"
   id="svg5"
   inkscape:version="1.2.2 (b0a8486541, 2022-12-01)"
   sodipodi:docname="jl-site-frame-homepage-desktop.svg"
   xml:space="preserve"
   xmlns:inkscape="http://www.inkscape.org/namespaces/inkscape"
   xmlns:sodipodi="http://sodipodi.sourceforge.net/DTD/sodipodi-0.dtd"
   xmlns:xlink="http://www.w3.org/1999/xlink"
   xmlns="http://www.w3.org/2000/svg"
   xmlns:svg="http://www.w3.org/2000/svg"><sodipodi:namedview
     id="namedview7"
     pagecolor="#505050"
     bordercolor="#ffffff"
     borderopacity="1"
     inkscape:showpageshadow="0"
     inkscape:pageopacity="0"
     inkscape:pagecheckerboard="1"
     inkscape:deskcolor="#505050"
     inkscape:document-units="px"
     showgrid="false"
     inkscape:zoom="0.36599323"
     inkscape:cx="944.00653"
     inkscape:cy="509.57227"
     inkscape:window-width="1366"
     inkscape:window-height="722"
     inkscape:window-x="0"
     inkscape:window-y="0"
     inkscape:window-maximized="1"
     inkscape:current-layer="svg5" /><defs
     id="defs2"><linearGradient
       id="glow-master"><stop
         offset="0.0"
         style="stop-color:#000000;stop-opacity:0.0;"
         id="stop1899" /><stop
         offset="0.11"
         style="stop-color:#442204;stop-opacity:0.22;"
         id="stop1901" /><stop
         offset="0.22"
         style="stop-color:#69190d;stop-opacity:0.44;"
         id="stop1903" /><stop
         offset="0.33"
         style="stop-color:#a52c16;stop-opacity:0.659;"
         id="stop1905" /><stop
         offset="0.44"
         style="stop-color:#eb7513;stop-opacity:0.878;"
         id="stop1907" /><stop
         offset="0.55"
         style="stop-color:#f2c62a;stop-opacity:1.0;"
         id="stop1909" /><stop
         offset="0.66"
         style="stop-color:#5e9a0e;stop-opacity:0.878;"
         id="stop1911" /><stop
         offset="0.77"
         style="stop-color:#0e4d0e;stop-opacity:0.659;"
         id="stop1913" /><stop
         offset="0.88"
         style="stop-color:#073720;stop-opacity:0.44;"
         id="stop1915" /><stop
         offset="0.94"
         style="stop-color:#442204;stop-opacity:0.22;"
         id="stop1917" /><stop
         offset="1.0"
         style="stop-color:#000000;stop-opacity:0.0;"
         id="stop1919" /></linearGradient><linearGradient
       id="linearGradient6061-1"><stop
         style="stop-color:#e8e2da;stop-opacity:0;"
         offset="0"
         id="stop9525" /><stop
         style="stop-color:#69190d;stop-opacity:0.22;"
         offset="0.11359598"
         id="stop9527" /><stop
         style="stop-color:#a52c16;stop-opacity:0.55000001;"
         offset="0.22"
         id="stop9529" /><stop
         style="stop-color:#eb7513;stop-opacity:0.88;"
         offset="0.33000001"
         id="stop9531" /><stop
         style="stop-color:#f2c62a;stop-opacity:1;"
         offset="0.5"
         id="stop9533" /><stop
         style="stop-color:#5e9a0e;stop-opacity:0.88;"
         offset="0.66000003"
         id="stop9535" /><stop
         style="stop-color:#0e4d0e;stop-opacity:0.55000001;"
         offset="0.76999998"
         id="stop9537" /><stop
         style="stop-color:#073720;stop-opacity:0.22;"
         offset="0.88"
         id="stop9539" /><stop
         style="stop-color:#e8e2da;stop-opacity:0;"
         offset="1"
         id="stop9541" /></linearGradient><linearGradient
       id="linearGradient6061"><stop
         style="stop-color:#e8e2da;stop-opacity:0;"
         offset="0"
         id="stop9506" /><stop
         style="stop-color:#69190d;stop-opacity:0.22;"
         offset="0.11359598"
         id="stop9508" /><stop
         style="stop-color:#a52c16;stop-opacity:0.55000001;"
         offset="0.22"
         id="stop9510" /><stop
         style="stop-color:#eb7513;stop-opacity:0.88;"
         offset="0.33000001"
         id="stop9512" /><stop
         style="stop-color:#f2c62a;stop-opacity:1;"
         offset="0.5"
         id="stop9514" /><stop
         style="stop-color:#5e9a0e;stop-opacity:0.88;"
         offset="0.66000003"
         id="stop9516" /><stop
         style="stop-color:#0e4d0e;stop-opacity:0.55000001;"
         offset="0.76999998"
         id="stop9518" /><stop
         style="stop-color:#073720;stop-opacity:0.22;"
         offset="0.88"
         id="stop9520" /><stop
         style="stop-color:#e8e2da;stop-opacity:0;"
         offset="1"
         id="stop9522" /></linearGradient><rect
       x="676.6927"
       y="29.501663"
       width="1725.2808"
       height="58.477051"
       id="rect6077" /><rect
       x="1797.4476"
       y="32.03938"
       width="1182.022"
       height="74.537186"
       id="rect6071" /><linearGradient
       id="linearGradient6061-2"><stop
         style="stop-color:#e8e2da;stop-opacity:0;"
         offset="0"
         id="stop6057" /><stop
         style="stop-color:#69190d;stop-opacity:0.22;"
         offset="0.11359598"
         id="stop2182" /><stop
         style="stop-color:#a52c16;stop-opacity:0.55000001;"
         offset="0.22"
         id="stop2186" /><stop
         style="stop-color:#eb7513;stop-opacity:0.88;"
         offset="0.33000001"
         id="stop6065" /><stop
         style="stop-color:#f2c62a;stop-opacity:1;"
         offset="0.5"
         id="stop2188" /><stop
         style="stop-color:#5e9a0e;stop-opacity:0.88;"
         offset="0.66000003"
         id="stop2184" /><stop
         style="stop-color:#0e4d0e;stop-opacity:0.55000001;"
         offset="0.76999998"
         id="stop2192" /><stop
         style="stop-color:#073720;stop-opacity:0.22;"
         offset="0.88"
         id="stop9504" /><stop
         style="stop-color:#000000;stop-opacity:0;"
         offset="1"
         id="stop6059" /></linearGradient><rect
       x="1144.2627"
       y="175.90457"
       width="600.52818"
       height="235.33107"
       id="rect22829" /><rect
       x="1152.7903"
       y="173.17295"
       width="642.74494"
       height="418.02634"
       id="rect22823" /><rect
       x="139.99581"
       y="174.04989"
       width="559.98791"
       height="395.49895"
       id="rect22817" /><rect
       x="145.0775"
       y="180.81232"
       width="697.10984"
       height="181.23741"
       id="rect22399" /><linearGradient
       id="linearGradient5077-1"><stop
         style="stop-color:#35031a;stop-opacity:1;"
         offset="0"
         id="stop6247" /><stop
         style="stop-color:#9f260a;stop-opacity:1;"
         offset="0.22"
         id="stop6249" /><stop
         style="stop-color:#d37a0d;stop-opacity:1;"
         offset="0.44"
         id="stop6251" /><stop
         style="stop-color:#076909;stop-opacity:1;"
         offset="0.76999998"
         id="stop6253" /><stop
         style="stop-color:#07466a;stop-opacity:1;"
         offset="0.88"
         id="stop6255" /><stop
         style="stop-color:#35031a;stop-opacity:1"
         offset="1"
         id="stop6257" /></linearGradient><linearGradient
       id="linearGradient5077"><stop
         style="stop-color:#35031a;stop-opacity:1"
         offset="0"
         id="stop6244" /><stop
         style="stop-color:#07466a;stop-opacity:1;"
         offset="0.14491931"
         id="stop6242" /><stop
         style="stop-color:#076909;stop-opacity:1;"
         offset="0.46923536"
         id="stop6240" /><stop
         style="stop-color:#d37a0d;stop-opacity:1;"
         offset="0.74955529"
         id="stop6238" /><stop
         style="stop-color:#9f260a;stop-opacity:1;"
         offset="0.8828578"
         id="stop6236" /><stop
         style="stop-color:#35031a;stop-opacity:1;"
         offset="1"
         id="stop6234" /></linearGradient><linearGradient
       id="linearGradient5978"><stop
         style="stop-color:#35031a;stop-opacity:1;"
         offset="0"
         id="stop5966" /><stop
         style="stop-color:#9f260a;stop-opacity:1;"
         offset="0.22"
         id="stop5968" /><stop
         style="stop-color:#d37a0d;stop-opacity:1;"
         offset="0.44"
         id="stop5970" /><stop
         style="stop-color:#076909;stop-opacity:1;"
         offset="0.76999998"
         id="stop5972" /><stop
         style="stop-color:#07466a;stop-opacity:1;"
         offset="0.88"
         id="stop5974" /><stop
         style="stop-opacity:0"
         offset="1"
         id="stop5976" /></linearGradient><linearGradient
       id="linearGradient5077-2"><stop
         style="stop-color:#35031a;stop-opacity:1;"
         offset="0"
         id="stop5065" /><stop
         style="stop-color:#9f260a;stop-opacity:1;"
         offset="0.33126885"
         id="stop5067" /><stop
         style="stop-color:#d37a0d;stop-opacity:1;"
         offset="0.33126885"
         id="stop5069" /><stop
         style="stop-color:#076909;stop-opacity:1;"
         offset="0.76338273"
         id="stop5071" /><stop
         style="stop-color:#07466a;stop-opacity:1;"
         offset="0.88"
         id="stop5073" /><stop
         style="stop-color:#35031a;stop-opacity:1"
         offset="1"
         id="stop5075" /></linearGradient><linearGradient
       id="linearGradient4914"><stop
         style="stop-color:#000000;stop-opacity:1;"
         offset="0"
         id="stop4918" /><stop
         style="stop-color:#000000;stop-opacity:0;"
         offset="1"
         id="stop4920" /></linearGradient><linearGradient
       id="linearGradient4914-1"
       inkscape:swatch="gradient"><stop
         style="stop-color:#000000;stop-opacity:1;"
         offset="0"
         id="stop4910" /><stop
         style="stop-color:#000000;stop-opacity:0;"
         offset="1"
         id="stop4912" /></linearGradient><linearGradient
       id="Rainbowie"
       inkscape:swatch="gradient"><stop
         style="stop-color:#35031a;stop-opacity:1;"
         offset="0.11"
         id="stop4760" /><stop
         style="stop-color:#6a1907;stop-opacity:1;"
         offset="0.22"
         id="stop4762" /><stop
         style="stop-color:#d3560d;stop-opacity:1;"
         offset="0.44"
         id="stop4764" /><stop
         style="stop-color:#d29e0e;stop-opacity:1;"
         offset="0.55000001"
         id="stop4766" /><stop
         style="stop-color:#07692e;stop-opacity:1;"
         offset="0.88"
         id="stop4768" /><stop
         style="stop-color:#076769;stop-opacity:1;"
         offset="0.99880683"
         id="stop4770" /></linearGradient><linearGradient
       id="Rainbowie-10"><stop
         style="stop-color:#35031a;stop-opacity:1;"
         offset="0.11"
         id="stop4760-6" /><stop
         style="stop-color:#6a1907;stop-opacity:1;"
         offset="0.22"
         id="stop4762-1" /><stop
         style="stop-color:#d3560d;stop-opacity:1;"
         offset="0.44"
         id="stop4764-5" /><stop
         style="stop-color:#d29e0e;stop-opacity:1;"
         offset="0.55000001"
         id="stop4766-9" /><stop
         style="stop-color:#07692e;stop-opacity:1;"
         offset="0.88"
         id="stop4768-4" /><stop
         style="stop-color:#076769;stop-opacity:1;"
         offset="0.99880683"
         id="stop4770-9" /></linearGradient><linearGradient
       xlink:href="#linearGradient5077-1"
       id="linearGradient5021"
       x1="150.16481"
       y1="468.45493"
       x2="240.06136"
       y2="600.76404"
       gradientUnits="userSpaceOnUse" /><linearGradient
       xlink:href="#linearGradient5077-1"
       id="linearGradient5055"
       x1="673.78912"
       y1="67.176918"
       x2="440.46896"
       y2="549.38538"
       gradientUnits="userSpaceOnUse" /><linearGradient
       xlink:href="#linearGradient5077-1"
       id="linearGradient5063"
       x1="272.62979"
       y1="233.06071"
       x2="602.46735"
       y2="389.97263"
       gradientUnits="userSpaceOnUse" /><linearGradient
       xlink:href="#linearGradient5077-1"
       id="linearGradient5085"
       x1="240.41537"
       y1="575.26831"
       x2="740.96198"
       y2="169.36858"
       gradientUnits="userSpaceOnUse" /><linearGradient
       xlink:href="#linearGradient5077-1"
       id="linearGradient5093"
       x1="203.44667"
       y1="318.94632"
       x2="563.63208"
       y2="842.80829"
       gradientUnits="userSpaceOnUse" /><rect
       x="676.6927"
       y="29.501663"
       width="264.4473"
       height="96.707763"
       id="rect10974" /><rect
       x="676.6927"
       y="29.501663"
       width="264.4473"
       height="96.707763"
       id="rect11029" /><rect
       x="676.6927"
       y="29.501663"
       width="264.4473"
       height="96.707763"
       id="rect11057" /><rect
       x="676.6927"
       y="29.501663"
       width="264.4473"
       height="96.707763"
       id="rect11068" /><rect
       x="676.6927"
       y="29.501663"
       width="264.4473"
       height="96.707763"
       id="rect11085" /><linearGradient
       id="glow-master-1"><stop
         offset="0.0"
         style="stop-color:#000000;stop-opacity:0.0;"
         id="stop101084" /><stop
         offset="0.11"
         style="stop-color:#442204;stop-opacity:0.22;"
         id="stop101086" /><stop
         offset="0.22"
         style="stop-color:#69190d;stop-opacity:0.44;"
         id="stop101088" /><stop
         offset="0.33"
         style="stop-color:#a52c16;stop-opacity:0.659;"
         id="stop101090" /><stop
         offset="0.44"
         style="stop-color:#eb7513;stop-opacity:0.878;"
         id="stop101092" /><stop
         offset="0.55"
         style="stop-color:#f2c62a;stop-opacity:1.0;"
         id="stop101094" /><stop
         offset="0.66"
         style="stop-color:#5e9a0e;stop-opacity:0.878;"
         id="stop101096" /><stop
         offset="0.77"
         style="stop-color:#0e4d0e;stop-opacity:0.659;"
         id="stop101098" /><stop
         offset="0.88"
         style="stop-color:#073720;stop-opacity:0.44;"
         id="stop101100" /><stop
         offset="0.94"
         style="stop-color:#442204;stop-opacity:0.22;"
         id="stop101102" /><stop
         offset="1.0"
         style="stop-color:#000000;stop-opacity:0.0;"
         id="stop101104" /></linearGradient><filter
       id="glow-filter-statics"
       x="-0.034142926"
       y="-0.034904367"
       width="1.0682865"
       height="1.0698093"><feGaussianBlur
         stdDeviation="3"
         id="feGaussianBlur101107" /></filter><filter
       id="glow-filter-geometrics"
       x="-0.089845812"
       y="-0.055204272"
       width="1.1796916"
       height="1.1104085"><feGaussianBlur
         stdDeviation="3"
         id="feGaussianBlur101110" /></filter><filter
       id="glow-filter-organics"
       x="-0.059221462"
       y="-0.041409117"
       width="1.1184429"
       height="1.0828182"><feGaussianBlur
         stdDeviation="3"
         id="feGaussianBlur101113" /></filter><linearGradient
       xlink:href="#glow-master"
       id="glow-applied-1"
       gradientUnits="userSpaceOnUse"
       x1="281.86696993774086"
       y1="186.9452441911846"
       x2="-43.61911993774085"
       y2="68.47799580881538" /><linearGradient
       xlink:href="#glow-master"
       id="glow-applied-2"
       gradientUnits="userSpaceOnUse"
       x1="216.68970353643374"
       y1="110.60927970058387"
       x2="543.0650597468217"
       y2="226.60415243322882" /><linearGradient
       xlink:href="#glow-master"
       id="glow-applied-3"
       gradientUnits="userSpaceOnUse"
       x1="294.6873211984884"
       y1="136.03230400704985"
       x2="610.262673451882"
       y2="-6.7538321962478705" /><linearGradient
       xlink:href="#glow-master"
       id="glow-applied-9"
       gradientUnits="userSpaceOnUse"
       x1="184.00111602792597"
       y1="-32.86506259979724"
       x2="54.246733972074026"
       y2="288.28830259979725" /><linearGradient
       xlink:href="#glow-master"
       id="glow-applied-10"
       gradientUnits="userSpaceOnUse"
       x1="542.801336027926"
       y1="93.05764740020275"
       x2="413.04695397207405"
       y2="414.21101259979724" /><linearGradient
       xlink:href="#glow-master"
       id="glow-applied-18"
       gradientUnits="userSpaceOnUse"
       x1="119.12392499999999"
       y1="-45.47591104779231"
       x2="119.12392500000001"
       y2="300.8991510477923" /><linearGradient
       xlink:href="#glow-master"
       id="glow-applied-19"
       gradientUnits="userSpaceOnUse"
       x1="477.924145"
       y1="80.44679895220769"
       x2="477.92414500000007"
       y2="426.8218610477923" /><linearGradient
       xlink:href="#glow-master"
       id="glow-applied-20"
       gradientUnits="userSpaceOnUse"
       x1="459.0832310477923"
       y1="187.789775"
       x2="112.7081689522077"
       y2="187.78977500000002" /><linearGradient
       xlink:href="#glow-master"
       id="glow-applied-29"
       gradientUnits="userSpaceOnUse"
       x1="461.0832310477923"
       y1="188.931035"
       x2="114.7081689522077"
       y2="188.93103499999998" /><filter
       id="glow-filter-statics-2"
       x="-0.01849793"
       y="-0.036482185"
       width="1.0369962"
       height="1.072965"><feGaussianBlur
         stdDeviation="3"
         id="feGaussianBlur104238" /></filter><filter
       id="glow-filter-geometrics-4"
       x="-0.059689481"
       y="-0.21876775"
       width="1.119379"
       height="1.4375355"><feGaussianBlur
         stdDeviation="3"
         id="feGaussianBlur104241" /></filter><filter
       id="glow-filter-organics-9"
       x="-0.013237407"
       y="-0.036726714"
       width="1.0264748"
       height="1.0734539"><feGaussianBlur
         stdDeviation="3"
         id="feGaussianBlur104244" /></filter><linearGradient
       xlink:href="#glow-master"
       id="glow-applied-1-9"
       gradientUnits="userSpaceOnUse"
       x1="497.98253391054874"
       y1="-219.789486656566"
       x2="229.6132260894513"
       y2="517.5491266565659" /><linearGradient
       xlink:href="#glow-master"
       id="glow-applied-2-9"
       gradientUnits="userSpaceOnUse"
       x1="525.0361119105487"
       y1="-163.750041656566"
       x2="256.6668040894513"
       y2="573.5885716565659" /><linearGradient
       xlink:href="#glow-master"
       id="glow-applied-3-4"
       gradientUnits="userSpaceOnUse"
       x1="669.3743419105488"
       y1="-54.187561656566004"
       x2="401.0050340894513"
       y2="683.1510516565659" /><linearGradient
       xlink:href="#glow-master"
       id="glow-applied-9-9"
       gradientUnits="userSpaceOnUse"
       x1="0.0361336106153658"
       y1="1.9105345030914407"
       x2="727.5596263893847"
       y2="295.8491054969086" /><linearGradient
       xlink:href="#glow-master"
       id="glow-applied-10-8"
       gradientUnits="userSpaceOnUse"
       x1="171.42794361061536"
       y1="167.51246450309145"
       x2="898.9514363893846"
       y2="461.4510354969086" /><linearGradient
       xlink:href="#glow-master"
       id="glow-applied-11"
       gradientUnits="userSpaceOnUse"
       x1="-189.0365228558783"
       y1="70.03425163293498"
       x2="389.54942411065934"
       y2="600.0612490922551" /><linearGradient
       xlink:href="#glow-master"
       id="glow-applied-16"
       gradientUnits="userSpaceOnUse"
       x1="-28.53180153802333"
       y1="148.87982"
       x2="756.1275615380234"
       y2="148.87982" /><linearGradient
       xlink:href="#glow-master"
       id="glow-applied-17"
       gradientUnits="userSpaceOnUse"
       x1="151.88952608437597"
       y1="326.7333311804086"
       x2="935.0746502117377"
       y2="374.8101177672469" /><linearGradient
       xlink:href="#glow-master"
       id="glow-applied-18-1"
       gradientUnits="userSpaceOnUse"
       x1="309.46558311667775"
       y1="359.9430179541543"
       x2="494.4496199431885"
       y2="-402.5995855653313" /><linearGradient
       xlink:href="#glow-master"
       id="glow-applied-27"
       gradientUnits="userSpaceOnUse"
       x1="325.0228860899596"
       y1="94.62593890469084"
       x2="622.4539743849498"
       y2="1139.1472967994782" /><filter
       id="glow-filter-statics-4"
       x="-0.016460317"
       y="-0.016915177"
       width="1.0329209"
       height="1.0338306"><feGaussianBlur
         stdDeviation="3"
         id="feGaussianBlur104664" /></filter><filter
       id="glow-filter-geometrics-0"
       x="-0.10131056"
       y="-0.091394094"
       width="1.2026211"
       height="1.1827882"><feGaussianBlur
         stdDeviation="3"
         id="feGaussianBlur104667" /></filter><filter
       id="glow-filter-organics-3"
       x="-0.01468831"
       y="-0.022513554"
       width="1.0293766"
       height="1.0450271"><feGaussianBlur
         stdDeviation="3"
         id="feGaussianBlur104670" /></filter><linearGradient
       xlink:href="#glow-master"
       id="glow-applied-1-5"
       gradientUnits="userSpaceOnUse"
       x1="470.4503345058871"
       y1="-130.77032070338703"
       x2="184.36100549411285"
       y2="655.253650703387" /><linearGradient
       xlink:href="#glow-master"
       id="glow-applied-3-5"
       gradientUnits="userSpaceOnUse"
       x1="614.788564505887"
       y1="-21.207840703387035"
       x2="328.6992354941128"
       y2="764.816130703387" /><linearGradient
       xlink:href="#glow-master"
       id="glow-applied-10-9"
       gradientUnits="userSpaceOnUse"
       x1="-60.37471662329148"
       y1="105.56821893969365"
       x2="715.1860566232915"
       y2="418.91511106030634" /><linearGradient
       xlink:href="#glow-master"
       id="glow-applied-11-9"
       gradientUnits="userSpaceOnUse"
       x1="83.96351337670853"
       y1="215.13069893969364"
       x2="859.5242866232916"
       y2="528.4775910603064" /><linearGradient
       xlink:href="#glow-master"
       id="glow-applied-12"
       gradientUnits="userSpaceOnUse"
       x1="-287.63631780422924"
       y1="84.02007456704607"
       x2="329.1527878026012"
       y2="649.0439563678165" /><linearGradient
       xlink:href="#glow-master"
       id="glow-applied-17-0"
       gradientUnits="userSpaceOnUse"
       x1="-90.82894950216547"
       y1="262.241665"
       x2="745.6402895021654"
       y2="262.241665" /><linearGradient
       xlink:href="#glow-master"
       id="glow-applied-18-2"
       gradientUnits="userSpaceOnUse"
       x1="59.194478466792106"
       y1="378.4734319135356"
       x2="894.0921367450829"
       y2="429.7246563077939" /><linearGradient
       xlink:href="#glow-master"
       id="glow-applied-19-4"
       gradientUnits="userSpaceOnUse"
       x1="160.50477587567255"
       y1="554.7440391723701"
       x2="1091.6010497661186"
       y2="-133.33447991388354" /><linearGradient
       xlink:href="#glow-master"
       id="glow-applied-24"
       gradientUnits="userSpaceOnUse"
       x1="344.1077662208541"
       y1="460.28906434601265"
       x2="541.3060203850937"
       y2="-352.60307877942085" /><linearGradient
       xlink:href="#glow-master"
       id="glow-applied-33"
       gradientUnits="userSpaceOnUse"
       x1="34.997734537319786"
       y1="332.05097097865166"
       x2="836.8867671061198"
       y2="570.0735901692622" /><linearGradient
       xlink:href="#glow-master"
       id="glow-applied-42"
       gradientUnits="userSpaceOnUse"
       x1="85.72171555023576"
       y1="-25.25885190711773"
       x2="1166.8609192636366"
       y2="388.9033626583154" /><linearGradient
       inkscape:collect="always"
       xlink:href="#glow-master"
       id="linearGradient105157"
       gradientUnits="userSpaceOnUse"
       x1="59.194478466792106"
       y1="378.4734319135356"
       x2="894.0921367450829"
       y2="429.7246563077939" /><linearGradient
       inkscape:collect="always"
       xlink:href="#glow-master"
       id="linearGradient105225"
       gradientUnits="userSpaceOnUse"
       x1="151.88952608437597"
       y1="326.7333311804086"
       x2="935.0746502117377"
       y2="374.8101177672469" /></defs><g
     inkscape:label="Glow"
     transform="matrix(0,-0.55,-0.55,0,1893.6845,1059.97)"
     id="g104801"><path
       id="path46475"
       style="fill:none;stroke:url(#glow-applied-3-4);filter:url(#glow-filter-statics-2);opacity:1;stroke-opacity:1;fill-opacity:1;stroke-width:2;stroke-linecap:round;stroke-linejoin:round;stroke-dasharray:none;paint-order:stroke markers fill"
       inkscape:label="left-statics"
       d="m 615.67704,235.03967 c 0,0 -2.06784,-14.66069 -53.33547,-16.06367 -26.12958,-0.71506 -87.86598,-9.98622 -88.63231,-20.15739 m -272.21608,75.40217 c 0,0 6.62414,-1.5558 13.79574,19.93676 9.19035,27.54252 -11.91531,96.02831 25.86555,98.88831 m 370.41631,-162.37198 -439.17911,-0.41692 60.99125,-61.97439 -0.0665,219.90821 M 483.81047,206.38495 179.33808,206.23002 208.8779,177.29107 208.41974,278.5786 m 61.21687,-13.25711 -67.2162,-65.31984 m 31.48634,100.42694 70.28538,-69.34061"
       transform="matrix(1,0,0,-1,-147.33964,3538.3376)" /><path
       id="path46475-8"
       style="fill:none;stroke:url(#glow-applied-3-5);filter:url(#glow-filter-statics-4);opacity:1;stroke-opacity:1;fill-opacity:1;stroke-width:2;stroke-linecap:round;stroke-linejoin:round;stroke-dasharray:none;paint-order:stroke markers fill"
       inkscape:label="statics"
       d="m 643.49685,243.85322 c 0,0 -12.46474,8.98253 -45.14033,-17.78679 -39.88945,-32.67925 -70.15715,-57.26738 -93.83993,-43.01901 M 175.49318,374.22078 c 0,0 11.16216,-5.85898 31.79574,29.93676 19.56465,33.94132 -3.91531,222.02831 33.86555,224.88831 m 362.41631,-398.37198 -455.17911,-0.41692 84.99125,-85.97439 -0.0665,479.90821 M 573.81047,206.38495 145.33808,206.23002 208.8779,145.29107 208.41974,404.5786 M 547.81047,188.38495 147.33808,188.23002 190.8779,145.29107 190.41974,380.5786 M 283.63661,279.32149 177.81132,175.20839 m 56.09543,153.2202 102.28538,-97.34061"
       transform="translate(-144.33818,-109.56255)" /><path
       id="circle46487"
       style="display:inline;opacity:1;fill:none;fill-opacity:1;stroke:url(#glow-applied-11);stroke-width:4;stroke-linecap:round;stroke-linejoin:round;stroke-dasharray:none;stroke-opacity:1;paint-order:stroke markers fill;filter:url(#glow-filter-geometrics-4)"
       inkscape:label="left-geometrics"
       d="m -160.94278,142.53049 a 15.568295,15.568295 0 0 1 -15.5683,15.56829 15.568295,15.568295 0 0 1 -15.56829,-15.56829 15.568295,15.568295 0 0 1 15.56829,-15.5683 15.568295,15.568295 0 0 1 15.5683,15.5683 z m 25.80937,-14.61965 a 10.044064,10.044064 0 0 1 -10.04406,10.04407 10.044064,10.044064 0 0 1 -10.04407,-10.04407 10.044064,10.044064 0 0 1 10.04407,-10.04406 10.044064,10.044064 0 0 1 10.04406,10.04406 z m 29.23051,-4.22075 a 7.6450386,7.6450386 0 0 1 -7.64504,7.64503 7.6450386,7.6450386 0 0 1 -7.64504,-7.64503 7.6450386,7.6450386 0 0 1 7.64504,-7.64504 7.6450386,7.6450386 0 0 1 7.64504,7.64504 z m 33.106617,0.43379 a 6.5097775,6.5097775 0 0 1 -6.509778,6.50978 6.5097775,6.5097775 0 0 1 -6.509777,-6.50978 6.5097775,6.5097775 0 0 1 6.509777,-6.50978 6.5097775,6.5097775 0 0 1 6.509778,6.50978 z m 34.847924,5.37305 a 4.1887832,4.1887832 0 0 1 -4.188783,4.18879 4.1887832,4.1887832 0 0 1 -4.188783,-4.18879 4.1887832,4.1887832 0 0 1 4.188783,-4.18878 4.1887832,4.1887832 0 0 1 4.188783,4.18878 z"
       transform="matrix(0.93672133,0.35007595,0.35007595,-0.93672133,176.64555,3502.6048)" /><path
       id="circle46487-0"
       style="display:inline;opacity:1;fill:none;fill-opacity:1;stroke:url(#glow-applied-12);stroke-width:4;stroke-linecap:round;stroke-linejoin:round;stroke-dasharray:none;stroke-opacity:1;paint-order:stroke markers fill;filter:url(#glow-filter-geometrics-0)"
       inkscape:label="right-geometrics"
       d="m 239.95491,275.2749 a 15.568295,15.568295 0 0 1 -15.5683,15.5683 15.568295,15.568295 0 0 1 -15.56829,-15.5683 15.568295,15.568295 0 0 1 15.56829,-15.56829 15.568295,15.568295 0 0 1 15.5683,15.56829 z m -28.04737,-30.47734 a 10.044064,10.044064 0 0 1 -10.04406,10.04407 10.044064,10.044064 0 0 1 -10.04406,-10.04407 10.044064,10.044064 0 0 1 10.04406,-10.04406 10.044064,10.044064 0 0 1 10.04406,10.04406 z m 42.87518,56.39229 a 7.6450386,7.6450386 0 0 1 -7.64504,7.64504 7.6450386,7.6450386 0 0 1 -7.64504,-7.64504 7.6450386,7.6450386 0 0 1 7.64504,-7.64504 7.6450386,7.6450386 0 0 1 7.64504,7.64504 z m -64.82383,-74.59801 a 6.5097775,6.5097775 0 0 1 -6.50978,6.50978 6.5097775,6.5097775 0 0 1 -6.50978,-6.50978 6.5097775,6.5097775 0 0 1 6.50978,-6.50977 6.5097775,6.5097775 0 0 1 6.50978,6.50977 z M 172.3504,212.36072 a 4.1887832,4.1887832 0 0 1 -4.18878,4.18878 4.1887832,4.1887832 0 0 1 -4.18878,-4.18878 4.1887832,4.1887832 0 0 1 4.18878,-4.18879 4.1887832,4.1887832 0 0 1 4.18878,4.18879 z"
       transform="rotate(-20.49196,-114.40048,-533.84432)" /><path
       id="path46575"
       style="display:inline;fill:none;stroke:url(#linearGradient105225);filter:url(#glow-filter-organics-9);opacity:1;stroke-opacity:1;fill-opacity:1;stroke-width:5;stroke-linecap:round;stroke-linejoin:round;stroke-dasharray:none;paint-order:stroke markers fill"
       inkscape:label="left-organics"
       d="m 250.24818,246.41148 c 0,0 31.4246,-42.04924 156.09829,-35.25309 122.73959,6.69072 161.84998,67.17225 235.44076,74.06015 80.96825,7.57841 113.12522,-22.81438 113.12522,-22.81438 m -44.72802,29.51053 c 0,0 43.32759,-5.44172 63.75251,8.86323 13.26185,9.28818 13.78323,19.24481 13.78323,19.24481 M 769.06674,256.3314 c 0,0 -4.20447,0.0475 -5.02198,3.1359 -1.0403,3.9302 2.50006,7.77614 0.73551,12.32001 -2.43503,6.27028 -25.30242,10.16009 -25.30242,10.16009 0,0 21.55778,-0.1096 36.89693,8.24981 11.00612,5.99803 10.59063,9.32298 16.89607,11.9067 10.33657,4.23552 15.7082,0.31267 15.7082,0.31267 m -8.95671,-41.49878 c 0,0 -2.84322,0.6501 -3.80899,3.76604 -0.78692,2.53903 2.26938,5.59156 0.62466,9.03551 -2.00765,4.204 -11.54524,6.46265 -11.54524,6.46265 0,0 12.63407,0.39799 23.95117,3.84527 8.72383,2.65737 11.5773,5.8908 16.15166,7.57082 7.49881,2.75406 11.12827,1.20958 11.12827,1.20958 m -9.98839,-31.45447 c 0,0 -3.1607,0.35368 -3.57652,2.8698 -0.42008,2.54174 1.25903,3.63166 0.73332,5.89951 -0.76229,3.28872 -6.532,5.72643 -6.532,5.72643 0,0 10.66843,-2.14541 19.78331,-0.0348 7.02621,1.62688 9.2901,4.00818 13.11917,4.90875 7.15577,1.68305 9.37668,-0.25659 9.37668,-0.25659 m -8.70338,-21.47156 c 0,0 -2.37276,0.19877 -3.16369,1.89902 -0.83832,1.80225 0.88736,2.73656 0.54111,4.32297 -0.57707,2.64282 -3.19152,3.64937 -3.19152,3.64937 0,0 7.79553,-1.74689 14.19993,-0.77268 4.93676,0.75096 6.7349,2.23998 10.53276,3.21988 6.15585,1.5883 7.22518,-1.42345 7.22518,-1.42345 m -6.69207,-16.18399 c 0,0 -1.55534,-0.13026 -1.83317,1.33018 -0.16168,0.85008 1.11565,1.06042 0.41439,3.15007 -0.66895,1.99256 -2.79904,3.10175 -2.79904,3.10175 0,0 5.81868,-1.75736 8.90618,-1.60964 2.82467,0.13519 4.30898,0.96746 6.75759,1.37606 6.40128,1.06791 7.22517,-1.42345 7.22517,-1.42345 m -10.48166,-4.23105 c 0,0 11.45919,-2.36022 12.71687,-10.96928 1.06932,-7.31925 7.62631,-8.87801 7.62631,-8.87801 m -22.7821,15.63777 c 0,0 5.02524,-1.20262 6.88764,-4.4347 1.86242,-3.23211 -0.83097,-5.86348 -0.83097,-5.86348 m 14.97152,3.10721 c 0,0 1.39589,-1.81644 7.393,-2.75384 5.9815,-0.935 8.32307,0.0299 8.32307,0.0299 m -663.65646,9.19341 c -0.86474,-0.93059 14.34732,-11.25814 46.26766,-5.30341 40.13367,7.48692 52.86062,32.36699 67.9684,34.27133 10.07855,1.27041 23.85043,-1.21022 22.91657,-9.80353 -0.71392,-6.5696 -2.94832,-6.01624 -2.94832,-6.01624 m -6.84366,39.1735 c 0,0 2.17855,-2.15172 -0.29715,-7.95785 -3.06548,-7.18929 -8.81221,-9.58152 -8.81221,-9.58152 m 29.50316,-14.4718 c 0,0 1.19106,-0.13943 -3.85282,7.7061 -4.86233,7.56313 -15.26107,5.32934 -15.26107,5.32934 m 6.75596,22.94719 c 0,0 3.67167,-1.82999 3.43044,-8.06707 -0.16506,-4.26768 -5.60115,-9.86567 -5.60115,-9.86567 m 34.27505,11.15163 a 8.5505882,8.5505882 0 0 1 -12.08877,-0.29424 8.5505882,8.5505882 0 0 1 0.29424,-12.08878 8.5505882,8.5505882 0 0 1 12.08878,0.29424 8.5505882,8.5505882 0 0 1 -0.29425,12.08878 z m 22.99617,-5.146 a 5.1774434,5.1774434 0 0 1 -7.31985,-0.17816 5.1774434,5.1774434 0 0 1 0.17817,-7.31985 5.1774434,5.1774434 0 0 1 7.31985,0.17817 5.1774434,5.1774434 0 0 1 -0.17817,7.31984 z m 17.20769,-10.42934 a 3.060084,3.060084 0 0 1 -4.32633,-0.1053 3.060084,3.060084 0 0 1 0.10531,-4.32634 3.060084,3.060084 0 0 1 4.32633,0.10531 3.060084,3.060084 0 0 1 -0.10531,4.32633 z m -202.8214,-34.99198 c 0,0 34.24827,16.09394 27.40492,49.58186 -7.30641,35.75392 -42.86019,39.72653 -63.74202,75.47355 -27.00644,46.23158 6.46091,83.27068 6.46091,83.27068 m -26.02564,-46.30408 c 0,0 2.6662,6.88473 -4.56778,14.52137 -7.23384,7.63655 -13.52918,7.67594 -13.52918,7.67594 m 20.57351,-7.6926 c -0.18145,0.61533 1.12754,5.67674 -2.55327,11.56666 -4.98543,7.97747 -10.67087,8.20939 -10.67087,8.20939 m 16.93571,-6.53456 c -0.18145,0.61534 0.5341,2.12174 -1.64454,7.55808 -2.85987,7.13609 -8.01545,8.24236 -8.01545,8.24236 m 14.28316,-5.31733 c -0.18143,0.61535 0.7018,4.48769 -0.59966,8.17958 -1.84947,5.24615 -4.37174,5.54893 -4.37174,5.54893 m 10.53597,-4.70059 c -0.18143,0.61532 0.85135,2.35779 0.29629,5.12224 -0.6907,3.43969 -2.8073,4.43179 -2.8073,4.43179 m 8.6302,-3.40641 c -0.18143,0.61532 0.30068,2.32256 0.0865,4.11565 -0.23803,1.99295 -1.66084,3.06761 -1.66084,3.06761 m 8.28783,-3.78716 c -0.43426,0.47144 0.32925,1.86688 0.84563,3.41494 0.54082,1.6223 -0.53937,2.87358 -0.53937,2.87358"
       transform="matrix(0.99812118,0.06127091,0.06127091,-0.99812118,-176.10309,3540.6689)" /><path
       id="path46575-4"
       style="display:inline;fill:none;stroke:url(#linearGradient105157);filter:url(#glow-filter-organics-3);opacity:1;stroke-opacity:1;fill-opacity:1;stroke-width:5;stroke-linecap:round;stroke-linejoin:round;stroke-dasharray:none;paint-order:stroke markers fill"
       inkscape:label="right-organics"
       d="m 250.24818,246.41148 c 0,0 50.89834,-72.71943 174.29366,-53.65869 146.12558,22.57186 162.08038,119.42858 250.34218,109.73849 50.97093,-5.596 58.52676,-38.67853 58.52676,-38.67853 m -15.73324,33.8604 c 0,0 21.86395,-9.92923 46.54492,-6.37134 16.0253,2.31013 20.98038,10.96193 20.98038,10.96193 m -36.39818,-66.78753 c 0,0 -3.22538,1.64432 -2.20796,5.96368 1.29479,5.4967 6.08622,9.15978 7.14879,15.72623 1.46626,9.06133 -14.1366,22.72137 -14.1366,22.72137 0,0 16.60932,-8.2568 32.93386,-3.17206 11.71317,3.6484 13.16778,8.12373 19.42293,9.10645 10.25413,1.61101 12.31212,-5.50647 12.31212,-5.50647 m -42.22774,-45.69743 c 0,0 -1.85108,1.91465 -0.93357,6.32563 0.74767,3.59426 4.74107,6.40895 5.30884,11.50153 0.69309,6.21648 -5.47474,12.74035 -5.47474,12.74035 0,0 9.98085,-4.23855 20.57211,-4.02052 8.1643,0.16811 12.0975,3.29412 16.53156,3.75457 7.26881,0.75481 9.25009,-2.61754 9.25009,-2.61754 m -33.21611,-31.76688 c 0,0 -2.25486,1.64911 -1.2325,5.07394 1.03275,3.45971 2.91311,4.24344 3.71796,7.38713 1.16712,4.55879 -1.99188,9.897 -1.99188,9.897 0,0 7.10266,-6.80242 15.27728,-7.49177 6.30138,-0.53146 9.32361,1.7096 12.76513,1.43811 6.43155,-0.50726 7.11273,-3.8627 7.11273,-3.8627 m -26.89074,-19.2832 c 0,0 -1.72838,1.1513 -1.43181,3.65755 0.31443,2.65658 2.14769,3.22065 2.72713,5.41172 0.96536,3.6501 -0.51846,5.94165 -0.51846,5.94165 0,0 5.09426,-5.2034 10.56628,-6.34859 4.21807,-0.88275 6.40361,0.37458 9.86337,0.21789 5.60783,-0.25396 4.82605,-4.56857 4.82605,-4.56857 m -18.75763,-14.55386 c 0,0 -1.27212,0.41623 -0.70691,2.41785 0.32902,1.16507 1.42896,0.9575 2.00287,3.9358 0.547,2.84002 -0.5075,5.08258 -0.5075,5.08258 0,0 3.56024,-4.47289 6.02629,-5.44317 2.25615,-0.88765 3.8483,-0.36523 5.95974,-0.75614 5.51965,-1.02231 4.82602,-4.56856 4.82602,-4.56856 m -10.36393,-1.55059 c 0,0 7.59931,-7.37909 3.97362,-19.03523 -3.08244,-9.90982 1.1547,-14.40265 1.1547,-14.40265 m -9.26232,28.88795 c 0,0 3.24304,-3.45366 2.95674,-8.353 -0.28631,-4.89936 -3.77415,-7.30359 -3.77415,-7.30359 m 13.23509,-1.59921 c 0,0 0.1091,-2.88489 4.24523,-6.35985 4.12534,-3.46599 6.4511,-3.09406 6.4511,-3.09406 m -566.66232,66.48808 c -1.26329,0.13377 -1.53738,-19.53542 23.50762,-40.20216 24.71114,-20.39127 54.55654,-25.47376 65.14189,-36.42008 7.0616,-7.3024 9.22245,-18.05767 1.78637,-22.46468 -5.6849,-3.36917 -12.22069,-0.79259 -12.22069,-0.79259 m 36.99295,26.76307 c 0,0 -0.41502,-3.03377 -6.54572,-4.53532 -7.5912,-1.85926 -12.95221,1.30415 -12.95221,1.30415 m -2.11294,-28.78276 c 0,0 4.71741,-2.78886 7.96973,5.95274 3.13526,8.42694 -0.77466,13.65549 -0.77466,13.65549 m 22.41346,8.35784 c 0,0 0.73799,-4.03552 -4.39732,-7.58347 -3.5138,-2.42767 -11.2536,-1.43562 -11.2536,-1.43562 m 21.25182,-17.23216 a 8.550589,8.550589 0 0 1 -7.48623,9.49637 8.550589,8.550589 0 0 1 -9.49639,-7.48624 8.550589,8.550589 0 0 1 7.48625,-9.49637 8.550589,8.550589 0 0 1 9.49637,7.48624 z m 23.0079,2.97209 a 5.1774436,5.1774436 0 0 1 -4.53298,5.75013 5.1774436,5.1774436 0 0 1 -5.75012,-4.53298 5.1774436,5.1774436 0 0 1 4.53297,-5.75012 5.1774436,5.1774436 0 0 1 5.75013,4.53297 z m 19.88001,8.32102 a 3.060084,3.060084 0 0 1 -2.67919,3.39856 3.060084,3.060084 0 0 1 -3.39856,-2.67918 3.060084,3.060084 0 0 1 2.67918,-3.39856 3.060084,3.060084 0 0 1 3.39857,2.67918 z m -170.85607,90.15762 c 0,0 15.50216,-27.71843 63.33246,-26.58762 57.84925,1.36768 95.35997,86.42469 172.76801,86.20327 53.54142,-0.15314 67.72375,-21.08083 67.72375,-21.08083 m -44.92982,28.33218 c 0,0 6.7412,-3.01069 14.73363,3.82817 7.99233,6.83872 8.34978,13.12402 8.34978,13.12402 m -8.72238,-20.15851 c 0.62372,0.15013 5.61252,-1.41295 11.6809,1.96553 8.21921,4.57595 8.73812,10.24241 8.73812,10.24241 m -7.38199,-16.58387 c 0.62372,0.15012 2.09204,-0.64063 7.63152,1.26051 7.27149,2.49563 8.63686,7.58872 8.63686,7.58872 m -6.03228,-13.99622 c 0.62373,0.1501 4.4465,-0.92767 8.19944,0.18557 5.3329,1.58201 5.76275,4.08576 5.76275,4.08576 m -5.22698,-10.28498 c 0.6237,0.15011 2.31175,-0.9694 5.10073,-0.55475 3.47019,0.51601 4.56797,2.57977 4.56797,2.57977 m -3.83814,-8.44704 c 0.6237,0.15011 2.30439,-0.41765 4.10601,-0.29437 2.00244,0.13703 3.14762,1.50371 3.14762,1.50371 m -4.20111,-8.08587 c 0.49277,0.40988 1.84786,-0.42317 3.36784,-1.01711 1.5929,-0.6221 2.89716,0.39347 2.89716,0.39347 M 253.9094,249.41351 c 0,0 44.74422,5.94215 41.19795,53.65422 -4.28912,57.70623 -108.97748,101.81185 -112.66785,179.13219 -2.55256,53.48076 17.63174,68.70247 17.63174,68.70247 m -26.02563,-46.30408 c 0,0 2.6662,6.88473 -4.56778,14.52137 -7.23384,7.63655 -13.52918,7.67594 -13.52918,7.67594 m 20.57351,-7.6926 c -0.18146,0.61533 1.12753,5.67674 -2.55327,11.56666 -4.98543,7.97748 -10.67088,8.20939 -10.67088,8.20939 m 16.93571,-6.53456 c -0.18145,0.61534 0.5341,2.12174 -1.64453,7.55808 -2.85988,7.13609 -8.01545,8.24236 -8.01545,8.24236 m 14.28316,-5.31733 c -0.18143,0.61535 0.7018,4.48769 -0.59966,8.17958 -1.84947,5.24615 -4.37174,5.54893 -4.37174,5.54893 m 10.53597,-4.70059 c -0.18144,0.61532 0.85134,2.35779 0.29629,5.12224 -0.6907,3.43969 -2.8073,4.43179 -2.8073,4.43179 m 8.6302,-3.40641 c -0.18144,0.61532 0.30067,2.32256 0.0865,4.11565 -0.23804,1.99295 -1.66084,3.06761 -1.66084,3.06761 m 8.28782,-3.78716 c -0.43426,0.47144 0.32926,1.86688 0.84563,3.41494 0.54082,1.6223 -0.53936,2.87358 -0.53936,2.87358 m 47.71605,-316.83149 c 0,0 17.86989,21.56671 3.93353,44.48558 -17.26821,28.39819 -54.20599,34.88387 -81.20504,8.49142 -23.73386,-23.2006 -3.70001,-55.91772 19.20732,-56.35572 17.58763,-0.3363 23.83693,10.30518 23.83693,10.30518 m -16.43579,-3.01452 c 0,0 10.21047,0.91002 17.62217,15.07559 5.49918,10.51028 -1.22994,15.57416 -1.22994,15.57416 m -4.86573,-14.15426 c 0,0 3.08157,5.84539 -1.78649,11.88848 -4.86807,6.04308 -13.90094,3.40969 -13.90094,3.40969 m 8.47134,-8.4817 c 0,0 -4.12887,1.85286 -10.07068,-0.50271 -6.3524,-2.51833 -6.14878,-9.53398 -6.14878,-9.53398"
       transform="rotate(-3.5127647,-1911.0493,2766.5841)" /></g><g
     inkscape:label="Shape"
     id="g104921"
     style="display:inline"
     transform="matrix(0,-0.55,-0.55,0,1892.5845,1059.97)"><path
       id="path104815"
       style="opacity:1;fill:none;fill-opacity:1;stroke:#e8e2da;stroke-width:2;stroke-linecap:round;stroke-linejoin:round;stroke-dasharray:none;stroke-opacity:1;paint-order:stroke markers fill"
       inkscape:label="44-devices"
       transform="translate(-144.33818,-109.56255)"
       d="m 643.49685,243.85322 c 0,0 -12.46474,8.98253 -45.14033,-17.78679 -39.88945,-32.67925 -70.15715,-57.26738 -93.83993,-43.01901 M 175.49318,374.22078 c 0,0 11.16216,-5.85898 31.79574,29.93676 19.56465,33.94132 -3.91531,222.02831 33.86555,224.88831 m 362.41631,-398.37198 -455.17911,-0.41692 84.99125,-85.97439 -0.0665,479.90821 M 573.81047,206.38495 145.33808,206.23002 208.8779,145.29107 208.41974,404.5786 M 547.81047,188.38495 147.33808,188.23002 190.8779,145.29107 190.41974,380.5786 M 283.63661,279.32149 177.81132,175.20839 m 56.09543,153.2202 102.28538,-97.34061 M 612.67558,3408.8605 c 0,0 -2.06784,14.6607 -53.33547,16.0636 -26.12958,0.7151 -87.86598,9.9863 -88.63231,20.1574 m -272.21608,-75.4021 c 0,0 6.62414,1.5558 13.79574,-19.9368 9.19035,-27.5425 -11.91531,-96.0283 25.86555,-98.8883 m 370.41631,162.372 -439.17911,0.4169 60.99125,61.9744 -0.0665,-219.9082 m 250.49405,181.8058 -304.47239,0.1549 29.53982,28.939 -0.45816,-101.2875 m 61.21687,13.2571 -67.2162,65.3198 m 31.48634,-100.4269 70.28538,69.3406" /><path
       id="circle104829"
       style="display:inline;opacity:1;fill:none;fill-opacity:1;stroke:#e8e2da;stroke-width:4;stroke-linecap:round;stroke-linejoin:round;stroke-dasharray:none;stroke-opacity:1;paint-order:stroke markers fill"
       inkscape:label="circles"
       transform="rotate(-20.49196,-114.40048,-533.84432)"
       d="m 239.95491,275.2749 a 15.568295,15.568295 0 0 1 -15.5683,15.5683 15.568295,15.568295 0 0 1 -15.56829,-15.5683 15.568295,15.568295 0 0 1 15.56829,-15.56829 15.568295,15.568295 0 0 1 15.5683,15.56829 z m -28.04737,-30.47734 a 10.044064,10.044064 0 0 1 -10.04406,10.04407 10.044064,10.044064 0 0 1 -10.04406,-10.04407 10.044064,10.044064 0 0 1 10.04406,-10.04406 10.044064,10.044064 0 0 1 10.04406,10.04406 z m 42.87518,56.39229 a 7.6450386,7.6450386 0 0 1 -7.64504,7.64504 7.6450386,7.6450386 0 0 1 -7.64504,-7.64504 7.6450386,7.6450386 0 0 1 7.64504,-7.64504 7.6450386,7.6450386 0 0 1 7.64504,7.64504 z m -64.82383,-74.59801 a 6.5097775,6.5097775 0 0 1 -6.50978,6.50978 6.5097775,6.5097775 0 0 1 -6.50978,-6.50978 6.5097775,6.5097775 0 0 1 6.50978,-6.50977 6.5097775,6.5097775 0 0 1 6.50978,6.50977 z M 172.3504,212.36072 a 4.1887832,4.1887832 0 0 1 -4.18878,4.18878 4.1887832,4.1887832 0 0 1 -4.18878,-4.18878 4.1887832,4.1887832 0 0 1 4.18878,-4.18879 4.1887832,4.1887832 0 0 1 4.18878,4.18879 z M -1281.4513,3132.1757 a 15.568295,15.568295 0 0 0 -1.542,-21.9628 15.568295,15.568295 0 0 0 -21.9629,1.542 15.568295,15.568295 0 0 0 1.542,21.9628 15.568295,15.568295 0 0 0 21.9629,-1.542 z m 9.895,27.9633 a 10.044064,10.044064 0 0 0 -0.9948,-14.1696 10.044064,10.044064 0 0 0 -14.1696,0.9949 10.044064,10.044064 0 0 0 0.9949,14.1695 10.044064,10.044064 0 0 0 14.1695,-0.9948 z m 19.2978,22.357 a 7.6450387,7.6450387 0 0 0 -0.7572,-10.7852 7.6450387,7.6450387 0 0 0 -10.7852,0.7572 7.6450387,7.6450387 0 0 0 0.7572,10.7852 7.6450387,7.6450387 0 0 0 10.7852,-0.7572 z m 25.2765,21.3854 a 6.5097776,6.5097776 0 0 0 -0.6448,-9.1836 6.5097776,6.5097776 0 0 0 -9.1836,0.6448 6.5097776,6.5097776 0 0 0 0.6448,9.1836 6.5097776,6.5097776 0 0 0 9.1836,-0.6448 z m 29.8304,18.7988 a 4.1887832,4.1887832 0 0 0 -0.4149,-5.9093 4.1887832,4.1887832 0 0 0 -5.9093,0.4149 4.1887832,4.1887832 0 0 0 0.4149,5.9093 4.1887832,4.1887832 0 0 0 5.9093,-0.4149 z" /><path
       id="path104915"
       style="display:inline;opacity:1;fill:none;fill-opacity:1;stroke:#e8e2da;stroke-width:5;stroke-linecap:round;stroke-linejoin:round;stroke-dasharray:none;stroke-opacity:1;paint-order:stroke markers fill"
       inkscape:label="vines-flowers"
       transform="rotate(-3.5127647,-1911.0493,2766.5841)"
       d="m 250.24818,246.41148 c 0,0 50.89834,-72.71943 174.29366,-53.65869 146.12558,22.57186 162.08038,119.42858 250.34218,109.73849 50.97093,-5.596 58.52676,-38.67853 58.52676,-38.67853 m -15.73324,33.8604 c 0,0 21.86395,-9.92923 46.54492,-6.37134 16.0253,2.31013 20.98038,10.96193 20.98038,10.96193 m -36.39818,-66.78753 c 0,0 -3.22538,1.64432 -2.20796,5.96368 1.29479,5.4967 6.08622,9.15978 7.14879,15.72623 1.46626,9.06133 -14.1366,22.72137 -14.1366,22.72137 0,0 16.60932,-8.2568 32.93386,-3.17206 11.71317,3.6484 13.16778,8.12373 19.42293,9.10645 10.25413,1.61101 12.31212,-5.50647 12.31212,-5.50647 m -42.22774,-45.69743 c 0,0 -1.85108,1.91465 -0.93357,6.32563 0.74767,3.59426 4.74107,6.40895 5.30884,11.50153 0.69309,6.21648 -5.47474,12.74035 -5.47474,12.74035 0,0 9.98085,-4.23855 20.57211,-4.02052 8.1643,0.16811 12.0975,3.29412 16.53156,3.75457 7.26881,0.75481 9.25009,-2.61754 9.25009,-2.61754 m -33.21611,-31.76688 c 0,0 -2.25486,1.64911 -1.2325,5.07394 1.03275,3.45971 2.91311,4.24344 3.71796,7.38713 1.16712,4.55879 -1.99188,9.897 -1.99188,9.897 0,0 7.10266,-6.80242 15.27728,-7.49177 6.30138,-0.53146 9.32361,1.7096 12.76513,1.43811 6.43155,-0.50726 7.11273,-3.8627 7.11273,-3.8627 m -26.89074,-19.2832 c 0,0 -1.72838,1.1513 -1.43181,3.65755 0.31443,2.65658 2.14769,3.22065 2.72713,5.41172 0.96536,3.6501 -0.51846,5.94165 -0.51846,5.94165 0,0 5.09426,-5.2034 10.56628,-6.34859 4.21807,-0.88275 6.40361,0.37458 9.86337,0.21789 5.60783,-0.25396 4.82605,-4.56857 4.82605,-4.56857 m -18.75763,-14.55386 c 0,0 -1.27212,0.41623 -0.70691,2.41785 0.32902,1.16507 1.42896,0.9575 2.00287,3.9358 0.547,2.84002 -0.5075,5.08258 -0.5075,5.08258 0,0 3.56024,-4.47289 6.02629,-5.44317 2.25615,-0.88765 3.8483,-0.36523 5.95974,-0.75614 5.51965,-1.02231 4.82602,-4.56856 4.82602,-4.56856 m -10.36393,-1.55059 c 0,0 7.59931,-7.37909 3.97362,-19.03523 -3.08244,-9.90982 1.1547,-14.40265 1.1547,-14.40265 m -9.26232,28.88795 c 0,0 3.24304,-3.45366 2.95674,-8.353 -0.28631,-4.89936 -3.77415,-7.30359 -3.77415,-7.30359 m 13.23509,-1.59921 c 0,0 0.1091,-2.88489 4.24523,-6.35985 4.12534,-3.46599 6.4511,-3.09406 6.4511,-3.09406 m -566.66232,66.48808 c -1.26329,0.13377 -1.53738,-19.53542 23.50762,-40.20216 24.71114,-20.39127 54.55654,-25.47376 65.14189,-36.42008 7.0616,-7.3024 9.22245,-18.05767 1.78637,-22.46468 -5.6849,-3.36917 -12.22069,-0.79259 -12.22069,-0.79259 m 36.99295,26.76307 c 0,0 -0.41502,-3.03377 -6.54572,-4.53532 -7.5912,-1.85926 -12.95221,1.30415 -12.95221,1.30415 m -2.11294,-28.78276 c 0,0 4.71741,-2.78886 7.96973,5.95274 3.13526,8.42694 -0.77466,13.65549 -0.77466,13.65549 m 22.41346,8.35784 c 0,0 0.73799,-4.03552 -4.39732,-7.58347 -3.5138,-2.42767 -11.2536,-1.43562 -11.2536,-1.43562 m 21.25182,-17.23216 a 8.550589,8.550589 0 0 1 -7.48623,9.49637 8.550589,8.550589 0 0 1 -9.49639,-7.48624 8.550589,8.550589 0 0 1 7.48625,-9.49637 8.550589,8.550589 0 0 1 9.49637,7.48624 z m 23.0079,2.97209 a 5.1774436,5.1774436 0 0 1 -4.53298,5.75013 5.1774436,5.1774436 0 0 1 -5.75012,-4.53298 5.1774436,5.1774436 0 0 1 4.53297,-5.75012 5.1774436,5.1774436 0 0 1 5.75013,4.53297 z m 19.88001,8.32102 a 3.060084,3.060084 0 0 1 -2.67919,3.39856 3.060084,3.060084 0 0 1 -3.39856,-2.67918 3.060084,3.060084 0 0 1 2.67918,-3.39856 3.060084,3.060084 0 0 1 3.39857,2.67918 z m -170.85607,90.15762 c 0,0 15.50216,-27.71843 63.33246,-26.58762 57.84925,1.36768 95.35997,86.42469 172.76801,86.20327 53.54142,-0.15314 67.72375,-21.08083 67.72375,-21.08083 m -44.92982,28.33218 c 0,0 6.7412,-3.01069 14.73363,3.82817 7.99233,6.83872 8.34978,13.12402 8.34978,13.12402 m -8.72238,-20.15851 c 0.62372,0.15013 5.61252,-1.41295 11.6809,1.96553 8.21921,4.57595 8.73812,10.24241 8.73812,10.24241 m -7.38199,-16.58387 c 0.62372,0.15012 2.09204,-0.64063 7.63152,1.26051 7.27149,2.49563 8.63686,7.58872 8.63686,7.58872 m -6.03228,-13.99622 c 0.62373,0.1501 4.4465,-0.92767 8.19944,0.18557 5.3329,1.58201 5.76275,4.08576 5.76275,4.08576 m -5.22698,-10.28498 c 0.6237,0.15011 2.31175,-0.9694 5.10073,-0.55475 3.47019,0.51601 4.56797,2.57977 4.56797,2.57977 m -3.83814,-8.44704 c 0.6237,0.15011 2.30439,-0.41765 4.10601,-0.29437 2.00244,0.13703 3.14762,1.50371 3.14762,1.50371 m -4.20111,-8.08587 c 0.49277,0.40988 1.84786,-0.42317 3.36784,-1.01711 1.5929,-0.6221 2.89716,0.39347 2.89716,0.39347 M 253.9094,249.41351 c 0,0 44.74422,5.94215 41.19795,53.65422 -4.28912,57.70623 -108.97748,101.81185 -112.66785,179.13219 -2.55256,53.48076 17.63174,68.70247 17.63174,68.70247 m -26.02563,-46.30408 c 0,0 2.6662,6.88473 -4.56778,14.52137 -7.23384,7.63655 -13.52918,7.67594 -13.52918,7.67594 m 20.57351,-7.6926 c -0.18146,0.61533 1.12753,5.67674 -2.55327,11.56666 -4.98543,7.97748 -10.67088,8.20939 -10.67088,8.20939 m 16.93571,-6.53456 c -0.18145,0.61534 0.5341,2.12174 -1.64453,7.55808 -2.85988,7.13609 -8.01545,8.24236 -8.01545,8.24236 m 14.28316,-5.31733 c -0.18143,0.61535 0.7018,4.48769 -0.59966,8.17958 -1.84947,5.24615 -4.37174,5.54893 -4.37174,5.54893 m 10.53597,-4.70059 c -0.18144,0.61532 0.85134,2.35779 0.29629,5.12224 -0.6907,3.43969 -2.8073,4.43179 -2.8073,4.43179 m 8.6302,-3.40641 c -0.18144,0.61532 0.30067,2.32256 0.0865,4.11565 -0.23804,1.99295 -1.66084,3.06761 -1.66084,3.06761 m 8.28782,-3.78716 c -0.43426,0.47144 0.32926,1.86688 0.84563,3.41494 0.54082,1.6223 -0.53936,2.87358 -0.53936,2.87358 m 47.71605,-316.83149 c 0,0 17.86989,21.56671 3.93353,44.48558 -17.26821,28.39819 -54.20599,34.88387 -81.20504,8.49142 -23.73386,-23.2006 -3.70001,-55.91772 19.20732,-56.35572 17.58763,-0.3363 23.83693,10.30518 23.83693,10.30518 m -16.43579,-3.01452 c 0,0 10.21047,0.91002 17.62217,15.07559 5.49918,10.51028 -1.22994,15.57416 -1.22994,15.57416 m -4.86573,-14.15426 c 0,0 3.08157,5.84539 -1.78649,11.88848 -4.86807,6.04308 -13.90094,3.40969 -13.90094,3.40969 m 8.47134,-8.4817 c 0,0 -4.12887,1.85286 -10.07068,-0.50271 -6.3524,-2.51833 -6.14878,-9.53398 -6.14878,-9.53398 M 51.961692,3427.5706 c 0,0 26.045547,45.5771 150.614408,54.081 122.63638,8.372 168.85071,-46.8718 242.73142,-44.707 81.28725,2.3819 109.48539,36.4796 109.48539,36.4796 m -40.78271,-34.7597 c 0,0 42.33669,10.7004 64.35792,-0.999 14.29832,-7.5963 16.0336,-17.4144 16.0336,-17.4144 m -26.30356,60.9315 c 0,0 -4.16709,-0.5614 -4.60072,-3.7266 -0.55178,-4.0279 3.4324,-7.4119 2.23687,-12.1375 -1.64982,-6.521 -23.86975,-13.1786 -23.86975,-13.1786 0,0 21.38252,2.7456 37.62895,-3.6749 11.65711,-4.6069 11.65142,-7.9577 18.22554,-9.7508 10.77701,-2.9394 15.6285,1.611 15.6285,1.611 m -13.96524,40.0917 c 0,0 -2.74236,-0.993 -3.31977,-4.2036 -0.47045,-2.6163 2.93626,-5.272 1.72512,-8.8913 -1.47838,-4.418 -10.6681,-7.8262 -10.6681,-7.8262 0,0 12.58789,1.1502 24.24166,-0.8869 8.98336,-1.5704 12.21089,-4.4306 16.95639,-5.5385 7.77936,-1.8162 11.19266,0.1606 11.19266,0.1606 m -13.76064,29.9966 c 0,0 -3.09371,-0.7376 -3.19865,-3.2857 -0.10605,-2.574 1.69377,-3.4504 1.44939,-5.7655 -0.35432,-3.3572 -5.78255,-6.4824 -5.78255,-6.4824 0,0 10.32592,3.4342 19.63052,2.4543 7.17244,-0.7553 9.71059,-2.8418 13.62106,-3.2673 7.3079,-0.7951 9.2749,1.4016 9.2749,1.4016 m -11.26426,20.2458 c 0,0 -2.33063,-0.4875 -2.90766,-2.2717 -0.61159,-1.8913 1.21541,-2.6075 1.06579,-4.2243 -0.24949,-2.6936 -2.72119,-4.0124 -2.72119,-4.0124 0,0 7.52333,2.6873 13.9988,2.5037 4.99155,-0.1415 6.95831,-1.3994 10.84751,-1.9074 6.3039,-0.8234 6.99683,2.2965 6.99683,2.2965 m -8.62132,15.2439 c 0,0 -1.55959,-0.061 -1.65671,-1.5444 -0.0565,-0.8634 1.23698,-0.916 0.79657,-3.0757 -0.42021,-2.0594 -2.39864,-3.4208 -2.39864,-3.4208 0,0 5.56004,2.4558 8.64243,2.6869 2.82,0.2113 4.39496,-0.4332 6.87516,-0.5392 6.48384,-0.277 6.99682,2.2965 6.99682,2.2965 m -10.92047,2.9172 c 0,0 11.08447,3.7441 11.27972,12.4423 0.16606,7.3951 6.48317,9.7442 6.48317,9.7442 m -20.69837,-18.3069 c 0,0 4.84041,1.8082 6.29351,5.2439 1.45311,3.4356 -1.5419,5.7178 -1.5419,5.7178 m 15.23916,-1.2527 c 0,0 1.16323,1.9735 7.00066,3.6374 5.82223,1.6596 8.26424,0.9883 8.26424,0.9883 M 51.24504,3423.3943 c -0.97207,0.8178 12.862595,12.9284 45.271602,10.9226 40.748078,-2.5219 56.422588,-25.6585 71.649858,-25.7007 10.15826,-0.028 23.52333,4.1184 21.54542,12.5329 -1.5121,6.433 -3.66204,5.6105 -3.66204,5.6105 m -2.0009,-39.7165 c 0,0 1.89901,2.4021 -1.26826,7.8618 -3.92179,6.7604 -9.91797,8.4317 -9.91797,8.4317 m 27.51157,17.9718 c 0,0 1.16506,0.284 -2.88135,-8.1195 -3.90076,-8.1011 -14.49464,-7.1559 -14.49464,-7.1559 m 9.51194,-21.9486 c 0,0 3.42027,2.2653 2.41799,8.4261 -0.68581,4.2154 -6.76578,9.1065 -6.76578,9.1065 m 35.38167,-6.8757 a 8.5505883,8.5505883 0 0 0 -12.03399,-1.1866 8.5505883,8.5505883 0 0 0 -1.18657,12.0341 8.5505883,8.5505883 0 0 0 12.03401,1.1865 8.5505883,8.5505883 0 0 0 1.18655,-12.034 z m 22.1941,7.9201 a 5.1774434,5.1774434 0 0 0 -7.28668,-0.7185 5.1774434,5.1774434 0 0 0 -0.71847,7.2867 5.1774434,5.1774434 0 0 0 7.28668,0.7184 5.1774434,5.1774434 0 0 0 0.71847,-7.2866 z m 15.80286,12.4557 a 3.060084,3.060084 0 0 0 -4.30673,-0.4246 3.060084,3.060084 0 0 0 -0.42464,4.3067 3.060084,3.060084 0 0 0 4.30673,0.4246 3.060084,3.060084 0 0 0 0.42464,-4.3067 z m -205.578493,9.9219 c 0,0 35.959601,-11.7842 33.263593,-45.8577 -2.878434,-36.3791 -37.679371,-44.6705 -54.03214,-82.7033 -21.149012,-49.1876 16.597368,-81.8552 16.597368,-81.8552 M 20.29768,3257.396 c 0,0 3.488263,-6.5069 -2.757353,-14.971 -6.245488,-8.464 -12.4887429,-9.2731 -12.4887429,-9.2731 m 19.4781449,10.1512 c -0.104825,-0.6329 1.813405,-5.4962 -1.119363,-11.7921 -3.972261,-8.5273 -9.586647,-9.4529 -9.586647,-9.4529 m 16.0093,8.5569 c -0.104824,-0.6329 0.789604,-2.0405 -0.707751,-7.7025 -1.965571,-7.4323 -6.947132,-9.1608 -6.947132,-9.1608 m 13.525547,7.0244 c -0.104803,-0.6329 1.245428,-4.3682 0.4053,-8.1915 -1.193919,-5.433 -3.660217,-6.042 -3.660217,-6.042 m 9.881926,5.9539 c -0.104807,-0.6328 1.133343,-2.2359 0.920575,-5.0475 -0.2648,-3.4983 -2.244163,-4.7419 -2.244163,-4.7419 m 8.148759,4.4364 c -0.104807,-0.6329 0.582499,-2.2683 0.589242,-4.0741 0.0075,-2.0071 -1.273165,-3.2478 -1.273165,-3.2478 m 7.762389,4.7725 c -0.373337,-0.521 0.555119,-1.8126 1.256968,-3.2859 0.735185,-1.544 -0.183849,-2.918 -0.183849,-2.918" /></g></svg>
