<?xml version="1.0" encoding="UTF-8" standalone="no"?>
<!-- Created with Inkscape (http://www.inkscape.org/) -->

<svg
   version="1.1"
   id="svg55"
   width="904.32001"
   height="904.32001"
   viewBox="0 0 904.32001 904.32001"
   sodipodi:docname="jl_logo_flat-darkmode-fancyshimmer.svg"
   inkscape:version="1.2.2 (b0a8486541, 2022-12-01)"
   xmlns:inkscape="http://www.inkscape.org/namespaces/inkscape"
   xmlns:sodipodi="http://sodipodi.sourceforge.net/DTD/sodipodi-0.dtd"
   xmlns:xlink="http://www.w3.org/1999/xlink"
   xmlns="http://www.w3.org/2000/svg"
   xmlns:svg="http://www.w3.org/2000/svg">
  <sodipodi:namedview
     id="namedview130"
     pagecolor="#505050"
     bordercolor="#ffffff"
     borderopacity="1"
     inkscape:showpageshadow="0"
     inkscape:pageopacity="0"
     inkscape:pagecheckerboard="1"
     inkscape:deskcolor="#505050"
     showgrid="false"
     inkscape:zoom="0.61814401"
     inkscape:cx="392.3034"
     inkscape:cy="398.77439"
     inkscape:window-width="1366"
     inkscape:window-height="722"
     inkscape:window-x="0"
     inkscape:window-y="0"
     inkscape:window-maximized="1"
     inkscape:current-layer="svg55" />
  <defs
     id="defs59">
    <linearGradient
       id="Rainbowie-2">
      <stop
         style="stop-color:#000000;stop-opacity:0;"
         offset="0"
         id="stop12632" />
      <stop
         style="stop-color:#442204;stop-opacity:0.22;"
         offset="0.1"
         id="stop12634" />
      <stop
         style="stop-color:#69190d;stop-opacity:0.44;"
         offset="0.22"
         id="stop12636" />
      <stop
         style="stop-color:#a52c16;stop-opacity:0.66000003;"
         offset="0.33000001"
         id="stop12638" />
      <stop
         style="stop-color:#eb7513;stop-opacity:0.88;"
         offset="0.44"
         id="stop12640" />
      <stop
         style="stop-color:#f2c62a;stop-opacity:1;"
         offset="0.55000001"
         id="stop12642" />
      <stop
         style="stop-color:#5e9a0e;stop-opacity:0.88;"
         offset="0.66000003"
         id="stop12644" />
      <stop
         style="stop-color:#07692e;stop-opacity:0.66000003;"
         offset="0.76999998"
         id="stop12646" />
      <stop
         style="stop-color:#073720;stop-opacity:0.44;"
         offset="0.88440341"
         id="stop12648" />
      <stop
         style="stop-color:#442204;stop-opacity:0.21960784;"
         offset="0.94160509"
         id="stop12650" />
      <stop
         style="stop-color:#000000;stop-opacity:0;"
         offset="0.99880683"
         id="stop12652" />
    </linearGradient>
    <linearGradient
       id="Rainbowie-1">
      <stop
         style="stop-color:#000000;stop-opacity:0;"
         offset="0"
         id="stop12609" />
      <stop
         style="stop-color:#442204;stop-opacity:0.22;"
         offset="0.1"
         id="stop12611" />
      <stop
         style="stop-color:#69190d;stop-opacity:0.44;"
         offset="0.22"
         id="stop12613" />
      <stop
         style="stop-color:#a52c16;stop-opacity:0.66000003;"
         offset="0.33000001"
         id="stop12615" />
      <stop
         style="stop-color:#eb7513;stop-opacity:0.88;"
         offset="0.44"
         id="stop12617" />
      <stop
         style="stop-color:#f2c62a;stop-opacity:1;"
         offset="0.55000001"
         id="stop12619" />
      <stop
         style="stop-color:#5e9a0e;stop-opacity:0.88;"
         offset="0.66000003"
         id="stop12621" />
      <stop
         style="stop-color:#07692e;stop-opacity:0.66000003;"
         offset="0.76999998"
         id="stop12623" />
      <stop
         style="stop-color:#073720;stop-opacity:0.44;"
         offset="0.88440341"
         id="stop12625" />
      <stop
         style="stop-color:#442204;stop-opacity:0.21960784;"
         offset="0.94160509"
         id="stop12627" />
      <stop
         style="stop-color:#000000;stop-opacity:0;"
         offset="0.99880683"
         id="stop12629" />
    </linearGradient>
    <linearGradient
       id="linearGradient5077">
      <stop
         style="stop-color:#35031a;stop-opacity:1;"
         offset="0"
         id="stop5065" />
      <stop
         style="stop-color:#9f260a;stop-opacity:1;"
         offset="0.22"
         id="stop5067" />
      <stop
         style="stop-color:#d37a0d;stop-opacity:1;"
         offset="0.44"
         id="stop5069" />
      <stop
         style="stop-color:#076909;stop-opacity:1;"
         offset="0.76999998"
         id="stop5071" />
      <stop
         style="stop-color:#07466a;stop-opacity:1;"
         offset="0.88"
         id="stop5073" />
      <stop
         style="stop-color:#35031a;stop-opacity:1"
         offset="1"
         id="stop5075" />
    </linearGradient>
    <linearGradient
       id="linearGradient4931-5">
      <stop
         style="stop-color:#35031a;stop-opacity:1;"
         offset="0"
         id="stop5036" />
      <stop
         style="stop-color:#9f260a;stop-opacity:1;"
         offset="0.22"
         id="stop5038" />
      <stop
         style="stop-color:#d37a0d;stop-opacity:1;"
         offset="0.44"
         id="stop5040" />
      <stop
         style="stop-color:#076909;stop-opacity:1;"
         offset="0.76999998"
         id="stop5042" />
      <stop
         style="stop-color:#07466a;stop-opacity:1;"
         offset="0.88"
         id="stop5044" />
      <stop
         style="stop-color:#35031a;stop-opacity:1;"
         offset="1"
         id="stop5046" />
    </linearGradient>
    <linearGradient
       id="linearGradient4931-3">
      <stop
         style="stop-color:#35031a;stop-opacity:1;"
         offset="0"
         id="stop5023" />
      <stop
         style="stop-color:#9f260a;stop-opacity:1;"
         offset="0.22"
         id="stop5025" />
      <stop
         style="stop-color:#d37a0d;stop-opacity:1;"
         offset="0.44"
         id="stop5027" />
      <stop
         style="stop-color:#076909;stop-opacity:1;"
         offset="0.76999998"
         id="stop5029" />
      <stop
         style="stop-color:#07466a;stop-opacity:1;"
         offset="0.88"
         id="stop5031" />
      <stop
         style="stop-color:#35031a;stop-opacity:1;"
         offset="1"
         id="stop5033" />
    </linearGradient>
    <linearGradient
       id="linearGradient4931-6">
      <stop
         style="stop-color:#35031a;stop-opacity:1;"
         offset="0"
         id="stop4984" />
      <stop
         style="stop-color:#9f260a;stop-opacity:1;"
         offset="0.22"
         id="stop4986" />
      <stop
         style="stop-color:#d37a0d;stop-opacity:1;"
         offset="0.44"
         id="stop4988" />
      <stop
         style="stop-color:#076909;stop-opacity:1;"
         offset="0.76999998"
         id="stop4990" />
      <stop
         style="stop-color:#07466a;stop-opacity:1;"
         offset="0.88"
         id="stop4992" />
      <stop
         style="stop-color:#35031a;stop-opacity:1;"
         offset="1"
         id="stop4994" />
    </linearGradient>
    <linearGradient
       id="linearGradient4931-2">
      <stop
         style="stop-color:#35031a;stop-opacity:1;"
         offset="0"
         id="stop4971" />
      <stop
         style="stop-color:#9f260a;stop-opacity:1;"
         offset="0.22"
         id="stop4973" />
      <stop
         style="stop-color:#d37a0d;stop-opacity:1;"
         offset="0.44"
         id="stop4975" />
      <stop
         style="stop-color:#076909;stop-opacity:1;"
         offset="0.76999998"
         id="stop4977" />
      <stop
         style="stop-color:#07466a;stop-opacity:1;"
         offset="0.88"
         id="stop4979" />
      <stop
         style="stop-color:#35031a;stop-opacity:1;"
         offset="1"
         id="stop4981" />
    </linearGradient>
    <linearGradient
       id="linearGradient4931-1">
      <stop
         style="stop-color:#35031a;stop-opacity:1;"
         offset="0"
         id="stop4958" />
      <stop
         style="stop-color:#9f260a;stop-opacity:1;"
         offset="0.22"
         id="stop4960" />
      <stop
         style="stop-color:#d37a0d;stop-opacity:1;"
         offset="0.44"
         id="stop4962" />
      <stop
         style="stop-color:#076909;stop-opacity:1;"
         offset="0.76999998"
         id="stop4964" />
      <stop
         style="stop-color:#07466a;stop-opacity:1;"
         offset="0.88"
         id="stop4966" />
      <stop
         style="stop-color:#35031a;stop-opacity:1;"
         offset="1"
         id="stop4968" />
    </linearGradient>
    <linearGradient
       id="linearGradient4931">
      <stop
         style="stop-color:#35031a;stop-opacity:1;"
         offset="0"
         id="stop4945" />
      <stop
         style="stop-color:#9f260a;stop-opacity:1;"
         offset="0.22"
         id="stop4947" />
      <stop
         style="stop-color:#d37a0d;stop-opacity:1;"
         offset="0.44"
         id="stop4949" />
      <stop
         style="stop-color:#076909;stop-opacity:1;"
         offset="0.76999998"
         id="stop4951" />
      <stop
         style="stop-color:#07466a;stop-opacity:1;"
         offset="0.88"
         id="stop4953" />
      <stop
         style="stop-color:#35031a;stop-opacity:1;"
         offset="1"
         id="stop4955" />
    </linearGradient>
    <linearGradient
       id="linearGradient4931-4">
      <stop
         style="stop-color:#35031a;stop-opacity:1;"
         offset="0"
         id="stop4927" />
      <stop
         style="stop-color:#9f260a;stop-opacity:1;"
         offset="0.22"
         id="stop4935" />
      <stop
         style="stop-color:#d37a0d;stop-opacity:1;"
         offset="0.44"
         id="stop4937" />
      <stop
         style="stop-color:#076909;stop-opacity:1;"
         offset="0.76999998"
         id="stop4941" />
      <stop
         style="stop-color:#07466a;stop-opacity:1;"
         offset="0.88"
         id="stop4943" />
      <stop
         style="stop-color:#35031a;stop-opacity:1;"
         offset="1"
         id="stop4929" />
    </linearGradient>
    <linearGradient
       id="linearGradient4914">
      <stop
         style="stop-color:#000000;stop-opacity:1;"
         offset="0"
         id="stop4918" />
      <stop
         style="stop-color:#000000;stop-opacity:0;"
         offset="1"
         id="stop4920" />
    </linearGradient>
    <linearGradient
       id="linearGradient4914-1">
      <stop
         style="stop-color:#000000;stop-opacity:1;"
         offset="0"
         id="stop4910" />
      <stop
         style="stop-color:#000000;stop-opacity:0;"
         offset="1"
         id="stop4912" />
    </linearGradient>
    <linearGradient
       id="linearGradient4817">
      <stop
         style="stop-color:#000000;stop-opacity:1;"
         offset="0"
         id="stop4813" />
      <stop
         style="stop-color:#000000;stop-opacity:0;"
         offset="1"
         id="stop4815" />
    </linearGradient>
    <linearGradient
       id="linearGradient4807">
      <stop
         style="stop-color:#000000;stop-opacity:1;"
         offset="0"
         id="stop4803" />
      <stop
         style="stop-color:#000000;stop-opacity:0;"
         offset="1"
         id="stop4805" />
    </linearGradient>
    <linearGradient
       id="Rainbowie">
      <stop
         style="stop-color:#35031a;stop-opacity:1;"
         offset="0.11"
         id="stop4760" />
      <stop
         style="stop-color:#6a1907;stop-opacity:1;"
         offset="0.22"
         id="stop4762" />
      <stop
         style="stop-color:#d3560d;stop-opacity:1;"
         offset="0.44"
         id="stop4764" />
      <stop
         style="stop-color:#d29e0e;stop-opacity:1;"
         offset="0.55000001"
         id="stop4766" />
      <stop
         style="stop-color:#07692e;stop-opacity:1;"
         offset="0.88"
         id="stop4768" />
      <stop
         style="stop-color:#076769;stop-opacity:1;"
         offset="0.99880683"
         id="stop4770" />
    </linearGradient>
    <linearGradient
       id="Rainbowie-3">
      <stop
         style="stop-color:#000000;stop-opacity:0;"
         offset="0"
         id="stop4740" />
      <stop
         style="stop-color:#442204;stop-opacity:0.22;"
         offset="0.1"
         id="stop4754" />
      <stop
         style="stop-color:#69190d;stop-opacity:0.44;"
         offset="0.22"
         id="stop4748" />
      <stop
         style="stop-color:#a52c16;stop-opacity:0.66000003;"
         offset="0.33000001"
         id="stop4752" />
      <stop
         style="stop-color:#eb7513;stop-opacity:0.88;"
         offset="0.44"
         id="stop9687" />
      <stop
         style="stop-color:#f2c62a;stop-opacity:1;"
         offset="0.55000001"
         id="stop10417" />
      <stop
         style="stop-color:#5e9a0e;stop-opacity:0.88;"
         offset="0.66000003"
         id="stop11147" />
      <stop
         style="stop-color:#07692e;stop-opacity:0.66000003;"
         offset="0.76999998"
         id="stop4750" />
      <stop
         style="stop-color:#073720;stop-opacity:0.44;"
         offset="0.88440341"
         id="stop11149" />
      <stop
         style="stop-color:#442204;stop-opacity:0.21960784;"
         offset="0.94160509"
         id="stop11879" />
      <stop
         style="stop-color:#000000;stop-opacity:0;"
         offset="0.99880683"
         id="stop4742" />
    </linearGradient>
    <linearGradient
       xlink:href="#linearGradient4931-6"
       id="linearGradient5021"
       x1="150.16481"
       y1="468.45493"
       x2="240.06136"
       y2="600.76404"
       gradientUnits="userSpaceOnUse" />
    <linearGradient
       xlink:href="#Rainbowie-1"
       id="linearGradient5055"
       x1="673.78912"
       y1="67.176918"
       x2="440.46896"
       y2="549.38538"
       gradientUnits="userSpaceOnUse" />
    <linearGradient
       xlink:href="#linearGradient5077"
       id="linearGradient5063"
       x1="272.62979"
       y1="233.06071"
       x2="602.46735"
       y2="389.97263"
       gradientUnits="userSpaceOnUse" />
    <linearGradient
       xlink:href="#Rainbowie-3"
       id="linearGradient5085"
       x1="240.41537"
       y1="575.26831"
       x2="740.96198"
       y2="169.36858"
       gradientUnits="userSpaceOnUse" />
    <linearGradient
       xlink:href="#Rainbowie-2"
       id="linearGradient5093"
       x1="203.44667"
       y1="318.94632"
       x2="563.63208"
       y2="842.80829"
       gradientUnits="userSpaceOnUse" />
  </defs>
  <path
     id="path331"
     style="paint-order:stroke markers fill;stroke:url(#linearGradient5055);stroke-width:8;stroke-dasharray:none;stroke-linejoin:round;fill:#e8e2da;fill-opacity:1"
     d="m 641.85912,71.533352 c 0,0 13.46651,-9.492501 33.81671,-0.789288 20.3502,8.703212 13.18767,20.090165 4.10306,15.986306 -9.08461,-4.10386 -2.33363,-8.233771 -19.4377,-12.647189 -17.10408,-4.413418 -18.48207,-2.549829 -18.48207,-2.549829 z m -44.69277,14.357733 c 0,0 -2.04163,-3.008818 -0.56148,-5.061268 1.48016,-2.052451 19.08889,-12.009627 28.7653,-10.219177 9.67641,1.790449 4.03356,6.102321 1.32819,5.585127 -2.70537,-0.517194 -2.04403,-1.028302 -4.09603,-0.870628 -2.052,0.157673 -3.79961,2.465783 -3.79961,2.465783 0,0 1.39513,1.593391 8.43821,2.955653 7.04308,1.362262 24.2593,-3.761349 29.10129,4.454715 4.84199,8.216065 1.76015,16.5384 -8.40324,13.286192 -10.16339,-3.25221 -26.61858,-9.071496 -36.60608,-9.640113 -9.9875,-0.568617 -5.97679,2.45412 -10.21012,1.450251 -4.23332,-1.003869 -3.95643,-4.406535 -3.95643,-4.406535 z m -38.88972,21.585735 c 0,0 -4.36621,-2.73913 -1.03729,-7.44115 3.32891,-4.702018 3.62642,-1.440357 6.27807,-5.897236 2.65165,-4.456878 0.55194,-13.350211 12.05825,-21.686103 11.50631,-8.335891 22.26873,-6.517081 22.42221,-2.139463 0.15348,4.377619 -0.88636,1.542475 -6.90292,3.607835 -6.01656,2.06536 -12.45605,2.736762 -12.23796,10.690931 0.21809,7.954169 -4.80505,10.17765 -4.80505,10.17765 0,0 7.28218,-2.619184 13.46504,-0.327556 6.18286,2.291629 33.03757,15.123862 39.73659,11.025972 6.69902,-4.09789 -0.31615,-5.39581 7.23868,-6.829079 7.55483,-1.433273 16.27386,4.759769 10.20864,18.457009 -6.06521,13.69725 -28.68428,17.92531 -52.86252,2.33648 -24.17824,-15.58882 -25.00431,-9.45252 -28.01334,-8.67281 -3.00902,0.77971 -5.5484,-3.30248 -5.5484,-3.30248 z m -33.85576,24.10437 c 0,0 -1.855,-0.94398 -0.51105,-3.65364 1.34394,-2.70967 7.85662,-7.41842 9.19377,-14.03887 1.33714,-6.62045 -4.39539,-21.955239 4.9263,-33.289955 9.3217,-11.334716 25.15331,-15.173548 26.60985,-10.701841 1.45654,4.471706 -11.44317,3.100308 -17.54075,13.28447 -6.09757,10.184163 -2.5529,13.327419 -3.4305,24.646556 -0.8776,11.31913 -2.86846,11.73037 -2.86846,11.73037 0,0 6.09743,-4.58367 14.94079,-2.3098 8.84336,2.27386 22.29185,15.30502 35.78578,15.4962 13.49393,0.19118 12.23309,-4.28319 15.94868,-4.28319 3.71559,0 10.5067,5.80919 -0.88947,19.99485 -11.39616,14.18565 -39.96186,0.7331 -51.46317,-9.81381 -11.50131,-10.54691 -22.59451,-10.7311 -24.90262,-6.76049 -2.30811,3.97061 -5.79915,-0.30085 -5.79915,-0.30085 z m -5.36235,67.45312 c 0,0 0.98459,-35.99965 40.97281,-38.67495 39.98822,-2.6753 15.80962,27.55776 -3.54837,24.05701 -19.358,-3.50074 -37.42444,14.61794 -37.42444,14.61794 z m -21.33821,43.75076 c 0,0 -3.07085,-28.86701 40.23232,-38.13823 43.30317,-9.27122 23.49255,26.92549 -2.74746,23.74051 -26.24001,-3.18498 -37.48486,14.39772 -37.48486,14.39772 z m -32.3371,53.03394 c 0,0 8.38185,-31.01421 43.95872,-47.76948 35.57687,-16.75527 21.8218,20.24834 -1.09739,23.37453 -22.91919,3.1262 -42.86133,24.39495 -42.86133,24.39495 z m -16.65117,45.16355 c 0,0 1.54703,-27.85816 30.31189,-44.94987 28.76486,-17.09171 32.97,5.10598 9.4841,15.84521 -23.4859,10.73922 -39.79599,29.10466 -39.79599,29.10466 z M 475.4297,112.01799 c 0,0 0.41214,-15.597977 -26.00724,-6.09694 -26.41937,9.50103 -14.58092,44.94528 0.21638,54.20855 14.7973,9.26328 18.38091,-10.87977 13.47754,-27.7272 -4.90338,-16.84743 12.31332,-20.38441 12.31332,-20.38441 z m 1.85149,-18.223884 c 0,0 1.40373,-23.579523 -36.78232,-17.671206 -38.18606,5.908316 -25.25883,47.98565 -8.54008,36.54074 16.71876,-11.44491 13.88131,-21.377672 31.14363,-24.242999 17.26231,-2.865328 14.17877,5.373465 14.17877,5.373465 z m -51.9709,276.645974 c 0,0 -14.20342,-2.37353 1.58625,-56.46213 15.78968,-54.0886 69.21683,-123.81916 66.10921,-197.40558 -3.10762,-73.586416 -29.59879,-47.790128 -37.64371,-51.963331 -8.04491,-4.173202 -4.58355,-11.417023 11.27947,-12.580261 15.86302,-1.163239 37.72629,7.221313 47.66577,51.953522 9.93948,44.73221 -0.14464,90.05174 -28.89876,146.69241 -28.75412,56.64067 -48.5612,64.91702 -55.69847,95.84079 -7.13727,30.92377 -4.39976,23.92458 -4.39976,23.92458 z"
     inkscape:label="statics" />
  <path
     id="path361"
     style="paint-order:stroke markers fill;stroke:url(#linearGradient5085);stroke-width:8;stroke-dasharray:none;fill:#e8e2da;fill-opacity:1"
     d="m 742.71008,379.13676 c 0,0 1.34335,6.24363 3.58951,7.73129 2.24615,1.48766 -0.36006,5.64713 -4.54407,4.37899 -4.18401,-1.26814 -5.88593,-7.78723 -4.45968,-9.71713 1.42626,-1.92991 5.41424,-2.39315 5.41424,-2.39315 z m 4.6712,-22.50808 c 0,0 4.02102,10.20824 8.66822,12.49254 4.6472,2.2843 0.63092,9.52279 -4.03057,7.79649 -4.66148,-1.7263 -9.94976,-12.68439 -9.42936,-17.38385 0.5204,-4.69946 4.79171,-2.90518 4.79171,-2.90518 z m -3.9273,-29.59307 c 0,0 2.31463,6.4078 16.13597,10.14069 13.82133,3.73289 8.74335,16.3125 -2.27239,13.70714 -11.01574,-2.60536 -18.25456,-17.80469 -18.09531,-21.07702 0.15925,-3.27233 4.23173,-2.77081 4.23173,-2.77081 z m -13.31985,-26.40575 c 0,0 7.11752,8.25701 27.06628,4.06903 19.94876,-4.18798 12.77182,19.4444 0.026,17.54779 -12.7458,-1.89661 -31.8074,-15.18481 -31.46493,-18.51481 0.34246,-3.33 4.37263,-3.10201 4.37263,-3.10201 z m -21.63889,-14.06394 c 0,0 23.94505,-4.84949 32.11854,-24.03125 8.17349,-19.18175 34.46654,-7.09259 20.30545,13.53017 -14.16108,20.62277 -46.7071,18.31725 -51.57022,14.93455 -4.86311,-3.3827 -0.85377,-4.43347 -0.85377,-4.43347 z m -22.05237,-14.66895 c 0,0 10.20584,-4.17902 16.46112,-31.94499 6.25528,-27.76597 -5.42859,-33.40306 13.77995,-33.00666 19.20854,0.39639 23.31368,25.7076 9.70104,49.51342 -13.61264,23.80582 -30.95652,25.75819 -38.40116,20.62178 -7.44464,-5.13641 -1.54095,-5.18355 -1.54095,-5.18355 z m -29.80445,-4.15102 c 0,0 10.55941,-10.80776 10.55514,-43.17615 -0.004,-32.36839 -9.8478,-22.4448 -5.99257,-30.82726 3.85524,-8.38247 19.98509,-16.43729 28.2772,2.46128 8.29212,18.89857 2.92002,47.44449 -6.71875,57.98202 -9.63876,10.53754 -14.68168,20.19822 -21.34588,19.49814 -6.6642,-0.70007 -4.77514,-5.93803 -4.77514,-5.93803 z M 330.52847,414.21953 c 0,0 -10.88322,10.48793 4.74901,48.23007 15.63223,37.74214 76.04231,61.40065 87.62181,75.17595 11.5795,13.7753 14.45627,25.05273 19.69534,25.40875 5.23908,0.35602 4.92639,-15.48029 33.5441,-30.97971 28.61771,-15.49942 111.67337,-18.26295 188.12796,-62.16757 76.45459,-43.90461 88.3419,-153.41641 33.55241,-175.641 -54.78948,-22.2246 -80.90988,23.28491 -76.49272,43.0171 4.41716,19.73219 14.19397,24.57636 21.48342,14.17236 7.28944,-10.40399 -14.87688,-26.63844 21.84445,-39.346 36.72133,-12.70757 50.24902,31.31222 39.60588,61.89956 -10.64314,30.58734 -38.03894,57.30994 -80.99779,75.17588 -42.95884,17.86593 -132.9237,31.85131 -153.65204,52.11688 -20.72833,20.26556 -17.49603,26.90887 -20.72833,27.01779 -3.2323,0.10892 -5.56213,-24.86874 -44.95323,-42.41701 -39.3911,-17.54826 -57.27863,-35.34073 -64.13097,-47.70509 -6.85234,-12.36437 -9.2693,-23.95796 -9.2693,-23.95796 z m 18.53504,-38.24312 c 0,0 -5.79383,-6.71953 -6.30324,20.19082 -0.50942,26.91036 32.64006,53.03797 60.20384,63.71413 27.56378,10.67616 41.20477,23.70419 41.71362,33.91068 0.50885,10.20648 13.45212,6.3405 13.28119,-1.10175 -0.17093,-7.44224 -50.23581,-63.76942 6.63135,-106.64819 56.86716,-42.87878 81.07199,-36.56331 132.36001,-65.95204 51.28803,-29.38874 63.11805,-101.68764 39.37845,-116.86386 -23.73959,-15.17621 -44.35415,-0.41999 -36.69876,6.02646 7.6554,6.44646 23.8028,-0.79021 17.63797,24.51914 -6.16482,25.30936 -33.27524,56.66394 -103.33027,84.70687 -70.05504,28.04292 -83.24722,53.09915 -87.83078,61.59466 -4.58357,8.49552 -6.35685,16.02197 -6.35685,16.02197 0,0 -23.95309,-101.61662 -68.44361,-125.43083 -44.49053,-23.81421 -80.62741,31.43935 -77.20581,36.84043 3.4216,5.40107 16.75466,-26.58957 55.86486,-17.81234 39.1102,8.77724 41.23473,64.71929 48.10578,93.03783 6.87105,28.31854 16.79973,40.56624 16.79973,40.56624 0,0 -40.74091,-13.09076 -45.82607,-31.21849 -5.08516,-18.12773 0.0186,-16.10173 0.0186,-16.10173 z"
     inkscape:label="geometrics" />
  <path
     id="path370"
     style="paint-order:stroke markers fill;stroke:url(#linearGradient5093);stroke-width:8;stroke-dasharray:none;stroke-linejoin:round;fill:#e8e2da;fill-opacity:1"
     d="M 293.57812 314.56055 C 292.70966 314.53418 291.83573 314.55842 290.95898 314.63477 C 282.54227 315.3677 273.86624 320.83088 267.28906 330.99609 C 249.74994 358.10334 273.82617 418.66406 273.82617 418.66406 C 273.82617 418.66406 235.38729 480.39516 224.30859 492.91211 C 213.22989 505.42906 169.6299 564.94564 205.56641 613.53906 C 241.5029 662.13248 300.36381 634.89942 317.40234 590.39062 C 334.4409 545.88184 283.72004 510.69035 268.50977 533.66406 C 253.29948 556.63779 262.10742 562.32617 262.10742 562.32617 C 262.10742 562.32617 269.75257 538.0881 282.83203 542.87305 C 295.91149 547.65799 294.98803 569.3268 289.83008 585.66016 C 284.67211 601.99349 243.87925 626.35299 230.33984 591.27148 C 216.80046 556.18998 253.70503 508.64001 265.21875 496.08789 C 276.73248 483.53577 287.80664 453.87695 287.80664 453.87695 C 287.80664 453.87695 299.61609 519.76221 370.51562 558.87305 C 391.83884 570.63573 408.87009 582.73694 422.61914 594.43359 C 415.51014 601.58994 409.69923 609.9186 405.20117 619.04492 C 387.02078 607.10784 316.23763 611.72386 306.05273 676.24414 C 299.47082 717.94002 316.6382 753.26382 343.74219 771.8457 C 345.35345 784.84704 352.33569 792.51737 358.37695 791.60938 C 368.91948 790.02485 369.94922 783.78711 369.94922 783.78711 C 369.94922 783.78711 369.73473 783.62158 369.69531 783.5957 C 380.2788 786.22559 391.51912 786.63523 402.91016 784.47266 C 403.28825 789.05639 404.49675 794.7219 406.87695 801.64648 C 419.33327 837.88497 512.62989 866.99557 546.98242 793.30664 C 552.32351 781.84959 555.25048 770.87249 556.14258 760.48242 C 556.78072 760.07857 557.38105 759.67638 557.90039 759.2793 C 576.34959 745.17342 556.73047 732.02734 556.73047 732.02734 C 556.73047 732.02734 555.40627 732.28626 553.45508 732.63867 C 550.75575 723.27953 546.31018 714.64241 540.47852 706.8457 C 548.55804 704.27242 557.42474 693.5456 561.37305 664.92578 C 569.43688 606.4739 526.54132 553.62999 462.54883 571.28711 C 455.78732 573.15278 449.51781 575.71543 443.69727 578.81836 C 420.653 557.53647 394.39618 538.38746 374.0625 526.1582 C 330.15262 499.74955 295.50977 435.0332 295.50977 435.0332 C 295.50977 435.0332 322.6699 390.86626 319.97852 350.53906 C 318.40152 326.90984 306.60512 314.95602 293.57812 314.56055 z M 287.77539 330.98633 C 296.22984 330.79789 303.74338 347.13281 302.79492 361.62305 C 301.62759 379.45719 285.76367 402.25781 285.76367 402.25781 C 285.76367 402.25781 277.71966 382.00987 275.31055 371.77539 C 272.90141 361.5409 271.41666 344.80248 281.86328 333.98047 C 283.82202 331.95134 285.82436 331.02981 287.77539 330.98633 z M 183.19922 457.43164 C 177.90819 457.4843 174.12614 460.85419 173.73242 465.69141 C 173.03247 474.2909 179.22461 481.35352 179.22461 481.35352 C 179.22461 481.35352 177.45487 478.90349 169.48242 481.42188 C 161.50998 483.94024 159.83282 496.73721 166.70312 506.17188 C 173.57345 515.60653 192.49135 509.10958 197.23828 505.88281 C 201.98524 502.65606 214.22944 500.00124 214.15234 494.25586 C 214.07521 488.51049 208.73047 490.07227 208.73047 490.07227 C 208.73047 490.07227 208.96593 475.25645 197.40234 464.19531 C 192.34328 459.35607 187.31446 457.39068 183.19922 457.43164 z M 186.97656 465.48242 C 187.41955 465.48699 187.90512 465.54284 188.43555 465.65625 C 199.75141 468.07575 200.85742 493.33789 200.85742 493.33789 C 200.85742 493.33789 179.496 505.07643 174.91797 495.58203 C 170.33991 486.08763 186.40039 486.74414 186.40039 486.74414 C 186.40039 486.74414 177.96911 465.38947 186.97656 465.48242 z M 155.97461 516.16016 C 154.17061 516.15867 152.34367 516.44622 150.52148 517.04492 C 138.85951 520.87665 138.42618 528.5507 139.68945 533.69727 C 140.95273 538.84383 144.54102 541.11914 144.54102 541.11914 C 144.54102 541.11914 131.93747 541.30502 129.24023 550.79102 C 126.54302 560.27701 128.34809 570.76374 140.25977 574.89453 C 152.17144 579.02534 178.03304 557.72517 181.99414 559.48828 C 185.95524 561.25138 186.51953 556.44336 186.51953 556.44336 C 186.51953 556.44336 188.1623 554.42001 186.31445 551.69141 C 184.46659 548.96279 183.02771 554.39935 178.54883 538.25 C 174.76975 524.62398 165.71621 516.16819 155.97461 516.16016 z M 156.67773 526.52734 C 158.06624 526.49325 159.75671 526.75957 161.81641 527.31641 C 170.05519 529.54371 173.39844 551.79297 173.39844 551.79297 C 173.39844 551.79297 165.9796 554.07254 157.5957 562.66797 C 149.2118 571.26339 137.4179 564.03492 137.04102 556.13281 C 136.66413 548.2307 153.92773 546.47852 153.92773 546.47852 C 153.92773 546.47852 149.78052 542.83426 150.51367 535.17578 C 151.06353 529.43193 152.51223 526.62962 156.67773 526.52734 z M 511.77539 547.41406 A 2.8437119 2.8437119 0 0 0 508.93164 550.25781 A 2.8437119 2.8437119 0 0 0 511.77539 553.10156 A 2.8437119 2.8437119 0 0 0 514.61914 550.25781 A 2.8437119 2.8437119 0 0 0 511.77539 547.41406 z M 535.19531 559.38477 A 3.3081665 3.3081665 0 0 0 531.88672 562.69336 A 3.3081665 3.3081665 0 0 0 535.19531 566.00195 A 3.3081665 3.3081665 0 0 0 538.50195 562.69336 A 3.3081665 3.3081665 0 0 0 535.19531 559.38477 z M 556.11523 577.07422 A 4.1000519 4.1000519 0 0 0 552.01367 581.17578 A 4.1000519 4.1000519 0 0 0 556.11523 585.27539 A 4.1000519 4.1000519 0 0 0 560.21484 581.17578 A 4.1000519 4.1000519 0 0 0 556.11523 577.07422 z M 477.50977 586.97461 C 505.96935 586.54392 521.32065 613.53175 531.33203 636.66406 C 541.81293 660.88126 531.27571 680.55218 526.45117 691.83984 C 517.98802 684.4744 508.16876 678.246 497.49219 673.36328 C 497.68697 666.80849 497.35395 660.35912 496.39062 654.15625 C 493.40981 634.96257 477.46422 612.69264 456.84766 591.55664 C 464.41212 588.50901 471.28214 587.06886 477.50977 586.97461 z M 380.66797 596.01758 A 4.0428314 4.0428314 0 0 0 376.625 600.06055 A 4.0428314 4.0428314 0 0 0 380.66797 604.10352 A 4.0428314 4.0428314 0 0 0 384.71094 600.06055 A 4.0428314 4.0428314 0 0 0 380.66797 596.01758 z M 398.24023 598.67578 A 4.1772003 4.1772003 0 0 0 394.06445 602.85352 A 4.1772003 4.1772003 0 0 0 398.24023 607.0293 A 4.1772003 4.1772003 0 0 0 402.41797 602.85352 A 4.1772003 4.1772003 0 0 0 398.24023 598.67578 z M 360.91406 601.58789 A 3.5860405 3.5860405 0 0 0 357.32812 605.17383 A 3.5860405 3.5860405 0 0 0 360.91406 608.75977 A 3.5860405 3.5860405 0 0 0 364.5 605.17383 A 3.5860405 3.5860405 0 0 0 360.91406 601.58789 z M 569.86523 603.46875 A 3.314064 3.314064 0 0 0 566.55078 606.7832 A 3.314064 3.314064 0 0 0 569.86523 610.09766 A 3.314064 3.314064 0 0 0 573.17969 606.7832 A 3.314064 3.314064 0 0 0 569.86523 603.46875 z M 434.11719 604.83203 C 458.0413 627.8735 469.39397 648.3085 475.30273 659.80859 C 476.23923 661.63127 477.23187 663.85779 478.20703 666.26953 C 468.70529 663.53785 458.85966 661.75704 448.96484 661.07422 C 430.31899 659.78751 415.88313 662.36311 404.36719 667.45703 C 404.82196 644.34929 414.26906 620.91449 434.11719 604.83203 z M 339.24219 611.87695 A 3.7959518 3.7199745 0 0 0 335.44727 615.5957 A 3.7959518 3.7199745 0 0 0 339.24219 619.31641 A 3.7959518 3.7199745 0 0 0 343.03906 615.5957 A 3.7959518 3.7199745 0 0 0 339.24219 611.87695 z M 321.45117 625.68164 A 3.5592957 3.5592957 0 0 0 317.89258 629.24023 A 3.5592957 3.5592957 0 0 0 321.45117 632.80078 A 3.5592957 3.5592957 0 0 0 325.01172 629.24023 A 3.5592957 3.5592957 0 0 0 321.45117 625.68164 z M 575.68359 626.85547 A 3.4367523 3.4367523 0 0 0 572.24609 630.29102 A 3.4367523 3.4367523 0 0 0 575.68359 633.72852 A 3.4367523 3.4367523 0 0 0 579.11914 630.29102 A 3.4367523 3.4367523 0 0 0 575.68359 626.85547 z M 397.63672 639.69336 C 394.96709 650.29967 393.83506 661.52942 394.31445 672.99609 C 371.95625 687.96935 362.77646 713.93862 351.73828 735.20898 C 348.93519 740.61049 347.00683 745.7437 345.66602 750.60352 C 336.45642 738.45546 331.84964 722.54037 330.25 707.52344 C 327.06645 677.63735 374.8032 656.51609 397.63672 639.69336 z M 304.30273 642.98633 A 3.4414902 3.4414902 0 0 0 300.86133 646.42773 A 3.4414902 3.4414902 0 0 0 304.30273 649.86914 A 3.4414902 3.4414902 0 0 0 307.74414 646.42773 A 3.4414902 3.4414902 0 0 0 304.30273 642.98633 z M 578.9375 648.60156 A 4.0017242 4.0017242 0 0 0 574.93555 652.60352 A 4.0017242 4.0017242 0 0 0 578.9375 656.60547 A 4.0017242 4.0017242 0 0 0 582.93945 652.60352 A 4.0017242 4.0017242 0 0 0 578.9375 648.60156 z M 287.89258 667.11523 A 4.2381744 4.2381744 0 0 0 283.6543 671.35352 A 4.2381744 4.2381744 0 0 0 287.89258 675.5918 A 4.2381744 4.2381744 0 0 0 292.13086 671.35352 A 4.2381744 4.2381744 0 0 0 287.89258 667.11523 z M 460.20508 668.47852 C 464.7015 668.57208 469.26941 669.3021 473.875 670.77148 C 476.14975 671.49723 478.43879 672.3881 480.72852 673.35352 C 486.39972 692.09053 487.72674 720.32844 460.62305 743.24805 C 449.66448 741.38284 438.94187 737.17569 429.70312 729.14844 C 419.54396 720.32146 412.25424 708.31326 408.16797 694.9668 C 422.37084 679.7504 440.6124 668.07083 460.20508 668.47852 z M 576.54492 672.7168 A 3.5516357 3.5516357 0 0 0 572.99414 676.26758 A 3.5516357 3.5516357 0 0 0 576.54492 679.82031 A 3.5516357 3.5516357 0 0 0 580.09766 676.26758 A 3.5516357 3.5516357 0 0 0 576.54492 672.7168 z M 496.88672 682 C 516.16731 694.60562 533.42338 714.13261 541.01172 734.44141 C 537.48234 734.82529 534.05261 735.0893 531.56445 734.88672 C 526.25238 734.45421 498.0156 746.16836 469.19922 744.24805 C 485.79981 725.30022 494.54855 703.31504 496.88672 682 z M 570.87109 692.76758 A 3.1765442 3.1765442 0 0 0 567.69531 695.94531 A 3.1765442 3.1765442 0 0 0 570.87109 699.12109 A 3.1765442 3.1765442 0 0 0 574.04883 695.94531 A 3.1765442 3.1765442 0 0 0 570.87109 692.76758 z M 283.56445 694.97266 A 3.4979706 3.4979706 0 0 0 280.06641 698.4707 A 3.4979706 3.4979706 0 0 0 283.56445 701.96875 A 3.4979706 3.4979706 0 0 0 287.0625 698.4707 A 3.4979706 3.4979706 0 0 0 283.56445 694.97266 z M 399.79102 704.93945 C 402.31525 713.21655 405.70326 721.42783 409.99414 729.42773 C 416.80785 742.13119 426.0895 751.46829 436.69141 758.23633 C 434.40738 759.31074 432.04524 760.36371 429.55273 761.38281 C 405.67975 771.14373 387.18449 772.68218 372.94336 769.01562 C 376.17366 769.03523 378.60141 768.41187 379.13867 750.91602 C 379.48468 739.64825 387.29933 721.4061 399.79102 704.93945 z M 560.01367 706.36719 A 3.8801858 3.8801858 0 0 0 556.13281 710.24609 A 3.8801858 3.8801858 0 0 0 560.01367 714.12695 A 3.8801858 3.8801858 0 0 0 563.89453 710.24609 A 3.8801858 3.8801858 0 0 0 560.01367 706.36719 z M 284.36328 721.85547 A 3.6233292 3.6233292 0 0 0 280.74023 725.47852 A 3.6233292 3.6233292 0 0 0 284.36328 729.10156 A 3.6233292 3.6233292 0 0 0 287.98633 725.47852 A 3.6233292 3.6233292 0 0 0 284.36328 721.85547 z M 447.22461 763.94922 C 480.10611 778.92931 521.12869 773.87992 543.8457 765.98047 C 541.13655 777.38491 533.77902 787.96975 520.09766 796.47656 C 466.35473 829.89292 431.86712 793.61527 421.92578 778.41406 C 431.348 774.19315 439.70542 769.29622 447.22461 763.94922 z M 386.49219 791.90234 A 4.3512077 4.4545479 0 0 0 382.14062 796.35742 A 4.3512077 4.4545479 0 0 0 386.49219 800.8125 A 4.3512077 4.4545479 0 0 0 390.84375 796.35742 A 4.3512077 4.4545479 0 0 0 386.49219 791.90234 z M 392.92578 808.69336 A 4.107872 4.107872 0 0 0 388.81836 812.80273 A 4.107872 4.107872 0 0 0 392.92578 816.91016 A 4.107872 4.107872 0 0 0 397.03516 812.80273 A 4.107872 4.107872 0 0 0 392.92578 808.69336 z M 407.48633 824.10938 A 3.4286308 3.4286308 0 0 0 404.05664 827.53711 A 3.4286308 3.4286308 0 0 0 407.48633 830.9668 A 3.4286308 3.4286308 0 0 0 410.91406 827.53711 A 3.4286308 3.4286308 0 0 0 407.48633 824.10938 z M 549.49609 830.86523 A 3.3154373 3.3154373 0 0 0 546.17969 834.18164 A 3.3154373 3.3154373 0 0 0 549.49609 837.49609 A 3.3154373 3.3154373 0 0 0 552.81055 834.18164 A 3.3154373 3.3154373 0 0 0 549.49609 830.86523 z M 426.61914 836.38672 A 4.2189713 4.2189713 0 0 0 422.39844 840.60547 A 4.2189713 4.2189713 0 0 0 426.61914 844.82422 A 4.2189713 4.2189713 0 0 0 430.83789 840.60547 A 4.2189713 4.2189713 0 0 0 426.61914 836.38672 z M 526.63672 844.00391 A 4.2724266 4.2724266 0 0 0 522.36328 848.27734 A 4.2724266 4.2724266 0 0 0 526.63672 852.54883 A 4.2724266 4.2724266 0 0 0 530.9082 848.27734 A 4.2724266 4.2724266 0 0 0 526.63672 844.00391 z M 447.82227 846.78906 A 3.5636101 3.5636101 0 0 0 444.25977 850.35156 A 3.5636101 3.5636101 0 0 0 447.82227 853.91602 A 3.5636101 3.5636101 0 0 0 451.38672 850.35156 A 3.5636101 3.5636101 0 0 0 447.82227 846.78906 z M 470.89062 853.46289 A 3.4328499 3.4328499 0 0 0 467.45703 856.89453 A 3.4328499 3.4328499 0 0 0 470.89062 860.32812 A 3.4328499 3.4328499 0 0 0 474.32227 856.89453 A 3.4328499 3.4328499 0 0 0 470.89062 853.46289 z M 500.67383 853.67383 A 3.9319611 3.9319611 0 0 0 496.74219 857.60547 A 3.9319611 3.9319611 0 0 0 500.67383 861.53711 A 3.9319611 3.9319611 0 0 0 504.60547 857.60547 A 3.9319611 3.9319611 0 0 0 500.67383 853.67383 z "
     inkscape:label="organics" />
</svg>
