<?xml version="1.0" encoding="UTF-8" standalone="no"?>
<!-- Created with Inkscape (http://www.inkscape.org/) -->

<svg
   width="1080mm"
   height="1920mm"
   viewBox="0 0 1080 1920"
   version="1.1"
   id="svg5"
   xml:space="preserve"
   inkscape:version="1.2.2 (b0a8486541, 2022-12-01)"
   sodipodi:docname="jl-site-frame-contentpages-mobile.svg"
   xmlns:inkscape="http://www.inkscape.org/namespaces/inkscape"
   xmlns:sodipodi="http://sodipodi.sourceforge.net/DTD/sodipodi-0.dtd"
   xmlns:xlink="http://www.w3.org/1999/xlink"
   xmlns="http://www.w3.org/2000/svg"
   xmlns:svg="http://www.w3.org/2000/svg"><sodipodi:namedview
     id="namedview7"
     pagecolor="#505050"
     bordercolor="#ffffff"
     borderopacity="1"
     inkscape:showpageshadow="0"
     inkscape:pageopacity="0"
     inkscape:pagecheckerboard="1"
     inkscape:deskcolor="#505050"
     inkscape:document-units="mm"
     showgrid="false"
     inkscape:zoom="0.044016232"
     inkscape:cx="2578.5942"
     inkscape:cy="3487.3499"
     inkscape:window-width="1366"
     inkscape:window-height="722"
     inkscape:window-x="0"
     inkscape:window-y="0"
     inkscape:window-maximized="1"
     inkscape:current-layer="svg5" /><defs
     id="defs2"><linearGradient
       id="glow-master"><stop
         offset="0.0"
         style="stop-color:#000000;stop-opacity:0.0;"
         id="stop1899" /><stop
         offset="0.11"
         style="stop-color:#442204;stop-opacity:0.22;"
         id="stop1901" /><stop
         offset="0.22"
         style="stop-color:#69190d;stop-opacity:0.44;"
         id="stop1903" /><stop
         offset="0.33"
         style="stop-color:#a52c16;stop-opacity:0.659;"
         id="stop1905" /><stop
         offset="0.44"
         style="stop-color:#eb7513;stop-opacity:0.878;"
         id="stop1907" /><stop
         offset="0.55"
         style="stop-color:#f2c62a;stop-opacity:1.0;"
         id="stop1909" /><stop
         offset="0.66"
         style="stop-color:#5e9a0e;stop-opacity:0.878;"
         id="stop1911" /><stop
         offset="0.77"
         style="stop-color:#0e4d0e;stop-opacity:0.659;"
         id="stop1913" /><stop
         offset="0.88"
         style="stop-color:#073720;stop-opacity:0.44;"
         id="stop1915" /><stop
         offset="0.94"
         style="stop-color:#442204;stop-opacity:0.22;"
         id="stop1917" /><stop
         offset="1.0"
         style="stop-color:#000000;stop-opacity:0.0;"
         id="stop1919" /></linearGradient><linearGradient
       id="linearGradient6061-1"><stop
         style="stop-color:#e8e2da;stop-opacity:0;"
         offset="0"
         id="stop9525" /><stop
         style="stop-color:#69190d;stop-opacity:0.22;"
         offset="0.11359598"
         id="stop9527" /><stop
         style="stop-color:#a52c16;stop-opacity:0.55000001;"
         offset="0.22"
         id="stop9529" /><stop
         style="stop-color:#eb7513;stop-opacity:0.88;"
         offset="0.33000001"
         id="stop9531" /><stop
         style="stop-color:#f2c62a;stop-opacity:1;"
         offset="0.5"
         id="stop9533" /><stop
         style="stop-color:#5e9a0e;stop-opacity:0.88;"
         offset="0.66000003"
         id="stop9535" /><stop
         style="stop-color:#0e4d0e;stop-opacity:0.55000001;"
         offset="0.76999998"
         id="stop9537" /><stop
         style="stop-color:#073720;stop-opacity:0.22;"
         offset="0.88"
         id="stop9539" /><stop
         style="stop-color:#e8e2da;stop-opacity:0;"
         offset="1"
         id="stop9541" /></linearGradient><rect
       x="676.6927"
       y="29.501663"
       width="1725.2808"
       height="58.477051"
       id="rect6077" /><rect
       x="1797.4476"
       y="32.03938"
       width="1182.022"
       height="74.537186"
       id="rect6071" /><linearGradient
       id="linearGradient6061-2"><stop
         style="stop-color:#e8e2da;stop-opacity:0;"
         offset="0"
         id="stop6057" /><stop
         style="stop-color:#69190d;stop-opacity:0.22;"
         offset="0.11359598"
         id="stop2182" /><stop
         style="stop-color:#a52c16;stop-opacity:0.55000001;"
         offset="0.22"
         id="stop2186" /><stop
         style="stop-color:#eb7513;stop-opacity:0.88;"
         offset="0.33000001"
         id="stop6065" /><stop
         style="stop-color:#f2c62a;stop-opacity:1;"
         offset="0.5"
         id="stop2188" /><stop
         style="stop-color:#5e9a0e;stop-opacity:0.88;"
         offset="0.66000003"
         id="stop2184" /><stop
         style="stop-color:#0e4d0e;stop-opacity:0.55000001;"
         offset="0.76999998"
         id="stop2192" /><stop
         style="stop-color:#073720;stop-opacity:0.22;"
         offset="0.88"
         id="stop9504" /><stop
         style="stop-color:#000000;stop-opacity:0;"
         offset="1"
         id="stop6059" /></linearGradient><rect
       x="1144.2627"
       y="175.90457"
       width="600.52818"
       height="235.33107"
       id="rect22829" /><rect
       x="1152.7903"
       y="173.17295"
       width="642.74494"
       height="418.02634"
       id="rect22823" /><rect
       x="139.99581"
       y="174.04989"
       width="559.98791"
       height="395.49895"
       id="rect22817" /><rect
       x="145.0775"
       y="180.81232"
       width="697.10984"
       height="181.23741"
       id="rect22399" /><linearGradient
       id="linearGradient5077-1"><stop
         style="stop-color:#35031a;stop-opacity:1;"
         offset="0"
         id="stop6247" /><stop
         style="stop-color:#9f260a;stop-opacity:1;"
         offset="0.22"
         id="stop6249" /><stop
         style="stop-color:#d37a0d;stop-opacity:1;"
         offset="0.44"
         id="stop6251" /><stop
         style="stop-color:#076909;stop-opacity:1;"
         offset="0.76999998"
         id="stop6253" /><stop
         style="stop-color:#07466a;stop-opacity:1;"
         offset="0.88"
         id="stop6255" /><stop
         style="stop-color:#35031a;stop-opacity:1"
         offset="1"
         id="stop6257" /></linearGradient><linearGradient
       id="linearGradient5077"><stop
         style="stop-color:#35031a;stop-opacity:1"
         offset="0"
         id="stop6244" /><stop
         style="stop-color:#07466a;stop-opacity:1;"
         offset="0.14491931"
         id="stop6242" /><stop
         style="stop-color:#076909;stop-opacity:1;"
         offset="0.46923536"
         id="stop6240" /><stop
         style="stop-color:#d37a0d;stop-opacity:1;"
         offset="0.74955529"
         id="stop6238" /><stop
         style="stop-color:#9f260a;stop-opacity:1;"
         offset="0.8828578"
         id="stop6236" /><stop
         style="stop-color:#35031a;stop-opacity:1;"
         offset="1"
         id="stop6234" /></linearGradient><linearGradient
       id="linearGradient5978"><stop
         style="stop-color:#35031a;stop-opacity:1;"
         offset="0"
         id="stop5966" /><stop
         style="stop-color:#9f260a;stop-opacity:1;"
         offset="0.22"
         id="stop5968" /><stop
         style="stop-color:#d37a0d;stop-opacity:1;"
         offset="0.44"
         id="stop5970" /><stop
         style="stop-color:#076909;stop-opacity:1;"
         offset="0.76999998"
         id="stop5972" /><stop
         style="stop-color:#07466a;stop-opacity:1;"
         offset="0.88"
         id="stop5974" /><stop
         style="stop-opacity:0"
         offset="1"
         id="stop5976" /></linearGradient><linearGradient
       id="linearGradient5077-2"><stop
         style="stop-color:#35031a;stop-opacity:1;"
         offset="0"
         id="stop5065" /><stop
         style="stop-color:#9f260a;stop-opacity:1;"
         offset="0.33126885"
         id="stop5067" /><stop
         style="stop-color:#d37a0d;stop-opacity:1;"
         offset="0.33126885"
         id="stop5069" /><stop
         style="stop-color:#076909;stop-opacity:1;"
         offset="0.76338273"
         id="stop5071" /><stop
         style="stop-color:#07466a;stop-opacity:1;"
         offset="0.88"
         id="stop5073" /><stop
         style="stop-color:#35031a;stop-opacity:1"
         offset="1"
         id="stop5075" /></linearGradient><linearGradient
       id="linearGradient4914"><stop
         style="stop-color:#000000;stop-opacity:1;"
         offset="0"
         id="stop4918" /><stop
         style="stop-color:#000000;stop-opacity:0;"
         offset="1"
         id="stop4920" /></linearGradient><linearGradient
       id="linearGradient4914-1"
       inkscape:swatch="gradient"><stop
         style="stop-color:#000000;stop-opacity:1;"
         offset="0"
         id="stop4910" /><stop
         style="stop-color:#000000;stop-opacity:0;"
         offset="1"
         id="stop4912" /></linearGradient><linearGradient
       id="Rainbowie"
       inkscape:swatch="gradient"><stop
         style="stop-color:#35031a;stop-opacity:1;"
         offset="0.11"
         id="stop4760" /><stop
         style="stop-color:#6a1907;stop-opacity:1;"
         offset="0.22"
         id="stop4762" /><stop
         style="stop-color:#d3560d;stop-opacity:1;"
         offset="0.44"
         id="stop4764" /><stop
         style="stop-color:#d29e0e;stop-opacity:1;"
         offset="0.55000001"
         id="stop4766" /><stop
         style="stop-color:#07692e;stop-opacity:1;"
         offset="0.88"
         id="stop4768" /><stop
         style="stop-color:#076769;stop-opacity:1;"
         offset="0.99880683"
         id="stop4770" /></linearGradient><linearGradient
       id="Rainbowie-10"><stop
         style="stop-color:#35031a;stop-opacity:1;"
         offset="0.11"
         id="stop4760-6" /><stop
         style="stop-color:#6a1907;stop-opacity:1;"
         offset="0.22"
         id="stop4762-1" /><stop
         style="stop-color:#d3560d;stop-opacity:1;"
         offset="0.44"
         id="stop4764-5" /><stop
         style="stop-color:#d29e0e;stop-opacity:1;"
         offset="0.55000001"
         id="stop4766-9" /><stop
         style="stop-color:#07692e;stop-opacity:1;"
         offset="0.88"
         id="stop4768-4" /><stop
         style="stop-color:#076769;stop-opacity:1;"
         offset="0.99880683"
         id="stop4770-9" /></linearGradient><linearGradient
       xlink:href="#linearGradient5077-1"
       id="linearGradient5021"
       x1="150.16481"
       y1="468.45493"
       x2="240.06136"
       y2="600.76404"
       gradientUnits="userSpaceOnUse" /><linearGradient
       xlink:href="#linearGradient5077-1"
       id="linearGradient5055"
       x1="673.78912"
       y1="67.176918"
       x2="440.46896"
       y2="549.38538"
       gradientUnits="userSpaceOnUse" /><linearGradient
       xlink:href="#linearGradient5077-1"
       id="linearGradient5063"
       x1="272.62979"
       y1="233.06071"
       x2="602.46735"
       y2="389.97263"
       gradientUnits="userSpaceOnUse" /><linearGradient
       xlink:href="#linearGradient5077-1"
       id="linearGradient5085"
       x1="240.41537"
       y1="575.26831"
       x2="740.96198"
       y2="169.36858"
       gradientUnits="userSpaceOnUse" /><linearGradient
       xlink:href="#linearGradient5077-1"
       id="linearGradient5093"
       x1="203.44667"
       y1="318.94632"
       x2="563.63208"
       y2="842.80829"
       gradientUnits="userSpaceOnUse" /><rect
       x="676.6927"
       y="29.501663"
       width="264.4473"
       height="96.707763"
       id="rect10974" /><rect
       x="676.6927"
       y="29.501663"
       width="264.4473"
       height="96.707763"
       id="rect11029" /><rect
       x="676.6927"
       y="29.501663"
       width="264.4473"
       height="96.707763"
       id="rect11057" /><rect
       x="676.6927"
       y="29.501663"
       width="264.4473"
       height="96.707763"
       id="rect11068" /><rect
       x="676.6927"
       y="29.501663"
       width="264.4473"
       height="96.707763"
       id="rect11085" /><filter
       id="glow-filter-statics"
       x="-0.034142926"
       y="-0.034904367"
       width="1.0682865"
       height="1.0698093"><feGaussianBlur
         stdDeviation="3"
         id="feGaussianBlur101107" /></filter><filter
       id="glow-filter-geometrics"
       x="-0.089845812"
       y="-0.055204272"
       width="1.1796916"
       height="1.1104085"><feGaussianBlur
         stdDeviation="3"
         id="feGaussianBlur101110" /></filter><filter
       id="glow-filter-organics"
       x="-0.059221462"
       y="-0.041409117"
       width="1.1184429"
       height="1.0828182"><feGaussianBlur
         stdDeviation="3"
         id="feGaussianBlur101113" /></filter><linearGradient
       xlink:href="#glow-master"
       id="glow-applied-1"
       gradientUnits="userSpaceOnUse"
       x1="281.86696993774086"
       y1="186.9452441911846"
       x2="-43.61911993774085"
       y2="68.47799580881538" /><linearGradient
       xlink:href="#glow-master"
       id="glow-applied-2"
       gradientUnits="userSpaceOnUse"
       x1="216.68970353643374"
       y1="110.60927970058387"
       x2="543.0650597468217"
       y2="226.60415243322882" /><linearGradient
       xlink:href="#glow-master"
       id="glow-applied-3"
       gradientUnits="userSpaceOnUse"
       x1="294.6873211984884"
       y1="136.03230400704985"
       x2="610.262673451882"
       y2="-6.7538321962478705" /><linearGradient
       xlink:href="#glow-master"
       id="glow-applied-9"
       gradientUnits="userSpaceOnUse"
       x1="184.00111602792597"
       y1="-32.86506259979724"
       x2="54.246733972074026"
       y2="288.28830259979725" /><linearGradient
       xlink:href="#glow-master"
       id="glow-applied-10"
       gradientUnits="userSpaceOnUse"
       x1="542.801336027926"
       y1="93.05764740020275"
       x2="413.04695397207405"
       y2="414.21101259979724" /><linearGradient
       xlink:href="#glow-master"
       id="glow-applied-18"
       gradientUnits="userSpaceOnUse"
       x1="119.12392499999999"
       y1="-45.47591104779231"
       x2="119.12392500000001"
       y2="300.8991510477923" /><linearGradient
       xlink:href="#glow-master"
       id="glow-applied-19"
       gradientUnits="userSpaceOnUse"
       x1="477.924145"
       y1="80.44679895220769"
       x2="477.92414500000007"
       y2="426.8218610477923" /><linearGradient
       xlink:href="#glow-master"
       id="glow-applied-20"
       gradientUnits="userSpaceOnUse"
       x1="459.0832310477923"
       y1="187.789775"
       x2="112.7081689522077"
       y2="187.78977500000002" /><linearGradient
       xlink:href="#glow-master"
       id="glow-applied-29"
       gradientUnits="userSpaceOnUse"
       x1="461.0832310477923"
       y1="188.931035"
       x2="114.7081689522077"
       y2="188.93103499999998" /><filter
       id="glow-filter-statics-2"
       x="-0.01849793"
       y="-0.036482185"
       width="1.0369962"
       height="1.072965"><feGaussianBlur
         stdDeviation="3"
         id="feGaussianBlur104238" /></filter><filter
       id="glow-filter-geometrics-4"
       x="-0.059689481"
       y="-0.21876775"
       width="1.119379"
       height="1.4375355"><feGaussianBlur
         stdDeviation="3"
         id="feGaussianBlur104241" /></filter><filter
       id="glow-filter-organics-9"
       x="-0.013237407"
       y="-0.036726714"
       width="1.0264748"
       height="1.0734539"><feGaussianBlur
         stdDeviation="3"
         id="feGaussianBlur104244" /></filter><linearGradient
       xlink:href="#glow-master"
       id="glow-applied-1-9"
       gradientUnits="userSpaceOnUse"
       x1="497.98253391054874"
       y1="-219.789486656566"
       x2="229.6132260894513"
       y2="517.5491266565659" /><linearGradient
       xlink:href="#glow-master"
       id="glow-applied-2-9"
       gradientUnits="userSpaceOnUse"
       x1="525.0361119105487"
       y1="-163.750041656566"
       x2="256.6668040894513"
       y2="573.5885716565659" /><linearGradient
       xlink:href="#glow-master"
       id="glow-applied-3-4"
       gradientUnits="userSpaceOnUse"
       x1="669.3743419105488"
       y1="-54.187561656566004"
       x2="401.0050340894513"
       y2="683.1510516565659" /><linearGradient
       xlink:href="#glow-master"
       id="glow-applied-9-9"
       gradientUnits="userSpaceOnUse"
       x1="0.0361336106153658"
       y1="1.9105345030914407"
       x2="727.5596263893847"
       y2="295.8491054969086" /><linearGradient
       xlink:href="#glow-master"
       id="glow-applied-10-8"
       gradientUnits="userSpaceOnUse"
       x1="171.42794361061536"
       y1="167.51246450309145"
       x2="898.9514363893846"
       y2="461.4510354969086" /><linearGradient
       xlink:href="#glow-master"
       id="glow-applied-11"
       gradientUnits="userSpaceOnUse"
       x1="-189.0365228558783"
       y1="70.03425163293498"
       x2="389.54942411065934"
       y2="600.0612490922551" /><linearGradient
       xlink:href="#glow-master"
       id="glow-applied-16"
       gradientUnits="userSpaceOnUse"
       x1="-28.53180153802333"
       y1="148.87982"
       x2="756.1275615380234"
       y2="148.87982" /><linearGradient
       xlink:href="#glow-master"
       id="glow-applied-17"
       gradientUnits="userSpaceOnUse"
       x1="151.88952608437597"
       y1="326.7333311804086"
       x2="935.0746502117377"
       y2="374.8101177672469" /><linearGradient
       xlink:href="#glow-master"
       id="glow-applied-18-1"
       gradientUnits="userSpaceOnUse"
       x1="309.46558311667775"
       y1="359.9430179541543"
       x2="494.4496199431885"
       y2="-402.5995855653313" /><linearGradient
       xlink:href="#glow-master"
       id="glow-applied-27"
       gradientUnits="userSpaceOnUse"
       x1="325.0228860899596"
       y1="94.62593890469084"
       x2="622.4539743849498"
       y2="1139.1472967994782" /><filter
       id="glow-filter-statics-4"
       x="-0.016460317"
       y="-0.016915177"
       width="1.0329209"
       height="1.0338306"><feGaussianBlur
         stdDeviation="3"
         id="feGaussianBlur104664" /></filter><filter
       id="glow-filter-geometrics-0"
       x="-0.10131056"
       y="-0.091394094"
       width="1.2026211"
       height="1.1827882"><feGaussianBlur
         stdDeviation="3"
         id="feGaussianBlur104667" /></filter><filter
       id="glow-filter-organics-3"
       x="-0.01468831"
       y="-0.022513554"
       width="1.0293766"
       height="1.0450271"><feGaussianBlur
         stdDeviation="3"
         id="feGaussianBlur104670" /></filter><linearGradient
       xlink:href="#glow-master"
       id="glow-applied-1-5"
       gradientUnits="userSpaceOnUse"
       x1="470.4503345058871"
       y1="-130.77032070338703"
       x2="184.36100549411285"
       y2="655.253650703387" /><linearGradient
       xlink:href="#glow-master"
       id="glow-applied-3-5"
       gradientUnits="userSpaceOnUse"
       x1="614.788564505887"
       y1="-21.207840703387035"
       x2="328.6992354941128"
       y2="764.816130703387" /><linearGradient
       xlink:href="#glow-master"
       id="glow-applied-10-9"
       gradientUnits="userSpaceOnUse"
       x1="-60.37471662329148"
       y1="105.56821893969365"
       x2="715.1860566232915"
       y2="418.91511106030634" /><linearGradient
       xlink:href="#glow-master"
       id="glow-applied-11-9"
       gradientUnits="userSpaceOnUse"
       x1="83.96351337670853"
       y1="215.13069893969364"
       x2="859.5242866232916"
       y2="528.4775910603064" /><linearGradient
       xlink:href="#glow-master"
       id="glow-applied-12"
       gradientUnits="userSpaceOnUse"
       x1="-287.63631780422924"
       y1="84.02007456704607"
       x2="329.1527878026012"
       y2="649.0439563678165" /><linearGradient
       xlink:href="#glow-master"
       id="glow-applied-17-0"
       gradientUnits="userSpaceOnUse"
       x1="-90.82894950216547"
       y1="262.241665"
       x2="745.6402895021654"
       y2="262.241665" /><linearGradient
       xlink:href="#glow-master"
       id="glow-applied-18-2"
       gradientUnits="userSpaceOnUse"
       x1="59.194478466792106"
       y1="378.4734319135356"
       x2="894.0921367450829"
       y2="429.7246563077939" /><linearGradient
       xlink:href="#glow-master"
       id="glow-applied-19-4"
       gradientUnits="userSpaceOnUse"
       x1="160.50477587567255"
       y1="554.7440391723701"
       x2="1091.6010497661186"
       y2="-133.33447991388354" /><linearGradient
       xlink:href="#glow-master"
       id="glow-applied-24"
       gradientUnits="userSpaceOnUse"
       x1="344.1077662208541"
       y1="460.28906434601265"
       x2="541.3060203850937"
       y2="-352.60307877942085" /><linearGradient
       xlink:href="#glow-master"
       id="glow-applied-33"
       gradientUnits="userSpaceOnUse"
       x1="34.997734537319786"
       y1="332.05097097865166"
       x2="836.8867671061198"
       y2="570.0735901692622" /><linearGradient
       xlink:href="#glow-master"
       id="glow-applied-42"
       gradientUnits="userSpaceOnUse"
       x1="85.72171555023576"
       y1="-25.25885190711773"
       x2="1166.8609192636366"
       y2="388.9033626583154" /><filter
       id="glow-filter-statics-1"
       x="-0.016460317"
       y="-0.016915177"
       width="1.0329209"
       height="1.0338306"><feGaussianBlur
         stdDeviation="3"
         id="feGaussianBlur2010" /></filter><filter
       id="glow-filter-geometrics-2"
       x="-0.078657362"
       y="-0.13644734"
       width="1.1573227"
       height="1.2729085"><feGaussianBlur
         stdDeviation="3"
         id="feGaussianBlur2013" /></filter><filter
       id="glow-filter-organics-93"
       x="-0.013931181"
       y="-0.021353451"
       width="1.0278624"
       height="1.0427065"><feGaussianBlur
         stdDeviation="3"
         id="feGaussianBlur2016" /></filter><filter
       id="glow-filter-statics-0"
       x="-0.01849793"
       y="-0.036482185"
       width="1.0369962"
       height="1.072965"><feGaussianBlur
         stdDeviation="3"
         id="feGaussianBlur4634" /></filter><filter
       id="glow-filter-geometrics-6"
       x="-0.059689481"
       y="-0.21876775"
       width="1.119379"
       height="1.4375355"><feGaussianBlur
         stdDeviation="3"
         id="feGaussianBlur4637" /></filter><filter
       id="glow-filter-organics-8"
       x="-0.081533292"
       y="-0.088496479"
       width="1.1629694"
       height="1.176994"><feGaussianBlur
         stdDeviation="3"
         id="feGaussianBlur4640" /></filter><filter
       id="glow-filter-statics-9"
       x="-0.01849793"
       y="-0.061762975"
       width="1.0369962"
       height="1.123527"><feGaussianBlur
         stdDeviation="3"
         id="feGaussianBlur5622" /></filter><filter
       id="glow-filter-geometrics-3"
       x="-0.29543535"
       y="-0.29543535"
       width="1.5908707"
       height="1.5908707"><feGaussianBlur
         stdDeviation="3"
         id="feGaussianBlur5625" /></filter><filter
       id="glow-filter-organics-90"
       x="-0.014300836"
       y="-0.098312859"
       width="1.0281858"
       height="1.1969629"><feGaussianBlur
         stdDeviation="3"
         id="feGaussianBlur5628" /></filter><linearGradient
       xlink:href="#glow-master"
       id="glow-applied-1-8"
       gradientUnits="userSpaceOnUse"
       x1="491.538689471146"
       y1="-276.10520579240085"
       x2="237.51984052885405"
       y2="421.8058457924009" /><linearGradient
       xlink:href="#glow-master"
       id="glow-applied-2-8"
       gradientUnits="userSpaceOnUse"
       x1="518.592267471146"
       y1="-225.32247079240085"
       x2="264.57341852885406"
       y2="472.5885807924009" /><linearGradient
       xlink:href="#glow-master"
       id="glow-applied-3-50"
       gradientUnits="userSpaceOnUse"
       x1="662.930497471146"
       y1="-115.75999079240086"
       x2="408.9116485288541"
       y2="582.1510607924008" /><linearGradient
       xlink:href="#glow-master"
       id="glow-applied-8"
       gradientUnits="userSpaceOnUse"
       x1="20.21887847596645"
       y1="-66.2601059831493"
       x2="708.8396515240336"
       y2="211.9607459831493" /><linearGradient
       xlink:href="#glow-master"
       id="glow-applied-9-96"
       gradientUnits="userSpaceOnUse"
       x1="191.61068847596644"
       y1="94.08511401685071"
       x2="880.2314615240335"
       y2="372.30596598314935" /><linearGradient
       xlink:href="#glow-master"
       id="glow-applied-10-3"
       gradientUnits="userSpaceOnUse"
       x1="-144.4257666629008"
       y1="8.318780139801156"
       x2="403.2215684809576"
       y2="510.0037488721732" /><linearGradient
       xlink:href="#glow-master"
       id="glow-applied-11-8"
       gradientUnits="userSpaceOnUse"
       x1="-6.821449130917813"
       y1="72.85032"
       x2="735.8799791309178"
       y2="72.85032" /><linearGradient
       xlink:href="#glow-master"
       id="glow-applied-12-5"
       gradientUnits="userSpaceOnUse"
       x1="178.53957069959242"
       y1="246.93005455115545"
       x2="919.84559170025"
       y2="292.4360406446696" /><linearGradient
       xlink:href="#glow-master"
       id="glow-applied-13"
       gradientUnits="userSpaceOnUse"
       x1="192.78451891313256"
       y1="170.1310443305959"
       x2="814.1245164478995"
       y2="989.0681778015513" /><linearGradient
       xlink:href="#glow-master"
       id="glow-applied-21"
       gradientUnits="userSpaceOnUse"
       x1="178.74149815613637"
       y1="241.471000595806"
       x2="921.3836269939569"
       y2="250.85588061687397" /><filter
       id="glow-filter-statics-6"
       x="-0.0082651557"
       y="-0.0040555248"
       width="1.0165301"
       height="1.0081111"><feGaussianBlur
         stdDeviation="3"
         id="feGaussianBlur9688" /></filter><filter
       id="glow-filter-geometrics-9"
       x="-0.0099399365"
       y="-0.0048817136"
       width="1.019881"
       height="1.0097656"><feGaussianBlur
         stdDeviation="3"
         id="feGaussianBlur9691" /></filter><filter
       id="glow-filter-organics-2"
       x="-0.0073458881"
       y="-0.0055554965"
       width="1.0146918"
       height="1.0111129"><feGaussianBlur
         stdDeviation="3"
         id="feGaussianBlur9694" /></filter><linearGradient
       xlink:href="#glow-master"
       id="glow-applied-1-2"
       gradientUnits="userSpaceOnUse"
       x1="506.19007541281235"
       y1="514.5720954523736"
       x2="-242.93695541281235"
       y2="241.9121545476264" /><linearGradient
       xlink:href="#glow-master"
       id="glow-applied-2-4"
       gradientUnits="userSpaceOnUse"
       x1="755.3964054128123"
       y1="247.40007454762645"
       x2="6.269374587187656"
       y2="520.0600154523736" /><linearGradient
       xlink:href="#glow-master"
       id="glow-applied-3-7"
       gradientUnits="userSpaceOnUse"
       x1="777.6542598505803"
       y1="-139.03054039480298"
       x2="427.06238805438744"
       y2="576.9443831313207" /><linearGradient
       xlink:href="#glow-master"
       id="glow-applied-6"
       gradientUnits="userSpaceOnUse"
       x1="280.9455600889132"
       y1="8.664630914664258"
       x2="-17.692440088913173"
       y2="747.8196190853357" /><linearGradient
       xlink:href="#glow-master"
       id="glow-applied-7"
       gradientUnits="userSpaceOnUse"
       x1="631.5437100889133"
       y1="-427.42330908533575"
       x2="332.9057099110868"
       y2="311.7316790853357" /><linearGradient
       xlink:href="#glow-master"
       id="glow-applied-11-81"
       gradientUnits="userSpaceOnUse"
       x1="131.62655999999998"
       y1="-20.36004248275367"
       x2="131.62656000000004"
       y2="776.8442924827536" /><linearGradient
       xlink:href="#glow-master"
       id="glow-applied-12-2"
       gradientUnits="userSpaceOnUse"
       x1="484.22470999999996"
       y1="-480.4479824827537"
       x2="484.22471"
       y2="316.75635248275364" /><linearGradient
       xlink:href="#glow-master"
       id="glow-applied-13-8"
       gradientUnits="userSpaceOnUse"
       x1="600.3998088378382"
       y1="-248.87855484611296"
       x2="109.49201041038214"
       y2="379.24904774026055" /><linearGradient
       xlink:href="#glow-master"
       id="glow-applied-22"
       gradientUnits="userSpaceOnUse"
       x1="817.7407935822188"
       y1="422.4336317704509"
       x2="47.867161837514686"
       y2="215.48111829932475" /><linearGradient
       xlink:href="#glow-master"
       id="glow-applied-31"
       gradientUnits="userSpaceOnUse"
       x1="724.6716006574251"
       y1="-118.34118863569549"
       x2="91.24320314524209"
       y2="365.7075867092534" /><filter
       id="glow-filter-statics-91"
       x="-0.086714622"
       y="-0.086962945"
       width="1.1734307"
       height="1.1739274"><feGaussianBlur
         stdDeviation="3"
         id="feGaussianBlur13039" /></filter><filter
       id="glow-filter-geometrics-96"
       x="-0.17931206"
       y="-0.17931206"
       width="1.3586241"
       height="1.3586241"><feGaussianBlur
         stdDeviation="3"
         id="feGaussianBlur13042" /></filter><filter
       id="glow-filter-organics-933"
       x="-0.026781663"
       y="-0.025723045"
       width="1.0535633"
       height="1.0514308"><feGaussianBlur
         stdDeviation="3"
         id="feGaussianBlur13045" /></filter><linearGradient
       xlink:href="#glow-master"
       id="glow-applied-1-80"
       gradientUnits="userSpaceOnUse"
       x1="348.56546124136065"
       y1="396.53029779003344"
       x2="-214.56541124136066"
       y2="191.56742220996654" /><linearGradient
       xlink:href="#glow-master"
       id="glow-applied-2-5"
       gradientUnits="userSpaceOnUse"
       x1="661.9679412413607"
       y1="0.537677790033456"
       x2="98.83706875863936"
       y2="-204.42519779003345" /><linearGradient
       xlink:href="#glow-master"
       id="glow-applied-3-6"
       gradientUnits="userSpaceOnUse"
       x1="539.1389798441473"
       y1="-252.08089224649976"
       x2="-8.703290071995383"
       y2="-9.192013945476845" /><linearGradient
       xlink:href="#glow-master"
       id="glow-applied-6-6"
       gradientUnits="userSpaceOnUse"
       x1="179.2455258807312"
       y1="16.23149641497497"
       x2="-45.24547588073122"
       y2="571.866223585025" /><linearGradient
       xlink:href="#glow-master"
       id="glow-applied-7-4"
       gradientUnits="userSpaceOnUse"
       x1="594.0398258807312"
       y1="705.6453535850251"
       x2="369.54882411926883"
       y2="150.01062641497504" /><linearGradient
       xlink:href="#glow-master"
       id="glow-applied-9-0"
       gradientUnits="userSpaceOnUse"
       x1="67.00002499999998"
       y1="-5.586818745539631"
       x2="67.00002500000001"
       y2="593.6845387455396" /><linearGradient
       xlink:href="#glow-master"
       id="glow-applied-10-4"
       gradientUnits="userSpaceOnUse"
       x1="483.794325"
       y1="-406.4309387455396"
       x2="483.794325"
       y2="192.84041874553964" /><linearGradient
       xlink:href="#glow-master"
       id="glow-applied-11-6"
       gradientUnits="userSpaceOnUse"
       x1="605.2132568483755"
       y1="-122.4024319382367"
       x2="186.90754400893331"
       y2="306.72050047034986" /><linearGradient
       xlink:href="#glow-master"
       id="glow-applied-20-7"
       gradientUnits="userSpaceOnUse"
       x1="741.7415670837189"
       y1="337.74670409934976"
       x2="151.0166277910131"
       y2="236.89926483176066" /><filter
       id="glow-filter-statics-7"
       x="-0.01849793"
       y="-0.010327058"
       width="1.0369962"
       height="1.0206541"><feGaussianBlur
         stdDeviation="3"
         id="feGaussianBlur16585" /></filter><filter
       id="glow-filter-geometrics-43"
       x="-0.033264262"
       y="-0.013219743"
       width="1.0665264"
       height="1.0264403"><feGaussianBlur
         stdDeviation="3"
         id="feGaussianBlur16588" /></filter><filter
       id="glow-filter-organics-1"
       x="-0.014593736"
       y="-0.011943475"
       width="1.0291875"
       height="1.0240054"><feGaussianBlur
         stdDeviation="3"
         id="feGaussianBlur16591" /></filter><linearGradient
       xlink:href="#glow-master"
       id="glow-applied-1-4"
       gradientUnits="userSpaceOnUse"
       x1="491.538689471146"
       y1="-276.10520579240085"
       x2="237.51984052885405"
       y2="421.8058457924009" /><linearGradient
       xlink:href="#glow-master"
       id="glow-applied-2-6"
       gradientUnits="userSpaceOnUse"
       x1="518.592267471146"
       y1="-225.32247079240085"
       x2="264.57341852885406"
       y2="472.5885807924009" /><linearGradient
       xlink:href="#glow-master"
       id="glow-applied-3-9"
       gradientUnits="userSpaceOnUse"
       x1="662.930497471146"
       y1="-115.75999079240086"
       x2="408.9116485288541"
       y2="582.1510607924008" /><linearGradient
       xlink:href="#glow-master"
       id="glow-applied-8-2"
       gradientUnits="userSpaceOnUse"
       x1="20.21887847596645"
       y1="-66.2601059831493"
       x2="708.8396515240336"
       y2="211.9607459831493" /><linearGradient
       xlink:href="#glow-master"
       id="glow-applied-9-6"
       gradientUnits="userSpaceOnUse"
       x1="191.61068847596644"
       y1="94.08511401685071"
       x2="880.2314615240335"
       y2="372.30596598314935" /><linearGradient
       xlink:href="#glow-master"
       id="glow-applied-10-41"
       gradientUnits="userSpaceOnUse"
       x1="-144.4257666629008"
       y1="8.318780139801156"
       x2="403.2215684809576"
       y2="510.0037488721732" /><linearGradient
       xlink:href="#glow-master"
       id="glow-applied-11-2"
       gradientUnits="userSpaceOnUse"
       x1="-6.821449130917813"
       y1="72.85032"
       x2="735.8799791309178"
       y2="72.85032" /><linearGradient
       xlink:href="#glow-master"
       id="glow-applied-12-8"
       gradientUnits="userSpaceOnUse"
       x1="178.53957069959242"
       y1="246.93005455115545"
       x2="919.84559170025"
       y2="292.4360406446696" /><linearGradient
       xlink:href="#glow-master"
       id="glow-applied-13-89"
       gradientUnits="userSpaceOnUse"
       x1="192.78451891313256"
       y1="170.1310443305959"
       x2="814.1245164478995"
       y2="989.0681778015513" /><linearGradient
       xlink:href="#glow-master"
       id="glow-applied-21-8"
       gradientUnits="userSpaceOnUse"
       x1="178.74149815613637"
       y1="241.471000595806"
       x2="921.3836269939569"
       y2="250.85588061687397" /></defs><g
     inkscape:label="Glow"
     transform="matrix(0.98571621,0,0,0.98571621,820.4681,1220.7138)"
     id="g9787"><path
       id="path46475"
       style="fill:none;stroke:url(#glow-applied-3-9);filter:url(#glow-filter-statics-7);opacity:1;stroke-opacity:1;fill-opacity:1;stroke-width:2;stroke-linecap:round;stroke-linejoin:round;stroke-dasharray:none;paint-order:stroke markers fill"
       inkscape:label="statics"
       transform="matrix(0,-1.2863996,1.2863996,0,-1016.5319,910.39863)"
       d="m 615.67704,235.03967 c 0,0 -2.06784,-14.66069 -53.33547,-16.06367 -26.12958,-0.71506 -87.86598,-9.98622 -88.63231,-20.15739 m -272.21608,31.40217 c 0,0 6.62414,-1.5558 13.79574,19.93676 9.19035,27.54252 -1.32877,45.2397 17.86555,50.88831 m 378.41631,-70.37198 -439.17911,-0.41692 60.99125,-61.97439 -0.0665,131.90821 m 250.49405,-93.80582 -304.47239,-0.15493 29.53982,-28.93895 -0.45816,57.28753 m 23.96285,-5.15501 -29.77827,-29.4399 m -21.64022,705.0057 56.94984,-55.61793 0.24473,112.92776 -57.18292,-57.32749 m 2.27343,0.0312 31.50102,-0.28932 m 0.75856,-33.60207 -0.0401,68.33216" /><path
       id="circle46487"
       style="display:inline;opacity:1;fill:none;stroke:url(#glow-applied-10-41);stroke-width:4;stroke-linecap:round;stroke-linejoin:round;paint-order:stroke markers fill;filter:url(#glow-filter-geometrics-43)"
       inkscape:label="geometrics"
       transform="matrix(-0.45033753,-1.2049979,1.2049979,-0.45033753,-970.56535,493.62425)"
       d="m -151.84084,118.17572 a 15.568295,15.568295 0 0 1 -15.56829,15.56829 15.568295,15.568295 0 0 1 -15.5683,-15.56829 15.568295,15.568295 0 0 1 15.5683,-15.56829 15.568295,15.568295 0 0 1 15.56829,15.56829 z M -414.11727,797.1425 a 22.025062,22.025062 0 0 0 28.34179,-12.9209 22.025062,22.025062 0 0 0 -12.9209,-28.34179 22.025062,22.025062 0 0 0 -28.34179,12.9209 22.025062,22.025062 0 0 0 12.9209,28.34179 z" /><path
       id="path46575"
       style="display:inline;fill:none;stroke:url(#glow-applied-21-8);filter:url(#glow-filter-organics-1);opacity:1;stroke-opacity:1;fill-opacity:1;stroke-width:5;stroke-linecap:round;stroke-linejoin:round;stroke-dasharray:none;paint-order:stroke markers fill"
       inkscape:label="organics"
       transform="matrix(0.01625513,-1.2862968,-1.2862968,-0.01625513,-408.85137,932.53514)"
       d="m 248.27361,244.38637 c 0,0 27.91113,-36.42192 153.46828,-12.8843 120.81719,22.64904 166.45456,46.82857 240.04534,53.71647 80.96825,7.57841 113.12522,-22.81438 113.12522,-22.81438 m -44.72802,29.51053 c 0,0 43.32759,-5.44172 63.75251,8.86323 13.26185,9.28818 13.78323,19.24481 13.78323,19.24481 M 769.06674,256.3314 c 0,0 -4.20447,0.0475 -5.02198,3.1359 -1.0403,3.9302 2.50006,7.77614 0.73551,12.32001 -2.43503,6.27028 -25.30242,10.16009 -25.30242,10.16009 0,0 21.55778,-0.1096 36.89693,8.24981 11.00612,5.99803 10.59063,9.32298 16.89607,11.9067 10.33657,4.23552 15.7082,0.31267 15.7082,0.31267 m -8.95671,-41.49878 c 0,0 -2.84322,0.6501 -3.80899,3.76604 -0.78692,2.53903 2.26938,5.59156 0.62466,9.03551 -2.00765,4.204 -11.54524,6.46265 -11.54524,6.46265 0,0 12.63407,0.39799 23.95117,3.84527 8.72383,2.65737 11.5773,5.8908 16.15166,7.57082 7.49881,2.75406 11.12827,1.20958 11.12827,1.20958 m -9.98839,-31.45447 c 0,0 -3.1607,0.35368 -3.57652,2.8698 -0.42008,2.54174 1.25903,3.63166 0.73332,5.89951 -0.76229,3.28872 -6.532,5.72643 -6.532,5.72643 0,0 10.66843,-2.14541 19.78331,-0.0348 7.02621,1.62688 9.2901,4.00818 13.11917,4.90875 7.15577,1.68305 9.37668,-0.25659 9.37668,-0.25659 m -8.70338,-21.47156 c 0,0 -2.37276,0.19877 -3.16369,1.89902 -0.83832,1.80225 0.88736,2.73656 0.54111,4.32297 -0.57707,2.64282 -3.19152,3.64937 -3.19152,3.64937 0,0 7.79553,-1.74689 14.19993,-0.77268 4.93676,0.75096 6.7349,2.23998 10.53276,3.21988 6.15585,1.5883 7.22518,-1.42345 7.22518,-1.42345 m -6.69207,-16.18399 c 0,0 -1.55534,-0.13026 -1.83317,1.33018 -0.16168,0.85008 1.11565,1.06042 0.41439,3.15007 -0.66895,1.99256 -2.79904,3.10175 -2.79904,3.10175 0,0 5.81868,-1.75736 8.90618,-1.60964 2.82467,0.13519 4.30898,0.96746 6.75759,1.37606 6.40128,1.06791 7.22517,-1.42345 7.22517,-1.42345 m -10.48166,-4.23105 c 0,0 11.45919,-2.36022 12.71687,-10.96928 1.06932,-7.31925 7.62631,-8.87801 7.62631,-8.87801 m -22.7821,15.63777 c 0,0 5.02524,-1.20262 6.88764,-4.4347 1.86242,-3.23211 -0.83097,-5.86348 -0.83097,-5.86348 m 14.97152,3.10721 c 0,0 1.39589,-1.81644 7.393,-2.75384 5.9815,-0.935 8.32307,0.0299 8.32307,0.0299 m -664.66874,3.57985 c 2.62165,14.88498 7.33602,26.31603 20.74803,33.58418 12.2133,6.61855 24.56307,6.98333 42.81122,2.04086 17.39461,-4.7113 27.44821,-12.31625 40.18461,-15.43104 21.74593,-5.31812 40.92107,16.17074 38.93223,26.15853 m 7.04478,-38.40527 c 0,0 1.65807,2.19919 -0.82775,8.00099 -2.92244,6.82082 -10.13017,9.79813 -10.13017,9.79813 m 19.68604,20.45684 c 0,0 1.04009,0.59688 -0.5094,-8.60052 -1.49372,-8.86633 -11.93248,-10.90495 -11.93248,-10.90495 m 15.24115,-18.43702 c 0,0 2.65528,3.12723 -0.0209,8.76613 -1.83118,3.85838 -9.03161,6.86545 -9.03161,6.86545 m 27.43415,0.0598 a 8.5505884,8.5505884 0 0 0 -11.22917,-4.48674 8.5505884,8.5505884 0 0 0 -4.48674,11.22918 8.5505884,8.5505884 0 0 0 11.22917,4.48673 8.5505884,8.5505884 0 0 0 4.48674,-11.22917 z m 21.96008,7.48936 a 5.1774436,5.1774436 0 0 0 -6.79934,-2.71676 5.1774436,5.1774436 0 0 0 -2.71675,6.79934 5.1774436,5.1774436 0 0 0 6.79934,2.71675 5.1774436,5.1774436 0 0 0 2.71675,-6.79933 z m 16.36139,12.69376 a 3.0600841,3.0600841 0 0 0 -4.0187,-1.60572 3.0600841,3.0600841 0 0 0 -1.60571,4.0187 3.0600841,3.0600841 0 0 0 4.01869,1.60571 3.0600841,3.0600841 0 0 0 1.60572,-4.01869 z M 260.52716,-422.36713 c 0,0 11.94264,20.36936 44.78983,19.96536 34.27707,-0.42158 43.45171,-15.43306 69.93348,-17.06197 48.55041,-2.98637 57.04687,20.74842 57.04687,20.74842 m -36.78487,-28.08246 c 0,0 5.68385,2.80585 12.76685,-2.79704 7.08291,-5.60278 7.59743,-10.98325 7.59743,-10.98325 m -8.14971,17.00595 c 0.54006,-0.1082 4.76836,1.39779 10.08627,-1.3 7.20273,-3.65399 7.83529,-8.4982 7.83529,-8.4982 m -6.88155,13.98351 c 0.54007,-0.10821 1.77363,0.61879 6.58893,-0.82906 6.32087,-1.90059 7.66067,-6.2249 7.66067,-6.2249 m -5.63805,11.80816 c 0.54009,-0.10813 3.78406,0.9429 7.0406,0.11193 4.6275,-1.18089 5.07908,-3.31469 5.07908,-3.31469 m -4.82444,8.65084 c 0.54006,-0.10812 1.95125,0.90811 4.35767,0.64459 2.99421,-0.32794 4.00426,-2.06217 4.00426,-2.06217 m -3.57214,7.11997 c 0.54004,-0.10821 1.96318,0.4345 3.51289,0.3883 1.72246,-0.0513 2.75014,-1.18596 2.75014,-1.18596 m -3.8716,6.7981 c 0.43631,-0.33535 1.57132,0.42415 2.85571,0.98396 1.34599,0.58639 2.49853,-0.24175 2.49853,-0.24175 m -187.41413,-39.54699 c 0,0 18.05633,21.33801 97.33113,-22.70918 121.55085,-67.53689 146.90616,20.79753 233.34397,33.90521 78.5259,11.90789 98.82589,-15.4944 98.82589,-15.4944 m -40.97842,25.22637 c 0,0 5.93011,-2.23892 12.43374,4.0272 6.50354,6.266 6.49156,11.67099 6.49156,11.67099 m -6.45463,-17.71885 c 0.52697,0.16024 4.88185,-0.92671 9.91171,2.2762 6.81259,4.33815 6.97034,9.22094 6.97034,9.22094 m -5.48687,-14.58727 c 0.52697,0.16023 1.82545,-0.44311 6.47683,1.46686 6.1057,2.5072 7.01797,6.94143 7.01797,6.94143 m -4.46115,-12.30114 c 0.52697,0.16023 3.85791,-0.56987 7.01803,0.57433 4.49047,1.62598 4.73207,3.79361 4.73207,3.79361 m -3.95892,-9.07958 c 0.52694,0.16022 2.03042,-0.71376 4.39975,-0.21712 2.94801,0.618 3.78436,2.44238 3.78436,2.44238 m -2.8617,-7.43403 c 0.52696,0.16024 1.99616,-0.24123 3.53401,-0.0443 1.70927,0.21886 2.62156,1.44818 2.62156,1.44818 m -3.19111,-7.14284 c 0.40157,0.37627 1.60517,-0.26909 2.93798,-0.70114 1.39672,-0.45251 2.46311,0.48396 2.46311,0.48396" /></g><g
     inkscape:label="Shape"
     id="g9869"
     transform="matrix(0.98571621,0,0,0.98571621,820.4681,1222.6852)"><path
       id="path16666"
       style="opacity:1;stroke:#e8e2da;stroke-opacity:1;fill:none;fill-opacity:1;stroke-width:2;stroke-linecap:round;stroke-linejoin:round;stroke-dasharray:none;paint-order:stroke markers fill"
       inkscape:label="base"
       transform="matrix(0,-1.2863996,1.2863996,0,-1013.9591,908.39866)"
       d="m 615.67704,235.03967 c 0,0 -2.06784,-14.66069 -53.33547,-16.06367 -26.12958,-0.71506 -87.86598,-9.98622 -88.63231,-20.15739 m -272.21608,31.40217 c 0,0 6.62414,-1.5558 13.79574,19.93676 9.19035,27.54252 -1.32877,45.2397 17.86555,50.88831 m 378.41631,-70.37198 -439.17911,-0.41692 60.99125,-61.97439 -0.0665,131.90821 m 250.49405,-93.80582 -304.47239,-0.15493 29.53982,-28.93895 -0.45816,57.28753 m 23.96285,-5.15501 -29.77827,-29.4399 m -23.35733,703.0057 56.94984,-55.61793 0.24473,112.92776 -57.18292,-57.32749 m 2.27343,0.0312 31.50102,-0.28932 m 0.75856,-33.60207 -0.0401,68.33216" /><path
       id="circle16672"
       style="display:inline;opacity:1;fill:none;stroke:#e8e2da;stroke-width:4;stroke-linecap:round;stroke-linejoin:round;paint-order:stroke markers fill"
       inkscape:label="circles"
       transform="matrix(-0.45033753,-1.2049979,1.2049979,-0.45033753,-967.99256,491.62428)"
       d="m -151.84084,118.17572 a 15.568295,15.568295 0 0 1 -15.56829,15.56829 15.568295,15.568295 0 0 1 -15.5683,-15.56829 15.568295,15.568295 0 0 1 15.5683,-15.56829 15.568295,15.568295 0 0 1 15.56829,15.56829 z m -263.18473,676.49223 a 22.025062,22.025062 0 0 0 28.34179,-12.9209 22.025062,22.025062 0 0 0 -12.9209,-28.34179 22.025062,22.025062 0 0 0 -28.34179,12.9209 22.025062,22.025062 0 0 0 12.9209,28.34179 z" /><path
       id="path16712"
       style="display:inline;opacity:1;stroke:#e8e2da;stroke-opacity:1;fill:none;fill-opacity:1;stroke-width:5;stroke-linecap:round;stroke-linejoin:round;stroke-dasharray:none;paint-order:stroke markers fill"
       inkscape:label="vines-flowers"
       transform="matrix(0.01625512,-1.2862969,-1.2862969,-0.01625512,-406.27859,930.53518)"
       d="m 248.27361,244.38637 c 0,0 27.91113,-36.42192 153.46828,-12.8843 120.81719,22.64904 166.45456,46.82857 240.04534,53.71647 80.96825,7.57841 113.12522,-22.81438 113.12522,-22.81438 m -44.72802,29.51053 c 0,0 43.32759,-5.44172 63.75251,8.86323 13.26185,9.28818 13.78323,19.24481 13.78323,19.24481 M 769.06674,256.3314 c 0,0 -4.20447,0.0475 -5.02198,3.1359 -1.0403,3.9302 2.50006,7.77614 0.73551,12.32001 -2.43503,6.27028 -25.30242,10.16009 -25.30242,10.16009 0,0 21.55778,-0.1096 36.89693,8.24981 11.00612,5.99803 10.59063,9.32298 16.89607,11.9067 10.33657,4.23552 15.7082,0.31267 15.7082,0.31267 m -8.95671,-41.49878 c 0,0 -2.84322,0.6501 -3.80899,3.76604 -0.78692,2.53903 2.26938,5.59156 0.62466,9.03551 -2.00765,4.204 -11.54524,6.46265 -11.54524,6.46265 0,0 12.63407,0.39799 23.95117,3.84527 8.72383,2.65737 11.5773,5.8908 16.15166,7.57082 7.49881,2.75406 11.12827,1.20958 11.12827,1.20958 m -9.98839,-31.45447 c 0,0 -3.1607,0.35368 -3.57652,2.8698 -0.42008,2.54174 1.25903,3.63166 0.73332,5.89951 -0.76229,3.28872 -6.532,5.72643 -6.532,5.72643 0,0 10.66843,-2.14541 19.78331,-0.0348 7.02621,1.62688 9.2901,4.00818 13.11917,4.90875 7.15577,1.68305 9.37668,-0.25659 9.37668,-0.25659 m -8.70338,-21.47156 c 0,0 -2.37276,0.19877 -3.16369,1.89902 -0.83832,1.80225 0.88736,2.73656 0.54111,4.32297 -0.57707,2.64282 -3.19152,3.64937 -3.19152,3.64937 0,0 7.79553,-1.74689 14.19993,-0.77268 4.93676,0.75096 6.7349,2.23998 10.53276,3.21988 6.15585,1.5883 7.22518,-1.42345 7.22518,-1.42345 m -6.69207,-16.18399 c 0,0 -1.55534,-0.13026 -1.83317,1.33018 -0.16168,0.85008 1.11565,1.06042 0.41439,3.15007 -0.66895,1.99256 -2.79904,3.10175 -2.79904,3.10175 0,0 5.81868,-1.75736 8.90618,-1.60964 2.82467,0.13519 4.30898,0.96746 6.75759,1.37606 6.40128,1.06791 7.22517,-1.42345 7.22517,-1.42345 m -10.48166,-4.23105 c 0,0 11.45919,-2.36022 12.71687,-10.96928 1.06932,-7.31925 7.62631,-8.87801 7.62631,-8.87801 m -22.7821,15.63777 c 0,0 5.02524,-1.20262 6.88764,-4.4347 1.86242,-3.23211 -0.83097,-5.86348 -0.83097,-5.86348 m 14.97152,3.10721 c 0,0 1.39589,-1.81644 7.393,-2.75384 5.9815,-0.935 8.32307,0.0299 8.32307,0.0299 m -664.66875,3.57982 c 2.62165,14.88497 7.33602,26.31602 20.74803,33.58417 12.2133,6.61855 24.56306,6.98333 42.81121,2.04086 17.39462,-4.7113 27.44821,-12.31625 40.18462,-15.43104 21.74592,-5.31812 40.92106,16.17074 38.93222,26.15853 m 7.04478,-38.40527 c 0,0 1.65807,2.19919 -0.82775,8.00099 -2.92244,6.82082 -10.13017,9.79813 -10.13017,9.79813 m 19.68604,20.45683 c 0,0 1.04009,0.59688 -0.50941,-8.60051 -1.49371,-8.86633 -11.93247,-10.90495 -11.93247,-10.90495 m 15.24115,-18.43702 c 0,0 2.65527,3.12723 -0.021,8.76613 -1.83118,3.85838 -9.0316,6.86545 -9.0316,6.86545 m 27.43415,0.0598 a 8.5505878,8.5505878 0 0 0 -11.22918,-4.48673 8.5505878,8.5505878 0 0 0 -4.48673,11.22917 8.5505878,8.5505878 0 0 0 11.22917,4.48673 8.5505878,8.5505878 0 0 0 4.48674,-11.22917 z m 21.96008,7.48936 a 5.1774432,5.1774432 0 0 0 -6.79934,-2.71676 5.1774432,5.1774432 0 0 0 -2.71675,6.79934 5.1774432,5.1774432 0 0 0 6.79933,2.71675 5.1774432,5.1774432 0 0 0 2.71676,-6.79933 z m 16.36138,12.69375 a 3.0600838,3.0600838 0 0 0 -4.0187,-1.60571 3.0600838,3.0600838 0 0 0 -1.60571,4.0187 3.0600838,3.0600838 0 0 0 4.01869,1.60571 3.0600838,3.0600838 0 0 0 1.60572,-4.0187 z M 258.78489,-420.38897 c 0,0 11.94265,20.36935 44.78983,19.96536 34.27708,-0.42159 43.45171,-15.43306 69.93348,-17.06197 48.55041,-2.98638 57.04686,20.74842 57.04686,20.74842 m -36.78486,-28.08247 c 0,0 5.68384,2.80585 12.76684,-2.79703 7.08292,-5.60278 7.59744,-10.98325 7.59744,-10.98325 m -8.14971,17.00595 c 0.54006,-0.10821 4.76836,1.39779 10.08626,-1.30001 7.20274,-3.65398 7.8353,-8.4982 7.8353,-8.4982 m -6.88156,13.98352 c 0.54008,-0.10822 1.77364,0.61879 6.58893,-0.82906 6.32088,-1.90059 7.66067,-6.2249 7.66067,-6.2249 m -5.63805,11.80815 c 0.54009,-0.10812 3.78407,0.9429 7.0406,0.11193 4.62751,-1.18088 5.07908,-3.31468 5.07908,-3.31468 m -4.82443,8.65083 c 0.54005,-0.10812 1.95124,0.90812 4.35767,0.6446 2.9942,-0.32794 4.00426,-2.06217 4.00426,-2.06217 m -3.57215,7.11996 c 0.54005,-0.10821 1.96319,0.4345 3.51289,0.38831 1.72247,-0.0513 2.75014,-1.18597 2.75014,-1.18597 m -3.8716,6.7981 c 0.43632,-0.33535 1.57132,0.42415 2.85571,0.98397 1.34599,0.58639 2.49853,-0.24175 2.49853,-0.24175 m -187.41413,-39.54699 c 0,0 18.05633,21.33801 97.33113,-22.70918 121.55083,-67.53689 146.90614,20.79753 233.34395,33.9052 78.52589,11.90789 98.82588,-15.49439 98.82588,-15.49439 m -40.97841,25.22636 c 0,0 5.9301,-2.23891 12.43373,4.0272 6.50354,6.26601 6.49157,11.671 6.49157,11.671 m -6.45463,-17.71885 c 0.52697,0.16023 4.88184,-0.92672 9.9117,2.27619 6.81259,4.33815 6.97034,9.22095 6.97034,9.22095 m -5.48687,-14.58728 c 0.52697,0.16024 1.82545,-0.44311 6.47683,1.46686 6.1057,2.5072 7.01797,6.94144 7.01797,6.94144 m -4.46115,-12.30115 c 0.52697,0.16023 3.85791,-0.56986 7.01803,0.57433 4.49047,1.62599 4.73207,3.79362 4.73207,3.79362 m -3.95892,-9.07959 c 0.52694,0.16022 2.03041,-0.71375 4.39975,-0.21711 2.94801,0.618 3.78435,2.44237 3.78435,2.44237 m -2.86169,-7.43402 c 0.52696,0.16024 1.99616,-0.24124 3.53401,-0.0443 1.70927,0.21885 2.62156,1.44818 2.62156,1.44818 m -3.19111,-7.14285 c 0.40157,0.37627 1.60517,-0.26909 2.93798,-0.70114 1.39672,-0.4525 2.46311,0.48397 2.46311,0.48397" /></g></svg>
