<?xml version="1.0" encoding="UTF-8" standalone="no"?>
<!-- Created with Inkscape (http://www.inkscape.org/) -->

<svg
   width="1080mm"
   height="1920mm"
   viewBox="0 0 1080 1920"
   version="1.1"
   id="svg5"
   xml:space="preserve"
   inkscape:version="1.2.2 (b0a8486541, 2022-12-01)"
   sodipodi:docname="jl-site-background-mobile.svg"
   xmlns:inkscape="http://www.inkscape.org/namespaces/inkscape"
   xmlns:sodipodi="http://sodipodi.sourceforge.net/DTD/sodipodi-0.dtd"
   xmlns:xlink="http://www.w3.org/1999/xlink"
   xmlns="http://www.w3.org/2000/svg"
   xmlns:svg="http://www.w3.org/2000/svg"><sodipodi:namedview
     id="namedview7"
     pagecolor="#505050"
     bordercolor="#ffffff"
     borderopacity="1"
     inkscape:showpageshadow="0"
     inkscape:pageopacity="0"
     inkscape:pagecheckerboard="1"
     inkscape:deskcolor="#505050"
     inkscape:document-units="mm"
     showgrid="false"
     inkscape:zoom="0.044016232"
     inkscape:cx="2578.5942"
     inkscape:cy="3487.3499"
     inkscape:window-width="1366"
     inkscape:window-height="722"
     inkscape:window-x="0"
     inkscape:window-y="0"
     inkscape:window-maximized="1"
     inkscape:current-layer="svg5" /><defs
     id="defs2"><linearGradient
       id="glow-master"><stop
         offset="0.0"
         style="stop-color:#000000;stop-opacity:0.0;"
         id="stop1899" /><stop
         offset="0.11"
         style="stop-color:#442204;stop-opacity:0.22;"
         id="stop1901" /><stop
         offset="0.22"
         style="stop-color:#69190d;stop-opacity:0.44;"
         id="stop1903" /><stop
         offset="0.33"
         style="stop-color:#a52c16;stop-opacity:0.659;"
         id="stop1905" /><stop
         offset="0.44"
         style="stop-color:#eb7513;stop-opacity:0.878;"
         id="stop1907" /><stop
         offset="0.55"
         style="stop-color:#f2c62a;stop-opacity:1.0;"
         id="stop1909" /><stop
         offset="0.66"
         style="stop-color:#5e9a0e;stop-opacity:0.878;"
         id="stop1911" /><stop
         offset="0.77"
         style="stop-color:#0e4d0e;stop-opacity:0.659;"
         id="stop1913" /><stop
         offset="0.88"
         style="stop-color:#073720;stop-opacity:0.44;"
         id="stop1915" /><stop
         offset="0.94"
         style="stop-color:#442204;stop-opacity:0.22;"
         id="stop1917" /><stop
         offset="1.0"
         style="stop-color:#000000;stop-opacity:0.0;"
         id="stop1919" /></linearGradient><linearGradient
       id="linearGradient6061-1"><stop
         style="stop-color:#e8e2da;stop-opacity:0;"
         offset="0"
         id="stop9525" /><stop
         style="stop-color:#69190d;stop-opacity:0.22;"
         offset="0.11359598"
         id="stop9527" /><stop
         style="stop-color:#a52c16;stop-opacity:0.55000001;"
         offset="0.22"
         id="stop9529" /><stop
         style="stop-color:#eb7513;stop-opacity:0.88;"
         offset="0.33000001"
         id="stop9531" /><stop
         style="stop-color:#f2c62a;stop-opacity:1;"
         offset="0.5"
         id="stop9533" /><stop
         style="stop-color:#5e9a0e;stop-opacity:0.88;"
         offset="0.66000003"
         id="stop9535" /><stop
         style="stop-color:#0e4d0e;stop-opacity:0.55000001;"
         offset="0.76999998"
         id="stop9537" /><stop
         style="stop-color:#073720;stop-opacity:0.22;"
         offset="0.88"
         id="stop9539" /><stop
         style="stop-color:#e8e2da;stop-opacity:0;"
         offset="1"
         id="stop9541" /></linearGradient><rect
       x="676.6927"
       y="29.501663"
       width="1725.2808"
       height="58.477051"
       id="rect6077" /><rect
       x="1797.4476"
       y="32.03938"
       width="1182.022"
       height="74.537186"
       id="rect6071" /><linearGradient
       id="linearGradient6061-2"><stop
         style="stop-color:#e8e2da;stop-opacity:0;"
         offset="0"
         id="stop6057" /><stop
         style="stop-color:#69190d;stop-opacity:0.22;"
         offset="0.11359598"
         id="stop2182" /><stop
         style="stop-color:#a52c16;stop-opacity:0.55000001;"
         offset="0.22"
         id="stop2186" /><stop
         style="stop-color:#eb7513;stop-opacity:0.88;"
         offset="0.33000001"
         id="stop6065" /><stop
         style="stop-color:#f2c62a;stop-opacity:1;"
         offset="0.5"
         id="stop2188" /><stop
         style="stop-color:#5e9a0e;stop-opacity:0.88;"
         offset="0.66000003"
         id="stop2184" /><stop
         style="stop-color:#0e4d0e;stop-opacity:0.55000001;"
         offset="0.76999998"
         id="stop2192" /><stop
         style="stop-color:#073720;stop-opacity:0.22;"
         offset="0.88"
         id="stop9504" /><stop
         style="stop-color:#000000;stop-opacity:0;"
         offset="1"
         id="stop6059" /></linearGradient><rect
       x="1144.2627"
       y="175.90457"
       width="600.52818"
       height="235.33107"
       id="rect22829" /><rect
       x="1152.7903"
       y="173.17295"
       width="642.74494"
       height="418.02634"
       id="rect22823" /><rect
       x="139.99581"
       y="174.04989"
       width="559.98791"
       height="395.49895"
       id="rect22817" /><rect
       x="145.0775"
       y="180.81232"
       width="697.10984"
       height="181.23741"
       id="rect22399" /><linearGradient
       inkscape:collect="always"
       id="linearGradient928"><stop
         style="stop-color:#02130a;stop-opacity:1;"
         offset="0"
         id="stop1658" /><stop
         style="stop-color:#010403;stop-opacity:1;"
         offset="0.32577938"
         id="stop9701" /></linearGradient><linearGradient
       inkscape:collect="always"
       xlink:href="#linearGradient928"
       id="linearGradient930"
       x1="970.4812"
       y1="1084.7119"
       x2="971.75214"
       y2="1.7513967"
       gradientUnits="userSpaceOnUse"
       gradientTransform="matrix(0.31031372,0,0,0.98232293,559.61453,10.525212)" /><linearGradient
       id="linearGradient5077-1"><stop
         style="stop-color:#35031a;stop-opacity:1;"
         offset="0"
         id="stop6247" /><stop
         style="stop-color:#9f260a;stop-opacity:1;"
         offset="0.22"
         id="stop6249" /><stop
         style="stop-color:#d37a0d;stop-opacity:1;"
         offset="0.44"
         id="stop6251" /><stop
         style="stop-color:#076909;stop-opacity:1;"
         offset="0.76999998"
         id="stop6253" /><stop
         style="stop-color:#07466a;stop-opacity:1;"
         offset="0.88"
         id="stop6255" /><stop
         style="stop-color:#35031a;stop-opacity:1"
         offset="1"
         id="stop6257" /></linearGradient><linearGradient
       id="linearGradient5077"><stop
         style="stop-color:#35031a;stop-opacity:1"
         offset="0"
         id="stop6244" /><stop
         style="stop-color:#07466a;stop-opacity:1;"
         offset="0.14491931"
         id="stop6242" /><stop
         style="stop-color:#076909;stop-opacity:1;"
         offset="0.46923536"
         id="stop6240" /><stop
         style="stop-color:#d37a0d;stop-opacity:1;"
         offset="0.74955529"
         id="stop6238" /><stop
         style="stop-color:#9f260a;stop-opacity:1;"
         offset="0.8828578"
         id="stop6236" /><stop
         style="stop-color:#35031a;stop-opacity:1;"
         offset="1"
         id="stop6234" /></linearGradient><linearGradient
       id="linearGradient5978"><stop
         style="stop-color:#35031a;stop-opacity:1;"
         offset="0"
         id="stop5966" /><stop
         style="stop-color:#9f260a;stop-opacity:1;"
         offset="0.22"
         id="stop5968" /><stop
         style="stop-color:#d37a0d;stop-opacity:1;"
         offset="0.44"
         id="stop5970" /><stop
         style="stop-color:#076909;stop-opacity:1;"
         offset="0.76999998"
         id="stop5972" /><stop
         style="stop-color:#07466a;stop-opacity:1;"
         offset="0.88"
         id="stop5974" /><stop
         style="stop-opacity:0"
         offset="1"
         id="stop5976" /></linearGradient><linearGradient
       id="linearGradient5077-2"><stop
         style="stop-color:#35031a;stop-opacity:1;"
         offset="0"
         id="stop5065" /><stop
         style="stop-color:#9f260a;stop-opacity:1;"
         offset="0.33126885"
         id="stop5067" /><stop
         style="stop-color:#d37a0d;stop-opacity:1;"
         offset="0.33126885"
         id="stop5069" /><stop
         style="stop-color:#076909;stop-opacity:1;"
         offset="0.76338273"
         id="stop5071" /><stop
         style="stop-color:#07466a;stop-opacity:1;"
         offset="0.88"
         id="stop5073" /><stop
         style="stop-color:#35031a;stop-opacity:1"
         offset="1"
         id="stop5075" /></linearGradient><linearGradient
       id="linearGradient4914"><stop
         style="stop-color:#000000;stop-opacity:1;"
         offset="0"
         id="stop4918" /><stop
         style="stop-color:#000000;stop-opacity:0;"
         offset="1"
         id="stop4920" /></linearGradient><linearGradient
       id="linearGradient4914-1"
       inkscape:swatch="gradient"><stop
         style="stop-color:#000000;stop-opacity:1;"
         offset="0"
         id="stop4910" /><stop
         style="stop-color:#000000;stop-opacity:0;"
         offset="1"
         id="stop4912" /></linearGradient><linearGradient
       id="Rainbowie"
       inkscape:swatch="gradient"><stop
         style="stop-color:#35031a;stop-opacity:1;"
         offset="0.11"
         id="stop4760" /><stop
         style="stop-color:#6a1907;stop-opacity:1;"
         offset="0.22"
         id="stop4762" /><stop
         style="stop-color:#d3560d;stop-opacity:1;"
         offset="0.44"
         id="stop4764" /><stop
         style="stop-color:#d29e0e;stop-opacity:1;"
         offset="0.55000001"
         id="stop4766" /><stop
         style="stop-color:#07692e;stop-opacity:1;"
         offset="0.88"
         id="stop4768" /><stop
         style="stop-color:#076769;stop-opacity:1;"
         offset="0.99880683"
         id="stop4770" /></linearGradient><linearGradient
       id="Rainbowie-10"><stop
         style="stop-color:#35031a;stop-opacity:1;"
         offset="0.11"
         id="stop4760-6" /><stop
         style="stop-color:#6a1907;stop-opacity:1;"
         offset="0.22"
         id="stop4762-1" /><stop
         style="stop-color:#d3560d;stop-opacity:1;"
         offset="0.44"
         id="stop4764-5" /><stop
         style="stop-color:#d29e0e;stop-opacity:1;"
         offset="0.55000001"
         id="stop4766-9" /><stop
         style="stop-color:#07692e;stop-opacity:1;"
         offset="0.88"
         id="stop4768-4" /><stop
         style="stop-color:#076769;stop-opacity:1;"
         offset="0.99880683"
         id="stop4770-9" /></linearGradient><linearGradient
       xlink:href="#linearGradient5077-1"
       id="linearGradient5021"
       x1="150.16481"
       y1="468.45493"
       x2="240.06136"
       y2="600.76404"
       gradientUnits="userSpaceOnUse" /><linearGradient
       xlink:href="#linearGradient5077-1"
       id="linearGradient5055"
       x1="673.78912"
       y1="67.176918"
       x2="440.46896"
       y2="549.38538"
       gradientUnits="userSpaceOnUse" /><linearGradient
       xlink:href="#linearGradient5077-1"
       id="linearGradient5063"
       x1="272.62979"
       y1="233.06071"
       x2="602.46735"
       y2="389.97263"
       gradientUnits="userSpaceOnUse" /><linearGradient
       xlink:href="#linearGradient5077-1"
       id="linearGradient5085"
       x1="240.41537"
       y1="575.26831"
       x2="740.96198"
       y2="169.36858"
       gradientUnits="userSpaceOnUse" /><linearGradient
       xlink:href="#linearGradient5077-1"
       id="linearGradient5093"
       x1="203.44667"
       y1="318.94632"
       x2="563.63208"
       y2="842.80829"
       gradientUnits="userSpaceOnUse" /><rect
       x="676.6927"
       y="29.501663"
       width="264.4473"
       height="96.707763"
       id="rect10974" /><rect
       x="676.6927"
       y="29.501663"
       width="264.4473"
       height="96.707763"
       id="rect11029" /><rect
       x="676.6927"
       y="29.501663"
       width="264.4473"
       height="96.707763"
       id="rect11057" /><rect
       x="676.6927"
       y="29.501663"
       width="264.4473"
       height="96.707763"
       id="rect11068" /><rect
       x="676.6927"
       y="29.501663"
       width="264.4473"
       height="96.707763"
       id="rect11085" /><filter
       id="glow-filter-statics"
       x="-0.034142926"
       y="-0.034904367"
       width="1.0682865"
       height="1.0698093"><feGaussianBlur
         stdDeviation="3"
         id="feGaussianBlur101107" /></filter><filter
       id="glow-filter-geometrics"
       x="-0.089845812"
       y="-0.055204272"
       width="1.1796916"
       height="1.1104085"><feGaussianBlur
         stdDeviation="3"
         id="feGaussianBlur101110" /></filter><filter
       id="glow-filter-organics"
       x="-0.059221462"
       y="-0.041409117"
       width="1.1184429"
       height="1.0828182"><feGaussianBlur
         stdDeviation="3"
         id="feGaussianBlur101113" /></filter><linearGradient
       xlink:href="#glow-master"
       id="glow-applied-1"
       gradientUnits="userSpaceOnUse"
       x1="281.86696993774086"
       y1="186.9452441911846"
       x2="-43.61911993774085"
       y2="68.47799580881538" /><linearGradient
       xlink:href="#glow-master"
       id="glow-applied-2"
       gradientUnits="userSpaceOnUse"
       x1="216.68970353643374"
       y1="110.60927970058387"
       x2="543.0650597468217"
       y2="226.60415243322882" /><linearGradient
       xlink:href="#glow-master"
       id="glow-applied-3"
       gradientUnits="userSpaceOnUse"
       x1="294.6873211984884"
       y1="136.03230400704985"
       x2="610.262673451882"
       y2="-6.7538321962478705" /><linearGradient
       xlink:href="#glow-master"
       id="glow-applied-9"
       gradientUnits="userSpaceOnUse"
       x1="184.00111602792597"
       y1="-32.86506259979724"
       x2="54.246733972074026"
       y2="288.28830259979725" /><linearGradient
       xlink:href="#glow-master"
       id="glow-applied-10"
       gradientUnits="userSpaceOnUse"
       x1="542.801336027926"
       y1="93.05764740020275"
       x2="413.04695397207405"
       y2="414.21101259979724" /><linearGradient
       xlink:href="#glow-master"
       id="glow-applied-18"
       gradientUnits="userSpaceOnUse"
       x1="119.12392499999999"
       y1="-45.47591104779231"
       x2="119.12392500000001"
       y2="300.8991510477923" /><linearGradient
       xlink:href="#glow-master"
       id="glow-applied-19"
       gradientUnits="userSpaceOnUse"
       x1="477.924145"
       y1="80.44679895220769"
       x2="477.92414500000007"
       y2="426.8218610477923" /><linearGradient
       xlink:href="#glow-master"
       id="glow-applied-20"
       gradientUnits="userSpaceOnUse"
       x1="459.0832310477923"
       y1="187.789775"
       x2="112.7081689522077"
       y2="187.78977500000002" /><linearGradient
       xlink:href="#glow-master"
       id="glow-applied-29"
       gradientUnits="userSpaceOnUse"
       x1="461.0832310477923"
       y1="188.931035"
       x2="114.7081689522077"
       y2="188.93103499999998" /><filter
       id="glow-filter-statics-2"
       x="-0.01849793"
       y="-0.036482185"
       width="1.0369962"
       height="1.072965"><feGaussianBlur
         stdDeviation="3"
         id="feGaussianBlur104238" /></filter><filter
       id="glow-filter-geometrics-4"
       x="-0.059689481"
       y="-0.21876775"
       width="1.119379"
       height="1.4375355"><feGaussianBlur
         stdDeviation="3"
         id="feGaussianBlur104241" /></filter><filter
       id="glow-filter-organics-9"
       x="-0.013237407"
       y="-0.036726714"
       width="1.0264748"
       height="1.0734539"><feGaussianBlur
         stdDeviation="3"
         id="feGaussianBlur104244" /></filter><linearGradient
       xlink:href="#glow-master"
       id="glow-applied-1-9"
       gradientUnits="userSpaceOnUse"
       x1="497.98253391054874"
       y1="-219.789486656566"
       x2="229.6132260894513"
       y2="517.5491266565659" /><linearGradient
       xlink:href="#glow-master"
       id="glow-applied-2-9"
       gradientUnits="userSpaceOnUse"
       x1="525.0361119105487"
       y1="-163.750041656566"
       x2="256.6668040894513"
       y2="573.5885716565659" /><linearGradient
       xlink:href="#glow-master"
       id="glow-applied-3-4"
       gradientUnits="userSpaceOnUse"
       x1="669.3743419105488"
       y1="-54.187561656566004"
       x2="401.0050340894513"
       y2="683.1510516565659" /><linearGradient
       xlink:href="#glow-master"
       id="glow-applied-9-9"
       gradientUnits="userSpaceOnUse"
       x1="0.0361336106153658"
       y1="1.9105345030914407"
       x2="727.5596263893847"
       y2="295.8491054969086" /><linearGradient
       xlink:href="#glow-master"
       id="glow-applied-10-8"
       gradientUnits="userSpaceOnUse"
       x1="171.42794361061536"
       y1="167.51246450309145"
       x2="898.9514363893846"
       y2="461.4510354969086" /><linearGradient
       xlink:href="#glow-master"
       id="glow-applied-11"
       gradientUnits="userSpaceOnUse"
       x1="-189.0365228558783"
       y1="70.03425163293498"
       x2="389.54942411065934"
       y2="600.0612490922551" /><linearGradient
       xlink:href="#glow-master"
       id="glow-applied-16"
       gradientUnits="userSpaceOnUse"
       x1="-28.53180153802333"
       y1="148.87982"
       x2="756.1275615380234"
       y2="148.87982" /><linearGradient
       xlink:href="#glow-master"
       id="glow-applied-17"
       gradientUnits="userSpaceOnUse"
       x1="151.88952608437597"
       y1="326.7333311804086"
       x2="935.0746502117377"
       y2="374.8101177672469" /><linearGradient
       xlink:href="#glow-master"
       id="glow-applied-18-1"
       gradientUnits="userSpaceOnUse"
       x1="309.46558311667775"
       y1="359.9430179541543"
       x2="494.4496199431885"
       y2="-402.5995855653313" /><linearGradient
       xlink:href="#glow-master"
       id="glow-applied-27"
       gradientUnits="userSpaceOnUse"
       x1="325.0228860899596"
       y1="94.62593890469084"
       x2="622.4539743849498"
       y2="1139.1472967994782" /><filter
       id="glow-filter-statics-4"
       x="-0.016460317"
       y="-0.016915177"
       width="1.0329209"
       height="1.0338306"><feGaussianBlur
         stdDeviation="3"
         id="feGaussianBlur104664" /></filter><filter
       id="glow-filter-geometrics-0"
       x="-0.10131056"
       y="-0.091394094"
       width="1.2026211"
       height="1.1827882"><feGaussianBlur
         stdDeviation="3"
         id="feGaussianBlur104667" /></filter><filter
       id="glow-filter-organics-3"
       x="-0.01468831"
       y="-0.022513554"
       width="1.0293766"
       height="1.0450271"><feGaussianBlur
         stdDeviation="3"
         id="feGaussianBlur104670" /></filter><linearGradient
       xlink:href="#glow-master"
       id="glow-applied-1-5"
       gradientUnits="userSpaceOnUse"
       x1="470.4503345058871"
       y1="-130.77032070338703"
       x2="184.36100549411285"
       y2="655.253650703387" /><linearGradient
       xlink:href="#glow-master"
       id="glow-applied-3-5"
       gradientUnits="userSpaceOnUse"
       x1="614.788564505887"
       y1="-21.207840703387035"
       x2="328.6992354941128"
       y2="764.816130703387" /><linearGradient
       xlink:href="#glow-master"
       id="glow-applied-10-9"
       gradientUnits="userSpaceOnUse"
       x1="-60.37471662329148"
       y1="105.56821893969365"
       x2="715.1860566232915"
       y2="418.91511106030634" /><linearGradient
       xlink:href="#glow-master"
       id="glow-applied-11-9"
       gradientUnits="userSpaceOnUse"
       x1="83.96351337670853"
       y1="215.13069893969364"
       x2="859.5242866232916"
       y2="528.4775910603064" /><linearGradient
       xlink:href="#glow-master"
       id="glow-applied-12"
       gradientUnits="userSpaceOnUse"
       x1="-287.63631780422924"
       y1="84.02007456704607"
       x2="329.1527878026012"
       y2="649.0439563678165" /><linearGradient
       xlink:href="#glow-master"
       id="glow-applied-17-0"
       gradientUnits="userSpaceOnUse"
       x1="-90.82894950216547"
       y1="262.241665"
       x2="745.6402895021654"
       y2="262.241665" /><linearGradient
       xlink:href="#glow-master"
       id="glow-applied-18-2"
       gradientUnits="userSpaceOnUse"
       x1="59.194478466792106"
       y1="378.4734319135356"
       x2="894.0921367450829"
       y2="429.7246563077939" /><linearGradient
       xlink:href="#glow-master"
       id="glow-applied-19-4"
       gradientUnits="userSpaceOnUse"
       x1="160.50477587567255"
       y1="554.7440391723701"
       x2="1091.6010497661186"
       y2="-133.33447991388354" /><linearGradient
       xlink:href="#glow-master"
       id="glow-applied-24"
       gradientUnits="userSpaceOnUse"
       x1="344.1077662208541"
       y1="460.28906434601265"
       x2="541.3060203850937"
       y2="-352.60307877942085" /><linearGradient
       xlink:href="#glow-master"
       id="glow-applied-33"
       gradientUnits="userSpaceOnUse"
       x1="34.997734537319786"
       y1="332.05097097865166"
       x2="836.8867671061198"
       y2="570.0735901692622" /><linearGradient
       xlink:href="#glow-master"
       id="glow-applied-42"
       gradientUnits="userSpaceOnUse"
       x1="85.72171555023576"
       y1="-25.25885190711773"
       x2="1166.8609192636366"
       y2="388.9033626583154" /><linearGradient
       inkscape:collect="always"
       xlink:href="#glow-master"
       id="linearGradient1418"
       x1="-4991.7344"
       y1="1578.2798"
       x2="3060.5356"
       y2="1578.2798"
       gradientUnits="userSpaceOnUse"
       gradientTransform="matrix(0.18696333,0,0,0.18696333,1030.6837,46.854287)" /></defs><rect
     style="fill:url(#linearGradient930);fill-opacity:1;stroke:none;stroke-width:2.18549;stroke-linecap:round;stroke-linejoin:round;paint-order:stroke markers fill"
     id="rect788"
     width="594.57397"
     height="1057.0204"
     x="560.2287"
     y="12.469443"
     inkscape:label="Background-gradient"
     transform="matrix(1.8164267,0,0,1.8164267,-1017.6144,-22.64983)" /><path
     id="path994"
     style="opacity:0.22;fill:none;stroke:url(#linearGradient1418);stroke-width:0.747854;stroke-linecap:round;stroke-linejoin:round;paint-order:stroke markers fill"
     inkscape:label="stars"
     inkscape:transform-center-x="-31.898045"
     inkscape:transform-center-y="20.604368"
     d="m 1116.0354,121.79956 c -0.9191,1.01626 -11.1628,-10.22323 -12.3309,-9.50706 -1.1682,0.71616 4.2018,14.94375 2.8792,15.30181 -1.3226,0.35806 -3.8636,-14.63537 -5.2336,-14.66443 -1.3698,-0.029 -4.5444,14.84313 -5.8506,14.42931 -1.3062,-0.41382 4.6622,-14.40089 3.5255,-15.16595 -1.1367,-0.76506 -11.8478,10.02992 -12.7229,8.97561 -0.8752,-1.05432 11.7078,-9.59424 11.1651,-10.85239 -0.5427,-1.25816 -15.3896,2.03228 -15.5558,0.67222 -0.1662,-1.36008 15.0362,-1.74147 15.26,-3.09328 0.2237,-1.3518 -14.0453,-6.61058 -13.4498,-7.8446 0.5955,-1.234022 13.5908,6.6642 14.5099,5.64794 0.9189,-1.01626 -8.2418,-13.154642 -7.0736,-13.870812 1.1681,-0.71617 7.8303,12.954022 9.1529,12.595972 1.3226,-0.35806 0.1786,-15.522202 1.5485,-15.493142 1.3698,0.029 -0.4162,15.131042 0.89,15.544862 1.3063,0.41382 8.5422,-12.961562 9.6788,-12.196502 1.1368,0.76506 -8.5304,12.504062 -7.6553,13.558382 0.875,1.05431 14.1936,-6.285722 14.7363,-5.02757 0.5426,1.25816 -13.9366,5.90714 -13.7704,7.2672 0.1662,1.36008 15.3388,2.3858 15.1151,3.7376 -0.2237,1.3518 -14.9179,-2.56528 -15.5133,-1.33126 -0.5955,1.23402 11.6139,10.29983 10.6949,11.31609 z m -19.4775,241.88243 c -0.7227,1.19683 -13.3053,-7.31143 -14.4757,-6.54668 -1.1703,0.76475 1.5687,15.70499 0.1824,15.88619 -1.3863,0.18121 -2.5793,-14.9611 -3.907,-15.39933 -1.3276,-0.43822 -11.3006,11.01837 -12.3066,10.0475 -1.006,-0.97086 10.0889,-11.34476 9.6037,-12.65597 -0.4851,-1.3112 -15.6602,-1.96531 -15.5284,-3.35715 0.1317,-1.39185 15.1599,0.81441 15.8826,-0.3824 0.7226,-1.19683 -8.2276,-13.46906 -7.0572,-14.23382 1.1704,-0.76473 8.8154,12.36033 10.2017,12.17913 1.3862,-0.1812 5.4007,-14.83034 6.7283,-14.39212 1.3277,0.43823 -4.1674,14.59866 -3.1614,15.56953 1.006,0.97086 14.9622,-5.02408 15.4474,-3.71287 0.4851,1.31121 -14.0121,5.84389 -14.1439,7.23574 -0.1318,1.39185 13.2568,8.56543 12.5341,9.76225 z M 687.97572,162.40517 c -1.23282,0.59798 -6.52025,-13.66046 -7.87161,-13.43403 -1.35133,0.22644 -1.70221,15.42961 -3.06261,15.26616 -1.3604,-0.16346 1.90022,-15.01702 0.64096,-15.55713 -1.25923,-0.5401 -9.77386,12.05993 -10.82994,11.18694 -1.05606,-0.87301 9.71739,-11.6058 8.95005,-12.74097 -0.76733,-1.13516 -14.74239,4.86132 -15.15884,3.55594 -0.41644,-1.30536 14.44935,-4.5098 14.41753,-5.87961 -0.0318,-1.36982 -15.03032,-3.88075 -14.6749,-5.20405 0.3554,-1.32329 14.59372,4.01802 15.30754,2.84846 0.71383,-1.16956 -10.5462,-11.3907 -9.53179,-12.31178 1.0144,-0.92108 10.10473,11.27015 11.33754,10.67218 1.23283,-0.59798 -2.71377,-15.28419 -1.36242,-15.51062 1.35136,-0.22642 2.40755,14.94408 3.76795,15.10754 1.36041,0.16347 5.98028,-14.32503 7.23954,-13.78493 1.25923,0.54011 -6.05405,13.87338 -4.99796,14.74638 1.05607,0.873 12.77563,-8.81781 13.54297,-7.68264 0.76736,1.13517 -12.59348,8.39797 -12.17704,9.70334 0.41644,1.30537 15.51482,-0.51097 15.54663,0.85885 0.0318,1.36981 -15.13459,0.25626 -15.49001,1.57956 -0.3554,1.32329 13.32814,7.95808 12.61434,9.12764 -0.71382,1.16957 -12.87059,-7.96679 -13.885,-7.04572 -1.01441,0.92108 6.90988,13.90051 5.67707,14.49849 z m -39.64347,299.71006 c -0.58435,1.59473 -17.56126,-5.6347 -18.77964,-4.45144 -1.2184,1.18323 5.51104,18.36447 3.89991,18.90187 -1.61114,0.53743 -6.54387,-17.24312 -8.22864,-17.45796 -1.68476,-0.21484 -10.92183,15.75878 -12.34653,14.83424 -1.4247,-0.92457 9.40117,-15.86713 8.51871,-17.31829 -0.88245,-1.45115 -19.13036,1.2864 -19.2958,-0.40392 -0.16544,-1.69033 18.26695,-2.54286 18.85131,-4.13757 0.58435,-1.5947 -12.93334,-14.15466 -11.71494,-15.33791 1.2184,-1.18325 13.37734,12.69623 14.98848,12.15883 1.61113,-0.53743 3.00276,-18.93698 4.68752,-18.72213 1.68475,0.21483 -1.58569,18.37478 -0.16099,19.29934 1.42469,0.92455 16.67771,-9.45935 17.56017,-8.0082 0.88247,1.45115 -15.35466,10.21675 -15.18921,11.9071 0.16544,1.69031 17.79401,7.14134 17.20965,8.73604 z M 380.64049,343.55599 c -1.11645,1.23457 -13.56067,-12.4193 -14.97973,-11.54929 -1.41906,0.87 5.10437,18.15386 3.49768,18.58883 -1.60667,0.43499 -4.69359,-17.77924 -6.35773,-17.81453 -1.66414,-0.0353 -5.52065,18.03163 -7.10745,17.52891 -1.58679,-0.50271 5.66371,-17.49441 4.28281,-18.4238 -1.38089,-0.92941 -14.3929,12.1845 -15.45602,10.90369 -1.0631,-1.2808 14.22279,-11.65521 13.5636,-13.18363 -0.65921,-1.52843 -18.69553,2.46885 -18.89741,0.81662 -0.2019,-1.65224 18.26624,-2.11557 18.53803,-3.75775 0.27177,-1.64218 -17.06244,-8.03063 -16.33903,-9.52972 0.72344,-1.49911 16.5103,8.09575 17.62677,6.86118 1.11648,-1.23456 -10.01214,-15.98043 -8.59308,-16.85044 1.41906,-0.87001 9.51246,15.73672 11.11914,15.30175 1.60667,-0.43497 0.21692,-18.85658 1.88108,-18.82128 1.66414,0.0353 -0.50553,18.38139 1.08126,18.88412 1.5868,0.5027 10.37712,-15.74589 11.75802,-14.81648 1.38087,0.9294 -10.36303,15.19011 -9.29992,16.4709 1.06312,1.28079 17.24266,-7.63598 17.90188,-6.10756 0.65919,1.52844 -16.93032,7.17607 -16.72843,8.8283 0.2019,1.65224 18.63377,2.89829 18.362,4.54048 -0.27179,1.64219 -18.12238,-3.11634 -18.84579,-1.61723 -0.72342,1.49909 14.10879,12.51237 12.99232,13.74693 z M 166.6456,496.03567 c -1.51627,0.73548 -8.4396,-16.35589 -10.1219,-16.25665 -1.68229,0.0992 -6.54831,17.886 -8.14051,17.33388 -1.59222,-0.55211 5.59766,-17.53305 4.33792,-18.65246 -1.25972,-1.11938 -17.27765,8.01695 -18.01311,6.5007 -0.73548,-1.51627 16.35589,-8.4396 16.25665,-10.12189 -0.0992,-1.6823 -17.88598,-6.54832 -17.33388,-8.14054 0.55211,-1.59222 17.53305,5.59766 18.65246,4.33794 1.11938,-1.25974 -8.01695,-17.27767 -6.50068,-18.01313 1.51625,-0.73545 8.43958,16.35589 10.12187,16.25667 1.6823,-0.0992 6.54832,-17.886 8.14054,-17.3339 1.59222,0.55213 -5.59767,17.53307 -4.33794,18.65246 1.25974,1.11941 17.27767,-8.01695 18.01313,-6.50068 0.73546,1.51627 -16.35589,8.4396 -16.25665,10.12189 0.0992,1.6823 17.88598,6.54832 17.33387,8.14052 -0.55212,1.59222 -17.53306,-5.59766 -18.65245,-4.33792 -1.1194,1.25972 8.01695,17.27765 6.50068,18.01311 z M 153.00709,120.21924 c -1.48718,1.64449 -18.0634,-16.54304 -19.95364,-15.38415 -1.89024,1.15888 6.79924,24.18171 4.65907,24.76112 -2.14019,0.57941 -6.25206,-23.68271 -8.46877,-23.72973 -2.21673,-0.0471 -7.35375,24.0189 -9.46743,23.34926 -2.11368,-0.66963 7.54429,-23.30327 5.70489,-24.54128 -1.8394,-1.23801 -19.17197,16.23025 -20.58809,14.52417 -1.4161,-1.70606 18.94537,-15.52521 18.06728,-17.56114 -0.87807,-2.035942 -24.903217,3.28861 -25.172145,1.08776 -0.268928,-2.20084 24.331405,-2.818012 24.693425,-5.005472 0.36202,-2.18746 -22.72788,-10.69714 -21.76423,-12.694 0.96362,-1.99687 21.9924,10.78389 23.47958,9.1394 1.48718,-1.64449 -13.3366,-21.28663 -11.44634,-22.44552 1.89023,-1.15889 12.67099,20.96199 14.81116,20.38258 2.14017,-0.5794 0.28895,-25.117754 2.50568,-25.070733 2.21671,0.04702 -0.6734,24.484803 1.44027,25.154443 2.11368,0.66963 13.82278,-20.97419 15.66218,-19.73618 1.8394,1.23801 -13.80397,20.23387 -12.38787,21.93994 1.4161,1.70608 22.96796,-10.17145 23.84603,-8.13552 0.8781,2.03593 -22.55189,9.55882 -22.28296,11.75966 0.26893,2.200852 24.82097,3.860662 24.45896,6.048122 -0.36202,2.18746 -24.13976,-4.151102 -25.10338,-2.15423 -0.96363,1.99687 18.79351,16.66701 17.30633,18.3115 z m 308.68552,18.85097 c -1.7957,1.34707 -15.19245,-19.24139 -17.36697,-18.68406 -2.17449,0.55733 -4.01636,25.05152 -6.23861,24.73429 -2.22226,-0.31724 2.86303,-24.34842 0.93134,-25.49192 -1.9317,-1.14351 -20.55411,14.87409 -21.90116,13.0784 -1.34705,-1.79569 19.24141,-15.19245 18.68407,-17.36695 -0.55734,-2.1745 -25.05152,-4.01637 -24.73428,-6.23863 0.31722,-2.22225 24.34841,2.86304 25.49191,0.93134 1.14351,-1.93169 -14.8741,-20.554102 -13.07841,-21.901152 1.7957,-1.34705 15.19246,19.241402 17.36695,18.684062 2.1745,-0.55733 4.01637,-25.051512 6.23863,-24.734282 2.22227,0.31723 -2.86304,24.348412 -0.93134,25.491922 1.93169,1.14351 20.5541,-14.874102 21.90117,-13.078412 1.34705,1.79569 -19.24141,15.192462 -18.68406,17.366962 0.55731,2.17449 25.0515,4.01637 24.73427,6.23863 -0.31724,2.22225 -24.3484,-2.86305 -25.49193,-0.93134 -1.1435,1.93169 14.87411,20.5541 13.07842,21.90114 z m 469.87588,472.41018 c -1.80974,1.3576 -15.5306,-19.03515 -17.75015,-18.59723 -2.21955,0.43793 -7.16646,24.51394 -9.35621,23.94548 -2.18976,-0.56846 5.19913,-24.01054 3.47286,-25.4728 -1.72625,-1.46228 -23.63398,9.68123 -24.55483,7.61477 -0.92084,-2.06646 22.0138,-10.90549 22.08074,-13.16683 0.067,-2.26136 -22.30464,-12.44165 -21.26315,-14.45 1.04147,-2.00837 22.25161,10.41161 24.06135,9.05401 1.80974,-1.35757 -4.17944,-25.1957 -1.95989,-25.63363 2.21955,-0.43794 5.73354,23.88855 7.92329,24.45702 2.18976,0.56846 17.09296,-18.97688 18.81921,-17.51462 1.72626,1.46228 -15.10202,19.37694 -14.18117,21.44339 0.92085,2.06645 25.494,1.53192 25.42706,3.79326 -0.067,2.26135 -24.56545,0.27407 -25.60694,2.28245 -1.04147,2.00836 14.69756,20.88715 12.88783,22.24473 z m 424.22501,-30.91743 c -2.1456,1.60954 -18.1529,-22.99092 -20.7512,-22.32498 -2.5982,0.66592 -4.799,29.93324 -7.4543,29.55419 -2.6553,-0.37905 3.4209,-29.09314 1.1128,-30.45947 -2.3081,-1.36634 -24.5594,17.77257 -26.1689,15.62696 -1.6096,-2.14561 22.9908,-18.15296 22.3249,-20.75121 -0.666,-2.59823 -29.9332,-4.79904 -29.5542,-7.45432 0.3791,-2.65531 29.0931,3.42094 30.4595,1.11282 1.3664,-2.30811 -17.7726,-24.55943 -15.6269,-26.16899 2.1455,-1.60955 18.1529,22.99093 20.7511,22.32499 2.5983,-0.66595 4.7991,-29.93324 7.4543,-29.55419 2.6554,0.37905 -3.4209,29.09312 -1.1127,30.45947 2.308,1.36634 24.5594,-17.77259 26.1689,-15.62698 1.6096,2.14562 -22.9909,18.15298 -22.3249,20.75121 0.6659,2.59825 29.9332,4.79905 29.5541,7.45434 -0.379,2.65531 -29.0931,-3.42094 -30.4595,-1.11283 -1.3662,2.30812 17.7726,24.55943 15.627,26.16899 z m 237.393,-210.01034 c -1.8131,2.00495 -22.5559,-18.78576 -25.0594,-17.76608 -2.5034,1.0197 -2.8166,30.38666 -5.5146,30.21914 -2.698,-0.16752 0.6239,-29.34767 -1.7342,-30.6692 -2.3581,-1.32156 -25.5134,16.74359 -27.0647,14.52976 -1.5511,-2.21383 23.334,-17.81016 22.8969,-20.4778 -0.437,-2.66762 -28.998,-9.50772 -28.2343,-12.10081 0.7637,-2.59306 28.473,7.13877 30.2862,5.13383 1.8131,-2.00493 -10.6466,-28.59953 -8.1431,-29.61923 2.5035,-1.0197 12.1713,26.71205 14.8694,26.87957 2.698,0.1675 15.722,-26.15533 18.0801,-24.83379 2.3582,1.32156 -13.2956,26.17062 -11.7444,28.38445 1.5512,2.21383 30.2515,-4.0156 30.6886,-1.34798 0.4371,2.66764 -28.7507,5.92218 -29.5143,8.51527 -0.7638,2.59309 22.001,21.14792 20.1878,23.15287 z M 1379.2637,177.62807 c -2.6615,-0.33265 2.9127,-29.14841 0.5811,-30.47425 -2.3317,-1.32585 -24.2456,18.19849 -25.8923,16.08129 -1.6468,-2.1172 22.6706,-18.55145 21.9595,-21.13767 -0.7113,-2.58621 -30.0126,-4.27589 -29.6799,-6.93741 0.3327,-2.66151 29.1484,2.91269 30.4743,0.58107 1.3258,-2.33162 -18.1985,-24.24552 -16.0813,-25.89227 2.1172,-1.64675 18.5514,22.67061 21.1377,21.95943 2.5861,-0.71118 4.2758,-30.01244 6.9374,-29.6798 2.6615,0.33267 -2.9127,29.14841 -0.5811,30.47426 2.3316,1.32584 24.2455,-18.19849 25.8923,-16.0813 1.6467,2.1172 -22.6707,18.55146 -21.9595,21.13768 0.7112,2.58621 30.0125,4.27589 29.6798,6.9374 -0.3326,2.66151 -29.1484,-2.91268 -30.4742,-0.58106 -1.3259,2.33161 18.1985,24.24551 16.0812,25.89227 -2.1172,1.64675 -18.5514,-22.67062 -21.1376,-21.95943 -2.5862,0.71118 -4.2759,30.01245 -6.9374,29.67979 z"
     transform="matrix(1.8164267,0,0,1.8164267,-1017.6144,-22.64983)" /></svg>
