<?xml version="1.0" encoding="UTF-8" standalone="no"?>
<!-- Created with Inkscape (http://www.inkscape.org/) -->

<svg
   version="1.1"
   id="svg55"
   width="60.901535"
   height="76.341156"
   viewBox="0 0 60.901535 76.341157"
   sodipodi:docname="jl-site-logo-favicon.svg"
   inkscape:version="1.2.2 (b0a8486541, 2022-12-01)"
   xmlns:inkscape="http://www.inkscape.org/namespaces/inkscape"
   xmlns:sodipodi="http://sodipodi.sourceforge.net/DTD/sodipodi-0.dtd"
   xmlns:xlink="http://www.w3.org/1999/xlink"
   xmlns="http://www.w3.org/2000/svg"
   xmlns:svg="http://www.w3.org/2000/svg">
  <sodipodi:namedview
     id="namedview130"
     pagecolor="#505050"
     bordercolor="#ffffff"
     borderopacity="1"
     inkscape:showpageshadow="0"
     inkscape:pageopacity="0"
     inkscape:pagecheckerboard="1"
     inkscape:deskcolor="#505050"
     showgrid="false"
     inkscape:zoom="0.61814401"
     inkscape:cx="-104.34462"
     inkscape:cy="-42.870269"
     inkscape:window-width="1366"
     inkscape:window-height="722"
     inkscape:window-x="0"
     inkscape:window-y="0"
     inkscape:window-maximized="1"
     inkscape:current-layer="svg55" />
  <defs
     id="defs59">
    <linearGradient
       id="Rainbowie-2">
      <stop
         style="stop-color:#000000;stop-opacity:0;"
         offset="0"
         id="stop12632" />
      <stop
         style="stop-color:#442204;stop-opacity:0.22;"
         offset="0.1"
         id="stop12634" />
      <stop
         style="stop-color:#69190d;stop-opacity:0.44;"
         offset="0.22"
         id="stop12636" />
      <stop
         style="stop-color:#a52c16;stop-opacity:0.66000003;"
         offset="0.33000001"
         id="stop12638" />
      <stop
         style="stop-color:#eb7513;stop-opacity:0.88;"
         offset="0.44"
         id="stop12640" />
      <stop
         style="stop-color:#f2c62a;stop-opacity:1;"
         offset="0.55000001"
         id="stop12642" />
      <stop
         style="stop-color:#5e9a0e;stop-opacity:0.88;"
         offset="0.66000003"
         id="stop12644" />
      <stop
         style="stop-color:#07692e;stop-opacity:0.66000003;"
         offset="0.76999998"
         id="stop12646" />
      <stop
         style="stop-color:#073720;stop-opacity:0.44;"
         offset="0.88440341"
         id="stop12648" />
      <stop
         style="stop-color:#442204;stop-opacity:0.21960784;"
         offset="0.94160509"
         id="stop12650" />
      <stop
         style="stop-color:#000000;stop-opacity:0;"
         offset="0.99880683"
         id="stop12652" />
    </linearGradient>
    <linearGradient
       id="Rainbowie-1">
      <stop
         style="stop-color:#000000;stop-opacity:0;"
         offset="0"
         id="stop12609" />
      <stop
         style="stop-color:#442204;stop-opacity:0.22;"
         offset="0.1"
         id="stop12611" />
      <stop
         style="stop-color:#69190d;stop-opacity:0.44;"
         offset="0.22"
         id="stop12613" />
      <stop
         style="stop-color:#a52c16;stop-opacity:0.66000003;"
         offset="0.33000001"
         id="stop12615" />
      <stop
         style="stop-color:#eb7513;stop-opacity:0.88;"
         offset="0.44"
         id="stop12617" />
      <stop
         style="stop-color:#f2c62a;stop-opacity:1;"
         offset="0.55000001"
         id="stop12619" />
      <stop
         style="stop-color:#5e9a0e;stop-opacity:0.88;"
         offset="0.66000003"
         id="stop12621" />
      <stop
         style="stop-color:#07692e;stop-opacity:0.66000003;"
         offset="0.76999998"
         id="stop12623" />
      <stop
         style="stop-color:#073720;stop-opacity:0.44;"
         offset="0.88440341"
         id="stop12625" />
      <stop
         style="stop-color:#442204;stop-opacity:0.21960784;"
         offset="0.94160509"
         id="stop12627" />
      <stop
         style="stop-color:#000000;stop-opacity:0;"
         offset="0.99880683"
         id="stop12629" />
    </linearGradient>
    <linearGradient
       id="linearGradient5077">
      <stop
         style="stop-color:#35031a;stop-opacity:1;"
         offset="0"
         id="stop5065" />
      <stop
         style="stop-color:#9f260a;stop-opacity:1;"
         offset="0.22"
         id="stop5067" />
      <stop
         style="stop-color:#d37a0d;stop-opacity:1;"
         offset="0.44"
         id="stop5069" />
      <stop
         style="stop-color:#076909;stop-opacity:1;"
         offset="0.76999998"
         id="stop5071" />
      <stop
         style="stop-color:#07466a;stop-opacity:1;"
         offset="0.88"
         id="stop5073" />
      <stop
         style="stop-color:#35031a;stop-opacity:1"
         offset="1"
         id="stop5075" />
    </linearGradient>
    <linearGradient
       id="linearGradient4931-5">
      <stop
         style="stop-color:#35031a;stop-opacity:1;"
         offset="0"
         id="stop5036" />
      <stop
         style="stop-color:#9f260a;stop-opacity:1;"
         offset="0.22"
         id="stop5038" />
      <stop
         style="stop-color:#d37a0d;stop-opacity:1;"
         offset="0.44"
         id="stop5040" />
      <stop
         style="stop-color:#076909;stop-opacity:1;"
         offset="0.76999998"
         id="stop5042" />
      <stop
         style="stop-color:#07466a;stop-opacity:1;"
         offset="0.88"
         id="stop5044" />
      <stop
         style="stop-color:#35031a;stop-opacity:1;"
         offset="1"
         id="stop5046" />
    </linearGradient>
    <linearGradient
       id="linearGradient4931-3">
      <stop
         style="stop-color:#35031a;stop-opacity:1;"
         offset="0"
         id="stop5023" />
      <stop
         style="stop-color:#9f260a;stop-opacity:1;"
         offset="0.22"
         id="stop5025" />
      <stop
         style="stop-color:#d37a0d;stop-opacity:1;"
         offset="0.44"
         id="stop5027" />
      <stop
         style="stop-color:#076909;stop-opacity:1;"
         offset="0.76999998"
         id="stop5029" />
      <stop
         style="stop-color:#07466a;stop-opacity:1;"
         offset="0.88"
         id="stop5031" />
      <stop
         style="stop-color:#35031a;stop-opacity:1;"
         offset="1"
         id="stop5033" />
    </linearGradient>
    <linearGradient
       id="linearGradient4931-6">
      <stop
         style="stop-color:#35031a;stop-opacity:1;"
         offset="0"
         id="stop4984" />
      <stop
         style="stop-color:#9f260a;stop-opacity:1;"
         offset="0.22"
         id="stop4986" />
      <stop
         style="stop-color:#d37a0d;stop-opacity:1;"
         offset="0.44"
         id="stop4988" />
      <stop
         style="stop-color:#076909;stop-opacity:1;"
         offset="0.76999998"
         id="stop4990" />
      <stop
         style="stop-color:#07466a;stop-opacity:1;"
         offset="0.88"
         id="stop4992" />
      <stop
         style="stop-color:#35031a;stop-opacity:1;"
         offset="1"
         id="stop4994" />
    </linearGradient>
    <linearGradient
       id="linearGradient4931-2">
      <stop
         style="stop-color:#35031a;stop-opacity:1;"
         offset="0"
         id="stop4971" />
      <stop
         style="stop-color:#9f260a;stop-opacity:1;"
         offset="0.22"
         id="stop4973" />
      <stop
         style="stop-color:#d37a0d;stop-opacity:1;"
         offset="0.44"
         id="stop4975" />
      <stop
         style="stop-color:#076909;stop-opacity:1;"
         offset="0.76999998"
         id="stop4977" />
      <stop
         style="stop-color:#07466a;stop-opacity:1;"
         offset="0.88"
         id="stop4979" />
      <stop
         style="stop-color:#35031a;stop-opacity:1;"
         offset="1"
         id="stop4981" />
    </linearGradient>
    <linearGradient
       id="linearGradient4931-1">
      <stop
         style="stop-color:#35031a;stop-opacity:1;"
         offset="0"
         id="stop4958" />
      <stop
         style="stop-color:#9f260a;stop-opacity:1;"
         offset="0.22"
         id="stop4960" />
      <stop
         style="stop-color:#d37a0d;stop-opacity:1;"
         offset="0.44"
         id="stop4962" />
      <stop
         style="stop-color:#076909;stop-opacity:1;"
         offset="0.76999998"
         id="stop4964" />
      <stop
         style="stop-color:#07466a;stop-opacity:1;"
         offset="0.88"
         id="stop4966" />
      <stop
         style="stop-color:#35031a;stop-opacity:1;"
         offset="1"
         id="stop4968" />
    </linearGradient>
    <linearGradient
       id="linearGradient4931">
      <stop
         style="stop-color:#35031a;stop-opacity:1;"
         offset="0"
         id="stop4945" />
      <stop
         style="stop-color:#9f260a;stop-opacity:1;"
         offset="0.22"
         id="stop4947" />
      <stop
         style="stop-color:#d37a0d;stop-opacity:1;"
         offset="0.44"
         id="stop4949" />
      <stop
         style="stop-color:#076909;stop-opacity:1;"
         offset="0.76999998"
         id="stop4951" />
      <stop
         style="stop-color:#07466a;stop-opacity:1;"
         offset="0.88"
         id="stop4953" />
      <stop
         style="stop-color:#35031a;stop-opacity:1;"
         offset="1"
         id="stop4955" />
    </linearGradient>
    <linearGradient
       id="linearGradient4931-4">
      <stop
         style="stop-color:#35031a;stop-opacity:1;"
         offset="0"
         id="stop4927" />
      <stop
         style="stop-color:#9f260a;stop-opacity:1;"
         offset="0.22"
         id="stop4935" />
      <stop
         style="stop-color:#d37a0d;stop-opacity:1;"
         offset="0.44"
         id="stop4937" />
      <stop
         style="stop-color:#076909;stop-opacity:1;"
         offset="0.76999998"
         id="stop4941" />
      <stop
         style="stop-color:#07466a;stop-opacity:1;"
         offset="0.88"
         id="stop4943" />
      <stop
         style="stop-color:#35031a;stop-opacity:1;"
         offset="1"
         id="stop4929" />
    </linearGradient>
    <linearGradient
       id="linearGradient4914">
      <stop
         style="stop-color:#000000;stop-opacity:1;"
         offset="0"
         id="stop4918" />
      <stop
         style="stop-color:#000000;stop-opacity:0;"
         offset="1"
         id="stop4920" />
    </linearGradient>
    <linearGradient
       id="linearGradient4914-1">
      <stop
         style="stop-color:#000000;stop-opacity:1;"
         offset="0"
         id="stop4910" />
      <stop
         style="stop-color:#000000;stop-opacity:0;"
         offset="1"
         id="stop4912" />
    </linearGradient>
    <linearGradient
       id="linearGradient4817">
      <stop
         style="stop-color:#000000;stop-opacity:1;"
         offset="0"
         id="stop4813" />
      <stop
         style="stop-color:#000000;stop-opacity:0;"
         offset="1"
         id="stop4815" />
    </linearGradient>
    <linearGradient
       id="linearGradient4807">
      <stop
         style="stop-color:#000000;stop-opacity:1;"
         offset="0"
         id="stop4803" />
      <stop
         style="stop-color:#000000;stop-opacity:0;"
         offset="1"
         id="stop4805" />
    </linearGradient>
    <linearGradient
       id="Rainbowie">
      <stop
         style="stop-color:#35031a;stop-opacity:1;"
         offset="0.11"
         id="stop4760" />
      <stop
         style="stop-color:#6a1907;stop-opacity:1;"
         offset="0.22"
         id="stop4762" />
      <stop
         style="stop-color:#d3560d;stop-opacity:1;"
         offset="0.44"
         id="stop4764" />
      <stop
         style="stop-color:#d29e0e;stop-opacity:1;"
         offset="0.55000001"
         id="stop4766" />
      <stop
         style="stop-color:#07692e;stop-opacity:1;"
         offset="0.88"
         id="stop4768" />
      <stop
         style="stop-color:#076769;stop-opacity:1;"
         offset="0.99880683"
         id="stop4770" />
    </linearGradient>
    <linearGradient
       id="Rainbowie-3">
      <stop
         style="stop-color:#000000;stop-opacity:0;"
         offset="0"
         id="stop4740" />
      <stop
         style="stop-color:#442204;stop-opacity:0.22;"
         offset="0.1"
         id="stop4754" />
      <stop
         style="stop-color:#69190d;stop-opacity:0.44;"
         offset="0.22"
         id="stop4748" />
      <stop
         style="stop-color:#a52c16;stop-opacity:0.66000003;"
         offset="0.33000001"
         id="stop4752" />
      <stop
         style="stop-color:#eb7513;stop-opacity:0.88;"
         offset="0.44"
         id="stop9687" />
      <stop
         style="stop-color:#f2c62a;stop-opacity:1;"
         offset="0.55000001"
         id="stop10417" />
      <stop
         style="stop-color:#5e9a0e;stop-opacity:0.88;"
         offset="0.66000003"
         id="stop11147" />
      <stop
         style="stop-color:#07692e;stop-opacity:0.66000003;"
         offset="0.76999998"
         id="stop4750" />
      <stop
         style="stop-color:#073720;stop-opacity:0.44;"
         offset="0.88440341"
         id="stop11149" />
      <stop
         style="stop-color:#442204;stop-opacity:0.21960784;"
         offset="0.94160509"
         id="stop11879" />
      <stop
         style="stop-color:#000000;stop-opacity:0;"
         offset="0.99880683"
         id="stop4742" />
    </linearGradient>
    <linearGradient
       xlink:href="#linearGradient4931-6"
       id="linearGradient5021"
       x1="150.16481"
       y1="468.45493"
       x2="240.06136"
       y2="600.76404"
       gradientUnits="userSpaceOnUse" />
    <linearGradient
       xlink:href="#Rainbowie-1"
       id="linearGradient5055"
       x1="673.78912"
       y1="67.176918"
       x2="440.46896"
       y2="549.38538"
       gradientUnits="userSpaceOnUse"
       gradientTransform="matrix(0.37261481,0,0,0.37261481,-46.25577,-17.860034)" />
    <linearGradient
       xlink:href="#linearGradient5077"
       id="linearGradient5063"
       x1="272.62979"
       y1="233.06071"
       x2="602.46735"
       y2="389.97263"
       gradientUnits="userSpaceOnUse" />
    <linearGradient
       xlink:href="#Rainbowie-3"
       id="linearGradient5085"
       x1="240.41537"
       y1="575.26831"
       x2="740.96198"
       y2="169.36858"
       gradientUnits="userSpaceOnUse"
       gradientTransform="matrix(0.37261481,0,0,0.37261481,-46.25577,-17.860034)" />
    <linearGradient
       xlink:href="#Rainbowie-2"
       id="linearGradient5093"
       x1="203.44667"
       y1="318.94632"
       x2="563.63208"
       y2="842.80829"
       gradientUnits="userSpaceOnUse"
       gradientTransform="matrix(0.09182462,0,0,0.09182462,-10.764735,-3.769187)" />
  </defs>
  <path
     id="path370"
     style="fill:#e8e2da;fill-opacity:1;stroke:url(#linearGradient5093);stroke-width:2;stroke-linejoin:round;stroke-dasharray:none;paint-order:stroke markers fill"
     inkscape:label="jl-kruger-logo"
     d="m 16.192962,25.115203 c -0.0798,-0.002 -0.15999,-1.9e-4 -0.2405,0.007 -0.77286,0.0673 -1.56954,0.56895 -2.17349,1.50237 -1.61052,2.48912 0.60027,8.05008 0.60027,8.05008 0,0 -3.52963,5.66843 -4.5469301,6.8178 -1.017299,1.14937 -5.020849,6.61445 -1.720994,11.07652 3.2998541,4.46207 8.7047341,1.96141 10.2692941,-2.12559 1.56456,-4.08701 -3.09287,-7.31845 -4.48954,-5.2089 -1.39668,2.10955 -0.58789,2.63189 -0.58789,2.63189 0,0 0.70201,-2.22566 1.90303,-1.78628 1.20101,0.43938 1.11621,2.42911 0.64259,3.92892 -0.47363,1.4998 -4.21942,3.7366 -5.46267,0.51525 -1.2432521,-3.22134 2.1455,-7.5876 3.20274,-8.74019 1.05725,-1.1526 2.07413,-3.87601 2.07413,-3.87601 0,0 1.08439,6.04989 7.59472,9.64123 1.95799,1.0801 3.52188,2.19129 4.78438,3.26533 -0.65278,0.65713 -1.18636,1.42191 -1.5994,2.25993 -1.66941,-1.09612 -8.16904,-0.67226 -9.10427,5.2523 -0.60438,3.8287 0.97201,7.0723 3.46082,8.77857 0.14796,1.19384 0.7891,1.89817 1.34383,1.81479 0.96807,-0.1455 1.06262,-0.71827 1.06262,-0.71827 0,0 -0.0197,-0.0152 -0.0233,-0.0176 0.97182,0.2415 2.00396,0.27911 3.04994,0.0805 0.0347,0.4209 0.14568,0.94113 0.36425,1.57698 1.1438,3.32759 9.71072,6.00066 12.86513,-0.7658 0.49044,-1.05204 0.75921,-2.06001 0.84113,-3.01407 0.0586,-0.0371 0.11372,-0.074 0.16141,-0.11048 1.69409,-1.29526 -0.10743,-2.5024 -0.10743,-2.5024 0,0 -0.12159,0.0238 -0.30076,0.0561 -0.24787,-0.8594 -0.65608,-1.6525 -1.19157,-2.36843 0.7419,-0.2363 1.55608,-1.22128 1.91864,-3.84929 0.74045,-5.36732 -3.19841,-10.21969 -9.0745,-8.59833 -0.62087,0.17132 -1.19657,0.40663 -1.73104,0.69155 -2.11603,-1.95419 -4.52705,-3.71255 -6.39418,-4.83549 -4.03201,-2.42497 -7.21308,-8.36752 -7.21308,-8.36752 0,0 2.49397,-4.05561 2.24683,-7.75865 -0.1448,-2.16974 -1.228,-3.26739 -2.4242,-3.30371 z m -0.53284,1.5083 c 0.77633,-0.0173 1.46626,1.48264 1.37917,2.8132 -0.10719,1.63762 -1.56389,3.73127 -1.56389,3.73127 0,0 -0.73864,-1.85926 -0.95985,-2.79903 -0.22122,-0.93978 -0.35756,-2.47678 0.6017,-3.4705 0.17986,-0.18633 0.36372,-0.27095 0.54287,-0.27494 z m -9.6026611,11.61079 c -0.485848,0.005 -0.833136,0.31428 -0.869288,0.75845 -0.06427,0.78965 0.504321,1.43817 0.504321,1.43817 0,0 -0.162506,-0.22498 -0.894575,0.006 -0.732066,0.23125 -0.886072,1.40632 -0.255206,2.27266 0.630864,0.86633 2.367993,0.26975 2.803877,-0.0266 0.435888,-0.29629 1.560212,-0.54007 1.553129,-1.06764 -0.0071,-0.52757 -0.497861,-0.38416 -0.497861,-0.38416 0,0 0.02164,-1.36045 -1.040199,-2.37614 -0.464549,-0.44436 -0.92632,-0.62483 -1.304198,-0.62107 z m 0.346852,0.73926 c 0.04068,2.4e-4 0.08526,0.006 0.133971,0.0159 1.039075,0.22217 1.140633,2.54186 1.140633,2.54186 0,0 -1.961502,1.07788 -2.381877,0.20607 -0.42038,-0.87182 1.054364,-0.81154 1.054364,-0.81154 0,0 -0.774197,-1.96089 0.05291,-1.95235 z m -2.846741,4.65347 c -0.165652,-1.4e-4 -0.333412,0.0263 -0.500732,0.0812 -1.070856,0.35185 -1.110647,1.05652 -0.994646,1.5291 0.115998,0.47258 0.445489,0.68151 0.445489,0.68151 0,0 -1.157314,0.0171 -1.404986,0.88812 -0.24766999,0.87105 -0.08192,1.83399 1.011866,2.2133 1.093781,0.37931 3.468514,-1.57657 3.832237,-1.41468 0.363731,0.1619 0.415548,-0.2796 0.415548,-0.2796 0,0 0.150842,-0.18579 -0.01883,-0.43634 -0.16968,-0.25055 -0.301805,0.24865 -0.713077,-1.23425 -0.347015,-1.25121 -1.178349,-2.02766 -2.072867,-2.02839 z m 0.06456,0.95195 c 0.127497,-0.003 0.282725,0.0214 0.471855,0.0725 0.756525,0.20453 1.063515,2.24755 1.063515,2.24755 0,0 -0.68123,0.20932 -1.451077,0.9986 -0.76985,0.78927 -1.85282,0.12552 -1.887427,-0.60009 -0.03461,-0.72561 1.550617,-0.88651 1.550617,-0.88651 0,0 -0.380816,-0.33463 -0.313498,-1.03786 0.05049,-0.52743 0.183519,-0.78475 0.566015,-0.79415 z m 32.6067101,1.91792 a 0.26112278,0.26112278 0 0 0 -0.26112,0.26113 0.26112278,0.26112278 0 0 0 0.26112,0.26112 0.26112278,0.26112278 0 0 0 0.26113,-0.26112 0.26112278,0.26112278 0 0 0 -0.26113,-0.26113 z m 2.15052,1.09921 a 0.30377111,0.30377111 0 0 0 -0.3038,0.30381 0.30377111,0.30377111 0 0 0 0.3038,0.30381 0.30377111,0.30377111 0 0 0 0.30364,-0.30381 0.30377111,0.30377111 0 0 0 -0.30364,-0.30381 z m 1.92097,1.62432 a 0.37648571,0.37648571 0 0 0 -0.37662,0.37663 0.37648571,0.37648571 0 0 0 0.37662,0.37645 0.37648571,0.37648571 0 0 0 0.37645,-0.37645 0.37648571,0.37648571 0 0 0 -0.37645,-0.37663 z m -7.21792,0.9091 c 2.61329,-0.0395 4.02292,2.4386 4.94221,4.56272 0.96241,2.22373 -0.005,4.03001 -0.44818,5.0665 -0.77713,-0.67634 -1.67878,-1.24825 -2.65915,-1.69661 0.0179,-0.60189 -0.0127,-1.1941 -0.10115,-1.76368 -0.27371,-1.76245 -1.73791,-3.80738 -3.63102,-5.74818 0.69461,-0.27985 1.32544,-0.41209 1.89729,-0.42075 z m -8.89246,0.83037 a 0.37123146,0.37123146 0 0 0 -0.37125,0.37125 0.37123146,0.37123146 0 0 0 0.37125,0.37124 0.37123146,0.37123146 0 0 0 0.37124,-0.37124 0.37123146,0.37123146 0 0 0 -0.37124,-0.37125 z m 1.61357,0.24409 a 0.38356983,0.38356983 0 0 0 -0.38344,0.38362 0.38356983,0.38356983 0 0 0 0.38344,0.38344 0.38356983,0.38356983 0 0 0 0.38362,-0.38344 0.38356983,0.38356983 0 0 0 -0.38362,-0.38362 z m -3.42747,0.26741 a 0.32928682,0.32928682 0 0 0 -0.32927,0.32927 0.32928682,0.32928682 0 0 0 0.32927,0.32928 0.32928682,0.32928682 0 0 0 0.32928,-0.32928 0.32928682,0.32928682 0 0 0 -0.32928,-0.32927 z m 19.18687,0.1727 a 0.30431268,0.30431268 0 0 0 -0.30435,0.30435 0.30431268,0.30431268 0 0 0 0.30435,0.30435 0.30431268,0.30431268 0 0 0 0.30434,-0.30435 0.30431268,0.30431268 0 0 0 -0.30434,-0.30435 z m -12.46502,0.12519 c 2.19683,2.11577 3.23928,3.9922 3.78185,5.0482 0.086,0.16737 0.17714,0.37181 0.26669,0.59327 -0.8725,-0.25083 -1.77657,-0.41436 -2.68515,-0.47706 -1.71215,-0.11815 -3.03772,0.11836 -4.09517,0.5861 0.0418,-2.12186 0.90924,-4.27375 2.73178,-5.75051 z m -8.71186,0.64689 a 0.34856183,0.34158526 0 0 0 -0.34847,0.34148 0.34856183,0.34158526 0 0 0 0.34847,0.34165 0.34856183,0.34158526 0 0 0 0.34865,-0.34165 0.34856183,0.34158526 0 0 0 -0.34865,-0.34148 z m -1.63365,1.26761 a 0.32683097,0.32683097 0 0 0 -0.32677,0.32677 0.32683097,0.32683097 0 0 0 0.32677,0.32695 0.32683097,0.32683097 0 0 0 0.32695,-0.32695 0.32683097,0.32683097 0 0 0 -0.32695,-0.32677 z m 23.3448,0.10779 a 0.31557846,0.31557846 0 0 0 -0.31565,0.31546 0.31557846,0.31557846 0 0 0 0.31565,0.31565 0.31557846,0.31557846 0 0 0 0.31547,-0.31565 0.31557846,0.31557846 0 0 0 -0.31547,-0.31546 z m -16.34909,1.17884 c -0.24514,0.97391 -0.34908,2.00508 -0.30507,3.058 -2.05303,1.37492 -2.89596,3.75954 -3.90954,5.71268 -0.25739,0.49599 -0.43446,0.96735 -0.55758,1.41359 -0.84567,-1.11548 -1.26868,-2.57688 -1.41557,-3.95581 -0.29233,-2.74428 4.09108,-4.68373 6.18776,-6.22846 z m -8.57036,0.30237 a 0.31601352,0.31601352 0 0 0 -0.316,0.316 0.31601352,0.31601352 0 0 0 0.316,0.31601 0.31601352,0.31601352 0 0 0 0.31601,-0.31601 0.31601352,0.31601352 0 0 0 -0.31601,-0.316 z m 25.21823,0.51562 a 0.36745682,0.36745682 0 0 0 -0.36747,0.36747 0.36745682,0.36745682 0 0 0 0.36747,0.36748 0.36745682,0.36745682 0 0 0 0.36748,-0.36748 0.36745682,0.36745682 0 0 0 -0.36748,-0.36747 z m -26.72509,1.7 a 0.38916876,0.38916876 0 0 0 -0.38917,0.38918 0.38916876,0.38916876 0 0 0 0.38917,0.38919 0.38916876,0.38916876 0 0 0 0.38919,-0.38919 0.38916876,0.38916876 0 0 0 -0.38919,-0.38918 z m 15.82254,0.12519 c 0.41288,0.009 0.83232,0.0756 1.25523,0.21055 0.20888,0.0666 0.41907,0.14844 0.62932,0.23709 0.52076,1.72053 0.64261,4.31346 -1.84617,6.41804 -1.00627,-0.17127 -1.99087,-0.55759 -2.83922,-1.29469 -0.93285,-0.81054 -1.60223,-1.91318 -1.97745,-3.13871 1.30417,-1.39724 2.97919,-2.46972 4.77829,-2.43228 z m 10.68286,0.38917 a 0.32612762,0.32612762 0 0 0 -0.32605,0.32606 0.32612762,0.32612762 0 0 0 0.32605,0.32623 0.32612762,0.32612762 0 0 0 0.32623,-0.32623 0.32612762,0.32612762 0 0 0 -0.32623,-0.32606 z m -7.31459,0.85243 c 1.77043,1.15751 3.35497,2.95057 4.05176,4.81542 -0.32408,0.0352 -0.63901,0.0595 -0.86749,0.0409 -0.48778,-0.0397 -3.08061,1.03592 -5.72666,0.8596 1.52435,-1.73988 2.32769,-3.75866 2.54239,-5.71591 z m 6.79359,0.98873 a 0.29168495,0.29168495 0 0 0 -0.29161,0.2918 0.29168495,0.29168495 0 0 0 0.29161,0.29161 0.29168495,0.29168495 0 0 0 0.29179,-0.29161 0.29168495,0.29168495 0 0 0 -0.29179,-0.2918 z m -26.38182,0.20248 a 0.3211998,0.3211998 0 0 0 -0.32121,0.32121 0.3211998,0.3211998 0 0 0 0.32121,0.32121 0.3211998,0.3211998 0 0 0 0.3212,-0.32121 0.3211998,0.3211998 0 0 0 -0.3212,-0.32121 z m 10.67246,0.9152 c 0.23178,0.76004 0.54289,1.51404 0.9369,2.24863 0.62566,1.16649 1.47795,2.02387 2.45146,2.64533 -0.20973,0.0987 -0.42663,0.19535 -0.6555,0.28893 -2.19213,0.89629 -3.89045,1.03756 -5.19814,0.70088 0.29662,0.002 0.51955,-0.0554 0.56888,-1.66199 0.0318,-1.03466 0.74935,-2.70973 1.8964,-4.22178 z m 14.71238,0.1311 a 0.35629661,0.35629661 0 0 0 -0.35636,0.35618 0.35629661,0.35629661 0 0 0 0.35636,0.35636 0.35629661,0.35629661 0 0 0 0.35636,-0.35636 0.35629661,0.35629661 0 0 0 -0.35636,-0.35618 z m -25.31149,1.42221 a 0.33271084,0.33271084 0 0 0 -0.33269,0.33268 0.33271084,0.33271084 0 0 0 0.33269,0.33268 0.33271084,0.33271084 0 0 0 0.33268,-0.33268 0.33271084,0.33271084 0 0 0 -0.33268,-0.33268 z m 14.95468,3.86524 c 3.01933,1.37554 6.78621,0.91189 8.87219,0.18652 -0.24876,1.04721 -0.92436,2.01916 -2.18065,2.80029 -4.93493,3.06844 -8.10174,-0.26274 -9.0146,-1.65858 0.86519,-0.38758 1.63261,-0.83724 2.32306,-1.32823 z m -5.57673,2.56679 a 0.39954798,0.40903716 0 0 0 -0.39958,0.40908 0.39954798,0.40903716 0 0 0 0.39958,0.40909 0.39954798,0.40903716 0 0 0 0.39958,-0.40909 0.39954798,0.40903716 0 0 0 -0.39958,-0.40908 z m 0.59076,1.54182 a 0.37720379,0.37720379 0 0 0 -0.37716,0.37734 0.37720379,0.37720379 0 0 0 0.37716,0.37717 0.37720379,0.37720379 0 0 0 0.37734,-0.37717 0.37720379,0.37720379 0 0 0 -0.37734,-0.37734 z m 1.33702,1.41558 a 0.31483273,0.31483273 0 0 0 -0.31493,0.31474 0.31483273,0.31483273 0 0 0 0.31493,0.31494 0.31483273,0.31483273 0 0 0 0.31475,-0.31494 0.31483273,0.31483273 0 0 0 -0.31475,-0.31474 z m 13.03999,0.62035 a 0.30443875,0.30443875 0 0 0 -0.30453,0.30452 0.30443875,0.30443875 0 0 0 0.30453,0.30435 0.30443875,0.30443875 0 0 0 0.30435,-0.30435 0.30443875,0.30443875 0 0 0 -0.30435,-0.30452 z m -11.28313,0.507 a 0.38740543,0.38740543 0 0 0 -0.38757,0.38739 0.38740543,0.38740543 0 0 0 0.38757,0.38739 0.38740543,0.38740543 0 0 0 0.38738,-0.38739 0.38740543,0.38740543 0 0 0 -0.38738,-0.38739 z m 9.18408,0.69945 a 0.39231396,0.39231396 0 0 0 -0.39241,0.39241 0.39231396,0.39231396 0 0 0 0.39241,0.39222 0.39231396,0.39231396 0 0 0 0.39222,-0.39222 0.39231396,0.39231396 0 0 0 -0.39222,-0.39241 z m -7.23711,0.25575 a 0.32722713,0.32722713 0 0 0 -0.32713,0.32712 0.32722713,0.32722713 0 0 0 0.32713,0.32731 0.32722713,0.32722713 0 0 0 0.3273,-0.32731 0.32722713,0.32722713 0 0 0 -0.3273,-0.32712 z m 2.11824,0.61282 a 0.31522015,0.31522015 0 0 0 -0.31529,0.3151 0.31522015,0.31522015 0 0 0 0.31529,0.3153 0.31522015,0.31522015 0 0 0 0.31511,-0.3153 0.31522015,0.31522015 0 0 0 -0.31511,-0.3151 z m 2.73484,0.0194 a 0.36105082,0.36105082 0 0 0 -0.36103,0.36102 0.36105082,0.36105082 0 0 0 0.36103,0.36102 0.36105082,0.36105082 0 0 0 0.36101,-0.36102 0.36105082,0.36105082 0 0 0 -0.36101,-0.36102 z m 22.22488,-43.57419 c 0,0 0.12335,0.57332 0.32961,0.70992 0.20624,0.13661 -0.0331,0.51855 -0.41726,0.4021 -0.3842,-0.11644 -0.54048,-0.71506 -0.40951,-0.89227 0.13096,-0.17721 0.49716,-0.21975 0.49716,-0.21975 z m 0.42893,-2.06679 c 0,0 0.36923,0.93736 0.79596,1.14712 0.42673,0.20976 0.0579,0.87443 -0.37011,0.71591 -0.42804,-0.15852 -0.91363,-1.16474 -0.86584,-1.59627 0.0478,-0.43152 0.43999,-0.26676 0.43999,-0.26676 z m -0.36062,-2.71738 c 0,0 0.21254,0.5884 1.48168,0.93117 1.26913,0.34277 0.80285,1.49789 -0.20866,1.25865 -1.01152,-0.23923 -1.67622,-1.63491 -1.6616,-1.93539 0.0146,-0.30048 0.38858,-0.25443 0.38858,-0.25443 z m -1.22309,-2.42469 c 0,0 0.65356,0.75819 2.48535,0.37363 1.83179,-0.38456 1.17276,1.78548 0.002,1.61132 -1.17038,-0.17415 -2.9207,-1.39434 -2.88926,-1.70011 0.0315,-0.30578 0.40152,-0.28484 0.40152,-0.28484 z m -1.98698,-1.29142 c 0,0 2.19874,-0.4453 2.94927,-2.20666 0.75052,-1.76136 3.16487,-0.65128 1.86454,1.2424 -1.30034,1.89368 -4.28886,1.68197 -4.73542,1.37136 -0.44655,-0.31061 -0.0784,-0.4071 -0.0784,-0.4071 z m -2.02496,-1.34697 c 0,0 0.93715,-0.38374 1.51154,-2.93334 0.57439,-2.5496 -0.49848,-3.06722 1.26534,-3.03082 1.76382,0.0364 2.14077,2.36059 0.8908,4.54655 -1.24998,2.18596 -2.84258,2.36524 -3.52617,1.89359 -0.68361,-0.47165 -0.14151,-0.47598 -0.14151,-0.47598 z m -2.73678,-0.38117 c 0,0 0.96962,-0.99242 0.96923,-3.96463 -2.5e-4,-2.97221 -0.90428,-2.06099 -0.55027,-2.8307 0.35401,-0.76972 1.83512,-1.50935 2.59654,0.226 0.76142,1.73536 0.26813,4.35658 -0.61695,5.32418 -0.88507,0.96761 -1.34814,1.85469 -1.96007,1.79041 -0.61194,-0.0643 -0.43848,-0.54526 -0.43848,-0.54526 z m -29.94492,13.44988 c 0,0 -0.99935,0.96306 0.43608,4.42871 1.43542,3.46566 6.98255,5.63809 8.04584,6.903 1.06328,1.26492 1.32744,2.30046 1.80851,2.33315 0.48108,0.0327 0.45236,-1.42147 3.08018,-2.8447 2.62781,-1.42322 10.25436,-1.67698 17.27478,-5.70851 7.02041,-4.03152 8.11196,-14.0874 3.08093,-16.12817 -5.03102,-2.04076 -7.42952,2.13813 -7.02391,3.95003 0.40561,1.8119 1.30335,2.25671 1.9727,1.30137 0.66935,-0.95534 -1.36606,-2.44606 2.00586,-3.61293 3.37193,-1.16687 4.6141,2.87523 3.6368,5.68391 -0.9773,2.80866 -3.49291,5.26246 -7.43759,6.90299 -3.94468,1.64053 -12.20567,2.92474 -14.10905,4.78562 -1.90337,1.86087 -1.60656,2.47089 -1.90337,2.48089 -0.2968,0.01 -0.51073,-2.28356 -4.12781,-3.89492 -3.61707,-1.61136 -5.25958,-3.24515 -5.8888,-4.3805 -0.62921,-1.13536 -0.85115,-2.19994 -0.85115,-2.19994 z m 1.70197,-3.51165 c 0,0 -0.53201,-0.61702 -0.57879,1.85401 -0.0468,2.47103 2.99716,4.87019 5.5282,5.85052 2.53103,0.98034 3.78361,2.17663 3.83034,3.11384 0.0467,0.93721 1.23523,0.58221 1.21953,-0.10117 -0.0157,-0.68338 -4.61288,-5.85561 0.60892,-9.79293 5.22181,-3.93733 7.44441,-3.35741 12.15391,-6.05602 4.7095,-2.69861 5.79579,-9.33743 3.61591,-10.73098 -2.17988,-1.39354 -4.0728,-0.0386 -3.36984,0.55338 0.70295,0.59194 2.18568,-0.0726 1.61959,2.25146 -0.56608,2.32402 -3.05548,5.20315 -9.48826,7.77817 -6.43278,2.57504 -7.64415,4.87581 -8.06502,5.65591 -0.42089,0.7801 -0.58372,1.47122 -0.58372,1.47122 0,0 -2.19949,-9.33091 -6.28481,-11.51765 -4.08533,-2.18673 -7.40358,2.88691 -7.0894,3.38286 0.31419,0.49595 1.5385,-2.44158 5.12978,-1.63561 3.59127,0.80597 3.78636,5.94283 4.41729,8.54316 0.63093,2.60035 1.54263,3.72499 1.54263,3.72499 0,0 -3.74102,-1.20206 -4.20796,-2.86663 -0.46695,-1.66457 0.002,-1.47853 0.002,-1.47853 z m 26.88585,-27.95537 c 0,0 1.23656,-0.87165 3.1052,-0.0725 1.86865,0.79917 1.21096,1.84477 0.37677,1.46794 -0.83419,-0.37684 -0.21429,-0.75607 -1.78487,-1.16133 -1.57057,-0.40526 -1.6971,-0.23413 -1.6971,-0.23413 z m -4.1039,1.31839 c 0,0 -0.18747,-0.27628 -0.0516,-0.46475 0.13592,-0.18846 1.75284,-1.10278 2.64137,-0.93837 0.88853,0.16441 0.37038,0.56034 0.12195,0.51285 -0.24841,-0.0475 -0.18768,-0.0944 -0.37611,-0.0799 -0.18842,0.0145 -0.34889,0.22642 -0.34889,0.22642 0,0 0.1281,0.14632 0.77483,0.27141 0.64673,0.12508 2.2276,-0.34539 2.67222,0.40905 0.4446,0.75444 0.16162,1.51863 -0.77163,1.22 -0.93325,-0.29863 -2.44425,-0.83299 -3.36134,-0.8852 -0.9171,-0.0522 -0.54882,0.22535 -0.93754,0.13317 -0.38872,-0.0922 -0.3633,-0.40463 -0.3633,-0.40463 z m -3.57103,1.9821 c 0,0 -0.40093,-0.25152 -0.0952,-0.68328 0.30567,-0.43176 0.33299,-0.13226 0.57648,-0.54151 0.24349,-0.40925 0.0507,-1.22588 1.10725,-1.99132 1.05655,-0.76544 2.04481,-0.59843 2.0589,-0.19646 0.0141,0.40198 -0.0814,0.14164 -0.63385,0.33129 -0.55247,0.18966 -1.14377,0.25131 -1.12375,0.98169 0.02,0.73039 -0.44122,0.93456 -0.44122,0.93456 0,0 0.66869,-0.2405 1.23642,-0.0301 0.56774,0.21043 3.03367,1.38875 3.6488,1.01246 0.61514,-0.37628 -0.029,-0.49547 0.66469,-0.62708 0.69372,-0.13161 1.49434,0.43707 0.9374,1.69481 -0.55693,1.25775 -2.63392,1.64599 -4.85407,0.21455 -2.22016,-1.43144 -2.29602,-0.86798 -2.57232,-0.79638 -0.2763,0.0716 -0.50948,-0.30325 -0.50948,-0.30325 z m -3.10879,2.21338 c 0,0 -0.17034,-0.0867 -0.0469,-0.3355 0.12341,-0.24881 0.72143,-0.68119 0.84421,-1.28911 0.12279,-0.60792 -0.4036,-2.01604 0.45236,-3.05684 0.85596,-1.04081 2.30969,-1.3933 2.44344,-0.98269 0.13374,0.41061 -1.05077,0.28468 -1.61067,1.21984 -0.55991,0.93515 -0.23443,1.22378 -0.31501,2.26316 -0.0806,1.03938 -0.26339,1.07714 -0.26339,1.07714 0,0 0.55989,-0.4209 1.37193,-0.2121 0.81204,0.2088 2.04694,1.40538 3.28602,1.42293 1.23907,0.0176 1.12329,-0.3933 1.46447,-0.3933 0.34119,0 0.96478,0.53343 -0.0817,1.83602 -1.04645,1.30259 -3.66948,0.0673 -4.72559,-0.90115 -1.0561,-0.96847 -2.07473,-0.98538 -2.28667,-0.62078 -0.21194,0.3646 -0.5325,-0.0276 -0.5325,-0.0276 z m -0.4924,6.19385 c 0,0 0.0904,-3.30565 3.76231,-3.55131 3.67191,-0.24566 1.45171,2.53048 -0.32582,2.20903 -1.77754,-0.32146 -3.43649,1.34228 -3.43649,1.34228 z m -1.95937,4.0174 c 0,0 -0.28198,-2.6507 3.69432,-3.50203 3.97629,-0.85133 2.15719,2.47242 -0.25229,2.17997 -2.40948,-0.29247 -3.44203,1.32206 -3.44203,1.32206 z m -2.96935,4.86982 c 0,0 0.76966,-2.84787 4.0365,-4.38641 3.26683,-1.53855 2.00378,1.85929 -0.10077,2.14636 -2.10455,0.28706 -3.93573,2.24005 -3.93573,2.24005 z m -1.52898,4.14713 c 0,0 0.14205,-2.55807 2.78338,-4.12751 2.64132,-1.56944 3.02745,0.46885 0.87087,1.45498 -2.15658,0.98613 -3.65425,2.67253 -3.65425,2.67253 z m 2.4515,-21.02459 c 0,0 0.0379,-1.43228 -2.3881,-0.55985 -2.42595,0.87243 -1.33889,4.12708 0.0199,4.97768 1.35876,0.8506 1.68782,-0.99903 1.23757,-2.54604 -0.45025,-1.54701 1.13067,-1.87179 1.13067,-1.87179 z m 0.17001,-1.6734 c 0,0 0.1289,-2.16518 -3.37752,-1.62265 -3.50642,0.54253 -2.31938,4.40626 -0.78419,3.35534 1.53519,-1.05092 1.27465,-1.963 2.85975,-2.2261 1.58511,-0.26311 1.30196,0.49341 1.30196,0.49341 z m -4.7722,25.40291 c 0,0 -1.30423,-0.21795 0.14565,-5.18461 1.44988,-4.96667 6.35581,-11.36965 6.07045,-18.12669 -0.28535,-6.75705004 -2.71789,-4.38831 -3.45662,-4.77152 -0.73871,-0.3832 -0.42088,-1.04836 1.03574,-1.15517 1.45662,-0.10682004 3.4642,0.66309 4.37689,4.77061 0.91269,4.10752 -0.0133,8.26896 -2.65362,13.46997 -2.64033,5.20101 -4.45911,5.96099 -5.11449,8.80055 -0.65538,2.83956 -0.404,2.19686 -0.404,2.19686 z" />
</svg>
