<?xml version="1.0" encoding="UTF-8" standalone="no"?>
<!-- Created with Inkscape (http://www.inkscape.org/) -->

<svg
   version="1.1"
   id="svg55"
   width="242"
   height="304.65189"
   viewBox="0 0 242 304.65189"
   sodipodi:docname="jl-site-logo-main.svg"
   inkscape:version="1.2.2 (b0a8486541, 2022-12-01)"
   xmlns:inkscape="http://www.inkscape.org/namespaces/inkscape"
   xmlns:sodipodi="http://sodipodi.sourceforge.net/DTD/sodipodi-0.dtd"
   xmlns:xlink="http://www.w3.org/1999/xlink"
   xmlns="http://www.w3.org/2000/svg"
   xmlns:svg="http://www.w3.org/2000/svg">
  <sodipodi:namedview
     id="namedview130"
     pagecolor="#505050"
     bordercolor="#ffffff"
     borderopacity="1"
     inkscape:showpageshadow="0"
     inkscape:pageopacity="0"
     inkscape:pagecheckerboard="1"
     inkscape:deskcolor="#505050"
     showgrid="false"
     inkscape:zoom="0.61814401"
     inkscape:cx="-73.607443"
     inkscape:cy="73.607443"
     inkscape:window-width="1366"
     inkscape:window-height="722"
     inkscape:window-x="0"
     inkscape:window-y="0"
     inkscape:window-maximized="1"
     inkscape:current-layer="svg55" />
  <defs
     id="defs59">
    <linearGradient
       id="Rainbowie-2">
      <stop
         style="stop-color:#000000;stop-opacity:0;"
         offset="0"
         id="stop12632" />
      <stop
         style="stop-color:#442204;stop-opacity:0.22;"
         offset="0.1"
         id="stop12634" />
      <stop
         style="stop-color:#69190d;stop-opacity:0.44;"
         offset="0.22"
         id="stop12636" />
      <stop
         style="stop-color:#a52c16;stop-opacity:0.66000003;"
         offset="0.33000001"
         id="stop12638" />
      <stop
         style="stop-color:#eb7513;stop-opacity:0.88;"
         offset="0.44"
         id="stop12640" />
      <stop
         style="stop-color:#f2c62a;stop-opacity:1;"
         offset="0.55000001"
         id="stop12642" />
      <stop
         style="stop-color:#5e9a0e;stop-opacity:0.88;"
         offset="0.66000003"
         id="stop12644" />
      <stop
         style="stop-color:#07692e;stop-opacity:0.66000003;"
         offset="0.76999998"
         id="stop12646" />
      <stop
         style="stop-color:#073720;stop-opacity:0.44;"
         offset="0.88440341"
         id="stop12648" />
      <stop
         style="stop-color:#442204;stop-opacity:0.21960784;"
         offset="0.94160509"
         id="stop12650" />
      <stop
         style="stop-color:#000000;stop-opacity:0;"
         offset="0.99880683"
         id="stop12652" />
    </linearGradient>
    <linearGradient
       id="Rainbowie-1">
      <stop
         style="stop-color:#000000;stop-opacity:0;"
         offset="0"
         id="stop12609" />
      <stop
         style="stop-color:#442204;stop-opacity:0.22;"
         offset="0.1"
         id="stop12611" />
      <stop
         style="stop-color:#69190d;stop-opacity:0.44;"
         offset="0.22"
         id="stop12613" />
      <stop
         style="stop-color:#a52c16;stop-opacity:0.66000003;"
         offset="0.33000001"
         id="stop12615" />
      <stop
         style="stop-color:#eb7513;stop-opacity:0.88;"
         offset="0.44"
         id="stop12617" />
      <stop
         style="stop-color:#f2c62a;stop-opacity:1;"
         offset="0.55000001"
         id="stop12619" />
      <stop
         style="stop-color:#5e9a0e;stop-opacity:0.88;"
         offset="0.66000003"
         id="stop12621" />
      <stop
         style="stop-color:#07692e;stop-opacity:0.66000003;"
         offset="0.76999998"
         id="stop12623" />
      <stop
         style="stop-color:#073720;stop-opacity:0.44;"
         offset="0.88440341"
         id="stop12625" />
      <stop
         style="stop-color:#442204;stop-opacity:0.21960784;"
         offset="0.94160509"
         id="stop12627" />
      <stop
         style="stop-color:#000000;stop-opacity:0;"
         offset="0.99880683"
         id="stop12629" />
    </linearGradient>
    <linearGradient
       id="linearGradient5077">
      <stop
         style="stop-color:#35031a;stop-opacity:1;"
         offset="0"
         id="stop5065" />
      <stop
         style="stop-color:#9f260a;stop-opacity:1;"
         offset="0.22"
         id="stop5067" />
      <stop
         style="stop-color:#d37a0d;stop-opacity:1;"
         offset="0.44"
         id="stop5069" />
      <stop
         style="stop-color:#076909;stop-opacity:1;"
         offset="0.76999998"
         id="stop5071" />
      <stop
         style="stop-color:#07466a;stop-opacity:1;"
         offset="0.88"
         id="stop5073" />
      <stop
         style="stop-color:#35031a;stop-opacity:1"
         offset="1"
         id="stop5075" />
    </linearGradient>
    <linearGradient
       id="linearGradient4931-5">
      <stop
         style="stop-color:#35031a;stop-opacity:1;"
         offset="0"
         id="stop5036" />
      <stop
         style="stop-color:#9f260a;stop-opacity:1;"
         offset="0.22"
         id="stop5038" />
      <stop
         style="stop-color:#d37a0d;stop-opacity:1;"
         offset="0.44"
         id="stop5040" />
      <stop
         style="stop-color:#076909;stop-opacity:1;"
         offset="0.76999998"
         id="stop5042" />
      <stop
         style="stop-color:#07466a;stop-opacity:1;"
         offset="0.88"
         id="stop5044" />
      <stop
         style="stop-color:#35031a;stop-opacity:1;"
         offset="1"
         id="stop5046" />
    </linearGradient>
    <linearGradient
       id="linearGradient4931-3">
      <stop
         style="stop-color:#35031a;stop-opacity:1;"
         offset="0"
         id="stop5023" />
      <stop
         style="stop-color:#9f260a;stop-opacity:1;"
         offset="0.22"
         id="stop5025" />
      <stop
         style="stop-color:#d37a0d;stop-opacity:1;"
         offset="0.44"
         id="stop5027" />
      <stop
         style="stop-color:#076909;stop-opacity:1;"
         offset="0.76999998"
         id="stop5029" />
      <stop
         style="stop-color:#07466a;stop-opacity:1;"
         offset="0.88"
         id="stop5031" />
      <stop
         style="stop-color:#35031a;stop-opacity:1;"
         offset="1"
         id="stop5033" />
    </linearGradient>
    <linearGradient
       id="linearGradient4931-6">
      <stop
         style="stop-color:#35031a;stop-opacity:1;"
         offset="0"
         id="stop4984" />
      <stop
         style="stop-color:#9f260a;stop-opacity:1;"
         offset="0.22"
         id="stop4986" />
      <stop
         style="stop-color:#d37a0d;stop-opacity:1;"
         offset="0.44"
         id="stop4988" />
      <stop
         style="stop-color:#076909;stop-opacity:1;"
         offset="0.76999998"
         id="stop4990" />
      <stop
         style="stop-color:#07466a;stop-opacity:1;"
         offset="0.88"
         id="stop4992" />
      <stop
         style="stop-color:#35031a;stop-opacity:1;"
         offset="1"
         id="stop4994" />
    </linearGradient>
    <linearGradient
       id="linearGradient4931-2">
      <stop
         style="stop-color:#35031a;stop-opacity:1;"
         offset="0"
         id="stop4971" />
      <stop
         style="stop-color:#9f260a;stop-opacity:1;"
         offset="0.22"
         id="stop4973" />
      <stop
         style="stop-color:#d37a0d;stop-opacity:1;"
         offset="0.44"
         id="stop4975" />
      <stop
         style="stop-color:#076909;stop-opacity:1;"
         offset="0.76999998"
         id="stop4977" />
      <stop
         style="stop-color:#07466a;stop-opacity:1;"
         offset="0.88"
         id="stop4979" />
      <stop
         style="stop-color:#35031a;stop-opacity:1;"
         offset="1"
         id="stop4981" />
    </linearGradient>
    <linearGradient
       id="linearGradient4931-1">
      <stop
         style="stop-color:#35031a;stop-opacity:1;"
         offset="0"
         id="stop4958" />
      <stop
         style="stop-color:#9f260a;stop-opacity:1;"
         offset="0.22"
         id="stop4960" />
      <stop
         style="stop-color:#d37a0d;stop-opacity:1;"
         offset="0.44"
         id="stop4962" />
      <stop
         style="stop-color:#076909;stop-opacity:1;"
         offset="0.76999998"
         id="stop4964" />
      <stop
         style="stop-color:#07466a;stop-opacity:1;"
         offset="0.88"
         id="stop4966" />
      <stop
         style="stop-color:#35031a;stop-opacity:1;"
         offset="1"
         id="stop4968" />
    </linearGradient>
    <linearGradient
       id="linearGradient4931">
      <stop
         style="stop-color:#35031a;stop-opacity:1;"
         offset="0"
         id="stop4945" />
      <stop
         style="stop-color:#9f260a;stop-opacity:1;"
         offset="0.22"
         id="stop4947" />
      <stop
         style="stop-color:#d37a0d;stop-opacity:1;"
         offset="0.44"
         id="stop4949" />
      <stop
         style="stop-color:#076909;stop-opacity:1;"
         offset="0.76999998"
         id="stop4951" />
      <stop
         style="stop-color:#07466a;stop-opacity:1;"
         offset="0.88"
         id="stop4953" />
      <stop
         style="stop-color:#35031a;stop-opacity:1;"
         offset="1"
         id="stop4955" />
    </linearGradient>
    <linearGradient
       id="linearGradient4931-4">
      <stop
         style="stop-color:#35031a;stop-opacity:1;"
         offset="0"
         id="stop4927" />
      <stop
         style="stop-color:#9f260a;stop-opacity:1;"
         offset="0.22"
         id="stop4935" />
      <stop
         style="stop-color:#d37a0d;stop-opacity:1;"
         offset="0.44"
         id="stop4937" />
      <stop
         style="stop-color:#076909;stop-opacity:1;"
         offset="0.76999998"
         id="stop4941" />
      <stop
         style="stop-color:#07466a;stop-opacity:1;"
         offset="0.88"
         id="stop4943" />
      <stop
         style="stop-color:#35031a;stop-opacity:1;"
         offset="1"
         id="stop4929" />
    </linearGradient>
    <linearGradient
       id="linearGradient4914">
      <stop
         style="stop-color:#000000;stop-opacity:1;"
         offset="0"
         id="stop4918" />
      <stop
         style="stop-color:#000000;stop-opacity:0;"
         offset="1"
         id="stop4920" />
    </linearGradient>
    <linearGradient
       id="linearGradient4914-1">
      <stop
         style="stop-color:#000000;stop-opacity:1;"
         offset="0"
         id="stop4910" />
      <stop
         style="stop-color:#000000;stop-opacity:0;"
         offset="1"
         id="stop4912" />
    </linearGradient>
    <linearGradient
       id="linearGradient4817">
      <stop
         style="stop-color:#000000;stop-opacity:1;"
         offset="0"
         id="stop4813" />
      <stop
         style="stop-color:#000000;stop-opacity:0;"
         offset="1"
         id="stop4815" />
    </linearGradient>
    <linearGradient
       id="linearGradient4807">
      <stop
         style="stop-color:#000000;stop-opacity:1;"
         offset="0"
         id="stop4803" />
      <stop
         style="stop-color:#000000;stop-opacity:0;"
         offset="1"
         id="stop4805" />
    </linearGradient>
    <linearGradient
       id="Rainbowie">
      <stop
         style="stop-color:#35031a;stop-opacity:1;"
         offset="0.11"
         id="stop4760" />
      <stop
         style="stop-color:#6a1907;stop-opacity:1;"
         offset="0.22"
         id="stop4762" />
      <stop
         style="stop-color:#d3560d;stop-opacity:1;"
         offset="0.44"
         id="stop4764" />
      <stop
         style="stop-color:#d29e0e;stop-opacity:1;"
         offset="0.55000001"
         id="stop4766" />
      <stop
         style="stop-color:#07692e;stop-opacity:1;"
         offset="0.88"
         id="stop4768" />
      <stop
         style="stop-color:#076769;stop-opacity:1;"
         offset="0.99880683"
         id="stop4770" />
    </linearGradient>
    <linearGradient
       id="Rainbowie-3">
      <stop
         style="stop-color:#000000;stop-opacity:0;"
         offset="0"
         id="stop4740" />
      <stop
         style="stop-color:#442204;stop-opacity:0.22;"
         offset="0.1"
         id="stop4754" />
      <stop
         style="stop-color:#69190d;stop-opacity:0.44;"
         offset="0.22"
         id="stop4748" />
      <stop
         style="stop-color:#a52c16;stop-opacity:0.66000003;"
         offset="0.33000001"
         id="stop4752" />
      <stop
         style="stop-color:#eb7513;stop-opacity:0.88;"
         offset="0.44"
         id="stop9687" />
      <stop
         style="stop-color:#f2c62a;stop-opacity:1;"
         offset="0.55000001"
         id="stop10417" />
      <stop
         style="stop-color:#5e9a0e;stop-opacity:0.88;"
         offset="0.66000003"
         id="stop11147" />
      <stop
         style="stop-color:#07692e;stop-opacity:0.66000003;"
         offset="0.76999998"
         id="stop4750" />
      <stop
         style="stop-color:#073720;stop-opacity:0.44;"
         offset="0.88440341"
         id="stop11149" />
      <stop
         style="stop-color:#442204;stop-opacity:0.21960784;"
         offset="0.94160509"
         id="stop11879" />
      <stop
         style="stop-color:#000000;stop-opacity:0;"
         offset="0.99880683"
         id="stop4742" />
    </linearGradient>
    <linearGradient
       xlink:href="#linearGradient4931-6"
       id="linearGradient5021"
       x1="150.16481"
       y1="468.45493"
       x2="240.06136"
       y2="600.76404"
       gradientUnits="userSpaceOnUse" />
    <linearGradient
       xlink:href="#Rainbowie-1"
       id="linearGradient5055"
       x1="673.78912"
       y1="67.176918"
       x2="440.46896"
       y2="549.38538"
       gradientUnits="userSpaceOnUse"
       gradientTransform="matrix(0.37261481,0,0,0.37261481,-46.25577,-17.860034)" />
    <linearGradient
       xlink:href="#linearGradient5077"
       id="linearGradient5063"
       x1="272.62979"
       y1="233.06071"
       x2="602.46735"
       y2="389.97263"
       gradientUnits="userSpaceOnUse" />
    <linearGradient
       xlink:href="#Rainbowie-3"
       id="linearGradient5085"
       x1="240.41537"
       y1="575.26831"
       x2="740.96198"
       y2="169.36858"
       gradientUnits="userSpaceOnUse"
       gradientTransform="matrix(0.37261481,0,0,0.37261481,-46.25577,-17.860034)" />
    <linearGradient
       xlink:href="#Rainbowie-2"
       id="linearGradient5093"
       x1="203.44667"
       y1="318.94632"
       x2="563.63208"
       y2="842.80829"
       gradientUnits="userSpaceOnUse"
       gradientTransform="matrix(0.37261481,0,0,0.37261481,-46.25577,-17.860034)" />
  </defs>
  <path
     id="path331"
     style="fill:#e8e2da;fill-opacity:1;stroke:url(#linearGradient5055);stroke-width:4;stroke-linejoin:round;stroke-dasharray:none;paint-order:markers stroke fill"
     d="m 192.91042,8.7943563 c 0,0 5.01782,-3.53705 12.60059,-0.29411 7.5828,3.2429497 4.91393,7.4858897 1.52887,5.9567397 -3.38506,-1.52916 -0.86954,-3.06804 -7.24279,-4.7125397 -6.37322,-1.6445 -6.88667,-0.95009 -6.88667,-0.95009 z m -16.65318,5.3498797 c 0,0 -0.76075,-1.12111 -0.20923,-1.8859 0.55154,-0.76476 7.11282,-4.4749497 10.71839,-3.8077997 3.60557,0.66715 1.50295,2.2738097 0.49488,2.0810997 -1.00804,-0.19272 -0.76162,-0.38316 -1.52622,-0.32442 -0.7646,0.0587 -1.41579,0.91879 -1.41579,0.91879 0,0 0.51984,0.59373 3.14421,1.10132 2.62434,0.5076 9.03935,-1.40153 10.84356,1.6599 1.80418,3.06143 0.65587,6.16245 -3.13118,4.95063 -3.78702,-1.21182 -9.91849,-3.38017 -13.63996,-3.59205 -3.72149,-0.21187 -2.22704,0.91444 -3.80444,0.54039 -1.5774,-0.37407 -1.47422,-1.64196 -1.47422,-1.64196 z m -14.49089,8.04317 c 0,0 -1.62692,-1.02064 -0.38651,-2.77267 1.24039,-1.75204 1.35125,-0.5367 2.3393,-2.1974 0.98805,-1.6607 0.20565,-4.97448 4.49308,-8.0805697 4.28741,-3.10607 8.29766,-2.42835 8.35483,-0.7972 0.0572,1.63118 -0.33024,0.57475 -2.57211,1.34434 -2.24185,0.7695897 -4.6413,1.0197597 -4.56005,3.9835997 0.0813,2.96385 -1.79043,3.79235 -1.79043,3.79235 0,0 2.71346,-0.97596 5.01727,-0.12206 2.30383,0.8539 12.3103,5.63538 14.80645,4.10844 2.49615,-1.52692 -0.11786,-2.01056 2.69722,-2.54461 2.81506,-0.53406 6.06391,1.77355 3.80389,6.87735 -2.25998,5.1038 -10.68816,6.67924 -19.69733,0.87061 -9.00918,-5.80862 -9.31699,-3.52216 -10.43819,-3.23162 -1.12121,0.29053 -2.06742,-1.23056 -2.06742,-1.23056 z m -12.61516,8.98166 c 0,0 -0.69121,-0.35175 -0.19043,-1.36142 0.50078,-1.00965 2.9275,-2.7642 3.42574,-5.23108 0.49824,-2.46688 -1.6378,-8.18085 1.83561,-12.40433 3.4734,-4.2234897 9.3725,-5.6538797 9.91522,-3.9876597 0.54273,1.66623 -4.26389,1.15521 -6.53593,4.9499897 -2.27205,3.79476 -0.95127,4.96599 -1.27826,9.18367 -0.32701,4.21768 -1.06883,4.37091 -1.06883,4.37091 0,0 2.27199,-1.70794 5.56716,-0.86066 3.29516,0.84727 8.30626,5.70286 13.33432,5.7741 5.02803,0.0713 4.55822,-1.59598 5.94269,-1.59598 1.3845,0 3.91496,2.1646 -0.33142,7.45038 -4.24638,5.28579 -14.89037,0.27317 -19.17594,-3.65677 -4.28555,-3.92993 -8.41905,-3.99856 -9.27908,-2.51906 -0.86003,1.4795 -2.16085,-0.11212 -2.16085,-0.11212 z m -1.9981,25.13402 c 0,0 0.36688,-13.41399 15.26709,-14.41086 14.90021,-0.99686 5.89088,10.26843 -1.32217,8.964 -7.21308,-1.30443 -13.94492,5.44686 -13.94492,5.44686 z m -7.95093,16.30219 c 0,0 -1.14423,-10.75628 14.99117,-14.21088 16.1354,-3.45459 8.75366,10.03284 -1.02374,8.84608 -9.77743,-1.18678 -13.96743,5.3648 -13.96743,5.3648 z m -12.04929,19.76121 c 0,0 3.12321,-11.55634 16.37968,-17.7996 13.25648,-6.24326 8.13113,7.54483 -0.40891,8.7097 -8.54003,1.16486 -15.97077,9.0899 -15.97077,9.0899 z m -6.20446,16.828634 c 0,0 0.57645,-10.380364 11.29467,-16.749004 10.71821,-6.36862 12.2851,1.90256 3.53391,5.90417 -8.7512,4.001594 -14.82858,10.844834 -14.82858,10.844834 z m 9.94795,-85.315604 c 0,0 0.15357,-5.81204 -9.69067,-2.27181 -9.84427,3.54023 -5.43309,16.74727 0.0806,20.19891 5.5137,3.45163 6.849,-4.05397 5.02193,-10.33157 -1.82707,-6.27759 4.58813,-7.59553 4.58813,-7.59553 z m 0.68988,-6.79049 c 0,0 0.52306,-8.7860697 -13.70563,-6.58454 -14.22869,2.20152 -9.4118,17.88015 -3.18216,13.61561 6.22965,-4.26453 5.17238,-7.96564 11.60457,-9.03329 6.4322,-1.06767 5.28322,2.00222 5.28322,2.00222 z M 112.22113,120.17142 c 0,0 -5.2924,-0.88442 0.59105,-21.038624 5.88347,-20.15422 25.79122,-46.13686 24.63327,-73.55625 -1.15794,-27.4193897 -11.02894,-17.8072997 -14.02661,-19.3622997 -2.99764,-1.555 -1.70789,-4.25415 4.20291,-4.68759 5.9108,-0.43344 14.05737,2.69077 17.76097,19.3586597 3.7036,16.66787 -0.0539,33.55459 -10.7681,54.65975 -10.71422,21.10515 -18.09463,24.18905 -20.75409,35.711704 -2.65945,11.52266 -1.6394,8.91465 -1.6394,8.91465 z"
     inkscape:label="statics" />
  <path
     id="path361"
     style="fill:#e8e2da;fill-opacity:1;stroke:url(#linearGradient5085);stroke-width:4;stroke-dasharray:none;paint-order:markers stroke fill;stroke-linejoin:round"
     d="m 230.48898,123.41193 c 0,0 0.50053,2.32647 1.33751,2.88079 0.83693,0.55434 -0.13418,2.10421 -1.69319,1.63168 -1.55904,-0.47252 -2.1932,-2.90165 -1.66175,-3.62074 0.53144,-0.71912 2.01743,-0.89173 2.01743,-0.89173 z m 1.74056,-8.38685 c 0,0 1.49829,3.80374 3.22991,4.65492 1.73162,0.85116 0.23508,3.54833 -1.50185,2.90508 -1.73695,-0.64325 -3.70743,-4.7264 -3.51352,-6.47748 0.19391,-1.75108 1.78546,-1.08252 1.78546,-1.08252 z m -1.46338,-11.02681 c 0,0 0.86247,2.38764 6.01251,3.77858 5.15002,1.39092 3.2579,6.07827 -0.84672,5.10747 -4.10464,-0.97079 -6.80194,-6.63428 -6.74258,-7.8536 0.0593,-1.21933 1.57679,-1.03245 1.57679,-1.03245 z M 225.803,94.159096 c 0,0 2.65209,3.07668 10.0853,1.51618 7.4332,-1.5605 4.75895,7.245264 0.01,6.538564 -4.74926,-0.70669 -11.8519,-5.658094 -11.72429,-6.898894 0.12761,-1.24081 1.6293,-1.15585 1.6293,-1.15585 z m -8.06297,-5.24044 c 0,0 8.92227,-1.80699 11.96783,-8.95439 3.04556,-7.1474 12.84274,-2.64281 7.56613,5.04153 -5.27664,7.68437 -17.40377,6.82528 -19.21584,5.56485 -1.81206,-1.26044 -0.31812,-1.65199 -0.31812,-1.65199 z m -8.21705,-5.46586 c 0,0 3.80285,-1.55716 6.13367,-11.90318 2.33079,-10.34601 -2.02279,-12.44647 5.1346,-12.29877 7.15739,0.14771 8.68702,9.57903 3.61476,18.44944 -5.07227,8.87038 -11.53486,9.59788 -14.30883,7.68398 -2.77401,-1.91391 -0.5742,-1.93147 -0.5742,-1.93147 z m -11.10559,-1.54674 c 0,0 3.93461,-4.02713 3.93302,-16.08807 -0.001,-12.06093 -3.66944,-8.36326 -2.23292,-11.48669 1.43653,-3.12344 7.44672,-6.12478 10.53651,0.91711 3.08975,7.04188 1.08803,17.67852 -2.50352,21.60496 -3.59154,3.92644 -5.47062,7.52614 -7.95378,7.2653 -2.48319,-0.26086 -1.77931,-2.21261 -1.77931,-2.21261 z M 76.90401,136.48429 c 0,0 -4.05525,3.90796 1.76955,17.97124 5.8248,14.06329 28.33449,22.87878 32.64919,28.01166 4.31469,5.13288 5.38661,9.33502 7.33877,9.46768 1.95216,0.13267 1.83564,-5.76818 12.49903,-11.5435 10.66339,-5.77531 41.61116,-6.80504 70.09926,-23.16455 28.48812,-16.35951 32.9175,-57.16523 12.50213,-65.446444 -20.41537,-8.28121 -30.14822,8.676314 -28.50232,16.028804 1.64591,7.35251 5.28887,9.15752 8.00503,5.28084 2.71616,-3.87669 -5.54335,-9.92587 8.13957,-14.660914 13.68292,-4.73502 18.72353,11.667414 14.75774,23.064714 -3.96579,11.39728 -14.17386,21.35453 -30.18097,28.01164 -16.00711,6.65711 -49.52935,11.86827 -57.25304,19.41953 -7.72368,7.55124 -6.51927,10.02662 -7.72368,10.06722 -1.20438,0.0406 -2.07252,-9.26646 -16.75024,-15.80521 -14.67769,-6.53873 -21.34285,-13.16847 -23.89613,-17.77562 -2.55328,-4.60715 -3.45389,-8.92709 -3.45389,-8.92709 z m 6.90644,-14.24995 c 0,0 -2.15888,-2.50379 -2.34868,7.52339 -0.18984,10.0272 12.16216,19.76274 22.43285,23.74083 10.27066,3.97809 15.3535,8.83252 15.54311,12.63563 0.18958,3.80308 5.01245,2.36255 4.94875,-0.41053 -0.0636,-2.77309 -18.71859,-23.76146 2.47094,-39.7387 21.18955,-15.97727 30.20863,-13.62403 49.31929,-24.5747 19.11068,-10.950684 23.51873,-37.890324 14.673,-43.545214 -8.84572,-5.65486 -16.527,-0.1565 -13.67449,2.24554 2.8525,2.40206 8.86927,-0.29443 6.57216,9.13621 -2.2971,9.43064 -12.39884,21.11383 -38.50238,31.563024 -26.10355,10.44922 -31.01916,19.78552 -32.72704,22.95108 -1.70792,3.16557 -2.36867,5.97004 -2.36867,5.97004 0,0 -8.92529,-37.863864 -25.5031,-46.737394 -16.57784,-8.87353 -30.04296,11.71477 -28.76803,13.72728 1.27494,2.01252 6.24304,-9.90768 20.81608,-6.63713 14.57303,3.27052 15.36467,24.115364 17.92492,34.667264 2.56024,10.55192 6.25983,15.11559 6.25983,15.11559 0,0 -15.18067,-4.87781 -17.07547,-11.63247 -1.89481,-6.75467 0.007,-5.99974 0.007,-5.99974 z"
     inkscape:label="geometrics" />
  <path
     id="path370"
     style="fill:#e8e2da;fill-opacity:1;stroke:url(#linearGradient5093);stroke-width:4;stroke-linejoin:round;stroke-dasharray:none;paint-order:markers stroke fill"
     d="m 63.13576,99.349866 c -0.32359,-0.01 -0.64923,-7.8e-4 -0.97592,0.0277 -3.13619,0.2731 -6.36901,2.308754 -8.81977,6.096474 -6.53534,10.10056 2.43583,32.66638 2.43583,32.66638 0,0 -14.3229,23.00192 -18.45098,27.66593 -4.1281,4.664 -20.37409,26.84076 -6.98362,44.94738 13.39047,18.10662 35.32291,7.95919 41.67172,-8.62545 6.34882,-16.58464 -12.55053,-29.6975 -18.21809,-21.13715 -5.66759,8.56034 -2.3856,10.67992 -2.3856,10.67992 0,0 2.84868,-9.03148 7.7223,-7.24852 4.87358,1.78295 4.52949,9.85705 2.60756,15.94312 -1.92194,6.08603 -17.12196,15.16274 -22.16694,2.09085 -5.04498,-13.07189 8.70621,-30.78971 12.9964,-35.4668 4.29019,-4.67712 8.41658,-15.72844 8.41658,-15.72844 0,0 4.40037,24.54983 30.81859,39.1231 7.94533,4.38295 14.29144,8.89205 19.41453,13.2504 -2.64892,2.66656 -4.81414,5.76993 -6.49019,9.17054 -6.77428,-4.44793 -33.14912,-2.72794 -36.94417,21.31328 -2.45252,15.5365 3.94431,28.69867 14.04365,35.62254 0.60039,4.8445 3.20206,7.70258 5.45312,7.36425 3.92831,-0.59043 4.312,-2.9147 4.312,-2.9147 0,0 -0.0799,-0.0616 -0.0946,-0.0713 3.94355,0.97995 8.13186,1.13259 12.37634,0.32678 0.14088,1.70796 0.59117,3.81901 1.47809,6.39922 4.64141,13.503 39.40511,24.35004 52.20535,-3.10755 1.99018,-4.26907 3.08082,-8.3593 3.41322,-12.23079 0.23778,-0.1505 0.46147,-0.30037 0.65498,-0.4483 6.87445,-5.25606 -0.43593,-10.15448 -0.43593,-10.15448 0,0 -0.4934,0.0965 -1.22045,0.22779 -1.00582,-3.48736 -2.66229,-6.70568 -4.83526,-9.61084 3.01055,-0.95886 6.31441,-4.95582 7.78562,-15.62 3.0047,-21.78004 -12.97882,-41.47044 -36.82336,-34.89115 -2.51944,0.69519 -4.85557,1.65006 -7.02438,2.80625 -8.58663,-7.92993 -18.37031,-15.06514 -25.94694,-19.62194 -16.36148,-9.84026 -29.26992,-33.95452 -29.26992,-33.95452 0,0 10.12027,-16.45726 9.11742,-31.48378 -0.58761,-8.80458 -4.98312,-13.258764 -9.83718,-13.406134 z m -2.16218,6.120494 c 3.15026,-0.0702 5.94992,6.01642 5.5965,11.4157 -0.43497,6.64527 -6.3461,15.14111 -6.3461,15.14111 0,0 -2.99732,-7.54468 -3.89498,-11.3582 -0.89768,-3.81352 -1.45092,-10.05051 2.44165,-14.08293 0.72985,-0.7561 1.47596,-1.09947 2.20293,-1.11568 z m -38.96662,47.11539 c -1.97152,0.0196 -3.38078,1.27531 -3.52748,3.07772 -0.2608,3.2043 2.04648,5.83594 2.04648,5.83594 0,0 -0.65943,-0.91293 -3.63009,0.0254 -2.97065,0.93838 -3.59559,5.70671 -1.0356,9.22221 2.55998,3.51549 9.60907,1.09463 11.37784,-0.1077 1.76879,-1.20234 6.33118,-2.19157 6.30244,-4.3324 -0.0288,-2.1408 -2.02027,-1.55886 -2.02027,-1.55886 0,0 0.0878,-5.52059 -4.22102,-9.64213 -1.88509,-1.80318 -3.75891,-2.53551 -5.2923,-2.52026 z m 1.40749,2.99984 c 0.16506,9.9e-4 0.34599,0.0226 0.54364,0.0647 4.21646,0.90155 4.62857,10.3146 4.62857,10.3146 0,0 -7.95957,4.37394 -9.66541,0.83619 -1.70586,-3.53775 4.2785,-3.29312 4.2785,-3.29312 0,0 -3.14161,-7.95708 0.2147,-7.92245 z m -11.55178,18.88329 c -0.6722,-5.6e-4 -1.35295,0.10662 -2.0319199,0.32966 -4.34542,1.42776 -4.50689,4.28723 -4.03617,6.20493 0.47071,1.91767 1.80775,2.76548 1.80775,2.76548 0,0 -4.69626,0.0693 -5.70129,3.60391 -1.00502005,3.5346 -0.33243,7.44211 4.10605,8.98131 4.4384499,1.5392 14.0748699,-6.39754 15.5508199,-5.74059 1.47598,0.65695 1.68625,-1.13459 1.68625,-1.13459 0,0 0.6121,-0.75392 -0.0764,-1.77064 -0.68854,-1.01672 -1.22469,1.00901 -2.89359,-5.00847 -1.40815,-5.07726 -4.78162,-8.22801 -8.41148,-8.231 z m 0.26199,3.86295 c 0.51737,-0.0127 1.14727,0.0866 1.91474,0.29403 3.0699,0.82993 4.31563,9.1203 4.31563,9.1203 0,0 -2.76436,0.84942 -5.88832,4.05222 -3.1239699,3.20277 -7.5185499,0.50935 -7.6589799,-2.43511 -0.14043,-2.94444 6.2922399,-3.59733 6.2922399,-3.59733 0,0 -1.5453099,-1.3579 -1.2721399,-4.21156 0.2048799,-2.14025 0.7446999,-3.18442 2.2968299,-3.22255 z m 132.31464,7.78272 a 1.0596092,1.0596092 0 0 0 -1.05962,1.05963 1.0596092,1.0596092 0 0 0 1.05962,1.05959 1.0596092,1.0596092 0 0 0 1.05962,-1.05959 1.0596092,1.0596092 0 0 0 -1.05962,-1.05963 z m 8.7266,4.46045 a 1.2326717,1.2326717 0 0 0 -1.23282,1.23284 1.2326717,1.2326717 0 0 0 1.23282,1.23282 1.2326717,1.2326717 0 0 0 1.23212,-1.23282 1.2326717,1.2326717 0 0 0 -1.23212,-1.23284 z m 7.79508,6.59135 a 1.52774,1.52774 0 0 0 -1.5283,1.52832 1.52774,1.52774 0 0 0 1.5283,1.52757 1.52774,1.52774 0 0 0 1.52758,-1.52757 1.52774,1.52774 0 0 0 -1.52758,-1.52832 z m -29.28957,3.68903 c 10.60447,-0.16048 16.3246,9.89559 20.05497,18.51504 3.90535,9.02367 -0.021,16.35336 -1.81867,20.55931 -3.15351,-2.7445 -6.81229,-5.06526 -10.79054,-6.88466 0.0726,-2.4424 -0.0515,-4.84552 -0.41046,-7.15681 -1.1107,-7.15184 -7.05226,-15.44996 -14.7343,-23.32554 2.81863,-1.13559 5.3785,-1.67222 7.699,-1.70734 z m -36.08469,3.36954 a 1.5064188,1.5064188 0 0 0 -1.50647,1.50648 1.5064188,1.5064188 0 0 0 1.50647,1.50647 1.5064188,1.5064188 0 0 0 1.50648,-1.50647 1.5064188,1.5064188 0 0 0 -1.50648,-1.50648 z m 6.5477,0.9905 a 1.5564866,1.5564866 0 0 0 -1.55595,1.55668 1.5564866,1.5564866 0 0 0 1.55595,1.55596 1.5564866,1.5564866 0 0 0 1.55668,-1.55596 1.5564866,1.5564866 0 0 0 -1.55668,-1.55668 z m -13.90829,1.0851 a 1.3362118,1.3362118 0 0 0 -1.33616,1.33616 1.3362118,1.3362118 0 0 0 1.33616,1.33617 1.3362118,1.3362118 0 0 0 1.33618,-1.33617 1.3362118,1.3362118 0 0 0 -1.33618,-1.33616 z m 77.8583,0.70083 a 1.2348693,1.2348693 0 0 0 -1.23501,1.23501 1.2348693,1.2348693 0 0 0 1.23501,1.23502 1.2348693,1.2348693 0 0 0 1.23501,-1.23502 1.2348693,1.2348693 0 0 0 -1.23501,-1.23501 z m -50.58173,0.50798 c 8.91448,8.58559 13.14465,16.19997 15.34634,20.48508 0.34895,0.67916 0.71883,1.50879 1.08219,2.40743 -3.54049,-1.01785 -7.20911,-1.68141 -10.89607,-1.93585 -6.94773,-0.47945 -12.32674,0.48027 -16.61776,2.37832 0.16946,-8.61028 3.68961,-17.34242 11.0853,-23.33498 z m -35.35183,2.62502 a 1.4144278,1.3861176 0 0 0 -1.41405,1.38568 1.4144278,1.3861176 0 0 0 1.41405,1.38639 1.4144278,1.3861176 0 0 0 1.41478,-1.38639 1.4144278,1.3861176 0 0 0 -1.41478,-1.38568 z m -6.62919,5.14385 a 1.3262462,1.3262462 0 0 0 -1.32599,1.32598 1.3262462,1.3262462 0 0 0 1.32599,1.32672 1.3262462,1.3262462 0 0 0 1.32671,-1.32672 1.3262462,1.3262462 0 0 0 -1.32671,-1.32598 z m 94.73076,0.43738 a 1.2805847,1.2805847 0 0 0 -1.28086,1.28013 1.2805847,1.2805847 0 0 0 1.28086,1.28087 1.2805847,1.2805847 0 0 0 1.28014,-1.28087 1.2805847,1.2805847 0 0 0 -1.28014,-1.28013 z m -66.3429,4.7836 c -0.99474,3.95205 -1.41655,8.13643 -1.23793,12.40908 -8.331,5.57926 -11.75153,15.2558 -15.8645,23.18144 -1.04447,2.01268 -1.76302,3.9254 -2.26263,5.73623 -3.43162,-4.52653 -5.14818,-10.45674 -5.74423,-16.05228 -1.18623,-11.136 16.60119,-19.00608 25.10929,-25.27447 z m -34.77762,1.227 a 1.2823501,1.2823501 0 0 0 -1.28232,1.28232 1.2823501,1.2823501 0 0 0 1.28232,1.28231 1.2823501,1.2823501 0 0 0 1.28232,-1.28231 1.2823501,1.2823501 0 0 0 -1.28232,-1.28232 z m 102.33297,2.09233 a 1.4911017,1.4911017 0 0 0 -1.49118,1.49118 1.4911017,1.4911017 0 0 0 1.49118,1.49119 1.4911017,1.4911017 0 0 0 1.49119,-1.49119 1.4911017,1.4911017 0 0 0 -1.49119,-1.49118 z m -108.44766,6.89845 a 1.5792065,1.5792065 0 0 0 -1.57923,1.57924 1.5792065,1.5792065 0 0 0 1.57923,1.57927 1.5792065,1.5792065 0 0 0 1.57927,-1.57927 1.5792065,1.5792065 0 0 0 -1.57927,-1.57924 z m 64.20621,0.50798 c 1.67542,0.0349 3.37749,0.30689 5.0936,0.85439 0.84761,0.27044 1.70055,0.60238 2.55374,0.96211 2.11317,6.9817 2.60763,17.50355 -7.4916,26.04373 -4.08334,-0.695 -8.07873,-2.26263 -11.52123,-5.25371 -3.78544,-3.28909 -6.5017,-7.7635 -8.02431,-12.73658 5.29219,-5.66986 12.08927,-10.02184 19.3898,-9.86994 z m 43.34994,1.57924 a 1.3233921,1.3233921 0 0 0 -1.32308,1.32309 1.3233921,1.3233921 0 0 0 1.32308,1.3238 1.3233921,1.3233921 0 0 0 1.32381,-1.3238 1.3233921,1.3233921 0 0 0 -1.32381,-1.32309 z m -29.68183,3.45906 c 7.18423,4.69703 13.61411,11.97311 16.44163,19.54047 -1.31509,0.14302 -2.59306,0.24141 -3.52019,0.16591 -1.97935,-0.16115 -12.50079,4.20369 -23.23821,3.48818 6.18565,-7.06024 9.44553,-15.25226 10.31677,-23.19456 z m 27.56768,4.01217 a 1.1836273,1.1836273 0 0 0 -1.18334,1.18407 1.1836273,1.1836273 0 0 0 1.18334,1.18335 1.1836273,1.1836273 0 0 0 1.18407,-1.18335 1.1836273,1.1836273 0 0 0 -1.18407,-1.18407 z m -107.05471,0.82165 a 1.3033955,1.3033955 0 0 0 -1.30342,1.30342 1.3033955,1.3033955 0 0 0 1.30342,1.30343 1.3033955,1.3033955 0 0 0 1.30343,-1.30343 1.3033955,1.3033955 0 0 0 -1.30343,-1.30342 z m 43.30774,3.71375 c 0.94057,3.0842 2.203,6.14382 3.80184,9.12471 2.53889,4.7335 5.99737,8.21265 9.9478,10.73451 -0.85106,0.40035 -1.73124,0.7927 -2.65997,1.17243 -8.89544,3.63707 -15.78704,4.21031 -21.09349,2.84411 1.20364,0.007 2.10826,-0.22497 2.30845,-6.74419 0.12892,-4.19853 3.04079,-10.99582 7.69537,-17.13157 z m 59.70133,0.53201 a 1.4458147,1.4458147 0 0 0 -1.44606,1.44534 1.4458147,1.4458147 0 0 0 1.44606,1.44607 1.4458147,1.4458147 0 0 0 1.44608,-1.44607 1.4458147,1.4458147 0 0 0 -1.44608,-1.44534 z M 59.70218,251.114 a 1.3501061,1.3501061 0 0 0 -1.35,1.35 1.3501061,1.3501061 0 0 0 1.35,1.34998 1.3501061,1.3501061 0 0 0 1.35,-1.34998 1.3501061,1.3501061 0 0 0 -1.35,-1.35 z m 60.68453,15.68475 c 12.25215,5.5818 27.53776,3.70033 36.00246,0.75686 -1.00946,4.24948 -3.75099,8.19354 -8.84888,11.36331 -20.02542,12.45141 -32.876,-1.06617 -36.58029,-6.73037 3.51086,-1.57276 6.62496,-3.39744 9.42671,-5.3898 z m -22.62979,10.41574 a 1.6213243,1.6598304 0 0 0 -1.62145,1.66004 1.6213243,1.6598304 0 0 0 1.62145,1.66002 1.6213243,1.6598304 0 0 0 1.62146,-1.66002 1.6213243,1.6598304 0 0 0 -1.62146,-1.66004 z m 2.39726,6.25658 a 1.5306539,1.5306539 0 0 0 -1.53049,1.53121 1.5306539,1.5306539 0 0 0 1.53049,1.53049 1.5306539,1.5306539 0 0 0 1.5312,-1.53049 1.5306539,1.5306539 0 0 0 -1.5312,-1.53121 z m 5.42547,5.74425 a 1.2775586,1.2775586 0 0 0 -1.27795,1.27721 1.2775586,1.2775586 0 0 0 1.27795,1.27796 1.2775586,1.2775586 0 0 0 1.27723,-1.27796 1.2775586,1.2775586 0 0 0 -1.27723,-1.27721 z m 52.91494,2.51732 a 1.2353809,1.2353809 0 0 0 -1.23574,1.23573 1.2353809,1.2353809 0 0 0 1.23574,1.23503 1.2353809,1.2353809 0 0 0 1.23502,-1.23503 1.2353809,1.2353809 0 0 0 -1.23502,-1.23573 z m -45.78576,2.05738 a 1.5720511,1.5720511 0 0 0 -1.57271,1.57198 1.5720511,1.5720511 0 0 0 1.57271,1.57197 1.5720511,1.5720511 0 0 0 1.57195,-1.57197 1.5720511,1.5720511 0 0 0 -1.57195,-1.57198 z m 37.26803,2.83829 a 1.5919694,1.5919694 0 0 0 -1.59235,1.59234 1.5919694,1.5919694 0 0 0 1.59235,1.5916 1.5919694,1.5919694 0 0 0 1.59159,-1.5916 1.5919694,1.5919694 0 0 0 -1.59159,-1.59234 z m -29.36744,1.03778 a 1.3278538,1.3278538 0 0 0 -1.32745,1.32744 1.3278538,1.3278538 0 0 0 1.32745,1.32817 1.3278538,1.3278538 0 0 0 1.32816,-1.32817 1.3278538,1.3278538 0 0 0 -1.32816,-1.32744 z m 8.5956,2.48677 a 1.2791307,1.2791307 0 0 0 -1.2794,1.27866 1.2791307,1.2791307 0 0 0 1.2794,1.27943 1.2791307,1.2791307 0 0 0 1.27869,-1.27943 1.2791307,1.2791307 0 0 0 -1.27869,-1.27866 z m 11.09768,0.0786 a 1.4651068,1.4651068 0 0 0 -1.46499,1.46498 1.4651068,1.4651068 0 0 0 1.46499,1.46499 1.4651068,1.4651068 0 0 0 1.46497,-1.46499 1.4651068,1.4651068 0 0 0 -1.46497,-1.46498 z"
     inkscape:label="organics" />
</svg>
