<?xml version="1.0" encoding="UTF-8" standalone="no"?>
<svg
   version="1.1"
   id="svg55"
   width="1176.9502"
   height="131.56087"
   viewBox="0 0 1176.9503 131.56086"
   sodipodi:docname="jl-site-separator3.svg"
   inkscape:version="1.2.2 (b0a8486541, 2022-12-01)"
   xmlns:inkscape="http://www.inkscape.org/namespaces/inkscape"
   xmlns:sodipodi="http://sodipodi.sourceforge.net/DTD/sodipodi-0.dtd"
   xmlns:xlink="http://www.w3.org/1999/xlink"
   xmlns="http://www.w3.org/2000/svg"
   xmlns:svg="http://www.w3.org/2000/svg">
  <defs
     id="defs59">
    <linearGradient
       id="linearGradient5077-1">
      <stop
         style="stop-color:#35031a;stop-opacity:1;"
         offset="0"
         id="stop6247" />
      <stop
         style="stop-color:#9f260a;stop-opacity:1;"
         offset="0.22"
         id="stop6249" />
      <stop
         style="stop-color:#d37a0d;stop-opacity:1;"
         offset="0.44"
         id="stop6251" />
      <stop
         style="stop-color:#076909;stop-opacity:1;"
         offset="0.76999998"
         id="stop6253" />
      <stop
         style="stop-color:#07466a;stop-opacity:1;"
         offset="0.88"
         id="stop6255" />
      <stop
         style="stop-color:#35031a;stop-opacity:1"
         offset="1"
         id="stop6257" />
    </linearGradient>
    <linearGradient
       id="linearGradient5077">
      <stop
         style="stop-color:#35031a;stop-opacity:1"
         offset="0"
         id="stop6244" />
      <stop
         style="stop-color:#07466a;stop-opacity:1;"
         offset="0.14491931"
         id="stop6242" />
      <stop
         style="stop-color:#076909;stop-opacity:1;"
         offset="0.46923536"
         id="stop6240" />
      <stop
         style="stop-color:#d37a0d;stop-opacity:1;"
         offset="0.74955529"
         id="stop6238" />
      <stop
         style="stop-color:#9f260a;stop-opacity:1;"
         offset="0.8828578"
         id="stop6236" />
      <stop
         style="stop-color:#35031a;stop-opacity:1;"
         offset="1"
         id="stop6234" />
    </linearGradient>
    <linearGradient
       id="linearGradient5978">
      <stop
         style="stop-color:#35031a;stop-opacity:1;"
         offset="0"
         id="stop5966" />
      <stop
         style="stop-color:#9f260a;stop-opacity:1;"
         offset="0.22"
         id="stop5968" />
      <stop
         style="stop-color:#d37a0d;stop-opacity:1;"
         offset="0.44"
         id="stop5970" />
      <stop
         style="stop-color:#076909;stop-opacity:1;"
         offset="0.76999998"
         id="stop5972" />
      <stop
         style="stop-color:#07466a;stop-opacity:1;"
         offset="0.88"
         id="stop5974" />
      <stop
         style="stop-opacity:0"
         offset="1"
         id="stop5976" />
    </linearGradient>
    <linearGradient
       id="linearGradient5077-2">
      <stop
         style="stop-color:#35031a;stop-opacity:1;"
         offset="0"
         id="stop5065" />
      <stop
         style="stop-color:#9f260a;stop-opacity:1;"
         offset="0.33126885"
         id="stop5067" />
      <stop
         style="stop-color:#d37a0d;stop-opacity:1;"
         offset="0.33126885"
         id="stop5069" />
      <stop
         style="stop-color:#076909;stop-opacity:1;"
         offset="0.76338273"
         id="stop5071" />
      <stop
         style="stop-color:#07466a;stop-opacity:1;"
         offset="0.88"
         id="stop5073" />
      <stop
         style="stop-color:#35031a;stop-opacity:1"
         offset="1"
         id="stop5075" />
    </linearGradient>
    <linearGradient
       id="linearGradient4931-5">
      <stop
         style="stop-color:#35031a;stop-opacity:1;"
         offset="0"
         id="stop5036" />
      <stop
         style="stop-color:#9f260a;stop-opacity:1;"
         offset="0.22"
         id="stop5038" />
      <stop
         style="stop-color:#d37a0d;stop-opacity:1;"
         offset="0.44"
         id="stop5040" />
      <stop
         style="stop-color:#076909;stop-opacity:1;"
         offset="0.76999998"
         id="stop5042" />
      <stop
         style="stop-color:#07466a;stop-opacity:1;"
         offset="0.88"
         id="stop5044" />
      <stop
         style="stop-color:#35031a;stop-opacity:1;"
         offset="1"
         id="stop5046" />
    </linearGradient>
    <linearGradient
       id="linearGradient4931-3">
      <stop
         style="stop-color:#35031a;stop-opacity:1;"
         offset="0"
         id="stop5023" />
      <stop
         style="stop-color:#9f260a;stop-opacity:1;"
         offset="0.22"
         id="stop5025" />
      <stop
         style="stop-color:#d37a0d;stop-opacity:1;"
         offset="0.44"
         id="stop5027" />
      <stop
         style="stop-color:#076909;stop-opacity:1;"
         offset="0.76999998"
         id="stop5029" />
      <stop
         style="stop-color:#07466a;stop-opacity:1;"
         offset="0.88"
         id="stop5031" />
      <stop
         style="stop-color:#35031a;stop-opacity:1;"
         offset="1"
         id="stop5033" />
    </linearGradient>
    <linearGradient
       id="linearGradient4931-6">
      <stop
         style="stop-color:#35031a;stop-opacity:1;"
         offset="0"
         id="stop4984" />
      <stop
         style="stop-color:#9f260a;stop-opacity:1;"
         offset="0.22"
         id="stop4986" />
      <stop
         style="stop-color:#d37a0d;stop-opacity:1;"
         offset="0.44"
         id="stop4988" />
      <stop
         style="stop-color:#076909;stop-opacity:1;"
         offset="0.76999998"
         id="stop4990" />
      <stop
         style="stop-color:#07466a;stop-opacity:1;"
         offset="0.88"
         id="stop4992" />
      <stop
         style="stop-color:#35031a;stop-opacity:1;"
         offset="1"
         id="stop4994" />
    </linearGradient>
    <linearGradient
       id="linearGradient4931-2">
      <stop
         style="stop-color:#35031a;stop-opacity:1;"
         offset="0"
         id="stop4971" />
      <stop
         style="stop-color:#9f260a;stop-opacity:1;"
         offset="0.22"
         id="stop4973" />
      <stop
         style="stop-color:#d37a0d;stop-opacity:1;"
         offset="0.44"
         id="stop4975" />
      <stop
         style="stop-color:#076909;stop-opacity:1;"
         offset="0.76999998"
         id="stop4977" />
      <stop
         style="stop-color:#07466a;stop-opacity:1;"
         offset="0.88"
         id="stop4979" />
      <stop
         style="stop-color:#35031a;stop-opacity:1;"
         offset="1"
         id="stop4981" />
    </linearGradient>
    <linearGradient
       id="linearGradient4931-1">
      <stop
         style="stop-color:#35031a;stop-opacity:1;"
         offset="0"
         id="stop4958" />
      <stop
         style="stop-color:#9f260a;stop-opacity:1;"
         offset="0.22"
         id="stop4960" />
      <stop
         style="stop-color:#d37a0d;stop-opacity:1;"
         offset="0.44"
         id="stop4962" />
      <stop
         style="stop-color:#076909;stop-opacity:1;"
         offset="0.76999998"
         id="stop4964" />
      <stop
         style="stop-color:#07466a;stop-opacity:1;"
         offset="0.88"
         id="stop4966" />
      <stop
         style="stop-color:#35031a;stop-opacity:1;"
         offset="1"
         id="stop4968" />
    </linearGradient>
    <linearGradient
       id="linearGradient4931">
      <stop
         style="stop-color:#35031a;stop-opacity:1;"
         offset="0"
         id="stop4945" />
      <stop
         style="stop-color:#9f260a;stop-opacity:1;"
         offset="0.22"
         id="stop4947" />
      <stop
         style="stop-color:#d37a0d;stop-opacity:1;"
         offset="0.44"
         id="stop4949" />
      <stop
         style="stop-color:#076909;stop-opacity:1;"
         offset="0.76999998"
         id="stop4951" />
      <stop
         style="stop-color:#07466a;stop-opacity:1;"
         offset="0.88"
         id="stop4953" />
      <stop
         style="stop-color:#35031a;stop-opacity:1;"
         offset="1"
         id="stop4955" />
    </linearGradient>
    <linearGradient
       id="linearGradient4931-4">
      <stop
         style="stop-color:#35031a;stop-opacity:1;"
         offset="0"
         id="stop4927" />
      <stop
         style="stop-color:#9f260a;stop-opacity:1;"
         offset="0.22"
         id="stop4935" />
      <stop
         style="stop-color:#d37a0d;stop-opacity:1;"
         offset="0.44"
         id="stop4937" />
      <stop
         style="stop-color:#076909;stop-opacity:1;"
         offset="0.76999998"
         id="stop4941" />
      <stop
         style="stop-color:#07466a;stop-opacity:1;"
         offset="0.88"
         id="stop4943" />
      <stop
         style="stop-color:#35031a;stop-opacity:1;"
         offset="1"
         id="stop4929" />
    </linearGradient>
    <linearGradient
       id="linearGradient4914">
      <stop
         style="stop-color:#000000;stop-opacity:1;"
         offset="0"
         id="stop4918" />
      <stop
         style="stop-color:#000000;stop-opacity:0;"
         offset="1"
         id="stop4920" />
    </linearGradient>
    <linearGradient
       id="linearGradient4914-1"
       inkscape:swatch="gradient">
      <stop
         style="stop-color:#000000;stop-opacity:1;"
         offset="0"
         id="stop4910" />
      <stop
         style="stop-color:#000000;stop-opacity:0;"
         offset="1"
         id="stop4912" />
    </linearGradient>
    <linearGradient
       id="linearGradient4817"
       inkscape:swatch="gradient">
      <stop
         style="stop-color:#000000;stop-opacity:1;"
         offset="0"
         id="stop4813" />
      <stop
         style="stop-color:#000000;stop-opacity:0;"
         offset="1"
         id="stop4815" />
    </linearGradient>
    <linearGradient
       id="linearGradient4807"
       inkscape:swatch="gradient">
      <stop
         style="stop-color:#000000;stop-opacity:1;"
         offset="0"
         id="stop4803" />
      <stop
         style="stop-color:#000000;stop-opacity:0;"
         offset="1"
         id="stop4805" />
    </linearGradient>
    <linearGradient
       id="Rainbowie"
       inkscape:swatch="gradient">
      <stop
         style="stop-color:#35031a;stop-opacity:1;"
         offset="0.11"
         id="stop4760" />
      <stop
         style="stop-color:#6a1907;stop-opacity:1;"
         offset="0.22"
         id="stop4762" />
      <stop
         style="stop-color:#d3560d;stop-opacity:1;"
         offset="0.44"
         id="stop4764" />
      <stop
         style="stop-color:#d29e0e;stop-opacity:1;"
         offset="0.55000001"
         id="stop4766" />
      <stop
         style="stop-color:#07692e;stop-opacity:1;"
         offset="0.88"
         id="stop4768" />
      <stop
         style="stop-color:#076769;stop-opacity:1;"
         offset="0.99880683"
         id="stop4770" />
    </linearGradient>
    <linearGradient
       id="Rainbowie-1"
       inkscape:swatch="gradient">
      <stop
         style="stop-color:#35031a;stop-opacity:1;"
         offset="0.11"
         id="stop4740" />
      <stop
         style="stop-color:#6a1907;stop-opacity:1;"
         offset="0.22"
         id="stop4754" />
      <stop
         style="stop-color:#d3560d;stop-opacity:1;"
         offset="0.44"
         id="stop4748" />
      <stop
         style="stop-color:#d29e0e;stop-opacity:1;"
         offset="0.55000001"
         id="stop4752" />
      <stop
         style="stop-color:#07692e;stop-opacity:1;"
         offset="0.88"
         id="stop4750" />
      <stop
         style="stop-color:#076769;stop-opacity:1;"
         offset="0.99880683"
         id="stop4742" />
    </linearGradient>
    <linearGradient
       id="glow-master">
      <stop
         offset="0.0"
         style="stop-color:#000000;stop-opacity:0.0;"
         id="stop105" />
      <stop
         offset="0.11"
         style="stop-color:#442204;stop-opacity:0.22;"
         id="stop107" />
      <stop
         offset="0.22"
         style="stop-color:#69190d;stop-opacity:0.44;"
         id="stop109" />
      <stop
         offset="0.33"
         style="stop-color:#a52c16;stop-opacity:0.659;"
         id="stop111" />
      <stop
         offset="0.44"
         style="stop-color:#eb7513;stop-opacity:0.878;"
         id="stop113" />
      <stop
         offset="0.55"
         style="stop-color:#f2c62a;stop-opacity:1.0;"
         id="stop115" />
      <stop
         offset="0.66"
         style="stop-color:#5e9a0e;stop-opacity:0.878;"
         id="stop117" />
      <stop
         offset="0.77"
         style="stop-color:#0e4d0e;stop-opacity:0.659;"
         id="stop119" />
      <stop
         offset="0.88"
         style="stop-color:#073720;stop-opacity:0.44;"
         id="stop121" />
      <stop
         offset="0.94"
         style="stop-color:#442204;stop-opacity:0.22;"
         id="stop123" />
      <stop
         offset="1.0"
         style="stop-color:#000000;stop-opacity:0.0;"
         id="stop125" />
    </linearGradient>
    <filter
       id="glow-filter-statics"
       x="-0.092342767"
       y="-0.09398283"
       width="1.1846871"
       height="1.1879672">
      <feGaussianBlur
         stdDeviation="3"
         id="feGaussianBlur128" />
    </filter>
    <filter
       id="glow-filter-geometrics"
       x="-0.092611304"
       y="-0.23432731"
       width="1.1852408"
       height="1.4686546">
      <feGaussianBlur
         stdDeviation="3"
         id="feGaussianBlur131" />
    </filter>
    <filter
       id="glow-filter-organics"
       x="-0.009166816"
       y="-0.017031125"
       width="1.0183336"
       height="1.03406">
      <feGaussianBlur
         stdDeviation="3"
         id="feGaussianBlur134" />
    </filter>
    <linearGradient
       xlink:href="#glow-master"
       id="glow-applied-1"
       gradientUnits="userSpaceOnUse"
       x1="790.9990407099847"
       y1="-488.64938662577856"
       x2="385.95125929001534"
       y2="624.2102466257786" />
    <linearGradient
       xlink:href="#glow-master"
       id="glow-applied-2"
       gradientUnits="userSpaceOnUse"
       x1="580.7664007099847"
       y1="-498.1051437257786"
       x2="175.71861929001534"
       y2="614.7544895257786" />
    <linearGradient
       xlink:href="#glow-master"
       id="glow-applied-3"
       gradientUnits="userSpaceOnUse"
       x1="163.9427699066115"
       y1="-524.7422184120321"
       x2="643.9400017358421"
       y2="557.9040423723045" />
    <linearGradient
       xlink:href="#glow-master"
       id="glow-applied-4"
       gradientUnits="userSpaceOnUse"
       x1="163.9427699066115"
       y1="-524.7422184120321"
       x2="643.9400017358421"
       y2="557.9040423723045" />
    <linearGradient
       xlink:href="#glow-master"
       id="glow-applied-5"
       gradientUnits="userSpaceOnUse"
       x1="163.9427699066115"
       y1="-524.7422184120321"
       x2="643.9400017358421"
       y2="557.9040423723045" />
    <linearGradient
       xlink:href="#glow-master"
       id="glow-applied-6"
       gradientUnits="userSpaceOnUse"
       x1="39.45227724029007"
       y1="-154.03920917828108"
       x2="1137.4980227597098"
       y2="289.60006917828105" />
    <linearGradient
       xlink:href="#glow-master"
       id="glow-applied-7"
       gradientUnits="userSpaceOnUse"
       x1="-67.38854275970992"
       y1="32.79625082171893"
       x2="1030.65720275971"
       y2="476.43552917828106" />
    <linearGradient
       xlink:href="#glow-master"
       id="glow-applied-8"
       gradientUnits="userSpaceOnUse"
       x1="-67.38854275970992"
       y1="-3.203749178281072"
       x2="1030.65720275971"
       y2="440.43552917828106" />
    <linearGradient
       xlink:href="#glow-master"
       id="glow-applied-9"
       gradientUnits="userSpaceOnUse"
       x1="-67.38854275970992"
       y1="-3.203749178281072"
       x2="1030.65720275971"
       y2="440.43552917828106" />
    <linearGradient
       xlink:href="#glow-master"
       id="glow-applied-10"
       gradientUnits="userSpaceOnUse"
       x1="-67.38854275970992"
       y1="-3.203749178281072"
       x2="1030.65720275971"
       y2="440.43552917828106" />
    <linearGradient
       xlink:href="#glow-master"
       id="glow-applied-11"
       gradientUnits="userSpaceOnUse"
       x1="-3.6650927960013178"
       y1="67.78043"
       x2="1180.6153927960013"
       y2="67.78043" />
    <linearGradient
       xlink:href="#glow-master"
       id="glow-applied-12"
       gradientUnits="userSpaceOnUse"
       x1="-110.50591279600131"
       y1="254.61589"
       x2="1073.7745727960014"
       y2="254.61589" />
    <linearGradient
       xlink:href="#glow-master"
       id="glow-applied-13"
       gradientUnits="userSpaceOnUse"
       x1="768.6041890506917"
       y1="23.717148710584787"
       x2="-298.0447161384021"
       y2="538.2853044239037" />
    <linearGradient
       xlink:href="#glow-master"
       id="glow-applied-14"
       gradientUnits="userSpaceOnUse"
       x1="768.6041890506917"
       y1="23.717148710584787"
       x2="-298.0447161384021"
       y2="538.2853044239037" />
    <linearGradient
       xlink:href="#glow-master"
       id="glow-applied-15"
       gradientUnits="userSpaceOnUse"
       x1="768.6041890506917"
       y1="23.717148710584787"
       x2="-298.0447161384021"
       y2="538.2853044239037" />
    <linearGradient
       xlink:href="#glow-master"
       id="glow-applied-16"
       gradientUnits="userSpaceOnUse"
       x1="768.6041890506917"
       y1="23.717148710584787"
       x2="-298.0447161384021"
       y2="538.2853044239037" />
    <linearGradient
       xlink:href="#glow-master"
       id="glow-applied-17"
       gradientUnits="userSpaceOnUse"
       x1="768.6041890506917"
       y1="23.717148710584787"
       x2="-298.0447161384021"
       y2="538.2853044239037" />
    <linearGradient
       xlink:href="#glow-master"
       id="glow-applied-18"
       gradientUnits="userSpaceOnUse"
       x1="768.6041890506917"
       y1="23.717148710584787"
       x2="-298.0447161384021"
       y2="538.2853044239037" />
    <linearGradient
       xlink:href="#glow-master"
       id="glow-applied-19"
       gradientUnits="userSpaceOnUse"
       x1="768.6041890506917"
       y1="23.717148710584787"
       x2="-298.0447161384021"
       y2="538.2853044239037" />
    <linearGradient
       xlink:href="#glow-master"
       id="glow-applied-20"
       gradientUnits="userSpaceOnUse"
       x1="768.6041890506917"
       y1="23.717148710584787"
       x2="-298.0447161384021"
       y2="538.2853044239037" />
    <linearGradient
       xlink:href="#glow-master"
       id="glow-applied-21"
       gradientUnits="userSpaceOnUse"
       x1="-110.50591279600131"
       y1="254.61589"
       x2="1073.7745727960014"
       y2="254.61589" />
    <linearGradient
       xlink:href="#glow-master"
       id="glow-applied-22"
       gradientUnits="userSpaceOnUse"
       x1="758.4382266244506"
       y1="-1.5016997719417162"
       x2="-308.2106785646432"
       y2="513.0664559413772" />
    <linearGradient
       xlink:href="#glow-master"
       id="glow-applied-23"
       gradientUnits="userSpaceOnUse"
       x1="758.4382266244506"
       y1="-1.5016997719417162"
       x2="-308.2106785646432"
       y2="513.0664559413772" />
    <linearGradient
       xlink:href="#glow-master"
       id="glow-applied-24"
       gradientUnits="userSpaceOnUse"
       x1="758.4382266244506"
       y1="-1.5016997719417162"
       x2="-308.2106785646432"
       y2="513.0664559413772" />
    <linearGradient
       xlink:href="#glow-master"
       id="glow-applied-25"
       gradientUnits="userSpaceOnUse"
       x1="758.4382266244506"
       y1="-1.5016997719417162"
       x2="-308.2106785646432"
       y2="513.0664559413772" />
    <linearGradient
       xlink:href="#glow-master"
       id="glow-applied-26"
       gradientUnits="userSpaceOnUse"
       x1="758.4382266244506"
       y1="-1.5016997719417162"
       x2="-308.2106785646432"
       y2="513.0664559413772" />
    <linearGradient
       xlink:href="#glow-master"
       id="glow-applied-27"
       gradientUnits="userSpaceOnUse"
       x1="758.4382266244506"
       y1="-1.5016997719417162"
       x2="-308.2106785646432"
       y2="513.0664559413772" />
    <linearGradient
       xlink:href="#glow-master"
       id="glow-applied-28"
       gradientUnits="userSpaceOnUse"
       x1="758.4382266244506"
       y1="-1.5016997719417162"
       x2="-308.2106785646432"
       y2="513.0664559413772" />
    <linearGradient
       xlink:href="#glow-master"
       id="glow-applied-29"
       gradientUnits="userSpaceOnUse"
       x1="758.4382266244506"
       y1="-1.5016997719417162"
       x2="-308.2106785646432"
       y2="513.0664559413772" />
    <linearGradient
       xlink:href="#glow-master"
       id="glow-applied-30"
       gradientUnits="userSpaceOnUse"
       x1="758.4382266244506"
       y1="-1.5016997719417162"
       x2="-308.2106785646432"
       y2="513.0664559413772" />
    <linearGradient
       xlink:href="#glow-master"
       id="glow-applied-31"
       gradientUnits="userSpaceOnUse"
       x1="758.4382266244506"
       y1="-1.5016997719417162"
       x2="-308.2106785646432"
       y2="513.0664559413772" />
    <linearGradient
       xlink:href="#glow-master"
       id="glow-applied-32"
       gradientUnits="userSpaceOnUse"
       x1="-110.50591279600131"
       y1="254.61589"
       x2="1073.7745727960014"
       y2="254.61589" />
    <linearGradient
       xlink:href="#glow-master"
       id="glow-applied-33"
       gradientUnits="userSpaceOnUse"
       x1="-352.080030411621"
       y1="400.8649224459543"
       x2="802.702127488293"
       y2="138.18938808836117" />
    <linearGradient
       xlink:href="#glow-master"
       id="glow-applied-34"
       gradientUnits="userSpaceOnUse"
       x1="-352.080030411621"
       y1="400.8649224459543"
       x2="802.702127488293"
       y2="138.18938808836117" />
    <linearGradient
       xlink:href="#glow-master"
       id="glow-applied-35"
       gradientUnits="userSpaceOnUse"
       x1="-352.080030411621"
       y1="400.8649224459543"
       x2="802.702127488293"
       y2="138.18938808836117" />
    <linearGradient
       xlink:href="#glow-master"
       id="glow-applied-36"
       gradientUnits="userSpaceOnUse"
       x1="-352.080030411621"
       y1="400.8649224459543"
       x2="802.702127488293"
       y2="138.18938808836117" />
    <linearGradient
       xlink:href="#glow-master"
       id="glow-applied-37"
       gradientUnits="userSpaceOnUse"
       x1="-352.080030411621"
       y1="400.8649224459543"
       x2="802.702127488293"
       y2="138.18938808836117" />
    <linearGradient
       xlink:href="#glow-master"
       id="glow-applied-38"
       gradientUnits="userSpaceOnUse"
       x1="-352.080030411621"
       y1="400.8649224459543"
       x2="802.702127488293"
       y2="138.18938808836117" />
    <linearGradient
       xlink:href="#glow-master"
       id="glow-applied-39"
       gradientUnits="userSpaceOnUse"
       x1="-352.080030411621"
       y1="400.8649224459543"
       x2="802.702127488293"
       y2="138.18938808836117" />
    <linearGradient
       xlink:href="#glow-master"
       id="glow-applied-40"
       gradientUnits="userSpaceOnUse"
       x1="-352.080030411621"
       y1="400.8649224459543"
       x2="802.702127488293"
       y2="138.18938808836117" />
    <linearGradient
       xlink:href="#glow-master"
       id="glow-applied-41"
       gradientUnits="userSpaceOnUse"
       x1="-110.50591279600131"
       y1="254.61589"
       x2="1073.7745727960014"
       y2="254.61589" />
    <linearGradient
       xlink:href="#glow-master"
       id="glow-applied-42"
       gradientUnits="userSpaceOnUse"
       x1="-309.4344115015422"
       y1="509.8821120431536"
       x2="759.2222824989508"
       y2="-0.5031727388099512" />
    <linearGradient
       xlink:href="#glow-master"
       id="glow-applied-43"
       gradientUnits="userSpaceOnUse"
       x1="-309.4344115015422"
       y1="509.8821120431536"
       x2="759.2222824989508"
       y2="-0.5031727388099512" />
    <linearGradient
       xlink:href="#glow-master"
       id="glow-applied-44"
       gradientUnits="userSpaceOnUse"
       x1="-309.4344115015422"
       y1="509.8821120431536"
       x2="759.2222824989508"
       y2="-0.5031727388099512" />
    <linearGradient
       xlink:href="#glow-master"
       id="glow-applied-45"
       gradientUnits="userSpaceOnUse"
       x1="-309.4344115015422"
       y1="509.8821120431536"
       x2="759.2222824989508"
       y2="-0.5031727388099512" />
    <linearGradient
       xlink:href="#glow-master"
       id="glow-applied-46"
       gradientUnits="userSpaceOnUse"
       x1="-309.4344115015422"
       y1="509.8821120431536"
       x2="759.2222824989508"
       y2="-0.5031727388099512" />
    <linearGradient
       xlink:href="#glow-master"
       id="glow-applied-47"
       gradientUnits="userSpaceOnUse"
       x1="-309.4344115015422"
       y1="509.8821120431536"
       x2="759.2222824989508"
       y2="-0.5031727388099512" />
    <linearGradient
       xlink:href="#glow-master"
       id="glow-applied-48"
       gradientUnits="userSpaceOnUse"
       x1="-309.4344115015422"
       y1="509.8821120431536"
       x2="759.2222824989508"
       y2="-0.5031727388099512" />
    <linearGradient
       xlink:href="#glow-master"
       id="glow-applied-49"
       gradientUnits="userSpaceOnUse"
       x1="-309.4344115015422"
       y1="509.8821120431536"
       x2="759.2222824989508"
       y2="-0.5031727388099512" />
    <linearGradient
       xlink:href="#glow-master"
       id="glow-applied-50"
       gradientUnits="userSpaceOnUse"
       x1="-309.4344115015422"
       y1="509.8821120431536"
       x2="759.2222824989508"
       y2="-0.5031727388099512" />
    <linearGradient
       xlink:href="#glow-master"
       id="glow-applied-51"
       gradientUnits="userSpaceOnUse"
       x1="-309.4344115015422"
       y1="509.8821120431536"
       x2="759.2222824989508"
       y2="-0.5031727388099512" />
  </defs>
  <sodipodi:namedview
     id="namedview57"
     pagecolor="#505050"
     bordercolor="#ffffff"
     borderopacity="1"
     inkscape:showpageshadow="0"
     inkscape:pageopacity="0"
     inkscape:pagecheckerboard="1"
     inkscape:deskcolor="#505050"
     showgrid="false"
     inkscape:zoom="0.32876546"
     inkscape:cx="504.91923"
     inkscape:cy="10.645887"
     inkscape:window-width="1366"
     inkscape:window-height="722"
     inkscape:window-x="0"
     inkscape:window-y="0"
     inkscape:window-maximized="1"
     inkscape:current-layer="svg55"
     showguides="false">
    <sodipodi:guide
       position="193.52877,112.32236"
       orientation="0,-1"
       id="guide12819"
       inkscape:locked="false" />
    <sodipodi:guide
       position="315.95647,142.73919"
       orientation="1,0"
       id="guide12821"
       inkscape:locked="false" />
    <sodipodi:guide
       position="384.39433,167.83307"
       orientation="0,-1"
       id="guide12827"
       inkscape:locked="false" />
    <sodipodi:guide
       position="259.68536,217.2604"
       orientation="1,0"
       id="guide12829"
       inkscape:locked="false" />
    <sodipodi:guide
       position="450.55093,213.4583"
       orientation="0,-1"
       id="guide12831"
       inkscape:locked="false" />
    <sodipodi:guide
       position="214.06012,224.10419"
       orientation="1,0"
       id="guide12833"
       inkscape:locked="false" />
    <sodipodi:guide
       position="293.90428,68.217968"
       orientation="0,-1"
       id="guide12837"
       inkscape:locked="false" />
    <sodipodi:guide
       position="360.06087,289.50034"
       orientation="1,0"
       id="guide12839"
       inkscape:locked="false" />
  </sodipodi:namedview>
  <g
     inkscape:label="Glow"
     transform="translate(0,-2.0)"
     id="g249">
    <path
       id="path12841"
       style="fill:none;stroke:url(#glow-applied-5);filter:url(#glow-filter-statics);opacity:1;stroke-opacity:1;fill-opacity:1;stroke-width:2;stroke-linecap:round;stroke-linejoin:round;stroke-dasharray:none;paint-order:stroke markers fill"
       inkscape:label="statics"
       d="m 448.15926,61.157226 -88.45819,-1.365169 88.79804,-85.878879 -0.36408,87.248525 m -0.40658,-24.2887 -78.10733,-2.132548 55.17911,-53.012298 -1.32509,78.45683 m 24.23671,0.484682 -42.33372,-43.489419"
       transform="rotate(43.91037,432.70368,271.06449)" />
    <path
       id="path13801"
       style="display:inline;fill:none;stroke:url(#glow-applied-10);filter:url(#glow-filter-geometrics);opacity:1;stroke-opacity:1;stroke-width:5;stroke-linecap:round;stroke-linejoin:round;paint-order:stroke markers fill"
       inkscape:label="geometrics"
       d="m 503.04819,177.57761 a 20.697548,20.697548 0 0 1 -20.69754,20.69754 20.697548,20.697548 0 0 1 -20.69755,-20.69754 20.697548,20.697548 0 0 1 20.69755,-20.69755 20.697548,20.697548 0 0 1 20.69754,20.69755 z m 29.20532,-5.07533 a 11.154489,11.154489 0 0 1 -3.5987,15.35886 11.154489,11.154489 0 0 1 -15.35887,-3.5987 11.154489,11.154489 0 0 1 3.59871,-15.35886 11.154489,11.154489 0 0 1 15.35886,3.5987 z m -82.64378,-1.096 a 11.154489,11.154489 0 0 1 -2.70958,15.54038 11.154489,11.154489 0 0 1 -15.54038,-2.70959 11.154489,11.154489 0 0 1 2.70958,-15.54038 11.154489,11.154489 0 0 1 15.54038,2.70959 z"
       transform="translate(106.84082,-150.83546)" />
    <path
       id="path10038"
       style="display:inline;fill:none;stroke:url(#glow-applied-51);filter:url(#glow-filter-organics);opacity:1;stroke-opacity:1;fill-opacity:1;stroke-width:5;stroke-linecap:round;stroke-linejoin:round;stroke-dasharray:none;paint-order:stroke markers fill"
       inkscape:label="organics"
       d="m 264.13666,225.40179 c 0,0 22.63225,-56.72984 156.50473,-43.18779 101.48982,10.26633 42.44637,-97.410261 134.11728,-90.784681 96.12802,6.94772 109.60147,-39.37918 109.60147,-39.37918 m -22.53697,36.97282 c 0,0 20.66805,-12.225115 45.5886,-11.344723 16.18086,0.571636 22.03849,8.639764 22.03849,8.639764 M 673.95267,23.596144 c 0,0 -3.02963,1.981967 -1.55316,6.166706 1.87897,5.32538 7.03687,8.451393 8.80012,14.865305 2.43317,8.850838 -11.60857,24.111099 -11.60857,24.111099 0,0 15.62399,-9.99676 32.40103,-6.698848 12.03784,2.366316 13.96575,6.659057 20.29034,6.96272 10.36797,0.497826 11.64783,-6.799832 11.64783,-6.799832 M 687.02872,21.317078 c 0,0 -1.63422,2.102787 -0.24722,6.389369 1.13024,3.49289 5.40343,5.861348 6.5161,10.863218 1.35824,6.105748 -4.07147,13.255656 -4.07147,13.255656 0,0 9.46658,-5.288326 20.01977,-6.211677 8.13496,-0.711726 12.3818,1.972723 16.83967,1.953186 7.30782,-0.03204 8.91457,-3.598072 8.91457,-3.598072 m -36.4427,-28.006685 c 0,0 -2.06424,1.882255 -0.67915,5.177131 1.39918,3.328434 3.35298,3.905195 4.49156,6.943978 1.65108,4.406664 -0.91493,10.05391 -0.91493,10.05391 0,0 6.32913,-7.52747 14.38204,-9.092785 6.20756,-1.206694 9.45347,0.69601 12.84577,0.05563 6.33957,-1.196648 6.65559,-4.605917 6.65559,-4.605917 M 706.52806,8.2175696 c 0,0 -1.5944,1.3306644 -1.02976,3.7904264 0.59857,2.607296 2.4819,2.970744 3.29383,5.086707 1.35268,3.524972 0.12416,5.962935 0.12416,5.962935 0,0 4.50452,-5.721544 9.82147,-7.449125 4.09854,-1.331681 6.40672,-0.316924 9.82951,-0.845135 5.54791,-0.856148 4.30622,-5.061531 4.30622,-5.061531 M 712.65818,-2.7482467 c 0,0 -1.21992,0.5507509 -0.44253,2.47989694 0.45253,1.12288212 1.52373,0.79811338 2.41491,3.69732766 0.84954,2.764634 0.0426,5.1076764 0.0426,5.1076764 0,0 3.05806,-4.8301465 5.40533,-6.0602505 2.14749,-1.1253591 3.78663,-0.7773644 5.84372,-1.3932924 5.37753,-1.61054159 4.30618,-5.0615181 4.30618,-5.0615181 M 719.75774,-4.404344 c 0,0 6.76082,-8.154252 1.90145,-19.352368 -4.13129,-9.520422 -0.4024,-14.443259 -0.4024,-14.443259 m -6.09881,29.717147 c 0,0 2.85242,-3.782694 2.04038,-8.622746 -0.81204,-4.840071 -4.53842,-6.854876 -4.53842,-6.854876 m 12.98603,-3.014631 c 0,0 -0.20208,-2.87987 3.53595,-6.779879 3.72826,-3.889929 6.08055,-3.77052 6.08055,-3.77052 M 176.78169,266.13402 c 0,0 -58.41884,-17.82506 -131.58787,95.09757 -55.470048,85.60756 -102.552627,-27.81028 -154.72176,47.85897 -54.70563,79.34835 -99.27903,60.88412 -99.27903,60.88412 m 43.11709,6.0412 c 0,0 -22.52322,8.32625 -37.55946,28.21896 -9.76301,12.9163 -7.19733,22.55081 -7.19733,22.55081 m -26.27855,-67.10848 c 0,0 3.44897,-1.10069 5.76484,2.68465 2.94707,4.81714 2.11922,10.79132 5.98395,16.2053 5.33309,7.47099 26.03174,6.20101 26.03174,6.20101 0,0 -17.61241,5.81785 -25.63599,20.91643 -5.75707,10.83354 -3.64215,15.03729 -7.39595,20.13648 -6.15362,8.35916 -12.62362,4.74905 -12.62362,4.74905 m -2.14155,-62.184 c 0,0 2.66252,0.0583 5.11384,3.83846 1.99742,3.08026 1.13981,7.89007 4.31921,11.90854 3.88107,4.90534 12.85408,5.20211 12.85408,5.20211 0,0 -10.07487,4.00993 -17.4481,11.61636 -5.68364,5.86347 -6.27945,10.85216 -9.10654,14.29897 -4.63449,5.65037 -8.4151,4.64776 -8.4151,4.64776 m 1.25524,-45.94419 c 0,0 2.76264,-0.41448 4.44565,2.73863 1.70015,3.18523 0.91529,5.06511 2.55507,7.86541 2.37793,4.06081 8.37856,5.63186 8.37856,5.63186 0,0 -9.83332,0.16298 -16.12756,5.42436 -4.85195,4.05566 -5.42299,7.77456 -8.05969,10.00291 -4.92743,4.16443 -7.77223,2.25915 -7.77223,2.25915 m 5.54305,-32.62251 c 0,0 2.03826,-0.39784 3.59078,1.59187 1.64559,2.1091 0.73965,3.79975 1.86941,5.76448 1.882,3.27311 4.54869,3.85765 4.54869,3.85765 0,0 -7.28107,-0.1137 -11.97543,2.92232 -3.61862,2.34031 -4.28716,4.77145 -6.85606,7.09422 -4.16385,3.76492 -6.64383,0.14875 -6.64383,0.14875 m 3.09064,-23.53958 c 0,0 1.19686,-0.59921 2.20343,1.22091 0.58587,1.05943 -0.34184,1.68578 1.34571,4.20606 1.60935,2.40311 3.93647,3.25491 3.93647,3.25491 0,0 -5.67697,-0.67384 -8.1121,0.37164 -2.22783,0.95651 -2.99173,2.44792 -4.76725,3.65563 -4.64175,3.15686 -6.64379,0.14872 -6.64379,0.14872 m 6.27419,-8.39352 c 0,0 -10.59198,0.10259 -16.21609,-10.73164 -4.78154,-9.21102 -10.95358,-9.42278 -10.95358,-9.42278 m 26.90637,14.01256 c 0,0 -4.73448,-0.17269 -7.97795,-3.8558 -3.24349,-3.68314 -2.45637,-7.84557 -2.45637,-7.84557 m -10.53057,8.17509 c 0,0 -2.1072,-1.97338 -7.49134,-1.53285 -5.37014,0.43929 -6.76127,2.3399 -6.76127,2.3399 m 589.73569,-262.647 c 0,0 3.01757,-17.17279 22.06387,-30.06258 44.031,-29.79843 60.17201,-3.75914 115.29009,-29.87906 34.23832,-16.22522 38.99865,-59.059896 38.99865,-59.059896 m -16.55499,50.915376 c 0,0 3.19777,-6.6545 13.7166,-6.60222 10.51868,0.0522 14.85402,4.61707 14.85402,4.61707 m -19.68513,-9.74378 c 0.57294,-0.28859 3.36925,-4.70583 10.18333,-6.05032 9.22924,-1.82097 13.28776,2.16732 13.28776,2.16732 m -16.35185,-7.88259 c 0.57295,-0.2886 1.18224,-1.84103 6.63783,-3.97091 7.16146,-2.79576 11.49526,0.2079 11.49526,0.2079 m -13.64944,-6.78053 c 0.57295,-0.28863 2.79322,-3.58188 6.37638,-5.158198 5.09173,-2.239853 7.03803,-0.607246 7.03803,-0.607246 m -10.63615,-4.469265 c 0.57293,-0.288588 1.13736,-2.233909 3.53346,-3.720188 2.98139,-1.849271 5.15296,-0.984119 5.15296,-0.984119 m -8.38846,-3.964532 c 0.57294,-0.288602 1.48837,-1.808164 2.94275,-2.878586 1.6165,-1.18974 3.37367,-0.887118 3.37367,-0.887118 m -8.43196,-3.454348 c 0.64093,-0.0057 1.13641,-1.51729 1.9123,-2.952955 0.81334,-1.504276 2.46496,-1.572373 2.46496,-1.572373 M 160.04029,256.17179 c 0,0 -16.70628,-18.22443 -44.44041,-1.26961 -31.891054,19.49608 -44.673733,52.50474 -69.107876,65.29871 -53.2281202,27.8708 -90.493085,-1.81748 -90.493085,-1.81748 m 51.0885844,23.05343 c 0,0 -7.09271007,-2.04978 -14.0628735,5.82839 -6.9701009,7.87802 -6.4551479,14.15238 -6.4551479,14.15238 m 5.8516157,-21.17082 c -0.5969665,0.23494 -5.7539637,-0.62343 -11.2969807,3.56158 -7.507638,5.66835 -7.238155,11.35214 -7.238155,11.35214 m 5.018315,-17.44521 c -0.596972,0.23494 -2.160527,-0.34525 -7.383966,2.3035 -6.856628,3.47697 -7.504745,8.70992 -7.504745,8.70992 m 4.039315,-14.6958 c -0.596998,0.23485 -4.53205,-0.30402 -8.095039,1.3174 -5.062976,2.30411 -5.142537,4.84324 -5.142537,4.84324 m 3.754839,-10.90885 c -0.596943,0.23493 -2.423581,-0.6405 -5.12844,0.15577 -3.365529,0.99083 -4.167443,3.18653 -4.167443,3.18653 m 2.63345,-8.89656 c -0.596943,0.23494 -2.340007,-0.095 -4.107285,0.27613 -1.964264,0.41252 -2.909494,1.92445 -2.909494,1.92445 m 3.042861,-8.58905 c -0.431414,0.47405 -1.888619,-0.16362 -3.476126,-0.54172 -1.663609,-0.3959 -2.814939,0.79024 -2.814939,0.79024"
       transform="rotate(25.528916,819.21047,963.69307)" />
  </g>
  <g
     inkscape:label="Shape"
     id="g353">
    <path
       id="path255"
       style="opacity:1;stroke:#e8e2da;stroke-opacity:1;fill:none;fill-opacity:1;stroke-width:2;stroke-linecap:round;stroke-linejoin:round;stroke-dasharray:none;paint-order:stroke markers fill"
       inkscape:label="base"
       d="m 448.15926,61.157226 -88.45819,-1.365169 88.79804,-85.878879 -0.36408,87.248525 m -0.40658,-24.2887 -78.10733,-2.132548 55.17911,-53.012298 -1.32509,78.45683 m 24.23671,0.484682 -42.33372,-43.489419"
       transform="rotate(43.91037,432.70368,271.06449)" />
    <path
       id="circle265"
       style="display:inline;opacity:1;stroke:#e8e2da;stroke-opacity:1;fill:none;stroke-width:5;stroke-linecap:round;stroke-linejoin:round;paint-order:stroke markers fill"
       inkscape:label="circles"
       d="m 503.04819,177.57761 a 20.697548,20.697548 0 0 1 -20.69754,20.69754 20.697548,20.697548 0 0 1 -20.69755,-20.69754 20.697548,20.697548 0 0 1 20.69755,-20.69755 20.697548,20.697548 0 0 1 20.69754,20.69755 z m 29.20532,-5.07533 a 11.154489,11.154489 0 0 1 -3.5987,15.35886 11.154489,11.154489 0 0 1 -15.35887,-3.5987 11.154489,11.154489 0 0 1 3.59871,-15.35886 11.154489,11.154489 0 0 1 15.35886,3.5987 z m -82.64378,-1.096 a 11.154489,11.154489 0 0 1 -2.70958,15.54038 11.154489,11.154489 0 0 1 -15.54038,-2.70959 11.154489,11.154489 0 0 1 2.70958,-15.54038 11.154489,11.154489 0 0 1 15.54038,2.70959 z"
       transform="translate(106.84082,-150.83546)" />
    <path
       id="path347"
       style="display:inline;opacity:1;stroke:#e8e2da;stroke-opacity:1;fill:none;fill-opacity:1;stroke-width:5;stroke-linecap:round;stroke-linejoin:round;stroke-dasharray:none;paint-order:stroke markers fill"
       inkscape:label="vines"
       transform="rotate(25.528916,819.21047,963.69307)"
       d="m 264.13666,225.40179 c 0,0 22.63225,-56.72984 156.50473,-43.18779 101.48982,10.26633 42.44637,-97.410261 134.11728,-90.784681 96.12802,6.94772 109.60147,-39.37918 109.60147,-39.37918 m -22.53697,36.97282 c 0,0 20.66805,-12.225115 45.5886,-11.344723 16.18086,0.571636 22.03849,8.639764 22.03849,8.639764 M 673.95267,23.596144 c 0,0 -3.02963,1.981967 -1.55316,6.166706 1.87897,5.32538 7.03687,8.451393 8.80012,14.865305 2.43317,8.850838 -11.60857,24.111099 -11.60857,24.111099 0,0 15.62399,-9.99676 32.40103,-6.698848 12.03784,2.366316 13.96575,6.659057 20.29034,6.96272 10.36797,0.497826 11.64783,-6.799832 11.64783,-6.799832 M 687.02872,21.317078 c 0,0 -1.63422,2.102787 -0.24722,6.389369 1.13024,3.49289 5.40343,5.861348 6.5161,10.863218 1.35824,6.105748 -4.07147,13.255656 -4.07147,13.255656 0,0 9.46658,-5.288326 20.01977,-6.211677 8.13496,-0.711726 12.3818,1.972723 16.83967,1.953186 7.30782,-0.03204 8.91457,-3.598072 8.91457,-3.598072 m -36.4427,-28.006685 c 0,0 -2.06424,1.882255 -0.67915,5.177131 1.39918,3.328434 3.35298,3.905195 4.49156,6.943978 1.65108,4.406664 -0.91493,10.05391 -0.91493,10.05391 0,0 6.32913,-7.52747 14.38204,-9.092785 6.20756,-1.206694 9.45347,0.69601 12.84577,0.05563 6.33957,-1.196648 6.65559,-4.605917 6.65559,-4.605917 M 706.52806,8.2175696 c 0,0 -1.5944,1.3306644 -1.02976,3.7904264 0.59857,2.607296 2.4819,2.970744 3.29383,5.086707 1.35268,3.524972 0.12416,5.962935 0.12416,5.962935 0,0 4.50452,-5.721544 9.82147,-7.449125 4.09854,-1.331681 6.40672,-0.316924 9.82951,-0.845135 5.54791,-0.856148 4.30622,-5.061531 4.30622,-5.061531 M 712.65818,-2.7482467 c 0,0 -1.21992,0.5507509 -0.44253,2.47989694 0.45253,1.12288212 1.52373,0.79811338 2.41491,3.69732766 0.84954,2.764634 0.0426,5.1076764 0.0426,5.1076764 0,0 3.05806,-4.8301465 5.40533,-6.0602505 2.14749,-1.1253591 3.78663,-0.7773644 5.84372,-1.3932924 5.37753,-1.61054159 4.30618,-5.0615181 4.30618,-5.0615181 M 719.75774,-4.404344 c 0,0 6.76082,-8.154252 1.90145,-19.352368 -4.13129,-9.520422 -0.4024,-14.443259 -0.4024,-14.443259 m -6.09881,29.717147 c 0,0 2.85242,-3.782694 2.04038,-8.622746 -0.81204,-4.840071 -4.53842,-6.854876 -4.53842,-6.854876 m 12.98603,-3.014631 c 0,0 -0.20208,-2.87987 3.53595,-6.779879 3.72826,-3.889929 6.08055,-3.77052 6.08055,-3.77052 M 266.90943,206.04988 c 0,0 3.01757,-17.17279 22.06387,-30.06257 44.031,-29.79844 60.17201,-3.75915 115.29009,-29.87907 34.23832,-16.22522 38.99865,-59.059894 38.99865,-59.059894 m -16.55499,50.915374 c 0,0 3.19777,-6.6545 13.7166,-6.60222 10.51868,0.0522 14.85402,4.61707 14.85402,4.61707 m -19.68513,-9.74378 c 0.57294,-0.28859 3.36925,-4.70583 10.18333,-6.05032 9.22924,-1.82097 13.28775,2.16732 13.28775,2.16732 m -16.35184,-7.88259 c 0.57295,-0.2886 1.18224,-1.84102 6.63783,-3.97091 7.16146,-2.79576 11.49526,0.2079 11.49526,0.2079 m -13.64944,-6.78052 c 0.57295,-0.28864 2.79322,-3.58189 6.37638,-5.158206 5.09173,-2.239854 7.03803,-0.607246 7.03803,-0.607246 m -10.63615,-4.469265 c 0.57293,-0.288588 1.13736,-2.233909 3.53346,-3.720188 2.98139,-1.849272 5.15296,-0.984119 5.15296,-0.984119 m -8.38846,-3.964532 c 0.57294,-0.288602 1.48837,-1.808164 2.94275,-2.878587 1.6165,-1.189739 3.37367,-0.887118 3.37367,-0.887118 m -8.43196,-3.454347 c 0.64093,-0.0058 1.13641,-1.517291 1.9123,-2.952955 0.81334,-1.504277 2.46496,-1.572373 2.46496,-1.572373 M 176.78169,266.13402 c 0,0 -58.41884,-17.82506 -131.587868,95.09757 -55.470048,85.60756 -102.552627,-27.81028 -154.721752,47.85897 -54.70564,79.34835 -99.27904,60.88412 -99.27904,60.88412 m 43.11709,6.0412 c 0,0 -22.52322,8.32625 -37.55946,28.21896 -9.76301,12.9163 -7.19733,22.55081 -7.19733,22.55081 m -26.27855,-67.10848 c 0,0 3.44897,-1.10069 5.76484,2.68465 2.94707,4.81714 2.11922,10.79132 5.98395,16.2053 5.33309,7.47099 26.03174,6.20101 26.03174,6.20101 0,0 -17.61241,5.81785 -25.63598,20.91643 -5.75708,10.83354 -3.64216,15.03729 -7.39596,20.13648 -6.15362,8.35916 -12.62362,4.74905 -12.62362,4.74905 m -2.14155,-62.184 c 0,0 2.66252,0.0583 5.11384,3.83846 1.99742,3.08026 1.13981,7.89007 4.31921,11.90854 3.88107,4.90534 12.85408,5.20211 12.85408,5.20211 0,0 -10.07487,4.00993 -17.4481,11.61636 -5.68364,5.86347 -6.27944,10.85216 -9.10654,14.29897 -4.63449,5.65037 -8.4151,4.64776 -8.4151,4.64776 m 1.25524,-45.94419 c 0,0 2.76264,-0.41448 4.44566,2.73863 1.70014,3.18523 0.91528,5.06511 2.55506,7.86541 2.37793,4.06081 8.37856,5.63186 8.37856,5.63186 0,0 -9.83331,0.16298 -16.12756,5.42436 -4.85195,4.05566 -5.42299,7.77456 -8.05969,10.00291 -4.92743,4.16443 -7.77222,2.25915 -7.77222,2.25915 m 5.54304,-32.62251 c 0,0 2.03827,-0.39784 3.59078,1.59187 1.6456,2.1091 0.73965,3.79975 1.86941,5.76448 1.882,3.27311 4.54869,3.85765 4.54869,3.85765 0,0 -7.28107,-0.1137 -11.97543,2.92232 -3.61862,2.34031 -4.28715,4.77145 -6.85606,7.09422 -4.16385,3.76492 -6.64383,0.14875 -6.64383,0.14875 m 3.09064,-23.53958 c 0,0 1.19686,-0.59921 2.20343,1.22091 0.58587,1.05943 -0.34183,1.68578 1.34571,4.20606 1.60935,2.40311 3.93647,3.25491 3.93647,3.25491 0,0 -5.67697,-0.67384 -8.1121,0.37164 -2.22783,0.95651 -2.99173,2.44792 -4.76724,3.65563 -4.64176,3.15686 -6.6438,0.14872 -6.6438,0.14872 m 6.27419,-8.39352 c 0,0 -10.59197,0.10259 -16.21609,-10.73164 -4.78154,-9.21102 -10.95357,-9.42278 -10.95357,-9.42278 m 26.90636,14.01256 c 0,0 -4.73447,-0.17269 -7.97795,-3.8558 -3.24349,-3.68314 -2.45637,-7.84557 -2.45637,-7.84557 m -10.53057,8.17509 c 0,0 -2.1072,-1.97338 -7.49134,-1.53285 -5.37014,0.43929 -6.76127,2.3399 -6.76127,2.3399 M 160.04029,256.1718 c 0,0 -16.70628,-18.22444 -44.4404,-1.26962 -31.891062,19.49609 -44.673742,52.50474 -69.107885,65.29871 -53.2281189,27.87081 -90.493083,-1.81747 -90.493083,-1.81747 m 51.088584,23.05342 c 0,0 -7.09270992,-2.04978 -14.062874,5.82839 -6.970102,7.87802 -6.455148,14.15238 -6.455148,14.15238 m 5.8516145,-21.17083 c -0.5969713,0.23493 -5.7539635,-0.62342 -11.2969805,3.56159 -7.507637,5.66835 -7.238154,11.35214 -7.238154,11.35214 m 5.018315,-17.44521 c -0.59698,0.23491 -2.160528,-0.34525 -7.383965,2.3035 -6.856629,3.47697 -7.504746,8.70992 -7.504746,8.70992 m 4.039316,-14.6958 c -0.596989,0.23489 -4.53205,-0.30401 -8.095041,1.3174 -5.062975,2.30411 -5.142536,4.84324 -5.142536,4.84324 m 3.754838,-10.90886 c -0.596953,0.2349 -2.42358,-0.64048 -5.128438,0.15578 -3.365531,0.99082 -4.167443,3.18653 -4.167443,3.18653 m 2.633449,-8.89656 c -0.596953,0.2349 -2.340009,-0.095 -4.107286,0.27614 -1.964256,0.41255 -2.909494,1.92443 -2.909494,1.92443 m 3.042862,-8.58904 c -0.431415,0.47405 -1.888619,-0.16363 -3.476126,-0.54172 -1.663609,-0.3959 -2.814941,0.79024 -2.814941,0.79024" />
  </g>
</svg>
