<?xml version="1.0" encoding="UTF-8" standalone="no"?>
<!-- Created with Inkscape (http://www.inkscape.org/) -->

<svg
   width="1080mm"
   height="1920mm"
   viewBox="0 0 1080 1920"
   version="1.1"
   id="svg5"
   xml:space="preserve"
   inkscape:version="1.2.2 (b0a8486541, 2022-12-01)"
   sodipodi:docname="jl-site-frame-homepage-mobile.svg"
   xmlns:inkscape="http://www.inkscape.org/namespaces/inkscape"
   xmlns:sodipodi="http://sodipodi.sourceforge.net/DTD/sodipodi-0.dtd"
   xmlns:xlink="http://www.w3.org/1999/xlink"
   xmlns="http://www.w3.org/2000/svg"
   xmlns:svg="http://www.w3.org/2000/svg"><sodipodi:namedview
     id="namedview7"
     pagecolor="#505050"
     bordercolor="#ffffff"
     borderopacity="1"
     inkscape:showpageshadow="0"
     inkscape:pageopacity="0"
     inkscape:pagecheckerboard="1"
     inkscape:deskcolor="#505050"
     inkscape:document-units="mm"
     showgrid="false"
     inkscape:zoom="0.044016232"
     inkscape:cx="1737.9952"
     inkscape:cy="3510.0687"
     inkscape:window-width="1366"
     inkscape:window-height="722"
     inkscape:window-x="0"
     inkscape:window-y="0"
     inkscape:window-maximized="1"
     inkscape:current-layer="svg5" /><defs
     id="defs2"><linearGradient
       id="glow-master"><stop
         offset="0.0"
         style="stop-color:#000000;stop-opacity:0.0;"
         id="stop1899" /><stop
         offset="0.11"
         style="stop-color:#442204;stop-opacity:0.22;"
         id="stop1901" /><stop
         offset="0.22"
         style="stop-color:#69190d;stop-opacity:0.44;"
         id="stop1903" /><stop
         offset="0.33"
         style="stop-color:#a52c16;stop-opacity:0.659;"
         id="stop1905" /><stop
         offset="0.44"
         style="stop-color:#eb7513;stop-opacity:0.878;"
         id="stop1907" /><stop
         offset="0.55"
         style="stop-color:#f2c62a;stop-opacity:1.0;"
         id="stop1909" /><stop
         offset="0.66"
         style="stop-color:#5e9a0e;stop-opacity:0.878;"
         id="stop1911" /><stop
         offset="0.77"
         style="stop-color:#0e4d0e;stop-opacity:0.659;"
         id="stop1913" /><stop
         offset="0.88"
         style="stop-color:#073720;stop-opacity:0.44;"
         id="stop1915" /><stop
         offset="0.94"
         style="stop-color:#442204;stop-opacity:0.22;"
         id="stop1917" /><stop
         offset="1.0"
         style="stop-color:#000000;stop-opacity:0.0;"
         id="stop1919" /></linearGradient><linearGradient
       id="linearGradient6061-1"><stop
         style="stop-color:#e8e2da;stop-opacity:0;"
         offset="0"
         id="stop9525" /><stop
         style="stop-color:#69190d;stop-opacity:0.22;"
         offset="0.11359598"
         id="stop9527" /><stop
         style="stop-color:#a52c16;stop-opacity:0.55000001;"
         offset="0.22"
         id="stop9529" /><stop
         style="stop-color:#eb7513;stop-opacity:0.88;"
         offset="0.33000001"
         id="stop9531" /><stop
         style="stop-color:#f2c62a;stop-opacity:1;"
         offset="0.5"
         id="stop9533" /><stop
         style="stop-color:#5e9a0e;stop-opacity:0.88;"
         offset="0.66000003"
         id="stop9535" /><stop
         style="stop-color:#0e4d0e;stop-opacity:0.55000001;"
         offset="0.76999998"
         id="stop9537" /><stop
         style="stop-color:#073720;stop-opacity:0.22;"
         offset="0.88"
         id="stop9539" /><stop
         style="stop-color:#e8e2da;stop-opacity:0;"
         offset="1"
         id="stop9541" /></linearGradient><rect
       x="676.6927"
       y="29.501663"
       width="1725.2808"
       height="58.477051"
       id="rect6077" /><rect
       x="1797.4476"
       y="32.03938"
       width="1182.022"
       height="74.537186"
       id="rect6071" /><linearGradient
       id="linearGradient6061-2"><stop
         style="stop-color:#e8e2da;stop-opacity:0;"
         offset="0"
         id="stop6057" /><stop
         style="stop-color:#69190d;stop-opacity:0.22;"
         offset="0.11359598"
         id="stop2182" /><stop
         style="stop-color:#a52c16;stop-opacity:0.55000001;"
         offset="0.22"
         id="stop2186" /><stop
         style="stop-color:#eb7513;stop-opacity:0.88;"
         offset="0.33000001"
         id="stop6065" /><stop
         style="stop-color:#f2c62a;stop-opacity:1;"
         offset="0.5"
         id="stop2188" /><stop
         style="stop-color:#5e9a0e;stop-opacity:0.88;"
         offset="0.66000003"
         id="stop2184" /><stop
         style="stop-color:#0e4d0e;stop-opacity:0.55000001;"
         offset="0.76999998"
         id="stop2192" /><stop
         style="stop-color:#073720;stop-opacity:0.22;"
         offset="0.88"
         id="stop9504" /><stop
         style="stop-color:#000000;stop-opacity:0;"
         offset="1"
         id="stop6059" /></linearGradient><rect
       x="1144.2627"
       y="175.90457"
       width="600.52818"
       height="235.33107"
       id="rect22829" /><rect
       x="1152.7903"
       y="173.17295"
       width="642.74494"
       height="418.02634"
       id="rect22823" /><rect
       x="139.99581"
       y="174.04989"
       width="559.98791"
       height="395.49895"
       id="rect22817" /><rect
       x="145.0775"
       y="180.81232"
       width="697.10984"
       height="181.23741"
       id="rect22399" /><linearGradient
       id="linearGradient5077-1"><stop
         style="stop-color:#35031a;stop-opacity:1;"
         offset="0"
         id="stop6247" /><stop
         style="stop-color:#9f260a;stop-opacity:1;"
         offset="0.22"
         id="stop6249" /><stop
         style="stop-color:#d37a0d;stop-opacity:1;"
         offset="0.44"
         id="stop6251" /><stop
         style="stop-color:#076909;stop-opacity:1;"
         offset="0.76999998"
         id="stop6253" /><stop
         style="stop-color:#07466a;stop-opacity:1;"
         offset="0.88"
         id="stop6255" /><stop
         style="stop-color:#35031a;stop-opacity:1"
         offset="1"
         id="stop6257" /></linearGradient><linearGradient
       id="linearGradient5077"><stop
         style="stop-color:#35031a;stop-opacity:1"
         offset="0"
         id="stop6244" /><stop
         style="stop-color:#07466a;stop-opacity:1;"
         offset="0.14491931"
         id="stop6242" /><stop
         style="stop-color:#076909;stop-opacity:1;"
         offset="0.46923536"
         id="stop6240" /><stop
         style="stop-color:#d37a0d;stop-opacity:1;"
         offset="0.74955529"
         id="stop6238" /><stop
         style="stop-color:#9f260a;stop-opacity:1;"
         offset="0.8828578"
         id="stop6236" /><stop
         style="stop-color:#35031a;stop-opacity:1;"
         offset="1"
         id="stop6234" /></linearGradient><linearGradient
       id="linearGradient5978"><stop
         style="stop-color:#35031a;stop-opacity:1;"
         offset="0"
         id="stop5966" /><stop
         style="stop-color:#9f260a;stop-opacity:1;"
         offset="0.22"
         id="stop5968" /><stop
         style="stop-color:#d37a0d;stop-opacity:1;"
         offset="0.44"
         id="stop5970" /><stop
         style="stop-color:#076909;stop-opacity:1;"
         offset="0.76999998"
         id="stop5972" /><stop
         style="stop-color:#07466a;stop-opacity:1;"
         offset="0.88"
         id="stop5974" /><stop
         style="stop-opacity:0"
         offset="1"
         id="stop5976" /></linearGradient><linearGradient
       id="linearGradient5077-2"><stop
         style="stop-color:#35031a;stop-opacity:1;"
         offset="0"
         id="stop5065" /><stop
         style="stop-color:#9f260a;stop-opacity:1;"
         offset="0.33126885"
         id="stop5067" /><stop
         style="stop-color:#d37a0d;stop-opacity:1;"
         offset="0.33126885"
         id="stop5069" /><stop
         style="stop-color:#076909;stop-opacity:1;"
         offset="0.76338273"
         id="stop5071" /><stop
         style="stop-color:#07466a;stop-opacity:1;"
         offset="0.88"
         id="stop5073" /><stop
         style="stop-color:#35031a;stop-opacity:1"
         offset="1"
         id="stop5075" /></linearGradient><linearGradient
       id="linearGradient4914"><stop
         style="stop-color:#000000;stop-opacity:1;"
         offset="0"
         id="stop4918" /><stop
         style="stop-color:#000000;stop-opacity:0;"
         offset="1"
         id="stop4920" /></linearGradient><linearGradient
       id="linearGradient4914-1"
       inkscape:swatch="gradient"><stop
         style="stop-color:#000000;stop-opacity:1;"
         offset="0"
         id="stop4910" /><stop
         style="stop-color:#000000;stop-opacity:0;"
         offset="1"
         id="stop4912" /></linearGradient><linearGradient
       id="Rainbowie"
       inkscape:swatch="gradient"><stop
         style="stop-color:#35031a;stop-opacity:1;"
         offset="0.11"
         id="stop4760" /><stop
         style="stop-color:#6a1907;stop-opacity:1;"
         offset="0.22"
         id="stop4762" /><stop
         style="stop-color:#d3560d;stop-opacity:1;"
         offset="0.44"
         id="stop4764" /><stop
         style="stop-color:#d29e0e;stop-opacity:1;"
         offset="0.55000001"
         id="stop4766" /><stop
         style="stop-color:#07692e;stop-opacity:1;"
         offset="0.88"
         id="stop4768" /><stop
         style="stop-color:#076769;stop-opacity:1;"
         offset="0.99880683"
         id="stop4770" /></linearGradient><linearGradient
       id="Rainbowie-10"><stop
         style="stop-color:#35031a;stop-opacity:1;"
         offset="0.11"
         id="stop4760-6" /><stop
         style="stop-color:#6a1907;stop-opacity:1;"
         offset="0.22"
         id="stop4762-1" /><stop
         style="stop-color:#d3560d;stop-opacity:1;"
         offset="0.44"
         id="stop4764-5" /><stop
         style="stop-color:#d29e0e;stop-opacity:1;"
         offset="0.55000001"
         id="stop4766-9" /><stop
         style="stop-color:#07692e;stop-opacity:1;"
         offset="0.88"
         id="stop4768-4" /><stop
         style="stop-color:#076769;stop-opacity:1;"
         offset="0.99880683"
         id="stop4770-9" /></linearGradient><linearGradient
       xlink:href="#linearGradient5077-1"
       id="linearGradient5021"
       x1="150.16481"
       y1="468.45493"
       x2="240.06136"
       y2="600.76404"
       gradientUnits="userSpaceOnUse" /><linearGradient
       xlink:href="#linearGradient5077-1"
       id="linearGradient5055"
       x1="673.78912"
       y1="67.176918"
       x2="440.46896"
       y2="549.38538"
       gradientUnits="userSpaceOnUse" /><linearGradient
       xlink:href="#linearGradient5077-1"
       id="linearGradient5063"
       x1="272.62979"
       y1="233.06071"
       x2="602.46735"
       y2="389.97263"
       gradientUnits="userSpaceOnUse" /><linearGradient
       xlink:href="#linearGradient5077-1"
       id="linearGradient5085"
       x1="240.41537"
       y1="575.26831"
       x2="740.96198"
       y2="169.36858"
       gradientUnits="userSpaceOnUse" /><linearGradient
       xlink:href="#linearGradient5077-1"
       id="linearGradient5093"
       x1="203.44667"
       y1="318.94632"
       x2="563.63208"
       y2="842.80829"
       gradientUnits="userSpaceOnUse" /><rect
       x="676.6927"
       y="29.501663"
       width="264.4473"
       height="96.707763"
       id="rect10974" /><rect
       x="676.6927"
       y="29.501663"
       width="264.4473"
       height="96.707763"
       id="rect11029" /><rect
       x="676.6927"
       y="29.501663"
       width="264.4473"
       height="96.707763"
       id="rect11057" /><rect
       x="676.6927"
       y="29.501663"
       width="264.4473"
       height="96.707763"
       id="rect11068" /><rect
       x="676.6927"
       y="29.501663"
       width="264.4473"
       height="96.707763"
       id="rect11085" /><filter
       id="glow-filter-statics"
       x="-0.034142926"
       y="-0.034904367"
       width="1.0682865"
       height="1.0698093"><feGaussianBlur
         stdDeviation="3"
         id="feGaussianBlur101107" /></filter><filter
       id="glow-filter-geometrics"
       x="-0.089845812"
       y="-0.055204272"
       width="1.1796916"
       height="1.1104085"><feGaussianBlur
         stdDeviation="3"
         id="feGaussianBlur101110" /></filter><filter
       id="glow-filter-organics"
       x="-0.059221462"
       y="-0.041409117"
       width="1.1184429"
       height="1.0828182"><feGaussianBlur
         stdDeviation="3"
         id="feGaussianBlur101113" /></filter><linearGradient
       xlink:href="#glow-master"
       id="glow-applied-1"
       gradientUnits="userSpaceOnUse"
       x1="281.86696993774086"
       y1="186.9452441911846"
       x2="-43.61911993774085"
       y2="68.47799580881538" /><linearGradient
       xlink:href="#glow-master"
       id="glow-applied-2"
       gradientUnits="userSpaceOnUse"
       x1="216.68970353643374"
       y1="110.60927970058387"
       x2="543.0650597468217"
       y2="226.60415243322882" /><linearGradient
       xlink:href="#glow-master"
       id="glow-applied-3"
       gradientUnits="userSpaceOnUse"
       x1="294.6873211984884"
       y1="136.03230400704985"
       x2="610.262673451882"
       y2="-6.7538321962478705" /><linearGradient
       xlink:href="#glow-master"
       id="glow-applied-9"
       gradientUnits="userSpaceOnUse"
       x1="184.00111602792597"
       y1="-32.86506259979724"
       x2="54.246733972074026"
       y2="288.28830259979725" /><linearGradient
       xlink:href="#glow-master"
       id="glow-applied-10"
       gradientUnits="userSpaceOnUse"
       x1="542.801336027926"
       y1="93.05764740020275"
       x2="413.04695397207405"
       y2="414.21101259979724" /><linearGradient
       xlink:href="#glow-master"
       id="glow-applied-18"
       gradientUnits="userSpaceOnUse"
       x1="119.12392499999999"
       y1="-45.47591104779231"
       x2="119.12392500000001"
       y2="300.8991510477923" /><linearGradient
       xlink:href="#glow-master"
       id="glow-applied-19"
       gradientUnits="userSpaceOnUse"
       x1="477.924145"
       y1="80.44679895220769"
       x2="477.92414500000007"
       y2="426.8218610477923" /><linearGradient
       xlink:href="#glow-master"
       id="glow-applied-20"
       gradientUnits="userSpaceOnUse"
       x1="459.0832310477923"
       y1="187.789775"
       x2="112.7081689522077"
       y2="187.78977500000002" /><linearGradient
       xlink:href="#glow-master"
       id="glow-applied-29"
       gradientUnits="userSpaceOnUse"
       x1="461.0832310477923"
       y1="188.931035"
       x2="114.7081689522077"
       y2="188.93103499999998" /><filter
       id="glow-filter-statics-2"
       x="-0.01849793"
       y="-0.036482185"
       width="1.0369962"
       height="1.072965"><feGaussianBlur
         stdDeviation="3"
         id="feGaussianBlur104238" /></filter><filter
       id="glow-filter-geometrics-4"
       x="-0.059689481"
       y="-0.21876775"
       width="1.119379"
       height="1.4375355"><feGaussianBlur
         stdDeviation="3"
         id="feGaussianBlur104241" /></filter><filter
       id="glow-filter-organics-9"
       x="-0.013237407"
       y="-0.036726714"
       width="1.0264748"
       height="1.0734539"><feGaussianBlur
         stdDeviation="3"
         id="feGaussianBlur104244" /></filter><linearGradient
       xlink:href="#glow-master"
       id="glow-applied-1-9"
       gradientUnits="userSpaceOnUse"
       x1="497.98253391054874"
       y1="-219.789486656566"
       x2="229.6132260894513"
       y2="517.5491266565659" /><linearGradient
       xlink:href="#glow-master"
       id="glow-applied-2-9"
       gradientUnits="userSpaceOnUse"
       x1="525.0361119105487"
       y1="-163.750041656566"
       x2="256.6668040894513"
       y2="573.5885716565659" /><linearGradient
       xlink:href="#glow-master"
       id="glow-applied-3-4"
       gradientUnits="userSpaceOnUse"
       x1="669.3743419105488"
       y1="-54.187561656566004"
       x2="401.0050340894513"
       y2="683.1510516565659" /><linearGradient
       xlink:href="#glow-master"
       id="glow-applied-9-9"
       gradientUnits="userSpaceOnUse"
       x1="0.0361336106153658"
       y1="1.9105345030914407"
       x2="727.5596263893847"
       y2="295.8491054969086" /><linearGradient
       xlink:href="#glow-master"
       id="glow-applied-10-8"
       gradientUnits="userSpaceOnUse"
       x1="171.42794361061536"
       y1="167.51246450309145"
       x2="898.9514363893846"
       y2="461.4510354969086" /><linearGradient
       xlink:href="#glow-master"
       id="glow-applied-11"
       gradientUnits="userSpaceOnUse"
       x1="-189.0365228558783"
       y1="70.03425163293498"
       x2="389.54942411065934"
       y2="600.0612490922551" /><linearGradient
       xlink:href="#glow-master"
       id="glow-applied-16"
       gradientUnits="userSpaceOnUse"
       x1="-28.53180153802333"
       y1="148.87982"
       x2="756.1275615380234"
       y2="148.87982" /><linearGradient
       xlink:href="#glow-master"
       id="glow-applied-17"
       gradientUnits="userSpaceOnUse"
       x1="151.88952608437597"
       y1="326.7333311804086"
       x2="935.0746502117377"
       y2="374.8101177672469" /><linearGradient
       xlink:href="#glow-master"
       id="glow-applied-18-1"
       gradientUnits="userSpaceOnUse"
       x1="309.46558311667775"
       y1="359.9430179541543"
       x2="494.4496199431885"
       y2="-402.5995855653313" /><linearGradient
       xlink:href="#glow-master"
       id="glow-applied-27"
       gradientUnits="userSpaceOnUse"
       x1="325.0228860899596"
       y1="94.62593890469084"
       x2="622.4539743849498"
       y2="1139.1472967994782" /><filter
       id="glow-filter-statics-4"
       x="-0.016460317"
       y="-0.016915177"
       width="1.0329209"
       height="1.0338306"><feGaussianBlur
         stdDeviation="3"
         id="feGaussianBlur104664" /></filter><filter
       id="glow-filter-geometrics-0"
       x="-0.10131056"
       y="-0.091394094"
       width="1.2026211"
       height="1.1827882"><feGaussianBlur
         stdDeviation="3"
         id="feGaussianBlur104667" /></filter><filter
       id="glow-filter-organics-3"
       x="-0.01468831"
       y="-0.022513554"
       width="1.0293766"
       height="1.0450271"><feGaussianBlur
         stdDeviation="3"
         id="feGaussianBlur104670" /></filter><linearGradient
       xlink:href="#glow-master"
       id="glow-applied-1-5"
       gradientUnits="userSpaceOnUse"
       x1="470.4503345058871"
       y1="-130.77032070338703"
       x2="184.36100549411285"
       y2="655.253650703387" /><linearGradient
       xlink:href="#glow-master"
       id="glow-applied-3-5"
       gradientUnits="userSpaceOnUse"
       x1="614.788564505887"
       y1="-21.207840703387035"
       x2="328.6992354941128"
       y2="764.816130703387" /><linearGradient
       xlink:href="#glow-master"
       id="glow-applied-10-9"
       gradientUnits="userSpaceOnUse"
       x1="-60.37471662329148"
       y1="105.56821893969365"
       x2="715.1860566232915"
       y2="418.91511106030634" /><linearGradient
       xlink:href="#glow-master"
       id="glow-applied-11-9"
       gradientUnits="userSpaceOnUse"
       x1="83.96351337670853"
       y1="215.13069893969364"
       x2="859.5242866232916"
       y2="528.4775910603064" /><linearGradient
       xlink:href="#glow-master"
       id="glow-applied-12"
       gradientUnits="userSpaceOnUse"
       x1="-287.63631780422924"
       y1="84.02007456704607"
       x2="329.1527878026012"
       y2="649.0439563678165" /><linearGradient
       xlink:href="#glow-master"
       id="glow-applied-17-0"
       gradientUnits="userSpaceOnUse"
       x1="-90.82894950216547"
       y1="262.241665"
       x2="745.6402895021654"
       y2="262.241665" /><linearGradient
       xlink:href="#glow-master"
       id="glow-applied-18-2"
       gradientUnits="userSpaceOnUse"
       x1="59.194478466792106"
       y1="378.4734319135356"
       x2="894.0921367450829"
       y2="429.7246563077939" /><linearGradient
       xlink:href="#glow-master"
       id="glow-applied-19-4"
       gradientUnits="userSpaceOnUse"
       x1="160.50477587567255"
       y1="554.7440391723701"
       x2="1091.6010497661186"
       y2="-133.33447991388354" /><linearGradient
       xlink:href="#glow-master"
       id="glow-applied-24"
       gradientUnits="userSpaceOnUse"
       x1="344.1077662208541"
       y1="460.28906434601265"
       x2="541.3060203850937"
       y2="-352.60307877942085" /><linearGradient
       xlink:href="#glow-master"
       id="glow-applied-33"
       gradientUnits="userSpaceOnUse"
       x1="34.997734537319786"
       y1="332.05097097865166"
       x2="836.8867671061198"
       y2="570.0735901692622" /><linearGradient
       xlink:href="#glow-master"
       id="glow-applied-42"
       gradientUnits="userSpaceOnUse"
       x1="85.72171555023576"
       y1="-25.25885190711773"
       x2="1166.8609192636366"
       y2="388.9033626583154" /><filter
       id="glow-filter-statics-1"
       x="-0.016460317"
       y="-0.016915177"
       width="1.0329209"
       height="1.0338306"><feGaussianBlur
         stdDeviation="3"
         id="feGaussianBlur2010" /></filter><filter
       id="glow-filter-geometrics-2"
       x="-0.078657362"
       y="-0.13644734"
       width="1.1573227"
       height="1.2729085"><feGaussianBlur
         stdDeviation="3"
         id="feGaussianBlur2013" /></filter><filter
       id="glow-filter-organics-93"
       x="-0.013931181"
       y="-0.021353451"
       width="1.0278624"
       height="1.0427065"><feGaussianBlur
         stdDeviation="3"
         id="feGaussianBlur2016" /></filter><filter
       id="glow-filter-statics-0"
       x="-0.01849793"
       y="-0.036482185"
       width="1.0369962"
       height="1.072965"><feGaussianBlur
         stdDeviation="3"
         id="feGaussianBlur4634" /></filter><filter
       id="glow-filter-geometrics-6"
       x="-0.059689481"
       y="-0.21876775"
       width="1.119379"
       height="1.4375355"><feGaussianBlur
         stdDeviation="3"
         id="feGaussianBlur4637" /></filter><filter
       id="glow-filter-organics-8"
       x="-0.081533292"
       y="-0.088496479"
       width="1.1629694"
       height="1.176994"><feGaussianBlur
         stdDeviation="3"
         id="feGaussianBlur4640" /></filter><filter
       id="glow-filter-statics-9"
       x="-0.01849793"
       y="-0.061762975"
       width="1.0369962"
       height="1.123527"><feGaussianBlur
         stdDeviation="3"
         id="feGaussianBlur5622" /></filter><filter
       id="glow-filter-geometrics-3"
       x="-0.29543535"
       y="-0.29543535"
       width="1.5908707"
       height="1.5908707"><feGaussianBlur
         stdDeviation="3"
         id="feGaussianBlur5625" /></filter><filter
       id="glow-filter-organics-90"
       x="-0.014300836"
       y="-0.098312859"
       width="1.0281858"
       height="1.1969629"><feGaussianBlur
         stdDeviation="3"
         id="feGaussianBlur5628" /></filter><linearGradient
       xlink:href="#glow-master"
       id="glow-applied-1-8"
       gradientUnits="userSpaceOnUse"
       x1="491.538689471146"
       y1="-276.10520579240085"
       x2="237.51984052885405"
       y2="421.8058457924009" /><linearGradient
       xlink:href="#glow-master"
       id="glow-applied-2-8"
       gradientUnits="userSpaceOnUse"
       x1="518.592267471146"
       y1="-225.32247079240085"
       x2="264.57341852885406"
       y2="472.5885807924009" /><linearGradient
       xlink:href="#glow-master"
       id="glow-applied-3-50"
       gradientUnits="userSpaceOnUse"
       x1="662.930497471146"
       y1="-115.75999079240086"
       x2="408.9116485288541"
       y2="582.1510607924008" /><linearGradient
       xlink:href="#glow-master"
       id="glow-applied-8"
       gradientUnits="userSpaceOnUse"
       x1="20.21887847596645"
       y1="-66.2601059831493"
       x2="708.8396515240336"
       y2="211.9607459831493" /><linearGradient
       xlink:href="#glow-master"
       id="glow-applied-9-96"
       gradientUnits="userSpaceOnUse"
       x1="191.61068847596644"
       y1="94.08511401685071"
       x2="880.2314615240335"
       y2="372.30596598314935" /><linearGradient
       xlink:href="#glow-master"
       id="glow-applied-10-3"
       gradientUnits="userSpaceOnUse"
       x1="-144.4257666629008"
       y1="8.318780139801156"
       x2="403.2215684809576"
       y2="510.0037488721732" /><linearGradient
       xlink:href="#glow-master"
       id="glow-applied-11-8"
       gradientUnits="userSpaceOnUse"
       x1="-6.821449130917813"
       y1="72.85032"
       x2="735.8799791309178"
       y2="72.85032" /><linearGradient
       xlink:href="#glow-master"
       id="glow-applied-12-5"
       gradientUnits="userSpaceOnUse"
       x1="178.53957069959242"
       y1="246.93005455115545"
       x2="919.84559170025"
       y2="292.4360406446696" /><linearGradient
       xlink:href="#glow-master"
       id="glow-applied-13"
       gradientUnits="userSpaceOnUse"
       x1="192.78451891313256"
       y1="170.1310443305959"
       x2="814.1245164478995"
       y2="989.0681778015513" /><linearGradient
       xlink:href="#glow-master"
       id="glow-applied-21"
       gradientUnits="userSpaceOnUse"
       x1="178.74149815613637"
       y1="241.471000595806"
       x2="921.3836269939569"
       y2="250.85588061687397" /><filter
       id="glow-filter-statics-6"
       x="-0.0082651557"
       y="-0.0040555248"
       width="1.0165301"
       height="1.0081111"><feGaussianBlur
         stdDeviation="3"
         id="feGaussianBlur9688" /></filter><filter
       id="glow-filter-geometrics-9"
       x="-0.0099399365"
       y="-0.0048817136"
       width="1.019881"
       height="1.0097656"><feGaussianBlur
         stdDeviation="3"
         id="feGaussianBlur9691" /></filter><filter
       id="glow-filter-organics-2"
       x="-0.0073458881"
       y="-0.0055554965"
       width="1.0146918"
       height="1.0111129"><feGaussianBlur
         stdDeviation="3"
         id="feGaussianBlur9694" /></filter><linearGradient
       xlink:href="#glow-master"
       id="glow-applied-1-2"
       gradientUnits="userSpaceOnUse"
       x1="506.19007541281235"
       y1="514.5720954523736"
       x2="-242.93695541281235"
       y2="241.9121545476264" /><linearGradient
       xlink:href="#glow-master"
       id="glow-applied-2-4"
       gradientUnits="userSpaceOnUse"
       x1="755.3964054128123"
       y1="247.40007454762645"
       x2="6.269374587187656"
       y2="520.0600154523736" /><linearGradient
       xlink:href="#glow-master"
       id="glow-applied-3-7"
       gradientUnits="userSpaceOnUse"
       x1="777.6542598505803"
       y1="-139.03054039480298"
       x2="427.06238805438744"
       y2="576.9443831313207" /><linearGradient
       xlink:href="#glow-master"
       id="glow-applied-6"
       gradientUnits="userSpaceOnUse"
       x1="280.9455600889132"
       y1="8.664630914664258"
       x2="-17.692440088913173"
       y2="747.8196190853357" /><linearGradient
       xlink:href="#glow-master"
       id="glow-applied-7"
       gradientUnits="userSpaceOnUse"
       x1="631.5437100889133"
       y1="-427.42330908533575"
       x2="332.9057099110868"
       y2="311.7316790853357" /><linearGradient
       xlink:href="#glow-master"
       id="glow-applied-11-81"
       gradientUnits="userSpaceOnUse"
       x1="131.62655999999998"
       y1="-20.36004248275367"
       x2="131.62656000000004"
       y2="776.8442924827536" /><linearGradient
       xlink:href="#glow-master"
       id="glow-applied-12-2"
       gradientUnits="userSpaceOnUse"
       x1="484.22470999999996"
       y1="-480.4479824827537"
       x2="484.22471"
       y2="316.75635248275364" /><linearGradient
       xlink:href="#glow-master"
       id="glow-applied-13-8"
       gradientUnits="userSpaceOnUse"
       x1="600.3998088378382"
       y1="-248.87855484611296"
       x2="109.49201041038214"
       y2="379.24904774026055" /><linearGradient
       xlink:href="#glow-master"
       id="glow-applied-22"
       gradientUnits="userSpaceOnUse"
       x1="817.7407935822188"
       y1="422.4336317704509"
       x2="47.867161837514686"
       y2="215.48111829932475" /><linearGradient
       xlink:href="#glow-master"
       id="glow-applied-31"
       gradientUnits="userSpaceOnUse"
       x1="724.6716006574251"
       y1="-118.34118863569549"
       x2="91.24320314524209"
       y2="365.7075867092534" /><linearGradient
       inkscape:collect="always"
       xlink:href="#glow-master"
       id="linearGradient9980"
       gradientUnits="userSpaceOnUse"
       x1="631.5437100889133"
       y1="-427.42330908533575"
       x2="332.9057099110868"
       y2="311.7316790853357" /></defs><g
     inkscape:label="Glow"
     transform="matrix(0.98571621,0,0,0.98571621,820.4681,1220.7138)"
     id="g9787"><path
       id="path12841"
       style="fill:none;stroke:url(#glow-applied-3-7);filter:url(#glow-filter-statics-6);opacity:1;stroke-opacity:1;fill-opacity:1;stroke-width:2;stroke-linecap:round;stroke-linejoin:round;stroke-dasharray:none;paint-order:stroke markers fill"
       inkscape:label="statics"
       transform="matrix(0.72042565,-0.69353219,-0.69353219,-0.72042565,-150.47416,953.73918)"
       d="M 464.80403,78.447441 321.17459,77.447386 466.16584,-62.527004 464.7798,78.451918 M 417.19644,28.970942 387.34629,-1.550817 m -19.90604,79.011556 97.71466,-94.002085 M 1312.3253,1625.4601 c 0,0 8.9509,12.3732 -28.1415,50.0896 -18.9049,19.223 -58.148,70.2748 -51.4415,78.381 m -256.21684,138.6975 c 0,0 6.0352,-3.5824 -4.01025,-24.6833 -12.87313,-27.0405 -77.54707,-62.8332 -51.51872,-91.9846 m 391.40061,-144.3187 -326.04726,314.4728 89.65426,2.4224 -157.35887,-163.3619 m 316.19057,-44.0924 -226.1368,217.9168 42.6517,0.3729 -72.79558,-74.937 m 54.97248,-33.9399 -3.2211,96.6204 m -48.44268,-97.1488 101.82988,1.2477" /><path
       id="path13801"
       style="display:inline;fill:none;stroke:url(#linearGradient9980);filter:url(#glow-filter-geometrics-9);opacity:1;stroke-opacity:1;stroke-width:4;stroke-linecap:round;stroke-linejoin:round;paint-order:stroke markers fill"
       inkscape:label="geometrics"
       transform="translate(-350.59816,436.08795)"
       d="m 507.70669,178.57735 a 26.676235,26.676235 0 0 1 -26.67623,26.67623 26.676235,26.676235 0 0 1 -26.67624,-26.67623 26.676235,26.676235 0 0 1 26.67624,-26.67624 26.676235,26.676235 0 0 1 26.67623,26.67624 z m -12.5081,44.44223 a 14.651413,14.651413 0 0 1 -14.65141,14.65141 14.651413,14.651413 0 0 1 -14.65141,-14.65141 14.651413,14.651413 0 0 1 14.65141,-14.65142 14.651413,14.651413 0 0 1 14.65141,14.65142 z m -9.40644,22.38905 a 5.2434464,5.2434464 0 0 1 -5.24344,5.24345 5.2434464,5.2434464 0 0 1 -5.24345,-5.24345 5.2434464,5.2434464 0 0 1 5.24345,-5.24345 5.2434464,5.2434464 0 0 1 5.24344,5.24345 z M -386.65047,-1573.2624 a 16.057866,16.057866 0 0 1 -9.42028,20.6632 16.057866,16.057866 0 0 1 -20.66321,-9.4203 16.057866,16.057866 0 0 1 9.42026,-20.6632 16.057866,16.057866 0 0 1 20.66323,9.4203 z m 19.65751,-23.4446 a 10.359916,10.359916 0 0 1 -6.07759,13.3311 10.359916,10.359916 0 0 1 -13.33112,-6.0776 10.359916,10.359916 0 0 1 6.07761,-13.3311 10.359916,10.359916 0 0 1 13.3311,6.0776 z m 26.71783,-14.6327 a 7.8854495,7.8854495 0 0 1 -4.62596,10.147 7.8854495,7.8854495 0 0 1 -10.14698,-4.626 7.8854495,7.8854495 0 0 1 4.62597,-10.1469 7.8854495,7.8854495 0 0 1 10.14697,4.6259 z m 32.14353,-11.5352 a 6.7144883,6.7144883 0 0 1 -3.93903,8.6402 6.7144883,6.7144883 0 0 1 -8.64018,-3.939 6.7144883,6.7144883 0 0 1 3.93902,-8.6402 6.7144883,6.7144883 0 0 1 8.64019,3.939 z m 35.60942,-7.3917 a 4.3205064,4.3205064 0 0 1 -2.5346,5.5596 4.3205064,4.3205064 0 0 1 -5.55962,-2.5346 4.3205064,4.3205064 0 0 1 2.53461,-5.5596 4.3205064,4.3205064 0 0 1 5.55961,2.5346 z" /><path
       id="path2178"
       style="display:inline;fill:none;stroke:url(#glow-applied-31);filter:url(#glow-filter-organics-2);opacity:1;stroke-opacity:1;fill-opacity:1;stroke-width:5;stroke-linecap:round;stroke-linejoin:round;stroke-dasharray:none;paint-order:stroke markers fill"
       inkscape:label="organics"
       transform="rotate(-52.613921,527.24365,530.43365)"
       d="m 251.71315,243.35243 c 0,0 25.52221,5.62565 76.07573,-30.32393 C 428.85711,141.15692 419.98946,20.900673 549.05832,5.5737761 637.30052,-4.9049647 631.75919,-31.033945 631.75919,-31.033945 M 599.8202,6.9980748 c 0,0 21.86395,-9.92923 46.54492,-6.37134 16.0253,2.31013 20.98038,10.9619302 20.98038,10.9619302 m -26.53952,-64.17859 c 0,0 -3.22538,1.64432 -2.20796,5.96368 1.29479,5.4967 6.08622,9.15978 7.14879,15.72623 1.46626,9.06133 -14.1366,22.7213698 -14.1366,22.7213698 0,0 16.60932,-8.2567998 32.93386,-3.1720598 11.71317,3.6483998 13.16778,8.1237298 19.42293,9.1064498 10.25413,1.61101 12.31212,-5.50647 12.31212,-5.50647 M 654.05138,-53.448155 c 0,0 -1.85108,1.91465 -0.93357,6.32563 0.74767,3.59426 4.74107,6.40895 5.30884,11.50153 0.69309,6.21648 -5.47474,12.74035 -5.47474,12.74035 0,0 9.98085,-4.23855 20.57211,-4.02052 8.1643,0.16811 12.0975,3.29412 16.53156,3.75457 7.26881,0.75481 9.25009,-2.61754 9.25009,-2.61754 m -33.21611,-31.76688 c 0,0 -2.25486,1.64911 -1.2325,5.07394 1.03275,3.45971 2.91311,4.24344 3.71796,7.38713 1.16712,4.55879 -1.99188,9.897 -1.99188,9.897 0,0 7.10266,-6.80242 15.27728,-7.49177 6.30138,-0.53146 9.32361,1.7096 12.76513,1.43811 6.43155,-0.50726 7.11273,-3.8627 7.11273,-3.8627 m -26.89074,-19.2832 c 0,0 -1.72838,1.1513 -1.43181,3.65755 0.31443,2.65658 2.14769,3.22065 2.72713,5.41172 0.96536,3.6501 -0.51846,5.94165 -0.51846,5.94165 0,0 5.09426,-5.2034 10.56628,-6.34859 4.21807,-0.88275 6.40361,0.37458 9.86337,0.21789 5.60783,-0.25396 4.82605,-4.56857 4.82605,-4.56857 m -18.75763,-14.55386 c 0,0 -1.27212,0.41623 -0.70691,2.41785 0.32902,1.16507 1.42896,0.9575 2.00287,3.9358 0.547,2.84002 -0.5075,5.08258 -0.5075,5.08258 0,0 3.56024,-4.47289 6.02629,-5.44317 2.25615,-0.88765 3.8483,-0.36523 5.95974,-0.75614 5.51965,-1.02231 4.82602,-4.56856 4.82602,-4.56856 m -10.36393,-1.55059 c 0,0 7.59931,-7.37909 3.97362,-19.03523 -3.08244,-9.909825 1.1547,-14.402655 1.1547,-14.402655 m -9.26232,28.887955 c 0,0 3.24304,-3.45366 2.95674,-8.353 -0.28631,-4.89936 -3.77415,-7.30359 -3.77415,-7.30359 m 13.23509,-1.59921 c 0,0 0.1091,-2.884895 4.24523,-6.359855 4.12534,-3.46599 6.4511,-3.09406 6.4511,-3.09406 M 221.29699,237.90014 c 0,0 44.84982,-12.79839 76.68157,-34.02769 15.84098,-10.56472 26.68018,-20.32841 43.09622,-45.05781 28.85623,-43.46954 14.25947,-72.153247 14.25947,-72.153247 m 1.58878,54.960107 c 0,0 0.83211,-7.33592 10.78335,-10.74494 9.95109,-3.40901 15.54623,-0.52332 15.54623,-0.52332 m -21.79433,-2.73 c 0.44625,-0.4609 1.63476,-5.55196 7.62799,-9.06204 8.11744,-4.75414 13.26161,-2.32194 13.26161,-2.32194 m -18.03445,-2.06819 c 0.44626,-0.4609 0.5112,-2.12738 4.96327,-5.93254 5.84412,-4.99489 10.92454,-3.58308 10.92454,-3.58308 m -15.11993,-1.9159 c 0.44618,-0.46098 1.46028,-4.301109 4.32599,-6.967866 4.07223,-3.789389 6.4471,-2.88746 6.4471,-2.88746 m -11.51426,-0.723826 c 0.44616,-0.460945 0.33967,-2.483668 2.11389,-4.675108 2.20765,-2.726683 4.54294,-2.623608 4.54294,-2.623608 m -9.22559,-0.986166 c 0.44624,-0.460891 0.81115,-2.196982 1.83274,-3.686068 1.13546,-1.655068 2.89445,-1.947003 2.89445,-1.947003 m -9.09893,-0.490028 c 0.60341,-0.216172 0.57442,-1.806571 0.83517,-3.417516 0.27353,-1.688044 1.81093,-2.295399 1.81093,-2.295399 M 247.68827,270.23522 c 0,0 66.2145,3.81968 132.49852,-42.14839 C 444.31282,183.61531 448.97219,106.95407 498.7427,90.9351 612.50519,54.319863 596.836,38.29116 596.836,38.29116 m -35.20847,41.071092 c 0,0 5.93603,-4.389926 15.21214,0.570165 9.27599,4.959996 10.97673,11.021376 10.97673,11.021376 M 574.96304,73.142647 c 0.64142,0.01246 5.17737,-2.586847 11.83031,-0.592409 9.01094,2.70137 10.73628,8.123675 10.73628,8.123675 m -10.7756,-14.6084 c 0.64141,0.01246 1.90533,-1.07553 7.72404,-0.410111 7.63803,0.87354 10.06673,5.553834 10.06673,5.553834 m -8.90101,-12.371539 c 0.64142,0.01246 4.14298,-1.862176 8.04752,-1.582041 5.54832,0.398175 6.50654,2.750906 6.50654,2.750906 m -7.31644,-8.920305 c 0.64138,0.01245 2.0492,-1.443855 4.8621,-1.638659 3.49995,-0.242329 5.01586,1.537076 5.01586,1.537076 m -5.56486,-7.424027 c 0.64139,0.01246 2.16067,-0.903438 3.94664,-1.170476 1.98506,-0.296796 3.39735,0.791644 3.39735,0.791644 m -5.84167,-6.993242 c 0.56939,0.294311 1.71362,-0.810649 3.07033,-1.717561 1.42184,-0.950093 2.91399,-0.238755 2.91399,-0.238755 M 1090.4078,-1474.492 c 0,0 54.0046,-3.8967 132.9,97.893 77.6715,100.2106 56.9297,171.5465 101.2566,233.572 48.7706,68.2436 94.182,72.7897 94.182,72.7897 m -53.213,-14.9427 c 0,0 33.5024,30.1049 36.1429,55.6892 1.7146,16.6119 -5.6959,23.7422 -5.6959,23.7422 m 37.0591,-57.5546 c 0,0 -2.8763,-3.2458 -5.8362,-1.7976 -3.7667,1.8431 -4.3743,7.2005 -9.1085,8.8933 -6.5329,2.336 -25.0082,-12.8654 -25.0082,-12.8654 0,0 14.6437,16.7332 18.4852,34.3374 2.7563,12.6313 -0.1166,14.5528 2.1272,21.2136 3.6783,10.919 10.3642,12.4578 10.3642,12.4578 m 26.3054,-35.0077 c 0,0 -2.4269,-1.7777 -5.5084,-0.4264 -2.511,1.1012 -2.8269,5.5454 -6.6226,6.5889 -4.6334,1.2737 -12.8352,-4.6368 -12.8352,-4.6368 0,0 8.2217,10.1187 13.1767,21.27 3.8195,8.5959 3.2256,13.0042 5.005,17.70506 2.9168,7.7062 6.572,9.49285 6.572,9.49285 m 17.7777,-29.02901 c 0,0 -2.4102,-2.2253 -4.6526,-0.8503 -2.2653,1.3889 -1.9812,3.4341 -4.1043,4.5557 -3.0788,1.6266 -8.8757,-1.2254 -8.8757,-1.2254 0,0 8.8772,6.8686 13.3871,15.40026 3.4765,6.57655 3.1488,9.94968 5.0325,13.54313 3.5203,6.71549 6.5323,7.13712 6.5323,7.13712 m 10.8625,-21.28552 c 0,0 -1.7573,-1.71566 -3.617,-1.18409 -1.9713,0.5635 -1.5343,2.53985 -3.005,3.34123 -2.4501,1.33483 -5.0004,-0.0237 -5.0004,-0.0237 0,0 6.6263,4.89797 10.1918,10.54897 2.7484,4.35602 2.8018,6.76347 4.6026,10.38616 2.9188,5.87192 5.989,4.67173 5.989,4.67173 m 8.0984,-16.14666 c 0,0 -0.9488,-1.30057 -2.275,-0.53092 -0.772,0.44802 -0.073,1.58592 -2.1761,2.45036 -2.0052,0.82407 -4.3084,-0.0876 -4.3084,-0.0876 0,0 5.2995,3.34968 7.2694,5.85657 1.8021,2.29351 2.1556,4.01277 3.4906,6.19773 3.4903,5.71185 5.9891,4.67173 5.9891,4.67173 m -3.7798,-11.02917 c 0,0 9.5787,7.34011 17.14,2.50682 6.4284,-4.10912 12.0717,-0.0497 12.0717,-0.0497 m -27.5768,-7.20133 c 0,0 4.3312,3.10571 8.1088,2.37503 3.7775,-0.73068 4.0102,-4.60754 4.0102,-4.60754 m 7.688,13.77068 c 0,0 2.3588,-0.13838 7.1396,3.90414 4.7683,4.03198 5.5973,6.50916 5.5973,6.50916 m -455.3443,-511.20226 c 0.1415,-1.3026 18.4662,3.5829 35.3799,32.4905 21.2658,36.3457 10.4631,63.0699 19.1809,76.1345 5.8157,8.7156 17.0501,17.7774 23.1191,11.2462 4.6397,-4.9932 2.6994,-6.3615 2.6994,-6.3615 m -35.1627,21.1188 c 0,0 3.1488,0.2454 6.0035,-5.6057 3.5349,-7.245 1.5191,-13.3408 1.5191,-13.3408 m 31.2067,13.2287 c 0,0 0.913,0.8344 -8.6098,2.2002 -9.1801,1.3167 -14.461,-8.2991 -14.461,-8.2991 m -13.3281,20.7638 c 0,0 3.9063,1.6267 8.606,-2.7733 3.2158,-3.0107 3.9091,-11.0293 3.9091,-11.0293 m 14.4523,34.2529 a 8.8194759,8.8194759 0 0 1 -7.9344,-9.6235 8.8194759,8.8194759 0 0 1 9.6236,-7.9344 8.8194759,8.8194759 0 0 1 7.9343,9.6236 8.8194759,8.8194759 0 0 1 -9.6235,7.9343 z m 19.5416,14.4535 a 5.3402569,5.3402569 0 0 1 -4.8043,-5.8271 5.3402569,5.3402569 0 0 1 5.8272,-4.8043 5.3402569,5.3402569 0 0 1 4.8043,5.8271 5.3402569,5.3402569 0 0 1 -5.8272,4.8043 z m 19.7517,6.3726 a 3.1563135,3.1563135 0 0 1 -2.8395,-3.444 3.1563135,3.1563135 0 0 1 3.4441,-2.8396 3.1563135,3.1563135 0 0 1 2.8395,3.4441 3.1563135,3.1563135 0 0 1 -3.4441,2.8395 z m -109.6872,-181.7573 c 0,0 10.5809,37.5696 -20.1489,54.8492 -32.8092,18.4488 -59.9164,-6.5875 -101.88784,1.2728 -54.28166,10.1656 -60.5577,61.271 -60.5577,61.271 m 18.52485,-51.5603 c 0,0 -3.56706,6.728 -14.40607,6.2453 -10.83885,-0.4827 -15.1209,-5.3642 -15.1209,-5.3642 m 19.89103,10.8449 c -0.60228,0.2741 -3.66435,4.7127 -10.74205,5.8205 -9.58626,1.5005 -13.60654,-2.7754 -13.60654,-2.7754 m 16.53152,8.7908 c -0.60228,0.274 -1.29351,1.8492 -7.00314,3.8219 -7.49487,2.5895 -11.83899,-0.6829 -11.83899,-0.6829 m 13.79121,7.5448 c -0.60227,0.2741 -3.02483,3.5777 -6.78206,5.0562 -5.33906,2.1009 -7.27844,0.3389 -7.27844,0.3389 m 10.77984,5.0399 c -0.60225,0.2741 -1.26329,2.256 -3.7934,3.6901 -3.14814,1.7844 -5.35099,0.8042 -5.35099,0.8042 m 8.48386,4.428 c -0.60225,0.2741 -1.6077,1.8029 -3.15029,2.8468 -1.71452,1.1603 -3.51321,0.7768 -3.51321,0.7768 m 8.5495,3.9039 c -0.66081,-0.02 -1.23314,1.5175 -2.09135,2.9655 -0.89958,1.5172 -2.60458,1.52 -2.60458,1.52" /></g><g
     inkscape:label="Shape"
     id="g9869"
     transform="matrix(0.98571621,0,0,0.98571621,820.4681,1222.6852)"><path
       id="path9793"
       style="opacity:1;stroke:#e8e2da;stroke-opacity:1;fill:none;fill-opacity:1;stroke-width:2;stroke-linecap:round;stroke-linejoin:round;stroke-dasharray:none;paint-order:stroke markers fill"
       inkscape:label="base"
       transform="matrix(0.72042565,-0.69353219,-0.69353219,-0.72042565,-150.47416,953.73918)"
       d="M 464.80403,78.447441 321.17459,77.447386 466.16584,-62.527004 464.7798,78.451918 M 417.19644,28.970942 387.34629,-1.550817 m -19.90604,79.011556 97.71466,-94.002085 M 1312.2817,1625.4147 c 0,0 8.9508,12.3733 -28.1415,50.0897 -18.9049,19.2229 -58.148,70.2748 -51.4416,78.381 m -256.21677,138.6975 c 0,0 6.0352,-3.5824 -4.01024,-24.6833 -12.87314,-27.0405 -77.54707,-62.8332 -51.51872,-91.9847 m 391.40063,-144.3186 -326.04728,314.4728 89.65428,2.4224 -157.35889,-163.362 m 316.19049,-44.0924 -226.1367,217.9169 42.6517,0.3729 -72.7956,-74.9371 m 54.9724,-33.9398 -3.221,96.6204 m -48.4427,-97.1488 101.8299,1.2476" /><path
       id="circle9803"
       style="display:inline;opacity:1;stroke:#e8e2da;stroke-opacity:1;fill:none;stroke-width:4;stroke-linecap:round;stroke-linejoin:round;paint-order:stroke markers fill"
       inkscape:label="circles"
       transform="translate(-350.59816,436.08795)"
       d="m 507.70669,178.57735 a 26.676235,26.676235 0 0 1 -26.67623,26.67623 26.676235,26.676235 0 0 1 -26.67624,-26.67623 26.676235,26.676235 0 0 1 26.67624,-26.67624 26.676235,26.676235 0 0 1 26.67623,26.67624 z m -12.5081,44.44223 a 14.651413,14.651413 0 0 1 -14.65141,14.65141 14.651413,14.651413 0 0 1 -14.65141,-14.65141 14.651413,14.651413 0 0 1 14.65141,-14.65142 14.651413,14.651413 0 0 1 14.65141,14.65142 z m -9.40644,22.38905 a 5.2434464,5.2434464 0 0 1 -5.24344,5.24345 5.2434464,5.2434464 0 0 1 -5.24345,-5.24345 5.2434464,5.2434464 0 0 1 5.24345,-5.24345 5.2434464,5.2434464 0 0 1 5.24344,5.24345 z M -386.65047,-1573.1994 a 16.057866,16.057866 0 0 1 -9.42028,20.6632 16.057866,16.057866 0 0 1 -20.66321,-9.4203 16.057866,16.057866 0 0 1 9.42026,-20.6632 16.057866,16.057866 0 0 1 20.66323,9.4203 z m 19.65751,-23.4446 a 10.359916,10.359916 0 0 1 -6.07759,13.3311 10.359916,10.359916 0 0 1 -13.33112,-6.0776 10.359916,10.359916 0 0 1 6.07761,-13.3311 10.359916,10.359916 0 0 1 13.3311,6.0776 z m 26.71783,-14.6327 a 7.8854495,7.8854495 0 0 1 -4.62596,10.147 7.8854495,7.8854495 0 0 1 -10.14698,-4.626 7.8854495,7.8854495 0 0 1 4.62597,-10.1469 7.8854495,7.8854495 0 0 1 10.14697,4.6259 z m 32.14353,-11.5352 a 6.7144883,6.7144883 0 0 1 -3.93903,8.6402 6.7144883,6.7144883 0 0 1 -8.64018,-3.939 6.7144883,6.7144883 0 0 1 3.93902,-8.6402 6.7144883,6.7144883 0 0 1 8.64019,3.939 z m 35.60942,-7.3917 a 4.3205064,4.3205064 0 0 1 -2.5346,5.5596 4.3205064,4.3205064 0 0 1 -5.55962,-2.5346 4.3205064,4.3205064 0 0 1 2.53461,-5.5596 4.3205064,4.3205064 0 0 1 5.55961,2.5346 z" /><path
       id="path9863"
       style="display:inline;opacity:1;stroke:#e8e2da;stroke-opacity:1;fill:none;fill-opacity:1;stroke-width:5;stroke-linecap:round;stroke-linejoin:round;stroke-dasharray:none;paint-order:stroke markers fill"
       inkscape:label="vines-flowers"
       transform="rotate(-52.613921,527.24365,530.43366)"
       d="m 251.71315,243.35243 c 0,0 25.52221,5.62565 76.07573,-30.32393 C 428.85711,141.15692 419.98946,20.900673 549.05832,5.5737761 637.30052,-4.9049647 631.75919,-31.033945 631.75919,-31.033945 M 599.8202,6.9980748 c 0,0 21.86395,-9.92923 46.54492,-6.37134 16.0253,2.31013 20.98038,10.9619302 20.98038,10.9619302 m -26.53952,-64.17859 c 0,0 -3.22538,1.64432 -2.20796,5.96368 1.29479,5.4967 6.08622,9.15978 7.14879,15.72623 1.46626,9.06133 -14.1366,22.7213698 -14.1366,22.7213698 0,0 16.60932,-8.2567998 32.93386,-3.1720598 11.71317,3.6483998 13.16778,8.1237298 19.42293,9.1064498 10.25413,1.61101 12.31212,-5.50647 12.31212,-5.50647 M 654.05138,-53.448155 c 0,0 -1.85108,1.91465 -0.93357,6.32563 0.74767,3.59426 4.74107,6.40895 5.30884,11.50153 0.69309,6.21648 -5.47474,12.74035 -5.47474,12.74035 0,0 9.98085,-4.23855 20.57211,-4.02052 8.1643,0.16811 12.0975,3.29412 16.53156,3.75457 7.26881,0.75481 9.25009,-2.61754 9.25009,-2.61754 m -33.21611,-31.76688 c 0,0 -2.25486,1.64911 -1.2325,5.07394 1.03275,3.45971 2.91311,4.24344 3.71796,7.38713 1.16712,4.55879 -1.99188,9.897 -1.99188,9.897 0,0 7.10266,-6.80242 15.27728,-7.49177 6.30138,-0.53146 9.32361,1.7096 12.76513,1.43811 6.43155,-0.50726 7.11273,-3.8627 7.11273,-3.8627 m -26.89074,-19.2832 c 0,0 -1.72838,1.1513 -1.43181,3.65755 0.31443,2.65658 2.14769,3.22065 2.72713,5.41172 0.96536,3.6501 -0.51846,5.94165 -0.51846,5.94165 0,0 5.09426,-5.2034 10.56628,-6.34859 4.21807,-0.88275 6.40361,0.37458 9.86337,0.21789 5.60783,-0.25396 4.82605,-4.56857 4.82605,-4.56857 m -18.75763,-14.55386 c 0,0 -1.27212,0.41623 -0.70691,2.41785 0.32902,1.16507 1.42896,0.9575 2.00287,3.9358 0.547,2.84002 -0.5075,5.08258 -0.5075,5.08258 0,0 3.56024,-4.47289 6.02629,-5.44317 2.25615,-0.88765 3.8483,-0.36523 5.95974,-0.75614 5.51965,-1.02231 4.82602,-4.56856 4.82602,-4.56856 m -10.36393,-1.55059 c 0,0 7.59931,-7.37909 3.97362,-19.03523 -3.08244,-9.909825 1.1547,-14.402655 1.1547,-14.402655 m -9.26232,28.887955 c 0,0 3.24304,-3.45366 2.95674,-8.353 -0.28631,-4.89936 -3.77415,-7.30359 -3.77415,-7.30359 m 13.23509,-1.59921 c 0,0 0.1091,-2.884895 4.24523,-6.359855 4.12534,-3.46599 6.4511,-3.09406 6.4511,-3.09406 M 221.29699,237.90016 c 0,0 44.84983,-12.79839 76.68157,-34.02769 15.84099,-10.56472 26.68019,-20.32841 43.09623,-45.05781 28.85623,-43.46954 14.25947,-72.153247 14.25947,-72.153247 m 1.58878,54.960107 c 0,0 0.83211,-7.33592 10.78335,-10.74494 9.95109,-3.40901 15.54623,-0.52332 15.54623,-0.52332 m -21.79433,-2.73 c 0.44624,-0.4609 1.63476,-5.55196 7.62798,-9.06204 8.11744,-4.75414 13.26161,-2.32194 13.26161,-2.32194 m -18.03444,-2.06819 c 0.44625,-0.4609 0.5112,-2.12738 4.96326,-5.93254 5.84413,-4.99489 10.92455,-3.58308 10.92455,-3.58308 m -15.11993,-1.9159 c 0.44618,-0.46098 1.46027,-4.30111 4.32598,-6.967866 4.07224,-3.789389 6.44711,-2.887461 6.44711,-2.887461 m -11.51426,-0.723826 c 0.44616,-0.460944 0.33967,-2.483667 2.11389,-4.675107 2.20765,-2.726684 4.54293,-2.623608 4.54293,-2.623608 m -9.22558,-0.986166 c 0.44624,-0.460891 0.81115,-2.196982 1.83274,-3.686068 1.13546,-1.655068 2.89445,-1.947003 2.89445,-1.947003 m -9.09893,-0.490029 c 0.60341,-0.216171 0.57442,-1.80657 0.83517,-3.417516 0.27353,-1.688043 1.81093,-2.295398 1.81093,-2.295398 M 247.68831,270.23521 c 0,0 66.2145,3.81968 132.49851,-42.14839 64.12604,-44.47152 68.7854,-121.13276 118.55591,-137.15173 113.7625,-36.615237 98.0933,-52.64394 98.0933,-52.64394 m -35.20847,41.071091 c 0,0 5.93604,-4.389926 15.21215,0.570165 9.27599,4.959996 10.97672,11.021376 10.97672,11.021376 M 574.96307,73.142637 c 0.64142,0.01246 5.17737,-2.586848 11.83031,-0.592409 9.01094,2.701369 10.73628,8.123674 10.73628,8.123674 m -10.7756,-14.6084 c 0.64141,0.01246 1.90533,-1.075529 7.72404,-0.41011 7.63804,0.87354 10.06673,5.553833 10.06673,5.553833 m -8.901,-12.371539 c 0.64141,0.01246 4.14297,-1.862176 8.04751,-1.582041 5.54833,0.398176 6.50655,2.750907 6.50655,2.750907 m -7.31645,-8.920306 c 0.64138,0.01245 2.0492,-1.443855 4.8621,-1.638658 3.49996,-0.242329 5.01586,1.537076 5.01586,1.537076 m -5.56486,-7.424027 c 0.6414,0.01246 2.16067,-0.903438 3.94664,-1.170477 1.98506,-0.296796 3.39735,0.791645 3.39735,0.791645 m -5.84167,-6.993243 c 0.5694,0.294312 1.71363,-0.810648 3.07033,-1.717561 1.42184,-0.950093 2.91399,-0.238754 2.91399,-0.238754 M 1090.3578,-1474.4538 c 0,0 54.0046,-3.8967 132.9,97.893 77.6715,100.2106 56.9298,171.5465 101.2566,233.572 48.7706,68.2436 94.182,72.7897 94.182,72.7897 m -53.2129,-14.9427 c 0,0 33.5023,30.1048 36.1429,55.6892 1.7145,16.6119 -5.696,23.7422 -5.696,23.7422 m 37.0592,-57.5546 c 0,0 -2.8764,-3.2458 -5.8363,-1.7976 -3.7667,1.8431 -4.3742,7.2005 -9.1084,8.8933 -6.533,2.336 -25.0083,-12.8654 -25.0083,-12.8654 0,0 14.6437,16.7332 18.4852,34.3374 2.7563,12.6313 -0.1165,14.5528 2.1273,21.2136 3.6782,10.919 10.3642,12.4578 10.3642,12.4578 m 26.3053,-35.0077 c 0,0 -2.4269,-1.7777 -5.5084,-0.4264 -2.5109,1.1012 -2.8268,5.5454 -6.6226,6.5889 -4.6333,1.2737 -12.8351,-4.6368 -12.8351,-4.6368 0,0 8.2216,10.1187 13.1766,21.27 3.8196,8.5959 3.2257,13.0042 5.005,17.70506 2.9169,7.7062 6.572,9.49285 6.572,9.49285 m 17.7778,-29.02901 c 0,0 -2.4102,-2.2253 -4.6527,-0.8503 -2.2653,1.3889 -1.9811,3.4341 -4.1042,4.5557 -3.0788,1.6266 -8.8757,-1.2254 -8.8757,-1.2254 0,0 8.8771,6.8686 13.3871,15.40026 3.4765,6.57654 3.1488,9.94968 5.0325,13.54313 3.5202,6.71548 6.5322,7.13712 6.5322,7.13712 m 10.8625,-21.28553 c 0,0 -1.7573,-1.71565 -3.617,-1.18409 -1.9712,0.5635 -1.5343,2.53986 -3.0049,3.34123 -2.4502,1.33483 -5.0005,-0.0237 -5.0005,-0.0237 0,0 6.6264,4.89798 10.1918,10.54898 2.7484,4.35601 2.8018,6.76346 4.6026,10.38615 2.9189,5.87193 5.9891,4.67174 5.9891,4.67174 m 8.0983,-16.14667 c 0,0 -0.9488,-1.30056 -2.275,-0.53091 -0.7719,0.44802 -0.073,1.58592 -2.176,2.45036 -2.0053,0.82407 -4.3085,-0.0876 -4.3085,-0.0876 0,0 5.2995,3.34969 7.2694,5.85657 1.8021,2.29351 2.1556,4.01278 3.4907,6.19774 3.4903,5.71184 5.989,4.67172 5.989,4.67172 m -3.7797,-11.02917 c 0,0 9.5786,7.34011 17.1399,2.50682 6.4285,-4.10911 12.0718,-0.0497 12.0718,-0.0497 m -27.5769,-7.20134 c 0,0 4.3312,3.10571 8.1088,2.37504 3.7776,-0.73068 4.0102,-4.60755 4.0102,-4.60755 m 7.688,13.77068 c 0,0 2.3588,-0.13838 7.1396,3.90415 4.7683,4.03197 5.5974,6.50916 5.5974,6.50916 m -455.3445,-511.20216 c 0.1415,-1.3027 18.4662,3.5829 35.38,32.4904 21.2657,36.3457 10.463,63.07 19.1808,76.1346 5.8158,8.7155 17.0501,17.7774 23.1191,11.2461 4.6398,-4.9931 2.6994,-6.3615 2.6994,-6.3615 m -35.1627,21.1189 c 0,0 3.1488,0.2454 6.0036,-5.6057 3.5349,-7.245 1.5191,-13.3409 1.5191,-13.3409 m 31.2066,13.2287 c 0,0 0.9131,0.8345 -8.6098,2.2003 -9.1801,1.3166 -14.4609,-8.2991 -14.4609,-8.2991 m -13.3281,20.7637 c 0,0 3.9062,1.6268 8.606,-2.7733 3.2158,-3.0107 3.9091,-11.0293 3.9091,-11.0293 m 14.4522,34.253 a 8.8194759,8.8194759 0 0 1 -7.9343,-9.6236 8.8194759,8.8194759 0 0 1 9.6235,-7.9343 8.8194759,8.8194759 0 0 1 7.9344,9.6235 8.8194759,8.8194759 0 0 1 -9.6236,7.9344 z m 19.5417,14.4534 a 5.3402569,5.3402569 0 0 1 -4.8043,-5.8271 5.3402569,5.3402569 0 0 1 5.8271,-4.8043 5.3402569,5.3402569 0 0 1 4.8043,5.8272 5.3402569,5.3402569 0 0 1 -5.8271,4.8042 z m 19.7517,6.3727 a 3.1563135,3.1563135 0 0 1 -2.8396,-3.4441 3.1563135,3.1563135 0 0 1 3.4441,-2.8395 3.1563135,3.1563135 0 0 1 2.8395,3.4441 3.1563135,3.1563135 0 0 1 -3.444,2.8395 z m -109.6872,-181.7575 c 0,0 10.5809,37.5697 -20.1489,54.8493 -32.8092,18.4488 -59.9163,-6.5875 -101.88781,1.2728 -54.28166,10.1656 -60.5577,61.271 -60.5577,61.271 m 18.52485,-51.5603 c 0,0 -3.56706,6.728 -14.40607,6.2453 -10.83885,-0.4827 -15.1209,-5.3642 -15.1209,-5.3642 m 19.89103,10.8449 c -0.60228,0.2741 -3.66435,4.7127 -10.74205,5.8205 -9.58626,1.5005 -13.60654,-2.7754 -13.60654,-2.7754 m 16.53152,8.7908 c -0.60228,0.274 -1.29351,1.8492 -7.00314,3.8219 -7.49487,2.5895 -11.83899,-0.6829 -11.83899,-0.6829 m 13.79121,7.5447 c -0.60227,0.2742 -3.02483,3.5778 -6.78206,5.0563 -5.33906,2.1009 -7.27844,0.3389 -7.27844,0.3389 m 10.77984,5.0399 c -0.60225,0.2741 -1.26329,2.256 -3.7934,3.6901 -3.14814,1.7844 -5.35099,0.8042 -5.35099,0.8042 m 8.48386,4.428 c -0.60225,0.2741 -1.6077,1.8029 -3.15029,2.8468 -1.71452,1.1603 -3.51321,0.7768 -3.51321,0.7768 m 8.5495,3.9039 c -0.66081,-0.02 -1.23314,1.5174 -2.09135,2.9655 -0.89958,1.5172 -2.60458,1.52 -2.60458,1.52" /></g></svg>
