<?xml version="1.0" encoding="UTF-8" standalone="no"?>
<!-- Created with Inkscape (http://www.inkscape.org/) -->

<svg
   width="1920"
   height="1080"
   viewBox="0 0 1920 1080"
   version="1.1"
   id="svg5"
   inkscape:version="1.2.2 (b0a8486541, 2022-12-01)"
   sodipodi:docname="jl-site-background.svg"
   xml:space="preserve"
   xmlns:inkscape="http://www.inkscape.org/namespaces/inkscape"
   xmlns:sodipodi="http://sodipodi.sourceforge.net/DTD/sodipodi-0.dtd"
   xmlns:xlink="http://www.w3.org/1999/xlink"
   xmlns="http://www.w3.org/2000/svg"
   xmlns:svg="http://www.w3.org/2000/svg"><sodipodi:namedview
     id="namedview7"
     pagecolor="#505050"
     bordercolor="#ffffff"
     borderopacity="1"
     inkscape:showpageshadow="0"
     inkscape:pageopacity="0"
     inkscape:pagecheckerboard="1"
     inkscape:deskcolor="#505050"
     inkscape:document-units="px"
     showgrid="false"
     inkscape:zoom="0.36599323"
     inkscape:cx="799.19511"
     inkscape:cy="515.03685"
     inkscape:window-width="1366"
     inkscape:window-height="722"
     inkscape:window-x="0"
     inkscape:window-y="0"
     inkscape:window-maximized="1"
     inkscape:current-layer="svg5" /><defs
     id="defs2"><linearGradient
       id="glow-master"><stop
         offset="0.0"
         style="stop-color:#000000;stop-opacity:0.0;"
         id="stop1899" /><stop
         offset="0.11"
         style="stop-color:#442204;stop-opacity:0.22;"
         id="stop1901" /><stop
         offset="0.22"
         style="stop-color:#69190d;stop-opacity:0.44;"
         id="stop1903" /><stop
         offset="0.33"
         style="stop-color:#a52c16;stop-opacity:0.659;"
         id="stop1905" /><stop
         offset="0.44"
         style="stop-color:#eb7513;stop-opacity:0.878;"
         id="stop1907" /><stop
         offset="0.55"
         style="stop-color:#f2c62a;stop-opacity:1.0;"
         id="stop1909" /><stop
         offset="0.66"
         style="stop-color:#5e9a0e;stop-opacity:0.878;"
         id="stop1911" /><stop
         offset="0.77"
         style="stop-color:#0e4d0e;stop-opacity:0.659;"
         id="stop1913" /><stop
         offset="0.88"
         style="stop-color:#073720;stop-opacity:0.44;"
         id="stop1915" /><stop
         offset="0.94"
         style="stop-color:#442204;stop-opacity:0.22;"
         id="stop1917" /><stop
         offset="1.0"
         style="stop-color:#000000;stop-opacity:0.0;"
         id="stop1919" /></linearGradient><linearGradient
       id="linearGradient6061-1"><stop
         style="stop-color:#e8e2da;stop-opacity:0;"
         offset="0"
         id="stop9525" /><stop
         style="stop-color:#69190d;stop-opacity:0.22;"
         offset="0.11359598"
         id="stop9527" /><stop
         style="stop-color:#a52c16;stop-opacity:0.55000001;"
         offset="0.22"
         id="stop9529" /><stop
         style="stop-color:#eb7513;stop-opacity:0.88;"
         offset="0.33000001"
         id="stop9531" /><stop
         style="stop-color:#f2c62a;stop-opacity:1;"
         offset="0.5"
         id="stop9533" /><stop
         style="stop-color:#5e9a0e;stop-opacity:0.88;"
         offset="0.66000003"
         id="stop9535" /><stop
         style="stop-color:#0e4d0e;stop-opacity:0.55000001;"
         offset="0.76999998"
         id="stop9537" /><stop
         style="stop-color:#073720;stop-opacity:0.22;"
         offset="0.88"
         id="stop9539" /><stop
         style="stop-color:#e8e2da;stop-opacity:0;"
         offset="1"
         id="stop9541" /></linearGradient><linearGradient
       id="linearGradient6061"><stop
         style="stop-color:#e8e2da;stop-opacity:0;"
         offset="0"
         id="stop9506" /><stop
         style="stop-color:#69190d;stop-opacity:0.22;"
         offset="0.11359598"
         id="stop9508" /><stop
         style="stop-color:#a52c16;stop-opacity:0.55000001;"
         offset="0.22"
         id="stop9510" /><stop
         style="stop-color:#eb7513;stop-opacity:0.88;"
         offset="0.33000001"
         id="stop9512" /><stop
         style="stop-color:#f2c62a;stop-opacity:1;"
         offset="0.5"
         id="stop9514" /><stop
         style="stop-color:#5e9a0e;stop-opacity:0.88;"
         offset="0.66000003"
         id="stop9516" /><stop
         style="stop-color:#0e4d0e;stop-opacity:0.55000001;"
         offset="0.76999998"
         id="stop9518" /><stop
         style="stop-color:#073720;stop-opacity:0.22;"
         offset="0.88"
         id="stop9520" /><stop
         style="stop-color:#e8e2da;stop-opacity:0;"
         offset="1"
         id="stop9522" /></linearGradient><rect
       x="676.6927"
       y="29.501663"
       width="1725.2808"
       height="58.477051"
       id="rect6077" /><rect
       x="1797.4476"
       y="32.03938"
       width="1182.022"
       height="74.537186"
       id="rect6071" /><linearGradient
       id="linearGradient6061-2"><stop
         style="stop-color:#e8e2da;stop-opacity:0;"
         offset="0"
         id="stop6057" /><stop
         style="stop-color:#69190d;stop-opacity:0.22;"
         offset="0.11359598"
         id="stop2182" /><stop
         style="stop-color:#a52c16;stop-opacity:0.55000001;"
         offset="0.22"
         id="stop2186" /><stop
         style="stop-color:#eb7513;stop-opacity:0.88;"
         offset="0.33000001"
         id="stop6065" /><stop
         style="stop-color:#f2c62a;stop-opacity:1;"
         offset="0.5"
         id="stop2188" /><stop
         style="stop-color:#5e9a0e;stop-opacity:0.88;"
         offset="0.66000003"
         id="stop2184" /><stop
         style="stop-color:#0e4d0e;stop-opacity:0.55000001;"
         offset="0.76999998"
         id="stop2192" /><stop
         style="stop-color:#073720;stop-opacity:0.22;"
         offset="0.88"
         id="stop9504" /><stop
         style="stop-color:#000000;stop-opacity:0;"
         offset="1"
         id="stop6059" /></linearGradient><rect
       x="1144.2627"
       y="175.90457"
       width="600.52818"
       height="235.33107"
       id="rect22829" /><rect
       x="1152.7903"
       y="173.17295"
       width="642.74494"
       height="418.02634"
       id="rect22823" /><rect
       x="139.99581"
       y="174.04989"
       width="559.98791"
       height="395.49895"
       id="rect22817" /><rect
       x="145.0775"
       y="180.81232"
       width="697.10984"
       height="181.23741"
       id="rect22399" /><linearGradient
       inkscape:collect="always"
       id="linearGradient928"><stop
         style="stop-color:#02130a;stop-opacity:1;"
         offset="0"
         id="stop1658" /><stop
         style="stop-color:#010403;stop-opacity:1;"
         offset="0.32577938"
         id="stop9701" /></linearGradient><linearGradient
       inkscape:collect="always"
       xlink:href="#linearGradient928"
       id="linearGradient930"
       x1="970.4812"
       y1="1084.7119"
       x2="971.75214"
       y2="1.7513967"
       gradientUnits="userSpaceOnUse" /><linearGradient
       id="linearGradient5077-1"><stop
         style="stop-color:#35031a;stop-opacity:1;"
         offset="0"
         id="stop6247" /><stop
         style="stop-color:#9f260a;stop-opacity:1;"
         offset="0.22"
         id="stop6249" /><stop
         style="stop-color:#d37a0d;stop-opacity:1;"
         offset="0.44"
         id="stop6251" /><stop
         style="stop-color:#076909;stop-opacity:1;"
         offset="0.76999998"
         id="stop6253" /><stop
         style="stop-color:#07466a;stop-opacity:1;"
         offset="0.88"
         id="stop6255" /><stop
         style="stop-color:#35031a;stop-opacity:1"
         offset="1"
         id="stop6257" /></linearGradient><linearGradient
       id="linearGradient5077"><stop
         style="stop-color:#35031a;stop-opacity:1"
         offset="0"
         id="stop6244" /><stop
         style="stop-color:#07466a;stop-opacity:1;"
         offset="0.14491931"
         id="stop6242" /><stop
         style="stop-color:#076909;stop-opacity:1;"
         offset="0.46923536"
         id="stop6240" /><stop
         style="stop-color:#d37a0d;stop-opacity:1;"
         offset="0.74955529"
         id="stop6238" /><stop
         style="stop-color:#9f260a;stop-opacity:1;"
         offset="0.8828578"
         id="stop6236" /><stop
         style="stop-color:#35031a;stop-opacity:1;"
         offset="1"
         id="stop6234" /></linearGradient><linearGradient
       id="linearGradient5978"><stop
         style="stop-color:#35031a;stop-opacity:1;"
         offset="0"
         id="stop5966" /><stop
         style="stop-color:#9f260a;stop-opacity:1;"
         offset="0.22"
         id="stop5968" /><stop
         style="stop-color:#d37a0d;stop-opacity:1;"
         offset="0.44"
         id="stop5970" /><stop
         style="stop-color:#076909;stop-opacity:1;"
         offset="0.76999998"
         id="stop5972" /><stop
         style="stop-color:#07466a;stop-opacity:1;"
         offset="0.88"
         id="stop5974" /><stop
         style="stop-opacity:0"
         offset="1"
         id="stop5976" /></linearGradient><linearGradient
       id="linearGradient5077-2"><stop
         style="stop-color:#35031a;stop-opacity:1;"
         offset="0"
         id="stop5065" /><stop
         style="stop-color:#9f260a;stop-opacity:1;"
         offset="0.33126885"
         id="stop5067" /><stop
         style="stop-color:#d37a0d;stop-opacity:1;"
         offset="0.33126885"
         id="stop5069" /><stop
         style="stop-color:#076909;stop-opacity:1;"
         offset="0.76338273"
         id="stop5071" /><stop
         style="stop-color:#07466a;stop-opacity:1;"
         offset="0.88"
         id="stop5073" /><stop
         style="stop-color:#35031a;stop-opacity:1"
         offset="1"
         id="stop5075" /></linearGradient><linearGradient
       id="linearGradient4914"><stop
         style="stop-color:#000000;stop-opacity:1;"
         offset="0"
         id="stop4918" /><stop
         style="stop-color:#000000;stop-opacity:0;"
         offset="1"
         id="stop4920" /></linearGradient><linearGradient
       id="linearGradient4914-1"
       inkscape:swatch="gradient"><stop
         style="stop-color:#000000;stop-opacity:1;"
         offset="0"
         id="stop4910" /><stop
         style="stop-color:#000000;stop-opacity:0;"
         offset="1"
         id="stop4912" /></linearGradient><linearGradient
       id="Rainbowie"
       inkscape:swatch="gradient"><stop
         style="stop-color:#35031a;stop-opacity:1;"
         offset="0.11"
         id="stop4760" /><stop
         style="stop-color:#6a1907;stop-opacity:1;"
         offset="0.22"
         id="stop4762" /><stop
         style="stop-color:#d3560d;stop-opacity:1;"
         offset="0.44"
         id="stop4764" /><stop
         style="stop-color:#d29e0e;stop-opacity:1;"
         offset="0.55000001"
         id="stop4766" /><stop
         style="stop-color:#07692e;stop-opacity:1;"
         offset="0.88"
         id="stop4768" /><stop
         style="stop-color:#076769;stop-opacity:1;"
         offset="0.99880683"
         id="stop4770" /></linearGradient><linearGradient
       id="Rainbowie-10"><stop
         style="stop-color:#35031a;stop-opacity:1;"
         offset="0.11"
         id="stop4760-6" /><stop
         style="stop-color:#6a1907;stop-opacity:1;"
         offset="0.22"
         id="stop4762-1" /><stop
         style="stop-color:#d3560d;stop-opacity:1;"
         offset="0.44"
         id="stop4764-5" /><stop
         style="stop-color:#d29e0e;stop-opacity:1;"
         offset="0.55000001"
         id="stop4766-9" /><stop
         style="stop-color:#07692e;stop-opacity:1;"
         offset="0.88"
         id="stop4768-4" /><stop
         style="stop-color:#076769;stop-opacity:1;"
         offset="0.99880683"
         id="stop4770-9" /></linearGradient><linearGradient
       xlink:href="#linearGradient5077-1"
       id="linearGradient5021"
       x1="150.16481"
       y1="468.45493"
       x2="240.06136"
       y2="600.76404"
       gradientUnits="userSpaceOnUse" /><linearGradient
       xlink:href="#linearGradient5077-1"
       id="linearGradient5055"
       x1="673.78912"
       y1="67.176918"
       x2="440.46896"
       y2="549.38538"
       gradientUnits="userSpaceOnUse" /><linearGradient
       xlink:href="#linearGradient5077-1"
       id="linearGradient5063"
       x1="272.62979"
       y1="233.06071"
       x2="602.46735"
       y2="389.97263"
       gradientUnits="userSpaceOnUse" /><linearGradient
       xlink:href="#linearGradient5077-1"
       id="linearGradient5085"
       x1="240.41537"
       y1="575.26831"
       x2="740.96198"
       y2="169.36858"
       gradientUnits="userSpaceOnUse" /><linearGradient
       xlink:href="#linearGradient5077-1"
       id="linearGradient5093"
       x1="203.44667"
       y1="318.94632"
       x2="563.63208"
       y2="842.80829"
       gradientUnits="userSpaceOnUse" /><rect
       x="676.6927"
       y="29.501663"
       width="264.4473"
       height="96.707763"
       id="rect10974" /><rect
       x="676.6927"
       y="29.501663"
       width="264.4473"
       height="96.707763"
       id="rect11029" /><rect
       x="676.6927"
       y="29.501663"
       width="264.4473"
       height="96.707763"
       id="rect11057" /><rect
       x="676.6927"
       y="29.501663"
       width="264.4473"
       height="96.707763"
       id="rect11068" /><rect
       x="676.6927"
       y="29.501663"
       width="264.4473"
       height="96.707763"
       id="rect11085" /><linearGradient
       id="glow-master-1"><stop
         offset="0.0"
         style="stop-color:#000000;stop-opacity:0.0;"
         id="stop101084" /><stop
         offset="0.11"
         style="stop-color:#442204;stop-opacity:0.22;"
         id="stop101086" /><stop
         offset="0.22"
         style="stop-color:#69190d;stop-opacity:0.44;"
         id="stop101088" /><stop
         offset="0.33"
         style="stop-color:#a52c16;stop-opacity:0.659;"
         id="stop101090" /><stop
         offset="0.44"
         style="stop-color:#eb7513;stop-opacity:0.878;"
         id="stop101092" /><stop
         offset="0.55"
         style="stop-color:#f2c62a;stop-opacity:1.0;"
         id="stop101094" /><stop
         offset="0.66"
         style="stop-color:#5e9a0e;stop-opacity:0.878;"
         id="stop101096" /><stop
         offset="0.77"
         style="stop-color:#0e4d0e;stop-opacity:0.659;"
         id="stop101098" /><stop
         offset="0.88"
         style="stop-color:#073720;stop-opacity:0.44;"
         id="stop101100" /><stop
         offset="0.94"
         style="stop-color:#442204;stop-opacity:0.22;"
         id="stop101102" /><stop
         offset="1.0"
         style="stop-color:#000000;stop-opacity:0.0;"
         id="stop101104" /></linearGradient><filter
       id="glow-filter-statics"
       x="-0.034142926"
       y="-0.034904367"
       width="1.0682865"
       height="1.0698093"><feGaussianBlur
         stdDeviation="3"
         id="feGaussianBlur101107" /></filter><filter
       id="glow-filter-geometrics"
       x="-0.089845812"
       y="-0.055204272"
       width="1.1796916"
       height="1.1104085"><feGaussianBlur
         stdDeviation="3"
         id="feGaussianBlur101110" /></filter><filter
       id="glow-filter-organics"
       x="-0.059221462"
       y="-0.041409117"
       width="1.1184429"
       height="1.0828182"><feGaussianBlur
         stdDeviation="3"
         id="feGaussianBlur101113" /></filter><linearGradient
       xlink:href="#glow-master"
       id="glow-applied-1"
       gradientUnits="userSpaceOnUse"
       x1="281.86696993774086"
       y1="186.9452441911846"
       x2="-43.61911993774085"
       y2="68.47799580881538" /><linearGradient
       xlink:href="#glow-master"
       id="glow-applied-2"
       gradientUnits="userSpaceOnUse"
       x1="216.68970353643374"
       y1="110.60927970058387"
       x2="543.0650597468217"
       y2="226.60415243322882" /><linearGradient
       xlink:href="#glow-master"
       id="glow-applied-3"
       gradientUnits="userSpaceOnUse"
       x1="294.6873211984884"
       y1="136.03230400704985"
       x2="610.262673451882"
       y2="-6.7538321962478705" /><linearGradient
       xlink:href="#glow-master"
       id="glow-applied-9"
       gradientUnits="userSpaceOnUse"
       x1="184.00111602792597"
       y1="-32.86506259979724"
       x2="54.246733972074026"
       y2="288.28830259979725" /><linearGradient
       xlink:href="#glow-master"
       id="glow-applied-10"
       gradientUnits="userSpaceOnUse"
       x1="542.801336027926"
       y1="93.05764740020275"
       x2="413.04695397207405"
       y2="414.21101259979724" /><linearGradient
       xlink:href="#glow-master"
       id="glow-applied-18"
       gradientUnits="userSpaceOnUse"
       x1="119.12392499999999"
       y1="-45.47591104779231"
       x2="119.12392500000001"
       y2="300.8991510477923" /><linearGradient
       xlink:href="#glow-master"
       id="glow-applied-19"
       gradientUnits="userSpaceOnUse"
       x1="477.924145"
       y1="80.44679895220769"
       x2="477.92414500000007"
       y2="426.8218610477923" /><linearGradient
       xlink:href="#glow-master"
       id="glow-applied-20"
       gradientUnits="userSpaceOnUse"
       x1="459.0832310477923"
       y1="187.789775"
       x2="112.7081689522077"
       y2="187.78977500000002" /><linearGradient
       xlink:href="#glow-master"
       id="glow-applied-29"
       gradientUnits="userSpaceOnUse"
       x1="461.0832310477923"
       y1="188.931035"
       x2="114.7081689522077"
       y2="188.93103499999998" /><filter
       id="glow-filter-statics-2"
       x="-0.01849793"
       y="-0.036482185"
       width="1.0369962"
       height="1.072965"><feGaussianBlur
         stdDeviation="3"
         id="feGaussianBlur104238" /></filter><filter
       id="glow-filter-geometrics-4"
       x="-0.059689481"
       y="-0.21876775"
       width="1.119379"
       height="1.4375355"><feGaussianBlur
         stdDeviation="3"
         id="feGaussianBlur104241" /></filter><filter
       id="glow-filter-organics-9"
       x="-0.013237407"
       y="-0.036726714"
       width="1.0264748"
       height="1.0734539"><feGaussianBlur
         stdDeviation="3"
         id="feGaussianBlur104244" /></filter><linearGradient
       xlink:href="#glow-master"
       id="glow-applied-1-9"
       gradientUnits="userSpaceOnUse"
       x1="497.98253391054874"
       y1="-219.789486656566"
       x2="229.6132260894513"
       y2="517.5491266565659" /><linearGradient
       xlink:href="#glow-master"
       id="glow-applied-2-9"
       gradientUnits="userSpaceOnUse"
       x1="525.0361119105487"
       y1="-163.750041656566"
       x2="256.6668040894513"
       y2="573.5885716565659" /><linearGradient
       xlink:href="#glow-master"
       id="glow-applied-3-4"
       gradientUnits="userSpaceOnUse"
       x1="669.3743419105488"
       y1="-54.187561656566004"
       x2="401.0050340894513"
       y2="683.1510516565659" /><linearGradient
       xlink:href="#glow-master"
       id="glow-applied-9-9"
       gradientUnits="userSpaceOnUse"
       x1="0.0361336106153658"
       y1="1.9105345030914407"
       x2="727.5596263893847"
       y2="295.8491054969086" /><linearGradient
       xlink:href="#glow-master"
       id="glow-applied-10-8"
       gradientUnits="userSpaceOnUse"
       x1="171.42794361061536"
       y1="167.51246450309145"
       x2="898.9514363893846"
       y2="461.4510354969086" /><linearGradient
       xlink:href="#glow-master"
       id="glow-applied-11"
       gradientUnits="userSpaceOnUse"
       x1="-189.0365228558783"
       y1="70.03425163293498"
       x2="389.54942411065934"
       y2="600.0612490922551" /><linearGradient
       xlink:href="#glow-master"
       id="glow-applied-16"
       gradientUnits="userSpaceOnUse"
       x1="-28.53180153802333"
       y1="148.87982"
       x2="756.1275615380234"
       y2="148.87982" /><linearGradient
       xlink:href="#glow-master"
       id="glow-applied-17"
       gradientUnits="userSpaceOnUse"
       x1="151.88952608437597"
       y1="326.7333311804086"
       x2="935.0746502117377"
       y2="374.8101177672469" /><linearGradient
       xlink:href="#glow-master"
       id="glow-applied-18-1"
       gradientUnits="userSpaceOnUse"
       x1="309.46558311667775"
       y1="359.9430179541543"
       x2="494.4496199431885"
       y2="-402.5995855653313" /><linearGradient
       xlink:href="#glow-master"
       id="glow-applied-27"
       gradientUnits="userSpaceOnUse"
       x1="325.0228860899596"
       y1="94.62593890469084"
       x2="622.4539743849498"
       y2="1139.1472967994782" /><filter
       id="glow-filter-statics-4"
       x="-0.016460317"
       y="-0.016915177"
       width="1.0329209"
       height="1.0338306"><feGaussianBlur
         stdDeviation="3"
         id="feGaussianBlur104664" /></filter><filter
       id="glow-filter-geometrics-0"
       x="-0.10131056"
       y="-0.091394094"
       width="1.2026211"
       height="1.1827882"><feGaussianBlur
         stdDeviation="3"
         id="feGaussianBlur104667" /></filter><filter
       id="glow-filter-organics-3"
       x="-0.01468831"
       y="-0.022513554"
       width="1.0293766"
       height="1.0450271"><feGaussianBlur
         stdDeviation="3"
         id="feGaussianBlur104670" /></filter><linearGradient
       xlink:href="#glow-master"
       id="glow-applied-1-5"
       gradientUnits="userSpaceOnUse"
       x1="470.4503345058871"
       y1="-130.77032070338703"
       x2="184.36100549411285"
       y2="655.253650703387" /><linearGradient
       xlink:href="#glow-master"
       id="glow-applied-3-5"
       gradientUnits="userSpaceOnUse"
       x1="614.788564505887"
       y1="-21.207840703387035"
       x2="328.6992354941128"
       y2="764.816130703387" /><linearGradient
       xlink:href="#glow-master"
       id="glow-applied-10-9"
       gradientUnits="userSpaceOnUse"
       x1="-60.37471662329148"
       y1="105.56821893969365"
       x2="715.1860566232915"
       y2="418.91511106030634" /><linearGradient
       xlink:href="#glow-master"
       id="glow-applied-11-9"
       gradientUnits="userSpaceOnUse"
       x1="83.96351337670853"
       y1="215.13069893969364"
       x2="859.5242866232916"
       y2="528.4775910603064" /><linearGradient
       xlink:href="#glow-master"
       id="glow-applied-12"
       gradientUnits="userSpaceOnUse"
       x1="-287.63631780422924"
       y1="84.02007456704607"
       x2="329.1527878026012"
       y2="649.0439563678165" /><linearGradient
       xlink:href="#glow-master"
       id="glow-applied-17-0"
       gradientUnits="userSpaceOnUse"
       x1="-90.82894950216547"
       y1="262.241665"
       x2="745.6402895021654"
       y2="262.241665" /><linearGradient
       xlink:href="#glow-master"
       id="glow-applied-18-2"
       gradientUnits="userSpaceOnUse"
       x1="59.194478466792106"
       y1="378.4734319135356"
       x2="894.0921367450829"
       y2="429.7246563077939" /><linearGradient
       xlink:href="#glow-master"
       id="glow-applied-19-4"
       gradientUnits="userSpaceOnUse"
       x1="160.50477587567255"
       y1="554.7440391723701"
       x2="1091.6010497661186"
       y2="-133.33447991388354" /><linearGradient
       xlink:href="#glow-master"
       id="glow-applied-24"
       gradientUnits="userSpaceOnUse"
       x1="344.1077662208541"
       y1="460.28906434601265"
       x2="541.3060203850937"
       y2="-352.60307877942085" /><linearGradient
       xlink:href="#glow-master"
       id="glow-applied-33"
       gradientUnits="userSpaceOnUse"
       x1="34.997734537319786"
       y1="332.05097097865166"
       x2="836.8867671061198"
       y2="570.0735901692622" /><linearGradient
       xlink:href="#glow-master"
       id="glow-applied-42"
       gradientUnits="userSpaceOnUse"
       x1="85.72171555023576"
       y1="-25.25885190711773"
       x2="1166.8609192636366"
       y2="388.9033626583154" /><linearGradient
       inkscape:collect="always"
       xlink:href="#glow-master-1"
       id="linearGradient1418"
       x1="-4991.7344"
       y1="1578.2798"
       x2="3060.5356"
       y2="1578.2798"
       gradientUnits="userSpaceOnUse" /></defs><g
     inkscape:label="Background"
     inkscape:groupmode="layer"
     id="layer1"><rect
       style="fill:url(#linearGradient930);stroke:none;stroke-width:3.95843;stroke-linecap:round;stroke-linejoin:round;paint-order:stroke markers fill;fill-opacity:1"
       id="rect788"
       width="1916.0415"
       height="1076.0416"
       x="1.9792185"
       y="1.9792185"
       inkscape:label="Background-gradient" /><path
       id="path994"
       style="opacity:0.22;fill:none;stroke:url(#linearGradient1418);stroke-width:4;stroke-linecap:round;stroke-linejoin:round;paint-order:stroke markers fill"
       inkscape:label="stars"
       inkscape:transform-center-x="-36.061099"
       inkscape:transform-center-y="23.293468"
       transform="matrix(0.21136413,0,0,0.21136413,1195.861,63.228746)"
       d="m 456.5159,400.85546 c -4.91563,5.4356 -59.70565,-54.68038 -65.95355,-50.84985 -6.24789,3.83052 22.47378,79.92877 15.39979,81.8439 -7.074,1.91513 -20.66515,-78.27938 -27.99215,-78.4348 -7.327,-0.15542 -24.30661,79.39061 -31.29303,77.17723 -6.98642,-2.21338 24.9364,-77.02523 18.85656,-81.11725 -6.07984,-4.09203 -63.36983,53.64648 -68.05054,48.00732 -4.6807,-5.63916 62.62082,-51.31611 59.71845,-58.04555 -2.90237,-6.72944 -82.31357,10.86998 -83.20247,3.59544 -0.8889,-7.27454 80.42356,-9.31449 81.62015,-16.54479 1.19658,-7.23031 -75.12334,-35.35767 -71.93821,-41.95798 3.18512,-6.60031 72.69239,35.64441 77.60802,30.20882 4.91563,-5.4356 -44.08197,-70.35951 -37.83408,-74.19004 6.2479,-3.83052 41.88191,69.28647 48.95591,67.37135 7.07399,-1.91513 0.9551,-83.0227 8.28211,-82.86728 7.327,0.15542 -2.22579,80.93056 4.76063,83.14394 6.98642,2.21338 45.68894,-69.32677 51.76878,-65.23474 6.07984,4.09203 -45.62681,66.87977 -40.94611,72.51893 4.68071,5.63915 75.91687,-33.62008 78.81924,-26.89064 2.90237,6.72944 -74.54165,31.59512 -73.65275,38.86966 0.8889,7.27454 82.04172,12.76075 80.84513,19.99105 -1.19658,7.23031 -79.79004,-13.72075 -82.97516,-7.12044 -3.18512,6.60031 62.11891,55.09012 57.20328,60.52572 z M 352.33768,1694.5981 c -3.86525,6.4014 -71.16528,-39.1062 -77.4252,-35.0159 -6.25992,4.0904 8.39047,84.0004 0.97573,84.9696 -7.41474,0.9692 -13.79635,-80.0216 -20.89732,-82.3655 -7.10097,-2.3439 -60.44273,58.9333 -65.8235,53.7405 -5.38077,-5.1928 53.96152,-60.6791 51.36668,-67.6923 -2.59485,-7.0131 -83.76132,-10.5117 -83.05629,-17.9562 0.70502,-7.4445 81.08526,4.356 84.95051,-2.0453 3.86526,-6.4014 -44.00592,-72.0412 -37.746,-76.1316 6.25992,-4.0903 47.15015,66.111 54.56489,65.1418 7.41473,-0.9692 28.88682,-79.3222 35.98779,-76.9783 7.10096,2.3439 -22.28998,78.083 -16.90921,83.2758 5.38076,5.1928 80.0272,-26.872 82.62204,-19.8588 2.59484,7.0132 -74.94531,31.2569 -75.65034,38.7014 -0.70501,7.4445 70.90547,45.8134 67.04022,52.2148 z M -1833.0221,618.04035 c -6.5939,3.19837 -34.8745,-73.0649 -42.1024,-71.8538 -7.2278,1.2111 -9.1045,82.52749 -16.3808,81.65321 -7.2763,-0.87429 10.1636,-80.32068 3.4283,-83.20953 -6.7352,-2.88884 -52.2769,64.50428 -57.9255,59.83491 -5.6485,-4.66937 51.9748,-62.07521 47.8706,-68.14682 -4.1042,-6.07161 -78.8518,26.0014 -81.0792,19.01943 -2.2274,-6.98195 77.2844,-24.12129 77.1142,-31.44797 -0.1701,-7.32667 -80.3918,-20.75673 -78.4908,-27.83456 1.9009,-7.07782 78.0566,21.49095 81.8746,15.23539 3.818,-6.25558 -56.4079,-60.92476 -50.9822,-65.85129 5.4257,-4.92654 54.0466,60.27997 60.6405,57.0816 6.5939,-3.19837 -14.515,-81.7496 -7.2871,-82.9607 7.2279,-1.21109 12.8771,79.93054 20.1534,80.80484 7.2763,0.87428 31.9864,-76.61952 38.7217,-73.73068 6.7352,2.88885 -32.3809,74.20372 -26.7323,78.87309 5.6485,4.66937 68.3323,-47.16329 72.4365,-41.09167 4.1043,6.07161 -67.358,44.91773 -65.1306,51.89969 2.2274,6.98196 82.9832,-2.73303 83.1533,4.59365 0.1702,7.32667 -80.9495,1.37069 -82.8505,8.44851 -1.9009,7.07782 71.2875,42.56493 67.4696,48.8205 -3.818,6.25558 -68.8402,-42.61154 -74.2659,-37.685 -5.4257,4.92653 36.9585,74.34882 30.3646,77.5472 z m -212.0387,1603.04195 c -3.1255,8.5296 -93.9289,-30.138 -100.4456,-23.8092 -6.5168,6.3287 29.4766,98.225 20.8592,101.0994 -8.6174,2.8745 -35.0008,-92.2273 -44.012,-93.3764 -9.0112,-1.1491 -58.417,84.2881 -66.0372,79.343 -7.6202,-4.9452 50.2835,-84.8676 45.5635,-92.6293 -4.7199,-7.7617 -102.3214,6.8805 -103.2063,-2.1604 -0.8849,-9.041 97.7034,-13.6009 100.8289,-22.1304 3.1255,-8.5295 -69.1758,-75.7082 -62.659,-82.037 6.5168,-6.3288 71.5506,67.9076 80.168,65.0332 8.6174,-2.8745 16.0607,-101.2871 25.0719,-100.138 9.0111,1.1491 -8.4813,98.2802 -0.8611,103.2253 7.6202,4.9451 89.2031,-50.5947 93.9231,-42.833 4.72,7.7617 -82.1266,54.6458 -81.2417,63.6868 0.8849,9.0409 95.1738,38.1965 92.0483,46.726 z m -1431.7875,-634.131 c -5.9715,6.6033 -72.5312,-66.4264 -80.1212,-61.773 -7.5901,4.6533 27.3014,97.0985 18.7078,99.425 -8.5935,2.3266 -25.1043,-95.0948 -34.0052,-95.2836 -8.9009,-0.1888 -29.528,96.4448 -38.0152,93.7559 -8.4872,-2.6888 30.2931,-93.5713 22.9072,-98.5423 -7.3859,-4.9711 -76.9825,65.1705 -82.6687,58.3199 -5.6862,-6.8505 76.0726,-62.3395 72.5468,-70.5145 -3.5259,-8.175 -99.9957,13.205 -101.0755,4.3678 -1.0799,-8.8372 97.6996,-11.3154 99.1533,-20.0988 1.4536,-8.7835 -91.2609,-42.953 -87.3916,-50.9711 3.8694,-8.0182 88.3077,43.3013 94.2793,36.698 5.9716,-6.6032 -53.5514,-85.4736 -45.9613,-90.127 7.59,-4.6534 50.8787,84.1701 59.4723,81.8436 8.5935,-2.3265 1.1602,-100.8571 10.0612,-100.6683 8.9009,0.1888 -2.7039,98.3155 5.7833,101.0044 8.4872,2.6888 55.5035,-84.2191 62.8894,-79.248 7.3858,4.971 -55.4281,81.2464 -49.7419,88.0969 5.6862,6.8505 92.2248,-40.8421 95.7507,-32.6671 3.5258,8.175 -90.5542,38.3822 -89.4744,47.2194 1.0799,8.8372 99.6654,15.5019 98.2118,24.2854 -1.4537,8.7835 -96.9301,-16.6682 -100.7994,-8.65 -3.8693,8.0181 75.4629,66.9242 69.4913,73.5274 z m -1144.5822,815.5593 c -8.11,3.9338 -45.1404,-87.4818 -54.1384,-86.951 -8.998,0.5307 -35.0246,95.6658 -43.5407,92.7127 -8.5162,-2.953 29.9399,-93.778 23.202,-99.7653 -6.7378,-5.9872 -92.412,42.8798 -96.3457,34.7699 -3.9338,-8.11 87.4818,-45.1404 86.951,-54.1384 -0.5307,-8.998 -95.6657,-35.0246 -92.7127,-43.5408 2.953,-8.5162 93.778,29.9399 99.7653,23.2021 5.9872,-6.7379 -42.8798,-92.4121 -34.7698,-96.3458 8.1099,-3.9337 45.1403,87.4818 54.1383,86.9511 8.998,-0.5308 35.0246,-95.6658 43.5408,-92.7128 8.5162,2.9531 -29.9399,93.7781 -23.2021,99.7653 6.7379,5.9873 92.4121,-42.8798 96.3458,-34.7698 3.9337,8.11 -87.4818,45.1404 -86.951,54.1384 0.5307,8.998 95.6657,35.0246 92.7127,43.5407 -2.9531,8.5162 -93.7781,-29.9399 -99.7653,-23.202 -5.9873,6.7378 42.8798,92.412 34.7698,96.3457 z M -4694.378,392.40292 c -7.9544,8.79579 -96.6147,-88.48286 -106.7249,-82.28436 -10.1102,6.19848 36.3667,129.33937 24.9197,132.4384 -11.4471,3.09903 -33.44,-126.67036 -45.2964,-126.92185 -11.8565,-0.2515 -39.3326,128.46853 -50.6379,124.88687 -11.3053,-3.58165 40.3517,-124.64091 30.5134,-131.26255 -9.8383,-6.62165 -102.544,86.80982 -110.1183,77.68463 -7.5742,-9.12519 101.332,-83.03885 96.6354,-93.92832 -4.6965,-10.88947 -133.1984,17.58962 -134.6368,5.81808 -1.4384,-11.77154 130.14,-15.07255 132.0763,-26.7725 1.9363,-11.69996 -121.5633,-57.21518 -116.4091,-67.89568 5.1541,-10.68051 117.6295,57.67917 125.5839,48.88339 7.9544,-8.79579 -71.3327,-113.85456 -61.2224,-120.05305 10.1102,-6.19849 67.7726,112.11818 79.2196,109.01916 11.447,-3.09903 1.5455,-134.34591 13.402,-134.09441 11.8564,0.25149 -3.6018,130.96045 7.7035,134.5421 11.3053,3.58165 73.9331,-112.1834 83.7714,-105.56174 9.8383,6.62165 -73.8325,108.2237 -66.2583,117.34889 7.5742,9.12518 122.8474,-54.40344 127.5439,-43.51397 4.6966,10.88946 -120.622,51.12668 -119.1836,62.89822 1.4384,11.77154 132.7585,20.64923 130.8222,32.34918 -1.9363,11.69996 -129.1149,-22.20269 -134.269,-11.52218 -5.1541,10.68051 100.5198,89.14589 92.5654,97.94169 z m 1651.0485,100.82711 c -9.6046,7.20492 -81.259,-102.91536 -92.8897,-99.93438 -11.6306,2.98098 -21.4821,133.99162 -33.3681,132.29484 -11.8861,-1.69677 15.3133,-130.23095 4.9814,-136.34716 -10.332,-6.1162 -109.9366,79.55623 -117.1415,69.95173 -7.2049,-9.60452 102.9154,-81.25901 99.9344,-92.88962 -2.981,-11.63062 -133.9916,-21.48214 -132.2948,-33.36819 1.6967,-11.88605 130.2309,15.31336 136.3471,4.98141 6.1162,-10.33195 -79.5562,-109.93655 -69.9517,-117.14146 9.6045,-7.2049 81.259,102.91537 92.8896,99.93439 11.6306,-2.98097 21.4821,-133.99161 33.3682,-132.29484 11.8861,1.69677 -15.3134,130.23095 -4.9814,136.34715 10.3319,6.11622 109.9365,-79.55623 117.1415,-69.95171 7.2049,9.60451 -102.9154,81.25901 -99.9344,92.88961 2.9809,11.63062 133.9916,21.48214 132.2948,33.36819 -1.6968,11.88606 -130.2309,-15.31336 -136.3472,-4.9814 -6.1162,10.33195 79.5563,109.93654 69.9518,117.14144 z M -530.13148,3019.9831 c -9.67965,7.2613 -83.06757,-101.8122 -94.93916,-99.4699 -11.8716,2.3423 -38.33082,131.1163 -50.04306,128.0758 -11.71224,-3.0405 27.80826,-128.4238 18.57512,-136.2449 -9.23313,-7.8212 -126.40972,51.7814 -131.335,40.7287 -4.92528,-11.0528 117.74388,-58.3296 118.10196,-70.4247 0.35806,-12.0952 -119.29952,-66.5459 -113.72901,-77.2879 5.57051,-10.742 119.01597,55.688 128.6956,48.4267 9.67965,-7.2612 -22.35434,-134.7628 -10.48275,-137.1051 11.8716,-2.3424 30.66661,127.7713 42.37884,130.8118 11.71225,3.0405 91.4241,-101.5005 100.65723,-93.6794 9.23313,7.8212 -80.77534,103.6403 -75.85006,114.693 4.92529,11.0527 136.35834,8.1937 136.00028,20.2888 -0.35808,12.0952 -131.39182,1.4659 -136.96233,12.208 -5.5705,10.742 78.61196,111.7179 68.93234,118.9791 z M 1738.8965,2854.6168 c -11.4761,8.6089 -97.0937,-122.9702 -110.9908,-119.4083 -13.897,3.5618 -25.6683,160.1022 -39.8705,158.0748 -14.2023,-2.0274 18.2974,-155.6088 5.9521,-162.9168 -12.3453,-7.3081 -131.3596,95.0591 -139.9685,83.583 -8.609,-11.4761 122.9702,-97.0937 119.4083,-110.9908 -3.5619,-13.897 -160.1022,-25.6683 -158.0748,-39.8705 2.0274,-14.2023 155.6087,18.2974 162.9168,5.9521 7.3081,-12.3453 -95.0592,-131.3596 -83.583,-139.9686 11.4761,-8.6089 97.0937,122.9703 110.9908,119.4084 13.897,-3.5619 25.6682,-160.1022 39.8705,-158.0748 14.2023,2.0274 -18.2974,155.6087 -5.9521,162.9168 12.3453,7.3081 131.3596,-95.0592 139.9685,-83.5831 8.6089,11.4762 -122.9702,97.0938 -119.4083,110.9908 3.5618,13.8971 160.1022,25.6684 158.0748,39.8706 -2.0274,14.2023 -155.6088,-18.2974 -162.9168,-5.9521 -7.3081,12.3453 95.0591,131.3596 83.583,139.9685 z M 3008.6269,1731.3466 c -9.6979,10.7238 -120.6435,-100.4783 -134.0338,-95.0244 -13.3903,5.454 -15.0654,162.5274 -29.4961,161.6314 -14.4306,-0.896 3.3372,-156.9702 -9.2756,-164.0386 -12.6128,-7.0685 -136.4621,89.5555 -144.7589,77.7145 -8.2969,-11.841 124.8048,-95.2602 122.4672,-109.5284 -2.3376,-14.2682 -155.1,-50.8534 -151.0154,-64.7229 4.0847,-13.8694 152.292,38.1827 161.9899,27.459 9.6979,-10.7237 -56.9445,-152.9687 -43.5542,-158.4227 13.3903,-5.454 65.1001,142.8732 79.5307,143.7692 14.4307,0.8959 84.0914,-139.8955 96.7043,-132.827 12.6128,7.0685 -71.1135,139.9773 -62.8167,151.8182 8.2969,11.841 161.8048,-21.478 164.1424,-7.2098 2.3376,14.2682 -153.7771,31.6756 -157.8618,45.5451 -4.0846,13.8695 117.6759,113.1127 107.978,123.8364 z M 1864.43,699.46219 c -14.2355,-1.77925 15.5789,-155.90438 3.1079,-162.99587 -12.471,-7.0915 -129.6806,97.33723 -138.4885,86.01309 -8.8079,-11.32412 121.257,-99.2251 117.4532,-113.05786 -3.8039,-13.83274 -160.5259,-22.87021 -158.7466,-37.10569 1.7792,-14.23549 155.9043,15.57891 162.9958,3.10793 7.0915,-12.471 -97.3372,-129.68062 -86.0131,-138.4885 11.3242,-8.80788 99.2251,121.25699 113.0579,117.45313 13.8328,-3.80387 22.8702,-160.52585 37.1057,-158.7466 14.2355,1.77926 -15.5789,155.90437 -3.1079,162.99588 12.4709,7.09149 129.6806,-97.33723 138.4885,-86.01311 8.8079,11.32413 -121.257,99.2251 -117.4532,113.05785 3.8039,13.83276 160.5259,22.87022 158.7466,37.10571 -1.7792,14.23548 -155.9044,-15.5789 -162.9958,-3.10793 -7.0916,12.47099 97.3372,129.68062 86.013,138.48849 -11.3241,8.80789 -99.225,-121.25698 -113.0578,-117.45311 -13.8328,3.80386 -22.8702,160.52584 -37.1057,158.74659 z" /></g></svg>
