<?xml version="1.0" encoding="UTF-8" standalone="no"?>
<!-- Created with Inkscape (http://www.inkscape.org/) -->

<svg
   width="1080mm"
   height="1920mm"
   viewBox="0 0 1080 1920"
   version="1.1"
   id="svg5"
   xml:space="preserve"
   inkscape:version="1.2.2 (b0a8486541, 2022-12-01)"
   sodipodi:docname="jl-site-frame-contenthub-mobile.svg"
   xmlns:inkscape="http://www.inkscape.org/namespaces/inkscape"
   xmlns:sodipodi="http://sodipodi.sourceforge.net/DTD/sodipodi-0.dtd"
   xmlns:xlink="http://www.w3.org/1999/xlink"
   xmlns="http://www.w3.org/2000/svg"
   xmlns:svg="http://www.w3.org/2000/svg"><sodipodi:namedview
     id="namedview7"
     pagecolor="#505050"
     bordercolor="#ffffff"
     borderopacity="1"
     inkscape:showpageshadow="0"
     inkscape:pageopacity="0"
     inkscape:pagecheckerboard="1"
     inkscape:deskcolor="#505050"
     inkscape:document-units="mm"
     showgrid="false"
     inkscape:zoom="0.044016232"
     inkscape:cx="1737.9952"
     inkscape:cy="3510.0687"
     inkscape:window-width="1366"
     inkscape:window-height="722"
     inkscape:window-x="0"
     inkscape:window-y="0"
     inkscape:window-maximized="1"
     inkscape:current-layer="svg5" /><defs
     id="defs2"><linearGradient
       id="glow-master"><stop
         offset="0.0"
         style="stop-color:#000000;stop-opacity:0.0;"
         id="stop1899" /><stop
         offset="0.11"
         style="stop-color:#442204;stop-opacity:0.22;"
         id="stop1901" /><stop
         offset="0.22"
         style="stop-color:#69190d;stop-opacity:0.44;"
         id="stop1903" /><stop
         offset="0.33"
         style="stop-color:#a52c16;stop-opacity:0.659;"
         id="stop1905" /><stop
         offset="0.44"
         style="stop-color:#eb7513;stop-opacity:0.878;"
         id="stop1907" /><stop
         offset="0.55"
         style="stop-color:#f2c62a;stop-opacity:1.0;"
         id="stop1909" /><stop
         offset="0.66"
         style="stop-color:#5e9a0e;stop-opacity:0.878;"
         id="stop1911" /><stop
         offset="0.77"
         style="stop-color:#0e4d0e;stop-opacity:0.659;"
         id="stop1913" /><stop
         offset="0.88"
         style="stop-color:#073720;stop-opacity:0.44;"
         id="stop1915" /><stop
         offset="0.94"
         style="stop-color:#442204;stop-opacity:0.22;"
         id="stop1917" /><stop
         offset="1.0"
         style="stop-color:#000000;stop-opacity:0.0;"
         id="stop1919" /></linearGradient><linearGradient
       id="linearGradient6061-1"><stop
         style="stop-color:#e8e2da;stop-opacity:0;"
         offset="0"
         id="stop9525" /><stop
         style="stop-color:#69190d;stop-opacity:0.22;"
         offset="0.11359598"
         id="stop9527" /><stop
         style="stop-color:#a52c16;stop-opacity:0.55000001;"
         offset="0.22"
         id="stop9529" /><stop
         style="stop-color:#eb7513;stop-opacity:0.88;"
         offset="0.33000001"
         id="stop9531" /><stop
         style="stop-color:#f2c62a;stop-opacity:1;"
         offset="0.5"
         id="stop9533" /><stop
         style="stop-color:#5e9a0e;stop-opacity:0.88;"
         offset="0.66000003"
         id="stop9535" /><stop
         style="stop-color:#0e4d0e;stop-opacity:0.55000001;"
         offset="0.76999998"
         id="stop9537" /><stop
         style="stop-color:#073720;stop-opacity:0.22;"
         offset="0.88"
         id="stop9539" /><stop
         style="stop-color:#e8e2da;stop-opacity:0;"
         offset="1"
         id="stop9541" /></linearGradient><rect
       x="676.6927"
       y="29.501663"
       width="1725.2808"
       height="58.477051"
       id="rect6077" /><rect
       x="1797.4476"
       y="32.03938"
       width="1182.022"
       height="74.537186"
       id="rect6071" /><linearGradient
       id="linearGradient6061-2"><stop
         style="stop-color:#e8e2da;stop-opacity:0;"
         offset="0"
         id="stop6057" /><stop
         style="stop-color:#69190d;stop-opacity:0.22;"
         offset="0.11359598"
         id="stop2182" /><stop
         style="stop-color:#a52c16;stop-opacity:0.55000001;"
         offset="0.22"
         id="stop2186" /><stop
         style="stop-color:#eb7513;stop-opacity:0.88;"
         offset="0.33000001"
         id="stop6065" /><stop
         style="stop-color:#f2c62a;stop-opacity:1;"
         offset="0.5"
         id="stop2188" /><stop
         style="stop-color:#5e9a0e;stop-opacity:0.88;"
         offset="0.66000003"
         id="stop2184" /><stop
         style="stop-color:#0e4d0e;stop-opacity:0.55000001;"
         offset="0.76999998"
         id="stop2192" /><stop
         style="stop-color:#073720;stop-opacity:0.22;"
         offset="0.88"
         id="stop9504" /><stop
         style="stop-color:#000000;stop-opacity:0;"
         offset="1"
         id="stop6059" /></linearGradient><rect
       x="1144.2627"
       y="175.90457"
       width="600.52818"
       height="235.33107"
       id="rect22829" /><rect
       x="1152.7903"
       y="173.17295"
       width="642.74494"
       height="418.02634"
       id="rect22823" /><rect
       x="139.99581"
       y="174.04989"
       width="559.98791"
       height="395.49895"
       id="rect22817" /><rect
       x="145.0775"
       y="180.81232"
       width="697.10984"
       height="181.23741"
       id="rect22399" /><linearGradient
       id="linearGradient5077-1"><stop
         style="stop-color:#35031a;stop-opacity:1;"
         offset="0"
         id="stop6247" /><stop
         style="stop-color:#9f260a;stop-opacity:1;"
         offset="0.22"
         id="stop6249" /><stop
         style="stop-color:#d37a0d;stop-opacity:1;"
         offset="0.44"
         id="stop6251" /><stop
         style="stop-color:#076909;stop-opacity:1;"
         offset="0.76999998"
         id="stop6253" /><stop
         style="stop-color:#07466a;stop-opacity:1;"
         offset="0.88"
         id="stop6255" /><stop
         style="stop-color:#35031a;stop-opacity:1"
         offset="1"
         id="stop6257" /></linearGradient><linearGradient
       id="linearGradient5077"><stop
         style="stop-color:#35031a;stop-opacity:1"
         offset="0"
         id="stop6244" /><stop
         style="stop-color:#07466a;stop-opacity:1;"
         offset="0.14491931"
         id="stop6242" /><stop
         style="stop-color:#076909;stop-opacity:1;"
         offset="0.46923536"
         id="stop6240" /><stop
         style="stop-color:#d37a0d;stop-opacity:1;"
         offset="0.74955529"
         id="stop6238" /><stop
         style="stop-color:#9f260a;stop-opacity:1;"
         offset="0.8828578"
         id="stop6236" /><stop
         style="stop-color:#35031a;stop-opacity:1;"
         offset="1"
         id="stop6234" /></linearGradient><linearGradient
       id="linearGradient5978"><stop
         style="stop-color:#35031a;stop-opacity:1;"
         offset="0"
         id="stop5966" /><stop
         style="stop-color:#9f260a;stop-opacity:1;"
         offset="0.22"
         id="stop5968" /><stop
         style="stop-color:#d37a0d;stop-opacity:1;"
         offset="0.44"
         id="stop5970" /><stop
         style="stop-color:#076909;stop-opacity:1;"
         offset="0.76999998"
         id="stop5972" /><stop
         style="stop-color:#07466a;stop-opacity:1;"
         offset="0.88"
         id="stop5974" /><stop
         style="stop-opacity:0"
         offset="1"
         id="stop5976" /></linearGradient><linearGradient
       id="linearGradient5077-2"><stop
         style="stop-color:#35031a;stop-opacity:1;"
         offset="0"
         id="stop5065" /><stop
         style="stop-color:#9f260a;stop-opacity:1;"
         offset="0.33126885"
         id="stop5067" /><stop
         style="stop-color:#d37a0d;stop-opacity:1;"
         offset="0.33126885"
         id="stop5069" /><stop
         style="stop-color:#076909;stop-opacity:1;"
         offset="0.76338273"
         id="stop5071" /><stop
         style="stop-color:#07466a;stop-opacity:1;"
         offset="0.88"
         id="stop5073" /><stop
         style="stop-color:#35031a;stop-opacity:1"
         offset="1"
         id="stop5075" /></linearGradient><linearGradient
       id="linearGradient4914"><stop
         style="stop-color:#000000;stop-opacity:1;"
         offset="0"
         id="stop4918" /><stop
         style="stop-color:#000000;stop-opacity:0;"
         offset="1"
         id="stop4920" /></linearGradient><linearGradient
       id="linearGradient4914-1"
       inkscape:swatch="gradient"><stop
         style="stop-color:#000000;stop-opacity:1;"
         offset="0"
         id="stop4910" /><stop
         style="stop-color:#000000;stop-opacity:0;"
         offset="1"
         id="stop4912" /></linearGradient><linearGradient
       id="Rainbowie"
       inkscape:swatch="gradient"><stop
         style="stop-color:#35031a;stop-opacity:1;"
         offset="0.11"
         id="stop4760" /><stop
         style="stop-color:#6a1907;stop-opacity:1;"
         offset="0.22"
         id="stop4762" /><stop
         style="stop-color:#d3560d;stop-opacity:1;"
         offset="0.44"
         id="stop4764" /><stop
         style="stop-color:#d29e0e;stop-opacity:1;"
         offset="0.55000001"
         id="stop4766" /><stop
         style="stop-color:#07692e;stop-opacity:1;"
         offset="0.88"
         id="stop4768" /><stop
         style="stop-color:#076769;stop-opacity:1;"
         offset="0.99880683"
         id="stop4770" /></linearGradient><linearGradient
       id="Rainbowie-10"><stop
         style="stop-color:#35031a;stop-opacity:1;"
         offset="0.11"
         id="stop4760-6" /><stop
         style="stop-color:#6a1907;stop-opacity:1;"
         offset="0.22"
         id="stop4762-1" /><stop
         style="stop-color:#d3560d;stop-opacity:1;"
         offset="0.44"
         id="stop4764-5" /><stop
         style="stop-color:#d29e0e;stop-opacity:1;"
         offset="0.55000001"
         id="stop4766-9" /><stop
         style="stop-color:#07692e;stop-opacity:1;"
         offset="0.88"
         id="stop4768-4" /><stop
         style="stop-color:#076769;stop-opacity:1;"
         offset="0.99880683"
         id="stop4770-9" /></linearGradient><linearGradient
       xlink:href="#linearGradient5077-1"
       id="linearGradient5021"
       x1="150.16481"
       y1="468.45493"
       x2="240.06136"
       y2="600.76404"
       gradientUnits="userSpaceOnUse" /><linearGradient
       xlink:href="#linearGradient5077-1"
       id="linearGradient5055"
       x1="673.78912"
       y1="67.176918"
       x2="440.46896"
       y2="549.38538"
       gradientUnits="userSpaceOnUse" /><linearGradient
       xlink:href="#linearGradient5077-1"
       id="linearGradient5063"
       x1="272.62979"
       y1="233.06071"
       x2="602.46735"
       y2="389.97263"
       gradientUnits="userSpaceOnUse" /><linearGradient
       xlink:href="#linearGradient5077-1"
       id="linearGradient5085"
       x1="240.41537"
       y1="575.26831"
       x2="740.96198"
       y2="169.36858"
       gradientUnits="userSpaceOnUse" /><linearGradient
       xlink:href="#linearGradient5077-1"
       id="linearGradient5093"
       x1="203.44667"
       y1="318.94632"
       x2="563.63208"
       y2="842.80829"
       gradientUnits="userSpaceOnUse" /><rect
       x="676.6927"
       y="29.501663"
       width="264.4473"
       height="96.707763"
       id="rect10974" /><rect
       x="676.6927"
       y="29.501663"
       width="264.4473"
       height="96.707763"
       id="rect11029" /><rect
       x="676.6927"
       y="29.501663"
       width="264.4473"
       height="96.707763"
       id="rect11057" /><rect
       x="676.6927"
       y="29.501663"
       width="264.4473"
       height="96.707763"
       id="rect11068" /><rect
       x="676.6927"
       y="29.501663"
       width="264.4473"
       height="96.707763"
       id="rect11085" /><filter
       id="glow-filter-statics"
       x="-0.034142926"
       y="-0.034904367"
       width="1.0682865"
       height="1.0698093"><feGaussianBlur
         stdDeviation="3"
         id="feGaussianBlur101107" /></filter><filter
       id="glow-filter-geometrics"
       x="-0.089845812"
       y="-0.055204272"
       width="1.1796916"
       height="1.1104085"><feGaussianBlur
         stdDeviation="3"
         id="feGaussianBlur101110" /></filter><filter
       id="glow-filter-organics"
       x="-0.059221462"
       y="-0.041409117"
       width="1.1184429"
       height="1.0828182"><feGaussianBlur
         stdDeviation="3"
         id="feGaussianBlur101113" /></filter><linearGradient
       xlink:href="#glow-master"
       id="glow-applied-1"
       gradientUnits="userSpaceOnUse"
       x1="281.86696993774086"
       y1="186.9452441911846"
       x2="-43.61911993774085"
       y2="68.47799580881538" /><linearGradient
       xlink:href="#glow-master"
       id="glow-applied-2"
       gradientUnits="userSpaceOnUse"
       x1="216.68970353643374"
       y1="110.60927970058387"
       x2="543.0650597468217"
       y2="226.60415243322882" /><linearGradient
       xlink:href="#glow-master"
       id="glow-applied-3"
       gradientUnits="userSpaceOnUse"
       x1="294.6873211984884"
       y1="136.03230400704985"
       x2="610.262673451882"
       y2="-6.7538321962478705" /><linearGradient
       xlink:href="#glow-master"
       id="glow-applied-9"
       gradientUnits="userSpaceOnUse"
       x1="184.00111602792597"
       y1="-32.86506259979724"
       x2="54.246733972074026"
       y2="288.28830259979725" /><linearGradient
       xlink:href="#glow-master"
       id="glow-applied-10"
       gradientUnits="userSpaceOnUse"
       x1="542.801336027926"
       y1="93.05764740020275"
       x2="413.04695397207405"
       y2="414.21101259979724" /><linearGradient
       xlink:href="#glow-master"
       id="glow-applied-18"
       gradientUnits="userSpaceOnUse"
       x1="119.12392499999999"
       y1="-45.47591104779231"
       x2="119.12392500000001"
       y2="300.8991510477923" /><linearGradient
       xlink:href="#glow-master"
       id="glow-applied-19"
       gradientUnits="userSpaceOnUse"
       x1="477.924145"
       y1="80.44679895220769"
       x2="477.92414500000007"
       y2="426.8218610477923" /><linearGradient
       xlink:href="#glow-master"
       id="glow-applied-20"
       gradientUnits="userSpaceOnUse"
       x1="459.0832310477923"
       y1="187.789775"
       x2="112.7081689522077"
       y2="187.78977500000002" /><linearGradient
       xlink:href="#glow-master"
       id="glow-applied-29"
       gradientUnits="userSpaceOnUse"
       x1="461.0832310477923"
       y1="188.931035"
       x2="114.7081689522077"
       y2="188.93103499999998" /><filter
       id="glow-filter-statics-2"
       x="-0.01849793"
       y="-0.036482185"
       width="1.0369962"
       height="1.072965"><feGaussianBlur
         stdDeviation="3"
         id="feGaussianBlur104238" /></filter><filter
       id="glow-filter-geometrics-4"
       x="-0.059689481"
       y="-0.21876775"
       width="1.119379"
       height="1.4375355"><feGaussianBlur
         stdDeviation="3"
         id="feGaussianBlur104241" /></filter><filter
       id="glow-filter-organics-9"
       x="-0.013237407"
       y="-0.036726714"
       width="1.0264748"
       height="1.0734539"><feGaussianBlur
         stdDeviation="3"
         id="feGaussianBlur104244" /></filter><linearGradient
       xlink:href="#glow-master"
       id="glow-applied-1-9"
       gradientUnits="userSpaceOnUse"
       x1="497.98253391054874"
       y1="-219.789486656566"
       x2="229.6132260894513"
       y2="517.5491266565659" /><linearGradient
       xlink:href="#glow-master"
       id="glow-applied-2-9"
       gradientUnits="userSpaceOnUse"
       x1="525.0361119105487"
       y1="-163.750041656566"
       x2="256.6668040894513"
       y2="573.5885716565659" /><linearGradient
       xlink:href="#glow-master"
       id="glow-applied-3-4"
       gradientUnits="userSpaceOnUse"
       x1="669.3743419105488"
       y1="-54.187561656566004"
       x2="401.0050340894513"
       y2="683.1510516565659" /><linearGradient
       xlink:href="#glow-master"
       id="glow-applied-9-9"
       gradientUnits="userSpaceOnUse"
       x1="0.0361336106153658"
       y1="1.9105345030914407"
       x2="727.5596263893847"
       y2="295.8491054969086" /><linearGradient
       xlink:href="#glow-master"
       id="glow-applied-10-8"
       gradientUnits="userSpaceOnUse"
       x1="171.42794361061536"
       y1="167.51246450309145"
       x2="898.9514363893846"
       y2="461.4510354969086" /><linearGradient
       xlink:href="#glow-master"
       id="glow-applied-11"
       gradientUnits="userSpaceOnUse"
       x1="-189.0365228558783"
       y1="70.03425163293498"
       x2="389.54942411065934"
       y2="600.0612490922551" /><linearGradient
       xlink:href="#glow-master"
       id="glow-applied-16"
       gradientUnits="userSpaceOnUse"
       x1="-28.53180153802333"
       y1="148.87982"
       x2="756.1275615380234"
       y2="148.87982" /><linearGradient
       xlink:href="#glow-master"
       id="glow-applied-17"
       gradientUnits="userSpaceOnUse"
       x1="151.88952608437597"
       y1="326.7333311804086"
       x2="935.0746502117377"
       y2="374.8101177672469" /><linearGradient
       xlink:href="#glow-master"
       id="glow-applied-18-1"
       gradientUnits="userSpaceOnUse"
       x1="309.46558311667775"
       y1="359.9430179541543"
       x2="494.4496199431885"
       y2="-402.5995855653313" /><linearGradient
       xlink:href="#glow-master"
       id="glow-applied-27"
       gradientUnits="userSpaceOnUse"
       x1="325.0228860899596"
       y1="94.62593890469084"
       x2="622.4539743849498"
       y2="1139.1472967994782" /><filter
       id="glow-filter-statics-4"
       x="-0.016460317"
       y="-0.016915177"
       width="1.0329209"
       height="1.0338306"><feGaussianBlur
         stdDeviation="3"
         id="feGaussianBlur104664" /></filter><filter
       id="glow-filter-geometrics-0"
       x="-0.10131056"
       y="-0.091394094"
       width="1.2026211"
       height="1.1827882"><feGaussianBlur
         stdDeviation="3"
         id="feGaussianBlur104667" /></filter><filter
       id="glow-filter-organics-3"
       x="-0.01468831"
       y="-0.022513554"
       width="1.0293766"
       height="1.0450271"><feGaussianBlur
         stdDeviation="3"
         id="feGaussianBlur104670" /></filter><linearGradient
       xlink:href="#glow-master"
       id="glow-applied-1-5"
       gradientUnits="userSpaceOnUse"
       x1="470.4503345058871"
       y1="-130.77032070338703"
       x2="184.36100549411285"
       y2="655.253650703387" /><linearGradient
       xlink:href="#glow-master"
       id="glow-applied-3-5"
       gradientUnits="userSpaceOnUse"
       x1="614.788564505887"
       y1="-21.207840703387035"
       x2="328.6992354941128"
       y2="764.816130703387" /><linearGradient
       xlink:href="#glow-master"
       id="glow-applied-10-9"
       gradientUnits="userSpaceOnUse"
       x1="-60.37471662329148"
       y1="105.56821893969365"
       x2="715.1860566232915"
       y2="418.91511106030634" /><linearGradient
       xlink:href="#glow-master"
       id="glow-applied-11-9"
       gradientUnits="userSpaceOnUse"
       x1="83.96351337670853"
       y1="215.13069893969364"
       x2="859.5242866232916"
       y2="528.4775910603064" /><linearGradient
       xlink:href="#glow-master"
       id="glow-applied-12"
       gradientUnits="userSpaceOnUse"
       x1="-287.63631780422924"
       y1="84.02007456704607"
       x2="329.1527878026012"
       y2="649.0439563678165" /><linearGradient
       xlink:href="#glow-master"
       id="glow-applied-17-0"
       gradientUnits="userSpaceOnUse"
       x1="-90.82894950216547"
       y1="262.241665"
       x2="745.6402895021654"
       y2="262.241665" /><linearGradient
       xlink:href="#glow-master"
       id="glow-applied-18-2"
       gradientUnits="userSpaceOnUse"
       x1="59.194478466792106"
       y1="378.4734319135356"
       x2="894.0921367450829"
       y2="429.7246563077939" /><linearGradient
       xlink:href="#glow-master"
       id="glow-applied-19-4"
       gradientUnits="userSpaceOnUse"
       x1="160.50477587567255"
       y1="554.7440391723701"
       x2="1091.6010497661186"
       y2="-133.33447991388354" /><linearGradient
       xlink:href="#glow-master"
       id="glow-applied-24"
       gradientUnits="userSpaceOnUse"
       x1="344.1077662208541"
       y1="460.28906434601265"
       x2="541.3060203850937"
       y2="-352.60307877942085" /><linearGradient
       xlink:href="#glow-master"
       id="glow-applied-33"
       gradientUnits="userSpaceOnUse"
       x1="34.997734537319786"
       y1="332.05097097865166"
       x2="836.8867671061198"
       y2="570.0735901692622" /><linearGradient
       xlink:href="#glow-master"
       id="glow-applied-42"
       gradientUnits="userSpaceOnUse"
       x1="85.72171555023576"
       y1="-25.25885190711773"
       x2="1166.8609192636366"
       y2="388.9033626583154" /><filter
       id="glow-filter-statics-1"
       x="-0.016460317"
       y="-0.016915177"
       width="1.0329209"
       height="1.0338306"><feGaussianBlur
         stdDeviation="3"
         id="feGaussianBlur2010" /></filter><filter
       id="glow-filter-geometrics-2"
       x="-0.078657362"
       y="-0.13644734"
       width="1.1573227"
       height="1.2729085"><feGaussianBlur
         stdDeviation="3"
         id="feGaussianBlur2013" /></filter><filter
       id="glow-filter-organics-93"
       x="-0.013931181"
       y="-0.021353451"
       width="1.0278624"
       height="1.0427065"><feGaussianBlur
         stdDeviation="3"
         id="feGaussianBlur2016" /></filter><filter
       id="glow-filter-statics-0"
       x="-0.01849793"
       y="-0.036482185"
       width="1.0369962"
       height="1.072965"><feGaussianBlur
         stdDeviation="3"
         id="feGaussianBlur4634" /></filter><filter
       id="glow-filter-geometrics-6"
       x="-0.059689481"
       y="-0.21876775"
       width="1.119379"
       height="1.4375355"><feGaussianBlur
         stdDeviation="3"
         id="feGaussianBlur4637" /></filter><filter
       id="glow-filter-organics-8"
       x="-0.081533292"
       y="-0.088496479"
       width="1.1629694"
       height="1.176994"><feGaussianBlur
         stdDeviation="3"
         id="feGaussianBlur4640" /></filter><filter
       id="glow-filter-statics-9"
       x="-0.01849793"
       y="-0.061762975"
       width="1.0369962"
       height="1.123527"><feGaussianBlur
         stdDeviation="3"
         id="feGaussianBlur5622" /></filter><filter
       id="glow-filter-geometrics-3"
       x="-0.29543535"
       y="-0.29543535"
       width="1.5908707"
       height="1.5908707"><feGaussianBlur
         stdDeviation="3"
         id="feGaussianBlur5625" /></filter><filter
       id="glow-filter-organics-90"
       x="-0.014300836"
       y="-0.098312859"
       width="1.0281858"
       height="1.1969629"><feGaussianBlur
         stdDeviation="3"
         id="feGaussianBlur5628" /></filter><linearGradient
       xlink:href="#glow-master"
       id="glow-applied-1-8"
       gradientUnits="userSpaceOnUse"
       x1="491.538689471146"
       y1="-276.10520579240085"
       x2="237.51984052885405"
       y2="421.8058457924009" /><linearGradient
       xlink:href="#glow-master"
       id="glow-applied-2-8"
       gradientUnits="userSpaceOnUse"
       x1="518.592267471146"
       y1="-225.32247079240085"
       x2="264.57341852885406"
       y2="472.5885807924009" /><linearGradient
       xlink:href="#glow-master"
       id="glow-applied-3-50"
       gradientUnits="userSpaceOnUse"
       x1="662.930497471146"
       y1="-115.75999079240086"
       x2="408.9116485288541"
       y2="582.1510607924008" /><linearGradient
       xlink:href="#glow-master"
       id="glow-applied-8"
       gradientUnits="userSpaceOnUse"
       x1="20.21887847596645"
       y1="-66.2601059831493"
       x2="708.8396515240336"
       y2="211.9607459831493" /><linearGradient
       xlink:href="#glow-master"
       id="glow-applied-9-96"
       gradientUnits="userSpaceOnUse"
       x1="191.61068847596644"
       y1="94.08511401685071"
       x2="880.2314615240335"
       y2="372.30596598314935" /><linearGradient
       xlink:href="#glow-master"
       id="glow-applied-10-3"
       gradientUnits="userSpaceOnUse"
       x1="-144.4257666629008"
       y1="8.318780139801156"
       x2="403.2215684809576"
       y2="510.0037488721732" /><linearGradient
       xlink:href="#glow-master"
       id="glow-applied-11-8"
       gradientUnits="userSpaceOnUse"
       x1="-6.821449130917813"
       y1="72.85032"
       x2="735.8799791309178"
       y2="72.85032" /><linearGradient
       xlink:href="#glow-master"
       id="glow-applied-12-5"
       gradientUnits="userSpaceOnUse"
       x1="178.53957069959242"
       y1="246.93005455115545"
       x2="919.84559170025"
       y2="292.4360406446696" /><linearGradient
       xlink:href="#glow-master"
       id="glow-applied-13"
       gradientUnits="userSpaceOnUse"
       x1="192.78451891313256"
       y1="170.1310443305959"
       x2="814.1245164478995"
       y2="989.0681778015513" /><linearGradient
       xlink:href="#glow-master"
       id="glow-applied-21"
       gradientUnits="userSpaceOnUse"
       x1="178.74149815613637"
       y1="241.471000595806"
       x2="921.3836269939569"
       y2="250.85588061687397" /><filter
       id="glow-filter-statics-6"
       x="-0.0082651557"
       y="-0.0040555248"
       width="1.0165301"
       height="1.0081111"><feGaussianBlur
         stdDeviation="3"
         id="feGaussianBlur9688" /></filter><filter
       id="glow-filter-geometrics-9"
       x="-0.0099399365"
       y="-0.0048817136"
       width="1.019881"
       height="1.0097656"><feGaussianBlur
         stdDeviation="3"
         id="feGaussianBlur9691" /></filter><filter
       id="glow-filter-organics-2"
       x="-0.0073458881"
       y="-0.0055554965"
       width="1.0146918"
       height="1.0111129"><feGaussianBlur
         stdDeviation="3"
         id="feGaussianBlur9694" /></filter><linearGradient
       xlink:href="#glow-master"
       id="glow-applied-1-2"
       gradientUnits="userSpaceOnUse"
       x1="506.19007541281235"
       y1="514.5720954523736"
       x2="-242.93695541281235"
       y2="241.9121545476264" /><linearGradient
       xlink:href="#glow-master"
       id="glow-applied-2-4"
       gradientUnits="userSpaceOnUse"
       x1="755.3964054128123"
       y1="247.40007454762645"
       x2="6.269374587187656"
       y2="520.0600154523736" /><linearGradient
       xlink:href="#glow-master"
       id="glow-applied-3-7"
       gradientUnits="userSpaceOnUse"
       x1="777.6542598505803"
       y1="-139.03054039480298"
       x2="427.06238805438744"
       y2="576.9443831313207" /><linearGradient
       xlink:href="#glow-master"
       id="glow-applied-6"
       gradientUnits="userSpaceOnUse"
       x1="280.9455600889132"
       y1="8.664630914664258"
       x2="-17.692440088913173"
       y2="747.8196190853357" /><linearGradient
       xlink:href="#glow-master"
       id="glow-applied-7"
       gradientUnits="userSpaceOnUse"
       x1="631.5437100889133"
       y1="-427.42330908533575"
       x2="332.9057099110868"
       y2="311.7316790853357" /><linearGradient
       xlink:href="#glow-master"
       id="glow-applied-11-81"
       gradientUnits="userSpaceOnUse"
       x1="131.62655999999998"
       y1="-20.36004248275367"
       x2="131.62656000000004"
       y2="776.8442924827536" /><linearGradient
       xlink:href="#glow-master"
       id="glow-applied-12-2"
       gradientUnits="userSpaceOnUse"
       x1="484.22470999999996"
       y1="-480.4479824827537"
       x2="484.22471"
       y2="316.75635248275364" /><linearGradient
       xlink:href="#glow-master"
       id="glow-applied-13-8"
       gradientUnits="userSpaceOnUse"
       x1="600.3998088378382"
       y1="-248.87855484611296"
       x2="109.49201041038214"
       y2="379.24904774026055" /><linearGradient
       xlink:href="#glow-master"
       id="glow-applied-22"
       gradientUnits="userSpaceOnUse"
       x1="817.7407935822188"
       y1="422.4336317704509"
       x2="47.867161837514686"
       y2="215.48111829932475" /><linearGradient
       xlink:href="#glow-master"
       id="glow-applied-31"
       gradientUnits="userSpaceOnUse"
       x1="724.6716006574251"
       y1="-118.34118863569549"
       x2="91.24320314524209"
       y2="365.7075867092534" /><filter
       id="glow-filter-statics-97"
       x="-0.021505839"
       y="-0.045869909"
       width="1.043012"
       height="1.0917406"><feGaussianBlur
         stdDeviation="3"
         id="feGaussianBlur1955" /></filter><filter
       id="glow-filter-geometrics-36"
       x="-0.28886055"
       y="-0.14613251"
       width="1.5776742"
       height="1.2922413"><feGaussianBlur
         stdDeviation="3"
         id="feGaussianBlur1958" /></filter><filter
       id="glow-filter-organics-1"
       x="-0.019460982"
       y="-0.11580739"
       width="1.0379188"
       height="1.2257643"><feGaussianBlur
         stdDeviation="3"
         id="feGaussianBlur1961" /></filter><linearGradient
       xlink:href="#glow-master"
       id="glow-applied-1-29"
       gradientUnits="userSpaceOnUse"
       x1="383.9701674648067"
       y1="-186.35368385802718"
       x2="181.06749253519325"
       y2="371.1168338580272" /><linearGradient
       xlink:href="#glow-master"
       id="glow-applied-2-3"
       gradientUnits="userSpaceOnUse"
       x1="411.0237454648067"
       y1="-128.63345985802718"
       x2="208.12107053519327"
       y2="428.83705785802715" /><linearGradient
       xlink:href="#glow-master"
       id="glow-applied-3-1"
       gradientUnits="userSpaceOnUse"
       x1="555.3619754648067"
       y1="-19.070979858027187"
       x2="352.4593005351933"
       y2="538.3995378580272" /><linearGradient
       xlink:href="#glow-master"
       id="glow-applied-8-7"
       gradientUnits="userSpaceOnUse"
       x1="7.493969747811775"
       y1="-18.735681298533024"
       x2="557.5436902521882"
       y2="203.49883129853302" /><linearGradient
       xlink:href="#glow-master"
       id="glow-applied-9-8"
       gradientUnits="userSpaceOnUse"
       x1="178.88577974781177"
       y1="148.54702870146699"
       x2="728.9355002521881"
       y2="370.78154129853306" /><linearGradient
       xlink:href="#glow-master"
       id="glow-applied-10-4"
       gradientUnits="userSpaceOnUse"
       x1="-177.28470890698708"
       y1="54.179580584407006"
       x2="260.1596369809333"
       y2="454.91056000437584" /><linearGradient
       xlink:href="#glow-master"
       id="glow-applied-12-0"
       gradientUnits="userSpaceOnUse"
       x1="-14.105036882032152"
       y1="92.381575"
       x2="579.1426968820322"
       y2="92.381575" /><linearGradient
       xlink:href="#glow-master"
       id="glow-applied-13-3"
       gradientUnits="userSpaceOnUse"
       x1="169.6479001917157"
       y1="272.9028010837951"
       x2="761.7810242837492"
       y2="309.25162457516296" /><linearGradient
       xlink:href="#glow-master"
       id="glow-applied-14"
       gradientUnits="userSpaceOnUse"
       x1="174.60424890413492"
       y1="282.8332680150928"
       x2="767.67232490026"
       y2="268.2342663214029" /><filter
       id="glow-filter-statics-06"
       x="-0.01849793"
       y="-0.036482185"
       width="1.0369962"
       height="1.072965"><feGaussianBlur
         stdDeviation="3"
         id="feGaussianBlur3089" /></filter><filter
       id="glow-filter-geometrics-8"
       x="-1.098171"
       y="-1.098171"
       width="3.1963419"
       height="3.1963419"><feGaussianBlur
         stdDeviation="3"
         id="feGaussianBlur3092" /></filter><filter
       id="glow-filter-organics-92"
       x="-0.081533292"
       y="-0.088496479"
       width="1.1629694"
       height="1.176994"><feGaussianBlur
         stdDeviation="3"
         id="feGaussianBlur3095" /></filter><filter
       id="glow-filter-statics-5"
       x="-0.013002639"
       y="-0.018920743"
       width="1.0260047"
       height="1.0378415"><feGaussianBlur
         stdDeviation="3"
         id="feGaussianBlur5481" /></filter><filter
       id="glow-filter-geometrics-61"
       x="-0.014979566"
       y="-0.09450299"
       width="1.0299517"
       height="1.1889843"><feGaussianBlur
         stdDeviation="3"
         id="feGaussianBlur5484" /></filter><filter
       id="glow-filter-organics-15"
       x="-0.013564462"
       y="-0.014920122"
       width="1.0271289"
       height="1.0298311"><feGaussianBlur
         stdDeviation="3"
         id="feGaussianBlur5487" /></filter><linearGradient
       xlink:href="#glow-master"
       id="glow-applied-1-98"
       gradientUnits="userSpaceOnUse"
       x1="317.8627967284638"
       y1="394.90386676597655"
       x2="-236.33091072846383"
       y2="193.19385323402344" /><linearGradient
       xlink:href="#glow-master"
       id="glow-applied-2-48"
       gradientUnits="userSpaceOnUse"
       x1="657.2652667284638"
       y1="334.68177323402347"
       x2="103.07155927153616"
       y2="536.3917867659766" /><linearGradient
       xlink:href="#glow-master"
       id="glow-applied-3-10"
       gradientUnits="userSpaceOnUse"
       x1="767.4907395887683"
       y1="-8.093463289203953"
       x2="508.12777277543694"
       y2="521.5747785279756" /><linearGradient
       xlink:href="#glow-master"
       id="glow-applied-5"
       gradientUnits="userSpaceOnUse"
       x1="151.23005235383576"
       y1="20.64059516398106"
       x2="-69.69816635383575"
       y2="567.4571248360189" /><linearGradient
       xlink:href="#glow-master"
       id="glow-applied-6-3"
       gradientUnits="userSpaceOnUse"
       x1="592.0243423538358"
       y1="701.2362548360189"
       x2="371.09612364616424"
       y2="154.41972516398107" /><linearGradient
       xlink:href="#glow-master"
       id="glow-applied-8-4"
       gradientUnits="userSpaceOnUse"
       x1="40.76594299999998"
       y1="-0.8314525608402619"
       x2="40.76594300000002"
       y2="588.9291725608402" /><linearGradient
       xlink:href="#glow-master"
       id="glow-applied-9-4"
       gradientUnits="userSpaceOnUse"
       x1="483.560233"
       y1="-401.67557256084024"
       x2="483.56023300000004"
       y2="188.08505256084027" /><linearGradient
       xlink:href="#glow-master"
       id="glow-applied-10-44"
       gradientUnits="userSpaceOnUse"
       x1="601.5800929579813"
       y1="-116.51012651284034"
       x2="189.91309938959205"
       y2="305.80241337945216" /><linearGradient
       inkscape:collect="always"
       xlink:href="#glow-master"
       id="linearGradient5627"
       gradientUnits="userSpaceOnUse"
       x1="592.0243423538358"
       y1="701.2362548360189"
       x2="371.09612364616424"
       y2="154.41972516398107" /></defs><g
     inkscape:label="Glow"
     transform="matrix(0.98571621,0,0,0.98571621,820.4681,1220.7138)"
     id="g9787"><path
       id="path12841"
       style="fill:none;stroke:url(#glow-applied-3-10);filter:url(#glow-filter-statics-5);opacity:1;stroke-opacity:1;fill-opacity:1;stroke-width:2;stroke-linecap:round;stroke-linejoin:round;stroke-dasharray:none;paint-order:stroke markers fill"
       inkscape:label="statics"
       transform="matrix(-1.1302109,-1.0880202,1.0880202,-1.1302109,595.77915,1193.377)"
       d="M 464.80403,78.447441 408.89376,76.286864 465.99308,20.923402 464.7798,78.451918 M 481.0014,95.250101 437.28061,50.319829 M 1038.7716,-107.47126 c 0,0 6.2976,-8.0428 -17.5361,-34.19641 -12.1473,-13.32972 -37.0794,-48.45162 -32.39056,-53.69932 m -167.73089,-99.22434 c 0,0 3.94289,2.54805 -3.30833,16.39663 -9.29238,17.74683 -53.43171,40.02614 -36.7755,60.17339 m 257.94658,106.42006 -209.93555,-218.49108 59.98774,0.66125 -109.336,105.19081 m 210.22447,37.51445 -145.60996,-151.41048 28.51845,0.83561 -50.56364,48.23734 m 35.88103,24.08412 0.3046,-64.66434 m -34.85077,63.7034 68.09622,1.75618" /><path
       id="path13801"
       style="display:inline;opacity:1;fill:none;stroke:url(#linearGradient5627);stroke-width:4;stroke-linecap:round;stroke-linejoin:round;paint-order:stroke markers fill;filter:url(#glow-filter-geometrics-61)"
       inkscape:label="geometrics"
       transform="matrix(-1.5688099,0,0,-1.5688099,909.73568,880.43729)"
       d="m 506.68406,178.57735 a 25.653601,25.653601 0 0 1 -25.6536,25.6536 25.653601,25.653601 0 0 1 -25.6536,-25.6536 25.653601,25.653601 0 0 1 25.6536,-25.6536 25.653601,25.653601 0 0 1 25.6536,25.6536 z m 522.85464,-5.89213 a 10.741062,10.741062 0 0 1 -13.8216,-6.3012 10.741062,10.741062 0 0 1 6.3012,-13.82156 10.741062,10.741062 0 0 1 13.8216,6.30119 10.741062,10.741062 0 0 1 -6.3012,13.82157 z m 15.682,13.14886 a 6.9297193,6.9297193 0 0 1 -8.9171,-4.06528 6.9297193,6.9297193 0 0 1 4.0652,-8.91715 6.9297193,6.9297193 0 0 1 8.9172,4.06529 6.9297193,6.9297193 0 0 1 -4.0653,8.91714 z m 9.7878,17.87148 a 5.2745554,5.2745554 0 0 1 -6.7873,-3.09429 5.2745554,5.2745554 0 0 1 3.0943,-6.78728 5.2745554,5.2745554 0 0 1 6.7873,3.09429 5.2745554,5.2745554 0 0 1 -3.0943,6.78728 z m 7.7158,21.50072 a 4.4913026,4.4913026 0 0 1 -5.7794,-2.6348 4.4913026,4.4913026 0 0 1 2.6348,-5.7794 4.4913026,4.4913026 0 0 1 5.7794,2.6348 4.4913026,4.4913026 0 0 1 -2.6348,5.7794 z m 4.9443,23.81904 a 2.8899748,2.8899748 0 0 1 -3.7188,-1.69538 2.8899748,2.8899748 0 0 1 1.6954,-3.71882 2.8899748,2.8899748 0 0 1 3.7188,1.69539 2.8899748,2.8899748 0 0 1 -1.6954,3.71881 z" /><path
       id="path13155"
       style="display:inline;fill:none;stroke:url(#glow-applied-10-44);filter:url(#glow-filter-organics-15);opacity:1;stroke-opacity:1;fill-opacity:1;stroke-width:5;stroke-linecap:round;stroke-linejoin:round;stroke-dasharray:none;paint-order:stroke markers fill"
       inkscape:label="organics"
       transform="matrix(-1.1233848,-1.0950668,-1.0950668,1.1233848,702.47875,536.30142)"
       d="m 240.71789,253.15677 c 0,0 33.65579,-7.26575 55.0518,-55.49242 13.28169,-29.93696 51.74056,-64.99449 85.57461,-88.5232 90.51014,-62.942111 66.21834,-95.866874 66.21834,-95.866874 m -7.36454,56.126608 c 0,0 2.43623,-6.969421 12.89537,-8.089758 10.45898,-1.120347 15.27603,2.932905 15.27603,2.932905 m -20.64841,-7.489256 c 0.53721,-0.350677 2.82383,-5.052016 9.44564,-7.147524 8.96878,-2.838182 13.44651,0.672955 13.44651,0.672955 m -17.12847,-6.011153 c 0.53721,-0.350677 0.96967,-1.961319 6.15395,-4.685919 6.80526,-3.576442 11.44681,-1.07449 11.44681,-1.07449 m -14.32006,-5.217129 c 0.5372,-0.350677 2.37662,-3.870867 5.7618,-5.836699 4.81037,-2.793325 6.9265,-1.387809 6.9265,-1.387809 M 458.3858,22.810952 c 0.53717,-0.350663 0.88131,-2.346754 3.09685,-4.090829 2.7567,-2.169997 5.01118,-1.55225 5.01118,-1.55225 m -8.77804,-3.004981 c 0.5372,-0.350665 1.2776,-1.962764 2.60361,-3.188605 1.47383,-1.3624825 3.25379,-1.2575959 3.25379,-1.2575959 m -8.76442,-2.4930777 c 0.63631,-0.077129 0.96029,-1.6344836 1.57137,-3.1476642 0.64061,-1.5855437 2.27436,-1.8372847 2.27436,-1.8372847 M 614.96683,652.13278 c 0,0 35.55086,6.91659 96.1027,-54.35553 59.61248,-60.32158 51.55645,-109.35674 85.96471,-146.99334 37.85769,-41.40966 68.37874,-40.78853 68.37874,-40.78853 m -36.53527,5.65769 c 0,0 24.66125,-17.3065 28.46558,-34.08482 2.47014,-10.89412 -1.87942,-16.22322 -1.87942,-16.22322 m 19.99669,41.19123 c 0,0 -2.17032,1.92495 -4.01983,0.72592 -2.35362,-1.52586 -2.32766,-5.1323 -5.33583,-6.63595 -4.15114,-2.07493 -17.63868,6.53904 -17.63868,6.53904 0,0 11.06586,-9.93834 15.02799,-21.32096 2.84289,-8.16723 1.08913,-9.6735 3.11309,-13.91691 3.3179,-6.95627 7.88122,-7.44219 7.88122,-7.44219 m 14.66265,25.35638 c 0,0 -1.75415,0.98596 -3.69218,-0.1584 -1.57919,-0.93251 -1.43274,-3.90914 -3.86975,-4.90634 -2.97483,-1.21729 -8.89523,2.05034 -8.89523,2.05034 0,0 6.27093,-6.0606 10.45527,-13.06869 3.2255,-5.40222 3.18446,-8.37725 4.74288,-11.35637 2.55475,-4.8837 5.12527,-5.77718 5.12527,-5.77718 m 9.47889,20.70249 c 0,0 -1.77894,1.28461 -3.15789,0.19176 -1.39301,-1.10396 -1.04036,-2.43931 -2.36036,-3.35435 -1.91417,-1.32698 -5.99237,0.10234 -5.99237,0.10234 0,0 6.44571,-3.84976 10.1245,-9.1539 2.83584,-4.08867 2.8886,-6.35496 4.42757,-8.59029 2.876,-4.17743 4.91001,-4.21599 4.91001,-4.21599 m 5.50734,15.00594 c 0,0 -1.30453,0.99846 -2.4969,0.49639 -1.26388,-0.53221 -0.81529,-1.80964 -1.72768,-2.4597 -1.52009,-1.08283 -3.32259,-0.38505 -3.32259,-0.38505 0,0 4.79303,-2.72148 7.61373,-6.18838 2.17431,-2.67242 2.40276,-4.26688 3.88901,-6.52827 2.40901,-3.66545 4.35166,-2.62233 4.35166,-2.62233 m 4.08366,11.37177 c 0,0 -0.73432,0.78763 -1.55334,0.17021 -0.47672,-0.3594 0.0784,-1.05905 -1.24866,-1.80166 -1.26557,-0.70797 -2.86818,-0.28719 -2.86818,-0.28719 0,0 3.78781,-1.79965 5.29689,-3.30652 1.38061,-1.37861 1.75317,-2.492 2.81487,-3.83597 2.77568,-3.51333 4.35166,-2.62232 4.35166,-2.62232 m -3.39411,7.02125 c 0,0 6.94934,-4.1066 11.58318,-0.29083 3.93963,3.24406 8.0126,1.00065 8.0126,1.00065 m -18.89039,2.57175 c 0,0 3.12521,-1.71525 5.57522,-0.92723 2.45004,0.78803 2.29377,3.38122 2.29377,3.38122 m 6.20924,-8.52855 c 0,0 1.55535,0.28098 5.05418,-2.02036 3.48975,-2.29532 4.23885,-3.87391 4.23885,-3.87391 M 612.46138,650.6263 c -0.0104,0.8764 12.55018,-0.89912 26.09937,-18.7402 17.03549,-22.43173 12.0038,-41.04461 18.84033,-49.02172 4.56071,-5.3216 12.74755,-10.43885 16.25431,-5.61512 2.68093,3.68775 1.28271,4.44089 1.28271,4.44089 m -21.65791,-16.84311 c 0,0 2.11069,0.0894 3.53749,4.20386 1.76668,5.09458 -0.0606,8.98112 -0.0606,8.98112 m 21.784,-6.28343 c 0,0 0.67321,-0.48095 -5.54122,-2.15128 -5.99075,-1.61021 -10.26843,4.35209 -10.26843,4.35209 m -7.18649,-14.85708 c 0,0 2.72445,-0.76717 5.49275,2.53153 1.89419,2.25711 1.71186,7.63764 1.71186,7.63764 m 12.34302,-21.58813 a 5.8993228,5.8993228 45 0 0 -6.0404,5.75478 5.8993228,5.8993228 45 0 0 5.75478,6.04041 5.8993228,5.8993228 45 0 0 6.04041,-5.75479 5.8993228,5.8993228 45 0 0 -5.75479,-6.0404 z m 14.13572,-8.03181 a 3.5720829,3.5720829 0 0 0 -3.65751,3.48457 3.5720829,3.5720829 0 0 0 3.48456,3.6575 3.5720829,3.5720829 0 0 0 3.65751,-3.48457 3.5720829,3.5720829 0 0 0 -3.48456,-3.6575 z m 13.62746,-2.64869 a 2.1112493,2.1112493 0 0 0 -2.16174,2.05952 2.1112493,2.1112493 0 0 0 2.05952,2.16174 2.1112493,2.1112493 0 0 0 2.16174,-2.05952 2.1112493,2.1112493 0 0 0 -2.05952,-2.16174 z m -87.40994,111.9087 c 0,0 10.03805,-24.101 -8.98383,-38.03918 -20.309,-14.88133 -40.3171,-0.42817 -67.55933,-9.01231 -35.23234,-11.10185 -35.30364,-45.54284 -35.30364,-45.54284 m 8.16898,35.72494 c 0,0 -1.8295,-4.75385 -9.06613,-5.3021 -7.23653,-0.54827 -10.47142,2.35016 -10.47142,2.35016 m 14.07847,-5.60745 c -0.37799,-0.23029 -2.05566,-3.42329 -6.66699,-4.72632 -6.24574,-1.76485 -9.25826,0.75246 -9.25826,0.75246 m 11.68284,-4.51265 c -0.37798,-0.23029 -0.71075,-1.33173 -4.34426,-3.09942 -4.7696,-2.32036 -7.91674,-0.49545 -7.91674,-0.49545 m 9.76319,-3.90486 c -0.37798,-0.2303 -1.72193,-2.61836 -4.09851,-3.90139 -3.37714,-1.82311 -4.80628,-0.80848 -4.80628,-0.80848 m 7.56263,-2.48276 c -0.37797,-0.23028 -0.65809,-1.59941 -2.22332,-2.75459 -1.94758,-1.43731 -3.48901,-0.96296 -3.48901,-0.96296 m 5.98888,-2.2605 c -0.37797,-0.23029 -0.92313,-1.32612 -1.86384,-2.14302 -1.04558,-0.90795 -2.27078,-0.79743 -2.27078,-0.79743 m 5.99045,-1.90723 c -0.44045,-0.0395 -0.69726,-1.10653 -1.15111,-2.13692 -0.47578,-1.07964 -1.6078,-1.21821 -1.6078,-1.21821" /></g><g
     inkscape:label="Shape"
     id="g9869"
     transform="matrix(0.98571621,0,0,0.98571621,820.4681,1222.6852)"><path
       id="path5538"
       style="opacity:1;stroke:#e8e2da;stroke-opacity:1;fill:none;fill-opacity:1;stroke-width:2;stroke-linecap:round;stroke-linejoin:round;stroke-dasharray:none;paint-order:stroke markers fill"
       inkscape:label="base"
       transform="matrix(-1.1302109,-1.0880201,1.0880201,-1.1302109,595.77918,1194.5146)"
       d="M 464.80403,78.447441 408.89376,76.286864 465.99308,20.923402 464.7798,78.451918 M 481.0014,95.250101 437.28061,50.319829 M 1039.1646,-105.07343 c 0,0 6.2976,-8.0428 -17.5361,-34.19641 -12.1473,-13.32971 -37.07938,-48.45162 -32.39054,-53.69932 m -167.73089,-99.22436 c 0,0 3.94289,2.54806 -3.30834,16.39664 -9.29237,17.74683 -53.43171,40.02614 -36.77549,60.17339 m 257.94656,106.42008 -209.93553,-218.49111 59.98774,0.66126 -109.33601,105.19081 m 210.22448,37.51446 -145.60996,-151.41049 28.51845,0.83561 -50.56364,48.23734 m 35.88103,24.08412 0.3046,-64.66434 m -34.85077,63.7034 68.09622,1.75618" /><path
       id="circle5544"
       style="display:inline;opacity:1;fill:none;stroke:#e8e2da;stroke-width:4;stroke-linecap:round;stroke-linejoin:round;paint-order:stroke markers fill"
       inkscape:label="circles"
       transform="matrix(-1.5688099,0,0,-1.5688099,909.73568,881.57497)"
       d="m 506.68406,178.57735 a 25.653601,25.653601 0 0 1 -25.6536,25.6536 25.653601,25.653601 0 0 1 -25.6536,-25.6536 25.653601,25.653601 0 0 1 25.6536,-25.6536 25.653601,25.653601 0 0 1 25.6536,25.6536 z m 521.47474,-3.89211 a 10.741062,10.741062 0 0 1 -13.8215,-6.3012 10.741062,10.741062 0 0 1 6.3012,-13.82156 10.741062,10.741062 0 0 1 13.8215,6.30119 10.741062,10.741062 0 0 1 -6.3012,13.82157 z m 15.682,13.14886 a 6.9297193,6.9297193 0 0 1 -8.9171,-4.06528 6.9297193,6.9297193 0 0 1 4.0653,-8.91715 6.9297193,6.9297193 0 0 1 8.9171,4.06529 6.9297193,6.9297193 0 0 1 -4.0653,8.91714 z m 9.7878,17.87148 a 5.2745554,5.2745554 0 0 1 -6.7873,-3.09429 5.2745554,5.2745554 0 0 1 3.0943,-6.78729 5.2745554,5.2745554 0 0 1 6.7873,3.0943 5.2745554,5.2745554 0 0 1 -3.0943,6.78728 z m 7.7159,21.50072 a 4.4913026,4.4913026 0 0 1 -5.7794,-2.63481 4.4913026,4.4913026 0 0 1 2.6348,-5.77939 4.4913026,4.4913026 0 0 1 5.7794,2.6348 4.4913026,4.4913026 0 0 1 -2.6348,5.7794 z m 4.9443,23.81904 a 2.8899748,2.8899748 0 0 1 -3.7189,-1.69539 2.8899748,2.8899748 0 0 1 1.6954,-3.71881 2.8899748,2.8899748 0 0 1 3.7188,1.69539 2.8899748,2.8899748 0 0 1 -1.6953,3.71881 z" /><path
       id="path5564"
       style="display:inline;opacity:1;stroke:#e8e2da;stroke-opacity:1;fill:none;fill-opacity:1;stroke-width:5;stroke-linecap:round;stroke-linejoin:round;stroke-dasharray:none;paint-order:stroke markers fill"
       inkscape:label="vines-flowers"
       transform="matrix(-1.1233848,-1.0950668,-1.0950668,1.1233848,702.47875,537.43907)"
       d="m 240.71789,253.15677 c 0,0 33.65579,-7.26575 55.0518,-55.49242 13.28169,-29.93696 51.74056,-64.99449 85.57461,-88.5232 90.51014,-62.942111 66.21834,-95.866874 66.21834,-95.866874 m -7.36454,56.126608 c 0,0 2.43623,-6.969421 12.89537,-8.089758 10.45898,-1.120347 15.27603,2.932905 15.27603,2.932905 m -20.64841,-7.489256 c 0.53721,-0.350677 2.82383,-5.052016 9.44564,-7.147524 8.96878,-2.838182 13.44651,0.672955 13.44651,0.672955 m -17.12847,-6.011153 c 0.53721,-0.350677 0.96967,-1.961319 6.15395,-4.685919 6.80526,-3.576442 11.44681,-1.07449 11.44681,-1.07449 m -14.32006,-5.217129 c 0.5372,-0.350677 2.37662,-3.870867 5.7618,-5.836699 4.81037,-2.793325 6.9265,-1.387809 6.9265,-1.387809 M 458.3858,22.810952 c 0.53717,-0.350663 0.88131,-2.346754 3.09685,-4.090829 2.7567,-2.169997 5.01118,-1.55225 5.01118,-1.55225 m -8.77804,-3.004981 c 0.5372,-0.350665 1.2776,-1.962764 2.60361,-3.188605 1.47383,-1.3624825 3.25379,-1.2575959 3.25379,-1.2575959 m -8.76442,-2.4930777 c 0.63631,-0.077129 0.96029,-1.6344836 1.57137,-3.1476642 0.64061,-1.5855437 2.27436,-1.8372847 2.27436,-1.8372847 M 612.86935,648.23098 c -0.0104,0.87639 12.55018,-0.89912 26.09936,-18.7402 17.03549,-22.43173 12.00381,-41.04462 18.84033,-49.02172 4.56071,-5.32161 12.74755,-10.43886 16.25431,-5.61513 2.68093,3.68775 1.28272,4.4409 1.28272,4.4409 m -21.65791,-16.84311 c 0,0 2.11069,0.0894 3.53748,4.20385 1.76669,5.09459 -0.0606,8.98113 -0.0606,8.98113 m 21.784,-6.28344 c 0,0 0.67321,-0.48094 -5.54122,-2.15127 -5.99075,-1.61021 -10.26843,4.35209 -10.26843,4.35209 M 655.95293,556.697 c 0,0 2.72445,-0.76718 5.49274,2.53152 1.89419,2.25712 1.71187,7.63765 1.71187,7.63765 m 12.34301,-21.58813 a 5.8993228,5.8993228 45 0 0 -6.0404,5.75478 5.8993228,5.8993228 45 0 0 5.75479,6.0404 5.8993228,5.8993228 45 0 0 6.0404,-5.75478 5.8993228,5.8993228 45 0 0 -5.75479,-6.0404 z m 14.13572,-8.03181 a 3.5720829,3.5720829 0 0 0 -3.65751,3.48456 3.5720829,3.5720829 0 0 0 3.48457,3.65751 3.5720829,3.5720829 0 0 0 3.6575,-3.48457 3.5720829,3.5720829 0 0 0 -3.48456,-3.6575 z m 13.62746,-2.64869 a 2.1112493,2.1112493 0 0 0 -2.16174,2.05952 2.1112493,2.1112493 0 0 0 2.05953,2.16174 2.1112493,2.1112493 0 0 0 2.16173,-2.05953 2.1112493,2.1112493 0 0 0 -2.05952,-2.16173 z m -87.88894,115.13992 c 0,0 35.55086,6.91658 96.1027,-54.35553 59.61248,-60.32158 51.55645,-109.35674 85.96471,-146.99334 37.85769,-41.40967 68.37874,-40.78853 68.37874,-40.78853 m -36.53527,5.65768 c 0,0 24.66125,-17.3065 28.46558,-34.08481 2.47014,-10.89412 -1.87942,-16.22322 -1.87942,-16.22322 m 19.99669,41.19123 c 0,0 -2.17032,1.92495 -4.01983,0.72592 -2.35362,-1.52586 -2.32766,-5.1323 -5.33583,-6.63595 -4.15114,-2.07493 -17.63868,6.53903 -17.63868,6.53903 0,0 11.06586,-9.93833 15.02799,-21.32095 2.84289,-8.16723 1.08913,-9.67351 3.11309,-13.91692 3.3179,-6.95626 7.88122,-7.44219 7.88122,-7.44219 m 14.66265,25.35638 c 0,0 -1.75415,0.98597 -3.69218,-0.1584 -1.57919,-0.9325 -1.43274,-3.90913 -3.86975,-4.90633 -2.97483,-1.21729 -8.89523,2.05034 -8.89523,2.05034 0,0 6.27093,-6.0606 10.45527,-13.06869 3.2255,-5.40222 3.18446,-8.37725 4.74288,-11.35637 2.55475,-4.8837 5.12527,-5.77718 5.12527,-5.77718 m 9.47889,20.70249 c 0,0 -1.77894,1.28461 -3.15789,0.19176 -1.39301,-1.10396 -1.04036,-2.43931 -2.36036,-3.35435 -1.91417,-1.32699 -5.99237,0.10233 -5.99237,0.10233 0,0 6.44571,-3.84975 10.1245,-9.1539 2.83584,-4.08866 2.8886,-6.35495 4.42757,-8.59028 2.876,-4.17743 4.91001,-4.21599 4.91001,-4.21599 m 5.50734,15.00594 c 0,0 -1.30453,0.99846 -2.4969,0.49639 -1.26388,-0.53221 -0.81529,-1.80964 -1.72768,-2.4597 -1.52009,-1.08283 -3.32259,-0.38505 -3.32259,-0.38505 0,0 4.79303,-2.72148 7.61373,-6.18838 2.17431,-2.67243 2.40276,-4.26688 3.88901,-6.52828 2.40901,-3.66544 4.35166,-2.62232 4.35166,-2.62232 m 4.08366,11.37177 c 0,0 -0.73432,0.78762 -1.55334,0.17021 -0.47672,-0.3594 0.0784,-1.05905 -1.24866,-1.80166 -1.26557,-0.70798 -2.86818,-0.2872 -2.86818,-0.2872 0,0 3.78781,-1.79965 5.29689,-3.30651 1.38061,-1.37861 1.75318,-2.492 2.81487,-3.83597 2.77568,-3.51333 4.35166,-2.62232 4.35166,-2.62232 m -3.39411,7.02124 c 0,0 6.94934,-4.10659 11.58318,-0.29082 3.93963,3.24406 8.0126,1.00065 8.0126,1.00065 m -18.89039,2.57175 c 0,0 3.12521,-1.71526 5.57522,-0.92723 2.45005,0.78803 2.29377,3.38121 2.29377,3.38121 m 6.20924,-8.52854 c 0,0 1.55535,0.28097 5.05418,-2.02036 3.48975,-2.29532 4.23885,-3.87391 4.23885,-3.87391 M 615.85377,646.50621 c 0,0 10.03804,-24.101 -8.98383,-38.03918 -20.309,-14.88133 -40.3171,-0.42817 -67.55933,-9.01231 -35.23235,-11.10186 -35.30364,-45.54285 -35.30364,-45.54285 m 8.16898,35.72495 c 0,0 -1.8295,-4.75386 -9.06614,-5.30211 -7.23652,-0.54827 -10.47142,2.35017 -10.47142,2.35017 m 14.07848,-5.60745 c -0.37799,-0.23029 -2.05566,-3.4233 -6.66699,-4.72633 -6.24574,-1.76485 -9.25826,0.75247 -9.25826,0.75247 m 11.68284,-4.51265 c -0.37799,-0.23029 -0.71075,-1.33173 -4.34426,-3.09942 -4.76961,-2.32036 -7.91675,-0.49545 -7.91675,-0.49545 m 9.7632,-3.90486 c -0.37798,-0.2303 -1.72194,-2.61836 -4.09851,-3.90139 -3.37715,-1.82311 -4.80628,-0.80848 -4.80628,-0.80848 m 7.56262,-2.48276 c -0.37797,-0.23028 -0.65808,-1.59941 -2.22331,-2.75459 -1.94758,-1.43731 -3.48901,-0.96296 -3.48901,-0.96296 m 5.98887,-2.2605 c -0.37797,-0.23029 -0.92312,-1.32612 -1.86384,-2.14302 -1.04557,-0.90795 -2.27078,-0.79743 -2.27078,-0.79743 m 5.99046,-1.90723 c -0.44045,-0.0396 -0.69727,-1.10654 -1.15112,-2.13692 -0.47577,-1.07965 -1.6078,-1.21821 -1.6078,-1.21821" /></g></svg>
