<?xml version="1.0" encoding="UTF-8" standalone="no"?>
<svg
   version="1.1"
   id="svg55"
   width="563.26685"
   height="82.119194"
   viewBox="0 0 563.26689 82.119187"
   sodipodi:docname="jl-site-separator5.svg"
   inkscape:version="1.2.2 (b0a8486541, 2022-12-01)"
   xmlns:inkscape="http://www.inkscape.org/namespaces/inkscape"
   xmlns:sodipodi="http://sodipodi.sourceforge.net/DTD/sodipodi-0.dtd"
   xmlns:xlink="http://www.w3.org/1999/xlink"
   xmlns="http://www.w3.org/2000/svg"
   xmlns:svg="http://www.w3.org/2000/svg">
  <defs
     id="defs59">
    <linearGradient
       id="linearGradient5077-1">
      <stop
         style="stop-color:#35031a;stop-opacity:1;"
         offset="0"
         id="stop6247" />
      <stop
         style="stop-color:#9f260a;stop-opacity:1;"
         offset="0.22"
         id="stop6249" />
      <stop
         style="stop-color:#d37a0d;stop-opacity:1;"
         offset="0.44"
         id="stop6251" />
      <stop
         style="stop-color:#076909;stop-opacity:1;"
         offset="0.76999998"
         id="stop6253" />
      <stop
         style="stop-color:#07466a;stop-opacity:1;"
         offset="0.88"
         id="stop6255" />
      <stop
         style="stop-color:#35031a;stop-opacity:1"
         offset="1"
         id="stop6257" />
    </linearGradient>
    <linearGradient
       id="linearGradient5077">
      <stop
         style="stop-color:#35031a;stop-opacity:1"
         offset="0"
         id="stop6244" />
      <stop
         style="stop-color:#07466a;stop-opacity:1;"
         offset="0.14491931"
         id="stop6242" />
      <stop
         style="stop-color:#076909;stop-opacity:1;"
         offset="0.46923536"
         id="stop6240" />
      <stop
         style="stop-color:#d37a0d;stop-opacity:1;"
         offset="0.74955529"
         id="stop6238" />
      <stop
         style="stop-color:#9f260a;stop-opacity:1;"
         offset="0.8828578"
         id="stop6236" />
      <stop
         style="stop-color:#35031a;stop-opacity:1;"
         offset="1"
         id="stop6234" />
    </linearGradient>
    <linearGradient
       id="linearGradient5978">
      <stop
         style="stop-color:#35031a;stop-opacity:1;"
         offset="0"
         id="stop5966" />
      <stop
         style="stop-color:#9f260a;stop-opacity:1;"
         offset="0.22"
         id="stop5968" />
      <stop
         style="stop-color:#d37a0d;stop-opacity:1;"
         offset="0.44"
         id="stop5970" />
      <stop
         style="stop-color:#076909;stop-opacity:1;"
         offset="0.76999998"
         id="stop5972" />
      <stop
         style="stop-color:#07466a;stop-opacity:1;"
         offset="0.88"
         id="stop5974" />
      <stop
         style="stop-opacity:0"
         offset="1"
         id="stop5976" />
    </linearGradient>
    <linearGradient
       id="linearGradient5077-2">
      <stop
         style="stop-color:#35031a;stop-opacity:1;"
         offset="0"
         id="stop5065" />
      <stop
         style="stop-color:#9f260a;stop-opacity:1;"
         offset="0.33126885"
         id="stop5067" />
      <stop
         style="stop-color:#d37a0d;stop-opacity:1;"
         offset="0.33126885"
         id="stop5069" />
      <stop
         style="stop-color:#076909;stop-opacity:1;"
         offset="0.76338273"
         id="stop5071" />
      <stop
         style="stop-color:#07466a;stop-opacity:1;"
         offset="0.88"
         id="stop5073" />
      <stop
         style="stop-color:#35031a;stop-opacity:1"
         offset="1"
         id="stop5075" />
    </linearGradient>
    <linearGradient
       id="linearGradient4931-5">
      <stop
         style="stop-color:#35031a;stop-opacity:1;"
         offset="0"
         id="stop5036" />
      <stop
         style="stop-color:#9f260a;stop-opacity:1;"
         offset="0.22"
         id="stop5038" />
      <stop
         style="stop-color:#d37a0d;stop-opacity:1;"
         offset="0.44"
         id="stop5040" />
      <stop
         style="stop-color:#076909;stop-opacity:1;"
         offset="0.76999998"
         id="stop5042" />
      <stop
         style="stop-color:#07466a;stop-opacity:1;"
         offset="0.88"
         id="stop5044" />
      <stop
         style="stop-color:#35031a;stop-opacity:1;"
         offset="1"
         id="stop5046" />
    </linearGradient>
    <linearGradient
       id="linearGradient4931-3">
      <stop
         style="stop-color:#35031a;stop-opacity:1;"
         offset="0"
         id="stop5023" />
      <stop
         style="stop-color:#9f260a;stop-opacity:1;"
         offset="0.22"
         id="stop5025" />
      <stop
         style="stop-color:#d37a0d;stop-opacity:1;"
         offset="0.44"
         id="stop5027" />
      <stop
         style="stop-color:#076909;stop-opacity:1;"
         offset="0.76999998"
         id="stop5029" />
      <stop
         style="stop-color:#07466a;stop-opacity:1;"
         offset="0.88"
         id="stop5031" />
      <stop
         style="stop-color:#35031a;stop-opacity:1;"
         offset="1"
         id="stop5033" />
    </linearGradient>
    <linearGradient
       id="linearGradient4931-6">
      <stop
         style="stop-color:#35031a;stop-opacity:1;"
         offset="0"
         id="stop4984" />
      <stop
         style="stop-color:#9f260a;stop-opacity:1;"
         offset="0.22"
         id="stop4986" />
      <stop
         style="stop-color:#d37a0d;stop-opacity:1;"
         offset="0.44"
         id="stop4988" />
      <stop
         style="stop-color:#076909;stop-opacity:1;"
         offset="0.76999998"
         id="stop4990" />
      <stop
         style="stop-color:#07466a;stop-opacity:1;"
         offset="0.88"
         id="stop4992" />
      <stop
         style="stop-color:#35031a;stop-opacity:1;"
         offset="1"
         id="stop4994" />
    </linearGradient>
    <linearGradient
       id="linearGradient4931-2">
      <stop
         style="stop-color:#35031a;stop-opacity:1;"
         offset="0"
         id="stop4971" />
      <stop
         style="stop-color:#9f260a;stop-opacity:1;"
         offset="0.22"
         id="stop4973" />
      <stop
         style="stop-color:#d37a0d;stop-opacity:1;"
         offset="0.44"
         id="stop4975" />
      <stop
         style="stop-color:#076909;stop-opacity:1;"
         offset="0.76999998"
         id="stop4977" />
      <stop
         style="stop-color:#07466a;stop-opacity:1;"
         offset="0.88"
         id="stop4979" />
      <stop
         style="stop-color:#35031a;stop-opacity:1;"
         offset="1"
         id="stop4981" />
    </linearGradient>
    <linearGradient
       id="linearGradient4931-1">
      <stop
         style="stop-color:#35031a;stop-opacity:1;"
         offset="0"
         id="stop4958" />
      <stop
         style="stop-color:#9f260a;stop-opacity:1;"
         offset="0.22"
         id="stop4960" />
      <stop
         style="stop-color:#d37a0d;stop-opacity:1;"
         offset="0.44"
         id="stop4962" />
      <stop
         style="stop-color:#076909;stop-opacity:1;"
         offset="0.76999998"
         id="stop4964" />
      <stop
         style="stop-color:#07466a;stop-opacity:1;"
         offset="0.88"
         id="stop4966" />
      <stop
         style="stop-color:#35031a;stop-opacity:1;"
         offset="1"
         id="stop4968" />
    </linearGradient>
    <linearGradient
       id="linearGradient4931">
      <stop
         style="stop-color:#35031a;stop-opacity:1;"
         offset="0"
         id="stop4945" />
      <stop
         style="stop-color:#9f260a;stop-opacity:1;"
         offset="0.22"
         id="stop4947" />
      <stop
         style="stop-color:#d37a0d;stop-opacity:1;"
         offset="0.44"
         id="stop4949" />
      <stop
         style="stop-color:#076909;stop-opacity:1;"
         offset="0.76999998"
         id="stop4951" />
      <stop
         style="stop-color:#07466a;stop-opacity:1;"
         offset="0.88"
         id="stop4953" />
      <stop
         style="stop-color:#35031a;stop-opacity:1;"
         offset="1"
         id="stop4955" />
    </linearGradient>
    <linearGradient
       id="linearGradient4931-4">
      <stop
         style="stop-color:#35031a;stop-opacity:1;"
         offset="0"
         id="stop4927" />
      <stop
         style="stop-color:#9f260a;stop-opacity:1;"
         offset="0.22"
         id="stop4935" />
      <stop
         style="stop-color:#d37a0d;stop-opacity:1;"
         offset="0.44"
         id="stop4937" />
      <stop
         style="stop-color:#076909;stop-opacity:1;"
         offset="0.76999998"
         id="stop4941" />
      <stop
         style="stop-color:#07466a;stop-opacity:1;"
         offset="0.88"
         id="stop4943" />
      <stop
         style="stop-color:#35031a;stop-opacity:1;"
         offset="1"
         id="stop4929" />
    </linearGradient>
    <linearGradient
       id="linearGradient4914">
      <stop
         style="stop-color:#000000;stop-opacity:1;"
         offset="0"
         id="stop4918" />
      <stop
         style="stop-color:#000000;stop-opacity:0;"
         offset="1"
         id="stop4920" />
    </linearGradient>
    <linearGradient
       id="linearGradient4914-1"
       inkscape:swatch="gradient">
      <stop
         style="stop-color:#000000;stop-opacity:1;"
         offset="0"
         id="stop4910" />
      <stop
         style="stop-color:#000000;stop-opacity:0;"
         offset="1"
         id="stop4912" />
    </linearGradient>
    <linearGradient
       id="linearGradient4817"
       inkscape:swatch="gradient">
      <stop
         style="stop-color:#000000;stop-opacity:1;"
         offset="0"
         id="stop4813" />
      <stop
         style="stop-color:#000000;stop-opacity:0;"
         offset="1"
         id="stop4815" />
    </linearGradient>
    <linearGradient
       id="linearGradient4807"
       inkscape:swatch="gradient">
      <stop
         style="stop-color:#000000;stop-opacity:1;"
         offset="0"
         id="stop4803" />
      <stop
         style="stop-color:#000000;stop-opacity:0;"
         offset="1"
         id="stop4805" />
    </linearGradient>
    <linearGradient
       id="Rainbowie"
       inkscape:swatch="gradient">
      <stop
         style="stop-color:#35031a;stop-opacity:1;"
         offset="0.11"
         id="stop4760" />
      <stop
         style="stop-color:#6a1907;stop-opacity:1;"
         offset="0.22"
         id="stop4762" />
      <stop
         style="stop-color:#d3560d;stop-opacity:1;"
         offset="0.44"
         id="stop4764" />
      <stop
         style="stop-color:#d29e0e;stop-opacity:1;"
         offset="0.55000001"
         id="stop4766" />
      <stop
         style="stop-color:#07692e;stop-opacity:1;"
         offset="0.88"
         id="stop4768" />
      <stop
         style="stop-color:#076769;stop-opacity:1;"
         offset="0.99880683"
         id="stop4770" />
    </linearGradient>
    <linearGradient
       id="Rainbowie-1"
       inkscape:swatch="gradient">
      <stop
         style="stop-color:#35031a;stop-opacity:1;"
         offset="0.11"
         id="stop4740" />
      <stop
         style="stop-color:#6a1907;stop-opacity:1;"
         offset="0.22"
         id="stop4754" />
      <stop
         style="stop-color:#d3560d;stop-opacity:1;"
         offset="0.44"
         id="stop4748" />
      <stop
         style="stop-color:#d29e0e;stop-opacity:1;"
         offset="0.55000001"
         id="stop4752" />
      <stop
         style="stop-color:#07692e;stop-opacity:1;"
         offset="0.88"
         id="stop4750" />
      <stop
         style="stop-color:#076769;stop-opacity:1;"
         offset="0.99880683"
         id="stop4742" />
    </linearGradient>
    <linearGradient
       id="glow-master">
      <stop
         offset="0.0"
         style="stop-color:#000000;stop-opacity:0.0;"
         id="stop105" />
      <stop
         offset="0.11"
         style="stop-color:#442204;stop-opacity:0.22;"
         id="stop107" />
      <stop
         offset="0.22"
         style="stop-color:#69190d;stop-opacity:0.44;"
         id="stop109" />
      <stop
         offset="0.33"
         style="stop-color:#a52c16;stop-opacity:0.659;"
         id="stop111" />
      <stop
         offset="0.44"
         style="stop-color:#eb7513;stop-opacity:0.878;"
         id="stop113" />
      <stop
         offset="0.55"
         style="stop-color:#f2c62a;stop-opacity:1.0;"
         id="stop115" />
      <stop
         offset="0.66"
         style="stop-color:#5e9a0e;stop-opacity:0.878;"
         id="stop117" />
      <stop
         offset="0.77"
         style="stop-color:#0e4d0e;stop-opacity:0.659;"
         id="stop119" />
      <stop
         offset="0.88"
         style="stop-color:#073720;stop-opacity:0.44;"
         id="stop121" />
      <stop
         offset="0.94"
         style="stop-color:#442204;stop-opacity:0.22;"
         id="stop123" />
      <stop
         offset="1.0"
         style="stop-color:#000000;stop-opacity:0.0;"
         id="stop125" />
    </linearGradient>
    <filter
       id="glow-filter-statics"
       x="-0.10090602"
       y="-0.10451446"
       width="1.2018138"
       height="1.2090307">
      <feGaussianBlur
         stdDeviation="3"
         id="feGaussianBlur128" />
    </filter>
    <filter
       id="glow-filter-geometrics"
       x="-0.10200939"
       y="-0.23432725"
       width="1.2040398"
       height="1.4686545">
      <feGaussianBlur
         stdDeviation="3"
         id="feGaussianBlur131" />
    </filter>
    <filter
       id="glow-filter-organics"
       x="-0.018615874"
       y="-0.044404893"
       width="1.0372317"
       height="1.0888089">
      <feGaussianBlur
         stdDeviation="3"
         id="feGaussianBlur134" />
    </filter>
    <linearGradient
       xlink:href="#glow-master"
       id="glow-applied-1"
       gradientUnits="userSpaceOnUse"
       x1="378.9760596415751"
       y1="-224.38704217840046"
       x2="184.2908303584249"
       y2="310.5062291784005" />
    <linearGradient
       xlink:href="#glow-master"
       id="glow-applied-2"
       gradientUnits="userSpaceOnUse"
       x1="476.5235916415751"
       y1="-222.40111617840046"
       x2="281.8383623584249"
       y2="312.4921551784005" />
    <linearGradient
       xlink:href="#glow-master"
       id="glow-applied-3"
       gradientUnits="userSpaceOnUse"
       x1="298.0850431058826"
       y1="-235.09117829056868"
       x2="528.7945431217838"
       y2="285.28010920157" />
    <linearGradient
       xlink:href="#glow-master"
       id="glow-applied-4"
       gradientUnits="userSpaceOnUse"
       x1="298.0850431058826"
       y1="-235.09117829056868"
       x2="528.7945431217838"
       y2="285.28010920157" />
    <linearGradient
       xlink:href="#glow-master"
       id="glow-applied-5"
       gradientUnits="userSpaceOnUse"
       x1="298.0850431058826"
       y1="-235.09117829056868"
       x2="528.7945431217838"
       y2="285.28010920157" />
    <linearGradient
       xlink:href="#glow-master"
       id="glow-applied-6"
       gradientUnits="userSpaceOnUse"
       x1="17.74693884458503"
       y1="-63.557475630798166"
       x2="545.5199511554149"
       y2="149.67666263079818" />
    <linearGradient
       xlink:href="#glow-master"
       id="glow-applied-7"
       gradientUnits="userSpaceOnUse"
       x1="218.68628884458502"
       y1="92.71966436920184"
       x2="746.4593011554149"
       y2="305.9538026307982" />
    <linearGradient
       xlink:href="#glow-master"
       id="glow-applied-8"
       gradientUnits="userSpaceOnUse"
       x1="217.572997025309"
       y1="59.28674981689487"
       x2="747.3738562300024"
       y2="267.4314106414804" />
    <linearGradient
       xlink:href="#glow-master"
       id="glow-applied-9"
       gradientUnits="userSpaceOnUse"
       x1="217.572997025309"
       y1="59.28674981689487"
       x2="747.3738562300024"
       y2="267.4314106414804" />
    <linearGradient
       xlink:href="#glow-master"
       id="glow-applied-10"
       gradientUnits="userSpaceOnUse"
       x1="217.572997025309"
       y1="59.28674981689487"
       x2="747.3738562300024"
       y2="267.4314106414804" />
    <linearGradient
       xlink:href="#glow-master"
       id="glow-applied-11"
       gradientUnits="userSpaceOnUse"
       x1="-2.9773200124170103"
       y1="43.0595935"
       x2="566.2442100124169"
       y2="43.0595935" />
    <linearGradient
       xlink:href="#glow-master"
       id="glow-applied-12"
       gradientUnits="userSpaceOnUse"
       x1="197.96202998758298"
       y1="205.3367335"
       x2="767.1835600124169"
       y2="205.3367335" />
    <linearGradient
       xlink:href="#glow-master"
       id="glow-applied-13"
       gradientUnits="userSpaceOnUse"
       x1="476.4259306292281"
       y1="111.66327945423959"
       x2="13.001171928847668"
       y2="442.1941123359927" />
    <linearGradient
       xlink:href="#glow-master"
       id="glow-applied-14"
       gradientUnits="userSpaceOnUse"
       x1="476.4259306292281"
       y1="111.66327945423959"
       x2="13.001171928847668"
       y2="442.1941123359927" />
    <linearGradient
       xlink:href="#glow-master"
       id="glow-applied-15"
       gradientUnits="userSpaceOnUse"
       x1="476.4259306292281"
       y1="111.66327945423959"
       x2="13.001171928847668"
       y2="442.1941123359927" />
    <linearGradient
       xlink:href="#glow-master"
       id="glow-applied-16"
       gradientUnits="userSpaceOnUse"
       x1="476.4259306292281"
       y1="111.66327945423959"
       x2="13.001171928847668"
       y2="442.1941123359927" />
    <linearGradient
       xlink:href="#glow-master"
       id="glow-applied-17"
       gradientUnits="userSpaceOnUse"
       x1="476.4259306292281"
       y1="111.66327945423959"
       x2="13.001171928847668"
       y2="442.1941123359927" />
    <linearGradient
       xlink:href="#glow-master"
       id="glow-applied-18"
       gradientUnits="userSpaceOnUse"
       x1="476.4259306292281"
       y1="111.66327945423959"
       x2="13.001171928847668"
       y2="442.1941123359927" />
    <linearGradient
       xlink:href="#glow-master"
       id="glow-applied-19"
       gradientUnits="userSpaceOnUse"
       x1="476.4259306292281"
       y1="111.66327945423959"
       x2="13.001171928847668"
       y2="442.1941123359927" />
    <linearGradient
       xlink:href="#glow-master"
       id="glow-applied-20"
       gradientUnits="userSpaceOnUse"
       x1="476.4259306292281"
       y1="111.66327945423959"
       x2="13.001171928847668"
       y2="442.1941123359927" />
    <linearGradient
       xlink:href="#glow-master"
       id="glow-applied-21"
       gradientUnits="userSpaceOnUse"
       x1="197.96202998758298"
       y1="205.3367335"
       x2="767.1835600124169"
       y2="205.3367335" />
    <linearGradient
       xlink:href="#glow-master"
       id="glow-applied-22"
       gradientUnits="userSpaceOnUse"
       x1="-39.71720425215686"
       y1="344.6743597291905"
       x2="496.4788571043849"
       y2="153.60646989717125" />
    <linearGradient
       xlink:href="#glow-master"
       id="glow-applied-23"
       gradientUnits="userSpaceOnUse"
       x1="-39.71720425215686"
       y1="344.6743597291905"
       x2="496.4788571043849"
       y2="153.60646989717125" />
    <linearGradient
       xlink:href="#glow-master"
       id="glow-applied-24"
       gradientUnits="userSpaceOnUse"
       x1="-39.71720425215686"
       y1="344.6743597291905"
       x2="496.4788571043849"
       y2="153.60646989717125" />
    <linearGradient
       xlink:href="#glow-master"
       id="glow-applied-25"
       gradientUnits="userSpaceOnUse"
       x1="-39.71720425215686"
       y1="344.6743597291905"
       x2="496.4788571043849"
       y2="153.60646989717125" />
    <linearGradient
       xlink:href="#glow-master"
       id="glow-applied-26"
       gradientUnits="userSpaceOnUse"
       x1="-39.71720425215686"
       y1="344.6743597291905"
       x2="496.4788571043849"
       y2="153.60646989717125" />
    <linearGradient
       xlink:href="#glow-master"
       id="glow-applied-27"
       gradientUnits="userSpaceOnUse"
       x1="-39.71720425215686"
       y1="344.6743597291905"
       x2="496.4788571043849"
       y2="153.60646989717125" />
    <linearGradient
       xlink:href="#glow-master"
       id="glow-applied-28"
       gradientUnits="userSpaceOnUse"
       x1="-39.71720425215686"
       y1="344.6743597291905"
       x2="496.4788571043849"
       y2="153.60646989717125" />
    <linearGradient
       xlink:href="#glow-master"
       id="glow-applied-29"
       gradientUnits="userSpaceOnUse"
       x1="-39.71720425215686"
       y1="344.6743597291905"
       x2="496.4788571043849"
       y2="153.60646989717125" />
  </defs>
  <sodipodi:namedview
     id="namedview57"
     pagecolor="#505050"
     bordercolor="#ffffff"
     borderopacity="1"
     inkscape:showpageshadow="0"
     inkscape:pageopacity="0"
     inkscape:pagecheckerboard="1"
     inkscape:deskcolor="#505050"
     showgrid="false"
     inkscape:zoom="0.92988913"
     inkscape:cx="294.65878"
     inkscape:cy="60.759932"
     inkscape:window-width="1366"
     inkscape:window-height="722"
     inkscape:window-x="0"
     inkscape:window-y="0"
     inkscape:window-maximized="1"
     inkscape:current-layer="g205"
     showguides="false">
    <sodipodi:guide
       position="-114.25141,38.322365"
       orientation="0,-1"
       id="guide12819"
       inkscape:locked="false" />
    <sodipodi:guide
       position="8.1762933,68.739195"
       orientation="1,0"
       id="guide12821"
       inkscape:locked="false" />
    <sodipodi:guide
       position="76.614152,93.833075"
       orientation="0,-1"
       id="guide12827"
       inkscape:locked="false" />
    <sodipodi:guide
       position="-48.094815,143.26041"
       orientation="1,0"
       id="guide12829"
       inkscape:locked="false" />
    <sodipodi:guide
       position="142.77075,139.45831"
       orientation="0,-1"
       id="guide12831"
       inkscape:locked="false" />
    <sodipodi:guide
       position="-93.720054,150.1042"
       orientation="1,0"
       id="guide12833"
       inkscape:locked="false" />
    <sodipodi:guide
       position="-13.875896,-5.7820224"
       orientation="0,-1"
       id="guide12837"
       inkscape:locked="false" />
    <sodipodi:guide
       position="52.280693,215.50035"
       orientation="1,0"
       id="guide12839"
       inkscape:locked="false" />
  </sodipodi:namedview>
  <g
     inkscape:label="Glow"
     transform="translate(0,-2.0)"
     id="g205">
    <path
       id="path12841"
       style="fill:none;stroke:url(#glow-applied-5);filter:url(#glow-filter-statics);opacity:1;stroke-opacity:1;fill-opacity:1;stroke-width:2;stroke-linecap:round;stroke-linejoin:round;stroke-dasharray:none;paint-order:stroke markers fill"
       inkscape:label="statics"
       d="m 439.83687,52.512118 -75.81325,3.118745 81.26216,-78.456577 -5.47314,75.342309 M 441.6588,23.631058 379.73081,21.728501 410.96212,-8.4500636 410.20323,53.695571 M 439.38946,52.024562 405.37813,17.18025"
       transform="rotate(43.91037,325.25383,-129.40709)" />
    <path
       id="path13801"
       style="display:inline;fill:none;stroke:url(#glow-applied-10);filter:url(#glow-filter-geometrics);opacity:1;stroke-opacity:1;stroke-width:5;stroke-linecap:round;stroke-linejoin:round;paint-order:stroke markers fill"
       inkscape:label="geometrics"
       d="m 502.87489,159.57843 a 20.697548,20.697548 0 0 1 -20.69755,20.69755 20.697548,20.697548 0 0 1 -20.69755,-20.69755 20.697548,20.697548 0 0 1 20.69755,-20.69755 20.697548,20.697548 0 0 1 20.69755,20.69755 z m 25.12529,-14.63895 a 11.154489,11.154489 0 0 1 -3.87779,15.29078 11.154489,11.154489 0 0 1 -15.29078,-3.8778 11.154489,11.154489 0 0 1 3.8778,-15.29077 11.154489,11.154489 0 0 1 15.29077,3.87779 z m -73.00283,0.30321 a 11.154489,11.154489 0 0 1 -2.99213,15.48846 11.154489,11.154489 0 0 1 -15.48847,-2.99213 11.154489,11.154489 0 0 1 2.99213,-15.48846 11.154489,11.154489 0 0 1 15.48847,2.99213 z"
       transform="rotate(0.55145713,12880.939,-20763.679)" />
    <path
       id="path10016"
       style="display:inline;fill:none;stroke:url(#glow-applied-29);filter:url(#glow-filter-organics);opacity:1;stroke-opacity:1;fill-opacity:1;stroke-width:5;stroke-linecap:round;stroke-linejoin:round;stroke-dasharray:none;paint-order:stroke markers fill"
       inkscape:label="organics"
       d="m 277.0012,231.32716 c 0,0 6.72306,-16.0876 28.13921,-24.46953 49.50958,-19.37723 59.52396,9.57599 119.03919,-3.77282 36.96975,-8.29204 51.04063,-49.02876 51.04063,-49.02876 m -27.35479,46.02346 c 0,0 4.58392,-5.78756 14.83333,-3.42152 10.24928,2.36595 13.47366,7.77301 13.47366,7.77301 m -17.058,-13.83727 c 0.62241,-0.15542 4.32232,-3.84893 11.26523,-3.66077 9.40371,0.25489 12.48495,5.03861 12.48495,5.03861 m -14.21607,-11.28811 c 0.62242,-0.15543 1.55844,-1.53569 7.34902,-2.41266 7.60117,-1.15108 11.16764,2.73274 11.16764,2.73274 m -11.82247,-9.61831 c 0.62243,-0.15546 3.51305,-2.87931 7.35528,-3.62838 5.45984,-1.06432 6.99911,0.95661 6.99911,0.95661 m -9.39174,-6.70054 c 0.62239,-0.15542 1.60112,-1.92882 4.26558,-2.85131 3.31528,-1.14777 5.2432,0.1741 5.2432,0.1741 m -7.31025,-5.7135 c 0.62241,-0.15543 1.84983,-1.43626 3.50413,-2.16035 1.83871,-0.8048 3.4862,-0.12287 3.4862,-0.12287 m -7.46497,-5.2254 c 0.62648,0.13545 1.44248,-1.22998 2.51532,-2.45968 1.12446,-1.28839 2.75057,-0.99132 2.75057,-0.99132 m -298.9338,146.82438 c 0,0 -13.10154,20.44719 -39.00688,21.45321 -27.62301,1.07274 -66.829081,-16.92233 -94.1575,-13.198 -59.533108,8.11318 -72.71295,53.89924 -72.71295,53.89924 m 28.29142,-48.38491 c 0,0 -4.5943191,5.77931 -14.8394613,3.39484 -10.2450087,-2.3844 -13.4596427,-7.79725 -13.4596427,-7.79725 m 17.03307265,13.86794 c -0.62270005,0.1543 -4.32924455,3.84115 -11.27180265,3.64049 -9.403239,-0.2718 -12.475881,-5.06106 -12.475881,-5.06106 m 14.195758,11.31368 c -0.622702,0.15431 -1.561177,1.53291 -7.353357,2.39942 -7.603221,1.13741 -11.162699,-2.75282 -11.162699,-2.75282 m 11.805141,9.63957 c -0.622699,0.15433 -3.518216,2.87299 -7.361796,3.61513 -5.461745,1.05451 -6.997381,-0.96919 -6.997381,-0.96919 m 9.379678,6.71742 c -0.622671,0.1543 -1.604591,1.92594 -4.270697,2.84364 -3.317351,1.1418 -5.24289,-0.18354 -5.24289,-0.18354 m 7.29996,5.72665 c -0.622671,0.1543 -1.852411,1.43291 -3.508016,2.15403 -1.840139,0.8015 -3.486406,0.1166 -3.486406,0.1166 m 7.455563,5.23882 c -0.626258,-0.13652 -1.444732,1.22736 -2.519786,2.45512 -1.12677,1.28636 -2.752348,0.98638 -2.752348,0.98638"
       transform="matrix(0.94198133,-0.33566525,-0.33566525,-0.94198133,150.13075,354.40472)" />
  </g>
  <g
     inkscape:label="Shape"
     id="g265">
    <path
       id="path211"
       style="opacity:1;stroke:#e8e2da;stroke-opacity:1;fill:none;fill-opacity:1;stroke-width:2;stroke-linecap:round;stroke-linejoin:round;stroke-dasharray:none;paint-order:stroke markers fill"
       inkscape:label="base"
       d="m 439.83687,52.512118 -75.81325,3.118745 81.26216,-78.456577 -5.47314,75.342309 M 441.6588,23.631058 379.73081,21.728501 410.96212,-8.4500636 410.20323,53.695571 M 439.38946,52.024562 405.37813,17.18025"
       transform="rotate(43.91037,325.25383,-129.40709)" />
    <path
       id="circle221"
       style="display:inline;opacity:1;stroke:#e8e2da;stroke-opacity:1;fill:none;stroke-width:5;stroke-linecap:round;stroke-linejoin:round;paint-order:stroke markers fill"
       inkscape:label="circles"
       d="m 502.87489,159.57843 a 20.697548,20.697548 0 0 1 -20.69755,20.69755 20.697548,20.697548 0 0 1 -20.69755,-20.69755 20.697548,20.697548 0 0 1 20.69755,-20.69755 20.697548,20.697548 0 0 1 20.69755,20.69755 z m 25.12529,-14.63895 a 11.154489,11.154489 0 0 1 -3.87779,15.29078 11.154489,11.154489 0 0 1 -15.29078,-3.8778 11.154489,11.154489 0 0 1 3.8778,-15.29077 11.154489,11.154489 0 0 1 15.29077,3.87779 z m -73.00283,0.30321 a 11.154489,11.154489 0 0 1 -2.99213,15.48846 11.154489,11.154489 0 0 1 -15.48847,-2.99213 11.154489,11.154489 0 0 1 2.99213,-15.48846 11.154489,11.154489 0 0 1 15.48847,2.99213 z"
       transform="rotate(0.55145713,12880.939,-20763.679)" />
    <path
       id="path259"
       style="display:inline;opacity:1;stroke:#e8e2da;stroke-opacity:1;fill:none;fill-opacity:1;stroke-width:5;stroke-linecap:round;stroke-linejoin:round;stroke-dasharray:none;paint-order:stroke markers fill"
       inkscape:label="vines"
       transform="matrix(0.94198133,-0.33566525,-0.33566525,-0.94198133,150.13075,354.40472)"
       d="m 277.0012,231.32716 c 0,0 6.72306,-16.0876 28.13921,-24.46953 49.50958,-19.37723 59.52396,9.57599 119.03919,-3.77282 36.96975,-8.29204 51.04063,-49.02876 51.04063,-49.02876 m -27.35479,46.02346 c 0,0 4.58392,-5.78756 14.83333,-3.42152 10.24928,2.36595 13.47366,7.77301 13.47366,7.77301 m -17.058,-13.83727 c 0.62241,-0.15542 4.32232,-3.84893 11.26523,-3.66077 9.40371,0.25489 12.48495,5.03861 12.48495,5.03861 m -14.21607,-11.28811 c 0.62242,-0.15543 1.55844,-1.53569 7.34902,-2.41266 7.60117,-1.15108 11.16764,2.73274 11.16764,2.73274 m -11.82247,-9.61831 c 0.62243,-0.15546 3.51305,-2.87931 7.35528,-3.62838 5.45984,-1.06432 6.99911,0.95661 6.99911,0.95661 m -9.39174,-6.70054 c 0.62239,-0.15542 1.60112,-1.92882 4.26558,-2.85131 3.31528,-1.14777 5.2432,0.1741 5.2432,0.1741 m -7.31025,-5.7135 c 0.62241,-0.15543 1.84983,-1.43626 3.50413,-2.16035 1.83871,-0.8048 3.4862,-0.12287 3.4862,-0.12287 m -7.46497,-5.2254 c 0.62648,0.13545 1.44248,-1.22998 2.51532,-2.45968 1.12446,-1.28839 2.75057,-0.99132 2.75057,-0.99132 m -298.9338,146.82438 c 0,0 -13.10154,20.44719 -39.00688,21.45321 -27.62301,1.07274 -66.829081,-16.92233 -94.1575,-13.198 -59.533108,8.11318 -72.71295,53.89924 -72.71295,53.89924 m 28.29142,-48.38491 c 0,0 -4.5943191,5.77931 -14.8394613,3.39484 -10.2450087,-2.3844 -13.4596427,-7.79725 -13.4596427,-7.79725 m 17.03307265,13.86794 c -0.62270005,0.1543 -4.32924455,3.84115 -11.27180265,3.64049 -9.403239,-0.2718 -12.475881,-5.06106 -12.475881,-5.06106 m 14.195758,11.31368 c -0.622702,0.15431 -1.561177,1.53291 -7.353357,2.39942 -7.603221,1.13741 -11.162699,-2.75282 -11.162699,-2.75282 m 11.805141,9.63957 c -0.622699,0.15433 -3.518216,2.87299 -7.361796,3.61513 -5.461745,1.05451 -6.997381,-0.96919 -6.997381,-0.96919 m 9.379678,6.71742 c -0.622671,0.1543 -1.604591,1.92594 -4.270697,2.84364 -3.317351,1.1418 -5.24289,-0.18354 -5.24289,-0.18354 m 7.29996,5.72665 c -0.622671,0.1543 -1.852411,1.43291 -3.508016,2.15403 -1.840139,0.8015 -3.486406,0.1166 -3.486406,0.1166 m 7.455563,5.23882 c -0.626258,-0.13652 -1.444732,1.22736 -2.519786,2.45512 -1.12677,1.28636 -2.752348,0.98638 -2.752348,0.98638" />
  </g>
</svg>
