<?xml version="1.0" encoding="utf-8"?>
<!-- vine-decor.svg — GENERATED by Toolbox/Python/planter-extract.py (BL=planter2, BR=planter1).
     Per-path symbols (vine-{bl,br}-pNN, NN = bottom-up draw order) each
     wrap one element in its preserved ancestor transform chain; per-label
     group symbols (vine-{bl,br}-{sta,geo,org}) bundle internal <use> refs
     for the glow layer. Ordering/reverse/shimmer in Media/vine-manifest.json.
     Regenerate a different combo: planter-extract.py <bl_n> <br_n> -->
<svg xmlns="http://www.w3.org/2000/svg" xmlns:xlink="http://www.w3.org/1999/xlink"
     width="0" height="0">

<symbol id="vine-bl-p00" viewBox="0 0 134.00005 584.09772"><g><g transform="translate(-313.40248,395.99262)"><g transform="rotate(43.910367,287.2216,26.577553)"><path style="fill:none;stroke-width:2;stroke-linecap:round;stroke-linejoin:round" d="m 464.80403,78.447441 -92.67317,-2.859807 94.56145,-91.427136 -1.91251,94.29142" pathLength="100"/></g></g></g></symbol>
<symbol id="vine-bl-p01" viewBox="0 0 134.00005 584.09772"><g><g transform="translate(-313.40248,395.99262)"><g transform="rotate(43.910367,287.2216,26.577553)"><path style="fill:none;stroke-width:2;stroke-linecap:round;stroke-linejoin:round" d="M 462.96956,76.519034 437.28061,50.319829" pathLength="100"/></g></g></g></symbol>
<symbol id="vine-bl-p02" viewBox="0 0 134.00005 584.09772"><g><g transform="matrix(1,0,0,-1,-414.7943,721.87685)"><g><circle style="fill:none;stroke-width:4;stroke-linecap:round;stroke-linejoin:round" cx="481.03046" cy="178.57735" r="25.653601" pathLength="100"/></g></g></g></symbol>
<symbol id="vine-bl-p03" viewBox="0 0 134.00005 584.09772"><g><g transform="translate(-313.40248,395.99262)"><g transform="rotate(43.910367,287.2216,26.577553)"><path style="fill:#073720;stroke-width:2;stroke-linecap:round;stroke-linejoin:round" d="M 408.47192,76.826691 465.84274,21.662409" pathLength="100"/></g></g></g></symbol>
<symbol id="vine-bl-p04" viewBox="0 0 134.00005 584.09772"><g><g transform="translate(-416.7943,400.84412)"><g transform="matrix(-0.71607449,-0.69802387,-0.69802387,0.71607449,831.73228,103.67162)"><path style="fill:none;stroke-width:5;stroke-linecap:round;stroke-linejoin:round" d="m 234.98929,247.57258 c 0,0 32.50335,1.87789 58.92784,-100.39419 40.51626,-156.8122139 135.43826,-107.337482 215.86356,-169.794942 73.06372,-56.740532 66.21834,-95.866878 66.21834,-95.866878" pathLength="100"/></g></g></g></symbol>
<symbol id="vine-bl-p05" viewBox="0 0 134.00005 584.09772"><g><g transform="translate(-416.7943,400.84412)"><g transform="rotate(-99.688029,298.81816,74.479321)"><path style="fill:none;stroke-width:5;stroke-linecap:round;stroke-linejoin:round" d="m 228.46521,240.64207 c 0,0 17.96884,-20.82053 55.51244,-13.4434 39.17793,7.69827 46.52817,26.82617 76.52192,34.26661 54.9891,13.64094 69.71852,-11.76035 69.71852,-11.76035" pathLength="100"/></g></g></g></symbol>
<symbol id="vine-bl-p06" viewBox="0 0 134.00005 584.09772"><g><g transform="translate(-416.7943,400.84412)"><g transform="rotate(-99.688029,298.81816,74.479321)"><path style="fill:none;stroke-width:4;stroke-linecap:round;stroke-linejoin:round" d="m 382.16723,274.13206 c 0,0 7.10185,-2.01784 14.03649,5.89161 6.93457,7.90931 6.3914,14.1813 6.3914,14.1813" pathLength="100"/></g></g></g></symbol>
<symbol id="vine-bl-p07" viewBox="0 0 134.00005 584.09772"><g><g transform="translate(-416.7943,400.84412)"><g transform="rotate(-99.688029,298.81816,74.479321)"><path style="fill:none;stroke-width:4;stroke-linecap:round;stroke-linejoin:round" d="m 396.83883,273.00801 c 0.5959,0.23764 5.75671,-0.59752 11.28084,3.6124 7.48205,5.70206 7.18698,11.38458 7.18698,11.38458" pathLength="100"/></g></g></g></symbol>
<symbol id="vine-bl-p08" viewBox="0 0 134.00005 584.09772"><g><g transform="translate(-416.7943,400.84412)"><g transform="rotate(-99.688029,298.81816,74.479321)"><path style="fill:none;stroke-width:4;stroke-linecap:round;stroke-linejoin:round" d="m 410.3669,270.53738 c 0.59591,0.23765 2.16207,-0.33552 7.37354,2.33671 6.84091,3.50779 7.46547,8.74361 7.46547,8.74361" pathLength="100"/></g></g></g></symbol>
<symbol id="vine-bl-p09" viewBox="0 0 134.00005 584.09772"><g><g transform="translate(-416.7943,400.84412)"><g transform="rotate(-99.688029,298.81816,74.479321)"><path style="fill:none;stroke-width:4;stroke-linecap:round;stroke-linejoin:round" d="m 421.23276,266.90386 c 0.59595,0.23755 4.53338,-0.28361 8.08904,1.35382 5.05254,2.32687 5.12068,4.86634 5.12068,4.86634" pathLength="100"/></g></g></g></symbol>
<symbol id="vine-bl-p10" viewBox="0 0 134.00005 584.09772"><g><g transform="translate(-416.7943,400.84412)"><g transform="rotate(-99.688029,298.81816,74.479321)"><path style="fill:none;stroke-width:4;stroke-linecap:round;stroke-linejoin:round" d="m 430.73677,262.19837 c 0.59591,0.23754 2.42644,-0.62957 5.12769,0.17886 3.36103,1.00596 4.15306,3.20525 4.15306,3.20525" pathLength="100"/></g></g></g></symbol>
<symbol id="vine-bl-p11" viewBox="0 0 134.00005 584.09772"><g><g transform="translate(-416.7943,400.84412)"><g transform="rotate(-99.688029,298.81816,74.479321)"><path style="fill:none;stroke-width:4;stroke-linecap:round;stroke-linejoin:round" d="m 437.42414,256.67415 c 0.59588,0.23764 2.34042,-0.0845 4.10599,0.29463 1.96239,0.42139 2.90082,1.93751 2.90082,1.93751" pathLength="100"/></g></g></g></symbol>
<symbol id="vine-bl-p12" viewBox="0 0 134.00005 584.09772"><g><g transform="translate(-416.7943,400.84412)"><g transform="rotate(-99.688029,298.81816,74.479321)"><path style="fill:none;stroke-width:4;stroke-linecap:round;stroke-linejoin:round" d="m 441.42677,250.30364 c 0.42924,0.47601 1.88934,-0.15513 3.47853,-0.52607 1.66536,-0.38842 2.81135,0.80288 2.81135,0.80288" pathLength="100"/></g></g></g></symbol>
<symbol id="vine-bl-p13" viewBox="0 0 134.00005 584.09772"><g><g transform="translate(-416.7943,400.84412)"><g transform="matrix(-0.71607449,-0.69802387,-0.69802387,0.71607449,831.73228,103.67162)"><path style="fill:none;stroke-width:4;stroke-linecap:round;stroke-linejoin:round" d="m 564.41468,-63.645285 c 0,0 2.86821,-6.803044 13.377,-7.265708 10.50864,-0.462684 15.0622,3.884483 15.0622,3.884483" pathLength="100"/></g></g></g></symbol>
<symbol id="vine-bl-p14" viewBox="0 0 134.00005 584.09772"><g><g transform="translate(-416.7943,400.84412)"><g transform="matrix(-0.71607449,-0.69802387,-0.69802387,0.71607449,831.73228,103.67162)"><path style="fill:none;stroke-width:4;stroke-linecap:round;stroke-linejoin:round" d="m 572.71541,-75.795073 c 0.55813,-0.316321 3.13489,-4.865117 9.875,-6.54152 9.12902,-2.270533 13.37791,1.514321 13.37791,1.514321" pathLength="100"/></g></g></g></symbol>
<symbol id="vine-bl-p15" viewBox="0 0 134.00005 584.09772"><g><g transform="translate(-416.7943,400.84412)"><g transform="matrix(-0.71607449,-0.69802387,-0.69802387,0.71607449,831.73228,103.67162)"><path style="fill:none;stroke-width:4;stroke-linecap:round;stroke-linejoin:round" d="m 579.25023,-87.895045 c 0.55813,-0.316321 1.09068,-1.896695 6.43552,-4.291042 7.01602,-3.142928 11.49165,-0.35501 11.49165,-0.35501" pathLength="100"/></g></g></g></symbol>
<symbol id="vine-bl-p16" viewBox="0 0 134.00005 584.09772"><g><g transform="translate(-416.7943,400.84412)"><g transform="matrix(-0.71607449,-0.69802387,-0.69802387,0.71607449,831.73228,103.67162)"><path style="fill:none;stroke-width:4;stroke-linecap:round;stroke-linejoin:round" d="m 583.21244,-98.645404 c 0.55812,-0.316322 2.61454,-3.714316 6.11626,-5.464136 4.97597,-2.48637 6.99986,-0.951 6.99986,-0.951" pathLength="100"/></g></g></g></symbol>
<symbol id="vine-bl-p17" viewBox="0 0 134.00005 584.09772"><g><g transform="translate(-416.7943,400.84412)"><g transform="matrix(-0.71607449,-0.69802387,-0.69802387,0.71607449,831.73228,103.67162)"><path style="fill:none;stroke-width:4;stroke-linecap:round;stroke-linejoin:round" d="m 585.4864,-109.00382 c 0.55809,-0.31631 1.02665,-2.28691 3.34713,-3.88871 2.88728,-1.99297 5.09861,-1.23515 5.09861,-1.23515" pathLength="100"/></g></g></g></symbol>
<symbol id="vine-bl-p18" viewBox="0 0 134.00005 584.09772"><g><g transform="translate(-416.7943,400.84412)"><g transform="matrix(-0.71607449,-0.69802387,-0.69802387,0.71607449,831.73228,103.67162)"><path style="fill:none;stroke-width:4;stroke-linecap:round;stroke-linejoin:round" d="m 585.35968,-117.67687 c 0.55812,-0.31631 1.39809,-1.87884 2.79832,-3.01917 1.55632,-1.26744 3.32621,-1.05121 3.32621,-1.05121" pathLength="100"/></g></g></g></symbol>
<symbol id="vine-bl-p19" viewBox="0 0 134.00005 584.09772"><g><g transform="translate(-416.7943,400.84412)"><g transform="matrix(-0.71607449,-0.69802387,-0.69802387,0.71607449,831.73228,103.67162)"><path style="fill:none;stroke-width:4;stroke-linecap:round;stroke-linejoin:round" d="m 582.89326,-124.78469 c 0.63989,-0.0371 1.06083,-1.57109 1.76554,-3.043 0.73872,-1.54228 2.38503,-1.69114 2.38503,-1.69114" pathLength="100"/></g></g></g></symbol>
<symbol id="vine-bl-sta" viewBox="0 0 134.00005 584.09772"><use href="#vine-bl-p00"/><use href="#vine-bl-p01"/><use href="#vine-bl-p03"/></symbol>
<symbol id="vine-bl-geo" viewBox="0 0 134.00005 584.09772"><use href="#vine-bl-p02"/></symbol>
<symbol id="vine-bl-org" viewBox="0 0 134.00005 584.09772"><use href="#vine-bl-p04"/><use href="#vine-bl-p05"/><use href="#vine-bl-p06"/><use href="#vine-bl-p07"/><use href="#vine-bl-p08"/><use href="#vine-bl-p09"/><use href="#vine-bl-p10"/><use href="#vine-bl-p11"/><use href="#vine-bl-p12"/><use href="#vine-bl-p13"/><use href="#vine-bl-p14"/><use href="#vine-bl-p15"/><use href="#vine-bl-p16"/><use href="#vine-bl-p17"/><use href="#vine-bl-p18"/><use href="#vine-bl-p19"/></symbol>

<symbol id="vine-br-p00" viewBox="0 0 81.531886 584.09772"><g><g transform="matrix(1,0,0,-1,-339.40247,729.58564)"><g transform="rotate(43.910367,287.2216,26.577553)"><path style="fill:none;stroke-width:2;stroke-linecap:round;stroke-linejoin:round" d="M 481.0014,95.250101 437.28061,50.319829" pathLength="100"/></g></g></g></symbol>
<symbol id="vine-br-p01" viewBox="0 0 81.531886 584.09772"><g><g transform="matrix(1,0,0,-1,-440.79429,721.87685)"><g><circle style="fill:none;stroke-width:4;stroke-linecap:round;stroke-linejoin:round" cx="481.03046" cy="178.57735" r="25.653601" pathLength="100"/></g></g></g></symbol>
<symbol id="vine-br-p02" viewBox="0 0 81.531886 584.09772"><g><g transform="matrix(1,0,0,-1,-339.40247,729.58564)"><g transform="rotate(43.910367,287.2216,26.577553)"><path style="fill:none;stroke-width:2;stroke-linecap:round;stroke-linejoin:round" d="M 464.80403,78.447441 408.89376,76.286864 465.99308,20.923402 464.7798,78.451918" pathLength="100"/></g></g></g></symbol>
<symbol id="vine-br-p03" viewBox="0 0 81.531886 584.09772"><g><g transform="translate(-442.79429,400.84412)"><g transform="rotate(-44.268673,192.03405,-114.01839)"><path style="fill:none;stroke-width:5;stroke-linecap:round;stroke-linejoin:round" d="m 240.71789,253.15677 c 0,0 33.65579,-7.26575 55.0518,-55.49242 13.28169,-29.93696 51.74056,-64.99449 85.57461,-88.5232 90.51014,-62.942111 66.21834,-95.866874 66.21834,-95.866874" pathLength="100"/></g></g></g></symbol>
<symbol id="vine-br-p04" viewBox="0 0 81.531886 584.09772"><g><g transform="translate(-442.79429,400.84412)"><g transform="rotate(-44.268673,192.03405,-114.01839)"><path style="fill:none;stroke-width:4;stroke-linecap:round;stroke-linejoin:round" d="m 440.1981,69.400884 c 0,0 2.43623,-6.969421 12.89537,-8.089758 10.45898,-1.120347 15.27603,2.932905 15.27603,2.932905" pathLength="100"/></g></g></g></symbol>
<symbol id="vine-br-p05" viewBox="0 0 81.531886 584.09772"><g><g transform="translate(-442.79429,400.84412)"><g transform="rotate(-44.268673,192.03405,-114.01839)"><path style="fill:none;stroke-width:4;stroke-linecap:round;stroke-linejoin:round" d="m 447.72109,56.754775 c 0.53721,-0.350677 2.82383,-5.052016 9.44564,-7.147524 8.96878,-2.838182 13.44651,0.672955 13.44651,0.672955" pathLength="100"/></g></g></g></symbol>
<symbol id="vine-br-p06" viewBox="0 0 81.531886 584.09772"><g><g transform="translate(-442.79429,400.84412)"><g transform="rotate(-44.268673,192.03405,-114.01839)"><path style="fill:none;stroke-width:4;stroke-linecap:round;stroke-linejoin:round" d="m 453.48477,44.269053 c 0.53721,-0.350677 0.96967,-1.961319 6.15395,-4.685919 6.80526,-3.576442 11.44681,-1.07449 11.44681,-1.07449" pathLength="100"/></g></g></g></symbol>
<symbol id="vine-br-p07" viewBox="0 0 81.531886 584.09772"><g><g transform="translate(-442.79429,400.84412)"><g transform="rotate(-44.268673,192.03405,-114.01839)"><path style="fill:none;stroke-width:4;stroke-linecap:round;stroke-linejoin:round" d="m 456.76547,33.291515 c 0.5372,-0.350677 2.37662,-3.870867 5.7618,-5.836699 4.81037,-2.793325 6.9265,-1.387809 6.9265,-1.387809" pathLength="100"/></g></g></g></symbol>
<symbol id="vine-br-p08" viewBox="0 0 81.531886 584.09772"><g><g transform="translate(-442.79429,400.84412)"><g transform="rotate(-44.268673,192.03405,-114.01839)"><path style="fill:none;stroke-width:4;stroke-linecap:round;stroke-linejoin:round" d="m 458.3858,22.810952 c 0.53717,-0.350663 0.88131,-2.346754 3.09685,-4.090829 2.7567,-2.169997 5.01118,-1.55225 5.01118,-1.55225" pathLength="100"/></g></g></g></symbol>
<symbol id="vine-br-p09" viewBox="0 0 81.531886 584.09772"><g><g transform="translate(-442.79429,400.84412)"><g transform="rotate(-44.268673,192.03405,-114.01839)"><path style="fill:none;stroke-width:4;stroke-linecap:round;stroke-linejoin:round" d="m 457.71579,14.162892 c 0.5372,-0.350665 1.2776,-1.962764 2.60361,-3.188605 1.47383,-1.3624825 3.25379,-1.2575959 3.25379,-1.2575959" pathLength="100"/></g></g></g></symbol>
<symbol id="vine-br-p10" viewBox="0 0 81.531886 584.09772"><g><g transform="translate(-442.79429,400.84412)"><g transform="rotate(-44.268673,192.03405,-114.01839)"><path style="fill:none;stroke-width:4;stroke-linecap:round;stroke-linejoin:round" d="m 454.80877,7.2236134 c 0.63631,-0.077129 0.96029,-1.6344836 1.57137,-3.1476642 0.64061,-1.5855437 2.27436,-1.8372847 2.27436,-1.8372847" pathLength="100"/></g></g></g></symbol>
<symbol id="vine-br-sta" viewBox="0 0 81.531886 584.09772"><use href="#vine-br-p00"/><use href="#vine-br-p02"/></symbol>
<symbol id="vine-br-geo" viewBox="0 0 81.531886 584.09772"><use href="#vine-br-p01"/></symbol>
<symbol id="vine-br-org" viewBox="0 0 81.531886 584.09772"><use href="#vine-br-p03"/><use href="#vine-br-p04"/><use href="#vine-br-p05"/><use href="#vine-br-p06"/><use href="#vine-br-p07"/><use href="#vine-br-p08"/><use href="#vine-br-p09"/><use href="#vine-br-p10"/></symbol>

</svg>
