<?xml version="1.0" encoding="utf-8"?>
<!-- vine-decor.svg — GENERATED by Toolbox/Python/planter-extract.py (BL=planter3, BR=planter1).
     White-line skeletons extracted from the planter Shape layers; the offset
     shimmer layer is added by builder_common.vine_decor() as duplicate <use>
     elements stroked with the host-document shimmer gradients.
     Strokable elements carry pathLength="100" for the one-rule dash growth.
     Regenerate with a different combo: planter-extract.py <bl_n> <br_n> -->
<svg xmlns="http://www.w3.org/2000/svg" xmlns:xlink="http://www.w3.org/1999/xlink"
     width="0" height="0">

<symbol id="vine-bl-sta" viewBox="0 0 263.25312 752.48425">
<g transform="matrix(1,0,0,-1,-249.20633,761.97217)">
    <g transform="rotate(43.910367,287.2216,26.577553)">
      <path style="fill:#073720;stroke-width:2;stroke-linecap:round;stroke-linejoin:round" d="m 367.44025,77.460739 97.71466,-94.002085" pathLength="100"/>
      <path style="fill:none;stroke-width:2;stroke-linecap:round;stroke-linejoin:round" d="M 417.19644,28.970942 387.34629,-1.550817" pathLength="100"/>
      <path style="fill:none;stroke-width:2;stroke-linecap:round;stroke-linejoin:round" d="M 464.80403,78.447441 321.17459,77.447386 466.16584,-62.527004 464.7798,78.451918" pathLength="100"/>
    </g>
  </g>
</symbol>

<symbol id="vine-bl-geo" viewBox="0 0 263.25312 752.48425">
<g transform="translate(-350.59815,436.08794)">
    <g>
      <circle style="fill:none;stroke-width:4;stroke-linecap:round;stroke-linejoin:round" cx="480.54871" cy="245.40863" r="5.2434464" pathLength="100"/>
      <circle style="fill:none;stroke-width:4;stroke-linecap:round;stroke-linejoin:round" cx="480.54718" cy="223.01958" r="14.651413" pathLength="100"/>
      <circle style="fill:none;stroke-width:4;stroke-linecap:round;stroke-linejoin:round" cx="481.03046" cy="178.57735" r="26.676235" pathLength="100"/>
    </g>
  </g>
</symbol>

<symbol id="vine-bl-org" viewBox="0 0 263.25312 752.48425">
<g transform="translate(-352.59815,460.08794)">
    <g transform="rotate(-38.009103,206.13579,-196.0083)">
      <path style="fill:none;stroke-width:4;stroke-linecap:round;stroke-linejoin:round" d="m 527.13723,-70.098868 c 0.62521,0.141228 1.45385,-1.216547 2.53804,-2.43625 1.13633,-1.277911 2.75963,-0.965804 2.75963,-0.965804" pathLength="100"/>
      <path style="fill:none;stroke-width:4;stroke-linecap:round;stroke-linejoin:round" d="m 527.54233,-62.58619 c 0.62381,-0.149673 1.86305,-1.41906 3.52398,-2.127804 1.84608,-0.78774 3.48719,-0.09058 3.48719,-0.09058" pathLength="100"/>
      <path style="fill:none;stroke-width:4;stroke-linecap:round;stroke-linejoin:round" d="m 525.26618,-54.216196 c 0.6238,-0.149676 1.61892,-1.913909 4.29181,-2.811693 3.32576,-1.117015 5.24136,0.222658 5.24136,0.222658" pathLength="100"/>
      <path style="fill:none;stroke-width:4;stroke-linecap:round;stroke-linejoin:round" d="m 520.21696,-44.890251 c 0.62383,-0.149678 3.53956,-2.84666 7.38857,-3.560109 5.46945,-1.013705 6.98995,1.021389 6.98995,1.021389" pathLength="100"/>
      <path style="fill:none;stroke-width:4;stroke-linecap:round;stroke-linejoin:round" d="m 513.43694,-35.65442 c 0.62383,-0.149678 1.57257,-1.521207 7.37105,-2.344481 7.6115,-1.080622 11.14186,2.836044 11.14186,2.836044" pathLength="100"/>
      <path style="fill:none;stroke-width:4;stroke-linecap:round;stroke-linejoin:round" d="m 503.81145,-25.832856 c 0.62383,-0.149679 4.3578,-3.808738 11.29867,-3.556288 9.40093,0.341968 12.43776,5.154021 12.43776,5.154021" pathLength="100"/>
      <path style="fill:none;stroke-width:4;stroke-linecap:round;stroke-linejoin:round" d="m 492.47511,-16.45166 c 0,0 4.63731,-5.744855 14.86438,-3.284012 10.22693,2.460781 13.40109,7.897464 13.40109,7.897464" pathLength="100"/>
      <path style="fill:none;stroke-width:5;stroke-linecap:round;stroke-linejoin:round" d="m 236.80863,247.41383 c 0,0 65.03811,-12.99978 117.58947,-74.19609 50.84047,-59.20398 36.01909,-134.562998 80.14222,-162.614038 100.85404,-64.117421 81.6495,-75.677205 81.6495,-75.677205" pathLength="100"/>
    </g>
    <g transform="rotate(-105.0462,304.86912,98.843986)">
      <path style="fill:none;stroke-width:4;stroke-linecap:round;stroke-linejoin:round" d="m 438.38524,250.8797 c 0.53924,0.34648 1.78217,-0.64616 3.21804,-1.42167 1.50477,-0.81239 2.92353,0.0359 2.92353,0.0359" pathLength="100"/>
      <path style="fill:none;stroke-width:4;stroke-linecap:round;stroke-linejoin:round" d="m 436.19731,258.07813 c 0.63739,0.0727 2.23596,-0.69655 4.03912,-0.7947 2.00415,-0.10909 3.308,1.10715 3.308,1.10715" pathLength="100"/>
      <path style="fill:none;stroke-width:4;stroke-linecap:round;stroke-linejoin:round" d="m 431.19661,265.1655 c 0.63738,0.0726 2.17573,-1.24506 4.99448,-1.17487 3.50726,0.0874 4.84938,2.00127 4.84938,2.00127" pathLength="100"/>
      <path style="fill:none;stroke-width:4;stroke-linecap:round;stroke-linejoin:round" d="m 423.26311,272.20307 c 0.63742,0.0726 4.29953,-1.46492 8.16051,-0.81938 5.48643,0.9174 6.21949,3.34971 6.21949,3.34971" pathLength="100"/>
      <path style="fill:none;stroke-width:4;stroke-linecap:round;stroke-linejoin:round" d="m 413.73393,278.56421 c 0.63741,0.0727 1.99791,-0.89187 7.72843,0.31698 7.52227,1.58687 9.50074,6.47456 9.50074,6.47456" pathLength="100"/>
      <path style="fill:none;stroke-width:4;stroke-linecap:round;stroke-linejoin:round" d="m 401.33051,284.50289 c 0.6374,0.0727 5.39738,-2.08926 11.83365,0.52108 8.71748,3.53556 9.92603,9.09591 9.92603,9.09591" pathLength="100"/>
      <path style="fill:none;stroke-width:4;stroke-linecap:round;stroke-linejoin:round" d="m 387.46989,289.44282 c 0,0 6.32203,-3.81314 15.09139,1.99607 8.76926,5.80909 9.89332,12.00339 9.89332,12.00339" pathLength="100"/>
      <path style="fill:none;stroke-width:5;stroke-linecap:round;stroke-linejoin:round" d="m 228.46521,240.64207 c 0,0 37.48931,27.7463 73.72414,40.03372 18.03217,6.1148 32.37984,8.7534 61.99003,6.68781 52.04901,-3.63091 65.88504,-32.68921 65.88504,-32.68921" pathLength="100"/>
    </g>
    <g transform="rotate(-52.61392,238.22645,-56.215303)">
      <path style="fill:none;stroke-width:4;stroke-linecap:round;stroke-linejoin:round" d="m 697.64273,-97.302675 c 0,0 0.1091,-2.884895 4.24523,-6.359855 4.12534,-3.46599 6.4511,-3.09406 6.4511,-3.09406" pathLength="100"/>
      <path style="fill:none;stroke-width:4;stroke-linecap:round;stroke-linejoin:round" d="m 685.22505,-80.046875 c 0,0 3.24304,-3.45366 2.95674,-8.353 -0.28631,-4.89936 -3.77415,-7.30359 -3.77415,-7.30359" pathLength="100"/>
      <path style="fill:none;stroke-width:4;stroke-linecap:round;stroke-linejoin:round" d="m 689.35905,-75.496945 c 0,0 7.59931,-7.37909 3.97362,-19.03523 -3.08244,-9.909825 1.1547,-14.402655 1.1547,-14.402655" pathLength="100"/>
      <path style="fill:none;stroke-width:4;stroke-linecap:round;stroke-linejoin:round" d="m 682.12247,-74.614715 c 0,0 -1.27212,0.41623 -0.70691,2.41785 0.32902,1.16507 1.42896,0.9575 2.00287,3.9358 0.547,2.84002 -0.5075,5.08258 -0.5075,5.08258 0,0 3.56024,-4.47289 6.02629,-5.44317 2.25615,-0.88765 3.8483,-0.36523 5.95974,-0.75614 5.51965,-1.02231 4.82602,-4.56856 4.82602,-4.56856" pathLength="100"/>
      <path style="fill:none;stroke-width:4;stroke-linecap:round;stroke-linejoin:round" d="m 674.84754,-64.372505 c 0,0 -1.72838,1.1513 -1.43181,3.65755 0.31443,2.65658 2.14769,3.22065 2.72713,5.41172 0.96536,3.6501 -0.51846,5.94165 -0.51846,5.94165 0,0 5.09426,-5.2034 10.56628,-6.34859 4.21807,-0.88275 6.40361,0.37458 9.86337,0.21789 5.60783,-0.25396 4.82605,-4.56857 4.82605,-4.56857" pathLength="100"/>
      <path style="fill:none;stroke-width:4;stroke-linecap:round;stroke-linejoin:round" d="m 666.08956,-57.531015 c 0,0 -2.25486,1.64911 -1.2325,5.07394 1.03275,3.45971 2.91311,4.24344 3.71796,7.38713 1.16712,4.55879 -1.99188,9.897 -1.99188,9.897 0,0 7.10266,-6.80242 15.27728,-7.49177 6.30138,-0.53146 9.32361,1.7096 12.76513,1.43811 6.43155,-0.50726 7.11273,-3.8627 7.11273,-3.8627" pathLength="100"/>
      <path style="fill:none;stroke-width:4;stroke-linecap:round;stroke-linejoin:round" d="m 654.05138,-53.448155 c 0,0 -1.85108,1.91465 -0.93357,6.32563 0.74767,3.59426 4.74107,6.40895 5.30884,11.50153 0.69309,6.21648 -5.47474,12.74035 -5.47474,12.74035 0,0 9.98085,-4.23855 20.57211,-4.02052 8.1643,0.16811 12.0975,3.29412 16.53156,3.75457 7.26881,0.75481 9.25009,-2.61754 9.25009,-2.61754" pathLength="100"/>
      <path style="fill:none;stroke-width:4;stroke-linecap:round;stroke-linejoin:round" d="m 640.80598,-52.589925 c 0,0 -3.22538,1.64432 -2.20796,5.96368 1.29479,5.4967 6.08622,9.15978 7.14879,15.72623 1.46626,9.06133 -14.1366,22.7213698 -14.1366,22.7213698 0,0 16.60932,-8.2567998 32.93386,-3.1720598 11.71317,3.6483998 13.16778,8.1237298 19.42293,9.1064498 10.25413,1.61101 12.31212,-5.50647 12.31212,-5.50647" pathLength="100"/>
      <path style="fill:none;stroke-width:4;stroke-linecap:round;stroke-linejoin:round" d="m 599.8202,6.9980748 c 0,0 21.86395,-9.92923 46.54492,-6.37134 16.0253,2.31013 20.98038,10.9619302 20.98038,10.9619302" pathLength="100"/>
      <path style="fill:none;stroke-width:5;stroke-linecap:round;stroke-linejoin:round" d="m 251.71315,243.35243 c 0,0 25.52221,5.62565 76.07573,-30.32393 C 428.85711,141.15692 419.98946,20.900673 549.05832,5.5737761 637.30052,-4.9049647 631.75919,-31.033945 631.75919,-31.033945" pathLength="100"/>
    </g>
  </g>
</symbol>

<symbol id="vine-br-sta" viewBox="0 0 81.531886 584.09772">
<g transform="matrix(1,0,0,-1,-339.40247,729.58564)">
    <g transform="rotate(43.910367,287.2216,26.577553)">
      <path style="fill:none;stroke-width:2;stroke-linecap:round;stroke-linejoin:round" d="M 481.0014,95.250101 437.28061,50.319829" pathLength="100"/>
      <path style="fill:none;stroke-width:2;stroke-linecap:round;stroke-linejoin:round" d="M 464.80403,78.447441 408.89376,76.286864 465.99308,20.923402 464.7798,78.451918" pathLength="100"/>
    </g>
  </g>
</symbol>

<symbol id="vine-br-geo" viewBox="0 0 81.531886 584.09772">
<g transform="matrix(1,0,0,-1,-440.79429,721.87685)">
    <g>
      <circle style="fill:none;stroke-width:4;stroke-linecap:round;stroke-linejoin:round" cx="481.03046" cy="178.57735" r="25.653601" pathLength="100"/>
    </g>
  </g>
</symbol>

<symbol id="vine-br-org" viewBox="0 0 81.531886 584.09772">
<g transform="translate(-442.79429,400.84412)">
    <g transform="rotate(-44.268673,192.03405,-114.01839)">
      <path style="fill:none;stroke-width:4;stroke-linecap:round;stroke-linejoin:round" d="m 454.80877,7.2236134 c 0.63631,-0.077129 0.96029,-1.6344836 1.57137,-3.1476642 0.64061,-1.5855437 2.27436,-1.8372847 2.27436,-1.8372847" pathLength="100"/>
      <path style="fill:none;stroke-width:4;stroke-linecap:round;stroke-linejoin:round" d="m 457.71579,14.162892 c 0.5372,-0.350665 1.2776,-1.962764 2.60361,-3.188605 1.47383,-1.3624825 3.25379,-1.2575959 3.25379,-1.2575959" pathLength="100"/>
      <path style="fill:none;stroke-width:4;stroke-linecap:round;stroke-linejoin:round" d="m 458.3858,22.810952 c 0.53717,-0.350663 0.88131,-2.346754 3.09685,-4.090829 2.7567,-2.169997 5.01118,-1.55225 5.01118,-1.55225" pathLength="100"/>
      <path style="fill:none;stroke-width:4;stroke-linecap:round;stroke-linejoin:round" d="m 456.76547,33.291515 c 0.5372,-0.350677 2.37662,-3.870867 5.7618,-5.836699 4.81037,-2.793325 6.9265,-1.387809 6.9265,-1.387809" pathLength="100"/>
      <path style="fill:none;stroke-width:4;stroke-linecap:round;stroke-linejoin:round" d="m 453.48477,44.269053 c 0.53721,-0.350677 0.96967,-1.961319 6.15395,-4.685919 6.80526,-3.576442 11.44681,-1.07449 11.44681,-1.07449" pathLength="100"/>
      <path style="fill:none;stroke-width:4;stroke-linecap:round;stroke-linejoin:round" d="m 447.72109,56.754775 c 0.53721,-0.350677 2.82383,-5.052016 9.44564,-7.147524 8.96878,-2.838182 13.44651,0.672955 13.44651,0.672955" pathLength="100"/>
      <path style="fill:none;stroke-width:4;stroke-linecap:round;stroke-linejoin:round" d="m 440.1981,69.400884 c 0,0 2.43623,-6.969421 12.89537,-8.089758 10.45898,-1.120347 15.27603,2.932905 15.27603,2.932905" pathLength="100"/>
      <path style="fill:none;stroke-width:5;stroke-linecap:round;stroke-linejoin:round" d="m 240.71789,253.15677 c 0,0 33.65579,-7.26575 55.0518,-55.49242 13.28169,-29.93696 51.74056,-64.99449 85.57461,-88.5232 90.51014,-62.942111 66.21834,-95.866874 66.21834,-95.866874" pathLength="100"/>
    </g>
  </g>
</symbol>

</svg>
